G75*
%MOIN*%
%OFA0B0*%
%FSLAX24Y24*%
%IPPOS*%
%LPD*%
%AMOC8*
5,1,8,0,0,1.08239X$1,22.5*
%
%ADD10C,0.0050*%
%ADD11C,0.0000*%
%ADD12C,0.0600*%
%ADD13C,0.0279*%
%ADD14C,0.0120*%
%ADD15C,0.0750*%
D10*
X002625Y004169D02*
X037625Y004169D01*
X037701Y004171D01*
X037777Y004177D01*
X037852Y004186D01*
X037927Y004200D01*
X038001Y004217D01*
X038074Y004238D01*
X038146Y004262D01*
X038217Y004291D01*
X038286Y004322D01*
X038353Y004357D01*
X038418Y004396D01*
X038482Y004438D01*
X038543Y004483D01*
X038602Y004531D01*
X038658Y004582D01*
X038712Y004636D01*
X038763Y004692D01*
X038811Y004751D01*
X038856Y004812D01*
X038898Y004876D01*
X038937Y004941D01*
X038972Y005008D01*
X039003Y005077D01*
X039032Y005148D01*
X039056Y005220D01*
X039077Y005293D01*
X039094Y005367D01*
X039108Y005442D01*
X039117Y005517D01*
X039123Y005593D01*
X039125Y005669D01*
X039125Y017976D01*
X038515Y017976D01*
X038490Y017978D01*
X038465Y017983D01*
X038441Y017992D01*
X038419Y018004D01*
X038399Y018019D01*
X038381Y018037D01*
X038366Y018057D01*
X038354Y018079D01*
X038345Y018103D01*
X038340Y018128D01*
X038338Y018153D01*
X038340Y018178D01*
X038345Y018203D01*
X038354Y018227D01*
X038366Y018249D01*
X038381Y018269D01*
X038399Y018287D01*
X038419Y018302D01*
X038441Y018314D01*
X038465Y018323D01*
X038490Y018328D01*
X038515Y018330D01*
X039125Y018330D01*
X039125Y022669D01*
X039123Y022745D01*
X039117Y022821D01*
X039108Y022896D01*
X039094Y022971D01*
X039077Y023045D01*
X039056Y023118D01*
X039032Y023190D01*
X039003Y023261D01*
X038972Y023330D01*
X038937Y023397D01*
X038898Y023462D01*
X038856Y023526D01*
X038811Y023587D01*
X038763Y023646D01*
X038712Y023702D01*
X038658Y023756D01*
X038602Y023807D01*
X038543Y023855D01*
X038482Y023900D01*
X038418Y023942D01*
X038353Y023981D01*
X038286Y024016D01*
X038217Y024047D01*
X038146Y024076D01*
X038074Y024100D01*
X038001Y024121D01*
X037927Y024138D01*
X037852Y024152D01*
X037777Y024161D01*
X037701Y024167D01*
X037625Y024169D01*
X035869Y024169D01*
X035869Y023854D01*
X035475Y023854D01*
X035475Y024149D01*
X004767Y024149D01*
X004767Y023854D01*
X004373Y023854D01*
X004373Y024169D01*
X002625Y024169D01*
X002549Y024167D01*
X002473Y024161D01*
X002398Y024152D01*
X002323Y024138D01*
X002249Y024121D01*
X002176Y024100D01*
X002104Y024076D01*
X002033Y024047D01*
X001964Y024016D01*
X001897Y023981D01*
X001832Y023942D01*
X001768Y023900D01*
X001707Y023855D01*
X001648Y023807D01*
X001592Y023756D01*
X001538Y023702D01*
X001487Y023646D01*
X001439Y023587D01*
X001394Y023526D01*
X001352Y023462D01*
X001313Y023397D01*
X001278Y023330D01*
X001247Y023261D01*
X001218Y023190D01*
X001194Y023118D01*
X001173Y023045D01*
X001156Y022971D01*
X001142Y022896D01*
X001133Y022821D01*
X001127Y022745D01*
X001125Y022669D01*
X001125Y018330D01*
X001735Y018330D01*
X001760Y018328D01*
X001785Y018323D01*
X001809Y018314D01*
X001831Y018302D01*
X001851Y018287D01*
X001869Y018269D01*
X001884Y018249D01*
X001896Y018227D01*
X001905Y018203D01*
X001910Y018178D01*
X001912Y018153D01*
X001910Y018128D01*
X001905Y018103D01*
X001896Y018079D01*
X001884Y018057D01*
X001869Y018037D01*
X001851Y018019D01*
X001831Y018004D01*
X001809Y017992D01*
X001785Y017983D01*
X001760Y017978D01*
X001735Y017976D01*
X001125Y017976D01*
X001125Y005669D01*
X001127Y005593D01*
X001133Y005517D01*
X001142Y005442D01*
X001156Y005367D01*
X001173Y005293D01*
X001194Y005220D01*
X001218Y005148D01*
X001247Y005077D01*
X001278Y005008D01*
X001313Y004941D01*
X001352Y004876D01*
X001394Y004812D01*
X001439Y004751D01*
X001487Y004692D01*
X001538Y004636D01*
X001592Y004582D01*
X001648Y004531D01*
X001707Y004483D01*
X001768Y004438D01*
X001832Y004396D01*
X001897Y004357D01*
X001964Y004322D01*
X002033Y004291D01*
X002104Y004262D01*
X002176Y004238D01*
X002249Y004217D01*
X002323Y004200D01*
X002398Y004186D01*
X002473Y004177D01*
X002549Y004171D01*
X002625Y004169D01*
X007330Y012169D02*
X032920Y012169D01*
X032946Y012171D01*
X032971Y012176D01*
X032995Y012184D01*
X033019Y012195D01*
X033040Y012210D01*
X033059Y012227D01*
X033076Y012246D01*
X033091Y012268D01*
X033102Y012291D01*
X033110Y012315D01*
X033115Y012340D01*
X033117Y012366D01*
X033117Y013027D01*
X032719Y013027D01*
X032719Y012732D01*
X007523Y012732D01*
X007523Y013027D01*
X007133Y013027D01*
X007133Y012366D01*
X007135Y012340D01*
X007140Y012315D01*
X007148Y012291D01*
X007159Y012268D01*
X007174Y012246D01*
X007191Y012227D01*
X007210Y012210D01*
X007232Y012195D01*
X007255Y012184D01*
X007279Y012176D01*
X007304Y012171D01*
X007330Y012169D01*
X007523Y013421D02*
X007133Y013421D01*
X007133Y022082D01*
X007131Y022108D01*
X007126Y022133D01*
X007118Y022157D01*
X007107Y022181D01*
X007092Y022202D01*
X007075Y022221D01*
X007056Y022238D01*
X007035Y022253D01*
X007011Y022264D01*
X006987Y022272D01*
X006962Y022277D01*
X006936Y022279D01*
X004570Y022279D01*
X004544Y022281D01*
X004519Y022286D01*
X004495Y022294D01*
X004472Y022305D01*
X004450Y022320D01*
X004431Y022337D01*
X004414Y022356D01*
X004399Y022378D01*
X004388Y022401D01*
X004380Y022425D01*
X004375Y022450D01*
X004373Y022476D01*
X004373Y023460D01*
X004767Y023460D01*
X004767Y022771D01*
X007523Y022771D01*
X007523Y013421D01*
X032719Y013421D02*
X033117Y013421D01*
X033117Y022082D01*
X033119Y022108D01*
X033124Y022133D01*
X033132Y022157D01*
X033143Y022181D01*
X033158Y022202D01*
X033175Y022221D01*
X033194Y022238D01*
X033216Y022253D01*
X033239Y022264D01*
X033263Y022272D01*
X033288Y022277D01*
X033314Y022279D01*
X035672Y022279D01*
X035698Y022281D01*
X035723Y022286D01*
X035747Y022294D01*
X035771Y022305D01*
X035792Y022320D01*
X035811Y022337D01*
X035828Y022356D01*
X035843Y022378D01*
X035854Y022401D01*
X035862Y022425D01*
X035867Y022450D01*
X035869Y022476D01*
X035869Y023460D01*
X035475Y023460D01*
X035475Y022673D01*
X032719Y022673D01*
X032719Y013421D01*
D11*
X033511Y006787D02*
X033513Y006826D01*
X033519Y006865D01*
X033529Y006903D01*
X033542Y006940D01*
X033559Y006975D01*
X033579Y007009D01*
X033603Y007040D01*
X033630Y007069D01*
X033659Y007095D01*
X033691Y007118D01*
X033725Y007138D01*
X033761Y007154D01*
X033798Y007166D01*
X033837Y007175D01*
X033876Y007180D01*
X033915Y007181D01*
X033954Y007178D01*
X033993Y007171D01*
X034030Y007160D01*
X034067Y007146D01*
X034102Y007128D01*
X034135Y007107D01*
X034166Y007082D01*
X034194Y007055D01*
X034219Y007025D01*
X034241Y006992D01*
X034260Y006958D01*
X034275Y006922D01*
X034287Y006884D01*
X034295Y006846D01*
X034299Y006807D01*
X034299Y006767D01*
X034295Y006728D01*
X034287Y006690D01*
X034275Y006652D01*
X034260Y006616D01*
X034241Y006582D01*
X034219Y006549D01*
X034194Y006519D01*
X034166Y006492D01*
X034135Y006467D01*
X034102Y006446D01*
X034067Y006428D01*
X034030Y006414D01*
X033993Y006403D01*
X033954Y006396D01*
X033915Y006393D01*
X033876Y006394D01*
X033837Y006399D01*
X033798Y006408D01*
X033761Y006420D01*
X033725Y006436D01*
X033691Y006456D01*
X033659Y006479D01*
X033630Y006505D01*
X033603Y006534D01*
X033579Y006565D01*
X033559Y006599D01*
X033542Y006634D01*
X033529Y006671D01*
X033519Y006709D01*
X033513Y006748D01*
X033511Y006787D01*
X030926Y005387D02*
X030928Y005413D01*
X030934Y005439D01*
X030943Y005463D01*
X030956Y005486D01*
X030973Y005506D01*
X030992Y005524D01*
X031014Y005539D01*
X031037Y005550D01*
X031062Y005558D01*
X031088Y005562D01*
X031114Y005562D01*
X031140Y005558D01*
X031165Y005550D01*
X031189Y005539D01*
X031210Y005524D01*
X031229Y005506D01*
X031246Y005486D01*
X031259Y005463D01*
X031268Y005439D01*
X031274Y005413D01*
X031276Y005387D01*
X031274Y005361D01*
X031268Y005335D01*
X031259Y005311D01*
X031246Y005288D01*
X031229Y005268D01*
X031210Y005250D01*
X031188Y005235D01*
X031165Y005224D01*
X031140Y005216D01*
X031114Y005212D01*
X031088Y005212D01*
X031062Y005216D01*
X031037Y005224D01*
X031013Y005235D01*
X030992Y005250D01*
X030973Y005268D01*
X030956Y005288D01*
X030943Y005311D01*
X030934Y005335D01*
X030928Y005361D01*
X030926Y005387D01*
X027776Y005387D02*
X027778Y005413D01*
X027784Y005439D01*
X027793Y005463D01*
X027806Y005486D01*
X027823Y005506D01*
X027842Y005524D01*
X027864Y005539D01*
X027887Y005550D01*
X027912Y005558D01*
X027938Y005562D01*
X027964Y005562D01*
X027990Y005558D01*
X028015Y005550D01*
X028039Y005539D01*
X028060Y005524D01*
X028079Y005506D01*
X028096Y005486D01*
X028109Y005463D01*
X028118Y005439D01*
X028124Y005413D01*
X028126Y005387D01*
X028124Y005361D01*
X028118Y005335D01*
X028109Y005311D01*
X028096Y005288D01*
X028079Y005268D01*
X028060Y005250D01*
X028038Y005235D01*
X028015Y005224D01*
X027990Y005216D01*
X027964Y005212D01*
X027938Y005212D01*
X027912Y005216D01*
X027887Y005224D01*
X027863Y005235D01*
X027842Y005250D01*
X027823Y005268D01*
X027806Y005288D01*
X027793Y005311D01*
X027784Y005335D01*
X027778Y005361D01*
X027776Y005387D01*
X036739Y005669D02*
X036741Y005728D01*
X036747Y005787D01*
X036757Y005845D01*
X036770Y005903D01*
X036788Y005960D01*
X036809Y006015D01*
X036834Y006069D01*
X036863Y006121D01*
X036895Y006170D01*
X036930Y006218D01*
X036968Y006263D01*
X037009Y006306D01*
X037053Y006346D01*
X037099Y006382D01*
X037148Y006416D01*
X037199Y006446D01*
X037252Y006473D01*
X037307Y006496D01*
X037362Y006515D01*
X037420Y006531D01*
X037478Y006543D01*
X037536Y006551D01*
X037595Y006555D01*
X037655Y006555D01*
X037714Y006551D01*
X037772Y006543D01*
X037830Y006531D01*
X037888Y006515D01*
X037943Y006496D01*
X037998Y006473D01*
X038051Y006446D01*
X038102Y006416D01*
X038151Y006382D01*
X038197Y006346D01*
X038241Y006306D01*
X038282Y006263D01*
X038320Y006218D01*
X038355Y006170D01*
X038387Y006121D01*
X038416Y006069D01*
X038441Y006015D01*
X038462Y005960D01*
X038480Y005903D01*
X038493Y005845D01*
X038503Y005787D01*
X038509Y005728D01*
X038511Y005669D01*
X038509Y005610D01*
X038503Y005551D01*
X038493Y005493D01*
X038480Y005435D01*
X038462Y005378D01*
X038441Y005323D01*
X038416Y005269D01*
X038387Y005217D01*
X038355Y005168D01*
X038320Y005120D01*
X038282Y005075D01*
X038241Y005032D01*
X038197Y004992D01*
X038151Y004956D01*
X038102Y004922D01*
X038051Y004892D01*
X037998Y004865D01*
X037943Y004842D01*
X037888Y004823D01*
X037830Y004807D01*
X037772Y004795D01*
X037714Y004787D01*
X037655Y004783D01*
X037595Y004783D01*
X037536Y004787D01*
X037478Y004795D01*
X037420Y004807D01*
X037362Y004823D01*
X037307Y004842D01*
X037252Y004865D01*
X037199Y004892D01*
X037148Y004922D01*
X037099Y004956D01*
X037053Y004992D01*
X037009Y005032D01*
X036968Y005075D01*
X036930Y005120D01*
X036895Y005168D01*
X036863Y005217D01*
X036834Y005269D01*
X036809Y005323D01*
X036788Y005378D01*
X036770Y005435D01*
X036757Y005493D01*
X036747Y005551D01*
X036741Y005610D01*
X036739Y005669D01*
X033511Y021551D02*
X033513Y021590D01*
X033519Y021629D01*
X033529Y021667D01*
X033542Y021704D01*
X033559Y021739D01*
X033579Y021773D01*
X033603Y021804D01*
X033630Y021833D01*
X033659Y021859D01*
X033691Y021882D01*
X033725Y021902D01*
X033761Y021918D01*
X033798Y021930D01*
X033837Y021939D01*
X033876Y021944D01*
X033915Y021945D01*
X033954Y021942D01*
X033993Y021935D01*
X034030Y021924D01*
X034067Y021910D01*
X034102Y021892D01*
X034135Y021871D01*
X034166Y021846D01*
X034194Y021819D01*
X034219Y021789D01*
X034241Y021756D01*
X034260Y021722D01*
X034275Y021686D01*
X034287Y021648D01*
X034295Y021610D01*
X034299Y021571D01*
X034299Y021531D01*
X034295Y021492D01*
X034287Y021454D01*
X034275Y021416D01*
X034260Y021380D01*
X034241Y021346D01*
X034219Y021313D01*
X034194Y021283D01*
X034166Y021256D01*
X034135Y021231D01*
X034102Y021210D01*
X034067Y021192D01*
X034030Y021178D01*
X033993Y021167D01*
X033954Y021160D01*
X033915Y021157D01*
X033876Y021158D01*
X033837Y021163D01*
X033798Y021172D01*
X033761Y021184D01*
X033725Y021200D01*
X033691Y021220D01*
X033659Y021243D01*
X033630Y021269D01*
X033603Y021298D01*
X033579Y021329D01*
X033559Y021363D01*
X033542Y021398D01*
X033529Y021435D01*
X033519Y021473D01*
X033513Y021512D01*
X033511Y021551D01*
X036739Y022669D02*
X036741Y022728D01*
X036747Y022787D01*
X036757Y022845D01*
X036770Y022903D01*
X036788Y022960D01*
X036809Y023015D01*
X036834Y023069D01*
X036863Y023121D01*
X036895Y023170D01*
X036930Y023218D01*
X036968Y023263D01*
X037009Y023306D01*
X037053Y023346D01*
X037099Y023382D01*
X037148Y023416D01*
X037199Y023446D01*
X037252Y023473D01*
X037307Y023496D01*
X037362Y023515D01*
X037420Y023531D01*
X037478Y023543D01*
X037536Y023551D01*
X037595Y023555D01*
X037655Y023555D01*
X037714Y023551D01*
X037772Y023543D01*
X037830Y023531D01*
X037888Y023515D01*
X037943Y023496D01*
X037998Y023473D01*
X038051Y023446D01*
X038102Y023416D01*
X038151Y023382D01*
X038197Y023346D01*
X038241Y023306D01*
X038282Y023263D01*
X038320Y023218D01*
X038355Y023170D01*
X038387Y023121D01*
X038416Y023069D01*
X038441Y023015D01*
X038462Y022960D01*
X038480Y022903D01*
X038493Y022845D01*
X038503Y022787D01*
X038509Y022728D01*
X038511Y022669D01*
X038509Y022610D01*
X038503Y022551D01*
X038493Y022493D01*
X038480Y022435D01*
X038462Y022378D01*
X038441Y022323D01*
X038416Y022269D01*
X038387Y022217D01*
X038355Y022168D01*
X038320Y022120D01*
X038282Y022075D01*
X038241Y022032D01*
X038197Y021992D01*
X038151Y021956D01*
X038102Y021922D01*
X038051Y021892D01*
X037998Y021865D01*
X037943Y021842D01*
X037888Y021823D01*
X037830Y021807D01*
X037772Y021795D01*
X037714Y021787D01*
X037655Y021783D01*
X037595Y021783D01*
X037536Y021787D01*
X037478Y021795D01*
X037420Y021807D01*
X037362Y021823D01*
X037307Y021842D01*
X037252Y021865D01*
X037199Y021892D01*
X037148Y021922D01*
X037099Y021956D01*
X037053Y021992D01*
X037009Y022032D01*
X036968Y022075D01*
X036930Y022120D01*
X036895Y022168D01*
X036863Y022217D01*
X036834Y022269D01*
X036809Y022323D01*
X036788Y022378D01*
X036770Y022435D01*
X036757Y022493D01*
X036747Y022551D01*
X036741Y022610D01*
X036739Y022669D01*
X005951Y021551D02*
X005953Y021590D01*
X005959Y021629D01*
X005969Y021667D01*
X005982Y021704D01*
X005999Y021739D01*
X006019Y021773D01*
X006043Y021804D01*
X006070Y021833D01*
X006099Y021859D01*
X006131Y021882D01*
X006165Y021902D01*
X006201Y021918D01*
X006238Y021930D01*
X006277Y021939D01*
X006316Y021944D01*
X006355Y021945D01*
X006394Y021942D01*
X006433Y021935D01*
X006470Y021924D01*
X006507Y021910D01*
X006542Y021892D01*
X006575Y021871D01*
X006606Y021846D01*
X006634Y021819D01*
X006659Y021789D01*
X006681Y021756D01*
X006700Y021722D01*
X006715Y021686D01*
X006727Y021648D01*
X006735Y021610D01*
X006739Y021571D01*
X006739Y021531D01*
X006735Y021492D01*
X006727Y021454D01*
X006715Y021416D01*
X006700Y021380D01*
X006681Y021346D01*
X006659Y021313D01*
X006634Y021283D01*
X006606Y021256D01*
X006575Y021231D01*
X006542Y021210D01*
X006507Y021192D01*
X006470Y021178D01*
X006433Y021167D01*
X006394Y021160D01*
X006355Y021157D01*
X006316Y021158D01*
X006277Y021163D01*
X006238Y021172D01*
X006201Y021184D01*
X006165Y021200D01*
X006131Y021220D01*
X006099Y021243D01*
X006070Y021269D01*
X006043Y021298D01*
X006019Y021329D01*
X005999Y021363D01*
X005982Y021398D01*
X005969Y021435D01*
X005959Y021473D01*
X005953Y021512D01*
X005951Y021551D01*
X001739Y022669D02*
X001741Y022728D01*
X001747Y022787D01*
X001757Y022845D01*
X001770Y022903D01*
X001788Y022960D01*
X001809Y023015D01*
X001834Y023069D01*
X001863Y023121D01*
X001895Y023170D01*
X001930Y023218D01*
X001968Y023263D01*
X002009Y023306D01*
X002053Y023346D01*
X002099Y023382D01*
X002148Y023416D01*
X002199Y023446D01*
X002252Y023473D01*
X002307Y023496D01*
X002362Y023515D01*
X002420Y023531D01*
X002478Y023543D01*
X002536Y023551D01*
X002595Y023555D01*
X002655Y023555D01*
X002714Y023551D01*
X002772Y023543D01*
X002830Y023531D01*
X002888Y023515D01*
X002943Y023496D01*
X002998Y023473D01*
X003051Y023446D01*
X003102Y023416D01*
X003151Y023382D01*
X003197Y023346D01*
X003241Y023306D01*
X003282Y023263D01*
X003320Y023218D01*
X003355Y023170D01*
X003387Y023121D01*
X003416Y023069D01*
X003441Y023015D01*
X003462Y022960D01*
X003480Y022903D01*
X003493Y022845D01*
X003503Y022787D01*
X003509Y022728D01*
X003511Y022669D01*
X003509Y022610D01*
X003503Y022551D01*
X003493Y022493D01*
X003480Y022435D01*
X003462Y022378D01*
X003441Y022323D01*
X003416Y022269D01*
X003387Y022217D01*
X003355Y022168D01*
X003320Y022120D01*
X003282Y022075D01*
X003241Y022032D01*
X003197Y021992D01*
X003151Y021956D01*
X003102Y021922D01*
X003051Y021892D01*
X002998Y021865D01*
X002943Y021842D01*
X002888Y021823D01*
X002830Y021807D01*
X002772Y021795D01*
X002714Y021787D01*
X002655Y021783D01*
X002595Y021783D01*
X002536Y021787D01*
X002478Y021795D01*
X002420Y021807D01*
X002362Y021823D01*
X002307Y021842D01*
X002252Y021865D01*
X002199Y021892D01*
X002148Y021922D01*
X002099Y021956D01*
X002053Y021992D01*
X002009Y022032D01*
X001968Y022075D01*
X001930Y022120D01*
X001895Y022168D01*
X001863Y022217D01*
X001834Y022269D01*
X001809Y022323D01*
X001788Y022378D01*
X001770Y022435D01*
X001757Y022493D01*
X001747Y022551D01*
X001741Y022610D01*
X001739Y022669D01*
X005951Y006787D02*
X005953Y006826D01*
X005959Y006865D01*
X005969Y006903D01*
X005982Y006940D01*
X005999Y006975D01*
X006019Y007009D01*
X006043Y007040D01*
X006070Y007069D01*
X006099Y007095D01*
X006131Y007118D01*
X006165Y007138D01*
X006201Y007154D01*
X006238Y007166D01*
X006277Y007175D01*
X006316Y007180D01*
X006355Y007181D01*
X006394Y007178D01*
X006433Y007171D01*
X006470Y007160D01*
X006507Y007146D01*
X006542Y007128D01*
X006575Y007107D01*
X006606Y007082D01*
X006634Y007055D01*
X006659Y007025D01*
X006681Y006992D01*
X006700Y006958D01*
X006715Y006922D01*
X006727Y006884D01*
X006735Y006846D01*
X006739Y006807D01*
X006739Y006767D01*
X006735Y006728D01*
X006727Y006690D01*
X006715Y006652D01*
X006700Y006616D01*
X006681Y006582D01*
X006659Y006549D01*
X006634Y006519D01*
X006606Y006492D01*
X006575Y006467D01*
X006542Y006446D01*
X006507Y006428D01*
X006470Y006414D01*
X006433Y006403D01*
X006394Y006396D01*
X006355Y006393D01*
X006316Y006394D01*
X006277Y006399D01*
X006238Y006408D01*
X006201Y006420D01*
X006165Y006436D01*
X006131Y006456D01*
X006099Y006479D01*
X006070Y006505D01*
X006043Y006534D01*
X006019Y006565D01*
X005999Y006599D01*
X005982Y006634D01*
X005969Y006671D01*
X005959Y006709D01*
X005953Y006748D01*
X005951Y006787D01*
X001739Y005669D02*
X001741Y005728D01*
X001747Y005787D01*
X001757Y005845D01*
X001770Y005903D01*
X001788Y005960D01*
X001809Y006015D01*
X001834Y006069D01*
X001863Y006121D01*
X001895Y006170D01*
X001930Y006218D01*
X001968Y006263D01*
X002009Y006306D01*
X002053Y006346D01*
X002099Y006382D01*
X002148Y006416D01*
X002199Y006446D01*
X002252Y006473D01*
X002307Y006496D01*
X002362Y006515D01*
X002420Y006531D01*
X002478Y006543D01*
X002536Y006551D01*
X002595Y006555D01*
X002655Y006555D01*
X002714Y006551D01*
X002772Y006543D01*
X002830Y006531D01*
X002888Y006515D01*
X002943Y006496D01*
X002998Y006473D01*
X003051Y006446D01*
X003102Y006416D01*
X003151Y006382D01*
X003197Y006346D01*
X003241Y006306D01*
X003282Y006263D01*
X003320Y006218D01*
X003355Y006170D01*
X003387Y006121D01*
X003416Y006069D01*
X003441Y006015D01*
X003462Y005960D01*
X003480Y005903D01*
X003493Y005845D01*
X003503Y005787D01*
X003509Y005728D01*
X003511Y005669D01*
X003509Y005610D01*
X003503Y005551D01*
X003493Y005493D01*
X003480Y005435D01*
X003462Y005378D01*
X003441Y005323D01*
X003416Y005269D01*
X003387Y005217D01*
X003355Y005168D01*
X003320Y005120D01*
X003282Y005075D01*
X003241Y005032D01*
X003197Y004992D01*
X003151Y004956D01*
X003102Y004922D01*
X003051Y004892D01*
X002998Y004865D01*
X002943Y004842D01*
X002888Y004823D01*
X002830Y004807D01*
X002772Y004795D01*
X002714Y004787D01*
X002655Y004783D01*
X002595Y004783D01*
X002536Y004787D01*
X002478Y004795D01*
X002420Y004807D01*
X002362Y004823D01*
X002307Y004842D01*
X002252Y004865D01*
X002199Y004892D01*
X002148Y004922D01*
X002099Y004956D01*
X002053Y004992D01*
X002009Y005032D01*
X001968Y005075D01*
X001930Y005120D01*
X001895Y005168D01*
X001863Y005217D01*
X001834Y005269D01*
X001809Y005323D01*
X001788Y005378D01*
X001770Y005435D01*
X001757Y005493D01*
X001747Y005551D01*
X001741Y005610D01*
X001739Y005669D01*
D12*
X008125Y011419D03*
X009125Y011419D03*
X010125Y011419D03*
X011125Y011419D03*
X012125Y011419D03*
X013125Y011419D03*
X014125Y011419D03*
X015125Y011419D03*
X016125Y011419D03*
X017125Y011419D03*
X018125Y011419D03*
X019125Y011419D03*
X020125Y011419D03*
X021125Y011419D03*
X022125Y011419D03*
X023125Y011419D03*
X029956Y013645D03*
X030956Y013645D03*
X030956Y014645D03*
X029956Y014645D03*
X029956Y015645D03*
X030956Y015645D03*
X030956Y016645D03*
X029956Y016645D03*
X029956Y017645D03*
X030956Y017645D03*
X030956Y018645D03*
X029956Y018645D03*
X029956Y019645D03*
X030956Y019645D03*
X030956Y020645D03*
X029956Y020645D03*
X029956Y021645D03*
X030956Y021645D03*
X030956Y022645D03*
X029956Y022645D03*
X012625Y021169D03*
X011625Y021169D03*
X010625Y021169D03*
X035771Y004759D03*
X035869Y004759D03*
D13*
X036656Y004661D03*
X034983Y006137D03*
X034590Y005940D03*
X034097Y005153D03*
X033999Y004661D03*
X033212Y004956D03*
X030751Y004858D03*
X030456Y005055D03*
X030160Y005251D03*
X029865Y005448D03*
X029570Y005645D03*
X029964Y005842D03*
X031440Y007220D03*
X031834Y007417D03*
X031932Y007811D03*
X031145Y008795D03*
X029964Y008598D03*
X029570Y008795D03*
X029471Y009188D03*
X029078Y009188D03*
X028684Y009188D03*
X029964Y009188D03*
X030554Y010468D03*
X031538Y009976D03*
X032916Y010468D03*
X032424Y008893D03*
X035475Y010862D03*
X037838Y009385D03*
X036656Y008696D03*
X037838Y013224D03*
X037247Y014799D03*
X036263Y016669D03*
X035377Y016669D03*
X034983Y016669D03*
X034590Y017653D03*
X033999Y017653D03*
X035672Y018244D03*
X035771Y019425D03*
X035279Y019523D03*
X034885Y019523D03*
X034491Y019425D03*
X034097Y019818D03*
X033408Y019720D03*
X033507Y020409D03*
X033507Y020901D03*
X034688Y021393D03*
X035180Y021393D03*
X036460Y021393D03*
X036853Y020212D03*
X037739Y018933D03*
X037542Y017948D03*
X037641Y017161D03*
X027601Y017653D03*
X026125Y009877D03*
X026125Y009385D03*
X025338Y008696D03*
X025338Y008204D03*
X025338Y007811D03*
X025338Y007417D03*
X026617Y007811D03*
X026617Y008204D03*
X023861Y009779D03*
X022188Y008696D03*
X021991Y007909D03*
X021991Y007515D03*
X020810Y007811D03*
X020515Y007515D03*
X020121Y009779D03*
X018940Y009779D03*
X016381Y009188D03*
X015790Y008696D03*
X014609Y008106D03*
X014117Y008106D03*
X013822Y007220D03*
X012641Y006826D03*
X012247Y006925D03*
X011853Y006925D03*
X011460Y006925D03*
X011164Y006728D03*
X011066Y006334D03*
X010672Y006236D03*
X010377Y005940D03*
X010377Y005547D03*
X010672Y005350D03*
X010968Y005153D03*
X010082Y004464D03*
X009688Y004464D03*
X008901Y005645D03*
X008507Y005645D03*
X008113Y005645D03*
X007719Y005547D03*
X007326Y006433D03*
X006932Y006433D03*
X007424Y007220D03*
X008113Y007614D03*
X008704Y007614D03*
X009393Y007515D03*
X009885Y008007D03*
X010574Y008007D03*
X011361Y008303D03*
X011755Y008303D03*
X011361Y008696D03*
X011066Y008893D03*
X011361Y009090D03*
X012739Y009976D03*
X013034Y009188D03*
X014117Y009877D03*
X016086Y007614D03*
X011853Y006531D03*
X011558Y007318D03*
X008704Y009090D03*
X009491Y010074D03*
X009786Y010271D03*
X010574Y010370D03*
X007326Y008598D03*
X006046Y008696D03*
X005456Y007909D03*
X005259Y007515D03*
X004275Y007417D03*
X003625Y006590D03*
X002306Y007712D03*
X003881Y009681D03*
X002798Y009877D03*
X002208Y010173D03*
X002208Y010566D03*
X005062Y010763D03*
X006145Y010763D03*
X006145Y010271D03*
X005062Y008696D03*
X005653Y005842D03*
X006440Y005055D03*
X006538Y004661D03*
X003684Y004759D03*
X004865Y012043D03*
X005849Y012929D03*
X006342Y012929D03*
X004176Y014405D03*
X003684Y014011D03*
X002208Y012929D03*
X002995Y012830D03*
X004570Y015586D03*
X005357Y015685D03*
X004078Y016669D03*
X006145Y017653D03*
X004964Y018834D03*
X003881Y018637D03*
X002306Y020507D03*
X001912Y015685D03*
X026027Y004858D03*
X026322Y005055D03*
X027405Y005350D03*
D14*
X027638Y005354D02*
X011090Y005354D01*
X011062Y005382D02*
X010873Y005382D01*
X010739Y005248D01*
X010739Y005058D01*
X010873Y004924D01*
X011062Y004924D01*
X011196Y005058D01*
X011196Y005248D01*
X011062Y005382D01*
X011196Y005235D02*
X026179Y005235D01*
X026227Y005284D02*
X026093Y005149D01*
X026093Y005087D01*
X025932Y005087D01*
X025798Y004953D01*
X025798Y004763D01*
X025932Y004629D01*
X026121Y004629D01*
X026255Y004763D01*
X026255Y004826D01*
X026417Y004826D01*
X026551Y004960D01*
X026551Y005149D01*
X026417Y005284D01*
X026227Y005284D01*
X026093Y005117D02*
X011196Y005117D01*
X011136Y004998D02*
X025843Y004998D01*
X025798Y004880D02*
X006589Y004880D01*
X006535Y004826D02*
X006669Y004960D01*
X006669Y005149D01*
X006535Y005284D01*
X006345Y005284D01*
X006211Y005149D01*
X006211Y004960D01*
X006345Y004826D01*
X006535Y004826D01*
X006669Y004998D02*
X010799Y004998D01*
X010739Y005117D02*
X006669Y005117D01*
X006583Y005235D02*
X010739Y005235D01*
X010845Y005354D02*
X010508Y005354D01*
X010472Y005318D02*
X010606Y005452D01*
X010606Y005642D01*
X010504Y005744D01*
X010606Y005846D01*
X010606Y006007D01*
X010767Y006007D01*
X010901Y006141D01*
X010901Y006175D01*
X010971Y006105D01*
X011161Y006105D01*
X011295Y006239D01*
X011295Y006429D01*
X011225Y006499D01*
X011259Y006499D01*
X011393Y006633D01*
X011393Y006696D01*
X011554Y006696D01*
X011656Y006798D01*
X011726Y006728D01*
X011624Y006626D01*
X011624Y006436D01*
X011759Y006302D01*
X011948Y006302D01*
X012082Y006436D01*
X012082Y006626D01*
X011980Y006728D01*
X012050Y006798D01*
X012152Y006696D01*
X012342Y006696D01*
X012476Y006830D01*
X012476Y007020D01*
X012342Y007154D01*
X012152Y007154D01*
X012050Y007052D01*
X011948Y007154D01*
X011759Y007154D01*
X011656Y007052D01*
X011619Y007089D01*
X011653Y007089D01*
X011787Y007224D01*
X011787Y007413D01*
X011653Y007547D01*
X011463Y007547D01*
X011329Y007413D01*
X011329Y007224D01*
X011399Y007154D01*
X011365Y007154D01*
X011231Y007020D01*
X011231Y006957D01*
X011070Y006957D01*
X010935Y006823D01*
X010935Y006633D01*
X011005Y006563D01*
X010971Y006563D01*
X010837Y006429D01*
X010837Y006395D01*
X010767Y006465D01*
X010577Y006465D01*
X010443Y006331D01*
X010443Y006169D01*
X010282Y006169D01*
X010148Y006035D01*
X010148Y005846D01*
X010250Y005744D01*
X010148Y005642D01*
X010148Y005452D01*
X010282Y005318D01*
X010472Y005318D01*
X010606Y005472D02*
X027647Y005472D01*
X027638Y005449D02*
X027638Y005324D01*
X027685Y005209D01*
X027774Y005121D01*
X027889Y005073D01*
X028014Y005073D01*
X028129Y005121D01*
X028217Y005209D01*
X028265Y005324D01*
X028265Y005449D01*
X028217Y005564D01*
X028129Y005652D01*
X028014Y005700D01*
X027889Y005700D01*
X027774Y005652D01*
X027685Y005564D01*
X027638Y005449D01*
X027712Y005591D02*
X010606Y005591D01*
X010538Y005709D02*
X029341Y005709D01*
X029341Y005740D02*
X029341Y005550D01*
X029475Y005416D01*
X029636Y005416D01*
X029636Y005354D01*
X028265Y005354D01*
X028255Y005472D02*
X029419Y005472D01*
X029341Y005591D02*
X028191Y005591D01*
X028228Y005235D02*
X029754Y005235D01*
X029770Y005219D02*
X029932Y005219D01*
X029932Y005157D01*
X030066Y005023D01*
X030227Y005023D01*
X030227Y004960D01*
X030361Y004826D01*
X030522Y004826D01*
X030522Y004763D01*
X030656Y004629D01*
X030846Y004629D01*
X030980Y004763D01*
X030980Y004953D01*
X030846Y005087D01*
X030685Y005087D01*
X030685Y005149D01*
X030551Y005284D01*
X030389Y005284D01*
X030389Y005346D01*
X030255Y005480D01*
X030094Y005480D01*
X030094Y005543D01*
X030024Y005613D01*
X030058Y005613D01*
X030192Y005747D01*
X030192Y005937D01*
X030058Y006071D01*
X029869Y006071D01*
X029735Y005937D01*
X029735Y005804D01*
X029665Y005874D01*
X029475Y005874D01*
X029341Y005740D01*
X029429Y005828D02*
X010588Y005828D01*
X010606Y005946D02*
X029744Y005946D01*
X029735Y005828D02*
X029711Y005828D01*
X029863Y006065D02*
X010825Y006065D01*
X010811Y006420D02*
X010837Y006420D01*
X010947Y006539D02*
X007543Y006539D01*
X007555Y006527D02*
X007421Y006661D01*
X007231Y006661D01*
X007129Y006559D01*
X007027Y006661D01*
X006870Y006661D01*
X006878Y006681D01*
X006878Y006893D01*
X006797Y007089D01*
X006647Y007238D01*
X006451Y007319D01*
X006240Y007319D01*
X006044Y007238D01*
X005894Y007089D01*
X005813Y006893D01*
X005813Y006681D01*
X005894Y006485D01*
X006044Y006336D01*
X006240Y006254D01*
X006451Y006254D01*
X006647Y006336D01*
X006703Y006392D01*
X006703Y006338D01*
X006837Y006204D01*
X007027Y006204D01*
X007129Y006306D01*
X007231Y006204D01*
X007421Y006204D01*
X007555Y006338D01*
X007555Y006527D01*
X007555Y006420D02*
X010533Y006420D01*
X010443Y006302D02*
X007519Y006302D01*
X007425Y006657D02*
X010935Y006657D01*
X010935Y006776D02*
X006878Y006776D01*
X006877Y006894D02*
X011007Y006894D01*
X011231Y007013D02*
X007541Y007013D01*
X007519Y006991D02*
X007653Y007125D01*
X007653Y007315D01*
X007519Y007449D01*
X007329Y007449D01*
X007195Y007315D01*
X007195Y007125D01*
X007329Y006991D01*
X007519Y006991D01*
X007653Y007131D02*
X011343Y007131D01*
X011329Y007250D02*
X007653Y007250D01*
X007600Y007368D02*
X009216Y007368D01*
X009164Y007420D02*
X009298Y007286D01*
X009488Y007286D01*
X009622Y007420D01*
X009622Y007610D01*
X009488Y007744D01*
X009298Y007744D01*
X009164Y007610D01*
X009164Y007420D01*
X009164Y007487D02*
X008310Y007487D01*
X008342Y007519D02*
X008208Y007385D01*
X008018Y007385D01*
X007884Y007519D01*
X007884Y007708D01*
X008018Y007843D01*
X008208Y007843D01*
X008342Y007708D01*
X008342Y007519D01*
X008342Y007605D02*
X009164Y007605D01*
X009278Y007724D02*
X008327Y007724D01*
X008208Y007842D02*
X009726Y007842D01*
X009790Y007778D02*
X009656Y007913D01*
X009656Y008102D01*
X009790Y008236D01*
X009980Y008236D01*
X010114Y008102D01*
X010114Y007913D01*
X009980Y007778D01*
X009790Y007778D01*
X009656Y007961D02*
X005685Y007961D01*
X005685Y008004D02*
X005551Y008138D01*
X005361Y008138D01*
X005227Y008004D01*
X005227Y007814D01*
X005297Y007744D01*
X005164Y007744D01*
X005030Y007610D01*
X005030Y007420D01*
X005164Y007286D01*
X005354Y007286D01*
X005488Y007420D01*
X005488Y007610D01*
X005418Y007680D01*
X005551Y007680D01*
X005685Y007814D01*
X005685Y008004D01*
X005609Y008079D02*
X009656Y008079D01*
X009752Y008198D02*
X001289Y008198D01*
X001289Y008316D02*
X011132Y008316D01*
X011132Y008397D02*
X011132Y008208D01*
X011266Y008074D01*
X011456Y008074D01*
X011558Y008176D01*
X011660Y008074D01*
X011850Y008074D01*
X011984Y008208D01*
X011984Y008397D01*
X011850Y008532D01*
X011660Y008532D01*
X011558Y008430D01*
X011488Y008499D01*
X011590Y008602D01*
X011590Y008791D01*
X011488Y008893D01*
X011590Y008995D01*
X011590Y009185D01*
X011456Y009319D01*
X011266Y009319D01*
X011132Y009185D01*
X011132Y009122D01*
X010971Y009122D01*
X010837Y008988D01*
X010837Y008798D01*
X010971Y008664D01*
X011132Y008664D01*
X011132Y008602D01*
X011234Y008499D01*
X011132Y008397D01*
X011170Y008435D02*
X001289Y008435D01*
X001289Y008553D02*
X011181Y008553D01*
X010964Y008672D02*
X001289Y008672D01*
X001289Y008790D02*
X010845Y008790D01*
X010837Y008909D02*
X008846Y008909D01*
X008799Y008861D02*
X008933Y008995D01*
X008933Y009185D01*
X008799Y009319D01*
X008609Y009319D01*
X008475Y009185D01*
X008475Y008995D01*
X008609Y008861D01*
X008799Y008861D01*
X008933Y009027D02*
X010876Y009027D01*
X011132Y009146D02*
X008933Y009146D01*
X008853Y009264D02*
X011212Y009264D01*
X011511Y009264D02*
X025922Y009264D01*
X025896Y009291D02*
X026030Y009156D01*
X026220Y009156D01*
X026354Y009291D01*
X026354Y009480D01*
X026220Y009614D01*
X026030Y009614D01*
X025896Y009480D01*
X025896Y009291D01*
X025896Y009383D02*
X001289Y009383D01*
X001289Y009501D02*
X025917Y009501D01*
X026333Y009501D02*
X037630Y009501D01*
X037609Y009480D02*
X037609Y009291D01*
X037743Y009156D01*
X037932Y009156D01*
X038066Y009291D01*
X038066Y009480D01*
X037932Y009614D01*
X037743Y009614D01*
X037609Y009480D01*
X037609Y009383D02*
X030093Y009383D01*
X030058Y009417D02*
X029869Y009417D01*
X029735Y009283D01*
X029735Y009094D01*
X029869Y008960D01*
X030058Y008960D01*
X030192Y009094D01*
X030192Y009283D01*
X030058Y009417D01*
X030192Y009264D02*
X037635Y009264D01*
X038040Y009264D02*
X038961Y009264D01*
X038961Y009146D02*
X030192Y009146D01*
X030126Y009027D02*
X038961Y009027D01*
X038961Y008909D02*
X029780Y008909D01*
X029799Y008890D02*
X029665Y009024D01*
X029630Y009024D01*
X029700Y009094D01*
X029700Y009283D01*
X029566Y009417D01*
X029377Y009417D01*
X029275Y009315D01*
X029173Y009417D01*
X028983Y009417D01*
X028849Y009283D01*
X028849Y009094D01*
X028983Y008960D01*
X029173Y008960D01*
X029275Y009062D01*
X029377Y008960D01*
X029411Y008960D01*
X029341Y008890D01*
X029341Y008700D01*
X029475Y008566D01*
X029665Y008566D01*
X029735Y008636D01*
X029735Y008503D01*
X029869Y008369D01*
X030058Y008369D01*
X030192Y008503D01*
X030192Y008693D01*
X030058Y008827D01*
X029869Y008827D01*
X029799Y008757D01*
X029799Y008890D01*
X029799Y008790D02*
X029832Y008790D01*
X029801Y009027D02*
X029634Y009027D01*
X029700Y009146D02*
X029735Y009146D01*
X029735Y009264D02*
X029700Y009264D01*
X029601Y009383D02*
X029834Y009383D01*
X029342Y009383D02*
X029207Y009383D01*
X028948Y009383D02*
X026354Y009383D01*
X026328Y009264D02*
X028849Y009264D01*
X028849Y009146D02*
X011590Y009146D01*
X011590Y009027D02*
X028915Y009027D01*
X029240Y009027D02*
X029309Y009027D01*
X029360Y008909D02*
X025449Y008909D01*
X025432Y008925D02*
X025243Y008925D01*
X025109Y008791D01*
X025109Y008602D01*
X025243Y008467D01*
X025432Y008467D01*
X025566Y008602D01*
X025566Y008791D01*
X025432Y008925D01*
X025566Y008790D02*
X029341Y008790D01*
X029369Y008672D02*
X025566Y008672D01*
X025518Y008553D02*
X029735Y008553D01*
X029803Y008435D02*
X011946Y008435D01*
X011984Y008316D02*
X014004Y008316D01*
X014022Y008335D02*
X013888Y008201D01*
X013888Y008011D01*
X014022Y007877D01*
X014212Y007877D01*
X014346Y008011D01*
X014346Y008201D01*
X014212Y008335D01*
X014022Y008335D01*
X013888Y008198D02*
X011974Y008198D01*
X011855Y008079D02*
X013888Y008079D01*
X013938Y007961D02*
X010803Y007961D01*
X010803Y007913D02*
X010669Y007778D01*
X010479Y007778D01*
X010345Y007913D01*
X010345Y008102D01*
X010479Y008236D01*
X010669Y008236D01*
X010803Y008102D01*
X010803Y007913D01*
X010732Y007842D02*
X020581Y007842D01*
X020581Y007905D02*
X020581Y007744D01*
X020420Y007744D01*
X020286Y007610D01*
X020286Y007420D01*
X020420Y007286D01*
X020610Y007286D01*
X020744Y007420D01*
X020744Y007582D01*
X020905Y007582D01*
X021039Y007716D01*
X021039Y007905D01*
X020905Y008039D01*
X020715Y008039D01*
X020581Y007905D01*
X020637Y007961D02*
X014296Y007961D01*
X014346Y008079D02*
X021838Y008079D01*
X021896Y008138D02*
X021762Y008004D01*
X021762Y007814D01*
X021864Y007712D01*
X021762Y007610D01*
X021762Y007420D01*
X021896Y007286D01*
X022086Y007286D01*
X022220Y007420D01*
X022220Y007610D01*
X022118Y007712D01*
X022220Y007814D01*
X022220Y008004D01*
X022086Y008138D01*
X021896Y008138D01*
X021762Y007961D02*
X020983Y007961D01*
X021039Y007842D02*
X021762Y007842D01*
X021853Y007724D02*
X021039Y007724D01*
X020929Y007605D02*
X021762Y007605D01*
X021762Y007487D02*
X020744Y007487D01*
X020692Y007368D02*
X021814Y007368D01*
X022168Y007368D02*
X025109Y007368D01*
X025109Y007322D02*
X025243Y007188D01*
X025432Y007188D01*
X025566Y007322D01*
X025566Y007512D01*
X025464Y007614D01*
X025566Y007716D01*
X025566Y007905D01*
X025464Y008007D01*
X025566Y008109D01*
X025566Y008299D01*
X025432Y008433D01*
X025243Y008433D01*
X025109Y008299D01*
X025109Y008109D01*
X025211Y008007D01*
X025109Y007905D01*
X025109Y007716D01*
X025211Y007614D01*
X025109Y007512D01*
X025109Y007322D01*
X025181Y007250D02*
X014051Y007250D01*
X014051Y007315D02*
X014051Y007125D01*
X013917Y006991D01*
X013727Y006991D01*
X013593Y007125D01*
X013593Y007315D01*
X013727Y007449D01*
X013917Y007449D01*
X014051Y007315D01*
X013997Y007368D02*
X020338Y007368D01*
X020286Y007487D02*
X011713Y007487D01*
X011787Y007368D02*
X013646Y007368D01*
X013593Y007250D02*
X011787Y007250D01*
X011736Y007131D02*
X011695Y007131D01*
X011970Y007131D02*
X012130Y007131D01*
X012364Y007131D02*
X013593Y007131D01*
X013705Y007013D02*
X012476Y007013D01*
X012476Y006894D02*
X033373Y006894D01*
X033372Y006893D02*
X033372Y006681D01*
X033453Y006485D01*
X033603Y006336D01*
X033799Y006254D01*
X034010Y006254D01*
X034206Y006336D01*
X034356Y006485D01*
X034437Y006681D01*
X034437Y006893D01*
X034356Y007089D01*
X034206Y007238D01*
X034010Y007319D01*
X033799Y007319D01*
X033603Y007238D01*
X033453Y007089D01*
X033372Y006893D01*
X033372Y006776D02*
X012422Y006776D01*
X012072Y006776D02*
X012028Y006776D01*
X012051Y006657D02*
X033382Y006657D01*
X033431Y006539D02*
X012082Y006539D01*
X012066Y006420D02*
X033518Y006420D01*
X033684Y006302D02*
X011295Y006302D01*
X011295Y006420D02*
X011640Y006420D01*
X011624Y006539D02*
X011299Y006539D01*
X011393Y006657D02*
X011656Y006657D01*
X011634Y006776D02*
X011679Y006776D01*
X011329Y007368D02*
X009569Y007368D01*
X009622Y007487D02*
X011403Y007487D01*
X011462Y008079D02*
X011655Y008079D01*
X011563Y008435D02*
X011553Y008435D01*
X011542Y008553D02*
X015610Y008553D01*
X015561Y008602D02*
X015696Y008467D01*
X015885Y008467D01*
X016019Y008602D01*
X016019Y008791D01*
X015885Y008925D01*
X015696Y008925D01*
X015561Y008791D01*
X015561Y008602D01*
X015561Y008672D02*
X011590Y008672D01*
X011590Y008790D02*
X015561Y008790D01*
X015679Y008909D02*
X011504Y008909D01*
X011142Y008198D02*
X010707Y008198D01*
X010803Y008079D02*
X011261Y008079D01*
X010441Y008198D02*
X010018Y008198D01*
X010114Y008079D02*
X010345Y008079D01*
X010345Y007961D02*
X010114Y007961D01*
X010043Y007842D02*
X010415Y007842D01*
X009622Y007605D02*
X020286Y007605D01*
X020400Y007724D02*
X009508Y007724D01*
X008018Y007842D02*
X005685Y007842D01*
X005594Y007724D02*
X007900Y007724D01*
X007884Y007605D02*
X005488Y007605D01*
X005488Y007487D02*
X007916Y007487D01*
X007249Y007368D02*
X005436Y007368D01*
X005082Y007368D02*
X001289Y007368D01*
X001289Y007250D02*
X006072Y007250D01*
X005937Y007131D02*
X001289Y007131D01*
X001289Y007013D02*
X005863Y007013D01*
X005814Y006894D02*
X001289Y006894D01*
X001289Y006776D02*
X003487Y006776D01*
X003530Y006819D02*
X003396Y006685D01*
X003396Y006495D01*
X003530Y006361D01*
X003720Y006361D01*
X003854Y006495D01*
X003854Y006685D01*
X003720Y006819D01*
X003530Y006819D01*
X003396Y006657D02*
X002894Y006657D01*
X003020Y006624D02*
X002760Y006693D01*
X002490Y006693D01*
X002230Y006624D01*
X001996Y006489D01*
X001805Y006298D01*
X001670Y006064D01*
X001600Y005804D01*
X001600Y005534D01*
X001670Y005273D01*
X001805Y005040D01*
X001996Y004849D01*
X002230Y004714D01*
X002490Y004644D01*
X002760Y004644D01*
X003020Y004714D01*
X003254Y004849D01*
X003445Y005040D01*
X003580Y005273D01*
X003650Y005534D01*
X003650Y005804D01*
X003580Y006064D01*
X003445Y006298D01*
X003254Y006489D01*
X003020Y006624D01*
X003167Y006539D02*
X003396Y006539D01*
X003322Y006420D02*
X003471Y006420D01*
X003441Y006302D02*
X006125Y006302D01*
X005959Y006420D02*
X003779Y006420D01*
X003854Y006539D02*
X005872Y006539D01*
X005823Y006657D02*
X003854Y006657D01*
X003763Y006776D02*
X005813Y006776D01*
X006566Y006302D02*
X006739Y006302D01*
X007125Y006302D02*
X007133Y006302D01*
X007227Y006657D02*
X007031Y006657D01*
X006828Y007013D02*
X007308Y007013D01*
X007195Y007131D02*
X006754Y007131D01*
X006619Y007250D02*
X007195Y007250D01*
X007625Y005776D02*
X007491Y005642D01*
X007491Y005452D01*
X007625Y005318D01*
X007814Y005318D01*
X007948Y005452D01*
X007948Y005642D01*
X007814Y005776D01*
X007625Y005776D01*
X007558Y005709D02*
X003650Y005709D01*
X003650Y005591D02*
X007491Y005591D01*
X007491Y005472D02*
X003633Y005472D01*
X003601Y005354D02*
X007589Y005354D01*
X007850Y005354D02*
X010246Y005354D01*
X010148Y005472D02*
X009051Y005472D01*
X008995Y005416D02*
X009129Y005550D01*
X009129Y005740D01*
X008995Y005874D01*
X008806Y005874D01*
X008704Y005772D01*
X008602Y005874D01*
X008412Y005874D01*
X008278Y005740D01*
X008278Y005550D01*
X008412Y005416D01*
X008602Y005416D01*
X008704Y005518D01*
X008806Y005416D01*
X008995Y005416D01*
X009129Y005591D02*
X010148Y005591D01*
X010216Y005709D02*
X009129Y005709D01*
X009042Y005828D02*
X010166Y005828D01*
X010148Y005946D02*
X003611Y005946D01*
X003643Y005828D02*
X008366Y005828D01*
X008278Y005709D02*
X007881Y005709D01*
X007948Y005591D02*
X008278Y005591D01*
X008356Y005472D02*
X007948Y005472D01*
X008658Y005472D02*
X008750Y005472D01*
X008760Y005828D02*
X008648Y005828D01*
X010178Y006065D02*
X003579Y006065D01*
X003511Y006183D02*
X010443Y006183D01*
X011239Y006183D02*
X036739Y006183D01*
X036805Y006298D02*
X036670Y006064D01*
X036600Y005804D01*
X036600Y005534D01*
X036670Y005273D01*
X036805Y005040D01*
X036996Y004849D01*
X037230Y004714D01*
X037490Y004644D01*
X037760Y004644D01*
X038020Y004714D01*
X038254Y004849D01*
X038445Y005040D01*
X038580Y005273D01*
X038650Y005534D01*
X038650Y005804D01*
X038580Y006064D01*
X038445Y006298D01*
X038254Y006489D01*
X038020Y006624D01*
X037760Y006693D01*
X037490Y006693D01*
X037230Y006624D01*
X036996Y006489D01*
X036805Y006298D01*
X036809Y006302D02*
X034125Y006302D01*
X034291Y006420D02*
X036928Y006420D01*
X037083Y006539D02*
X034378Y006539D01*
X034427Y006657D02*
X037356Y006657D01*
X037894Y006657D02*
X038961Y006657D01*
X038961Y006539D02*
X038167Y006539D01*
X038322Y006420D02*
X038961Y006420D01*
X038961Y006302D02*
X038441Y006302D01*
X038511Y006183D02*
X038961Y006183D01*
X038961Y006065D02*
X038579Y006065D01*
X038611Y005946D02*
X038961Y005946D01*
X038961Y005828D02*
X038643Y005828D01*
X038650Y005709D02*
X038961Y005709D01*
X038961Y005669D02*
X038950Y005494D01*
X038860Y005157D01*
X038685Y004855D01*
X038438Y004609D01*
X038136Y004434D01*
X037799Y004344D01*
X037625Y004333D01*
X010274Y004333D01*
X010311Y004369D01*
X010311Y004559D01*
X010177Y004693D01*
X009987Y004693D01*
X009885Y004591D01*
X009783Y004693D01*
X009593Y004693D01*
X009459Y004559D01*
X009459Y004369D01*
X009496Y004333D01*
X002625Y004333D01*
X002451Y004344D01*
X002114Y004434D01*
X001812Y004609D01*
X001565Y004855D01*
X001390Y005157D01*
X001300Y005494D01*
X001289Y005669D01*
X001289Y017812D01*
X001827Y017812D01*
X001985Y017903D01*
X001985Y017903D01*
X001985Y017903D01*
X002076Y018062D01*
X002076Y018244D01*
X001985Y018403D01*
X001985Y018403D01*
X001985Y018403D01*
X001827Y018494D01*
X001289Y018494D01*
X001289Y022669D01*
X001300Y022843D01*
X001390Y023180D01*
X001565Y023482D01*
X001812Y023729D01*
X002114Y023903D01*
X002451Y023994D01*
X002625Y024005D01*
X004209Y024005D01*
X004209Y023786D01*
X004305Y023690D01*
X004835Y023690D01*
X004930Y023786D01*
X004930Y023985D01*
X035312Y023985D01*
X035312Y023786D01*
X035408Y023690D01*
X035937Y023690D01*
X036033Y023786D01*
X036033Y024005D01*
X037625Y024005D01*
X037799Y023994D01*
X038136Y023903D01*
X038438Y023729D01*
X038685Y023482D01*
X038860Y023180D01*
X038950Y022843D01*
X038961Y022669D01*
X038961Y018494D01*
X038423Y018494D01*
X038265Y018403D01*
X038265Y018403D01*
X038265Y018403D01*
X038174Y018244D01*
X038174Y018062D01*
X038265Y017903D01*
X038423Y017812D01*
X038961Y017812D01*
X038961Y005669D01*
X038956Y005591D02*
X038650Y005591D01*
X038633Y005472D02*
X038944Y005472D01*
X038912Y005354D02*
X038601Y005354D01*
X038558Y005235D02*
X038880Y005235D01*
X038836Y005117D02*
X038489Y005117D01*
X038403Y004998D02*
X038768Y004998D01*
X038699Y004880D02*
X038285Y004880D01*
X038102Y004761D02*
X038591Y004761D01*
X038473Y004643D02*
X036885Y004643D01*
X036885Y004566D02*
X036885Y004756D01*
X036751Y004890D01*
X036562Y004890D01*
X036428Y004756D01*
X036428Y004566D01*
X036562Y004432D01*
X036751Y004432D01*
X036885Y004566D01*
X036844Y004524D02*
X038292Y004524D01*
X038030Y004406D02*
X036033Y004406D01*
X036090Y004429D02*
X036199Y004539D01*
X036259Y004682D01*
X036259Y004837D01*
X036199Y004980D01*
X036090Y005090D01*
X035947Y005149D01*
X035792Y005149D01*
X035693Y005149D01*
X035550Y005090D01*
X035440Y004980D01*
X035381Y004837D01*
X035381Y004682D01*
X035440Y004539D01*
X035550Y004429D01*
X035693Y004370D01*
X035947Y004370D01*
X036090Y004429D01*
X036185Y004524D02*
X036469Y004524D01*
X036428Y004643D02*
X036242Y004643D01*
X036259Y004761D02*
X036433Y004761D01*
X036552Y004880D02*
X036241Y004880D01*
X036181Y004998D02*
X036847Y004998D01*
X036761Y004880D02*
X036965Y004880D01*
X036880Y004761D02*
X037148Y004761D01*
X036761Y005117D02*
X036024Y005117D01*
X035616Y005117D02*
X034326Y005117D01*
X034326Y005058D02*
X034326Y005248D01*
X034192Y005382D01*
X034003Y005382D01*
X033869Y005248D01*
X033869Y005058D01*
X034003Y004924D01*
X034192Y004924D01*
X034326Y005058D01*
X034266Y004998D02*
X035459Y004998D01*
X035399Y004880D02*
X030980Y004880D01*
X030978Y004761D02*
X035381Y004761D01*
X035397Y004643D02*
X030860Y004643D01*
X030642Y004643D02*
X026135Y004643D01*
X026254Y004761D02*
X030524Y004761D01*
X030307Y004880D02*
X026471Y004880D01*
X026551Y004998D02*
X030227Y004998D01*
X029971Y005117D02*
X028120Y005117D01*
X027783Y005117D02*
X026551Y005117D01*
X026465Y005235D02*
X027674Y005235D01*
X025918Y004643D02*
X010227Y004643D01*
X010311Y004524D02*
X035455Y004524D01*
X035606Y004406D02*
X010311Y004406D01*
X009937Y004643D02*
X009833Y004643D01*
X009543Y004643D02*
X003891Y004643D01*
X003913Y004665D02*
X003779Y004530D01*
X003589Y004530D01*
X003455Y004665D01*
X003455Y004854D01*
X003589Y004988D01*
X003779Y004988D01*
X003913Y004854D01*
X003913Y004665D01*
X003913Y004761D02*
X025799Y004761D01*
X025494Y007250D02*
X031211Y007250D01*
X031211Y007315D02*
X031211Y007125D01*
X031345Y006991D01*
X031535Y006991D01*
X031669Y007125D01*
X031669Y007258D01*
X031739Y007188D01*
X031928Y007188D01*
X032063Y007322D01*
X032063Y007512D01*
X031993Y007582D01*
X032027Y007582D01*
X032161Y007716D01*
X032161Y007905D01*
X032027Y008039D01*
X031837Y008039D01*
X031703Y007905D01*
X031703Y007716D01*
X031773Y007646D01*
X031739Y007646D01*
X031605Y007512D01*
X031605Y007379D01*
X031535Y007449D01*
X031345Y007449D01*
X031211Y007315D01*
X031265Y007368D02*
X025566Y007368D01*
X025566Y007487D02*
X031605Y007487D01*
X031698Y007605D02*
X026736Y007605D01*
X026712Y007582D02*
X026846Y007716D01*
X026846Y007905D01*
X026744Y008007D01*
X026846Y008109D01*
X026846Y008299D01*
X026712Y008433D01*
X026522Y008433D01*
X026388Y008299D01*
X026388Y008109D01*
X026490Y008007D01*
X026388Y007905D01*
X026388Y007716D01*
X026522Y007582D01*
X026712Y007582D01*
X026846Y007724D02*
X031703Y007724D01*
X031703Y007842D02*
X026846Y007842D01*
X026791Y007961D02*
X031759Y007961D01*
X032106Y007961D02*
X038961Y007961D01*
X038961Y008079D02*
X026816Y008079D01*
X026846Y008198D02*
X038961Y008198D01*
X038961Y008316D02*
X026829Y008316D01*
X026405Y008316D02*
X025549Y008316D01*
X025566Y008198D02*
X026388Y008198D01*
X026418Y008079D02*
X025536Y008079D01*
X025511Y007961D02*
X026444Y007961D01*
X026388Y007842D02*
X025566Y007842D01*
X025566Y007724D02*
X026388Y007724D01*
X026499Y007605D02*
X025473Y007605D01*
X025202Y007605D02*
X022220Y007605D01*
X022220Y007487D02*
X025109Y007487D01*
X025109Y007724D02*
X022130Y007724D01*
X022220Y007842D02*
X025109Y007842D01*
X025164Y007961D02*
X022220Y007961D01*
X022144Y008079D02*
X025139Y008079D01*
X025109Y008198D02*
X014346Y008198D01*
X014230Y008316D02*
X025126Y008316D01*
X025157Y008553D02*
X022369Y008553D01*
X022417Y008602D02*
X022283Y008467D01*
X022093Y008467D01*
X021959Y008602D01*
X021959Y008791D01*
X022093Y008925D01*
X022283Y008925D01*
X022417Y008791D01*
X022417Y008602D01*
X022417Y008672D02*
X025109Y008672D01*
X025109Y008790D02*
X022417Y008790D01*
X022299Y008909D02*
X025226Y008909D01*
X023346Y011089D02*
X023202Y011029D01*
X023048Y011029D01*
X022904Y011089D01*
X022795Y011198D01*
X022735Y011341D01*
X022735Y011496D01*
X022795Y011639D01*
X022904Y011749D01*
X022914Y011753D01*
X022862Y011775D01*
X022731Y011906D01*
X022690Y012005D01*
X022560Y012005D01*
X022519Y011906D01*
X022388Y011775D01*
X022336Y011753D01*
X022346Y011749D01*
X022455Y011639D01*
X022515Y011496D01*
X022515Y011341D01*
X022455Y011198D01*
X022346Y011089D01*
X022202Y011029D01*
X022048Y011029D01*
X021904Y011089D01*
X021795Y011198D01*
X021735Y011341D01*
X021735Y011496D01*
X021795Y011639D01*
X021904Y011749D01*
X021914Y011753D01*
X021862Y011775D01*
X021731Y011906D01*
X021690Y012005D01*
X021560Y012005D01*
X021519Y011906D01*
X021388Y011775D01*
X021336Y011753D01*
X021346Y011749D01*
X021455Y011639D01*
X021515Y011496D01*
X021515Y011341D01*
X021455Y011198D01*
X021346Y011089D01*
X021202Y011029D01*
X021048Y011029D01*
X020904Y011089D01*
X020795Y011198D01*
X020735Y011341D01*
X020735Y011496D01*
X020795Y011639D01*
X020904Y011749D01*
X020914Y011753D01*
X020862Y011775D01*
X020731Y011906D01*
X020690Y012005D01*
X020560Y012005D01*
X020519Y011906D01*
X020388Y011775D01*
X020336Y011753D01*
X020346Y011749D01*
X020455Y011639D01*
X020515Y011496D01*
X020515Y011341D01*
X020455Y011198D01*
X020346Y011089D01*
X020202Y011029D01*
X020048Y011029D01*
X019904Y011089D01*
X019795Y011198D01*
X019735Y011341D01*
X019735Y011496D01*
X019795Y011639D01*
X019904Y011749D01*
X019914Y011753D01*
X019862Y011775D01*
X019731Y011906D01*
X019690Y012005D01*
X019560Y012005D01*
X019519Y011906D01*
X019388Y011775D01*
X019336Y011753D01*
X019346Y011749D01*
X019455Y011639D01*
X019515Y011496D01*
X019515Y011341D01*
X019455Y011198D01*
X019346Y011089D01*
X019202Y011029D01*
X019048Y011029D01*
X018904Y011089D01*
X018795Y011198D01*
X018735Y011341D01*
X018735Y011496D01*
X018795Y011639D01*
X018904Y011749D01*
X018914Y011753D01*
X018862Y011775D01*
X018731Y011906D01*
X018690Y012005D01*
X018560Y012005D01*
X018519Y011906D01*
X018388Y011775D01*
X018336Y011753D01*
X018346Y011749D01*
X018455Y011639D01*
X018515Y011496D01*
X018515Y011341D01*
X018455Y011198D01*
X018346Y011089D01*
X018202Y011029D01*
X018048Y011029D01*
X017904Y011089D01*
X017795Y011198D01*
X017735Y011341D01*
X017735Y011496D01*
X017795Y011639D01*
X017904Y011749D01*
X017914Y011753D01*
X017862Y011775D01*
X017731Y011906D01*
X017690Y012005D01*
X017560Y012005D01*
X017519Y011906D01*
X017388Y011775D01*
X017336Y011753D01*
X017346Y011749D01*
X017455Y011639D01*
X017515Y011496D01*
X017515Y011341D01*
X017455Y011198D01*
X017346Y011089D01*
X017202Y011029D01*
X017048Y011029D01*
X016904Y011089D01*
X016795Y011198D01*
X016735Y011341D01*
X016735Y011496D01*
X016795Y011639D01*
X016904Y011749D01*
X016914Y011753D01*
X016862Y011775D01*
X016731Y011906D01*
X016690Y012005D01*
X016560Y012005D01*
X016519Y011906D01*
X016388Y011775D01*
X016336Y011753D01*
X016346Y011749D01*
X016455Y011639D01*
X016515Y011496D01*
X016515Y011341D01*
X016455Y011198D01*
X016346Y011089D01*
X016202Y011029D01*
X016048Y011029D01*
X015904Y011089D01*
X015795Y011198D01*
X015735Y011341D01*
X015735Y011496D01*
X015795Y011639D01*
X015904Y011749D01*
X015914Y011753D01*
X015862Y011775D01*
X015731Y011906D01*
X015690Y012005D01*
X015560Y012005D01*
X015519Y011906D01*
X015388Y011775D01*
X015336Y011753D01*
X015346Y011749D01*
X015455Y011639D01*
X015515Y011496D01*
X015515Y011341D01*
X015455Y011198D01*
X015346Y011089D01*
X015202Y011029D01*
X015048Y011029D01*
X014904Y011089D01*
X014795Y011198D01*
X014735Y011341D01*
X014735Y011496D01*
X014795Y011639D01*
X014904Y011749D01*
X014914Y011753D01*
X014862Y011775D01*
X014731Y011906D01*
X014690Y012005D01*
X014560Y012005D01*
X014519Y011906D01*
X014388Y011775D01*
X014336Y011753D01*
X014346Y011749D01*
X014455Y011639D01*
X014515Y011496D01*
X014515Y011341D01*
X014455Y011198D01*
X014346Y011089D01*
X014202Y011029D01*
X014048Y011029D01*
X013904Y011089D01*
X013795Y011198D01*
X013735Y011341D01*
X013735Y011496D01*
X013795Y011639D01*
X013904Y011749D01*
X013914Y011753D01*
X013862Y011775D01*
X013731Y011906D01*
X013690Y012005D01*
X013560Y012005D01*
X013519Y011906D01*
X013388Y011775D01*
X013336Y011753D01*
X013346Y011749D01*
X013455Y011639D01*
X013515Y011496D01*
X013515Y011341D01*
X013455Y011198D01*
X013346Y011089D01*
X013202Y011029D01*
X013048Y011029D01*
X012904Y011089D01*
X012795Y011198D01*
X012735Y011341D01*
X012735Y011496D01*
X012795Y011639D01*
X012904Y011749D01*
X012914Y011753D01*
X012862Y011775D01*
X012731Y011906D01*
X012690Y012005D01*
X012560Y012005D01*
X012519Y011906D01*
X012388Y011775D01*
X012336Y011753D01*
X012346Y011749D01*
X012455Y011639D01*
X012515Y011496D01*
X012515Y011341D01*
X012455Y011198D01*
X012346Y011089D01*
X012202Y011029D01*
X012048Y011029D01*
X011904Y011089D01*
X011795Y011198D01*
X011735Y011341D01*
X011735Y011496D01*
X011795Y011639D01*
X011904Y011749D01*
X011914Y011753D01*
X011862Y011775D01*
X011731Y011906D01*
X011690Y012005D01*
X011560Y012005D01*
X011519Y011906D01*
X011388Y011775D01*
X011336Y011753D01*
X011346Y011749D01*
X011455Y011639D01*
X011515Y011496D01*
X011515Y011341D01*
X011455Y011198D01*
X011346Y011089D01*
X011202Y011029D01*
X011048Y011029D01*
X010904Y011089D01*
X010795Y011198D01*
X010735Y011341D01*
X010735Y011496D01*
X010795Y011639D01*
X010904Y011749D01*
X010914Y011753D01*
X010862Y011775D01*
X010731Y011906D01*
X010690Y012005D01*
X010560Y012005D01*
X010519Y011906D01*
X010388Y011775D01*
X010336Y011753D01*
X010346Y011749D01*
X010455Y011639D01*
X010515Y011496D01*
X010515Y011341D01*
X010455Y011198D01*
X010346Y011089D01*
X010202Y011029D01*
X010048Y011029D01*
X009904Y011089D01*
X009795Y011198D01*
X009735Y011341D01*
X009735Y011496D01*
X009795Y011639D01*
X009904Y011749D01*
X009914Y011753D01*
X009862Y011775D01*
X009731Y011906D01*
X009690Y012005D01*
X009560Y012005D01*
X009519Y011906D01*
X009388Y011775D01*
X009336Y011753D01*
X009346Y011749D01*
X009455Y011639D01*
X009515Y011496D01*
X009515Y011341D01*
X009455Y011198D01*
X009346Y011089D01*
X009202Y011029D01*
X009048Y011029D01*
X008904Y011089D01*
X008795Y011198D01*
X008735Y011341D01*
X008735Y011496D01*
X008795Y011639D01*
X008904Y011749D01*
X008914Y011753D01*
X008862Y011775D01*
X008731Y011906D01*
X008690Y012005D01*
X008560Y012005D01*
X008519Y011906D01*
X008388Y011775D01*
X008336Y011753D01*
X008346Y011749D01*
X008455Y011639D01*
X008515Y011496D01*
X008515Y011341D01*
X008455Y011198D01*
X008346Y011089D01*
X008202Y011029D01*
X008048Y011029D01*
X007904Y011089D01*
X007795Y011198D01*
X007735Y011341D01*
X007735Y011496D01*
X007795Y011639D01*
X007904Y011749D01*
X007914Y011753D01*
X007862Y011775D01*
X007731Y011906D01*
X007690Y012005D01*
X007233Y012005D01*
X007066Y012102D01*
X007066Y012102D01*
X007066Y012102D01*
X006969Y012269D01*
X006969Y013095D01*
X007065Y013191D01*
X007590Y013191D01*
X007686Y013095D01*
X007686Y012896D01*
X032556Y012896D01*
X032556Y013095D01*
X032652Y013191D01*
X033185Y013191D01*
X033281Y013095D01*
X033281Y012269D01*
X033184Y012102D01*
X033184Y012102D01*
X033184Y012102D01*
X033017Y012005D01*
X023560Y012005D01*
X023519Y011906D01*
X023388Y011775D01*
X023336Y011753D01*
X023346Y011749D01*
X023455Y011639D01*
X023515Y011496D01*
X023515Y011341D01*
X023455Y011198D01*
X023346Y011089D01*
X023417Y011160D02*
X038961Y011160D01*
X038961Y011042D02*
X023233Y011042D01*
X023017Y011042D02*
X022233Y011042D01*
X022017Y011042D02*
X021233Y011042D01*
X021017Y011042D02*
X020233Y011042D01*
X020017Y011042D02*
X019233Y011042D01*
X019017Y011042D02*
X018233Y011042D01*
X018017Y011042D02*
X017233Y011042D01*
X017017Y011042D02*
X016233Y011042D01*
X016017Y011042D02*
X015233Y011042D01*
X015017Y011042D02*
X014233Y011042D01*
X014017Y011042D02*
X013233Y011042D01*
X013017Y011042D02*
X012233Y011042D01*
X012017Y011042D02*
X011233Y011042D01*
X011017Y011042D02*
X010233Y011042D01*
X010017Y011042D02*
X009233Y011042D01*
X009017Y011042D02*
X008233Y011042D01*
X008017Y011042D02*
X001289Y011042D01*
X001289Y011160D02*
X007833Y011160D01*
X007761Y011279D02*
X001289Y011279D01*
X001289Y011397D02*
X007735Y011397D01*
X007744Y011516D02*
X001289Y011516D01*
X001289Y011634D02*
X007793Y011634D01*
X007914Y011753D02*
X001289Y011753D01*
X001289Y011871D02*
X007766Y011871D01*
X007696Y011990D02*
X001289Y011990D01*
X001289Y012108D02*
X007062Y012108D01*
X006994Y012227D02*
X001289Y012227D01*
X001289Y012345D02*
X006969Y012345D01*
X006969Y012464D02*
X001289Y012464D01*
X001289Y012582D02*
X006969Y012582D01*
X006969Y012701D02*
X001289Y012701D01*
X001289Y012819D02*
X006969Y012819D01*
X006969Y012938D02*
X001289Y012938D01*
X001289Y013056D02*
X006969Y013056D01*
X007049Y013175D02*
X001289Y013175D01*
X001289Y013293D02*
X007029Y013293D01*
X007065Y013257D02*
X007590Y013257D01*
X007686Y013353D01*
X007686Y013489D01*
X007686Y022839D01*
X007590Y022935D01*
X004930Y022935D01*
X004930Y023528D01*
X004835Y023624D01*
X004305Y023624D01*
X004209Y023528D01*
X004209Y022379D01*
X004306Y022212D01*
X004473Y022115D01*
X006936Y022115D01*
X006945Y022114D01*
X006959Y022106D01*
X006968Y022091D01*
X006969Y022082D01*
X006969Y013353D01*
X007065Y013257D01*
X006969Y013412D02*
X001289Y013412D01*
X001289Y013530D02*
X006969Y013530D01*
X006969Y013649D02*
X001289Y013649D01*
X001289Y013767D02*
X006969Y013767D01*
X006969Y013886D02*
X001289Y013886D01*
X001289Y014004D02*
X006969Y014004D01*
X006969Y014123D02*
X001289Y014123D01*
X001289Y014241D02*
X004016Y014241D01*
X004081Y014176D02*
X004271Y014176D01*
X004405Y014310D01*
X004405Y014500D01*
X004271Y014634D01*
X004081Y014634D01*
X003947Y014500D01*
X003947Y014310D01*
X004081Y014176D01*
X003947Y014360D02*
X001289Y014360D01*
X001289Y014478D02*
X003947Y014478D01*
X004044Y014597D02*
X001289Y014597D01*
X001289Y014715D02*
X006969Y014715D01*
X006969Y014597D02*
X004308Y014597D01*
X004405Y014478D02*
X006969Y014478D01*
X006969Y014360D02*
X004405Y014360D01*
X004336Y014241D02*
X006969Y014241D01*
X007686Y014241D02*
X032556Y014241D01*
X032556Y014123D02*
X007686Y014123D01*
X007686Y014004D02*
X029805Y014004D01*
X029735Y013975D02*
X029625Y013866D01*
X029566Y013723D01*
X029566Y013568D01*
X029625Y013425D01*
X029735Y013315D01*
X029878Y013256D01*
X030033Y013256D01*
X030176Y013315D01*
X030286Y013425D01*
X030345Y013568D01*
X030345Y013723D01*
X030286Y013866D01*
X030176Y013975D01*
X030033Y014035D01*
X029878Y014035D01*
X029735Y013975D01*
X029645Y013886D02*
X007686Y013886D01*
X007686Y013767D02*
X029585Y013767D01*
X029566Y013649D02*
X007686Y013649D01*
X007686Y013530D02*
X029582Y013530D01*
X029638Y013412D02*
X007686Y013412D01*
X007627Y013293D02*
X029787Y013293D01*
X030124Y013293D02*
X030787Y013293D01*
X030735Y013315D02*
X030878Y013256D01*
X031033Y013256D01*
X031176Y013315D01*
X031286Y013425D01*
X031345Y013568D01*
X031345Y013723D01*
X031286Y013866D01*
X031176Y013975D01*
X031033Y014035D01*
X030878Y014035D01*
X030735Y013975D01*
X030625Y013866D01*
X030566Y013723D01*
X030566Y013568D01*
X030625Y013425D01*
X030735Y013315D01*
X030638Y013412D02*
X030273Y013412D01*
X030330Y013530D02*
X030582Y013530D01*
X030566Y013649D02*
X030345Y013649D01*
X030327Y013767D02*
X030585Y013767D01*
X030645Y013886D02*
X030266Y013886D01*
X030107Y014004D02*
X030805Y014004D01*
X030878Y014256D02*
X031033Y014256D01*
X031176Y014315D01*
X031286Y014425D01*
X031345Y014568D01*
X031345Y014723D01*
X031286Y014866D01*
X031176Y014975D01*
X031033Y015035D01*
X030878Y015035D01*
X030735Y014975D01*
X030625Y014866D01*
X030566Y014723D01*
X030566Y014568D01*
X030625Y014425D01*
X030735Y014315D01*
X030878Y014256D01*
X030690Y014360D02*
X030221Y014360D01*
X030176Y014315D02*
X030286Y014425D01*
X030345Y014568D01*
X030345Y014723D01*
X030286Y014866D01*
X030176Y014975D01*
X030033Y015035D01*
X029878Y015035D01*
X029735Y014975D01*
X029625Y014866D01*
X029566Y014723D01*
X029566Y014568D01*
X029625Y014425D01*
X029735Y014315D01*
X029878Y014256D01*
X030033Y014256D01*
X030176Y014315D01*
X030308Y014478D02*
X030603Y014478D01*
X030566Y014597D02*
X030345Y014597D01*
X030345Y014715D02*
X030566Y014715D01*
X030612Y014834D02*
X030299Y014834D01*
X030199Y014952D02*
X030712Y014952D01*
X030878Y015256D02*
X031033Y015256D01*
X031176Y015315D01*
X031286Y015425D01*
X031345Y015568D01*
X031345Y015723D01*
X031286Y015866D01*
X031176Y015975D01*
X031033Y016035D01*
X030878Y016035D01*
X030735Y015975D01*
X030625Y015866D01*
X030566Y015723D01*
X030566Y015568D01*
X030625Y015425D01*
X030735Y015315D01*
X030878Y015256D01*
X030752Y015308D02*
X030159Y015308D01*
X030176Y015315D02*
X030286Y015425D01*
X030345Y015568D01*
X030345Y015723D01*
X030286Y015866D01*
X030176Y015975D01*
X030033Y016035D01*
X029878Y016035D01*
X029735Y015975D01*
X029625Y015866D01*
X029566Y015723D01*
X029566Y015568D01*
X029625Y015425D01*
X029735Y015315D01*
X029878Y015256D01*
X030033Y015256D01*
X030176Y015315D01*
X030287Y015426D02*
X030625Y015426D01*
X030576Y015545D02*
X030336Y015545D01*
X030345Y015663D02*
X030566Y015663D01*
X030591Y015782D02*
X030321Y015782D01*
X030251Y015900D02*
X030660Y015900D01*
X030840Y016019D02*
X030072Y016019D01*
X029840Y016019D02*
X007686Y016019D01*
X007686Y016137D02*
X032556Y016137D01*
X032556Y016019D02*
X031072Y016019D01*
X031251Y015900D02*
X032556Y015900D01*
X032556Y015782D02*
X031321Y015782D01*
X031345Y015663D02*
X032556Y015663D01*
X032556Y015545D02*
X031336Y015545D01*
X031287Y015426D02*
X032556Y015426D01*
X032556Y015308D02*
X031159Y015308D01*
X031199Y014952D02*
X032556Y014952D01*
X032556Y014834D02*
X031299Y014834D01*
X031345Y014715D02*
X032556Y014715D01*
X032556Y014597D02*
X031345Y014597D01*
X031308Y014478D02*
X032556Y014478D01*
X032556Y014360D02*
X031221Y014360D01*
X031107Y014004D02*
X032556Y014004D01*
X032556Y013886D02*
X031266Y013886D01*
X031327Y013767D02*
X032556Y013767D01*
X032556Y013649D02*
X031345Y013649D01*
X031330Y013530D02*
X032556Y013530D01*
X032556Y013412D02*
X031273Y013412D01*
X031124Y013293D02*
X032615Y013293D01*
X032652Y013257D02*
X033185Y013257D01*
X033281Y013353D01*
X033281Y019524D01*
X033314Y019491D01*
X033503Y019491D01*
X033637Y019625D01*
X033637Y019815D01*
X033503Y019949D01*
X033314Y019949D01*
X033281Y019916D01*
X033281Y020803D01*
X033412Y020672D01*
X033602Y020672D01*
X033736Y020806D01*
X033736Y020996D01*
X033653Y021078D01*
X033799Y021018D01*
X034010Y021018D01*
X034206Y021099D01*
X034356Y021249D01*
X034437Y021445D01*
X034437Y021657D01*
X034356Y021852D01*
X034206Y022002D01*
X034010Y022083D01*
X033799Y022083D01*
X033603Y022002D01*
X033453Y021852D01*
X033372Y021657D01*
X033372Y021445D01*
X033453Y021249D01*
X033572Y021130D01*
X033412Y021130D01*
X033281Y020999D01*
X033281Y022082D01*
X033282Y022091D01*
X033291Y022106D01*
X033305Y022114D01*
X033314Y022115D01*
X035769Y022115D01*
X035936Y022212D01*
X035936Y022212D01*
X036033Y022379D01*
X036033Y023528D01*
X035937Y023624D01*
X035408Y023624D01*
X035312Y023528D01*
X035312Y022836D01*
X032652Y022836D01*
X032556Y022741D01*
X032556Y013353D01*
X032652Y013257D01*
X032636Y013175D02*
X007606Y013175D01*
X007686Y013056D02*
X032556Y013056D01*
X032556Y012938D02*
X007686Y012938D01*
X008554Y011990D02*
X008696Y011990D01*
X008766Y011871D02*
X008484Y011871D01*
X008336Y011753D02*
X008914Y011753D01*
X008793Y011634D02*
X008457Y011634D01*
X008506Y011516D02*
X008744Y011516D01*
X008735Y011397D02*
X008515Y011397D01*
X008489Y011279D02*
X008761Y011279D01*
X008833Y011160D02*
X008417Y011160D01*
X009417Y011160D02*
X009833Y011160D01*
X009761Y011279D02*
X009489Y011279D01*
X009515Y011397D02*
X009735Y011397D01*
X009744Y011516D02*
X009506Y011516D01*
X009457Y011634D02*
X009793Y011634D01*
X009914Y011753D02*
X009336Y011753D01*
X009484Y011871D02*
X009766Y011871D01*
X009696Y011990D02*
X009554Y011990D01*
X010336Y011753D02*
X010914Y011753D01*
X010793Y011634D02*
X010457Y011634D01*
X010506Y011516D02*
X010744Y011516D01*
X010735Y011397D02*
X010515Y011397D01*
X010489Y011279D02*
X010761Y011279D01*
X010833Y011160D02*
X010417Y011160D01*
X009881Y010500D02*
X009692Y010500D01*
X009558Y010366D01*
X009558Y010303D01*
X009396Y010303D01*
X009262Y010169D01*
X009262Y009979D01*
X009396Y009845D01*
X009586Y009845D01*
X009720Y009979D01*
X009720Y010042D01*
X009881Y010042D01*
X010015Y010176D01*
X010015Y010366D01*
X009881Y010500D01*
X009932Y010449D02*
X038961Y010449D01*
X038961Y010331D02*
X010015Y010331D01*
X010015Y010212D02*
X038961Y010212D01*
X038961Y010094D02*
X031744Y010094D01*
X031767Y010071D02*
X031633Y010205D01*
X031444Y010205D01*
X031309Y010071D01*
X031309Y009881D01*
X031444Y009747D01*
X031633Y009747D01*
X031767Y009881D01*
X031767Y010071D01*
X031767Y009975D02*
X038961Y009975D01*
X038961Y009857D02*
X031743Y009857D01*
X031334Y009857D02*
X020350Y009857D01*
X020350Y009874D02*
X020216Y010008D01*
X020026Y010008D01*
X019892Y009874D01*
X019892Y009684D01*
X020026Y009550D01*
X020216Y009550D01*
X020350Y009684D01*
X020350Y009874D01*
X020350Y009738D02*
X038961Y009738D01*
X038961Y009620D02*
X020286Y009620D01*
X019957Y009620D02*
X001289Y009620D01*
X001289Y009738D02*
X019892Y009738D01*
X019892Y009857D02*
X012944Y009857D01*
X012968Y009881D02*
X012834Y009747D01*
X012644Y009747D01*
X012510Y009881D01*
X012510Y010071D01*
X012644Y010205D01*
X012834Y010205D01*
X012968Y010071D01*
X012968Y009881D01*
X012968Y009975D02*
X019994Y009975D01*
X020248Y009975D02*
X031309Y009975D01*
X031333Y010094D02*
X012945Y010094D01*
X012533Y010094D02*
X009933Y010094D01*
X009716Y009975D02*
X012510Y009975D01*
X012535Y009857D02*
X009597Y009857D01*
X009385Y009857D02*
X001289Y009857D01*
X001289Y009975D02*
X009266Y009975D01*
X009262Y010094D02*
X006291Y010094D01*
X006239Y010042D02*
X006374Y010176D01*
X006374Y010366D01*
X006239Y010500D01*
X006050Y010500D01*
X005916Y010366D01*
X005916Y010176D01*
X006050Y010042D01*
X006239Y010042D01*
X006374Y010212D02*
X009305Y010212D01*
X009558Y010331D02*
X006374Y010331D01*
X006290Y010449D02*
X009641Y010449D01*
X008554Y009264D02*
X001289Y009264D01*
X001289Y009146D02*
X008475Y009146D01*
X008475Y009027D02*
X001289Y009027D01*
X001289Y008909D02*
X008561Y008909D01*
X005998Y010094D02*
X001289Y010094D01*
X001289Y010212D02*
X005916Y010212D01*
X005916Y010331D02*
X001289Y010331D01*
X001289Y010449D02*
X005999Y010449D01*
X005291Y010668D02*
X005291Y010858D01*
X005157Y010992D01*
X004967Y010992D01*
X004833Y010858D01*
X004833Y010668D01*
X004967Y010534D01*
X005157Y010534D01*
X005291Y010668D01*
X005291Y010686D02*
X038961Y010686D01*
X038961Y010568D02*
X005190Y010568D01*
X004934Y010568D02*
X001289Y010568D01*
X001289Y010686D02*
X004833Y010686D01*
X004833Y010805D02*
X001289Y010805D01*
X001289Y010923D02*
X004898Y010923D01*
X005226Y010923D02*
X038961Y010923D01*
X038961Y010805D02*
X005291Y010805D01*
X005302Y008079D02*
X001289Y008079D01*
X001289Y007961D02*
X005227Y007961D01*
X005227Y007842D02*
X002500Y007842D01*
X002535Y007807D02*
X002401Y007941D01*
X002211Y007941D01*
X002077Y007807D01*
X002077Y007617D01*
X002211Y007483D01*
X002401Y007483D01*
X002535Y007617D01*
X002535Y007807D01*
X002535Y007724D02*
X005144Y007724D01*
X005030Y007605D02*
X002523Y007605D01*
X002405Y007487D02*
X005030Y007487D01*
X002356Y006657D02*
X001289Y006657D01*
X001289Y006539D02*
X002083Y006539D01*
X001928Y006420D02*
X001289Y006420D01*
X001289Y006302D02*
X001809Y006302D01*
X001739Y006183D02*
X001289Y006183D01*
X001289Y006065D02*
X001671Y006065D01*
X001639Y005946D02*
X001289Y005946D01*
X001289Y005828D02*
X001607Y005828D01*
X001600Y005709D02*
X001289Y005709D01*
X001294Y005591D02*
X001600Y005591D01*
X001617Y005472D02*
X001306Y005472D01*
X001338Y005354D02*
X001649Y005354D01*
X001692Y005235D02*
X001370Y005235D01*
X001414Y005117D02*
X001761Y005117D01*
X001847Y004998D02*
X001482Y004998D01*
X001551Y004880D02*
X001965Y004880D01*
X002148Y004761D02*
X001659Y004761D01*
X001777Y004643D02*
X003477Y004643D01*
X003455Y004761D02*
X003102Y004761D01*
X003285Y004880D02*
X003481Y004880D01*
X003403Y004998D02*
X006211Y004998D01*
X006211Y005117D02*
X003489Y005117D01*
X003558Y005235D02*
X006297Y005235D01*
X006291Y004880D02*
X003887Y004880D01*
X002220Y004406D02*
X009459Y004406D01*
X009459Y004524D02*
X001958Y004524D01*
X002208Y007487D02*
X001289Y007487D01*
X001289Y007605D02*
X002089Y007605D01*
X002077Y007724D02*
X001289Y007724D01*
X001289Y007842D02*
X002113Y007842D01*
X010484Y011871D02*
X010766Y011871D01*
X010696Y011990D02*
X010554Y011990D01*
X011336Y011753D02*
X011914Y011753D01*
X011793Y011634D02*
X011457Y011634D01*
X011506Y011516D02*
X011744Y011516D01*
X011735Y011397D02*
X011515Y011397D01*
X011489Y011279D02*
X011761Y011279D01*
X011833Y011160D02*
X011417Y011160D01*
X012417Y011160D02*
X012833Y011160D01*
X012761Y011279D02*
X012489Y011279D01*
X012515Y011397D02*
X012735Y011397D01*
X012744Y011516D02*
X012506Y011516D01*
X012457Y011634D02*
X012793Y011634D01*
X012914Y011753D02*
X012336Y011753D01*
X012484Y011871D02*
X012766Y011871D01*
X012696Y011990D02*
X012554Y011990D01*
X011766Y011871D02*
X011484Y011871D01*
X011554Y011990D02*
X011696Y011990D01*
X013336Y011753D02*
X013914Y011753D01*
X013793Y011634D02*
X013457Y011634D01*
X013506Y011516D02*
X013744Y011516D01*
X013735Y011397D02*
X013515Y011397D01*
X013489Y011279D02*
X013761Y011279D01*
X013833Y011160D02*
X013417Y011160D01*
X014417Y011160D02*
X014833Y011160D01*
X014761Y011279D02*
X014489Y011279D01*
X014515Y011397D02*
X014735Y011397D01*
X014744Y011516D02*
X014506Y011516D01*
X014457Y011634D02*
X014793Y011634D01*
X014914Y011753D02*
X014336Y011753D01*
X014484Y011871D02*
X014766Y011871D01*
X014696Y011990D02*
X014554Y011990D01*
X013766Y011871D02*
X013484Y011871D01*
X013554Y011990D02*
X013696Y011990D01*
X015336Y011753D02*
X015914Y011753D01*
X015793Y011634D02*
X015457Y011634D01*
X015506Y011516D02*
X015744Y011516D01*
X015735Y011397D02*
X015515Y011397D01*
X015489Y011279D02*
X015761Y011279D01*
X015833Y011160D02*
X015417Y011160D01*
X016417Y011160D02*
X016833Y011160D01*
X016761Y011279D02*
X016489Y011279D01*
X016515Y011397D02*
X016735Y011397D01*
X016744Y011516D02*
X016506Y011516D01*
X016457Y011634D02*
X016793Y011634D01*
X016914Y011753D02*
X016336Y011753D01*
X016484Y011871D02*
X016766Y011871D01*
X016696Y011990D02*
X016554Y011990D01*
X015766Y011871D02*
X015484Y011871D01*
X015554Y011990D02*
X015696Y011990D01*
X017336Y011753D02*
X017914Y011753D01*
X017793Y011634D02*
X017457Y011634D01*
X017506Y011516D02*
X017744Y011516D01*
X017735Y011397D02*
X017515Y011397D01*
X017489Y011279D02*
X017761Y011279D01*
X017833Y011160D02*
X017417Y011160D01*
X018417Y011160D02*
X018833Y011160D01*
X018761Y011279D02*
X018489Y011279D01*
X018515Y011397D02*
X018735Y011397D01*
X018744Y011516D02*
X018506Y011516D01*
X018457Y011634D02*
X018793Y011634D01*
X018914Y011753D02*
X018336Y011753D01*
X018484Y011871D02*
X018766Y011871D01*
X018696Y011990D02*
X018554Y011990D01*
X017766Y011871D02*
X017484Y011871D01*
X017554Y011990D02*
X017696Y011990D01*
X019336Y011753D02*
X019914Y011753D01*
X019793Y011634D02*
X019457Y011634D01*
X019506Y011516D02*
X019744Y011516D01*
X019735Y011397D02*
X019515Y011397D01*
X019489Y011279D02*
X019761Y011279D01*
X019833Y011160D02*
X019417Y011160D01*
X020417Y011160D02*
X020833Y011160D01*
X020761Y011279D02*
X020489Y011279D01*
X020515Y011397D02*
X020735Y011397D01*
X020744Y011516D02*
X020506Y011516D01*
X020457Y011634D02*
X020793Y011634D01*
X020914Y011753D02*
X020336Y011753D01*
X020484Y011871D02*
X020766Y011871D01*
X020696Y011990D02*
X020554Y011990D01*
X019766Y011871D02*
X019484Y011871D01*
X019554Y011990D02*
X019696Y011990D01*
X021336Y011753D02*
X021914Y011753D01*
X021793Y011634D02*
X021457Y011634D01*
X021506Y011516D02*
X021744Y011516D01*
X021735Y011397D02*
X021515Y011397D01*
X021489Y011279D02*
X021761Y011279D01*
X021833Y011160D02*
X021417Y011160D01*
X022336Y011753D02*
X022914Y011753D01*
X022793Y011634D02*
X022457Y011634D01*
X022506Y011516D02*
X022744Y011516D01*
X022735Y011397D02*
X022515Y011397D01*
X022489Y011279D02*
X022761Y011279D01*
X022833Y011160D02*
X022417Y011160D01*
X023489Y011279D02*
X038961Y011279D01*
X038961Y011397D02*
X023515Y011397D01*
X023506Y011516D02*
X038961Y011516D01*
X038961Y011634D02*
X023457Y011634D01*
X023336Y011753D02*
X038961Y011753D01*
X038961Y011871D02*
X023484Y011871D01*
X023554Y011990D02*
X038961Y011990D01*
X038961Y012108D02*
X033188Y012108D01*
X033256Y012227D02*
X038961Y012227D01*
X038961Y012345D02*
X033281Y012345D01*
X033281Y012464D02*
X038961Y012464D01*
X038961Y012582D02*
X033281Y012582D01*
X033281Y012701D02*
X038961Y012701D01*
X038961Y012819D02*
X033281Y012819D01*
X033281Y012938D02*
X038961Y012938D01*
X038961Y013056D02*
X037994Y013056D01*
X037932Y012995D02*
X038066Y013129D01*
X038066Y013319D01*
X037932Y013453D01*
X037743Y013453D01*
X037609Y013319D01*
X037609Y013129D01*
X037743Y012995D01*
X037932Y012995D01*
X038066Y013175D02*
X038961Y013175D01*
X038961Y013293D02*
X038066Y013293D01*
X037973Y013412D02*
X038961Y013412D01*
X038961Y013530D02*
X033281Y013530D01*
X033281Y013412D02*
X037702Y013412D01*
X037609Y013293D02*
X033221Y013293D01*
X033201Y013175D02*
X037609Y013175D01*
X037681Y013056D02*
X033281Y013056D01*
X033281Y013649D02*
X038961Y013649D01*
X038961Y013767D02*
X033281Y013767D01*
X033281Y013886D02*
X038961Y013886D01*
X038961Y014004D02*
X033281Y014004D01*
X033281Y014123D02*
X038961Y014123D01*
X038961Y014241D02*
X033281Y014241D01*
X033281Y014360D02*
X038961Y014360D01*
X038961Y014478D02*
X033281Y014478D01*
X033281Y014597D02*
X038961Y014597D01*
X038961Y014715D02*
X033281Y014715D01*
X033281Y014834D02*
X038961Y014834D01*
X038961Y014952D02*
X033281Y014952D01*
X033281Y015071D02*
X038961Y015071D01*
X038961Y015189D02*
X033281Y015189D01*
X033281Y015308D02*
X038961Y015308D01*
X038961Y015426D02*
X033281Y015426D01*
X033281Y015545D02*
X038961Y015545D01*
X038961Y015663D02*
X033281Y015663D01*
X033281Y015782D02*
X038961Y015782D01*
X038961Y015900D02*
X033281Y015900D01*
X033281Y016019D02*
X038961Y016019D01*
X038961Y016137D02*
X033281Y016137D01*
X033281Y016256D02*
X038961Y016256D01*
X038961Y016374D02*
X033281Y016374D01*
X033281Y016493D02*
X034836Y016493D01*
X034888Y016440D02*
X035078Y016440D01*
X035212Y016574D01*
X035212Y016764D01*
X035078Y016898D01*
X034888Y016898D01*
X034754Y016764D01*
X034754Y016574D01*
X034888Y016440D01*
X034754Y016611D02*
X033281Y016611D01*
X033281Y016730D02*
X034754Y016730D01*
X034839Y016848D02*
X033281Y016848D01*
X033281Y016967D02*
X038961Y016967D01*
X038961Y017085D02*
X033281Y017085D01*
X033281Y017204D02*
X038961Y017204D01*
X038961Y017322D02*
X033281Y017322D01*
X033281Y017441D02*
X033888Y017441D01*
X033904Y017424D02*
X034094Y017424D01*
X034228Y017558D01*
X034228Y017748D01*
X034094Y017882D01*
X033904Y017882D01*
X033770Y017748D01*
X033770Y017558D01*
X033904Y017424D01*
X033770Y017559D02*
X033281Y017559D01*
X033281Y017678D02*
X033770Y017678D01*
X033819Y017796D02*
X033281Y017796D01*
X033281Y017915D02*
X037313Y017915D01*
X037313Y017854D02*
X037448Y017719D01*
X037637Y017719D01*
X037771Y017854D01*
X037771Y018043D01*
X037637Y018177D01*
X037448Y018177D01*
X037313Y018043D01*
X037313Y017854D01*
X037371Y017796D02*
X034770Y017796D01*
X034818Y017748D02*
X034684Y017882D01*
X034495Y017882D01*
X034361Y017748D01*
X034361Y017558D01*
X034495Y017424D01*
X034684Y017424D01*
X034818Y017558D01*
X034818Y017748D01*
X034818Y017678D02*
X038961Y017678D01*
X038961Y017796D02*
X037714Y017796D01*
X037771Y017915D02*
X038259Y017915D01*
X038265Y017903D02*
X038265Y017903D01*
X038265Y017903D01*
X038190Y018033D02*
X037771Y018033D01*
X037663Y018152D02*
X038174Y018152D01*
X038189Y018270D02*
X035901Y018270D01*
X035901Y018338D02*
X035901Y018149D01*
X035767Y018015D01*
X035577Y018015D01*
X035443Y018149D01*
X035443Y018338D01*
X035577Y018472D01*
X035767Y018472D01*
X035901Y018338D01*
X035851Y018389D02*
X038257Y018389D01*
X037875Y018744D02*
X038961Y018744D01*
X038961Y018626D02*
X033281Y018626D01*
X033281Y018744D02*
X037604Y018744D01*
X037644Y018704D02*
X037834Y018704D01*
X037968Y018838D01*
X037968Y019027D01*
X037834Y019161D01*
X037644Y019161D01*
X037510Y019027D01*
X037510Y018838D01*
X037644Y018704D01*
X037510Y018863D02*
X033281Y018863D01*
X033281Y018981D02*
X037510Y018981D01*
X037583Y019100D02*
X033281Y019100D01*
X033281Y019218D02*
X035653Y019218D01*
X035676Y019196D02*
X035865Y019196D01*
X036000Y019330D01*
X036000Y019520D01*
X035865Y019654D01*
X035676Y019654D01*
X035542Y019520D01*
X035542Y019330D01*
X035676Y019196D01*
X035542Y019337D02*
X035416Y019337D01*
X035373Y019294D02*
X035507Y019428D01*
X035507Y019618D01*
X035373Y019752D01*
X035184Y019752D01*
X035082Y019650D01*
X034980Y019752D01*
X034790Y019752D01*
X034656Y019618D01*
X034656Y019428D01*
X034790Y019294D01*
X034980Y019294D01*
X035082Y019396D01*
X035184Y019294D01*
X035373Y019294D01*
X035507Y019455D02*
X035542Y019455D01*
X035507Y019574D02*
X035596Y019574D01*
X035433Y019692D02*
X038961Y019692D01*
X038961Y019574D02*
X035945Y019574D01*
X036000Y019455D02*
X038961Y019455D01*
X038961Y019337D02*
X036000Y019337D01*
X035888Y019218D02*
X038961Y019218D01*
X038961Y019100D02*
X037896Y019100D01*
X037968Y018981D02*
X038961Y018981D01*
X038961Y018863D02*
X037968Y018863D01*
X037422Y018152D02*
X035901Y018152D01*
X035786Y018033D02*
X037313Y018033D01*
X036358Y016898D02*
X036168Y016898D01*
X036034Y016764D01*
X036034Y016574D01*
X036168Y016440D01*
X036358Y016440D01*
X036492Y016574D01*
X036492Y016764D01*
X036358Y016898D01*
X036407Y016848D02*
X038961Y016848D01*
X038961Y016730D02*
X036492Y016730D01*
X036492Y016611D02*
X038961Y016611D01*
X038961Y016493D02*
X036411Y016493D01*
X036115Y016493D02*
X035131Y016493D01*
X035212Y016611D02*
X036034Y016611D01*
X036034Y016730D02*
X035212Y016730D01*
X035127Y016848D02*
X036119Y016848D01*
X034818Y017559D02*
X038961Y017559D01*
X038961Y017441D02*
X034701Y017441D01*
X034478Y017441D02*
X034111Y017441D01*
X034228Y017559D02*
X034361Y017559D01*
X034361Y017678D02*
X034228Y017678D01*
X034179Y017796D02*
X034409Y017796D01*
X035443Y018152D02*
X033281Y018152D01*
X033281Y018270D02*
X035443Y018270D01*
X035494Y018389D02*
X033281Y018389D01*
X033281Y018507D02*
X038961Y018507D01*
X038961Y019811D02*
X034326Y019811D01*
X034326Y019724D02*
X034192Y019589D01*
X034003Y019589D01*
X033869Y019724D01*
X033869Y019913D01*
X034003Y020047D01*
X034192Y020047D01*
X034326Y019913D01*
X034326Y019724D01*
X034295Y019692D02*
X034730Y019692D01*
X034656Y019574D02*
X033586Y019574D01*
X033637Y019692D02*
X033900Y019692D01*
X033869Y019811D02*
X033637Y019811D01*
X033523Y019929D02*
X033885Y019929D01*
X034310Y019929D02*
X038961Y019929D01*
X038961Y020048D02*
X033281Y020048D01*
X033281Y020166D02*
X038961Y020166D01*
X038961Y020285D02*
X033281Y020285D01*
X033281Y020403D02*
X038961Y020403D01*
X038961Y020522D02*
X033281Y020522D01*
X033281Y020640D02*
X038961Y020640D01*
X038961Y020759D02*
X033688Y020759D01*
X033736Y020877D02*
X038961Y020877D01*
X038961Y020996D02*
X033736Y020996D01*
X033469Y021233D02*
X033281Y021233D01*
X033281Y021351D02*
X033411Y021351D01*
X033372Y021470D02*
X033281Y021470D01*
X033281Y021588D02*
X033372Y021588D01*
X033393Y021707D02*
X033281Y021707D01*
X033281Y021825D02*
X033442Y021825D01*
X033545Y021944D02*
X033281Y021944D01*
X033281Y022062D02*
X033748Y022062D01*
X034061Y022062D02*
X036792Y022062D01*
X036805Y022040D02*
X036996Y021849D01*
X037230Y021714D01*
X037490Y021644D01*
X037760Y021644D01*
X038020Y021714D01*
X038254Y021849D01*
X038445Y022040D01*
X038580Y022273D01*
X038650Y022534D01*
X038650Y022804D01*
X038580Y023064D01*
X038445Y023298D01*
X038254Y023489D01*
X038020Y023624D01*
X037760Y023693D01*
X037490Y023693D01*
X037230Y023624D01*
X036996Y023489D01*
X036805Y023298D01*
X036670Y023064D01*
X036600Y022804D01*
X036600Y022534D01*
X036670Y022273D01*
X036805Y022040D01*
X036901Y021944D02*
X034264Y021944D01*
X034367Y021825D02*
X037037Y021825D01*
X037256Y021707D02*
X034416Y021707D01*
X034437Y021588D02*
X034559Y021588D01*
X034593Y021622D02*
X034459Y021488D01*
X034459Y021298D01*
X034593Y021164D01*
X034783Y021164D01*
X034917Y021298D01*
X034917Y021488D01*
X034783Y021622D01*
X034593Y021622D01*
X034459Y021470D02*
X034437Y021470D01*
X034459Y021351D02*
X034398Y021351D01*
X034340Y021233D02*
X034525Y021233D01*
X034221Y021114D02*
X038961Y021114D01*
X038961Y021233D02*
X034851Y021233D01*
X034917Y021351D02*
X038961Y021351D01*
X038961Y021470D02*
X034917Y021470D01*
X034817Y021588D02*
X038961Y021588D01*
X038961Y021707D02*
X037994Y021707D01*
X038213Y021825D02*
X038961Y021825D01*
X038961Y021944D02*
X038349Y021944D01*
X038458Y022062D02*
X038961Y022062D01*
X038961Y022181D02*
X038526Y022181D01*
X038587Y022299D02*
X038961Y022299D01*
X038961Y022418D02*
X038618Y022418D01*
X038650Y022536D02*
X038961Y022536D01*
X038961Y022655D02*
X038650Y022655D01*
X038650Y022773D02*
X038954Y022773D01*
X038937Y022892D02*
X038626Y022892D01*
X038594Y023010D02*
X038905Y023010D01*
X038873Y023129D02*
X038542Y023129D01*
X038474Y023247D02*
X038821Y023247D01*
X038752Y023366D02*
X038377Y023366D01*
X038258Y023484D02*
X038683Y023484D01*
X038565Y023603D02*
X038056Y023603D01*
X038246Y023840D02*
X036033Y023840D01*
X036033Y023958D02*
X037931Y023958D01*
X038446Y023721D02*
X035968Y023721D01*
X035958Y023603D02*
X037194Y023603D01*
X036992Y023484D02*
X036033Y023484D01*
X036033Y023366D02*
X036873Y023366D01*
X036776Y023247D02*
X036033Y023247D01*
X036033Y023129D02*
X036708Y023129D01*
X036656Y023010D02*
X036033Y023010D01*
X036033Y022892D02*
X036624Y022892D01*
X036600Y022773D02*
X036033Y022773D01*
X036033Y022655D02*
X036600Y022655D01*
X036600Y022536D02*
X036033Y022536D01*
X036033Y022418D02*
X036632Y022418D01*
X036663Y022299D02*
X035987Y022299D01*
X035936Y022212D02*
X035936Y022212D01*
X035882Y022181D02*
X036724Y022181D01*
X035312Y022892D02*
X031260Y022892D01*
X031286Y022866D02*
X031176Y022975D01*
X031033Y023035D01*
X030878Y023035D01*
X030735Y022975D01*
X030625Y022866D01*
X030566Y022723D01*
X030566Y022568D01*
X030625Y022425D01*
X030735Y022315D01*
X030878Y022256D01*
X031033Y022256D01*
X031176Y022315D01*
X031286Y022425D01*
X031345Y022568D01*
X031345Y022723D01*
X031286Y022866D01*
X031324Y022773D02*
X032589Y022773D01*
X032556Y022655D02*
X031345Y022655D01*
X031332Y022536D02*
X032556Y022536D01*
X032556Y022418D02*
X031279Y022418D01*
X031139Y022299D02*
X032556Y022299D01*
X032556Y022181D02*
X007686Y022181D01*
X007686Y022299D02*
X029773Y022299D01*
X029735Y022315D02*
X029878Y022256D01*
X030033Y022256D01*
X030176Y022315D01*
X030286Y022425D01*
X030345Y022568D01*
X030345Y022723D01*
X030286Y022866D01*
X030176Y022975D01*
X030033Y023035D01*
X029878Y023035D01*
X029735Y022975D01*
X029625Y022866D01*
X029566Y022723D01*
X029566Y022568D01*
X029625Y022425D01*
X029735Y022315D01*
X029632Y022418D02*
X007686Y022418D01*
X007686Y022536D02*
X029579Y022536D01*
X029566Y022655D02*
X007686Y022655D01*
X007686Y022773D02*
X029587Y022773D01*
X029651Y022892D02*
X007634Y022892D01*
X006647Y022002D02*
X006451Y022083D01*
X006240Y022083D01*
X006044Y022002D01*
X005894Y021852D01*
X005813Y021657D01*
X005813Y021445D01*
X005894Y021249D01*
X006044Y021099D01*
X006240Y021018D01*
X006451Y021018D01*
X006647Y021099D01*
X006797Y021249D01*
X006878Y021445D01*
X006878Y021657D01*
X006797Y021852D01*
X006647Y022002D01*
X006705Y021944D02*
X006969Y021944D01*
X006969Y022062D02*
X006502Y022062D01*
X006189Y022062D02*
X003458Y022062D01*
X003445Y022040D02*
X003580Y022273D01*
X003650Y022534D01*
X003650Y022804D01*
X003580Y023064D01*
X003445Y023298D01*
X003254Y023489D01*
X003020Y023624D01*
X002760Y023693D01*
X002490Y023693D01*
X002230Y023624D01*
X001996Y023489D01*
X001805Y023298D01*
X001670Y023064D01*
X001600Y022804D01*
X001600Y022534D01*
X001670Y022273D01*
X001805Y022040D01*
X001996Y021849D01*
X002230Y021714D01*
X002490Y021644D01*
X002760Y021644D01*
X003020Y021714D01*
X003254Y021849D01*
X003445Y022040D01*
X003349Y021944D02*
X005986Y021944D01*
X005883Y021825D02*
X003213Y021825D01*
X002994Y021707D02*
X005834Y021707D01*
X005813Y021588D02*
X001289Y021588D01*
X001289Y021470D02*
X005813Y021470D01*
X005852Y021351D02*
X001289Y021351D01*
X001289Y021233D02*
X005910Y021233D01*
X006029Y021114D02*
X001289Y021114D01*
X001289Y020996D02*
X006969Y020996D01*
X006969Y021114D02*
X006662Y021114D01*
X006781Y021233D02*
X006969Y021233D01*
X006969Y021351D02*
X006839Y021351D01*
X006878Y021470D02*
X006969Y021470D01*
X006969Y021588D02*
X006878Y021588D01*
X006857Y021707D02*
X006969Y021707D01*
X006969Y021825D02*
X006808Y021825D01*
X007686Y021825D02*
X029609Y021825D01*
X029625Y021866D02*
X029566Y021723D01*
X029566Y021568D01*
X029625Y021425D01*
X029735Y021315D01*
X029878Y021256D01*
X030033Y021256D01*
X030176Y021315D01*
X030286Y021425D01*
X030345Y021568D01*
X030345Y021723D01*
X030286Y021866D01*
X030176Y021975D01*
X030033Y022035D01*
X029878Y022035D01*
X029735Y021975D01*
X029625Y021866D01*
X029703Y021944D02*
X007686Y021944D01*
X007686Y022062D02*
X032556Y022062D01*
X032556Y021944D02*
X031208Y021944D01*
X031176Y021975D02*
X031033Y022035D01*
X030878Y022035D01*
X030735Y021975D01*
X030625Y021866D01*
X030566Y021723D01*
X030566Y021568D01*
X030625Y021425D01*
X030735Y021315D01*
X030878Y021256D01*
X031033Y021256D01*
X031176Y021315D01*
X031286Y021425D01*
X031345Y021568D01*
X031345Y021723D01*
X031286Y021866D01*
X031176Y021975D01*
X031303Y021825D02*
X032556Y021825D01*
X032556Y021707D02*
X031345Y021707D01*
X031345Y021588D02*
X032556Y021588D01*
X032556Y021470D02*
X031305Y021470D01*
X031213Y021351D02*
X032556Y021351D01*
X032556Y021233D02*
X013015Y021233D01*
X013015Y021246D02*
X012955Y021389D01*
X012846Y021499D01*
X012702Y021558D01*
X012548Y021558D01*
X012404Y021499D01*
X012295Y021389D01*
X012235Y021246D01*
X012235Y021091D01*
X012295Y020948D01*
X012404Y020839D01*
X012548Y020779D01*
X012702Y020779D01*
X012846Y020839D01*
X012955Y020948D01*
X013015Y021091D01*
X013015Y021246D01*
X012971Y021351D02*
X029699Y021351D01*
X029607Y021470D02*
X012875Y021470D01*
X013015Y021114D02*
X032556Y021114D01*
X032556Y020996D02*
X031127Y020996D01*
X031176Y020975D02*
X031033Y021035D01*
X030878Y021035D01*
X030735Y020975D01*
X030625Y020866D01*
X030566Y020723D01*
X030566Y020568D01*
X030625Y020425D01*
X030735Y020315D01*
X030878Y020256D01*
X031033Y020256D01*
X031176Y020315D01*
X031286Y020425D01*
X031345Y020568D01*
X031345Y020723D01*
X031286Y020866D01*
X031176Y020975D01*
X031274Y020877D02*
X032556Y020877D01*
X032556Y020759D02*
X031330Y020759D01*
X031345Y020640D02*
X032556Y020640D01*
X032556Y020522D02*
X031326Y020522D01*
X031265Y020403D02*
X032556Y020403D01*
X032556Y020285D02*
X031104Y020285D01*
X031033Y020035D02*
X030878Y020035D01*
X030735Y019975D01*
X030625Y019866D01*
X030566Y019723D01*
X030566Y019568D01*
X030625Y019425D01*
X030735Y019315D01*
X030878Y019256D01*
X031033Y019256D01*
X031176Y019315D01*
X031286Y019425D01*
X031345Y019568D01*
X031345Y019723D01*
X031286Y019866D01*
X031176Y019975D01*
X031033Y020035D01*
X031222Y019929D02*
X032556Y019929D01*
X032556Y019811D02*
X031309Y019811D01*
X031345Y019692D02*
X032556Y019692D01*
X032556Y019574D02*
X031345Y019574D01*
X031299Y019455D02*
X032556Y019455D01*
X032556Y019337D02*
X031198Y019337D01*
X031033Y019035D02*
X030878Y019035D01*
X030735Y018975D01*
X030625Y018866D01*
X030566Y018723D01*
X030566Y018568D01*
X030625Y018425D01*
X030735Y018315D01*
X030878Y018256D01*
X031033Y018256D01*
X031176Y018315D01*
X031286Y018425D01*
X031345Y018568D01*
X031345Y018723D01*
X031286Y018866D01*
X031176Y018975D01*
X031033Y019035D01*
X031162Y018981D02*
X032556Y018981D01*
X032556Y018863D02*
X031287Y018863D01*
X031336Y018744D02*
X032556Y018744D01*
X032556Y018626D02*
X031345Y018626D01*
X031320Y018507D02*
X032556Y018507D01*
X032556Y018389D02*
X031250Y018389D01*
X031069Y018270D02*
X032556Y018270D01*
X032556Y018152D02*
X007686Y018152D01*
X007686Y018270D02*
X029843Y018270D01*
X029878Y018256D02*
X029735Y018315D01*
X029625Y018425D01*
X029566Y018568D01*
X029566Y018723D01*
X029625Y018866D01*
X029735Y018975D01*
X029878Y019035D01*
X030033Y019035D01*
X030176Y018975D01*
X030286Y018866D01*
X030345Y018723D01*
X030345Y018568D01*
X030286Y018425D01*
X030176Y018315D01*
X030033Y018256D01*
X029878Y018256D01*
X030069Y018270D02*
X030843Y018270D01*
X030661Y018389D02*
X030250Y018389D01*
X030320Y018507D02*
X030591Y018507D01*
X030566Y018626D02*
X030345Y018626D01*
X030336Y018744D02*
X030575Y018744D01*
X030624Y018863D02*
X030287Y018863D01*
X030162Y018981D02*
X030749Y018981D01*
X030713Y019337D02*
X030198Y019337D01*
X030176Y019315D02*
X030286Y019425D01*
X030345Y019568D01*
X030345Y019723D01*
X030286Y019866D01*
X030176Y019975D01*
X030033Y020035D01*
X029878Y020035D01*
X029735Y019975D01*
X029625Y019866D01*
X029566Y019723D01*
X029566Y019568D01*
X029625Y019425D01*
X029735Y019315D01*
X029878Y019256D01*
X030033Y019256D01*
X030176Y019315D01*
X030299Y019455D02*
X030613Y019455D01*
X030566Y019574D02*
X030345Y019574D01*
X030345Y019692D02*
X030566Y019692D01*
X030603Y019811D02*
X030309Y019811D01*
X030222Y019929D02*
X030689Y019929D01*
X030808Y020285D02*
X030104Y020285D01*
X030033Y020256D02*
X030176Y020315D01*
X030286Y020425D01*
X030345Y020568D01*
X030345Y020723D01*
X030286Y020866D01*
X030176Y020975D01*
X030033Y021035D01*
X029878Y021035D01*
X029735Y020975D01*
X029625Y020866D01*
X029566Y020723D01*
X029566Y020568D01*
X029625Y020425D01*
X029735Y020315D01*
X029878Y020256D01*
X030033Y020256D01*
X029808Y020285D02*
X007686Y020285D01*
X007686Y020403D02*
X029647Y020403D01*
X029585Y020522D02*
X007686Y020522D01*
X007686Y020640D02*
X029566Y020640D01*
X029581Y020759D02*
X007686Y020759D01*
X007686Y020877D02*
X010366Y020877D01*
X010404Y020839D02*
X010548Y020779D01*
X010702Y020779D01*
X010846Y020839D01*
X010955Y020948D01*
X011015Y021091D01*
X011015Y021246D01*
X010955Y021389D01*
X010846Y021499D01*
X010702Y021558D01*
X010548Y021558D01*
X010404Y021499D01*
X010295Y021389D01*
X010235Y021246D01*
X010235Y021091D01*
X010295Y020948D01*
X010404Y020839D01*
X010275Y020996D02*
X007686Y020996D01*
X007686Y021114D02*
X010235Y021114D01*
X010235Y021233D02*
X007686Y021233D01*
X007686Y021351D02*
X010279Y021351D01*
X010375Y021470D02*
X007686Y021470D01*
X007686Y021588D02*
X029566Y021588D01*
X029566Y021707D02*
X007686Y021707D01*
X006969Y020877D02*
X001289Y020877D01*
X001289Y020759D02*
X006969Y020759D01*
X006969Y020640D02*
X001289Y020640D01*
X001289Y020522D02*
X006969Y020522D01*
X006969Y020403D02*
X001289Y020403D01*
X001289Y020285D02*
X006969Y020285D01*
X006969Y020166D02*
X001289Y020166D01*
X001289Y020048D02*
X006969Y020048D01*
X006969Y019929D02*
X001289Y019929D01*
X001289Y019811D02*
X006969Y019811D01*
X006969Y019692D02*
X001289Y019692D01*
X001289Y019574D02*
X006969Y019574D01*
X006969Y019455D02*
X001289Y019455D01*
X001289Y019337D02*
X006969Y019337D01*
X006969Y019218D02*
X001289Y019218D01*
X001289Y019100D02*
X006969Y019100D01*
X006969Y018981D02*
X005140Y018981D01*
X005192Y018929D02*
X005058Y019063D01*
X004869Y019063D01*
X004735Y018929D01*
X004735Y018739D01*
X004869Y018605D01*
X005058Y018605D01*
X005192Y018739D01*
X005192Y018929D01*
X005192Y018863D02*
X006969Y018863D01*
X006969Y018744D02*
X005192Y018744D01*
X005079Y018626D02*
X006969Y018626D01*
X006969Y018507D02*
X004075Y018507D01*
X004110Y018542D02*
X003976Y018408D01*
X003786Y018408D01*
X003652Y018542D01*
X003652Y018732D01*
X003786Y018866D01*
X003976Y018866D01*
X004110Y018732D01*
X004110Y018542D01*
X004110Y018626D02*
X004848Y018626D01*
X004735Y018744D02*
X004098Y018744D01*
X003979Y018863D02*
X004735Y018863D01*
X004787Y018981D02*
X001289Y018981D01*
X001289Y018863D02*
X003783Y018863D01*
X003664Y018744D02*
X001289Y018744D01*
X001289Y018626D02*
X003652Y018626D01*
X003687Y018507D02*
X001289Y018507D01*
X001289Y017796D02*
X005964Y017796D01*
X005916Y017748D02*
X006050Y017882D01*
X006239Y017882D01*
X006374Y017748D01*
X006374Y017558D01*
X006239Y017424D01*
X006050Y017424D01*
X005916Y017558D01*
X005916Y017748D01*
X005916Y017678D02*
X001289Y017678D01*
X001289Y017559D02*
X005916Y017559D01*
X006033Y017441D02*
X001289Y017441D01*
X001289Y017322D02*
X006969Y017322D01*
X006969Y017204D02*
X001289Y017204D01*
X001289Y017085D02*
X006969Y017085D01*
X006969Y016967D02*
X001289Y016967D01*
X001289Y016848D02*
X003934Y016848D01*
X003983Y016898D02*
X003849Y016764D01*
X003849Y016574D01*
X003983Y016440D01*
X004173Y016440D01*
X004307Y016574D01*
X004307Y016764D01*
X004173Y016898D01*
X003983Y016898D01*
X003849Y016730D02*
X001289Y016730D01*
X001289Y016611D02*
X003849Y016611D01*
X003930Y016493D02*
X001289Y016493D01*
X001289Y016374D02*
X006969Y016374D01*
X006969Y016256D02*
X001289Y016256D01*
X001289Y016137D02*
X006969Y016137D01*
X006969Y016019D02*
X001289Y016019D01*
X001289Y015900D02*
X001804Y015900D01*
X001818Y015913D02*
X001684Y015779D01*
X001684Y015590D01*
X001818Y015456D01*
X002007Y015456D01*
X002141Y015590D01*
X002141Y015779D01*
X002007Y015913D01*
X001818Y015913D01*
X001686Y015782D02*
X001289Y015782D01*
X001289Y015663D02*
X001684Y015663D01*
X001728Y015545D02*
X001289Y015545D01*
X001289Y015426D02*
X004406Y015426D01*
X004341Y015491D02*
X004475Y015357D01*
X004665Y015357D01*
X004799Y015491D01*
X004799Y015681D01*
X004665Y015815D01*
X004475Y015815D01*
X004341Y015681D01*
X004341Y015491D01*
X004341Y015545D02*
X002096Y015545D01*
X002141Y015663D02*
X004341Y015663D01*
X004442Y015782D02*
X002139Y015782D01*
X002020Y015900D02*
X006969Y015900D01*
X006969Y015782D02*
X004698Y015782D01*
X004799Y015663D02*
X006969Y015663D01*
X006969Y015545D02*
X004799Y015545D01*
X004734Y015426D02*
X006969Y015426D01*
X006969Y015308D02*
X001289Y015308D01*
X001289Y015189D02*
X006969Y015189D01*
X006969Y015071D02*
X001289Y015071D01*
X001289Y014952D02*
X006969Y014952D01*
X006969Y014834D02*
X001289Y014834D01*
X004225Y016493D02*
X006969Y016493D01*
X006969Y016611D02*
X004307Y016611D01*
X004307Y016730D02*
X006969Y016730D01*
X006969Y016848D02*
X004222Y016848D01*
X006256Y017441D02*
X006969Y017441D01*
X006969Y017559D02*
X006374Y017559D01*
X006374Y017678D02*
X006969Y017678D01*
X006969Y017796D02*
X006325Y017796D01*
X006969Y017915D02*
X001991Y017915D01*
X002060Y018033D02*
X006969Y018033D01*
X006969Y018152D02*
X002076Y018152D01*
X002061Y018270D02*
X006969Y018270D01*
X006969Y018389D02*
X001993Y018389D01*
X002256Y021707D02*
X001289Y021707D01*
X001289Y021825D02*
X002037Y021825D01*
X001901Y021944D02*
X001289Y021944D01*
X001289Y022062D02*
X001792Y022062D01*
X001724Y022181D02*
X001289Y022181D01*
X001289Y022299D02*
X001663Y022299D01*
X001632Y022418D02*
X001289Y022418D01*
X001289Y022536D02*
X001600Y022536D01*
X001600Y022655D02*
X001289Y022655D01*
X001296Y022773D02*
X001600Y022773D01*
X001624Y022892D02*
X001313Y022892D01*
X001345Y023010D02*
X001656Y023010D01*
X001708Y023129D02*
X001377Y023129D01*
X001429Y023247D02*
X001776Y023247D01*
X001873Y023366D02*
X001498Y023366D01*
X001567Y023484D02*
X001992Y023484D01*
X002194Y023603D02*
X001685Y023603D01*
X001804Y023721D02*
X004274Y023721D01*
X004284Y023603D02*
X003056Y023603D01*
X003258Y023484D02*
X004209Y023484D01*
X004209Y023366D02*
X003377Y023366D01*
X003474Y023247D02*
X004209Y023247D01*
X004209Y023129D02*
X003542Y023129D01*
X003594Y023010D02*
X004209Y023010D01*
X004209Y022892D02*
X003626Y022892D01*
X003650Y022773D02*
X004209Y022773D01*
X004209Y022655D02*
X003650Y022655D01*
X003650Y022536D02*
X004209Y022536D01*
X004209Y022418D02*
X003618Y022418D01*
X003587Y022299D02*
X004255Y022299D01*
X004306Y022212D02*
X004306Y022212D01*
X004306Y022212D01*
X004360Y022181D02*
X003526Y022181D01*
X004930Y023010D02*
X029819Y023010D01*
X030092Y023010D02*
X030819Y023010D01*
X030651Y022892D02*
X030260Y022892D01*
X030324Y022773D02*
X030587Y022773D01*
X030566Y022655D02*
X030345Y022655D01*
X030332Y022536D02*
X030579Y022536D01*
X030632Y022418D02*
X030279Y022418D01*
X030139Y022299D02*
X030773Y022299D01*
X030703Y021944D02*
X030208Y021944D01*
X030303Y021825D02*
X030609Y021825D01*
X030566Y021707D02*
X030345Y021707D01*
X030345Y021588D02*
X030566Y021588D01*
X030607Y021470D02*
X030305Y021470D01*
X030213Y021351D02*
X030699Y021351D01*
X030784Y020996D02*
X030127Y020996D01*
X030274Y020877D02*
X030637Y020877D01*
X030581Y020759D02*
X030330Y020759D01*
X030345Y020640D02*
X030566Y020640D01*
X030585Y020522D02*
X030326Y020522D01*
X030265Y020403D02*
X030647Y020403D01*
X029784Y020996D02*
X012975Y020996D01*
X012884Y020877D02*
X029637Y020877D01*
X029689Y019929D02*
X007686Y019929D01*
X007686Y019811D02*
X029603Y019811D01*
X029566Y019692D02*
X007686Y019692D01*
X007686Y019574D02*
X029566Y019574D01*
X029613Y019455D02*
X007686Y019455D01*
X007686Y019337D02*
X029713Y019337D01*
X029749Y018981D02*
X007686Y018981D01*
X007686Y018863D02*
X029624Y018863D01*
X029575Y018744D02*
X007686Y018744D01*
X007686Y018626D02*
X029566Y018626D01*
X029591Y018507D02*
X007686Y018507D01*
X007686Y018389D02*
X029661Y018389D01*
X029878Y018035D02*
X029735Y017975D01*
X029625Y017866D01*
X029566Y017723D01*
X029566Y017568D01*
X029625Y017425D01*
X029735Y017315D01*
X029878Y017256D01*
X030033Y017256D01*
X030176Y017315D01*
X030286Y017425D01*
X030345Y017568D01*
X030345Y017723D01*
X030286Y017866D01*
X030176Y017975D01*
X030033Y018035D01*
X029878Y018035D01*
X029875Y018033D02*
X007686Y018033D01*
X007686Y017915D02*
X029674Y017915D01*
X029597Y017796D02*
X027782Y017796D01*
X027830Y017748D02*
X027696Y017882D01*
X027507Y017882D01*
X027372Y017748D01*
X027372Y017558D01*
X027507Y017424D01*
X027696Y017424D01*
X027830Y017558D01*
X027830Y017748D01*
X027830Y017678D02*
X029566Y017678D01*
X029570Y017559D02*
X027830Y017559D01*
X027713Y017441D02*
X029619Y017441D01*
X029728Y017322D02*
X007686Y017322D01*
X007686Y017204D02*
X032556Y017204D01*
X032556Y017322D02*
X031184Y017322D01*
X031176Y017315D02*
X031286Y017425D01*
X031345Y017568D01*
X031345Y017723D01*
X031286Y017866D01*
X031176Y017975D01*
X031033Y018035D01*
X030878Y018035D01*
X030735Y017975D01*
X030625Y017866D01*
X030566Y017723D01*
X030566Y017568D01*
X030625Y017425D01*
X030735Y017315D01*
X030878Y017256D01*
X031033Y017256D01*
X031176Y017315D01*
X031293Y017441D02*
X032556Y017441D01*
X032556Y017559D02*
X031342Y017559D01*
X031345Y017678D02*
X032556Y017678D01*
X032556Y017796D02*
X031315Y017796D01*
X031237Y017915D02*
X032556Y017915D01*
X032556Y018033D02*
X031037Y018033D01*
X030875Y018033D02*
X030037Y018033D01*
X030237Y017915D02*
X030674Y017915D01*
X030597Y017796D02*
X030315Y017796D01*
X030345Y017678D02*
X030566Y017678D01*
X030570Y017559D02*
X030342Y017559D01*
X030293Y017441D02*
X030619Y017441D01*
X030728Y017322D02*
X030184Y017322D01*
X030033Y017035D02*
X029878Y017035D01*
X029735Y016975D01*
X029625Y016866D01*
X029566Y016723D01*
X029566Y016568D01*
X029625Y016425D01*
X029735Y016315D01*
X029878Y016256D01*
X007686Y016256D01*
X007686Y016374D02*
X029676Y016374D01*
X029597Y016493D02*
X007686Y016493D01*
X007686Y016611D02*
X029566Y016611D01*
X029569Y016730D02*
X007686Y016730D01*
X007686Y016848D02*
X029618Y016848D01*
X029726Y016967D02*
X007686Y016967D01*
X007686Y017085D02*
X032556Y017085D01*
X032556Y016967D02*
X031185Y016967D01*
X031176Y016975D02*
X031033Y017035D01*
X030878Y017035D01*
X030735Y016975D01*
X030625Y016866D01*
X030566Y016723D01*
X030566Y016568D01*
X030625Y016425D01*
X030735Y016315D01*
X030878Y016256D01*
X030034Y016256D01*
X030033Y016256D02*
X030176Y016315D01*
X030286Y016425D01*
X030345Y016568D01*
X030345Y016723D01*
X030286Y016866D01*
X030176Y016975D01*
X030033Y017035D01*
X030185Y016967D02*
X030726Y016967D01*
X030618Y016848D02*
X030293Y016848D01*
X030342Y016730D02*
X030569Y016730D01*
X030566Y016611D02*
X030345Y016611D01*
X030314Y016493D02*
X030597Y016493D01*
X030676Y016374D02*
X030236Y016374D01*
X030033Y016256D02*
X029878Y016256D01*
X029660Y015900D02*
X007686Y015900D01*
X007686Y015782D02*
X029591Y015782D01*
X029566Y015663D02*
X007686Y015663D01*
X007686Y015545D02*
X029576Y015545D01*
X029625Y015426D02*
X007686Y015426D01*
X007686Y015308D02*
X029752Y015308D01*
X029712Y014952D02*
X007686Y014952D01*
X007686Y014834D02*
X029612Y014834D01*
X029566Y014715D02*
X007686Y014715D01*
X007686Y014597D02*
X029566Y014597D01*
X029603Y014478D02*
X007686Y014478D01*
X007686Y014360D02*
X029690Y014360D01*
X030878Y016256D02*
X031033Y016256D01*
X031176Y016315D01*
X031286Y016425D01*
X031345Y016568D01*
X031345Y016723D01*
X031286Y016866D01*
X031176Y016975D01*
X031293Y016848D02*
X032556Y016848D01*
X032556Y016730D02*
X031342Y016730D01*
X031345Y016611D02*
X032556Y016611D01*
X032556Y016493D02*
X031314Y016493D01*
X031236Y016374D02*
X032556Y016374D01*
X032556Y016256D02*
X031034Y016256D01*
X032556Y015189D02*
X007686Y015189D01*
X007686Y015071D02*
X032556Y015071D01*
X033281Y018033D02*
X035559Y018033D01*
X035141Y019337D02*
X035022Y019337D01*
X034747Y019337D02*
X033281Y019337D01*
X033281Y019455D02*
X034656Y019455D01*
X035039Y019692D02*
X035124Y019692D01*
X033294Y019929D02*
X033281Y019929D01*
X032556Y020048D02*
X007686Y020048D01*
X007686Y020166D02*
X032556Y020166D01*
X033281Y020759D02*
X033325Y020759D01*
X033281Y021114D02*
X033396Y021114D01*
X032556Y019218D02*
X007686Y019218D01*
X007686Y019100D02*
X032556Y019100D01*
X027421Y017796D02*
X007686Y017796D01*
X007686Y017678D02*
X027372Y017678D01*
X027372Y017559D02*
X007686Y017559D01*
X007686Y017441D02*
X027490Y017441D01*
X022696Y011990D02*
X022554Y011990D01*
X022484Y011871D02*
X022766Y011871D01*
X021766Y011871D02*
X021484Y011871D01*
X021554Y011990D02*
X021696Y011990D01*
X022077Y008909D02*
X015902Y008909D01*
X016019Y008790D02*
X021959Y008790D01*
X021959Y008672D02*
X016019Y008672D01*
X015971Y008553D02*
X022007Y008553D01*
X029636Y005354D02*
X029770Y005219D01*
X030046Y005591D02*
X030862Y005591D01*
X030835Y005564D02*
X030787Y005449D01*
X030787Y005324D01*
X030835Y005209D01*
X030923Y005121D01*
X031039Y005073D01*
X031163Y005073D01*
X031279Y005121D01*
X031367Y005209D01*
X031415Y005324D01*
X031415Y005449D01*
X031367Y005564D01*
X031279Y005652D01*
X031163Y005700D01*
X031039Y005700D01*
X030923Y005652D01*
X030835Y005564D01*
X030797Y005472D02*
X030263Y005472D01*
X030382Y005354D02*
X030787Y005354D01*
X030824Y005235D02*
X030599Y005235D01*
X030685Y005117D02*
X030932Y005117D01*
X030934Y004998D02*
X033928Y004998D01*
X033869Y005117D02*
X031270Y005117D01*
X031378Y005235D02*
X033869Y005235D01*
X033974Y005354D02*
X031415Y005354D01*
X031405Y005472D02*
X036617Y005472D01*
X036600Y005591D02*
X031340Y005591D01*
X030192Y005828D02*
X034379Y005828D01*
X034361Y005846D02*
X034495Y005712D01*
X034684Y005712D01*
X034818Y005846D01*
X034818Y006035D01*
X034684Y006169D01*
X034495Y006169D01*
X034361Y006035D01*
X034361Y005846D01*
X034361Y005946D02*
X030183Y005946D01*
X030065Y006065D02*
X034390Y006065D01*
X034789Y006065D02*
X036671Y006065D01*
X036639Y005946D02*
X034818Y005946D01*
X034801Y005828D02*
X036607Y005828D01*
X036600Y005709D02*
X030155Y005709D01*
X031323Y007013D02*
X013938Y007013D01*
X014051Y007131D02*
X031211Y007131D01*
X031556Y007013D02*
X033422Y007013D01*
X033496Y007131D02*
X031669Y007131D01*
X031669Y007250D02*
X031677Y007250D01*
X031990Y007250D02*
X033631Y007250D01*
X034178Y007250D02*
X038961Y007250D01*
X038961Y007368D02*
X032063Y007368D01*
X032063Y007487D02*
X038961Y007487D01*
X038961Y007605D02*
X032051Y007605D01*
X032161Y007724D02*
X038961Y007724D01*
X038961Y007842D02*
X032161Y007842D01*
X030192Y008553D02*
X038961Y008553D01*
X038961Y008435D02*
X030124Y008435D01*
X030192Y008672D02*
X038961Y008672D01*
X038961Y008790D02*
X030095Y008790D01*
X034313Y007131D02*
X038961Y007131D01*
X038961Y007013D02*
X034387Y007013D01*
X034436Y006894D02*
X038961Y006894D01*
X038961Y006776D02*
X034437Y006776D01*
X034220Y005354D02*
X036649Y005354D01*
X036692Y005235D02*
X034326Y005235D01*
X038066Y009383D02*
X038961Y009383D01*
X038961Y009501D02*
X038045Y009501D01*
X035312Y023010D02*
X031092Y023010D01*
X035312Y023129D02*
X004930Y023129D01*
X004930Y023247D02*
X035312Y023247D01*
X035312Y023366D02*
X004930Y023366D01*
X004930Y023484D02*
X035312Y023484D01*
X035387Y023603D02*
X004856Y023603D01*
X004866Y023721D02*
X035376Y023721D01*
X035312Y023840D02*
X004930Y023840D01*
X004930Y023958D02*
X035312Y023958D01*
X012375Y021470D02*
X011875Y021470D01*
X011846Y021499D02*
X011702Y021558D01*
X011548Y021558D01*
X011404Y021499D01*
X011295Y021389D01*
X011235Y021246D01*
X011235Y021091D01*
X011295Y020948D01*
X011404Y020839D01*
X011548Y020779D01*
X011702Y020779D01*
X011846Y020839D01*
X011955Y020948D01*
X012015Y021091D01*
X012015Y021246D01*
X011955Y021389D01*
X011846Y021499D01*
X011971Y021351D02*
X012279Y021351D01*
X012235Y021233D02*
X012015Y021233D01*
X012015Y021114D02*
X012235Y021114D01*
X012275Y020996D02*
X011975Y020996D01*
X011884Y020877D02*
X012366Y020877D01*
X011366Y020877D02*
X010884Y020877D01*
X010975Y020996D02*
X011275Y020996D01*
X011235Y021114D02*
X011015Y021114D01*
X011015Y021233D02*
X011235Y021233D01*
X011279Y021351D02*
X010971Y021351D01*
X010875Y021470D02*
X011375Y021470D01*
X004209Y023840D02*
X002004Y023840D01*
X002319Y023958D02*
X004209Y023958D01*
D15*
X008125Y012169D03*
X009125Y012169D03*
X010125Y012169D03*
X011125Y012169D03*
X012125Y012169D03*
X013125Y012169D03*
X014125Y012169D03*
X015125Y012169D03*
X016125Y012169D03*
X017125Y012169D03*
X018125Y012169D03*
X019125Y012169D03*
X020125Y012169D03*
X021125Y012169D03*
X022125Y012169D03*
X023125Y012169D03*
M02*
