G75*
%MOIN*%
%OFA0B0*%
%FSLAX24Y24*%
%IPPOS*%
%LPD*%
%AMOC8*
5,1,8,0,0,1.08239X$1,22.5*
%
%ADD10C,0.0050*%
%ADD11C,0.0000*%
%ADD12C,0.0060*%
%ADD13C,0.0281*%
%ADD14C,0.0354*%
%ADD15R,0.1560X0.1560*%
%ADD16R,0.1250X0.1250*%
%ADD17C,0.0740*%
%ADD18R,0.0500X0.0250*%
%ADD19R,0.0472X0.0591*%
%ADD20R,0.0591X0.0591*%
%ADD21R,0.0200X0.0500*%
%ADD22OC8,0.0740*%
%ADD23R,0.1260X0.0500*%
%ADD24R,0.0600X0.1600*%
%ADD25R,0.0740X0.0740*%
%ADD26C,0.0279*%
%ADD27C,0.0120*%
%ADD28C,0.0160*%
%ADD29R,0.0750X0.0750*%
%ADD30C,0.0750*%
%ADD31C,0.0500*%
%ADD32C,0.0080*%
%ADD33C,0.0318*%
%ADD34C,0.0059*%
%ADD35C,0.0157*%
D10*
X002625Y004169D02*
X037625Y004169D01*
X037701Y004171D01*
X037777Y004177D01*
X037852Y004186D01*
X037927Y004200D01*
X038001Y004217D01*
X038074Y004238D01*
X038146Y004262D01*
X038217Y004291D01*
X038286Y004322D01*
X038353Y004357D01*
X038418Y004396D01*
X038482Y004438D01*
X038543Y004483D01*
X038602Y004531D01*
X038658Y004582D01*
X038712Y004636D01*
X038763Y004692D01*
X038811Y004751D01*
X038856Y004812D01*
X038898Y004876D01*
X038937Y004941D01*
X038972Y005008D01*
X039003Y005077D01*
X039032Y005148D01*
X039056Y005220D01*
X039077Y005293D01*
X039094Y005367D01*
X039108Y005442D01*
X039117Y005517D01*
X039123Y005593D01*
X039125Y005669D01*
X039125Y017976D01*
X038515Y017976D01*
X038490Y017978D01*
X038465Y017983D01*
X038441Y017992D01*
X038419Y018004D01*
X038399Y018019D01*
X038381Y018037D01*
X038366Y018057D01*
X038354Y018079D01*
X038345Y018103D01*
X038340Y018128D01*
X038338Y018153D01*
X038340Y018178D01*
X038345Y018203D01*
X038354Y018227D01*
X038366Y018249D01*
X038381Y018269D01*
X038399Y018287D01*
X038419Y018302D01*
X038441Y018314D01*
X038465Y018323D01*
X038490Y018328D01*
X038515Y018330D01*
X039125Y018330D01*
X039125Y022669D01*
X039123Y022745D01*
X039117Y022821D01*
X039108Y022896D01*
X039094Y022971D01*
X039077Y023045D01*
X039056Y023118D01*
X039032Y023190D01*
X039003Y023261D01*
X038972Y023330D01*
X038937Y023397D01*
X038898Y023462D01*
X038856Y023526D01*
X038811Y023587D01*
X038763Y023646D01*
X038712Y023702D01*
X038658Y023756D01*
X038602Y023807D01*
X038543Y023855D01*
X038482Y023900D01*
X038418Y023942D01*
X038353Y023981D01*
X038286Y024016D01*
X038217Y024047D01*
X038146Y024076D01*
X038074Y024100D01*
X038001Y024121D01*
X037927Y024138D01*
X037852Y024152D01*
X037777Y024161D01*
X037701Y024167D01*
X037625Y024169D01*
X035869Y024169D01*
X035869Y023854D01*
X035475Y023854D01*
X035475Y024149D01*
X004767Y024149D01*
X004767Y023854D01*
X004373Y023854D01*
X004373Y024169D01*
X002625Y024169D01*
X002549Y024167D01*
X002473Y024161D01*
X002398Y024152D01*
X002323Y024138D01*
X002249Y024121D01*
X002176Y024100D01*
X002104Y024076D01*
X002033Y024047D01*
X001964Y024016D01*
X001897Y023981D01*
X001832Y023942D01*
X001768Y023900D01*
X001707Y023855D01*
X001648Y023807D01*
X001592Y023756D01*
X001538Y023702D01*
X001487Y023646D01*
X001439Y023587D01*
X001394Y023526D01*
X001352Y023462D01*
X001313Y023397D01*
X001278Y023330D01*
X001247Y023261D01*
X001218Y023190D01*
X001194Y023118D01*
X001173Y023045D01*
X001156Y022971D01*
X001142Y022896D01*
X001133Y022821D01*
X001127Y022745D01*
X001125Y022669D01*
X001125Y018330D01*
X001735Y018330D01*
X001760Y018328D01*
X001785Y018323D01*
X001809Y018314D01*
X001831Y018302D01*
X001851Y018287D01*
X001869Y018269D01*
X001884Y018249D01*
X001896Y018227D01*
X001905Y018203D01*
X001910Y018178D01*
X001912Y018153D01*
X001910Y018128D01*
X001905Y018103D01*
X001896Y018079D01*
X001884Y018057D01*
X001869Y018037D01*
X001851Y018019D01*
X001831Y018004D01*
X001809Y017992D01*
X001785Y017983D01*
X001760Y017978D01*
X001735Y017976D01*
X001125Y017976D01*
X001125Y005669D01*
X001127Y005593D01*
X001133Y005517D01*
X001142Y005442D01*
X001156Y005367D01*
X001173Y005293D01*
X001194Y005220D01*
X001218Y005148D01*
X001247Y005077D01*
X001278Y005008D01*
X001313Y004941D01*
X001352Y004876D01*
X001394Y004812D01*
X001439Y004751D01*
X001487Y004692D01*
X001538Y004636D01*
X001592Y004582D01*
X001648Y004531D01*
X001707Y004483D01*
X001768Y004438D01*
X001832Y004396D01*
X001897Y004357D01*
X001964Y004322D01*
X002033Y004291D01*
X002104Y004262D01*
X002176Y004238D01*
X002249Y004217D01*
X002323Y004200D01*
X002398Y004186D01*
X002473Y004177D01*
X002549Y004171D01*
X002625Y004169D01*
X007330Y012169D02*
X032920Y012169D01*
X032946Y012171D01*
X032971Y012176D01*
X032995Y012184D01*
X033019Y012195D01*
X033040Y012210D01*
X033059Y012227D01*
X033076Y012246D01*
X033091Y012268D01*
X033102Y012291D01*
X033110Y012315D01*
X033115Y012340D01*
X033117Y012366D01*
X033117Y013027D01*
X032719Y013027D01*
X032719Y012732D01*
X007523Y012732D01*
X007523Y013027D01*
X007133Y013027D01*
X007133Y012366D01*
X007135Y012340D01*
X007140Y012315D01*
X007148Y012291D01*
X007159Y012268D01*
X007174Y012246D01*
X007191Y012227D01*
X007210Y012210D01*
X007232Y012195D01*
X007255Y012184D01*
X007279Y012176D01*
X007304Y012171D01*
X007330Y012169D01*
X007523Y013421D02*
X007133Y013421D01*
X007133Y022082D01*
X007131Y022108D01*
X007126Y022133D01*
X007118Y022157D01*
X007107Y022181D01*
X007092Y022202D01*
X007075Y022221D01*
X007056Y022238D01*
X007035Y022253D01*
X007011Y022264D01*
X006987Y022272D01*
X006962Y022277D01*
X006936Y022279D01*
X004570Y022279D01*
X004544Y022281D01*
X004519Y022286D01*
X004495Y022294D01*
X004472Y022305D01*
X004450Y022320D01*
X004431Y022337D01*
X004414Y022356D01*
X004399Y022378D01*
X004388Y022401D01*
X004380Y022425D01*
X004375Y022450D01*
X004373Y022476D01*
X004373Y023460D01*
X004767Y023460D01*
X004767Y022771D01*
X007523Y022771D01*
X007523Y013421D01*
X032719Y013421D02*
X033117Y013421D01*
X033117Y022082D01*
X033119Y022108D01*
X033124Y022133D01*
X033132Y022157D01*
X033143Y022181D01*
X033158Y022202D01*
X033175Y022221D01*
X033194Y022238D01*
X033216Y022253D01*
X033239Y022264D01*
X033263Y022272D01*
X033288Y022277D01*
X033314Y022279D01*
X035672Y022279D01*
X035698Y022281D01*
X035723Y022286D01*
X035747Y022294D01*
X035771Y022305D01*
X035792Y022320D01*
X035811Y022337D01*
X035828Y022356D01*
X035843Y022378D01*
X035854Y022401D01*
X035862Y022425D01*
X035867Y022450D01*
X035869Y022476D01*
X035869Y023460D01*
X035475Y023460D01*
X035475Y022673D01*
X032719Y022673D01*
X032719Y013421D01*
D11*
X033511Y006787D02*
X033513Y006826D01*
X033519Y006865D01*
X033529Y006903D01*
X033542Y006940D01*
X033559Y006975D01*
X033579Y007009D01*
X033603Y007040D01*
X033630Y007069D01*
X033659Y007095D01*
X033691Y007118D01*
X033725Y007138D01*
X033761Y007154D01*
X033798Y007166D01*
X033837Y007175D01*
X033876Y007180D01*
X033915Y007181D01*
X033954Y007178D01*
X033993Y007171D01*
X034030Y007160D01*
X034067Y007146D01*
X034102Y007128D01*
X034135Y007107D01*
X034166Y007082D01*
X034194Y007055D01*
X034219Y007025D01*
X034241Y006992D01*
X034260Y006958D01*
X034275Y006922D01*
X034287Y006884D01*
X034295Y006846D01*
X034299Y006807D01*
X034299Y006767D01*
X034295Y006728D01*
X034287Y006690D01*
X034275Y006652D01*
X034260Y006616D01*
X034241Y006582D01*
X034219Y006549D01*
X034194Y006519D01*
X034166Y006492D01*
X034135Y006467D01*
X034102Y006446D01*
X034067Y006428D01*
X034030Y006414D01*
X033993Y006403D01*
X033954Y006396D01*
X033915Y006393D01*
X033876Y006394D01*
X033837Y006399D01*
X033798Y006408D01*
X033761Y006420D01*
X033725Y006436D01*
X033691Y006456D01*
X033659Y006479D01*
X033630Y006505D01*
X033603Y006534D01*
X033579Y006565D01*
X033559Y006599D01*
X033542Y006634D01*
X033529Y006671D01*
X033519Y006709D01*
X033513Y006748D01*
X033511Y006787D01*
X030926Y005387D02*
X030928Y005413D01*
X030934Y005439D01*
X030943Y005463D01*
X030956Y005486D01*
X030973Y005506D01*
X030992Y005524D01*
X031014Y005539D01*
X031037Y005550D01*
X031062Y005558D01*
X031088Y005562D01*
X031114Y005562D01*
X031140Y005558D01*
X031165Y005550D01*
X031189Y005539D01*
X031210Y005524D01*
X031229Y005506D01*
X031246Y005486D01*
X031259Y005463D01*
X031268Y005439D01*
X031274Y005413D01*
X031276Y005387D01*
X031274Y005361D01*
X031268Y005335D01*
X031259Y005311D01*
X031246Y005288D01*
X031229Y005268D01*
X031210Y005250D01*
X031188Y005235D01*
X031165Y005224D01*
X031140Y005216D01*
X031114Y005212D01*
X031088Y005212D01*
X031062Y005216D01*
X031037Y005224D01*
X031013Y005235D01*
X030992Y005250D01*
X030973Y005268D01*
X030956Y005288D01*
X030943Y005311D01*
X030934Y005335D01*
X030928Y005361D01*
X030926Y005387D01*
X027776Y005387D02*
X027778Y005413D01*
X027784Y005439D01*
X027793Y005463D01*
X027806Y005486D01*
X027823Y005506D01*
X027842Y005524D01*
X027864Y005539D01*
X027887Y005550D01*
X027912Y005558D01*
X027938Y005562D01*
X027964Y005562D01*
X027990Y005558D01*
X028015Y005550D01*
X028039Y005539D01*
X028060Y005524D01*
X028079Y005506D01*
X028096Y005486D01*
X028109Y005463D01*
X028118Y005439D01*
X028124Y005413D01*
X028126Y005387D01*
X028124Y005361D01*
X028118Y005335D01*
X028109Y005311D01*
X028096Y005288D01*
X028079Y005268D01*
X028060Y005250D01*
X028038Y005235D01*
X028015Y005224D01*
X027990Y005216D01*
X027964Y005212D01*
X027938Y005212D01*
X027912Y005216D01*
X027887Y005224D01*
X027863Y005235D01*
X027842Y005250D01*
X027823Y005268D01*
X027806Y005288D01*
X027793Y005311D01*
X027784Y005335D01*
X027778Y005361D01*
X027776Y005387D01*
X036739Y005669D02*
X036741Y005728D01*
X036747Y005787D01*
X036757Y005845D01*
X036770Y005903D01*
X036788Y005960D01*
X036809Y006015D01*
X036834Y006069D01*
X036863Y006121D01*
X036895Y006170D01*
X036930Y006218D01*
X036968Y006263D01*
X037009Y006306D01*
X037053Y006346D01*
X037099Y006382D01*
X037148Y006416D01*
X037199Y006446D01*
X037252Y006473D01*
X037307Y006496D01*
X037362Y006515D01*
X037420Y006531D01*
X037478Y006543D01*
X037536Y006551D01*
X037595Y006555D01*
X037655Y006555D01*
X037714Y006551D01*
X037772Y006543D01*
X037830Y006531D01*
X037888Y006515D01*
X037943Y006496D01*
X037998Y006473D01*
X038051Y006446D01*
X038102Y006416D01*
X038151Y006382D01*
X038197Y006346D01*
X038241Y006306D01*
X038282Y006263D01*
X038320Y006218D01*
X038355Y006170D01*
X038387Y006121D01*
X038416Y006069D01*
X038441Y006015D01*
X038462Y005960D01*
X038480Y005903D01*
X038493Y005845D01*
X038503Y005787D01*
X038509Y005728D01*
X038511Y005669D01*
X038509Y005610D01*
X038503Y005551D01*
X038493Y005493D01*
X038480Y005435D01*
X038462Y005378D01*
X038441Y005323D01*
X038416Y005269D01*
X038387Y005217D01*
X038355Y005168D01*
X038320Y005120D01*
X038282Y005075D01*
X038241Y005032D01*
X038197Y004992D01*
X038151Y004956D01*
X038102Y004922D01*
X038051Y004892D01*
X037998Y004865D01*
X037943Y004842D01*
X037888Y004823D01*
X037830Y004807D01*
X037772Y004795D01*
X037714Y004787D01*
X037655Y004783D01*
X037595Y004783D01*
X037536Y004787D01*
X037478Y004795D01*
X037420Y004807D01*
X037362Y004823D01*
X037307Y004842D01*
X037252Y004865D01*
X037199Y004892D01*
X037148Y004922D01*
X037099Y004956D01*
X037053Y004992D01*
X037009Y005032D01*
X036968Y005075D01*
X036930Y005120D01*
X036895Y005168D01*
X036863Y005217D01*
X036834Y005269D01*
X036809Y005323D01*
X036788Y005378D01*
X036770Y005435D01*
X036757Y005493D01*
X036747Y005551D01*
X036741Y005610D01*
X036739Y005669D01*
X016066Y013322D02*
X016068Y013347D01*
X016074Y013372D01*
X016083Y013396D01*
X016096Y013418D01*
X016113Y013438D01*
X016132Y013455D01*
X016153Y013469D01*
X016177Y013479D01*
X016201Y013486D01*
X016227Y013489D01*
X016252Y013488D01*
X016277Y013483D01*
X016301Y013474D01*
X016324Y013462D01*
X016344Y013447D01*
X016362Y013428D01*
X016377Y013407D01*
X016388Y013384D01*
X016396Y013360D01*
X016400Y013335D01*
X016400Y013309D01*
X016396Y013284D01*
X016388Y013260D01*
X016377Y013237D01*
X016362Y013216D01*
X016344Y013197D01*
X016324Y013182D01*
X016301Y013170D01*
X016277Y013161D01*
X016252Y013156D01*
X016227Y013155D01*
X016201Y013158D01*
X016177Y013165D01*
X016153Y013175D01*
X016132Y013189D01*
X016113Y013206D01*
X016096Y013226D01*
X016083Y013248D01*
X016074Y013272D01*
X016068Y013297D01*
X016066Y013322D01*
X009589Y014129D02*
X009591Y014156D01*
X009597Y014183D01*
X009606Y014209D01*
X009619Y014233D01*
X009635Y014256D01*
X009654Y014275D01*
X009676Y014292D01*
X009700Y014306D01*
X009725Y014316D01*
X009752Y014323D01*
X009779Y014326D01*
X009807Y014325D01*
X009834Y014320D01*
X009860Y014312D01*
X009884Y014300D01*
X009907Y014284D01*
X009928Y014266D01*
X009945Y014245D01*
X009960Y014221D01*
X009971Y014196D01*
X009979Y014170D01*
X009983Y014143D01*
X009983Y014115D01*
X009979Y014088D01*
X009971Y014062D01*
X009960Y014037D01*
X009945Y014013D01*
X009928Y013992D01*
X009907Y013974D01*
X009885Y013958D01*
X009860Y013946D01*
X009834Y013938D01*
X009807Y013933D01*
X009779Y013932D01*
X009752Y013935D01*
X009725Y013942D01*
X009700Y013952D01*
X009676Y013966D01*
X009654Y013983D01*
X009635Y014002D01*
X009619Y014025D01*
X009606Y014049D01*
X009597Y014075D01*
X009591Y014102D01*
X009589Y014129D01*
X009589Y015862D02*
X009591Y015889D01*
X009597Y015916D01*
X009606Y015942D01*
X009619Y015966D01*
X009635Y015989D01*
X009654Y016008D01*
X009676Y016025D01*
X009700Y016039D01*
X009725Y016049D01*
X009752Y016056D01*
X009779Y016059D01*
X009807Y016058D01*
X009834Y016053D01*
X009860Y016045D01*
X009884Y016033D01*
X009907Y016017D01*
X009928Y015999D01*
X009945Y015978D01*
X009960Y015954D01*
X009971Y015929D01*
X009979Y015903D01*
X009983Y015876D01*
X009983Y015848D01*
X009979Y015821D01*
X009971Y015795D01*
X009960Y015770D01*
X009945Y015746D01*
X009928Y015725D01*
X009907Y015707D01*
X009885Y015691D01*
X009860Y015679D01*
X009834Y015671D01*
X009807Y015666D01*
X009779Y015665D01*
X009752Y015668D01*
X009725Y015675D01*
X009700Y015685D01*
X009676Y015699D01*
X009654Y015716D01*
X009635Y015735D01*
X009619Y015758D01*
X009606Y015782D01*
X009597Y015808D01*
X009591Y015835D01*
X009589Y015862D01*
X011982Y018342D02*
X011984Y018367D01*
X011990Y018392D01*
X011999Y018416D01*
X012012Y018438D01*
X012029Y018458D01*
X012048Y018475D01*
X012069Y018489D01*
X012093Y018499D01*
X012117Y018506D01*
X012143Y018509D01*
X012168Y018508D01*
X012193Y018503D01*
X012217Y018494D01*
X012240Y018482D01*
X012260Y018467D01*
X012278Y018448D01*
X012293Y018427D01*
X012304Y018404D01*
X012312Y018380D01*
X012316Y018355D01*
X012316Y018329D01*
X012312Y018304D01*
X012304Y018280D01*
X012293Y018257D01*
X012278Y018236D01*
X012260Y018217D01*
X012240Y018202D01*
X012217Y018190D01*
X012193Y018181D01*
X012168Y018176D01*
X012143Y018175D01*
X012117Y018178D01*
X012093Y018185D01*
X012069Y018195D01*
X012048Y018209D01*
X012029Y018226D01*
X012012Y018246D01*
X011999Y018268D01*
X011990Y018292D01*
X011984Y018317D01*
X011982Y018342D01*
X005951Y021551D02*
X005953Y021590D01*
X005959Y021629D01*
X005969Y021667D01*
X005982Y021704D01*
X005999Y021739D01*
X006019Y021773D01*
X006043Y021804D01*
X006070Y021833D01*
X006099Y021859D01*
X006131Y021882D01*
X006165Y021902D01*
X006201Y021918D01*
X006238Y021930D01*
X006277Y021939D01*
X006316Y021944D01*
X006355Y021945D01*
X006394Y021942D01*
X006433Y021935D01*
X006470Y021924D01*
X006507Y021910D01*
X006542Y021892D01*
X006575Y021871D01*
X006606Y021846D01*
X006634Y021819D01*
X006659Y021789D01*
X006681Y021756D01*
X006700Y021722D01*
X006715Y021686D01*
X006727Y021648D01*
X006735Y021610D01*
X006739Y021571D01*
X006739Y021531D01*
X006735Y021492D01*
X006727Y021454D01*
X006715Y021416D01*
X006700Y021380D01*
X006681Y021346D01*
X006659Y021313D01*
X006634Y021283D01*
X006606Y021256D01*
X006575Y021231D01*
X006542Y021210D01*
X006507Y021192D01*
X006470Y021178D01*
X006433Y021167D01*
X006394Y021160D01*
X006355Y021157D01*
X006316Y021158D01*
X006277Y021163D01*
X006238Y021172D01*
X006201Y021184D01*
X006165Y021200D01*
X006131Y021220D01*
X006099Y021243D01*
X006070Y021269D01*
X006043Y021298D01*
X006019Y021329D01*
X005999Y021363D01*
X005982Y021398D01*
X005969Y021435D01*
X005959Y021473D01*
X005953Y021512D01*
X005951Y021551D01*
X001739Y022669D02*
X001741Y022728D01*
X001747Y022787D01*
X001757Y022845D01*
X001770Y022903D01*
X001788Y022960D01*
X001809Y023015D01*
X001834Y023069D01*
X001863Y023121D01*
X001895Y023170D01*
X001930Y023218D01*
X001968Y023263D01*
X002009Y023306D01*
X002053Y023346D01*
X002099Y023382D01*
X002148Y023416D01*
X002199Y023446D01*
X002252Y023473D01*
X002307Y023496D01*
X002362Y023515D01*
X002420Y023531D01*
X002478Y023543D01*
X002536Y023551D01*
X002595Y023555D01*
X002655Y023555D01*
X002714Y023551D01*
X002772Y023543D01*
X002830Y023531D01*
X002888Y023515D01*
X002943Y023496D01*
X002998Y023473D01*
X003051Y023446D01*
X003102Y023416D01*
X003151Y023382D01*
X003197Y023346D01*
X003241Y023306D01*
X003282Y023263D01*
X003320Y023218D01*
X003355Y023170D01*
X003387Y023121D01*
X003416Y023069D01*
X003441Y023015D01*
X003462Y022960D01*
X003480Y022903D01*
X003493Y022845D01*
X003503Y022787D01*
X003509Y022728D01*
X003511Y022669D01*
X003509Y022610D01*
X003503Y022551D01*
X003493Y022493D01*
X003480Y022435D01*
X003462Y022378D01*
X003441Y022323D01*
X003416Y022269D01*
X003387Y022217D01*
X003355Y022168D01*
X003320Y022120D01*
X003282Y022075D01*
X003241Y022032D01*
X003197Y021992D01*
X003151Y021956D01*
X003102Y021922D01*
X003051Y021892D01*
X002998Y021865D01*
X002943Y021842D01*
X002888Y021823D01*
X002830Y021807D01*
X002772Y021795D01*
X002714Y021787D01*
X002655Y021783D01*
X002595Y021783D01*
X002536Y021787D01*
X002478Y021795D01*
X002420Y021807D01*
X002362Y021823D01*
X002307Y021842D01*
X002252Y021865D01*
X002199Y021892D01*
X002148Y021922D01*
X002099Y021956D01*
X002053Y021992D01*
X002009Y022032D01*
X001968Y022075D01*
X001930Y022120D01*
X001895Y022168D01*
X001863Y022217D01*
X001834Y022269D01*
X001809Y022323D01*
X001788Y022378D01*
X001770Y022435D01*
X001757Y022493D01*
X001747Y022551D01*
X001741Y022610D01*
X001739Y022669D01*
X005951Y006787D02*
X005953Y006826D01*
X005959Y006865D01*
X005969Y006903D01*
X005982Y006940D01*
X005999Y006975D01*
X006019Y007009D01*
X006043Y007040D01*
X006070Y007069D01*
X006099Y007095D01*
X006131Y007118D01*
X006165Y007138D01*
X006201Y007154D01*
X006238Y007166D01*
X006277Y007175D01*
X006316Y007180D01*
X006355Y007181D01*
X006394Y007178D01*
X006433Y007171D01*
X006470Y007160D01*
X006507Y007146D01*
X006542Y007128D01*
X006575Y007107D01*
X006606Y007082D01*
X006634Y007055D01*
X006659Y007025D01*
X006681Y006992D01*
X006700Y006958D01*
X006715Y006922D01*
X006727Y006884D01*
X006735Y006846D01*
X006739Y006807D01*
X006739Y006767D01*
X006735Y006728D01*
X006727Y006690D01*
X006715Y006652D01*
X006700Y006616D01*
X006681Y006582D01*
X006659Y006549D01*
X006634Y006519D01*
X006606Y006492D01*
X006575Y006467D01*
X006542Y006446D01*
X006507Y006428D01*
X006470Y006414D01*
X006433Y006403D01*
X006394Y006396D01*
X006355Y006393D01*
X006316Y006394D01*
X006277Y006399D01*
X006238Y006408D01*
X006201Y006420D01*
X006165Y006436D01*
X006131Y006456D01*
X006099Y006479D01*
X006070Y006505D01*
X006043Y006534D01*
X006019Y006565D01*
X005999Y006599D01*
X005982Y006634D01*
X005969Y006671D01*
X005959Y006709D01*
X005953Y006748D01*
X005951Y006787D01*
X001739Y005669D02*
X001741Y005728D01*
X001747Y005787D01*
X001757Y005845D01*
X001770Y005903D01*
X001788Y005960D01*
X001809Y006015D01*
X001834Y006069D01*
X001863Y006121D01*
X001895Y006170D01*
X001930Y006218D01*
X001968Y006263D01*
X002009Y006306D01*
X002053Y006346D01*
X002099Y006382D01*
X002148Y006416D01*
X002199Y006446D01*
X002252Y006473D01*
X002307Y006496D01*
X002362Y006515D01*
X002420Y006531D01*
X002478Y006543D01*
X002536Y006551D01*
X002595Y006555D01*
X002655Y006555D01*
X002714Y006551D01*
X002772Y006543D01*
X002830Y006531D01*
X002888Y006515D01*
X002943Y006496D01*
X002998Y006473D01*
X003051Y006446D01*
X003102Y006416D01*
X003151Y006382D01*
X003197Y006346D01*
X003241Y006306D01*
X003282Y006263D01*
X003320Y006218D01*
X003355Y006170D01*
X003387Y006121D01*
X003416Y006069D01*
X003441Y006015D01*
X003462Y005960D01*
X003480Y005903D01*
X003493Y005845D01*
X003503Y005787D01*
X003509Y005728D01*
X003511Y005669D01*
X003509Y005610D01*
X003503Y005551D01*
X003493Y005493D01*
X003480Y005435D01*
X003462Y005378D01*
X003441Y005323D01*
X003416Y005269D01*
X003387Y005217D01*
X003355Y005168D01*
X003320Y005120D01*
X003282Y005075D01*
X003241Y005032D01*
X003197Y004992D01*
X003151Y004956D01*
X003102Y004922D01*
X003051Y004892D01*
X002998Y004865D01*
X002943Y004842D01*
X002888Y004823D01*
X002830Y004807D01*
X002772Y004795D01*
X002714Y004787D01*
X002655Y004783D01*
X002595Y004783D01*
X002536Y004787D01*
X002478Y004795D01*
X002420Y004807D01*
X002362Y004823D01*
X002307Y004842D01*
X002252Y004865D01*
X002199Y004892D01*
X002148Y004922D01*
X002099Y004956D01*
X002053Y004992D01*
X002009Y005032D01*
X001968Y005075D01*
X001930Y005120D01*
X001895Y005168D01*
X001863Y005217D01*
X001834Y005269D01*
X001809Y005323D01*
X001788Y005378D01*
X001770Y005435D01*
X001757Y005493D01*
X001747Y005551D01*
X001741Y005610D01*
X001739Y005669D01*
X033511Y021551D02*
X033513Y021590D01*
X033519Y021629D01*
X033529Y021667D01*
X033542Y021704D01*
X033559Y021739D01*
X033579Y021773D01*
X033603Y021804D01*
X033630Y021833D01*
X033659Y021859D01*
X033691Y021882D01*
X033725Y021902D01*
X033761Y021918D01*
X033798Y021930D01*
X033837Y021939D01*
X033876Y021944D01*
X033915Y021945D01*
X033954Y021942D01*
X033993Y021935D01*
X034030Y021924D01*
X034067Y021910D01*
X034102Y021892D01*
X034135Y021871D01*
X034166Y021846D01*
X034194Y021819D01*
X034219Y021789D01*
X034241Y021756D01*
X034260Y021722D01*
X034275Y021686D01*
X034287Y021648D01*
X034295Y021610D01*
X034299Y021571D01*
X034299Y021531D01*
X034295Y021492D01*
X034287Y021454D01*
X034275Y021416D01*
X034260Y021380D01*
X034241Y021346D01*
X034219Y021313D01*
X034194Y021283D01*
X034166Y021256D01*
X034135Y021231D01*
X034102Y021210D01*
X034067Y021192D01*
X034030Y021178D01*
X033993Y021167D01*
X033954Y021160D01*
X033915Y021157D01*
X033876Y021158D01*
X033837Y021163D01*
X033798Y021172D01*
X033761Y021184D01*
X033725Y021200D01*
X033691Y021220D01*
X033659Y021243D01*
X033630Y021269D01*
X033603Y021298D01*
X033579Y021329D01*
X033559Y021363D01*
X033542Y021398D01*
X033529Y021435D01*
X033519Y021473D01*
X033513Y021512D01*
X033511Y021551D01*
X036739Y022669D02*
X036741Y022728D01*
X036747Y022787D01*
X036757Y022845D01*
X036770Y022903D01*
X036788Y022960D01*
X036809Y023015D01*
X036834Y023069D01*
X036863Y023121D01*
X036895Y023170D01*
X036930Y023218D01*
X036968Y023263D01*
X037009Y023306D01*
X037053Y023346D01*
X037099Y023382D01*
X037148Y023416D01*
X037199Y023446D01*
X037252Y023473D01*
X037307Y023496D01*
X037362Y023515D01*
X037420Y023531D01*
X037478Y023543D01*
X037536Y023551D01*
X037595Y023555D01*
X037655Y023555D01*
X037714Y023551D01*
X037772Y023543D01*
X037830Y023531D01*
X037888Y023515D01*
X037943Y023496D01*
X037998Y023473D01*
X038051Y023446D01*
X038102Y023416D01*
X038151Y023382D01*
X038197Y023346D01*
X038241Y023306D01*
X038282Y023263D01*
X038320Y023218D01*
X038355Y023170D01*
X038387Y023121D01*
X038416Y023069D01*
X038441Y023015D01*
X038462Y022960D01*
X038480Y022903D01*
X038493Y022845D01*
X038503Y022787D01*
X038509Y022728D01*
X038511Y022669D01*
X038509Y022610D01*
X038503Y022551D01*
X038493Y022493D01*
X038480Y022435D01*
X038462Y022378D01*
X038441Y022323D01*
X038416Y022269D01*
X038387Y022217D01*
X038355Y022168D01*
X038320Y022120D01*
X038282Y022075D01*
X038241Y022032D01*
X038197Y021992D01*
X038151Y021956D01*
X038102Y021922D01*
X038051Y021892D01*
X037998Y021865D01*
X037943Y021842D01*
X037888Y021823D01*
X037830Y021807D01*
X037772Y021795D01*
X037714Y021787D01*
X037655Y021783D01*
X037595Y021783D01*
X037536Y021787D01*
X037478Y021795D01*
X037420Y021807D01*
X037362Y021823D01*
X037307Y021842D01*
X037252Y021865D01*
X037199Y021892D01*
X037148Y021922D01*
X037099Y021956D01*
X037053Y021992D01*
X037009Y022032D01*
X036968Y022075D01*
X036930Y022120D01*
X036895Y022168D01*
X036863Y022217D01*
X036834Y022269D01*
X036809Y022323D01*
X036788Y022378D01*
X036770Y022435D01*
X036757Y022493D01*
X036747Y022551D01*
X036741Y022610D01*
X036739Y022669D01*
D12*
X022860Y013338D02*
X022860Y013282D01*
X022804Y013227D01*
X022526Y013227D01*
X022526Y013394D01*
X022582Y013449D01*
X022693Y013449D01*
X022749Y013394D01*
X022749Y013227D01*
X022749Y013589D02*
X022526Y013589D01*
X022749Y013589D02*
X022749Y013756D01*
X022693Y013812D01*
X022526Y013812D01*
X022582Y013952D02*
X022526Y014007D01*
X022526Y014174D01*
X022415Y014174D02*
X022749Y014174D01*
X022749Y014007D01*
X022693Y013952D01*
X022582Y013952D01*
X022582Y014314D02*
X022637Y014314D01*
X022637Y014537D01*
X022582Y014537D02*
X022526Y014481D01*
X022526Y014370D01*
X022582Y014314D01*
X022749Y014370D02*
X022749Y014481D01*
X022693Y014537D01*
X022582Y014537D01*
X022693Y014677D02*
X022470Y014677D01*
X022415Y014732D01*
X022415Y014899D01*
X022749Y014899D01*
X022749Y014732D01*
X022693Y014677D01*
X022749Y015402D02*
X022526Y015624D01*
X022582Y015764D02*
X022637Y015764D01*
X022637Y015987D01*
X022582Y015987D02*
X022526Y015931D01*
X022526Y015820D01*
X022582Y015764D01*
X022749Y015820D02*
X022749Y015931D01*
X022693Y015987D01*
X022582Y015987D01*
X022526Y016117D02*
X022526Y016229D01*
X022470Y016173D02*
X022693Y016173D01*
X022749Y016117D01*
X022526Y016364D02*
X022526Y016419D01*
X022637Y016531D01*
X022526Y016531D02*
X022749Y016531D01*
X022693Y016670D02*
X022582Y016670D01*
X022526Y016726D01*
X022526Y016837D01*
X022582Y016893D01*
X022693Y016893D01*
X022749Y016837D01*
X022749Y016726D01*
X022693Y016670D01*
X022693Y017033D02*
X022749Y017089D01*
X022749Y017200D01*
X022693Y017256D01*
X022470Y017256D01*
X022415Y017200D01*
X022415Y017089D01*
X022470Y017033D01*
X022415Y017758D02*
X022749Y017758D01*
X022749Y017981D02*
X022415Y017981D01*
X022526Y017869D01*
X022415Y017758D01*
X022470Y018121D02*
X022582Y018121D01*
X022637Y018176D01*
X022637Y018343D01*
X022637Y018232D02*
X022749Y018121D01*
X022749Y018343D02*
X022415Y018343D01*
X022415Y018176D01*
X022470Y018121D01*
X022526Y018483D02*
X022749Y018483D01*
X022582Y018483D02*
X022582Y018706D01*
X022526Y018706D02*
X022415Y018594D01*
X022526Y018483D01*
X022526Y018706D02*
X022749Y018706D01*
X020583Y018736D02*
X020416Y018736D01*
X020361Y018680D01*
X020361Y018625D01*
X020416Y018569D01*
X020583Y018569D01*
X020583Y018903D01*
X020416Y018903D01*
X020361Y018847D01*
X020361Y018792D01*
X020416Y018736D01*
X020221Y018903D02*
X020165Y018903D01*
X020165Y018569D01*
X020221Y018569D02*
X020109Y018569D01*
X019979Y018625D02*
X019923Y018680D01*
X019756Y018680D01*
X019756Y018736D02*
X019756Y018569D01*
X019923Y018569D01*
X019979Y018625D01*
X019923Y018792D02*
X019812Y018792D01*
X019756Y018736D01*
X019616Y018736D02*
X019616Y018625D01*
X019561Y018569D01*
X019394Y018569D01*
X019254Y018569D02*
X019254Y018903D01*
X019394Y018792D02*
X019561Y018792D01*
X019616Y018736D01*
X019254Y018680D02*
X019087Y018792D01*
X018952Y018792D02*
X018896Y018792D01*
X018841Y018736D01*
X018785Y018792D01*
X018729Y018736D01*
X018729Y018569D01*
X018841Y018569D02*
X018841Y018736D01*
X018952Y018792D02*
X018952Y018569D01*
X019087Y018569D02*
X019254Y018680D01*
X018589Y018625D02*
X018534Y018569D01*
X018367Y018569D01*
X018367Y018736D01*
X018422Y018792D01*
X018534Y018792D01*
X018534Y018680D02*
X018367Y018680D01*
X018227Y018625D02*
X018171Y018569D01*
X018004Y018569D01*
X018004Y018513D02*
X018004Y018792D01*
X018171Y018792D01*
X018227Y018736D01*
X018227Y018625D01*
X018116Y018458D02*
X018060Y018458D01*
X018004Y018513D01*
X017864Y018569D02*
X017753Y018569D01*
X017809Y018569D02*
X017809Y018792D01*
X017864Y018792D01*
X017809Y018903D02*
X017809Y018959D01*
X017623Y018736D02*
X017623Y018625D01*
X017567Y018569D01*
X017400Y018569D01*
X017400Y018792D02*
X017567Y018792D01*
X017623Y018736D01*
X016898Y018903D02*
X016898Y018569D01*
X016731Y018569D01*
X016675Y018625D01*
X016675Y018847D01*
X016731Y018903D01*
X016898Y018903D01*
X016535Y018736D02*
X016479Y018792D01*
X016368Y018792D01*
X016312Y018736D01*
X016312Y018680D01*
X016535Y018680D01*
X016535Y018625D02*
X016535Y018736D01*
X016535Y018625D02*
X016479Y018569D01*
X016368Y018569D01*
X016173Y018569D02*
X016006Y018569D01*
X015950Y018625D01*
X015950Y018736D01*
X016006Y018792D01*
X016173Y018792D01*
X016173Y018903D02*
X016173Y018569D01*
X015810Y018625D02*
X015754Y018569D01*
X015587Y018569D01*
X015587Y018792D01*
X015448Y018736D02*
X015448Y018625D01*
X015392Y018569D01*
X015225Y018569D01*
X015225Y018513D02*
X015225Y018792D01*
X015392Y018792D01*
X015448Y018736D01*
X015336Y018458D02*
X015281Y018458D01*
X015225Y018513D01*
X014723Y018569D02*
X014723Y018903D01*
X014556Y018903D01*
X014500Y018847D01*
X014500Y018736D01*
X014556Y018680D01*
X014723Y018680D01*
X014360Y018680D02*
X014249Y018792D01*
X014193Y018792D01*
X014058Y018736D02*
X014058Y018625D01*
X014002Y018569D01*
X013891Y018569D01*
X013835Y018625D01*
X013835Y018736D01*
X013891Y018792D01*
X014002Y018792D01*
X014058Y018736D01*
X014360Y018792D02*
X014360Y018569D01*
X013695Y018569D02*
X013695Y018903D01*
X013695Y018792D02*
X013528Y018792D01*
X013473Y018736D01*
X013473Y018625D01*
X013528Y018569D01*
X013695Y018569D01*
X013333Y018625D02*
X013333Y018736D01*
X013277Y018792D01*
X013166Y018792D01*
X013110Y018736D01*
X013110Y018680D01*
X013333Y018680D01*
X013333Y018625D02*
X013277Y018569D01*
X013166Y018569D01*
X015810Y018625D02*
X015810Y018792D01*
X018534Y018680D02*
X018589Y018625D01*
X022526Y015402D02*
X022749Y015624D01*
X014284Y014178D02*
X014061Y014178D01*
X014173Y014178D02*
X014173Y013844D01*
X013921Y013844D02*
X013699Y014067D01*
X013921Y014067D02*
X013699Y013844D01*
X013559Y013844D02*
X013336Y014178D01*
X013196Y014178D02*
X013029Y014178D01*
X012974Y014123D01*
X012974Y014011D01*
X013029Y013956D01*
X013196Y013956D01*
X013085Y013956D02*
X012974Y013844D01*
X012834Y013844D02*
X012611Y014067D01*
X012834Y014067D02*
X012611Y013844D01*
X013196Y013844D02*
X013196Y014178D01*
X008576Y014529D02*
X008297Y014529D01*
X008242Y014584D01*
X008242Y014696D01*
X008297Y014751D01*
X008576Y014751D01*
X008520Y014891D02*
X008464Y014891D01*
X008409Y014947D01*
X008409Y015058D01*
X008353Y015114D01*
X008297Y015114D01*
X008242Y015058D01*
X008242Y014947D01*
X008297Y014891D01*
X008520Y014891D02*
X008576Y014947D01*
X008576Y015058D01*
X008520Y015114D01*
X008576Y015254D02*
X008576Y015421D01*
X008520Y015476D01*
X008464Y015476D01*
X008409Y015421D01*
X008409Y015254D01*
X008409Y015421D02*
X008353Y015476D01*
X008297Y015476D01*
X008242Y015421D01*
X008242Y015254D01*
X008576Y015254D01*
D13*
X002641Y012459D02*
X002641Y012247D01*
X002641Y012459D02*
X002735Y012459D01*
X002735Y012247D01*
X002641Y012247D01*
X002641Y010491D02*
X002641Y010279D01*
X002641Y010491D02*
X002735Y010491D01*
X002735Y010279D01*
X002641Y010279D01*
D14*
X001753Y009991D02*
X001497Y009991D01*
X001497Y012747D02*
X001753Y012747D01*
D15*
X036558Y010862D03*
D16*
X036558Y013962D03*
X036558Y007762D03*
D17*
X035869Y004759D03*
X035771Y004759D03*
X023125Y011419D03*
X022125Y011419D03*
X021125Y011419D03*
X020125Y011419D03*
X019125Y011419D03*
X018125Y011419D03*
X017125Y011419D03*
X016125Y011419D03*
X015125Y011419D03*
X014125Y011419D03*
X013125Y011419D03*
X012125Y011419D03*
X011125Y011419D03*
X010125Y011419D03*
X009125Y011419D03*
X008125Y011419D03*
X011905Y013372D03*
X012905Y013272D03*
X013905Y013372D03*
X012625Y021169D03*
X011625Y021169D03*
X010625Y021169D03*
D18*
X034590Y005503D03*
X034590Y005153D03*
X034590Y004803D03*
D19*
X032905Y007476D03*
X032905Y008696D03*
X032905Y009917D03*
D20*
X030503Y009307D03*
X030503Y008086D03*
D21*
X034475Y019951D03*
X034975Y019951D03*
X035475Y019951D03*
X035975Y019951D03*
X036475Y019951D03*
X036475Y021851D03*
X035975Y021851D03*
X035475Y021851D03*
X034975Y021851D03*
X034475Y021851D03*
D22*
X030956Y021645D03*
X029956Y021645D03*
X029956Y020645D03*
X030956Y020645D03*
X030956Y019645D03*
X029956Y019645D03*
X029956Y018645D03*
X030956Y018645D03*
X030956Y017645D03*
X029956Y017645D03*
X029956Y016645D03*
X030956Y016645D03*
X030956Y015645D03*
X029956Y015645D03*
X029956Y014645D03*
X030956Y014645D03*
X030956Y013645D03*
X029956Y013645D03*
X029956Y022645D03*
X030956Y022645D03*
D23*
X034633Y018169D03*
X034633Y017169D03*
X034633Y016169D03*
X036617Y016169D03*
X036617Y017169D03*
X036617Y018169D03*
X005617Y018169D03*
X005617Y017169D03*
X005617Y016169D03*
X003633Y016169D03*
X003633Y017169D03*
X003633Y018169D03*
D24*
X010625Y023169D03*
X012625Y023169D03*
D25*
X014905Y013272D03*
D26*
X010574Y010370D03*
X009786Y010271D03*
X009491Y010074D03*
X008704Y009090D03*
X007326Y008598D03*
X008113Y007614D03*
X008704Y007614D03*
X009393Y007515D03*
X009885Y008007D03*
X010574Y008007D03*
X011361Y008303D03*
X011755Y008303D03*
X011361Y008696D03*
X011066Y008893D03*
X011361Y009090D03*
X012739Y009976D03*
X013034Y009188D03*
X014117Y009877D03*
X015790Y008696D03*
X016381Y009188D03*
X014609Y008106D03*
X014117Y008106D03*
X013822Y007220D03*
X012641Y006826D03*
X012247Y006925D03*
X011853Y006925D03*
X011460Y006925D03*
X011164Y006728D03*
X011066Y006334D03*
X010672Y006236D03*
X010377Y005940D03*
X010377Y005547D03*
X010672Y005350D03*
X010968Y005153D03*
X010082Y004464D03*
X009688Y004464D03*
X008901Y005645D03*
X008507Y005645D03*
X008113Y005645D03*
X007719Y005547D03*
X007326Y006433D03*
X006932Y006433D03*
X007424Y007220D03*
X005456Y007909D03*
X005259Y007515D03*
X004275Y007417D03*
X003625Y006590D03*
X002306Y007712D03*
X003881Y009681D03*
X002798Y009877D03*
X002208Y010173D03*
X002208Y010566D03*
X005062Y010763D03*
X006145Y010763D03*
X006145Y010271D03*
X006046Y008696D03*
X005062Y008696D03*
X005653Y005842D03*
X006440Y005055D03*
X006538Y004661D03*
X003684Y004759D03*
X011558Y007318D03*
X011853Y006531D03*
X016086Y007614D03*
X018940Y009779D03*
X020121Y009779D03*
X022188Y008696D03*
X021991Y007909D03*
X021991Y007515D03*
X020810Y007811D03*
X020515Y007515D03*
X023861Y009779D03*
X025338Y008696D03*
X025338Y008204D03*
X025338Y007811D03*
X025338Y007417D03*
X026617Y007811D03*
X026617Y008204D03*
X026125Y009385D03*
X026125Y009877D03*
X028684Y009188D03*
X029078Y009188D03*
X029471Y009188D03*
X029964Y009188D03*
X029570Y008795D03*
X029964Y008598D03*
X031145Y008795D03*
X031932Y007811D03*
X031834Y007417D03*
X031440Y007220D03*
X029964Y005842D03*
X029865Y005448D03*
X030160Y005251D03*
X030456Y005055D03*
X030751Y004858D03*
X029570Y005645D03*
X027405Y005350D03*
X026322Y005055D03*
X026027Y004858D03*
X032424Y008893D03*
X031538Y009976D03*
X030554Y010468D03*
X032916Y010468D03*
X035475Y010862D03*
X037838Y009385D03*
X036656Y008696D03*
X034983Y006137D03*
X034590Y005940D03*
X034097Y005153D03*
X033999Y004661D03*
X033212Y004956D03*
X036656Y004661D03*
X037838Y013224D03*
X037247Y014799D03*
X036263Y016669D03*
X035377Y016669D03*
X034983Y016669D03*
X034590Y017653D03*
X033999Y017653D03*
X035672Y018244D03*
X035771Y019425D03*
X035279Y019523D03*
X034885Y019523D03*
X034491Y019425D03*
X034097Y019818D03*
X033408Y019720D03*
X033507Y020409D03*
X033507Y020901D03*
X034688Y021393D03*
X035180Y021393D03*
X036460Y021393D03*
X036853Y020212D03*
X037739Y018933D03*
X037542Y017948D03*
X037641Y017161D03*
X027601Y017653D03*
X006342Y012929D03*
X005849Y012929D03*
X004865Y012043D03*
X002995Y012830D03*
X002208Y012929D03*
X003684Y014011D03*
X004176Y014405D03*
X004570Y015586D03*
X005357Y015685D03*
X004078Y016669D03*
X006145Y017653D03*
X004964Y018834D03*
X003881Y018637D03*
X002306Y020507D03*
X001912Y015685D03*
D27*
X003633Y017114D02*
X004078Y016669D01*
X004570Y016767D02*
X004767Y016570D01*
X006342Y016570D01*
X006440Y016472D01*
X006440Y013322D01*
X006637Y013125D01*
X006637Y007318D01*
X006932Y007023D01*
X006932Y006433D01*
X007129Y006629D02*
X007326Y006433D01*
X007129Y006629D02*
X007129Y007122D01*
X006834Y007417D01*
X006834Y013224D01*
X006637Y013421D01*
X006637Y017555D01*
X006538Y017653D01*
X006145Y017653D01*
X005617Y018169D02*
X005617Y018181D01*
X004964Y018834D01*
X003857Y018169D02*
X004570Y017456D01*
X004570Y016767D01*
X003633Y017114D02*
X003633Y017169D01*
X003633Y018169D02*
X003857Y018169D01*
X005617Y016169D02*
X005617Y015944D01*
X005357Y015685D01*
X004570Y015586D02*
X004570Y008598D01*
X005259Y007909D01*
X005456Y007909D01*
X005259Y007515D02*
X004373Y008401D01*
X004373Y014208D01*
X004176Y014405D01*
X002208Y012929D02*
X002026Y012747D01*
X001625Y012747D01*
X002688Y012523D02*
X002688Y012353D01*
X002688Y012523D02*
X002995Y012830D01*
X002208Y010173D02*
X002026Y009991D01*
X001625Y009991D01*
X003625Y006590D02*
X003625Y006393D01*
X003881Y006137D01*
X008408Y006137D01*
X010279Y008007D01*
X010279Y008204D01*
X010968Y008893D01*
X011066Y008893D01*
X011361Y008696D02*
X011656Y008992D01*
X011656Y009287D01*
X012641Y010271D01*
X015692Y010271D01*
X015889Y010468D01*
X016578Y010468D01*
X016775Y010665D01*
X017464Y010665D01*
X017660Y010862D01*
X018349Y010862D01*
X018906Y011419D01*
X019125Y011419D01*
X019334Y010862D02*
X018645Y010862D01*
X018448Y010665D01*
X017759Y010665D01*
X017562Y010468D01*
X016873Y010468D01*
X016676Y010271D01*
X015987Y010271D01*
X015790Y010074D01*
X014708Y010074D01*
X013527Y008893D01*
X012641Y008893D01*
X012149Y008401D01*
X012050Y008401D01*
X011853Y008598D01*
X011656Y008598D01*
X011361Y008303D01*
X011755Y008303D02*
X011853Y008204D01*
X012247Y008204D01*
X012739Y008696D01*
X013625Y008696D01*
X014806Y009877D01*
X015889Y009877D01*
X016086Y010074D01*
X016775Y010074D01*
X016971Y010271D01*
X017660Y010271D01*
X017857Y010468D01*
X018546Y010468D01*
X018743Y010665D01*
X019432Y010665D01*
X019629Y010862D01*
X020416Y010862D01*
X020973Y011419D01*
X021125Y011419D01*
X021401Y010862D02*
X020712Y010862D01*
X020515Y010665D01*
X019727Y010665D01*
X019531Y010468D01*
X018842Y010468D01*
X018645Y010271D01*
X017956Y010271D01*
X017759Y010074D01*
X017070Y010074D01*
X016873Y009877D01*
X016184Y009877D01*
X015987Y009681D01*
X014905Y009681D01*
X013723Y008499D01*
X012838Y008499D01*
X012345Y008007D01*
X010574Y008007D01*
X009885Y008007D02*
X009885Y008106D01*
X012444Y010665D01*
X015495Y010665D01*
X015692Y010862D01*
X016381Y010862D01*
X016938Y011419D01*
X017125Y011419D01*
X017365Y010862D02*
X016676Y010862D01*
X016479Y010665D01*
X015790Y010665D01*
X015594Y010468D01*
X012542Y010468D01*
X011361Y009287D01*
X011361Y009090D01*
X010377Y009779D02*
X011125Y010527D01*
X011125Y011419D01*
X012125Y011419D02*
X012125Y011232D01*
X009688Y008795D01*
X008999Y008795D01*
X008704Y009090D01*
X009491Y010074D02*
X009786Y009779D01*
X010377Y009779D01*
X009393Y007909D02*
X012345Y010862D01*
X015397Y010862D01*
X015954Y011419D01*
X016125Y011419D01*
X017365Y010862D02*
X017922Y011419D01*
X018125Y011419D01*
X019334Y010862D02*
X019891Y011419D01*
X020125Y011419D01*
X020810Y010665D02*
X021499Y010665D01*
X021696Y010862D01*
X022385Y010862D01*
X022942Y011419D01*
X023125Y011419D01*
X022125Y011419D02*
X021958Y011419D01*
X021401Y010862D01*
X020810Y010665D02*
X020613Y010468D01*
X019826Y010468D01*
X019629Y010271D01*
X018940Y010271D01*
X018743Y010074D01*
X018054Y010074D01*
X017857Y009877D01*
X017168Y009877D01*
X016971Y009681D01*
X016282Y009681D01*
X016086Y009484D01*
X015003Y009484D01*
X014117Y008598D01*
X014117Y008106D01*
X013428Y006728D02*
X012542Y007614D01*
X011066Y007614D01*
X009097Y005645D01*
X008901Y005645D01*
X007719Y005547D02*
X006932Y005547D01*
X006440Y005055D01*
X009688Y004606D02*
X009688Y004464D01*
X009688Y004606D02*
X009940Y004858D01*
X010082Y004858D01*
X010574Y004366D01*
X031145Y004366D01*
X031637Y004858D01*
X031637Y006236D01*
X031735Y006334D01*
X031735Y007318D01*
X031834Y007417D01*
X031440Y007220D02*
X031440Y004956D01*
X031046Y004562D01*
X011755Y004562D01*
X011460Y004858D01*
X011263Y004858D01*
X010968Y005153D01*
X011263Y005251D02*
X010869Y005645D01*
X010475Y005645D01*
X010377Y005547D01*
X010672Y005940D02*
X010771Y005842D01*
X010968Y005842D01*
X011361Y005448D01*
X011460Y005448D01*
X011952Y004956D01*
X025633Y004956D01*
X025830Y005153D01*
X026223Y005153D01*
X026322Y005055D01*
X026420Y005350D02*
X027011Y004759D01*
X030653Y004759D01*
X030751Y004858D01*
X030456Y005055D02*
X030357Y004956D01*
X027109Y004956D01*
X026519Y005547D01*
X025633Y005547D01*
X025436Y005350D01*
X012247Y005350D01*
X011755Y005842D01*
X011558Y005842D01*
X011066Y006334D01*
X011066Y006039D02*
X010968Y006039D01*
X010771Y006236D01*
X010672Y006236D01*
X010672Y005940D02*
X010377Y005940D01*
X011066Y006039D02*
X011460Y005645D01*
X011656Y005645D01*
X012149Y005153D01*
X025534Y005153D01*
X025731Y005350D01*
X026420Y005350D01*
X026027Y004858D02*
X025928Y004759D01*
X011853Y004759D01*
X011361Y005251D01*
X011263Y005251D01*
X011656Y006039D02*
X011361Y006334D01*
X011361Y006531D01*
X011164Y006728D01*
X011460Y006925D02*
X011558Y006826D01*
X011558Y006433D01*
X011755Y006236D01*
X011952Y006236D01*
X012444Y005744D01*
X025239Y005744D01*
X025436Y005940D01*
X028192Y005940D01*
X028782Y005350D01*
X029767Y005350D01*
X029865Y005448D01*
X030062Y005153D02*
X030160Y005251D01*
X030062Y005153D02*
X028684Y005153D01*
X028094Y005744D01*
X025534Y005744D01*
X025338Y005547D01*
X012345Y005547D01*
X011853Y006039D01*
X011656Y006039D01*
X011853Y006531D02*
X011952Y006531D01*
X012542Y005940D01*
X025141Y005940D01*
X025338Y006137D01*
X028290Y006137D01*
X028881Y005547D01*
X029471Y005547D01*
X029570Y005645D01*
X029964Y005842D02*
X029471Y006334D01*
X025239Y006334D01*
X025042Y006137D01*
X012641Y006137D01*
X011853Y006925D01*
X012247Y006925D02*
X012247Y006826D01*
X012739Y006334D01*
X024944Y006334D01*
X025141Y006531D01*
X030160Y006531D01*
X031834Y008204D01*
X035082Y008204D01*
X035279Y008007D01*
X036312Y008007D01*
X036558Y007762D01*
X034590Y005940D02*
X034590Y005503D01*
X034590Y005153D02*
X034097Y005153D01*
X034141Y004803D02*
X033999Y004661D01*
X034141Y004803D02*
X034590Y004803D01*
X035869Y004759D02*
X036558Y004759D01*
X036656Y004661D01*
X032905Y007476D02*
X032570Y007811D01*
X031932Y007811D01*
X031538Y008204D02*
X031538Y009976D01*
X030633Y009307D02*
X031145Y008795D01*
X030503Y008153D01*
X030503Y008086D01*
X029964Y008598D02*
X029865Y008499D01*
X026519Y008499D01*
X026125Y008106D01*
X026027Y008106D01*
X025338Y007417D01*
X025338Y007811D02*
X025830Y008303D01*
X026027Y008303D01*
X026420Y008696D01*
X029471Y008696D01*
X029570Y008795D01*
X029078Y008893D02*
X029078Y009188D01*
X029078Y008893D02*
X026322Y008893D01*
X025928Y008499D01*
X025731Y008499D01*
X025436Y008204D01*
X025338Y008204D01*
X025338Y008696D02*
X025830Y008696D01*
X026617Y009484D01*
X029668Y009484D01*
X029964Y009188D01*
X030503Y009307D02*
X030633Y009307D01*
X031538Y008204D02*
X030062Y006728D01*
X025042Y006728D01*
X024845Y006531D01*
X013330Y006531D01*
X012542Y007318D01*
X011558Y007318D01*
X013428Y006728D02*
X024747Y006728D01*
X024944Y006925D01*
X025239Y006925D01*
X026519Y008204D01*
X026617Y008204D01*
X021991Y007909D02*
X021893Y007811D01*
X020810Y007811D01*
X020515Y007515D02*
X021991Y007515D01*
X009393Y007515D02*
X009393Y007909D01*
X027601Y017653D02*
X027798Y017850D01*
X027798Y019523D01*
X028920Y020645D01*
X029956Y020645D01*
X034097Y019818D02*
X034230Y019951D01*
X034475Y019951D01*
X034975Y019951D02*
X034975Y019614D01*
X034885Y019523D01*
X035279Y019523D02*
X035475Y019720D01*
X035475Y019951D01*
X036475Y019951D02*
X036475Y019440D01*
X035672Y018637D01*
X035672Y018244D01*
X034633Y018169D02*
X034633Y017696D01*
X034590Y017653D01*
X034633Y017169D02*
X034499Y017169D01*
X034483Y017169D02*
X033999Y017653D01*
X034483Y017169D02*
X034633Y017169D01*
X034983Y016669D02*
X034983Y016519D01*
X034633Y016169D01*
X036263Y016523D02*
X036617Y016169D01*
X036263Y016523D02*
X036263Y016669D01*
X036617Y017169D02*
X037633Y017169D01*
X037641Y017161D01*
X037542Y017948D02*
X037322Y018169D01*
X036617Y018169D01*
X035180Y021393D02*
X035475Y021688D01*
X035475Y021851D01*
X034975Y021851D02*
X034975Y021598D01*
X035180Y021393D01*
X034688Y021393D02*
X034475Y021606D01*
X034475Y021851D01*
X035475Y010862D02*
X036558Y010862D01*
D28*
X032916Y010468D02*
X032916Y009929D01*
X032905Y009917D01*
X036460Y021393D02*
X036460Y021851D01*
X036475Y021851D01*
X002798Y009877D02*
X002685Y009991D01*
X002688Y010385D01*
D29*
X008125Y012169D03*
X009125Y012169D03*
X010125Y012169D03*
X011125Y012169D03*
X012125Y012169D03*
X013125Y012169D03*
X014125Y012169D03*
X015125Y012169D03*
X016125Y012169D03*
X017125Y012169D03*
X018125Y012169D03*
X019125Y012169D03*
X020125Y012169D03*
X021125Y012169D03*
X022125Y012169D03*
X023125Y012169D03*
D30*
X023125Y011419D01*
X022125Y011419D02*
X022125Y012169D01*
X021125Y012169D02*
X021125Y011419D01*
X020125Y011419D02*
X020125Y012169D01*
X019125Y012169D02*
X019125Y011419D01*
X018125Y011419D02*
X018125Y012169D01*
X017125Y012169D02*
X017125Y011419D01*
X016125Y011419D02*
X016125Y012169D01*
X015125Y012169D02*
X015125Y011419D01*
X014125Y011419D02*
X014125Y012169D01*
X013125Y012169D02*
X013125Y011419D01*
X012125Y011419D02*
X012125Y012169D01*
X011125Y012169D02*
X011125Y011419D01*
X010125Y011419D02*
X010125Y012169D01*
X009125Y012169D02*
X009125Y011419D01*
X008125Y011419D02*
X008125Y012169D01*
D31*
X010625Y021169D02*
X010625Y023169D01*
X012625Y023169D02*
X012625Y021169D01*
D32*
X013104Y018940D02*
X013049Y018885D01*
X012962Y018797D01*
X012962Y018619D01*
X013017Y018563D01*
X013017Y018507D01*
X013104Y018420D01*
X013339Y018420D01*
X013395Y018476D01*
X013403Y018484D01*
X013467Y018420D01*
X013757Y018420D01*
X013793Y018456D01*
X013794Y018456D01*
X013793Y018456D02*
X013829Y018420D01*
X014064Y018420D01*
X014207Y018563D01*
X014207Y018623D01*
X014211Y018619D01*
X014211Y018507D01*
X014298Y018420D01*
X014422Y018420D01*
X014509Y018507D01*
X014509Y018531D01*
X014574Y018531D01*
X014574Y018507D01*
X014661Y018420D01*
X014784Y018420D01*
X014871Y018507D01*
X014871Y018964D01*
X014784Y019052D01*
X014494Y019052D01*
X014438Y018996D01*
X014383Y018940D01*
X014131Y018940D01*
X014098Y018906D01*
X014064Y018940D01*
X013844Y018940D01*
X013844Y018964D01*
X013757Y019052D01*
X013634Y019052D01*
X013547Y018964D01*
X013547Y018940D01*
X013467Y018940D01*
X013403Y018876D01*
X013339Y018940D01*
X013104Y018940D01*
X013091Y018927D02*
X007666Y018927D01*
X007666Y019005D02*
X013588Y019005D01*
X013453Y018927D02*
X013352Y018927D01*
X013012Y018848D02*
X007666Y018848D01*
X007666Y018770D02*
X012962Y018770D01*
X012962Y018691D02*
X007666Y018691D01*
X007666Y018613D02*
X012055Y018613D01*
X012092Y018628D02*
X011987Y018585D01*
X011906Y018504D01*
X011863Y018399D01*
X011863Y018285D01*
X011906Y018180D01*
X011987Y018100D01*
X012092Y018056D01*
X012206Y018056D01*
X012311Y018100D01*
X012391Y018180D01*
X012435Y018285D01*
X012435Y018399D01*
X012391Y018504D01*
X012311Y018585D01*
X012206Y018628D01*
X012092Y018628D01*
X012242Y018613D02*
X012967Y018613D01*
X013017Y018534D02*
X012361Y018534D01*
X012411Y018456D02*
X013069Y018456D01*
X013375Y018456D02*
X013431Y018456D01*
X014100Y018456D02*
X014263Y018456D01*
X014211Y018534D02*
X014178Y018534D01*
X014207Y018613D02*
X014211Y018613D01*
X014457Y018456D02*
X014625Y018456D01*
X014820Y018456D02*
X015076Y018456D01*
X015076Y018452D02*
X015163Y018364D01*
X015219Y018309D01*
X015398Y018309D01*
X015485Y018396D01*
X015485Y018452D01*
X015490Y018456D01*
X015489Y018456D01*
X015490Y018456D02*
X015526Y018420D01*
X015816Y018420D01*
X015880Y018484D01*
X015944Y018420D01*
X016234Y018420D01*
X016270Y018456D01*
X016271Y018456D01*
X016270Y018456D02*
X016307Y018420D01*
X016541Y018420D01*
X016597Y018476D01*
X016605Y018484D01*
X016613Y018476D01*
X016669Y018420D01*
X016959Y018420D01*
X017046Y018507D01*
X017046Y018964D01*
X016959Y019052D01*
X016669Y019052D01*
X016582Y018964D01*
X016549Y018932D01*
X016541Y018940D01*
X016321Y018940D01*
X016321Y018964D01*
X016234Y019052D01*
X016111Y019052D01*
X016024Y018964D01*
X016024Y018940D01*
X015944Y018940D01*
X015908Y018904D01*
X015872Y018940D01*
X015748Y018940D01*
X015699Y018891D01*
X015649Y018940D01*
X015526Y018940D01*
X015490Y018904D01*
X015454Y018940D01*
X015163Y018940D01*
X015076Y018853D01*
X015076Y018452D01*
X015076Y018534D02*
X014871Y018534D01*
X014871Y018613D02*
X015076Y018613D01*
X015076Y018691D02*
X014871Y018691D01*
X014871Y018770D02*
X015076Y018770D01*
X015076Y018848D02*
X014871Y018848D01*
X014871Y018927D02*
X015150Y018927D01*
X015467Y018927D02*
X015512Y018927D01*
X015662Y018927D02*
X015735Y018927D01*
X015885Y018927D02*
X015931Y018927D01*
X016065Y019005D02*
X014830Y019005D01*
X014448Y019005D02*
X013803Y019005D01*
X014077Y018927D02*
X014118Y018927D01*
X015150Y018377D02*
X012435Y018377D01*
X012435Y018299D02*
X022266Y018299D01*
X022266Y018377D02*
X018246Y018377D01*
X018264Y018396D02*
X018264Y018452D01*
X018269Y018456D01*
X018305Y018420D01*
X018595Y018420D01*
X018631Y018456D01*
X018632Y018456D01*
X018631Y018456D02*
X018668Y018420D01*
X019013Y018420D01*
X019023Y018430D01*
X019118Y018411D01*
X019168Y018444D01*
X019192Y018420D01*
X019316Y018420D01*
X019324Y018428D01*
X019332Y018420D01*
X019622Y018420D01*
X019659Y018456D01*
X019658Y018456D01*
X019659Y018456D02*
X019695Y018420D01*
X019985Y018420D01*
X020016Y018452D01*
X020048Y018420D01*
X020282Y018420D01*
X020318Y018456D01*
X020319Y018456D01*
X020318Y018456D02*
X020355Y018420D01*
X020522Y018420D01*
X020645Y018420D01*
X020732Y018507D01*
X020732Y018964D01*
X020645Y019052D01*
X020355Y019052D01*
X020318Y019015D01*
X020282Y019052D01*
X020103Y019052D01*
X020016Y018964D01*
X020016Y018909D01*
X019985Y018940D01*
X019750Y018940D01*
X019695Y018885D01*
X019686Y018876D01*
X019678Y018885D01*
X019622Y018940D01*
X019403Y018940D01*
X019403Y018964D01*
X019316Y019052D01*
X019192Y019052D01*
X019105Y018964D01*
X019105Y018947D01*
X019023Y018930D01*
X019013Y018940D01*
X018723Y018940D01*
X018668Y018885D01*
X018659Y018876D01*
X018595Y018940D01*
X018361Y018940D01*
X018305Y018885D01*
X018297Y018876D01*
X018288Y018885D01*
X018233Y018940D01*
X017957Y018940D01*
X017957Y019020D01*
X017870Y019107D01*
X017747Y019107D01*
X017660Y019020D01*
X017660Y018909D01*
X017629Y018940D01*
X017338Y018940D01*
X017251Y018853D01*
X017251Y018730D01*
X017301Y018680D01*
X017251Y018630D01*
X017251Y018507D01*
X017338Y018420D01*
X017629Y018420D01*
X017660Y018452D01*
X017691Y018420D01*
X017887Y018420D01*
X017943Y018364D01*
X017998Y018309D01*
X018177Y018309D01*
X018264Y018396D01*
X018269Y018456D02*
X018269Y018456D01*
X017930Y018377D02*
X015466Y018377D01*
X015852Y018456D02*
X015908Y018456D01*
X016280Y019005D02*
X016623Y019005D01*
X017006Y019005D02*
X017660Y019005D01*
X017660Y018927D02*
X017642Y018927D01*
X017724Y019084D02*
X007666Y019084D01*
X007666Y019129D02*
X023369Y019129D01*
X023369Y012876D01*
X015393Y012876D01*
X015393Y013692D01*
X015324Y013761D01*
X014485Y013761D01*
X014416Y013692D01*
X014416Y012876D01*
X013199Y012876D01*
X013319Y012995D01*
X013393Y013175D01*
X013393Y013370D01*
X013319Y013549D01*
X013181Y013687D01*
X013160Y013696D01*
X013258Y013696D01*
X013345Y013783D01*
X013345Y013897D01*
X013469Y013711D01*
X013538Y013697D01*
X013490Y013649D01*
X013416Y013470D01*
X013416Y013275D01*
X013393Y013275D01*
X013416Y013275D02*
X013490Y013095D01*
X013628Y012958D01*
X013807Y012884D01*
X014002Y012884D01*
X014181Y012958D01*
X014319Y013095D01*
X014393Y013275D01*
X014416Y013275D01*
X014393Y013275D02*
X014393Y013470D01*
X014319Y013649D01*
X014253Y013715D01*
X014321Y013783D01*
X014321Y014030D01*
X014346Y014030D01*
X014433Y014117D01*
X014433Y014240D01*
X014367Y014306D01*
X016382Y014306D01*
X016420Y014268D01*
X016522Y014226D01*
X016633Y014226D01*
X016735Y014268D01*
X016773Y014306D01*
X019317Y014306D01*
X019335Y014324D01*
X019389Y014324D01*
X019491Y014366D01*
X019569Y014444D01*
X019611Y014547D01*
X019611Y014657D01*
X019569Y014759D01*
X019491Y014837D01*
X019389Y014880D01*
X019278Y014880D01*
X019176Y014837D01*
X019098Y014759D01*
X019074Y014701D01*
X016773Y014701D01*
X016735Y014739D01*
X016633Y014781D01*
X016522Y014781D01*
X016420Y014739D01*
X016382Y014701D01*
X014887Y014701D01*
X014887Y014756D01*
X014845Y014858D01*
X014767Y014936D01*
X014665Y014978D01*
X014554Y014978D01*
X014452Y014936D01*
X014374Y014858D01*
X014331Y014756D01*
X014331Y014701D01*
X013429Y014701D01*
X013429Y017294D01*
X013471Y017277D01*
X013582Y017277D01*
X013684Y017319D01*
X013762Y017397D01*
X013804Y017499D01*
X013804Y017610D01*
X013762Y017712D01*
X013684Y017790D01*
X013582Y017832D01*
X013471Y017832D01*
X013369Y017790D01*
X013331Y017752D01*
X013131Y017752D01*
X013093Y017790D01*
X012991Y017832D01*
X012881Y017832D01*
X012779Y017790D01*
X012741Y017752D01*
X010295Y017752D01*
X009901Y017358D01*
X009786Y017243D01*
X009786Y017159D01*
X009748Y017121D01*
X007666Y017121D01*
X007666Y017043D02*
X009715Y017043D01*
X009705Y017019D02*
X009705Y016909D01*
X009748Y016807D01*
X009826Y016729D01*
X007666Y016729D01*
X007666Y016807D02*
X009748Y016807D01*
X009715Y016886D02*
X007666Y016886D01*
X007666Y016964D02*
X009705Y016964D01*
X009705Y017019D02*
X009748Y017121D01*
X009786Y017200D02*
X007666Y017200D01*
X007666Y017278D02*
X009821Y017278D01*
X009900Y017357D02*
X007666Y017357D01*
X007666Y017435D02*
X009978Y017435D01*
X010057Y017514D02*
X007666Y017514D01*
X007666Y017592D02*
X010135Y017592D01*
X010214Y017671D02*
X007666Y017671D01*
X007666Y017749D02*
X010292Y017749D01*
X010459Y017357D02*
X012741Y017357D01*
X010458Y017357D01*
X010459Y017357D02*
X010220Y017118D01*
X010261Y017019D01*
X010261Y016909D01*
X010219Y016807D01*
X013034Y016807D01*
X013034Y016729D02*
X010141Y016729D01*
X010219Y016807D01*
X010252Y016886D02*
X013034Y016886D01*
X013034Y016964D02*
X010261Y016964D01*
X010251Y017043D02*
X013034Y017043D01*
X013034Y017121D02*
X010223Y017121D01*
X010301Y017200D02*
X013034Y017200D01*
X013034Y017278D02*
X012995Y017278D01*
X012991Y017277D02*
X013034Y017294D01*
X013034Y014699D01*
X012996Y014661D01*
X012954Y014559D01*
X012954Y014448D01*
X012996Y014346D01*
X013015Y014327D01*
X012968Y014327D01*
X012912Y014272D01*
X012857Y014216D01*
X012772Y014216D01*
X012723Y014166D01*
X012673Y014216D01*
X012550Y014216D01*
X012463Y014129D01*
X012463Y014006D01*
X012512Y013956D01*
X012463Y013906D01*
X012463Y013783D01*
X012550Y013696D01*
X012650Y013696D01*
X012628Y013687D01*
X012490Y013549D01*
X012416Y013370D01*
X012416Y013175D01*
X012490Y012995D01*
X012610Y012876D01*
X012026Y012876D01*
X012100Y012900D01*
X012172Y012936D01*
X012237Y012983D01*
X012294Y013040D01*
X012341Y013105D01*
X012377Y013177D01*
X012402Y013253D01*
X012415Y013332D01*
X012415Y013332D01*
X011945Y013332D01*
X011945Y013412D01*
X012415Y013412D01*
X012415Y013412D01*
X012402Y013492D01*
X012377Y013568D01*
X012341Y013640D01*
X012294Y013705D01*
X012237Y013761D01*
X012172Y013809D01*
X012100Y013845D01*
X012024Y013870D01*
X011945Y013882D01*
X011945Y013882D01*
X011945Y013412D01*
X011865Y013412D01*
X011865Y013882D01*
X011864Y013882D01*
X011785Y013870D01*
X011709Y013845D01*
X011637Y013809D01*
X011572Y013761D01*
X011516Y013705D01*
X011468Y013640D01*
X011432Y013568D01*
X011407Y013492D01*
X011395Y013412D01*
X011865Y013412D01*
X011865Y013332D01*
X011395Y013332D01*
X011407Y013253D01*
X011432Y013177D01*
X011468Y013105D01*
X011516Y013040D01*
X011572Y012983D01*
X011637Y012936D01*
X011709Y012900D01*
X011783Y012876D01*
X007666Y012876D01*
X007666Y013087D01*
X007621Y013132D01*
X007621Y013316D01*
X007666Y013361D01*
X007666Y019129D01*
X007666Y018534D02*
X011936Y018534D01*
X011886Y018456D02*
X007666Y018456D01*
X007666Y018377D02*
X011863Y018377D01*
X011863Y018299D02*
X007666Y018299D01*
X007666Y018220D02*
X011889Y018220D01*
X011944Y018142D02*
X007666Y018142D01*
X007666Y018063D02*
X012074Y018063D01*
X012223Y018063D02*
X022287Y018063D01*
X022302Y018078D02*
X022266Y018042D01*
X022266Y017919D01*
X022316Y017869D01*
X022266Y017820D01*
X022266Y017696D01*
X022353Y017609D01*
X022810Y017609D01*
X022897Y017696D01*
X022897Y017820D01*
X022848Y017869D01*
X022897Y017919D01*
X022897Y018042D01*
X022889Y018051D01*
X022897Y018059D01*
X022897Y018182D01*
X022848Y018232D01*
X022897Y018282D01*
X022897Y018405D01*
X022889Y018413D01*
X022897Y018421D01*
X022897Y018545D01*
X022848Y018594D01*
X022897Y018644D01*
X022897Y018767D01*
X022810Y018854D01*
X022464Y018854D01*
X022353Y018743D01*
X022266Y018656D01*
X022266Y018533D01*
X022330Y018469D01*
X022266Y018405D01*
X022266Y018115D01*
X022302Y018078D01*
X022266Y018142D02*
X012353Y018142D01*
X012408Y018220D02*
X022266Y018220D01*
X022266Y017985D02*
X007666Y017985D01*
X007666Y017906D02*
X022279Y017906D01*
X022274Y017828D02*
X013593Y017828D01*
X013460Y017828D02*
X013002Y017828D01*
X012870Y017828D02*
X007666Y017828D01*
X007666Y016650D02*
X013034Y016650D01*
X013034Y016572D02*
X007666Y016572D01*
X007666Y016493D02*
X013034Y016493D01*
X013034Y016415D02*
X007666Y016415D01*
X007666Y016336D02*
X013034Y016336D01*
X013034Y016258D02*
X007666Y016258D01*
X007666Y016179D02*
X013034Y016179D01*
X013034Y016101D02*
X009994Y016101D01*
X009965Y016129D02*
X009849Y016177D01*
X009724Y016177D01*
X009608Y016129D01*
X009519Y016040D01*
X009471Y015924D01*
X009471Y015799D01*
X009519Y015683D01*
X009608Y015594D01*
X009724Y015546D01*
X009849Y015546D01*
X009965Y015594D01*
X010054Y015683D01*
X010102Y015799D01*
X010102Y015924D01*
X010054Y016040D01*
X009965Y016129D01*
X010061Y016022D02*
X013034Y016022D01*
X013034Y015944D02*
X010094Y015944D01*
X010102Y015865D02*
X013034Y015865D01*
X013034Y015787D02*
X010097Y015787D01*
X010064Y015708D02*
X013034Y015708D01*
X013034Y015630D02*
X010001Y015630D01*
X009862Y015551D02*
X013034Y015551D01*
X013034Y015473D02*
X008724Y015473D01*
X008724Y015482D02*
X008669Y015538D01*
X008582Y015625D01*
X008236Y015625D01*
X008180Y015569D01*
X008093Y015482D01*
X008093Y015192D01*
X008129Y015156D01*
X008093Y015120D01*
X008093Y014885D01*
X008157Y014821D01*
X008149Y014813D01*
X008093Y014757D01*
X008093Y014523D01*
X008180Y014435D01*
X008236Y014380D01*
X008637Y014380D01*
X008724Y014467D01*
X008724Y014590D01*
X008675Y014640D01*
X008724Y014690D01*
X008724Y014813D01*
X008688Y014849D01*
X008724Y014885D01*
X008724Y015120D01*
X008688Y015156D01*
X008724Y015192D01*
X008724Y015482D01*
X008724Y015394D02*
X013034Y015394D01*
X013034Y015316D02*
X008724Y015316D01*
X008724Y015237D02*
X013034Y015237D01*
X013034Y015159D02*
X008691Y015159D01*
X008724Y015080D02*
X013034Y015080D01*
X013034Y015002D02*
X008724Y015002D01*
X008724Y014923D02*
X013034Y014923D01*
X013034Y014845D02*
X008692Y014845D01*
X008724Y014766D02*
X013034Y014766D01*
X013023Y014688D02*
X008723Y014688D01*
X008705Y014609D02*
X012974Y014609D01*
X012954Y014531D02*
X008724Y014531D01*
X008710Y014452D02*
X012954Y014452D01*
X012984Y014374D02*
X009988Y014374D01*
X009965Y014397D02*
X009849Y014445D01*
X009724Y014445D01*
X009608Y014397D01*
X009519Y014308D01*
X009471Y014192D01*
X009471Y014067D01*
X009519Y013951D01*
X009608Y013862D01*
X009724Y013814D01*
X009849Y013814D01*
X009965Y013862D01*
X010054Y013951D01*
X010102Y014067D01*
X010102Y014192D01*
X010054Y014308D01*
X009965Y014397D01*
X010059Y014295D02*
X012936Y014295D01*
X012857Y014217D02*
X010092Y014217D01*
X010102Y014138D02*
X012472Y014138D01*
X012463Y014060D02*
X010099Y014060D01*
X010067Y013981D02*
X012487Y013981D01*
X012463Y013903D02*
X010006Y013903D01*
X009875Y013824D02*
X011668Y013824D01*
X011557Y013746D02*
X007666Y013746D01*
X007666Y013824D02*
X009698Y013824D01*
X009567Y013903D02*
X007666Y013903D01*
X007666Y013981D02*
X009506Y013981D01*
X009474Y014060D02*
X007666Y014060D01*
X007666Y014138D02*
X009471Y014138D01*
X009481Y014217D02*
X007666Y014217D01*
X007666Y014295D02*
X009514Y014295D01*
X009585Y014374D02*
X007666Y014374D01*
X007666Y014452D02*
X008163Y014452D01*
X008093Y014531D02*
X007666Y014531D01*
X007666Y014609D02*
X008093Y014609D01*
X008093Y014688D02*
X007666Y014688D01*
X007666Y014766D02*
X008102Y014766D01*
X008133Y014845D02*
X007666Y014845D01*
X007666Y014923D02*
X008093Y014923D01*
X008093Y015002D02*
X007666Y015002D01*
X007666Y015080D02*
X008093Y015080D01*
X008126Y015159D02*
X007666Y015159D01*
X007666Y015237D02*
X008093Y015237D01*
X008093Y015316D02*
X007666Y015316D01*
X007666Y015394D02*
X008093Y015394D01*
X008093Y015473D02*
X007666Y015473D01*
X007666Y015551D02*
X008162Y015551D01*
X007666Y015630D02*
X009572Y015630D01*
X009508Y015708D02*
X007666Y015708D01*
X007666Y015787D02*
X009476Y015787D01*
X009471Y015865D02*
X007666Y015865D01*
X007666Y015944D02*
X009479Y015944D01*
X009511Y016022D02*
X007666Y016022D01*
X007666Y016101D02*
X009579Y016101D01*
X009711Y015551D02*
X008655Y015551D01*
X009826Y016729D02*
X009928Y016686D01*
X010039Y016686D01*
X010141Y016729D01*
X010380Y017278D02*
X012877Y017278D01*
X012881Y017277D02*
X012991Y017277D01*
X012881Y017277D02*
X012779Y017319D01*
X012741Y017357D01*
X013429Y017278D02*
X013468Y017278D01*
X013429Y017200D02*
X016134Y017200D01*
X016134Y017246D02*
X016076Y017270D01*
X015998Y017348D01*
X015955Y017450D01*
X015955Y017561D01*
X015998Y017663D01*
X016076Y017741D01*
X016178Y017783D01*
X016289Y017783D01*
X016391Y017741D01*
X016469Y017663D01*
X016511Y017561D01*
X016511Y017488D01*
X016584Y017488D01*
X016686Y017446D01*
X016764Y017367D01*
X016806Y017265D01*
X016806Y017155D01*
X016764Y017053D01*
X016686Y016975D01*
X016677Y016971D01*
X016677Y016878D01*
X016934Y016620D01*
X018072Y016620D01*
X018072Y016724D01*
X018114Y016826D01*
X018192Y016904D01*
X018294Y016947D01*
X018405Y016947D01*
X018507Y016904D01*
X018585Y016826D01*
X018627Y016724D01*
X018627Y016614D01*
X018585Y016511D01*
X018570Y016497D01*
X018585Y016482D01*
X018627Y016380D01*
X018627Y016269D01*
X018585Y016167D01*
X018507Y016089D01*
X018405Y016047D01*
X018294Y016047D01*
X018192Y016089D01*
X018114Y016167D01*
X018110Y016176D01*
X016762Y016176D01*
X016676Y016263D01*
X016134Y016804D01*
X016134Y017246D01*
X016067Y017278D02*
X013585Y017278D01*
X013722Y017357D02*
X015994Y017357D01*
X015962Y017435D02*
X013778Y017435D01*
X013804Y017514D02*
X015955Y017514D01*
X015969Y017592D02*
X013804Y017592D01*
X013779Y017671D02*
X016006Y017671D01*
X016096Y017749D02*
X013725Y017749D01*
X013429Y017121D02*
X016134Y017121D01*
X016134Y017043D02*
X013429Y017043D01*
X013429Y016964D02*
X016134Y016964D01*
X016134Y016886D02*
X013429Y016886D01*
X013429Y016807D02*
X016134Y016807D01*
X016210Y016729D02*
X013429Y016729D01*
X013429Y016650D02*
X016288Y016650D01*
X016367Y016572D02*
X013429Y016572D01*
X013429Y016493D02*
X016445Y016493D01*
X016524Y016415D02*
X013429Y016415D01*
X013429Y016336D02*
X016602Y016336D01*
X016681Y016258D02*
X013429Y016258D01*
X013429Y016179D02*
X016759Y016179D01*
X016904Y016650D02*
X018072Y016650D01*
X018074Y016729D02*
X016826Y016729D01*
X016747Y016807D02*
X018106Y016807D01*
X018174Y016886D02*
X016677Y016886D01*
X016677Y016964D02*
X022329Y016964D01*
X022353Y016940D02*
X022266Y017027D01*
X022266Y017262D01*
X022321Y017317D01*
X022409Y017404D01*
X022754Y017404D01*
X022897Y017262D01*
X022897Y017027D01*
X022833Y016963D01*
X022897Y016899D01*
X022897Y016665D01*
X022861Y016628D01*
X022897Y016592D01*
X022897Y016469D01*
X022810Y016382D01*
X022699Y016382D01*
X022675Y016358D01*
X022675Y016322D01*
X022754Y016322D01*
X022897Y016179D01*
X022897Y016056D01*
X022866Y016024D01*
X022897Y015993D01*
X022897Y015758D01*
X022861Y015722D01*
X022897Y015686D01*
X022897Y015563D01*
X022848Y015513D01*
X022897Y015463D01*
X022897Y015340D01*
X022810Y015253D01*
X022687Y015253D01*
X022637Y015303D01*
X022587Y015253D01*
X022464Y015253D01*
X022377Y015340D01*
X022377Y015463D01*
X022427Y015513D01*
X022377Y015563D01*
X022377Y015686D01*
X022413Y015722D01*
X022377Y015758D01*
X022377Y015993D01*
X022409Y016024D01*
X022377Y016056D01*
X022321Y016111D01*
X022321Y016234D01*
X022377Y016290D01*
X022383Y016296D01*
X022377Y016302D01*
X022377Y016592D01*
X022413Y016628D01*
X022377Y016665D01*
X022377Y016899D01*
X022385Y016907D01*
X022353Y016940D01*
X022377Y016886D02*
X018525Y016886D01*
X018593Y016807D02*
X022377Y016807D01*
X022377Y016729D02*
X018625Y016729D01*
X018627Y016650D02*
X022391Y016650D01*
X022377Y016572D02*
X018610Y016572D01*
X018573Y016493D02*
X022377Y016493D01*
X022377Y016415D02*
X018613Y016415D01*
X018627Y016336D02*
X022377Y016336D01*
X022345Y016258D02*
X018623Y016258D01*
X018590Y016179D02*
X022321Y016179D01*
X022332Y016101D02*
X018519Y016101D01*
X018180Y016101D02*
X013429Y016101D01*
X013429Y016022D02*
X022407Y016022D01*
X022377Y015944D02*
X013429Y015944D01*
X013429Y015865D02*
X022377Y015865D01*
X022377Y015787D02*
X013429Y015787D01*
X013429Y015708D02*
X022400Y015708D01*
X022377Y015630D02*
X013429Y015630D01*
X013429Y015551D02*
X022389Y015551D01*
X022387Y015473D02*
X013429Y015473D01*
X013429Y015394D02*
X022377Y015394D01*
X022401Y015316D02*
X013429Y015316D01*
X013429Y015237D02*
X023369Y015237D01*
X023369Y015159D02*
X013429Y015159D01*
X013429Y015080D02*
X023369Y015080D01*
X023369Y015002D02*
X022856Y015002D01*
X022897Y014961D02*
X022810Y015048D01*
X022353Y015048D01*
X022266Y014961D01*
X022266Y014671D01*
X022353Y014584D01*
X022385Y014551D01*
X022377Y014543D01*
X022377Y014323D01*
X022353Y014323D01*
X022266Y014236D01*
X022266Y014113D01*
X022353Y014026D01*
X022377Y014026D01*
X022377Y013946D01*
X022413Y013910D01*
X022377Y013873D01*
X022377Y013750D01*
X022427Y013700D01*
X022377Y013651D01*
X022377Y013528D01*
X022413Y013491D01*
X022377Y013455D01*
X022377Y013165D01*
X022464Y013078D01*
X022866Y013078D01*
X022953Y013165D01*
X023009Y013221D01*
X023009Y013400D01*
X022921Y013487D01*
X022866Y013487D01*
X022861Y013491D01*
X022897Y013528D01*
X022897Y013818D01*
X022833Y013882D01*
X022842Y013890D01*
X022897Y013946D01*
X022897Y014236D01*
X022861Y014272D01*
X022897Y014308D01*
X022897Y014543D01*
X022842Y014598D01*
X022833Y014607D01*
X022842Y014615D01*
X022897Y014671D01*
X022897Y014961D01*
X022897Y014923D02*
X023369Y014923D01*
X023369Y014845D02*
X022897Y014845D01*
X022897Y014766D02*
X023369Y014766D01*
X023369Y014688D02*
X022897Y014688D01*
X022836Y014609D02*
X023369Y014609D01*
X023369Y014531D02*
X022897Y014531D01*
X022897Y014452D02*
X023369Y014452D01*
X023369Y014374D02*
X022897Y014374D01*
X022884Y014295D02*
X023369Y014295D01*
X023369Y014217D02*
X022897Y014217D01*
X022897Y014138D02*
X023369Y014138D01*
X023369Y014060D02*
X022897Y014060D01*
X022897Y013981D02*
X023369Y013981D01*
X023369Y013903D02*
X022854Y013903D01*
X022891Y013824D02*
X023369Y013824D01*
X023369Y013746D02*
X022897Y013746D01*
X022897Y013667D02*
X023369Y013667D01*
X023369Y013589D02*
X022897Y013589D01*
X022880Y013510D02*
X023369Y013510D01*
X023369Y013432D02*
X022976Y013432D01*
X023009Y013353D02*
X023369Y013353D01*
X023369Y013275D02*
X023009Y013275D01*
X022984Y013196D02*
X023369Y013196D01*
X023369Y013118D02*
X022906Y013118D01*
X023369Y013039D02*
X016298Y013039D01*
X016290Y013036D02*
X016395Y013080D01*
X016476Y013160D01*
X016519Y013265D01*
X016519Y013379D01*
X016476Y013484D01*
X016395Y013565D01*
X016290Y013608D01*
X016176Y013608D01*
X016071Y013565D01*
X015991Y013484D01*
X015947Y013379D01*
X015947Y013265D01*
X015991Y013160D01*
X016071Y013080D01*
X016176Y013036D01*
X016290Y013036D01*
X016169Y013039D02*
X015393Y013039D01*
X015393Y012961D02*
X023369Y012961D01*
X023369Y012882D02*
X015393Y012882D01*
X015393Y013118D02*
X016033Y013118D01*
X015976Y013196D02*
X015393Y013196D01*
X015393Y013275D02*
X015947Y013275D01*
X015947Y013353D02*
X015393Y013353D01*
X015393Y013432D02*
X015969Y013432D01*
X016017Y013510D02*
X015393Y013510D01*
X015393Y013589D02*
X016129Y013589D01*
X016337Y013589D02*
X022377Y013589D01*
X022394Y013667D02*
X015393Y013667D01*
X015339Y013746D02*
X022382Y013746D01*
X022377Y013824D02*
X014321Y013824D01*
X014321Y013903D02*
X022407Y013903D01*
X022377Y013981D02*
X014321Y013981D01*
X014376Y014060D02*
X022319Y014060D01*
X022266Y014138D02*
X014433Y014138D01*
X014433Y014217D02*
X022266Y014217D01*
X022325Y014295D02*
X016763Y014295D01*
X016393Y014295D02*
X014377Y014295D01*
X014336Y014766D02*
X013429Y014766D01*
X013429Y014845D02*
X014368Y014845D01*
X014439Y014923D02*
X013429Y014923D01*
X013429Y015002D02*
X022307Y015002D01*
X022266Y014923D02*
X014779Y014923D01*
X014850Y014845D02*
X019194Y014845D01*
X019105Y014766D02*
X016669Y014766D01*
X016487Y014766D02*
X014883Y014766D01*
X014470Y013746D02*
X014284Y013746D01*
X014301Y013667D02*
X014416Y013667D01*
X014416Y013589D02*
X014344Y013589D01*
X014376Y013510D02*
X014416Y013510D01*
X014416Y013432D02*
X014393Y013432D01*
X014393Y013353D02*
X014416Y013353D01*
X014416Y013196D02*
X014361Y013196D01*
X014328Y013118D02*
X014416Y013118D01*
X014416Y013039D02*
X014263Y013039D01*
X014184Y012961D02*
X014416Y012961D01*
X014416Y012882D02*
X013206Y012882D01*
X013284Y012961D02*
X013625Y012961D01*
X013546Y013039D02*
X013337Y013039D01*
X013370Y013118D02*
X013481Y013118D01*
X013448Y013196D02*
X013393Y013196D01*
X013393Y013353D02*
X013416Y013353D01*
X013416Y013432D02*
X013367Y013432D01*
X013335Y013510D02*
X013433Y013510D01*
X013465Y013589D02*
X013279Y013589D01*
X013201Y013667D02*
X013508Y013667D01*
X013446Y013746D02*
X013308Y013746D01*
X013345Y013824D02*
X013394Y013824D01*
X012608Y013667D02*
X012321Y013667D01*
X012367Y013589D02*
X012530Y013589D01*
X012474Y013510D02*
X012396Y013510D01*
X012411Y013432D02*
X012442Y013432D01*
X012416Y013353D02*
X011945Y013353D01*
X011945Y013432D02*
X011865Y013432D01*
X011865Y013510D02*
X011945Y013510D01*
X011945Y013589D02*
X011865Y013589D01*
X011865Y013667D02*
X011945Y013667D01*
X011945Y013746D02*
X011865Y013746D01*
X011865Y013824D02*
X011945Y013824D01*
X012141Y013824D02*
X012463Y013824D01*
X012500Y013746D02*
X012252Y013746D01*
X012405Y013275D02*
X012416Y013275D01*
X012416Y013196D02*
X012384Y013196D01*
X012347Y013118D02*
X012440Y013118D01*
X012472Y013039D02*
X012293Y013039D01*
X012206Y012961D02*
X012525Y012961D01*
X012603Y012882D02*
X012047Y012882D01*
X011762Y012882D02*
X007666Y012882D01*
X007666Y012961D02*
X011603Y012961D01*
X011516Y013039D02*
X007666Y013039D01*
X007635Y013118D02*
X011462Y013118D01*
X011425Y013196D02*
X007621Y013196D01*
X007621Y013275D02*
X011404Y013275D01*
X011395Y013332D02*
X011395Y013332D01*
X011395Y013412D02*
X011395Y013412D01*
X011398Y013432D02*
X007666Y013432D01*
X007666Y013510D02*
X011413Y013510D01*
X011442Y013589D02*
X007666Y013589D01*
X007666Y013667D02*
X011488Y013667D01*
X011865Y013353D02*
X007658Y013353D01*
X016433Y013118D02*
X022424Y013118D01*
X022377Y013196D02*
X016491Y013196D01*
X016519Y013275D02*
X022377Y013275D01*
X022377Y013353D02*
X016519Y013353D01*
X016498Y013432D02*
X022377Y013432D01*
X022394Y013510D02*
X016450Y013510D01*
X019498Y014374D02*
X022377Y014374D01*
X022377Y014452D02*
X019572Y014452D01*
X019605Y014531D02*
X022377Y014531D01*
X022327Y014609D02*
X019611Y014609D01*
X019599Y014688D02*
X022266Y014688D01*
X022266Y014766D02*
X019562Y014766D01*
X019473Y014845D02*
X022266Y014845D01*
X022873Y015316D02*
X023369Y015316D01*
X023369Y015394D02*
X022897Y015394D01*
X022888Y015473D02*
X023369Y015473D01*
X023369Y015551D02*
X022886Y015551D01*
X022897Y015630D02*
X023369Y015630D01*
X023369Y015708D02*
X022875Y015708D01*
X022897Y015787D02*
X023369Y015787D01*
X023369Y015865D02*
X022897Y015865D01*
X022897Y015944D02*
X023369Y015944D01*
X023369Y016022D02*
X022868Y016022D01*
X022897Y016101D02*
X023369Y016101D01*
X023369Y016179D02*
X022897Y016179D01*
X022818Y016258D02*
X023369Y016258D01*
X023369Y016336D02*
X022675Y016336D01*
X022843Y016415D02*
X023369Y016415D01*
X023369Y016493D02*
X022897Y016493D01*
X022897Y016572D02*
X023369Y016572D01*
X023369Y016650D02*
X022883Y016650D01*
X022897Y016729D02*
X023369Y016729D01*
X023369Y016807D02*
X022897Y016807D01*
X022897Y016886D02*
X023369Y016886D01*
X023369Y016964D02*
X022835Y016964D01*
X022897Y017043D02*
X023369Y017043D01*
X023369Y017121D02*
X022897Y017121D01*
X022897Y017200D02*
X023369Y017200D01*
X023369Y017278D02*
X022881Y017278D01*
X022802Y017357D02*
X023369Y017357D01*
X023369Y017435D02*
X016696Y017435D01*
X016768Y017357D02*
X022361Y017357D01*
X022283Y017278D02*
X016801Y017278D01*
X016806Y017200D02*
X022266Y017200D01*
X022266Y017121D02*
X016792Y017121D01*
X016754Y017043D02*
X022266Y017043D01*
X022291Y017671D02*
X016461Y017671D01*
X016498Y017592D02*
X023369Y017592D01*
X023369Y017514D02*
X016511Y017514D01*
X016370Y017749D02*
X022266Y017749D01*
X022872Y017671D02*
X023369Y017671D01*
X023369Y017749D02*
X022897Y017749D01*
X022889Y017828D02*
X023369Y017828D01*
X023369Y017906D02*
X022885Y017906D01*
X022897Y017985D02*
X023369Y017985D01*
X023369Y018063D02*
X022897Y018063D01*
X022897Y018142D02*
X023369Y018142D01*
X023369Y018220D02*
X022859Y018220D01*
X022897Y018299D02*
X023369Y018299D01*
X023369Y018377D02*
X022897Y018377D01*
X022897Y018456D02*
X023369Y018456D01*
X023369Y018534D02*
X022897Y018534D01*
X022866Y018613D02*
X023369Y018613D01*
X023369Y018691D02*
X022897Y018691D01*
X022895Y018770D02*
X023369Y018770D01*
X023369Y018848D02*
X022816Y018848D01*
X022458Y018848D02*
X020732Y018848D01*
X020732Y018770D02*
X022380Y018770D01*
X022301Y018691D02*
X020732Y018691D01*
X020732Y018613D02*
X022266Y018613D01*
X022266Y018534D02*
X020732Y018534D01*
X020681Y018456D02*
X022317Y018456D01*
X023369Y018927D02*
X020732Y018927D01*
X020691Y019005D02*
X023369Y019005D01*
X023369Y019084D02*
X017894Y019084D01*
X017957Y019005D02*
X019146Y019005D01*
X019362Y019005D02*
X020057Y019005D01*
X020016Y018927D02*
X019998Y018927D01*
X019737Y018927D02*
X019636Y018927D01*
X018710Y018927D02*
X018609Y018927D01*
X018347Y018927D02*
X018246Y018927D01*
X017325Y018927D02*
X017046Y018927D01*
X017046Y018848D02*
X017251Y018848D01*
X017251Y018770D02*
X017046Y018770D01*
X017046Y018691D02*
X017290Y018691D01*
X017251Y018613D02*
X017046Y018613D01*
X017046Y018534D02*
X017251Y018534D01*
X017303Y018456D02*
X016995Y018456D01*
X016633Y018456D02*
X016577Y018456D01*
D33*
X016233Y017505D03*
X016529Y017210D03*
X016086Y016078D03*
X015790Y014799D03*
X016578Y014503D03*
X018349Y014799D03*
X019334Y014602D03*
X018448Y013519D03*
X019383Y013027D03*
X020318Y013519D03*
X023172Y013027D03*
X023172Y014602D03*
X023172Y017358D03*
X023172Y018933D03*
X021204Y018933D03*
X018349Y017013D03*
X018349Y016669D03*
X018349Y016324D03*
X014609Y014700D03*
X013723Y014996D03*
X013231Y014503D03*
X011361Y014011D03*
X009786Y013027D03*
X007818Y013027D03*
X007818Y014996D03*
X007818Y016964D03*
X009983Y016964D03*
X010869Y018342D03*
X011804Y017998D03*
X012936Y017555D03*
X012936Y017259D03*
X013527Y017555D03*
X014019Y017062D03*
D34*
X016233Y017505D02*
X016282Y017456D01*
X016282Y016866D01*
X016824Y016324D01*
X018349Y016324D01*
X018153Y016472D02*
X018349Y016669D01*
X018153Y016472D02*
X016873Y016472D01*
X016529Y016816D01*
X016529Y017210D01*
D35*
X013527Y017555D02*
X013231Y017555D01*
X013231Y014503D01*
X014609Y014503D01*
X014609Y014700D01*
X014609Y014503D02*
X016578Y014503D01*
X019235Y014503D01*
X019334Y014602D01*
X013231Y017555D02*
X012936Y017555D01*
X010377Y017555D01*
X009983Y017161D01*
X009983Y016964D01*
M02*
