G75*
%MOIN*%
%OFA0B0*%
%FSLAX24Y24*%
%IPPOS*%
%LPD*%
%AMOC8*
5,1,8,0,0,1.08239X$1,22.5*
%
%ADD10C,0.0050*%
%ADD11C,0.0000*%
%ADD12C,0.0281*%
%ADD13C,0.0354*%
%ADD14R,0.1560X0.1560*%
%ADD15R,0.1250X0.1250*%
%ADD16C,0.0740*%
%ADD17R,0.0500X0.0250*%
%ADD18R,0.0472X0.0591*%
%ADD19R,0.0591X0.0591*%
%ADD20R,0.0200X0.0500*%
%ADD21OC8,0.0740*%
%ADD22R,0.1260X0.0500*%
%ADD23R,0.0600X0.1600*%
%ADD24C,0.0279*%
%ADD25C,0.0120*%
%ADD26C,0.0160*%
%ADD27R,0.0750X0.0750*%
%ADD28C,0.0750*%
%ADD29C,0.0500*%
D10*
X002625Y004169D02*
X037625Y004169D01*
X037701Y004171D01*
X037777Y004177D01*
X037852Y004186D01*
X037927Y004200D01*
X038001Y004217D01*
X038074Y004238D01*
X038146Y004262D01*
X038217Y004291D01*
X038286Y004322D01*
X038353Y004357D01*
X038418Y004396D01*
X038482Y004438D01*
X038543Y004483D01*
X038602Y004531D01*
X038658Y004582D01*
X038712Y004636D01*
X038763Y004692D01*
X038811Y004751D01*
X038856Y004812D01*
X038898Y004876D01*
X038937Y004941D01*
X038972Y005008D01*
X039003Y005077D01*
X039032Y005148D01*
X039056Y005220D01*
X039077Y005293D01*
X039094Y005367D01*
X039108Y005442D01*
X039117Y005517D01*
X039123Y005593D01*
X039125Y005669D01*
X039125Y017976D01*
X038515Y017976D01*
X038490Y017978D01*
X038465Y017983D01*
X038441Y017992D01*
X038419Y018004D01*
X038399Y018019D01*
X038381Y018037D01*
X038366Y018057D01*
X038354Y018079D01*
X038345Y018103D01*
X038340Y018128D01*
X038338Y018153D01*
X038340Y018178D01*
X038345Y018203D01*
X038354Y018227D01*
X038366Y018249D01*
X038381Y018269D01*
X038399Y018287D01*
X038419Y018302D01*
X038441Y018314D01*
X038465Y018323D01*
X038490Y018328D01*
X038515Y018330D01*
X039125Y018330D01*
X039125Y022669D01*
X039123Y022745D01*
X039117Y022821D01*
X039108Y022896D01*
X039094Y022971D01*
X039077Y023045D01*
X039056Y023118D01*
X039032Y023190D01*
X039003Y023261D01*
X038972Y023330D01*
X038937Y023397D01*
X038898Y023462D01*
X038856Y023526D01*
X038811Y023587D01*
X038763Y023646D01*
X038712Y023702D01*
X038658Y023756D01*
X038602Y023807D01*
X038543Y023855D01*
X038482Y023900D01*
X038418Y023942D01*
X038353Y023981D01*
X038286Y024016D01*
X038217Y024047D01*
X038146Y024076D01*
X038074Y024100D01*
X038001Y024121D01*
X037927Y024138D01*
X037852Y024152D01*
X037777Y024161D01*
X037701Y024167D01*
X037625Y024169D01*
X035869Y024169D01*
X035869Y023854D01*
X035475Y023854D01*
X035475Y024149D01*
X004767Y024149D01*
X004767Y023854D01*
X004373Y023854D01*
X004373Y024169D01*
X002625Y024169D01*
X002549Y024167D01*
X002473Y024161D01*
X002398Y024152D01*
X002323Y024138D01*
X002249Y024121D01*
X002176Y024100D01*
X002104Y024076D01*
X002033Y024047D01*
X001964Y024016D01*
X001897Y023981D01*
X001832Y023942D01*
X001768Y023900D01*
X001707Y023855D01*
X001648Y023807D01*
X001592Y023756D01*
X001538Y023702D01*
X001487Y023646D01*
X001439Y023587D01*
X001394Y023526D01*
X001352Y023462D01*
X001313Y023397D01*
X001278Y023330D01*
X001247Y023261D01*
X001218Y023190D01*
X001194Y023118D01*
X001173Y023045D01*
X001156Y022971D01*
X001142Y022896D01*
X001133Y022821D01*
X001127Y022745D01*
X001125Y022669D01*
X001125Y018330D01*
X001735Y018330D01*
X001760Y018328D01*
X001785Y018323D01*
X001809Y018314D01*
X001831Y018302D01*
X001851Y018287D01*
X001869Y018269D01*
X001884Y018249D01*
X001896Y018227D01*
X001905Y018203D01*
X001910Y018178D01*
X001912Y018153D01*
X001910Y018128D01*
X001905Y018103D01*
X001896Y018079D01*
X001884Y018057D01*
X001869Y018037D01*
X001851Y018019D01*
X001831Y018004D01*
X001809Y017992D01*
X001785Y017983D01*
X001760Y017978D01*
X001735Y017976D01*
X001125Y017976D01*
X001125Y005669D01*
X001127Y005593D01*
X001133Y005517D01*
X001142Y005442D01*
X001156Y005367D01*
X001173Y005293D01*
X001194Y005220D01*
X001218Y005148D01*
X001247Y005077D01*
X001278Y005008D01*
X001313Y004941D01*
X001352Y004876D01*
X001394Y004812D01*
X001439Y004751D01*
X001487Y004692D01*
X001538Y004636D01*
X001592Y004582D01*
X001648Y004531D01*
X001707Y004483D01*
X001768Y004438D01*
X001832Y004396D01*
X001897Y004357D01*
X001964Y004322D01*
X002033Y004291D01*
X002104Y004262D01*
X002176Y004238D01*
X002249Y004217D01*
X002323Y004200D01*
X002398Y004186D01*
X002473Y004177D01*
X002549Y004171D01*
X002625Y004169D01*
X007330Y012169D02*
X032920Y012169D01*
X032946Y012171D01*
X032971Y012176D01*
X032995Y012184D01*
X033019Y012195D01*
X033040Y012210D01*
X033059Y012227D01*
X033076Y012246D01*
X033091Y012268D01*
X033102Y012291D01*
X033110Y012315D01*
X033115Y012340D01*
X033117Y012366D01*
X033117Y013027D01*
X032719Y013027D01*
X032719Y012732D01*
X007523Y012732D01*
X007523Y013027D01*
X007133Y013027D01*
X007133Y012366D01*
X007135Y012340D01*
X007140Y012315D01*
X007148Y012291D01*
X007159Y012268D01*
X007174Y012246D01*
X007191Y012227D01*
X007210Y012210D01*
X007232Y012195D01*
X007255Y012184D01*
X007279Y012176D01*
X007304Y012171D01*
X007330Y012169D01*
X007523Y013421D02*
X007133Y013421D01*
X007133Y022082D01*
X007131Y022108D01*
X007126Y022133D01*
X007118Y022157D01*
X007107Y022181D01*
X007092Y022202D01*
X007075Y022221D01*
X007056Y022238D01*
X007035Y022253D01*
X007011Y022264D01*
X006987Y022272D01*
X006962Y022277D01*
X006936Y022279D01*
X004570Y022279D01*
X004544Y022281D01*
X004519Y022286D01*
X004495Y022294D01*
X004472Y022305D01*
X004450Y022320D01*
X004431Y022337D01*
X004414Y022356D01*
X004399Y022378D01*
X004388Y022401D01*
X004380Y022425D01*
X004375Y022450D01*
X004373Y022476D01*
X004373Y023460D01*
X004767Y023460D01*
X004767Y022771D01*
X007523Y022771D01*
X007523Y013421D01*
X032719Y013421D02*
X033117Y013421D01*
X033117Y022082D01*
X033119Y022108D01*
X033124Y022133D01*
X033132Y022157D01*
X033143Y022181D01*
X033158Y022202D01*
X033175Y022221D01*
X033194Y022238D01*
X033216Y022253D01*
X033239Y022264D01*
X033263Y022272D01*
X033288Y022277D01*
X033314Y022279D01*
X035672Y022279D01*
X035698Y022281D01*
X035723Y022286D01*
X035747Y022294D01*
X035771Y022305D01*
X035792Y022320D01*
X035811Y022337D01*
X035828Y022356D01*
X035843Y022378D01*
X035854Y022401D01*
X035862Y022425D01*
X035867Y022450D01*
X035869Y022476D01*
X035869Y023460D01*
X035475Y023460D01*
X035475Y022673D01*
X032719Y022673D01*
X032719Y013421D01*
D11*
X033511Y006787D02*
X033513Y006826D01*
X033519Y006865D01*
X033529Y006903D01*
X033542Y006940D01*
X033559Y006975D01*
X033579Y007009D01*
X033603Y007040D01*
X033630Y007069D01*
X033659Y007095D01*
X033691Y007118D01*
X033725Y007138D01*
X033761Y007154D01*
X033798Y007166D01*
X033837Y007175D01*
X033876Y007180D01*
X033915Y007181D01*
X033954Y007178D01*
X033993Y007171D01*
X034030Y007160D01*
X034067Y007146D01*
X034102Y007128D01*
X034135Y007107D01*
X034166Y007082D01*
X034194Y007055D01*
X034219Y007025D01*
X034241Y006992D01*
X034260Y006958D01*
X034275Y006922D01*
X034287Y006884D01*
X034295Y006846D01*
X034299Y006807D01*
X034299Y006767D01*
X034295Y006728D01*
X034287Y006690D01*
X034275Y006652D01*
X034260Y006616D01*
X034241Y006582D01*
X034219Y006549D01*
X034194Y006519D01*
X034166Y006492D01*
X034135Y006467D01*
X034102Y006446D01*
X034067Y006428D01*
X034030Y006414D01*
X033993Y006403D01*
X033954Y006396D01*
X033915Y006393D01*
X033876Y006394D01*
X033837Y006399D01*
X033798Y006408D01*
X033761Y006420D01*
X033725Y006436D01*
X033691Y006456D01*
X033659Y006479D01*
X033630Y006505D01*
X033603Y006534D01*
X033579Y006565D01*
X033559Y006599D01*
X033542Y006634D01*
X033529Y006671D01*
X033519Y006709D01*
X033513Y006748D01*
X033511Y006787D01*
X030926Y005387D02*
X030928Y005413D01*
X030934Y005439D01*
X030943Y005463D01*
X030956Y005486D01*
X030973Y005506D01*
X030992Y005524D01*
X031014Y005539D01*
X031037Y005550D01*
X031062Y005558D01*
X031088Y005562D01*
X031114Y005562D01*
X031140Y005558D01*
X031165Y005550D01*
X031189Y005539D01*
X031210Y005524D01*
X031229Y005506D01*
X031246Y005486D01*
X031259Y005463D01*
X031268Y005439D01*
X031274Y005413D01*
X031276Y005387D01*
X031274Y005361D01*
X031268Y005335D01*
X031259Y005311D01*
X031246Y005288D01*
X031229Y005268D01*
X031210Y005250D01*
X031188Y005235D01*
X031165Y005224D01*
X031140Y005216D01*
X031114Y005212D01*
X031088Y005212D01*
X031062Y005216D01*
X031037Y005224D01*
X031013Y005235D01*
X030992Y005250D01*
X030973Y005268D01*
X030956Y005288D01*
X030943Y005311D01*
X030934Y005335D01*
X030928Y005361D01*
X030926Y005387D01*
X027776Y005387D02*
X027778Y005413D01*
X027784Y005439D01*
X027793Y005463D01*
X027806Y005486D01*
X027823Y005506D01*
X027842Y005524D01*
X027864Y005539D01*
X027887Y005550D01*
X027912Y005558D01*
X027938Y005562D01*
X027964Y005562D01*
X027990Y005558D01*
X028015Y005550D01*
X028039Y005539D01*
X028060Y005524D01*
X028079Y005506D01*
X028096Y005486D01*
X028109Y005463D01*
X028118Y005439D01*
X028124Y005413D01*
X028126Y005387D01*
X028124Y005361D01*
X028118Y005335D01*
X028109Y005311D01*
X028096Y005288D01*
X028079Y005268D01*
X028060Y005250D01*
X028038Y005235D01*
X028015Y005224D01*
X027990Y005216D01*
X027964Y005212D01*
X027938Y005212D01*
X027912Y005216D01*
X027887Y005224D01*
X027863Y005235D01*
X027842Y005250D01*
X027823Y005268D01*
X027806Y005288D01*
X027793Y005311D01*
X027784Y005335D01*
X027778Y005361D01*
X027776Y005387D01*
X036739Y005669D02*
X036741Y005728D01*
X036747Y005787D01*
X036757Y005845D01*
X036770Y005903D01*
X036788Y005960D01*
X036809Y006015D01*
X036834Y006069D01*
X036863Y006121D01*
X036895Y006170D01*
X036930Y006218D01*
X036968Y006263D01*
X037009Y006306D01*
X037053Y006346D01*
X037099Y006382D01*
X037148Y006416D01*
X037199Y006446D01*
X037252Y006473D01*
X037307Y006496D01*
X037362Y006515D01*
X037420Y006531D01*
X037478Y006543D01*
X037536Y006551D01*
X037595Y006555D01*
X037655Y006555D01*
X037714Y006551D01*
X037772Y006543D01*
X037830Y006531D01*
X037888Y006515D01*
X037943Y006496D01*
X037998Y006473D01*
X038051Y006446D01*
X038102Y006416D01*
X038151Y006382D01*
X038197Y006346D01*
X038241Y006306D01*
X038282Y006263D01*
X038320Y006218D01*
X038355Y006170D01*
X038387Y006121D01*
X038416Y006069D01*
X038441Y006015D01*
X038462Y005960D01*
X038480Y005903D01*
X038493Y005845D01*
X038503Y005787D01*
X038509Y005728D01*
X038511Y005669D01*
X038509Y005610D01*
X038503Y005551D01*
X038493Y005493D01*
X038480Y005435D01*
X038462Y005378D01*
X038441Y005323D01*
X038416Y005269D01*
X038387Y005217D01*
X038355Y005168D01*
X038320Y005120D01*
X038282Y005075D01*
X038241Y005032D01*
X038197Y004992D01*
X038151Y004956D01*
X038102Y004922D01*
X038051Y004892D01*
X037998Y004865D01*
X037943Y004842D01*
X037888Y004823D01*
X037830Y004807D01*
X037772Y004795D01*
X037714Y004787D01*
X037655Y004783D01*
X037595Y004783D01*
X037536Y004787D01*
X037478Y004795D01*
X037420Y004807D01*
X037362Y004823D01*
X037307Y004842D01*
X037252Y004865D01*
X037199Y004892D01*
X037148Y004922D01*
X037099Y004956D01*
X037053Y004992D01*
X037009Y005032D01*
X036968Y005075D01*
X036930Y005120D01*
X036895Y005168D01*
X036863Y005217D01*
X036834Y005269D01*
X036809Y005323D01*
X036788Y005378D01*
X036770Y005435D01*
X036757Y005493D01*
X036747Y005551D01*
X036741Y005610D01*
X036739Y005669D01*
X033511Y021551D02*
X033513Y021590D01*
X033519Y021629D01*
X033529Y021667D01*
X033542Y021704D01*
X033559Y021739D01*
X033579Y021773D01*
X033603Y021804D01*
X033630Y021833D01*
X033659Y021859D01*
X033691Y021882D01*
X033725Y021902D01*
X033761Y021918D01*
X033798Y021930D01*
X033837Y021939D01*
X033876Y021944D01*
X033915Y021945D01*
X033954Y021942D01*
X033993Y021935D01*
X034030Y021924D01*
X034067Y021910D01*
X034102Y021892D01*
X034135Y021871D01*
X034166Y021846D01*
X034194Y021819D01*
X034219Y021789D01*
X034241Y021756D01*
X034260Y021722D01*
X034275Y021686D01*
X034287Y021648D01*
X034295Y021610D01*
X034299Y021571D01*
X034299Y021531D01*
X034295Y021492D01*
X034287Y021454D01*
X034275Y021416D01*
X034260Y021380D01*
X034241Y021346D01*
X034219Y021313D01*
X034194Y021283D01*
X034166Y021256D01*
X034135Y021231D01*
X034102Y021210D01*
X034067Y021192D01*
X034030Y021178D01*
X033993Y021167D01*
X033954Y021160D01*
X033915Y021157D01*
X033876Y021158D01*
X033837Y021163D01*
X033798Y021172D01*
X033761Y021184D01*
X033725Y021200D01*
X033691Y021220D01*
X033659Y021243D01*
X033630Y021269D01*
X033603Y021298D01*
X033579Y021329D01*
X033559Y021363D01*
X033542Y021398D01*
X033529Y021435D01*
X033519Y021473D01*
X033513Y021512D01*
X033511Y021551D01*
X036739Y022669D02*
X036741Y022728D01*
X036747Y022787D01*
X036757Y022845D01*
X036770Y022903D01*
X036788Y022960D01*
X036809Y023015D01*
X036834Y023069D01*
X036863Y023121D01*
X036895Y023170D01*
X036930Y023218D01*
X036968Y023263D01*
X037009Y023306D01*
X037053Y023346D01*
X037099Y023382D01*
X037148Y023416D01*
X037199Y023446D01*
X037252Y023473D01*
X037307Y023496D01*
X037362Y023515D01*
X037420Y023531D01*
X037478Y023543D01*
X037536Y023551D01*
X037595Y023555D01*
X037655Y023555D01*
X037714Y023551D01*
X037772Y023543D01*
X037830Y023531D01*
X037888Y023515D01*
X037943Y023496D01*
X037998Y023473D01*
X038051Y023446D01*
X038102Y023416D01*
X038151Y023382D01*
X038197Y023346D01*
X038241Y023306D01*
X038282Y023263D01*
X038320Y023218D01*
X038355Y023170D01*
X038387Y023121D01*
X038416Y023069D01*
X038441Y023015D01*
X038462Y022960D01*
X038480Y022903D01*
X038493Y022845D01*
X038503Y022787D01*
X038509Y022728D01*
X038511Y022669D01*
X038509Y022610D01*
X038503Y022551D01*
X038493Y022493D01*
X038480Y022435D01*
X038462Y022378D01*
X038441Y022323D01*
X038416Y022269D01*
X038387Y022217D01*
X038355Y022168D01*
X038320Y022120D01*
X038282Y022075D01*
X038241Y022032D01*
X038197Y021992D01*
X038151Y021956D01*
X038102Y021922D01*
X038051Y021892D01*
X037998Y021865D01*
X037943Y021842D01*
X037888Y021823D01*
X037830Y021807D01*
X037772Y021795D01*
X037714Y021787D01*
X037655Y021783D01*
X037595Y021783D01*
X037536Y021787D01*
X037478Y021795D01*
X037420Y021807D01*
X037362Y021823D01*
X037307Y021842D01*
X037252Y021865D01*
X037199Y021892D01*
X037148Y021922D01*
X037099Y021956D01*
X037053Y021992D01*
X037009Y022032D01*
X036968Y022075D01*
X036930Y022120D01*
X036895Y022168D01*
X036863Y022217D01*
X036834Y022269D01*
X036809Y022323D01*
X036788Y022378D01*
X036770Y022435D01*
X036757Y022493D01*
X036747Y022551D01*
X036741Y022610D01*
X036739Y022669D01*
X005951Y021551D02*
X005953Y021590D01*
X005959Y021629D01*
X005969Y021667D01*
X005982Y021704D01*
X005999Y021739D01*
X006019Y021773D01*
X006043Y021804D01*
X006070Y021833D01*
X006099Y021859D01*
X006131Y021882D01*
X006165Y021902D01*
X006201Y021918D01*
X006238Y021930D01*
X006277Y021939D01*
X006316Y021944D01*
X006355Y021945D01*
X006394Y021942D01*
X006433Y021935D01*
X006470Y021924D01*
X006507Y021910D01*
X006542Y021892D01*
X006575Y021871D01*
X006606Y021846D01*
X006634Y021819D01*
X006659Y021789D01*
X006681Y021756D01*
X006700Y021722D01*
X006715Y021686D01*
X006727Y021648D01*
X006735Y021610D01*
X006739Y021571D01*
X006739Y021531D01*
X006735Y021492D01*
X006727Y021454D01*
X006715Y021416D01*
X006700Y021380D01*
X006681Y021346D01*
X006659Y021313D01*
X006634Y021283D01*
X006606Y021256D01*
X006575Y021231D01*
X006542Y021210D01*
X006507Y021192D01*
X006470Y021178D01*
X006433Y021167D01*
X006394Y021160D01*
X006355Y021157D01*
X006316Y021158D01*
X006277Y021163D01*
X006238Y021172D01*
X006201Y021184D01*
X006165Y021200D01*
X006131Y021220D01*
X006099Y021243D01*
X006070Y021269D01*
X006043Y021298D01*
X006019Y021329D01*
X005999Y021363D01*
X005982Y021398D01*
X005969Y021435D01*
X005959Y021473D01*
X005953Y021512D01*
X005951Y021551D01*
X001739Y022669D02*
X001741Y022728D01*
X001747Y022787D01*
X001757Y022845D01*
X001770Y022903D01*
X001788Y022960D01*
X001809Y023015D01*
X001834Y023069D01*
X001863Y023121D01*
X001895Y023170D01*
X001930Y023218D01*
X001968Y023263D01*
X002009Y023306D01*
X002053Y023346D01*
X002099Y023382D01*
X002148Y023416D01*
X002199Y023446D01*
X002252Y023473D01*
X002307Y023496D01*
X002362Y023515D01*
X002420Y023531D01*
X002478Y023543D01*
X002536Y023551D01*
X002595Y023555D01*
X002655Y023555D01*
X002714Y023551D01*
X002772Y023543D01*
X002830Y023531D01*
X002888Y023515D01*
X002943Y023496D01*
X002998Y023473D01*
X003051Y023446D01*
X003102Y023416D01*
X003151Y023382D01*
X003197Y023346D01*
X003241Y023306D01*
X003282Y023263D01*
X003320Y023218D01*
X003355Y023170D01*
X003387Y023121D01*
X003416Y023069D01*
X003441Y023015D01*
X003462Y022960D01*
X003480Y022903D01*
X003493Y022845D01*
X003503Y022787D01*
X003509Y022728D01*
X003511Y022669D01*
X003509Y022610D01*
X003503Y022551D01*
X003493Y022493D01*
X003480Y022435D01*
X003462Y022378D01*
X003441Y022323D01*
X003416Y022269D01*
X003387Y022217D01*
X003355Y022168D01*
X003320Y022120D01*
X003282Y022075D01*
X003241Y022032D01*
X003197Y021992D01*
X003151Y021956D01*
X003102Y021922D01*
X003051Y021892D01*
X002998Y021865D01*
X002943Y021842D01*
X002888Y021823D01*
X002830Y021807D01*
X002772Y021795D01*
X002714Y021787D01*
X002655Y021783D01*
X002595Y021783D01*
X002536Y021787D01*
X002478Y021795D01*
X002420Y021807D01*
X002362Y021823D01*
X002307Y021842D01*
X002252Y021865D01*
X002199Y021892D01*
X002148Y021922D01*
X002099Y021956D01*
X002053Y021992D01*
X002009Y022032D01*
X001968Y022075D01*
X001930Y022120D01*
X001895Y022168D01*
X001863Y022217D01*
X001834Y022269D01*
X001809Y022323D01*
X001788Y022378D01*
X001770Y022435D01*
X001757Y022493D01*
X001747Y022551D01*
X001741Y022610D01*
X001739Y022669D01*
X005951Y006787D02*
X005953Y006826D01*
X005959Y006865D01*
X005969Y006903D01*
X005982Y006940D01*
X005999Y006975D01*
X006019Y007009D01*
X006043Y007040D01*
X006070Y007069D01*
X006099Y007095D01*
X006131Y007118D01*
X006165Y007138D01*
X006201Y007154D01*
X006238Y007166D01*
X006277Y007175D01*
X006316Y007180D01*
X006355Y007181D01*
X006394Y007178D01*
X006433Y007171D01*
X006470Y007160D01*
X006507Y007146D01*
X006542Y007128D01*
X006575Y007107D01*
X006606Y007082D01*
X006634Y007055D01*
X006659Y007025D01*
X006681Y006992D01*
X006700Y006958D01*
X006715Y006922D01*
X006727Y006884D01*
X006735Y006846D01*
X006739Y006807D01*
X006739Y006767D01*
X006735Y006728D01*
X006727Y006690D01*
X006715Y006652D01*
X006700Y006616D01*
X006681Y006582D01*
X006659Y006549D01*
X006634Y006519D01*
X006606Y006492D01*
X006575Y006467D01*
X006542Y006446D01*
X006507Y006428D01*
X006470Y006414D01*
X006433Y006403D01*
X006394Y006396D01*
X006355Y006393D01*
X006316Y006394D01*
X006277Y006399D01*
X006238Y006408D01*
X006201Y006420D01*
X006165Y006436D01*
X006131Y006456D01*
X006099Y006479D01*
X006070Y006505D01*
X006043Y006534D01*
X006019Y006565D01*
X005999Y006599D01*
X005982Y006634D01*
X005969Y006671D01*
X005959Y006709D01*
X005953Y006748D01*
X005951Y006787D01*
X001739Y005669D02*
X001741Y005728D01*
X001747Y005787D01*
X001757Y005845D01*
X001770Y005903D01*
X001788Y005960D01*
X001809Y006015D01*
X001834Y006069D01*
X001863Y006121D01*
X001895Y006170D01*
X001930Y006218D01*
X001968Y006263D01*
X002009Y006306D01*
X002053Y006346D01*
X002099Y006382D01*
X002148Y006416D01*
X002199Y006446D01*
X002252Y006473D01*
X002307Y006496D01*
X002362Y006515D01*
X002420Y006531D01*
X002478Y006543D01*
X002536Y006551D01*
X002595Y006555D01*
X002655Y006555D01*
X002714Y006551D01*
X002772Y006543D01*
X002830Y006531D01*
X002888Y006515D01*
X002943Y006496D01*
X002998Y006473D01*
X003051Y006446D01*
X003102Y006416D01*
X003151Y006382D01*
X003197Y006346D01*
X003241Y006306D01*
X003282Y006263D01*
X003320Y006218D01*
X003355Y006170D01*
X003387Y006121D01*
X003416Y006069D01*
X003441Y006015D01*
X003462Y005960D01*
X003480Y005903D01*
X003493Y005845D01*
X003503Y005787D01*
X003509Y005728D01*
X003511Y005669D01*
X003509Y005610D01*
X003503Y005551D01*
X003493Y005493D01*
X003480Y005435D01*
X003462Y005378D01*
X003441Y005323D01*
X003416Y005269D01*
X003387Y005217D01*
X003355Y005168D01*
X003320Y005120D01*
X003282Y005075D01*
X003241Y005032D01*
X003197Y004992D01*
X003151Y004956D01*
X003102Y004922D01*
X003051Y004892D01*
X002998Y004865D01*
X002943Y004842D01*
X002888Y004823D01*
X002830Y004807D01*
X002772Y004795D01*
X002714Y004787D01*
X002655Y004783D01*
X002595Y004783D01*
X002536Y004787D01*
X002478Y004795D01*
X002420Y004807D01*
X002362Y004823D01*
X002307Y004842D01*
X002252Y004865D01*
X002199Y004892D01*
X002148Y004922D01*
X002099Y004956D01*
X002053Y004992D01*
X002009Y005032D01*
X001968Y005075D01*
X001930Y005120D01*
X001895Y005168D01*
X001863Y005217D01*
X001834Y005269D01*
X001809Y005323D01*
X001788Y005378D01*
X001770Y005435D01*
X001757Y005493D01*
X001747Y005551D01*
X001741Y005610D01*
X001739Y005669D01*
D12*
X002641Y010279D02*
X002641Y010491D01*
X002735Y010491D01*
X002735Y010279D01*
X002641Y010279D01*
X002641Y012247D02*
X002641Y012459D01*
X002735Y012459D01*
X002735Y012247D01*
X002641Y012247D01*
D13*
X001753Y012747D02*
X001497Y012747D01*
X001497Y009991D02*
X001753Y009991D01*
D14*
X036558Y010862D03*
D15*
X036558Y013962D03*
X036558Y007762D03*
D16*
X035869Y004759D03*
X035771Y004759D03*
X023125Y011419D03*
X022125Y011419D03*
X021125Y011419D03*
X020125Y011419D03*
X019125Y011419D03*
X018125Y011419D03*
X017125Y011419D03*
X016125Y011419D03*
X015125Y011419D03*
X014125Y011419D03*
X013125Y011419D03*
X012125Y011419D03*
X011125Y011419D03*
X010125Y011419D03*
X009125Y011419D03*
X008125Y011419D03*
X010625Y021169D03*
X011625Y021169D03*
X012625Y021169D03*
D17*
X034590Y005503D03*
X034590Y005153D03*
X034590Y004803D03*
D18*
X032905Y007476D03*
X032905Y008696D03*
X032905Y009917D03*
D19*
X030503Y009307D03*
X030503Y008086D03*
D20*
X034475Y019951D03*
X034975Y019951D03*
X035475Y019951D03*
X035975Y019951D03*
X036475Y019951D03*
X036475Y021851D03*
X035975Y021851D03*
X035475Y021851D03*
X034975Y021851D03*
X034475Y021851D03*
D21*
X030956Y021645D03*
X029956Y021645D03*
X029956Y020645D03*
X030956Y020645D03*
X030956Y019645D03*
X029956Y019645D03*
X029956Y018645D03*
X030956Y018645D03*
X030956Y017645D03*
X029956Y017645D03*
X029956Y016645D03*
X030956Y016645D03*
X030956Y015645D03*
X029956Y015645D03*
X029956Y014645D03*
X030956Y014645D03*
X030956Y013645D03*
X029956Y013645D03*
X029956Y022645D03*
X030956Y022645D03*
D22*
X034633Y018169D03*
X034633Y017169D03*
X034633Y016169D03*
X036617Y016169D03*
X036617Y017169D03*
X036617Y018169D03*
X005617Y018169D03*
X005617Y017169D03*
X005617Y016169D03*
X003633Y016169D03*
X003633Y017169D03*
X003633Y018169D03*
D23*
X010625Y023169D03*
X012625Y023169D03*
D24*
X004964Y018834D03*
X003881Y018637D03*
X006145Y017653D03*
X004078Y016669D03*
X005357Y015685D03*
X004570Y015586D03*
X004176Y014405D03*
X003684Y014011D03*
X002208Y012929D03*
X002995Y012830D03*
X004865Y012043D03*
X005849Y012929D03*
X006342Y012929D03*
X006145Y010763D03*
X006145Y010271D03*
X005062Y010763D03*
X003881Y009681D03*
X002798Y009877D03*
X002208Y010173D03*
X002208Y010566D03*
X005062Y008696D03*
X005456Y007909D03*
X005259Y007515D03*
X004275Y007417D03*
X003625Y006590D03*
X002306Y007712D03*
X005653Y005842D03*
X006440Y005055D03*
X006538Y004661D03*
X007719Y005547D03*
X008113Y005645D03*
X008507Y005645D03*
X008901Y005645D03*
X009688Y004464D03*
X010082Y004464D03*
X010672Y005350D03*
X010377Y005547D03*
X010968Y005153D03*
X010377Y005940D03*
X010672Y006236D03*
X011066Y006334D03*
X011164Y006728D03*
X011460Y006925D03*
X011853Y006925D03*
X011853Y006531D03*
X012247Y006925D03*
X012641Y006826D03*
X011558Y007318D03*
X011361Y008303D03*
X011755Y008303D03*
X011361Y008696D03*
X011066Y008893D03*
X011361Y009090D03*
X010574Y008007D03*
X009885Y008007D03*
X009393Y007515D03*
X008704Y007614D03*
X008113Y007614D03*
X007424Y007220D03*
X007326Y006433D03*
X006932Y006433D03*
X007326Y008598D03*
X006046Y008696D03*
X008704Y009090D03*
X009491Y010074D03*
X009786Y010271D03*
X010574Y010370D03*
X012739Y009976D03*
X013034Y009188D03*
X014117Y009877D03*
X015790Y008696D03*
X016381Y009188D03*
X014609Y008106D03*
X014117Y008106D03*
X013822Y007220D03*
X016086Y007614D03*
X018940Y009779D03*
X020121Y009779D03*
X022188Y008696D03*
X021991Y007909D03*
X021991Y007515D03*
X020810Y007811D03*
X020515Y007515D03*
X023861Y009779D03*
X025338Y008696D03*
X025338Y008204D03*
X025338Y007811D03*
X025338Y007417D03*
X026617Y007811D03*
X026617Y008204D03*
X026125Y009385D03*
X026125Y009877D03*
X028684Y009188D03*
X029078Y009188D03*
X029471Y009188D03*
X029964Y009188D03*
X029570Y008795D03*
X029964Y008598D03*
X031145Y008795D03*
X031932Y007811D03*
X031834Y007417D03*
X031440Y007220D03*
X029964Y005842D03*
X029865Y005448D03*
X030160Y005251D03*
X030456Y005055D03*
X030751Y004858D03*
X029570Y005645D03*
X027405Y005350D03*
X026322Y005055D03*
X026027Y004858D03*
X032424Y008893D03*
X031538Y009976D03*
X030554Y010468D03*
X032916Y010468D03*
X035475Y010862D03*
X037838Y009385D03*
X036656Y008696D03*
X034983Y006137D03*
X034590Y005940D03*
X034097Y005153D03*
X033999Y004661D03*
X033212Y004956D03*
X036656Y004661D03*
X037838Y013224D03*
X037247Y014799D03*
X036263Y016669D03*
X035377Y016669D03*
X034983Y016669D03*
X034590Y017653D03*
X033999Y017653D03*
X035672Y018244D03*
X035771Y019425D03*
X035279Y019523D03*
X034885Y019523D03*
X034491Y019425D03*
X034097Y019818D03*
X033408Y019720D03*
X033507Y020409D03*
X033507Y020901D03*
X034688Y021393D03*
X035180Y021393D03*
X036460Y021393D03*
X036853Y020212D03*
X037739Y018933D03*
X037542Y017948D03*
X037641Y017161D03*
X027601Y017653D03*
X003684Y004759D03*
X001912Y015685D03*
X002306Y020507D03*
D25*
X004964Y018834D02*
X005617Y018181D01*
X005617Y018169D01*
X006145Y017653D02*
X006538Y017653D01*
X006637Y017555D01*
X006637Y013421D01*
X006834Y013224D01*
X006834Y007417D01*
X007129Y007122D01*
X007129Y006629D01*
X007326Y006433D01*
X006932Y006433D02*
X006932Y007023D01*
X006637Y007318D01*
X006637Y013125D01*
X006440Y013322D01*
X006440Y016472D01*
X006342Y016570D01*
X004767Y016570D01*
X004570Y016767D01*
X004570Y017456D01*
X003857Y018169D01*
X003633Y018169D01*
X003633Y017169D02*
X003633Y017114D01*
X004078Y016669D01*
X005357Y015685D02*
X005617Y015944D01*
X005617Y016169D01*
X004570Y015586D02*
X004570Y008598D01*
X005259Y007909D01*
X005456Y007909D01*
X005259Y007515D02*
X004373Y008401D01*
X004373Y014208D01*
X004176Y014405D01*
X002208Y012929D02*
X002026Y012747D01*
X001625Y012747D01*
X002688Y012523D02*
X002688Y012353D01*
X002688Y012523D02*
X002995Y012830D01*
X002208Y010173D02*
X002026Y009991D01*
X001625Y009991D01*
X003625Y006590D02*
X003625Y006393D01*
X003881Y006137D01*
X008408Y006137D01*
X010279Y008007D01*
X010279Y008204D01*
X010968Y008893D01*
X011066Y008893D01*
X011361Y008696D02*
X011656Y008992D01*
X011656Y009287D01*
X012641Y010271D01*
X015692Y010271D01*
X015889Y010468D01*
X016578Y010468D01*
X016775Y010665D01*
X017464Y010665D01*
X017660Y010862D01*
X018349Y010862D01*
X018906Y011419D01*
X019125Y011419D01*
X019334Y010862D02*
X018645Y010862D01*
X018448Y010665D01*
X017759Y010665D01*
X017562Y010468D01*
X016873Y010468D01*
X016676Y010271D01*
X015987Y010271D01*
X015790Y010074D01*
X014708Y010074D01*
X013527Y008893D01*
X012641Y008893D01*
X012149Y008401D01*
X012050Y008401D01*
X011853Y008598D01*
X011656Y008598D01*
X011361Y008303D01*
X011755Y008303D02*
X011853Y008204D01*
X012247Y008204D01*
X012739Y008696D01*
X013625Y008696D01*
X014806Y009877D01*
X015889Y009877D01*
X016086Y010074D01*
X016775Y010074D01*
X016971Y010271D01*
X017660Y010271D01*
X017857Y010468D01*
X018546Y010468D01*
X018743Y010665D01*
X019432Y010665D01*
X019629Y010862D01*
X020416Y010862D01*
X020973Y011419D01*
X021125Y011419D01*
X021401Y010862D02*
X020712Y010862D01*
X020515Y010665D01*
X019727Y010665D01*
X019531Y010468D01*
X018842Y010468D01*
X018645Y010271D01*
X017956Y010271D01*
X017759Y010074D01*
X017070Y010074D01*
X016873Y009877D01*
X016184Y009877D01*
X015987Y009681D01*
X014905Y009681D01*
X013723Y008499D01*
X012838Y008499D01*
X012345Y008007D01*
X010574Y008007D01*
X009885Y008007D02*
X009885Y008106D01*
X012444Y010665D01*
X015495Y010665D01*
X015692Y010862D01*
X016381Y010862D01*
X016938Y011419D01*
X017125Y011419D01*
X017365Y010862D02*
X016676Y010862D01*
X016479Y010665D01*
X015790Y010665D01*
X015594Y010468D01*
X012542Y010468D01*
X011361Y009287D01*
X011361Y009090D01*
X010377Y009779D02*
X011125Y010527D01*
X011125Y011419D01*
X012125Y011419D02*
X012125Y011232D01*
X009688Y008795D01*
X008999Y008795D01*
X008704Y009090D01*
X009491Y010074D02*
X009786Y009779D01*
X010377Y009779D01*
X009393Y007909D02*
X012345Y010862D01*
X015397Y010862D01*
X015954Y011419D01*
X016125Y011419D01*
X017365Y010862D02*
X017922Y011419D01*
X018125Y011419D01*
X019334Y010862D02*
X019891Y011419D01*
X020125Y011419D01*
X020810Y010665D02*
X021499Y010665D01*
X021696Y010862D01*
X022385Y010862D01*
X022942Y011419D01*
X023125Y011419D01*
X022125Y011419D02*
X021958Y011419D01*
X021401Y010862D01*
X020810Y010665D02*
X020613Y010468D01*
X019826Y010468D01*
X019629Y010271D01*
X018940Y010271D01*
X018743Y010074D01*
X018054Y010074D01*
X017857Y009877D01*
X017168Y009877D01*
X016971Y009681D01*
X016282Y009681D01*
X016086Y009484D01*
X015003Y009484D01*
X014117Y008598D01*
X014117Y008106D01*
X013428Y006728D02*
X012542Y007614D01*
X011066Y007614D01*
X009097Y005645D01*
X008901Y005645D01*
X007719Y005547D02*
X006932Y005547D01*
X006440Y005055D01*
X009688Y004606D02*
X009688Y004464D01*
X009688Y004606D02*
X009940Y004858D01*
X010082Y004858D01*
X010574Y004366D01*
X031145Y004366D01*
X031637Y004858D01*
X031637Y006236D01*
X031735Y006334D01*
X031735Y007318D01*
X031834Y007417D01*
X031440Y007220D02*
X031440Y004956D01*
X031046Y004562D01*
X011755Y004562D01*
X011460Y004858D01*
X011263Y004858D01*
X010968Y005153D01*
X011263Y005251D02*
X010869Y005645D01*
X010475Y005645D01*
X010377Y005547D01*
X010672Y005940D02*
X010771Y005842D01*
X010968Y005842D01*
X011361Y005448D01*
X011460Y005448D01*
X011952Y004956D01*
X025633Y004956D01*
X025830Y005153D01*
X026223Y005153D01*
X026322Y005055D01*
X026420Y005350D02*
X027011Y004759D01*
X030653Y004759D01*
X030751Y004858D01*
X030456Y005055D02*
X030357Y004956D01*
X027109Y004956D01*
X026519Y005547D01*
X025633Y005547D01*
X025436Y005350D01*
X012247Y005350D01*
X011755Y005842D01*
X011558Y005842D01*
X011066Y006334D01*
X011066Y006039D02*
X010968Y006039D01*
X010771Y006236D01*
X010672Y006236D01*
X010672Y005940D02*
X010377Y005940D01*
X011066Y006039D02*
X011460Y005645D01*
X011656Y005645D01*
X012149Y005153D01*
X025534Y005153D01*
X025731Y005350D01*
X026420Y005350D01*
X026027Y004858D02*
X025928Y004759D01*
X011853Y004759D01*
X011361Y005251D01*
X011263Y005251D01*
X011656Y006039D02*
X011361Y006334D01*
X011361Y006531D01*
X011164Y006728D01*
X011460Y006925D02*
X011558Y006826D01*
X011558Y006433D01*
X011755Y006236D01*
X011952Y006236D01*
X012444Y005744D01*
X025239Y005744D01*
X025436Y005940D01*
X028192Y005940D01*
X028782Y005350D01*
X029767Y005350D01*
X029865Y005448D01*
X030062Y005153D02*
X030160Y005251D01*
X030062Y005153D02*
X028684Y005153D01*
X028094Y005744D01*
X025534Y005744D01*
X025338Y005547D01*
X012345Y005547D01*
X011853Y006039D01*
X011656Y006039D01*
X011853Y006531D02*
X011952Y006531D01*
X012542Y005940D01*
X025141Y005940D01*
X025338Y006137D01*
X028290Y006137D01*
X028881Y005547D01*
X029471Y005547D01*
X029570Y005645D01*
X029964Y005842D02*
X029471Y006334D01*
X025239Y006334D01*
X025042Y006137D01*
X012641Y006137D01*
X011853Y006925D01*
X012247Y006925D02*
X012247Y006826D01*
X012739Y006334D01*
X024944Y006334D01*
X025141Y006531D01*
X030160Y006531D01*
X031834Y008204D01*
X035082Y008204D01*
X035279Y008007D01*
X036312Y008007D01*
X036558Y007762D01*
X034590Y005940D02*
X034590Y005503D01*
X034590Y005153D02*
X034097Y005153D01*
X034141Y004803D02*
X033999Y004661D01*
X034141Y004803D02*
X034590Y004803D01*
X035869Y004759D02*
X036558Y004759D01*
X036656Y004661D01*
X032905Y007476D02*
X032570Y007811D01*
X031932Y007811D01*
X031538Y008204D02*
X031538Y009976D01*
X030633Y009307D02*
X031145Y008795D01*
X030503Y008153D01*
X030503Y008086D01*
X029964Y008598D02*
X029865Y008499D01*
X026519Y008499D01*
X026125Y008106D01*
X026027Y008106D01*
X025338Y007417D01*
X025338Y007811D02*
X025830Y008303D01*
X026027Y008303D01*
X026420Y008696D01*
X029471Y008696D01*
X029570Y008795D01*
X029078Y008893D02*
X029078Y009188D01*
X029078Y008893D02*
X026322Y008893D01*
X025928Y008499D01*
X025731Y008499D01*
X025436Y008204D01*
X025338Y008204D01*
X025338Y008696D02*
X025830Y008696D01*
X026617Y009484D01*
X029668Y009484D01*
X029964Y009188D01*
X030503Y009307D02*
X030633Y009307D01*
X031538Y008204D02*
X030062Y006728D01*
X025042Y006728D01*
X024845Y006531D01*
X013330Y006531D01*
X012542Y007318D01*
X011558Y007318D01*
X013428Y006728D02*
X024747Y006728D01*
X024944Y006925D01*
X025239Y006925D01*
X026519Y008204D01*
X026617Y008204D01*
X021991Y007909D02*
X021893Y007811D01*
X020810Y007811D01*
X020515Y007515D02*
X021991Y007515D01*
X009393Y007515D02*
X009393Y007909D01*
X027601Y017653D02*
X027798Y017850D01*
X027798Y019523D01*
X028920Y020645D01*
X029956Y020645D01*
X034097Y019818D02*
X034230Y019951D01*
X034475Y019951D01*
X034975Y019951D02*
X034975Y019614D01*
X034885Y019523D01*
X035279Y019523D02*
X035475Y019720D01*
X035475Y019951D01*
X036475Y019951D02*
X036475Y019440D01*
X035672Y018637D01*
X035672Y018244D01*
X034633Y018169D02*
X034633Y017696D01*
X034590Y017653D01*
X034633Y017169D02*
X034499Y017169D01*
X034483Y017169D02*
X033999Y017653D01*
X034483Y017169D02*
X034633Y017169D01*
X034983Y016669D02*
X034983Y016519D01*
X034633Y016169D01*
X036263Y016523D02*
X036617Y016169D01*
X036263Y016523D02*
X036263Y016669D01*
X036617Y017169D02*
X037633Y017169D01*
X037641Y017161D01*
X037542Y017948D02*
X037322Y018169D01*
X036617Y018169D01*
X035180Y021393D02*
X035475Y021688D01*
X035475Y021851D01*
X034975Y021851D02*
X034975Y021598D01*
X035180Y021393D01*
X034688Y021393D02*
X034475Y021606D01*
X034475Y021851D01*
X035475Y010862D02*
X036558Y010862D01*
D26*
X032916Y010468D02*
X032916Y009929D01*
X032905Y009917D01*
X036460Y021393D02*
X036460Y021851D01*
X036475Y021851D01*
X002798Y009877D02*
X002685Y009991D01*
X002688Y010385D01*
D27*
X008125Y012169D03*
X009125Y012169D03*
X010125Y012169D03*
X011125Y012169D03*
X012125Y012169D03*
X013125Y012169D03*
X014125Y012169D03*
X015125Y012169D03*
X016125Y012169D03*
X017125Y012169D03*
X018125Y012169D03*
X019125Y012169D03*
X020125Y012169D03*
X021125Y012169D03*
X022125Y012169D03*
X023125Y012169D03*
D28*
X023125Y011419D01*
X022125Y011419D02*
X022125Y012169D01*
X021125Y012169D02*
X021125Y011419D01*
X020125Y011419D02*
X020125Y012169D01*
X019125Y012169D02*
X019125Y011419D01*
X018125Y011419D02*
X018125Y012169D01*
X017125Y012169D02*
X017125Y011419D01*
X016125Y011419D02*
X016125Y012169D01*
X015125Y012169D02*
X015125Y011419D01*
X014125Y011419D02*
X014125Y012169D01*
X013125Y012169D02*
X013125Y011419D01*
X012125Y011419D02*
X012125Y012169D01*
X011125Y012169D02*
X011125Y011419D01*
X010125Y011419D02*
X010125Y012169D01*
X009125Y012169D02*
X009125Y011419D01*
X008125Y011419D02*
X008125Y012169D01*
D29*
X010625Y021169D02*
X010625Y023169D01*
X012625Y023169D02*
X012625Y021169D01*
M02*
