%
M48
M72
T01C0.0079
T02C0.0118
T03C0.0335
T04C0.0350
T05C0.0394
T06C0.0400
T07C0.0500
T08C0.0787
T09C0.1772
%
T01
X36656Y4661
X36460Y21393
X35180Y21393
X34688Y21393
X33507Y20901
X33507Y20409
X33408Y19720
X34097Y19818
X34491Y19425
X34885Y19523
X35279Y19523
X35771Y19425
X36853Y20212
X37739Y18933
X37542Y17948
X37641Y17161
X36263Y16669
X35377Y16669
X34983Y16669
X34590Y17653
X33999Y17653
X35672Y18244
X37247Y14799
X37838Y13224
X35475Y10862
X37838Y9385
X36656Y8696
X34590Y5940
X34983Y6137
X34097Y5153
X33999Y4661
X33212Y4956
X30751Y4858
X30456Y5055
X30160Y5251
X29865Y5448
X29570Y5645
X29964Y5842
X31440Y7220
X31834Y7417
X31932Y7811
X31145Y8795
X29964Y8598
X29570Y8795
X29471Y9188
X29078Y9188
X28684Y9188
X29964Y9188
X30554Y10468
X31538Y9976
X32916Y10468
X32424Y8893
X3684Y4759
X5653Y5842
X6440Y5055
X6538Y4661
X7719Y5547
X8113Y5645
X8507Y5645
X8901Y5645
X9688Y4464
X10082Y4464
X10672Y5350
X10377Y5547
X10968Y5153
X10377Y5940
X10672Y6236
X11066Y6334
X11164Y6728
X11460Y6925
X11853Y6925
X11853Y6531
X12247Y6925
X12641Y6826
X11558Y7318
X11361Y8303
X11755Y8303
X11361Y8696
X11066Y8893
X11361Y9090
X10574Y8007
X9885Y8007
X9393Y7515
X8704Y7614
X8113Y7614
X7424Y7220
X5259Y7515
X5456Y7909
X5062Y8696
X6046Y8696
X7326Y8598
X8704Y9090
X9491Y10074
X9786Y10271
X10574Y10370
X12739Y9976
X13034Y9188
X14117Y9877
X15790Y8696
X16381Y9188
X14609Y8106
X14117Y8106
X13822Y7220
X16086Y7614
X18940Y9779
X20121Y9779
X22188Y8696
X21991Y7909
X21991Y7515
X20810Y7811
X20515Y7515
X23861Y9779
X25338Y8696
X25338Y8204
X25338Y7811
X25338Y7417
X26617Y7811
X26617Y8204
X26125Y9385
X26125Y9877
X27405Y5350
X26322Y5055
X26027Y4858
X6145Y17653
X4964Y18834
X3881Y18637
X2306Y20507
X5357Y15685
X4570Y15586
X4078Y16669
X1912Y15685
X3684Y14011
X4176Y14405
X5849Y12929
X6342Y12929
X6145Y10763
X6145Y10271
X5062Y10763
X3881Y9681
X2798Y9877
X2208Y10173
X2208Y10566
X4865Y12043
X2995Y12830
X2208Y12929
X2306Y7712
X3625Y6590
X4275Y7417
X6932Y6433
X7326Y6433
X27601Y17653
T02
X23172Y18933
X21204Y18933
X23172Y17358
X23172Y14602
X23172Y13027
X20318Y13519
X19383Y13027
X18448Y13519
X18349Y14799
X19334Y14602
X18349Y16324
X18349Y16669
X18349Y17013
X16529Y17210
X16233Y17505
X16086Y16078
X15790Y14799
X16578Y14503
X14609Y14700
X13723Y14996
X13231Y14503
X11361Y14011
X9786Y13027
X7818Y13027
X14019Y17062
X13527Y17555
X12936Y17555
X12936Y17259
X11804Y17998
X10869Y18342
X9983Y16964
X7818Y14996
X7818Y16964
T03
X16233Y13322
X12149Y18342
T04
X31101Y5387
X27951Y5387
T05
X9786Y14129
X9786Y15862
T06
X35869Y4759
X35771Y4759
X30956Y21645
X29956Y21645
X29956Y20645
X30956Y20645
X30956Y19645
X29956Y19645
X29956Y18645
X30956Y18645
X30956Y17645
X29956Y17645
X29956Y16645
X30956Y16645
X30956Y15645
X29956Y15645
X29956Y14645
X30956Y14645
X30956Y13645
X29956Y13645
X8125Y11419
X9125Y11419
X10125Y11419
X11125Y11419
X12125Y11419
X13125Y11419
X14125Y11419
X15125Y11419
X16125Y11419
X17125Y11419
X18125Y11419
X19125Y11419
X20125Y11419
X21125Y11419
X22125Y11419
X23125Y11419
X14905Y13272
X13905Y13372
X12905Y13272
X11905Y13372
X11625Y21169
X10625Y21169
X12625Y21169
X29956Y22645
X30956Y22645
T07
X23125Y12169
X22125Y12169
X21125Y12169
X20125Y12169
X19125Y12169
X18125Y12169
X17125Y12169
X16125Y12169
X15125Y12169
X14125Y12169
X13125Y12169
X12125Y12169
X11125Y12169
X10125Y12169
X9125Y12169
X8125Y12169
T08
X33905Y21551
X6345Y21551
X6345Y6787
X33905Y6787
T09
X37625Y5669
X37625Y22669
X2625Y5669
X2625Y22669
M30
