G75*
%MOIN*%
%OFA0B0*%
%FSLAX24Y24*%
%IPPOS*%
%LPD*%
%AMOC8*
5,1,8,0,0,1.08239X$1,22.5*
%
%ADD10C,0.0050*%
%ADD11C,0.0000*%
%ADD12C,0.0079*%
%ADD13C,0.0160*%
D10*
X002625Y004169D02*
X037625Y004169D01*
X037701Y004171D01*
X037777Y004177D01*
X037852Y004186D01*
X037927Y004200D01*
X038001Y004217D01*
X038074Y004238D01*
X038146Y004262D01*
X038217Y004291D01*
X038286Y004322D01*
X038353Y004357D01*
X038418Y004396D01*
X038482Y004438D01*
X038543Y004483D01*
X038602Y004531D01*
X038658Y004582D01*
X038712Y004636D01*
X038763Y004692D01*
X038811Y004751D01*
X038856Y004812D01*
X038898Y004876D01*
X038937Y004941D01*
X038972Y005008D01*
X039003Y005077D01*
X039032Y005148D01*
X039056Y005220D01*
X039077Y005293D01*
X039094Y005367D01*
X039108Y005442D01*
X039117Y005517D01*
X039123Y005593D01*
X039125Y005669D01*
X039125Y017976D01*
X038515Y017976D01*
X038490Y017978D01*
X038465Y017983D01*
X038441Y017992D01*
X038419Y018004D01*
X038399Y018019D01*
X038381Y018037D01*
X038366Y018057D01*
X038354Y018079D01*
X038345Y018103D01*
X038340Y018128D01*
X038338Y018153D01*
X038340Y018178D01*
X038345Y018203D01*
X038354Y018227D01*
X038366Y018249D01*
X038381Y018269D01*
X038399Y018287D01*
X038419Y018302D01*
X038441Y018314D01*
X038465Y018323D01*
X038490Y018328D01*
X038515Y018330D01*
X039125Y018330D01*
X039125Y022669D01*
X039123Y022745D01*
X039117Y022821D01*
X039108Y022896D01*
X039094Y022971D01*
X039077Y023045D01*
X039056Y023118D01*
X039032Y023190D01*
X039003Y023261D01*
X038972Y023330D01*
X038937Y023397D01*
X038898Y023462D01*
X038856Y023526D01*
X038811Y023587D01*
X038763Y023646D01*
X038712Y023702D01*
X038658Y023756D01*
X038602Y023807D01*
X038543Y023855D01*
X038482Y023900D01*
X038418Y023942D01*
X038353Y023981D01*
X038286Y024016D01*
X038217Y024047D01*
X038146Y024076D01*
X038074Y024100D01*
X038001Y024121D01*
X037927Y024138D01*
X037852Y024152D01*
X037777Y024161D01*
X037701Y024167D01*
X037625Y024169D01*
X035869Y024169D01*
X035869Y023854D01*
X035475Y023854D01*
X035475Y024149D01*
X004767Y024149D01*
X004767Y023854D01*
X004373Y023854D01*
X004373Y024169D01*
X002625Y024169D01*
X002549Y024167D01*
X002473Y024161D01*
X002398Y024152D01*
X002323Y024138D01*
X002249Y024121D01*
X002176Y024100D01*
X002104Y024076D01*
X002033Y024047D01*
X001964Y024016D01*
X001897Y023981D01*
X001832Y023942D01*
X001768Y023900D01*
X001707Y023855D01*
X001648Y023807D01*
X001592Y023756D01*
X001538Y023702D01*
X001487Y023646D01*
X001439Y023587D01*
X001394Y023526D01*
X001352Y023462D01*
X001313Y023397D01*
X001278Y023330D01*
X001247Y023261D01*
X001218Y023190D01*
X001194Y023118D01*
X001173Y023045D01*
X001156Y022971D01*
X001142Y022896D01*
X001133Y022821D01*
X001127Y022745D01*
X001125Y022669D01*
X001125Y018330D01*
X001735Y018330D01*
X001760Y018328D01*
X001785Y018323D01*
X001809Y018314D01*
X001831Y018302D01*
X001851Y018287D01*
X001869Y018269D01*
X001884Y018249D01*
X001896Y018227D01*
X001905Y018203D01*
X001910Y018178D01*
X001912Y018153D01*
X001910Y018128D01*
X001905Y018103D01*
X001896Y018079D01*
X001884Y018057D01*
X001869Y018037D01*
X001851Y018019D01*
X001831Y018004D01*
X001809Y017992D01*
X001785Y017983D01*
X001760Y017978D01*
X001735Y017976D01*
X001125Y017976D01*
X001125Y005669D01*
X001127Y005593D01*
X001133Y005517D01*
X001142Y005442D01*
X001156Y005367D01*
X001173Y005293D01*
X001194Y005220D01*
X001218Y005148D01*
X001247Y005077D01*
X001278Y005008D01*
X001313Y004941D01*
X001352Y004876D01*
X001394Y004812D01*
X001439Y004751D01*
X001487Y004692D01*
X001538Y004636D01*
X001592Y004582D01*
X001648Y004531D01*
X001707Y004483D01*
X001768Y004438D01*
X001832Y004396D01*
X001897Y004357D01*
X001964Y004322D01*
X002033Y004291D01*
X002104Y004262D01*
X002176Y004238D01*
X002249Y004217D01*
X002323Y004200D01*
X002398Y004186D01*
X002473Y004177D01*
X002549Y004171D01*
X002625Y004169D01*
X001100Y009369D02*
X000125Y009369D01*
X000125Y013369D01*
X001100Y013369D01*
X001100Y009369D01*
X001497Y009892D02*
X001753Y009892D01*
X001753Y009893D02*
X001770Y009894D01*
X001787Y009899D01*
X001802Y009906D01*
X001816Y009916D01*
X001828Y009928D01*
X001838Y009942D01*
X001845Y009957D01*
X001850Y009974D01*
X001851Y009991D01*
X001850Y010008D01*
X001845Y010025D01*
X001838Y010040D01*
X001828Y010054D01*
X001816Y010066D01*
X001802Y010076D01*
X001787Y010083D01*
X001770Y010088D01*
X001753Y010089D01*
X001497Y010089D01*
X001399Y009991D02*
X001400Y009974D01*
X001405Y009957D01*
X001412Y009942D01*
X001422Y009928D01*
X001434Y009916D01*
X001448Y009906D01*
X001463Y009899D01*
X001480Y009894D01*
X001497Y009893D01*
X001399Y009991D02*
X001400Y010008D01*
X001405Y010025D01*
X001412Y010040D01*
X001422Y010054D01*
X001434Y010066D01*
X001448Y010076D01*
X001463Y010083D01*
X001480Y010088D01*
X001497Y010089D01*
X002580Y010325D02*
X002580Y010444D01*
X002688Y010552D02*
X002707Y010550D01*
X002725Y010545D01*
X002742Y010538D01*
X002757Y010527D01*
X002771Y010513D01*
X002782Y010498D01*
X002789Y010481D01*
X002794Y010463D01*
X002796Y010444D01*
X002796Y010325D01*
X002688Y010217D02*
X002669Y010219D01*
X002651Y010224D01*
X002634Y010231D01*
X002619Y010242D01*
X002605Y010256D01*
X002594Y010271D01*
X002587Y010288D01*
X002582Y010306D01*
X002580Y010325D01*
X002688Y010217D02*
X002707Y010219D01*
X002725Y010224D01*
X002742Y010231D01*
X002757Y010242D01*
X002771Y010256D01*
X002782Y010271D01*
X002789Y010288D01*
X002794Y010306D01*
X002796Y010325D01*
X002580Y010444D02*
X002582Y010463D01*
X002587Y010481D01*
X002594Y010498D01*
X002605Y010513D01*
X002619Y010527D01*
X002634Y010538D01*
X002651Y010545D01*
X002669Y010550D01*
X002688Y010552D01*
X002698Y012186D02*
X002688Y012186D01*
X002669Y012188D01*
X002651Y012193D01*
X002634Y012200D01*
X002619Y012211D01*
X002605Y012225D01*
X002594Y012240D01*
X002587Y012257D01*
X002582Y012275D01*
X002580Y012294D01*
X002580Y012412D01*
X002582Y012431D01*
X002587Y012449D01*
X002594Y012466D01*
X002605Y012481D01*
X002619Y012495D01*
X002634Y012506D01*
X002651Y012513D01*
X002669Y012518D01*
X002688Y012520D01*
X002698Y012520D01*
X002717Y012518D01*
X002735Y012513D01*
X002752Y012506D01*
X002767Y012495D01*
X002781Y012481D01*
X002792Y012466D01*
X002799Y012449D01*
X002804Y012431D01*
X002806Y012412D01*
X002806Y012294D01*
X002804Y012275D01*
X002799Y012257D01*
X002792Y012240D01*
X002781Y012225D01*
X002767Y012211D01*
X002752Y012200D01*
X002735Y012193D01*
X002717Y012188D01*
X002698Y012186D01*
X001753Y012648D02*
X001497Y012648D01*
X001399Y012747D02*
X001400Y012764D01*
X001405Y012781D01*
X001412Y012796D01*
X001422Y012810D01*
X001434Y012822D01*
X001448Y012832D01*
X001463Y012839D01*
X001480Y012844D01*
X001497Y012845D01*
X001753Y012845D01*
X001851Y012747D02*
X001850Y012730D01*
X001845Y012713D01*
X001838Y012698D01*
X001828Y012684D01*
X001816Y012672D01*
X001802Y012662D01*
X001787Y012655D01*
X001770Y012650D01*
X001753Y012649D01*
X001851Y012747D02*
X001850Y012764D01*
X001845Y012781D01*
X001838Y012796D01*
X001828Y012810D01*
X001816Y012822D01*
X001802Y012832D01*
X001787Y012839D01*
X001770Y012844D01*
X001753Y012845D01*
X001497Y012649D02*
X001480Y012650D01*
X001463Y012655D01*
X001448Y012662D01*
X001434Y012672D01*
X001422Y012684D01*
X001412Y012698D01*
X001405Y012713D01*
X001400Y012730D01*
X001399Y012747D01*
X004908Y013169D02*
X004908Y015169D01*
X005996Y015169D01*
X005996Y013169D01*
X004908Y013169D01*
X007133Y013027D02*
X007133Y012366D01*
X007135Y012340D01*
X007140Y012315D01*
X007148Y012291D01*
X007159Y012268D01*
X007174Y012246D01*
X007191Y012227D01*
X007210Y012210D01*
X007232Y012195D01*
X007255Y012184D01*
X007279Y012176D01*
X007304Y012171D01*
X007330Y012169D01*
X032920Y012169D01*
X032946Y012171D01*
X032971Y012176D01*
X032995Y012184D01*
X033019Y012195D01*
X033040Y012210D01*
X033059Y012227D01*
X033076Y012246D01*
X033091Y012268D01*
X033102Y012291D01*
X033110Y012315D01*
X033115Y012340D01*
X033117Y012366D01*
X033117Y013027D01*
X032719Y013027D01*
X032719Y012732D01*
X007523Y012732D01*
X007523Y013027D01*
X007133Y013027D01*
X007133Y013421D02*
X007523Y013421D01*
X007523Y022771D01*
X004767Y022771D01*
X004767Y023460D01*
X004373Y023460D01*
X004373Y022476D01*
X004375Y022450D01*
X004380Y022425D01*
X004388Y022401D01*
X004399Y022378D01*
X004414Y022356D01*
X004431Y022337D01*
X004450Y022320D01*
X004472Y022305D01*
X004495Y022294D01*
X004519Y022286D01*
X004544Y022281D01*
X004570Y022279D01*
X006936Y022279D01*
X006962Y022277D01*
X006987Y022272D01*
X007011Y022264D01*
X007035Y022253D01*
X007056Y022238D01*
X007075Y022221D01*
X007092Y022202D01*
X007107Y022181D01*
X007118Y022157D01*
X007126Y022133D01*
X007131Y022108D01*
X007133Y022082D01*
X007133Y013421D01*
X032719Y013421D02*
X033117Y013421D01*
X033117Y022082D01*
X033119Y022108D01*
X033124Y022133D01*
X033132Y022157D01*
X033143Y022181D01*
X033158Y022202D01*
X033175Y022221D01*
X033194Y022238D01*
X033216Y022253D01*
X033239Y022264D01*
X033263Y022272D01*
X033288Y022277D01*
X033314Y022279D01*
X035672Y022279D01*
X035698Y022281D01*
X035723Y022286D01*
X035747Y022294D01*
X035771Y022305D01*
X035792Y022320D01*
X035811Y022337D01*
X035828Y022356D01*
X035843Y022378D01*
X035854Y022401D01*
X035862Y022425D01*
X035867Y022450D01*
X035869Y022476D01*
X035869Y023460D01*
X035475Y023460D01*
X035475Y022673D01*
X032719Y022673D01*
X032719Y013421D01*
X034254Y013169D02*
X034254Y015169D01*
X035342Y015169D01*
X035342Y013169D01*
X034254Y013169D01*
D11*
X033511Y006787D02*
X033513Y006826D01*
X033519Y006865D01*
X033529Y006903D01*
X033542Y006940D01*
X033559Y006975D01*
X033579Y007009D01*
X033603Y007040D01*
X033630Y007069D01*
X033659Y007095D01*
X033691Y007118D01*
X033725Y007138D01*
X033761Y007154D01*
X033798Y007166D01*
X033837Y007175D01*
X033876Y007180D01*
X033915Y007181D01*
X033954Y007178D01*
X033993Y007171D01*
X034030Y007160D01*
X034067Y007146D01*
X034102Y007128D01*
X034135Y007107D01*
X034166Y007082D01*
X034194Y007055D01*
X034219Y007025D01*
X034241Y006992D01*
X034260Y006958D01*
X034275Y006922D01*
X034287Y006884D01*
X034295Y006846D01*
X034299Y006807D01*
X034299Y006767D01*
X034295Y006728D01*
X034287Y006690D01*
X034275Y006652D01*
X034260Y006616D01*
X034241Y006582D01*
X034219Y006549D01*
X034194Y006519D01*
X034166Y006492D01*
X034135Y006467D01*
X034102Y006446D01*
X034067Y006428D01*
X034030Y006414D01*
X033993Y006403D01*
X033954Y006396D01*
X033915Y006393D01*
X033876Y006394D01*
X033837Y006399D01*
X033798Y006408D01*
X033761Y006420D01*
X033725Y006436D01*
X033691Y006456D01*
X033659Y006479D01*
X033630Y006505D01*
X033603Y006534D01*
X033579Y006565D01*
X033559Y006599D01*
X033542Y006634D01*
X033529Y006671D01*
X033519Y006709D01*
X033513Y006748D01*
X033511Y006787D01*
X030926Y005387D02*
X030928Y005413D01*
X030934Y005439D01*
X030943Y005463D01*
X030956Y005486D01*
X030973Y005506D01*
X030992Y005524D01*
X031014Y005539D01*
X031037Y005550D01*
X031062Y005558D01*
X031088Y005562D01*
X031114Y005562D01*
X031140Y005558D01*
X031165Y005550D01*
X031189Y005539D01*
X031210Y005524D01*
X031229Y005506D01*
X031246Y005486D01*
X031259Y005463D01*
X031268Y005439D01*
X031274Y005413D01*
X031276Y005387D01*
X031274Y005361D01*
X031268Y005335D01*
X031259Y005311D01*
X031246Y005288D01*
X031229Y005268D01*
X031210Y005250D01*
X031188Y005235D01*
X031165Y005224D01*
X031140Y005216D01*
X031114Y005212D01*
X031088Y005212D01*
X031062Y005216D01*
X031037Y005224D01*
X031013Y005235D01*
X030992Y005250D01*
X030973Y005268D01*
X030956Y005288D01*
X030943Y005311D01*
X030934Y005335D01*
X030928Y005361D01*
X030926Y005387D01*
X027776Y005387D02*
X027778Y005413D01*
X027784Y005439D01*
X027793Y005463D01*
X027806Y005486D01*
X027823Y005506D01*
X027842Y005524D01*
X027864Y005539D01*
X027887Y005550D01*
X027912Y005558D01*
X027938Y005562D01*
X027964Y005562D01*
X027990Y005558D01*
X028015Y005550D01*
X028039Y005539D01*
X028060Y005524D01*
X028079Y005506D01*
X028096Y005486D01*
X028109Y005463D01*
X028118Y005439D01*
X028124Y005413D01*
X028126Y005387D01*
X028124Y005361D01*
X028118Y005335D01*
X028109Y005311D01*
X028096Y005288D01*
X028079Y005268D01*
X028060Y005250D01*
X028038Y005235D01*
X028015Y005224D01*
X027990Y005216D01*
X027964Y005212D01*
X027938Y005212D01*
X027912Y005216D01*
X027887Y005224D01*
X027863Y005235D01*
X027842Y005250D01*
X027823Y005268D01*
X027806Y005288D01*
X027793Y005311D01*
X027784Y005335D01*
X027778Y005361D01*
X027776Y005387D01*
X036739Y005669D02*
X036741Y005728D01*
X036747Y005787D01*
X036757Y005845D01*
X036770Y005903D01*
X036788Y005960D01*
X036809Y006015D01*
X036834Y006069D01*
X036863Y006121D01*
X036895Y006170D01*
X036930Y006218D01*
X036968Y006263D01*
X037009Y006306D01*
X037053Y006346D01*
X037099Y006382D01*
X037148Y006416D01*
X037199Y006446D01*
X037252Y006473D01*
X037307Y006496D01*
X037362Y006515D01*
X037420Y006531D01*
X037478Y006543D01*
X037536Y006551D01*
X037595Y006555D01*
X037655Y006555D01*
X037714Y006551D01*
X037772Y006543D01*
X037830Y006531D01*
X037888Y006515D01*
X037943Y006496D01*
X037998Y006473D01*
X038051Y006446D01*
X038102Y006416D01*
X038151Y006382D01*
X038197Y006346D01*
X038241Y006306D01*
X038282Y006263D01*
X038320Y006218D01*
X038355Y006170D01*
X038387Y006121D01*
X038416Y006069D01*
X038441Y006015D01*
X038462Y005960D01*
X038480Y005903D01*
X038493Y005845D01*
X038503Y005787D01*
X038509Y005728D01*
X038511Y005669D01*
X038509Y005610D01*
X038503Y005551D01*
X038493Y005493D01*
X038480Y005435D01*
X038462Y005378D01*
X038441Y005323D01*
X038416Y005269D01*
X038387Y005217D01*
X038355Y005168D01*
X038320Y005120D01*
X038282Y005075D01*
X038241Y005032D01*
X038197Y004992D01*
X038151Y004956D01*
X038102Y004922D01*
X038051Y004892D01*
X037998Y004865D01*
X037943Y004842D01*
X037888Y004823D01*
X037830Y004807D01*
X037772Y004795D01*
X037714Y004787D01*
X037655Y004783D01*
X037595Y004783D01*
X037536Y004787D01*
X037478Y004795D01*
X037420Y004807D01*
X037362Y004823D01*
X037307Y004842D01*
X037252Y004865D01*
X037199Y004892D01*
X037148Y004922D01*
X037099Y004956D01*
X037053Y004992D01*
X037009Y005032D01*
X036968Y005075D01*
X036930Y005120D01*
X036895Y005168D01*
X036863Y005217D01*
X036834Y005269D01*
X036809Y005323D01*
X036788Y005378D01*
X036770Y005435D01*
X036757Y005493D01*
X036747Y005551D01*
X036741Y005610D01*
X036739Y005669D01*
X016066Y013322D02*
X016068Y013347D01*
X016074Y013372D01*
X016083Y013396D01*
X016096Y013418D01*
X016113Y013438D01*
X016132Y013455D01*
X016153Y013469D01*
X016177Y013479D01*
X016201Y013486D01*
X016227Y013489D01*
X016252Y013488D01*
X016277Y013483D01*
X016301Y013474D01*
X016324Y013462D01*
X016344Y013447D01*
X016362Y013428D01*
X016377Y013407D01*
X016388Y013384D01*
X016396Y013360D01*
X016400Y013335D01*
X016400Y013309D01*
X016396Y013284D01*
X016388Y013260D01*
X016377Y013237D01*
X016362Y013216D01*
X016344Y013197D01*
X016324Y013182D01*
X016301Y013170D01*
X016277Y013161D01*
X016252Y013156D01*
X016227Y013155D01*
X016201Y013158D01*
X016177Y013165D01*
X016153Y013175D01*
X016132Y013189D01*
X016113Y013206D01*
X016096Y013226D01*
X016083Y013248D01*
X016074Y013272D01*
X016068Y013297D01*
X016066Y013322D01*
X009589Y014129D02*
X009591Y014156D01*
X009597Y014183D01*
X009606Y014209D01*
X009619Y014233D01*
X009635Y014256D01*
X009654Y014275D01*
X009676Y014292D01*
X009700Y014306D01*
X009725Y014316D01*
X009752Y014323D01*
X009779Y014326D01*
X009807Y014325D01*
X009834Y014320D01*
X009860Y014312D01*
X009884Y014300D01*
X009907Y014284D01*
X009928Y014266D01*
X009945Y014245D01*
X009960Y014221D01*
X009971Y014196D01*
X009979Y014170D01*
X009983Y014143D01*
X009983Y014115D01*
X009979Y014088D01*
X009971Y014062D01*
X009960Y014037D01*
X009945Y014013D01*
X009928Y013992D01*
X009907Y013974D01*
X009885Y013958D01*
X009860Y013946D01*
X009834Y013938D01*
X009807Y013933D01*
X009779Y013932D01*
X009752Y013935D01*
X009725Y013942D01*
X009700Y013952D01*
X009676Y013966D01*
X009654Y013983D01*
X009635Y014002D01*
X009619Y014025D01*
X009606Y014049D01*
X009597Y014075D01*
X009591Y014102D01*
X009589Y014129D01*
X009589Y015862D02*
X009591Y015889D01*
X009597Y015916D01*
X009606Y015942D01*
X009619Y015966D01*
X009635Y015989D01*
X009654Y016008D01*
X009676Y016025D01*
X009700Y016039D01*
X009725Y016049D01*
X009752Y016056D01*
X009779Y016059D01*
X009807Y016058D01*
X009834Y016053D01*
X009860Y016045D01*
X009884Y016033D01*
X009907Y016017D01*
X009928Y015999D01*
X009945Y015978D01*
X009960Y015954D01*
X009971Y015929D01*
X009979Y015903D01*
X009983Y015876D01*
X009983Y015848D01*
X009979Y015821D01*
X009971Y015795D01*
X009960Y015770D01*
X009945Y015746D01*
X009928Y015725D01*
X009907Y015707D01*
X009885Y015691D01*
X009860Y015679D01*
X009834Y015671D01*
X009807Y015666D01*
X009779Y015665D01*
X009752Y015668D01*
X009725Y015675D01*
X009700Y015685D01*
X009676Y015699D01*
X009654Y015716D01*
X009635Y015735D01*
X009619Y015758D01*
X009606Y015782D01*
X009597Y015808D01*
X009591Y015835D01*
X009589Y015862D01*
X011982Y018342D02*
X011984Y018367D01*
X011990Y018392D01*
X011999Y018416D01*
X012012Y018438D01*
X012029Y018458D01*
X012048Y018475D01*
X012069Y018489D01*
X012093Y018499D01*
X012117Y018506D01*
X012143Y018509D01*
X012168Y018508D01*
X012193Y018503D01*
X012217Y018494D01*
X012240Y018482D01*
X012260Y018467D01*
X012278Y018448D01*
X012293Y018427D01*
X012304Y018404D01*
X012312Y018380D01*
X012316Y018355D01*
X012316Y018329D01*
X012312Y018304D01*
X012304Y018280D01*
X012293Y018257D01*
X012278Y018236D01*
X012260Y018217D01*
X012240Y018202D01*
X012217Y018190D01*
X012193Y018181D01*
X012168Y018176D01*
X012143Y018175D01*
X012117Y018178D01*
X012093Y018185D01*
X012069Y018195D01*
X012048Y018209D01*
X012029Y018226D01*
X012012Y018246D01*
X011999Y018268D01*
X011990Y018292D01*
X011984Y018317D01*
X011982Y018342D01*
X005951Y021551D02*
X005953Y021590D01*
X005959Y021629D01*
X005969Y021667D01*
X005982Y021704D01*
X005999Y021739D01*
X006019Y021773D01*
X006043Y021804D01*
X006070Y021833D01*
X006099Y021859D01*
X006131Y021882D01*
X006165Y021902D01*
X006201Y021918D01*
X006238Y021930D01*
X006277Y021939D01*
X006316Y021944D01*
X006355Y021945D01*
X006394Y021942D01*
X006433Y021935D01*
X006470Y021924D01*
X006507Y021910D01*
X006542Y021892D01*
X006575Y021871D01*
X006606Y021846D01*
X006634Y021819D01*
X006659Y021789D01*
X006681Y021756D01*
X006700Y021722D01*
X006715Y021686D01*
X006727Y021648D01*
X006735Y021610D01*
X006739Y021571D01*
X006739Y021531D01*
X006735Y021492D01*
X006727Y021454D01*
X006715Y021416D01*
X006700Y021380D01*
X006681Y021346D01*
X006659Y021313D01*
X006634Y021283D01*
X006606Y021256D01*
X006575Y021231D01*
X006542Y021210D01*
X006507Y021192D01*
X006470Y021178D01*
X006433Y021167D01*
X006394Y021160D01*
X006355Y021157D01*
X006316Y021158D01*
X006277Y021163D01*
X006238Y021172D01*
X006201Y021184D01*
X006165Y021200D01*
X006131Y021220D01*
X006099Y021243D01*
X006070Y021269D01*
X006043Y021298D01*
X006019Y021329D01*
X005999Y021363D01*
X005982Y021398D01*
X005969Y021435D01*
X005959Y021473D01*
X005953Y021512D01*
X005951Y021551D01*
X001739Y022669D02*
X001741Y022728D01*
X001747Y022787D01*
X001757Y022845D01*
X001770Y022903D01*
X001788Y022960D01*
X001809Y023015D01*
X001834Y023069D01*
X001863Y023121D01*
X001895Y023170D01*
X001930Y023218D01*
X001968Y023263D01*
X002009Y023306D01*
X002053Y023346D01*
X002099Y023382D01*
X002148Y023416D01*
X002199Y023446D01*
X002252Y023473D01*
X002307Y023496D01*
X002362Y023515D01*
X002420Y023531D01*
X002478Y023543D01*
X002536Y023551D01*
X002595Y023555D01*
X002655Y023555D01*
X002714Y023551D01*
X002772Y023543D01*
X002830Y023531D01*
X002888Y023515D01*
X002943Y023496D01*
X002998Y023473D01*
X003051Y023446D01*
X003102Y023416D01*
X003151Y023382D01*
X003197Y023346D01*
X003241Y023306D01*
X003282Y023263D01*
X003320Y023218D01*
X003355Y023170D01*
X003387Y023121D01*
X003416Y023069D01*
X003441Y023015D01*
X003462Y022960D01*
X003480Y022903D01*
X003493Y022845D01*
X003503Y022787D01*
X003509Y022728D01*
X003511Y022669D01*
X003509Y022610D01*
X003503Y022551D01*
X003493Y022493D01*
X003480Y022435D01*
X003462Y022378D01*
X003441Y022323D01*
X003416Y022269D01*
X003387Y022217D01*
X003355Y022168D01*
X003320Y022120D01*
X003282Y022075D01*
X003241Y022032D01*
X003197Y021992D01*
X003151Y021956D01*
X003102Y021922D01*
X003051Y021892D01*
X002998Y021865D01*
X002943Y021842D01*
X002888Y021823D01*
X002830Y021807D01*
X002772Y021795D01*
X002714Y021787D01*
X002655Y021783D01*
X002595Y021783D01*
X002536Y021787D01*
X002478Y021795D01*
X002420Y021807D01*
X002362Y021823D01*
X002307Y021842D01*
X002252Y021865D01*
X002199Y021892D01*
X002148Y021922D01*
X002099Y021956D01*
X002053Y021992D01*
X002009Y022032D01*
X001968Y022075D01*
X001930Y022120D01*
X001895Y022168D01*
X001863Y022217D01*
X001834Y022269D01*
X001809Y022323D01*
X001788Y022378D01*
X001770Y022435D01*
X001757Y022493D01*
X001747Y022551D01*
X001741Y022610D01*
X001739Y022669D01*
X005951Y006787D02*
X005953Y006826D01*
X005959Y006865D01*
X005969Y006903D01*
X005982Y006940D01*
X005999Y006975D01*
X006019Y007009D01*
X006043Y007040D01*
X006070Y007069D01*
X006099Y007095D01*
X006131Y007118D01*
X006165Y007138D01*
X006201Y007154D01*
X006238Y007166D01*
X006277Y007175D01*
X006316Y007180D01*
X006355Y007181D01*
X006394Y007178D01*
X006433Y007171D01*
X006470Y007160D01*
X006507Y007146D01*
X006542Y007128D01*
X006575Y007107D01*
X006606Y007082D01*
X006634Y007055D01*
X006659Y007025D01*
X006681Y006992D01*
X006700Y006958D01*
X006715Y006922D01*
X006727Y006884D01*
X006735Y006846D01*
X006739Y006807D01*
X006739Y006767D01*
X006735Y006728D01*
X006727Y006690D01*
X006715Y006652D01*
X006700Y006616D01*
X006681Y006582D01*
X006659Y006549D01*
X006634Y006519D01*
X006606Y006492D01*
X006575Y006467D01*
X006542Y006446D01*
X006507Y006428D01*
X006470Y006414D01*
X006433Y006403D01*
X006394Y006396D01*
X006355Y006393D01*
X006316Y006394D01*
X006277Y006399D01*
X006238Y006408D01*
X006201Y006420D01*
X006165Y006436D01*
X006131Y006456D01*
X006099Y006479D01*
X006070Y006505D01*
X006043Y006534D01*
X006019Y006565D01*
X005999Y006599D01*
X005982Y006634D01*
X005969Y006671D01*
X005959Y006709D01*
X005953Y006748D01*
X005951Y006787D01*
X001739Y005669D02*
X001741Y005728D01*
X001747Y005787D01*
X001757Y005845D01*
X001770Y005903D01*
X001788Y005960D01*
X001809Y006015D01*
X001834Y006069D01*
X001863Y006121D01*
X001895Y006170D01*
X001930Y006218D01*
X001968Y006263D01*
X002009Y006306D01*
X002053Y006346D01*
X002099Y006382D01*
X002148Y006416D01*
X002199Y006446D01*
X002252Y006473D01*
X002307Y006496D01*
X002362Y006515D01*
X002420Y006531D01*
X002478Y006543D01*
X002536Y006551D01*
X002595Y006555D01*
X002655Y006555D01*
X002714Y006551D01*
X002772Y006543D01*
X002830Y006531D01*
X002888Y006515D01*
X002943Y006496D01*
X002998Y006473D01*
X003051Y006446D01*
X003102Y006416D01*
X003151Y006382D01*
X003197Y006346D01*
X003241Y006306D01*
X003282Y006263D01*
X003320Y006218D01*
X003355Y006170D01*
X003387Y006121D01*
X003416Y006069D01*
X003441Y006015D01*
X003462Y005960D01*
X003480Y005903D01*
X003493Y005845D01*
X003503Y005787D01*
X003509Y005728D01*
X003511Y005669D01*
X003509Y005610D01*
X003503Y005551D01*
X003493Y005493D01*
X003480Y005435D01*
X003462Y005378D01*
X003441Y005323D01*
X003416Y005269D01*
X003387Y005217D01*
X003355Y005168D01*
X003320Y005120D01*
X003282Y005075D01*
X003241Y005032D01*
X003197Y004992D01*
X003151Y004956D01*
X003102Y004922D01*
X003051Y004892D01*
X002998Y004865D01*
X002943Y004842D01*
X002888Y004823D01*
X002830Y004807D01*
X002772Y004795D01*
X002714Y004787D01*
X002655Y004783D01*
X002595Y004783D01*
X002536Y004787D01*
X002478Y004795D01*
X002420Y004807D01*
X002362Y004823D01*
X002307Y004842D01*
X002252Y004865D01*
X002199Y004892D01*
X002148Y004922D01*
X002099Y004956D01*
X002053Y004992D01*
X002009Y005032D01*
X001968Y005075D01*
X001930Y005120D01*
X001895Y005168D01*
X001863Y005217D01*
X001834Y005269D01*
X001809Y005323D01*
X001788Y005378D01*
X001770Y005435D01*
X001757Y005493D01*
X001747Y005551D01*
X001741Y005610D01*
X001739Y005669D01*
X033511Y021551D02*
X033513Y021590D01*
X033519Y021629D01*
X033529Y021667D01*
X033542Y021704D01*
X033559Y021739D01*
X033579Y021773D01*
X033603Y021804D01*
X033630Y021833D01*
X033659Y021859D01*
X033691Y021882D01*
X033725Y021902D01*
X033761Y021918D01*
X033798Y021930D01*
X033837Y021939D01*
X033876Y021944D01*
X033915Y021945D01*
X033954Y021942D01*
X033993Y021935D01*
X034030Y021924D01*
X034067Y021910D01*
X034102Y021892D01*
X034135Y021871D01*
X034166Y021846D01*
X034194Y021819D01*
X034219Y021789D01*
X034241Y021756D01*
X034260Y021722D01*
X034275Y021686D01*
X034287Y021648D01*
X034295Y021610D01*
X034299Y021571D01*
X034299Y021531D01*
X034295Y021492D01*
X034287Y021454D01*
X034275Y021416D01*
X034260Y021380D01*
X034241Y021346D01*
X034219Y021313D01*
X034194Y021283D01*
X034166Y021256D01*
X034135Y021231D01*
X034102Y021210D01*
X034067Y021192D01*
X034030Y021178D01*
X033993Y021167D01*
X033954Y021160D01*
X033915Y021157D01*
X033876Y021158D01*
X033837Y021163D01*
X033798Y021172D01*
X033761Y021184D01*
X033725Y021200D01*
X033691Y021220D01*
X033659Y021243D01*
X033630Y021269D01*
X033603Y021298D01*
X033579Y021329D01*
X033559Y021363D01*
X033542Y021398D01*
X033529Y021435D01*
X033519Y021473D01*
X033513Y021512D01*
X033511Y021551D01*
X036739Y022669D02*
X036741Y022728D01*
X036747Y022787D01*
X036757Y022845D01*
X036770Y022903D01*
X036788Y022960D01*
X036809Y023015D01*
X036834Y023069D01*
X036863Y023121D01*
X036895Y023170D01*
X036930Y023218D01*
X036968Y023263D01*
X037009Y023306D01*
X037053Y023346D01*
X037099Y023382D01*
X037148Y023416D01*
X037199Y023446D01*
X037252Y023473D01*
X037307Y023496D01*
X037362Y023515D01*
X037420Y023531D01*
X037478Y023543D01*
X037536Y023551D01*
X037595Y023555D01*
X037655Y023555D01*
X037714Y023551D01*
X037772Y023543D01*
X037830Y023531D01*
X037888Y023515D01*
X037943Y023496D01*
X037998Y023473D01*
X038051Y023446D01*
X038102Y023416D01*
X038151Y023382D01*
X038197Y023346D01*
X038241Y023306D01*
X038282Y023263D01*
X038320Y023218D01*
X038355Y023170D01*
X038387Y023121D01*
X038416Y023069D01*
X038441Y023015D01*
X038462Y022960D01*
X038480Y022903D01*
X038493Y022845D01*
X038503Y022787D01*
X038509Y022728D01*
X038511Y022669D01*
X038509Y022610D01*
X038503Y022551D01*
X038493Y022493D01*
X038480Y022435D01*
X038462Y022378D01*
X038441Y022323D01*
X038416Y022269D01*
X038387Y022217D01*
X038355Y022168D01*
X038320Y022120D01*
X038282Y022075D01*
X038241Y022032D01*
X038197Y021992D01*
X038151Y021956D01*
X038102Y021922D01*
X038051Y021892D01*
X037998Y021865D01*
X037943Y021842D01*
X037888Y021823D01*
X037830Y021807D01*
X037772Y021795D01*
X037714Y021787D01*
X037655Y021783D01*
X037595Y021783D01*
X037536Y021787D01*
X037478Y021795D01*
X037420Y021807D01*
X037362Y021823D01*
X037307Y021842D01*
X037252Y021865D01*
X037199Y021892D01*
X037148Y021922D01*
X037099Y021956D01*
X037053Y021992D01*
X037009Y022032D01*
X036968Y022075D01*
X036930Y022120D01*
X036895Y022168D01*
X036863Y022217D01*
X036834Y022269D01*
X036809Y022323D01*
X036788Y022378D01*
X036770Y022435D01*
X036757Y022493D01*
X036747Y022551D01*
X036741Y022610D01*
X036739Y022669D01*
D12*
X035820Y005251D02*
X035820Y003874D01*
D13*
X023566Y012535D02*
X023566Y013322D01*
X023566Y013716D02*
X023566Y018244D01*
X023566Y018637D02*
X023566Y019326D01*
X022483Y019326D01*
X022090Y019326D02*
X008310Y019326D01*
X007818Y019326D02*
X007326Y019326D01*
M02*
