G75*
%MOIN*%
%OFA0B0*%
%FSLAX24Y24*%
%IPPOS*%
%LPD*%
%AMOC8*
5,1,8,0,0,1.08239X$1,22.5*
%
%ADD10C,0.0080*%
%ADD11R,0.0180X0.0300*%
%ADD12C,0.0050*%
%ADD13C,0.0100*%
%ADD14R,0.0472X0.0079*%
%ADD15R,0.0079X0.0472*%
%ADD16C,0.0060*%
D10*
X004515Y004569D02*
X004637Y004661D01*
X004637Y004842D01*
X004515Y004747D02*
X004631Y004671D01*
X004637Y004661D02*
X004637Y004480D01*
X004637Y005267D02*
X004637Y005448D01*
X004515Y005356D01*
X004637Y005448D02*
X004637Y005629D01*
X004515Y005534D02*
X004631Y005458D01*
X003331Y007469D02*
X002119Y007469D01*
X001725Y007981D02*
X001725Y008969D01*
X002119Y009469D02*
X003331Y009469D01*
X003725Y008957D02*
X003725Y007981D01*
X002225Y008469D02*
X002227Y008513D01*
X002233Y008557D01*
X002243Y008600D01*
X002256Y008642D01*
X002273Y008683D01*
X002294Y008722D01*
X002318Y008759D01*
X002345Y008794D01*
X002375Y008826D01*
X002408Y008856D01*
X002444Y008882D01*
X002481Y008906D01*
X002521Y008925D01*
X002562Y008942D01*
X002605Y008954D01*
X002648Y008963D01*
X002692Y008968D01*
X002736Y008969D01*
X002780Y008966D01*
X002824Y008959D01*
X002867Y008948D01*
X002909Y008934D01*
X002949Y008916D01*
X002988Y008894D01*
X003024Y008870D01*
X003058Y008842D01*
X003090Y008811D01*
X003119Y008777D01*
X003145Y008741D01*
X003167Y008703D01*
X003186Y008663D01*
X003201Y008621D01*
X003213Y008579D01*
X003221Y008535D01*
X003225Y008491D01*
X003225Y008447D01*
X003221Y008403D01*
X003213Y008359D01*
X003201Y008317D01*
X003186Y008275D01*
X003167Y008235D01*
X003145Y008197D01*
X003119Y008161D01*
X003090Y008127D01*
X003058Y008096D01*
X003024Y008068D01*
X002988Y008044D01*
X002949Y008022D01*
X002909Y008004D01*
X002867Y007990D01*
X002824Y007979D01*
X002780Y007972D01*
X002736Y007969D01*
X002692Y007970D01*
X002648Y007975D01*
X002605Y007984D01*
X002562Y007996D01*
X002521Y008013D01*
X002481Y008032D01*
X002444Y008056D01*
X002408Y008082D01*
X002375Y008112D01*
X002345Y008144D01*
X002318Y008179D01*
X002294Y008216D01*
X002273Y008255D01*
X002256Y008296D01*
X002243Y008338D01*
X002233Y008381D01*
X002227Y008425D01*
X002225Y008469D01*
X004757Y010251D02*
X004757Y010960D01*
X005367Y010960D01*
X005367Y010251D01*
X005585Y010594D02*
X005585Y010932D01*
X005367Y010960D02*
X005367Y011275D01*
X004757Y011275D02*
X004757Y010960D01*
X006039Y010444D02*
X006250Y010444D01*
X006705Y010594D02*
X006705Y010932D01*
X007625Y011169D02*
X007875Y010919D01*
X008375Y010919D01*
X008625Y011169D01*
X008625Y011669D01*
X008375Y011919D01*
X007875Y011919D01*
X007625Y011669D01*
X007625Y011169D01*
X008625Y011169D02*
X008625Y011669D01*
X008875Y011919D01*
X009375Y011919D01*
X009625Y011669D01*
X009625Y011169D01*
X009375Y010919D01*
X008875Y010919D01*
X008625Y011169D01*
X009625Y011169D02*
X009875Y010919D01*
X010375Y010919D01*
X010625Y011169D01*
X010625Y011669D01*
X010375Y011919D01*
X009875Y011919D01*
X009625Y011669D01*
X009625Y011169D01*
X010625Y011169D02*
X010875Y010919D01*
X011375Y010919D01*
X011625Y011169D01*
X011875Y010919D01*
X012375Y010919D01*
X012625Y011169D01*
X012625Y011669D01*
X012375Y011919D01*
X011875Y011919D01*
X011625Y011669D01*
X011625Y011169D01*
X011625Y011669D01*
X011375Y011919D01*
X010875Y011919D01*
X010625Y011669D01*
X010625Y011169D01*
X010856Y009978D02*
X011079Y009978D01*
X013529Y007528D01*
X013529Y007305D01*
X011079Y004856D01*
X010856Y004856D01*
X008406Y007305D01*
X008406Y007528D01*
X010856Y009978D01*
X012625Y011169D02*
X012875Y010919D01*
X013375Y010919D01*
X013625Y011169D01*
X013875Y010919D01*
X014375Y010919D01*
X014625Y011169D01*
X014875Y010919D01*
X015375Y010919D01*
X015625Y011169D01*
X015875Y010919D01*
X016375Y010919D01*
X016625Y011169D01*
X016875Y010919D01*
X017375Y010919D01*
X017625Y011169D01*
X017625Y011669D01*
X017375Y011919D01*
X016875Y011919D01*
X016625Y011669D01*
X016625Y011169D01*
X016625Y011669D01*
X016375Y011919D01*
X015875Y011919D01*
X015625Y011669D01*
X015625Y011169D01*
X015625Y011669D01*
X015375Y011919D01*
X014875Y011919D01*
X014625Y011669D01*
X014625Y011169D01*
X014625Y011669D01*
X014375Y011919D01*
X013875Y011919D01*
X013625Y011669D01*
X013625Y011169D01*
X013625Y011669D01*
X013375Y011919D01*
X012875Y011919D01*
X012625Y011669D01*
X012625Y011169D01*
X017054Y008778D02*
X017723Y008778D01*
X017054Y007703D02*
X017054Y007046D01*
X017172Y007046D01*
X023078Y007046D01*
X023196Y007046D01*
X023196Y007703D01*
X023078Y007046D02*
X023078Y006928D01*
X023196Y006928D01*
X023196Y006573D01*
X017054Y006573D01*
X017054Y006928D01*
X017172Y006928D01*
X017172Y007046D01*
X017881Y006928D02*
X018038Y006928D01*
X017960Y006770D01*
X017881Y006928D01*
X017887Y006916D02*
X018033Y006916D01*
X017993Y006838D02*
X017926Y006838D01*
X015397Y006629D02*
X015003Y006629D01*
X015003Y007220D02*
X015397Y007220D01*
X017875Y010919D02*
X018375Y010919D01*
X018625Y011169D01*
X018875Y010919D01*
X019375Y010919D01*
X019625Y011169D01*
X019875Y010919D01*
X020375Y010919D01*
X020625Y011169D01*
X020625Y011669D01*
X020375Y011919D01*
X019875Y011919D01*
X019625Y011669D01*
X019625Y011169D01*
X019625Y011669D01*
X019375Y011919D01*
X018875Y011919D01*
X018625Y011669D01*
X018625Y011169D01*
X018625Y011669D01*
X018375Y011919D01*
X017875Y011919D01*
X017625Y011669D01*
X017625Y011169D01*
X017875Y010919D01*
X020625Y011169D02*
X020875Y010919D01*
X021375Y010919D01*
X021625Y011169D01*
X021875Y010919D01*
X022375Y010919D01*
X022625Y011169D01*
X022625Y011669D01*
X022375Y011919D01*
X021875Y011919D01*
X021625Y011669D01*
X021625Y011169D01*
X021625Y011669D01*
X021375Y011919D01*
X020875Y011919D01*
X020625Y011669D01*
X020625Y011169D01*
X022625Y011169D02*
X022875Y010919D01*
X023375Y010919D01*
X023625Y011169D01*
X023625Y011669D01*
X023375Y011919D01*
X022875Y011919D01*
X022625Y011669D01*
X022625Y011169D01*
X022527Y008778D02*
X023196Y008778D01*
X026730Y016895D02*
X026730Y016955D01*
X026730Y016895D02*
X028080Y016895D01*
X028080Y016955D01*
X028080Y017335D02*
X028080Y017455D01*
X028080Y017835D02*
X028080Y017955D01*
X028080Y018335D02*
X028080Y018455D01*
X028080Y018835D02*
X028080Y018955D01*
X028080Y019335D02*
X028080Y019395D01*
X026730Y019395D01*
X026730Y019335D01*
X026730Y018955D02*
X026730Y018835D01*
X026730Y018455D02*
X026730Y018335D01*
X026730Y017955D02*
X026730Y017835D01*
X026730Y017455D02*
X026730Y017335D01*
X036525Y019381D02*
X036525Y020369D01*
X036919Y020869D02*
X038131Y020869D01*
X038525Y020357D02*
X038525Y019381D01*
X038131Y018869D02*
X036919Y018869D01*
X037025Y019869D02*
X037027Y019913D01*
X037033Y019957D01*
X037043Y020000D01*
X037056Y020042D01*
X037073Y020083D01*
X037094Y020122D01*
X037118Y020159D01*
X037145Y020194D01*
X037175Y020226D01*
X037208Y020256D01*
X037244Y020282D01*
X037281Y020306D01*
X037321Y020325D01*
X037362Y020342D01*
X037405Y020354D01*
X037448Y020363D01*
X037492Y020368D01*
X037536Y020369D01*
X037580Y020366D01*
X037624Y020359D01*
X037667Y020348D01*
X037709Y020334D01*
X037749Y020316D01*
X037788Y020294D01*
X037824Y020270D01*
X037858Y020242D01*
X037890Y020211D01*
X037919Y020177D01*
X037945Y020141D01*
X037967Y020103D01*
X037986Y020063D01*
X038001Y020021D01*
X038013Y019979D01*
X038021Y019935D01*
X038025Y019891D01*
X038025Y019847D01*
X038021Y019803D01*
X038013Y019759D01*
X038001Y019717D01*
X037986Y019675D01*
X037967Y019635D01*
X037945Y019597D01*
X037919Y019561D01*
X037890Y019527D01*
X037858Y019496D01*
X037824Y019468D01*
X037788Y019444D01*
X037749Y019422D01*
X037709Y019404D01*
X037667Y019390D01*
X037624Y019379D01*
X037580Y019372D01*
X037536Y019369D01*
X037492Y019370D01*
X037448Y019375D01*
X037405Y019384D01*
X037362Y019396D01*
X037321Y019413D01*
X037281Y019432D01*
X037244Y019456D01*
X037208Y019482D01*
X037175Y019512D01*
X037145Y019544D01*
X037118Y019579D01*
X037094Y019616D01*
X037073Y019655D01*
X037056Y019696D01*
X037043Y019738D01*
X037033Y019781D01*
X037027Y019825D01*
X037025Y019869D01*
X036919Y015169D02*
X038131Y015169D01*
X038525Y014657D02*
X038525Y013681D01*
X038131Y013169D02*
X036919Y013169D01*
X036525Y013681D02*
X036525Y014669D01*
X037025Y014169D02*
X037027Y014213D01*
X037033Y014257D01*
X037043Y014300D01*
X037056Y014342D01*
X037073Y014383D01*
X037094Y014422D01*
X037118Y014459D01*
X037145Y014494D01*
X037175Y014526D01*
X037208Y014556D01*
X037244Y014582D01*
X037281Y014606D01*
X037321Y014625D01*
X037362Y014642D01*
X037405Y014654D01*
X037448Y014663D01*
X037492Y014668D01*
X037536Y014669D01*
X037580Y014666D01*
X037624Y014659D01*
X037667Y014648D01*
X037709Y014634D01*
X037749Y014616D01*
X037788Y014594D01*
X037824Y014570D01*
X037858Y014542D01*
X037890Y014511D01*
X037919Y014477D01*
X037945Y014441D01*
X037967Y014403D01*
X037986Y014363D01*
X038001Y014321D01*
X038013Y014279D01*
X038021Y014235D01*
X038025Y014191D01*
X038025Y014147D01*
X038021Y014103D01*
X038013Y014059D01*
X038001Y014017D01*
X037986Y013975D01*
X037967Y013935D01*
X037945Y013897D01*
X037919Y013861D01*
X037890Y013827D01*
X037858Y013796D01*
X037824Y013768D01*
X037788Y013744D01*
X037749Y013722D01*
X037709Y013704D01*
X037667Y013690D01*
X037624Y013679D01*
X037580Y013672D01*
X037536Y013669D01*
X037492Y013670D01*
X037448Y013675D01*
X037405Y013684D01*
X037362Y013696D01*
X037321Y013713D01*
X037281Y013732D01*
X037244Y013756D01*
X037208Y013782D01*
X037175Y013812D01*
X037145Y013844D01*
X037118Y013879D01*
X037094Y013916D01*
X037073Y013955D01*
X037056Y013996D01*
X037043Y014038D01*
X037033Y014081D01*
X037027Y014125D01*
X037025Y014169D01*
X036919Y009469D02*
X038131Y009469D01*
X038525Y008957D02*
X038525Y007981D01*
X038131Y007469D02*
X036919Y007469D01*
X036525Y007981D02*
X036525Y008969D01*
X037025Y008469D02*
X037027Y008513D01*
X037033Y008557D01*
X037043Y008600D01*
X037056Y008642D01*
X037073Y008683D01*
X037094Y008722D01*
X037118Y008759D01*
X037145Y008794D01*
X037175Y008826D01*
X037208Y008856D01*
X037244Y008882D01*
X037281Y008906D01*
X037321Y008925D01*
X037362Y008942D01*
X037405Y008954D01*
X037448Y008963D01*
X037492Y008968D01*
X037536Y008969D01*
X037580Y008966D01*
X037624Y008959D01*
X037667Y008948D01*
X037709Y008934D01*
X037749Y008916D01*
X037788Y008894D01*
X037824Y008870D01*
X037858Y008842D01*
X037890Y008811D01*
X037919Y008777D01*
X037945Y008741D01*
X037967Y008703D01*
X037986Y008663D01*
X038001Y008621D01*
X038013Y008579D01*
X038021Y008535D01*
X038025Y008491D01*
X038025Y008447D01*
X038021Y008403D01*
X038013Y008359D01*
X038001Y008317D01*
X037986Y008275D01*
X037967Y008235D01*
X037945Y008197D01*
X037919Y008161D01*
X037890Y008127D01*
X037858Y008096D01*
X037824Y008068D01*
X037788Y008044D01*
X037749Y008022D01*
X037709Y008004D01*
X037667Y007990D01*
X037624Y007979D01*
X037580Y007972D01*
X037536Y007969D01*
X037492Y007970D01*
X037448Y007975D01*
X037405Y007984D01*
X037362Y007996D01*
X037321Y008013D01*
X037281Y008032D01*
X037244Y008056D01*
X037208Y008082D01*
X037175Y008112D01*
X037145Y008144D01*
X037118Y008179D01*
X037094Y008216D01*
X037073Y008255D01*
X037056Y008296D01*
X037043Y008338D01*
X037033Y008381D01*
X037027Y008425D01*
X037025Y008469D01*
X013125Y020919D02*
X013125Y021419D01*
X012875Y021669D01*
X012375Y021669D01*
X012125Y021419D01*
X012125Y020919D01*
X011875Y020669D01*
X011375Y020669D01*
X011125Y020919D01*
X011125Y021419D01*
X011375Y021669D01*
X011875Y021669D01*
X012125Y021419D01*
X012125Y020919D01*
X012375Y020669D01*
X012875Y020669D01*
X013125Y020919D01*
X011125Y020919D02*
X011125Y021419D01*
X010875Y021669D01*
X010375Y021669D01*
X010125Y021419D01*
X010125Y020919D01*
X010375Y020669D01*
X010875Y020669D01*
X011125Y020919D01*
X003725Y020357D02*
X003725Y019381D01*
X003331Y018869D02*
X002119Y018869D01*
X001725Y019381D02*
X001725Y020369D01*
X002119Y020869D02*
X003331Y020869D01*
X002225Y019869D02*
X002227Y019913D01*
X002233Y019957D01*
X002243Y020000D01*
X002256Y020042D01*
X002273Y020083D01*
X002294Y020122D01*
X002318Y020159D01*
X002345Y020194D01*
X002375Y020226D01*
X002408Y020256D01*
X002444Y020282D01*
X002481Y020306D01*
X002521Y020325D01*
X002562Y020342D01*
X002605Y020354D01*
X002648Y020363D01*
X002692Y020368D01*
X002736Y020369D01*
X002780Y020366D01*
X002824Y020359D01*
X002867Y020348D01*
X002909Y020334D01*
X002949Y020316D01*
X002988Y020294D01*
X003024Y020270D01*
X003058Y020242D01*
X003090Y020211D01*
X003119Y020177D01*
X003145Y020141D01*
X003167Y020103D01*
X003186Y020063D01*
X003201Y020021D01*
X003213Y019979D01*
X003221Y019935D01*
X003225Y019891D01*
X003225Y019847D01*
X003221Y019803D01*
X003213Y019759D01*
X003201Y019717D01*
X003186Y019675D01*
X003167Y019635D01*
X003145Y019597D01*
X003119Y019561D01*
X003090Y019527D01*
X003058Y019496D01*
X003024Y019468D01*
X002988Y019444D01*
X002949Y019422D01*
X002909Y019404D01*
X002867Y019390D01*
X002824Y019379D01*
X002780Y019372D01*
X002736Y019369D01*
X002692Y019370D01*
X002648Y019375D01*
X002605Y019384D01*
X002562Y019396D01*
X002521Y019413D01*
X002481Y019432D01*
X002444Y019456D01*
X002408Y019482D01*
X002375Y019512D01*
X002345Y019544D01*
X002318Y019579D01*
X002294Y019616D01*
X002273Y019655D01*
X002256Y019696D01*
X002243Y019738D01*
X002233Y019781D01*
X002227Y019825D01*
X002225Y019869D01*
X002119Y015169D02*
X003331Y015169D01*
X003725Y014657D02*
X003725Y013669D01*
X003331Y013169D02*
X002119Y013169D01*
X001725Y013681D02*
X001725Y014657D01*
X002225Y014169D02*
X002227Y014213D01*
X002233Y014257D01*
X002243Y014300D01*
X002256Y014342D01*
X002273Y014383D01*
X002294Y014422D01*
X002318Y014459D01*
X002345Y014494D01*
X002375Y014526D01*
X002408Y014556D01*
X002444Y014582D01*
X002481Y014606D01*
X002521Y014625D01*
X002562Y014642D01*
X002605Y014654D01*
X002648Y014663D01*
X002692Y014668D01*
X002736Y014669D01*
X002780Y014666D01*
X002824Y014659D01*
X002867Y014648D01*
X002909Y014634D01*
X002949Y014616D01*
X002988Y014594D01*
X003024Y014570D01*
X003058Y014542D01*
X003090Y014511D01*
X003119Y014477D01*
X003145Y014441D01*
X003167Y014403D01*
X003186Y014363D01*
X003201Y014321D01*
X003213Y014279D01*
X003221Y014235D01*
X003225Y014191D01*
X003225Y014147D01*
X003221Y014103D01*
X003213Y014059D01*
X003201Y014017D01*
X003186Y013975D01*
X003167Y013935D01*
X003145Y013897D01*
X003119Y013861D01*
X003090Y013827D01*
X003058Y013796D01*
X003024Y013768D01*
X002988Y013744D01*
X002949Y013722D01*
X002909Y013704D01*
X002867Y013690D01*
X002824Y013679D01*
X002780Y013672D01*
X002736Y013669D01*
X002692Y013670D01*
X002648Y013675D01*
X002605Y013684D01*
X002562Y013696D01*
X002521Y013713D01*
X002481Y013732D01*
X002444Y013756D01*
X002408Y013782D01*
X002375Y013812D01*
X002345Y013844D01*
X002318Y013879D01*
X002294Y013916D01*
X002273Y013955D01*
X002256Y013996D01*
X002243Y014038D01*
X002233Y014081D01*
X002227Y014125D01*
X002225Y014169D01*
D11*
X003979Y011846D03*
X003881Y010074D03*
D12*
X004908Y004759D02*
X004908Y023578D01*
X035342Y023578D01*
X035342Y004759D01*
X004908Y004759D01*
X026925Y004178D02*
X026925Y009678D01*
X032275Y009678D01*
X032275Y009228D01*
X032825Y009228D01*
X032825Y003778D01*
X031829Y003778D01*
X031828Y003778D02*
X031771Y003779D01*
X031713Y003784D01*
X031656Y003791D01*
X031600Y003802D01*
X031544Y003815D01*
X031489Y003831D01*
X031434Y003850D01*
X029655Y004178D02*
X026925Y004178D01*
X029655Y004178D02*
X029795Y004176D01*
X029935Y004170D01*
X030074Y004160D01*
X030214Y004147D01*
X030353Y004129D01*
X030491Y004108D01*
X030629Y004082D01*
X030766Y004053D01*
X030902Y004020D01*
X031037Y003983D01*
X031171Y003943D01*
X031303Y003898D01*
X031435Y003850D01*
D13*
X013084Y007417D02*
X013086Y007437D01*
X013091Y007457D01*
X013101Y007475D01*
X013113Y007492D01*
X013128Y007506D01*
X013146Y007516D01*
X013165Y007524D01*
X013185Y007528D01*
X013205Y007528D01*
X013225Y007524D01*
X013244Y007516D01*
X013262Y007506D01*
X013277Y007492D01*
X013289Y007475D01*
X013299Y007457D01*
X013304Y007437D01*
X013306Y007417D01*
X013304Y007397D01*
X013299Y007377D01*
X013289Y007359D01*
X013277Y007342D01*
X013262Y007328D01*
X013244Y007318D01*
X013225Y007310D01*
X013205Y007306D01*
X013185Y007306D01*
X013165Y007310D01*
X013146Y007318D01*
X013128Y007328D01*
X013113Y007342D01*
X013101Y007359D01*
X013091Y007377D01*
X013086Y007397D01*
X013084Y007417D01*
D14*
G36*
X013321Y007737D02*
X013654Y008070D01*
X013709Y008015D01*
X013376Y007682D01*
X013321Y007737D01*
G37*
G36*
X013182Y007876D02*
X013515Y008209D01*
X013570Y008154D01*
X013237Y007821D01*
X013182Y007876D01*
G37*
G36*
X013042Y008016D02*
X013375Y008349D01*
X013430Y008294D01*
X013097Y007961D01*
X013042Y008016D01*
G37*
G36*
X012903Y008155D02*
X013236Y008488D01*
X013291Y008433D01*
X012958Y008100D01*
X012903Y008155D01*
G37*
G36*
X012764Y008294D02*
X013097Y008627D01*
X013152Y008572D01*
X012819Y008239D01*
X012764Y008294D01*
G37*
G36*
X012625Y008433D02*
X012958Y008766D01*
X013013Y008711D01*
X012680Y008378D01*
X012625Y008433D01*
G37*
G36*
X012486Y008572D02*
X012819Y008905D01*
X012874Y008850D01*
X012541Y008517D01*
X012486Y008572D01*
G37*
G36*
X012346Y008712D02*
X012679Y009045D01*
X012734Y008990D01*
X012401Y008657D01*
X012346Y008712D01*
G37*
G36*
X012207Y008851D02*
X012540Y009184D01*
X012595Y009129D01*
X012262Y008796D01*
X012207Y008851D01*
G37*
G36*
X012068Y008990D02*
X012401Y009323D01*
X012456Y009268D01*
X012123Y008935D01*
X012068Y008990D01*
G37*
G36*
X011929Y009129D02*
X012262Y009462D01*
X012317Y009407D01*
X011984Y009074D01*
X011929Y009129D01*
G37*
G36*
X011790Y009268D02*
X012123Y009601D01*
X012178Y009546D01*
X011845Y009213D01*
X011790Y009268D01*
G37*
G36*
X011650Y009407D02*
X011983Y009740D01*
X012038Y009685D01*
X011705Y009352D01*
X011650Y009407D01*
G37*
G36*
X011511Y009547D02*
X011844Y009880D01*
X011899Y009825D01*
X011566Y009492D01*
X011511Y009547D01*
G37*
G36*
X011372Y009686D02*
X011705Y010019D01*
X011760Y009964D01*
X011427Y009631D01*
X011372Y009686D01*
G37*
G36*
X011233Y009825D02*
X011566Y010158D01*
X011621Y010103D01*
X011288Y009770D01*
X011233Y009825D01*
G37*
G36*
X008226Y006818D02*
X008559Y007151D01*
X008614Y007096D01*
X008281Y006763D01*
X008226Y006818D01*
G37*
G36*
X008365Y006679D02*
X008698Y007012D01*
X008753Y006957D01*
X008420Y006624D01*
X008365Y006679D01*
G37*
G36*
X008505Y006540D02*
X008838Y006873D01*
X008893Y006818D01*
X008560Y006485D01*
X008505Y006540D01*
G37*
G36*
X008644Y006401D02*
X008977Y006734D01*
X009032Y006679D01*
X008699Y006346D01*
X008644Y006401D01*
G37*
G36*
X008783Y006262D02*
X009116Y006595D01*
X009171Y006540D01*
X008838Y006207D01*
X008783Y006262D01*
G37*
G36*
X008922Y006123D02*
X009255Y006456D01*
X009310Y006401D01*
X008977Y006068D01*
X008922Y006123D01*
G37*
G36*
X009061Y005983D02*
X009394Y006316D01*
X009449Y006261D01*
X009116Y005928D01*
X009061Y005983D01*
G37*
G36*
X009201Y005844D02*
X009534Y006177D01*
X009589Y006122D01*
X009256Y005789D01*
X009201Y005844D01*
G37*
G36*
X009340Y005705D02*
X009673Y006038D01*
X009728Y005983D01*
X009395Y005650D01*
X009340Y005705D01*
G37*
G36*
X009479Y005566D02*
X009812Y005899D01*
X009867Y005844D01*
X009534Y005511D01*
X009479Y005566D01*
G37*
G36*
X009618Y005427D02*
X009951Y005760D01*
X010006Y005705D01*
X009673Y005372D01*
X009618Y005427D01*
G37*
G36*
X009757Y005287D02*
X010090Y005620D01*
X010145Y005565D01*
X009812Y005232D01*
X009757Y005287D01*
G37*
G36*
X009897Y005148D02*
X010230Y005481D01*
X010285Y005426D01*
X009952Y005093D01*
X009897Y005148D01*
G37*
G36*
X010036Y005009D02*
X010369Y005342D01*
X010424Y005287D01*
X010091Y004954D01*
X010036Y005009D01*
G37*
G36*
X010175Y004870D02*
X010508Y005203D01*
X010563Y005148D01*
X010230Y004815D01*
X010175Y004870D01*
G37*
G36*
X010314Y004731D02*
X010647Y005064D01*
X010702Y005009D01*
X010369Y004676D01*
X010314Y004731D01*
G37*
D15*
G36*
X011233Y005009D02*
X011288Y005064D01*
X011621Y004731D01*
X011566Y004676D01*
X011233Y005009D01*
G37*
G36*
X011372Y005148D02*
X011427Y005203D01*
X011760Y004870D01*
X011705Y004815D01*
X011372Y005148D01*
G37*
G36*
X011511Y005287D02*
X011566Y005342D01*
X011899Y005009D01*
X011844Y004954D01*
X011511Y005287D01*
G37*
G36*
X011650Y005426D02*
X011705Y005481D01*
X012038Y005148D01*
X011983Y005093D01*
X011650Y005426D01*
G37*
G36*
X011790Y005565D02*
X011845Y005620D01*
X012178Y005287D01*
X012123Y005232D01*
X011790Y005565D01*
G37*
G36*
X011929Y005705D02*
X011984Y005760D01*
X012317Y005427D01*
X012262Y005372D01*
X011929Y005705D01*
G37*
G36*
X012068Y005844D02*
X012123Y005899D01*
X012456Y005566D01*
X012401Y005511D01*
X012068Y005844D01*
G37*
G36*
X012207Y005983D02*
X012262Y006038D01*
X012595Y005705D01*
X012540Y005650D01*
X012207Y005983D01*
G37*
G36*
X012346Y006122D02*
X012401Y006177D01*
X012734Y005844D01*
X012679Y005789D01*
X012346Y006122D01*
G37*
G36*
X012486Y006261D02*
X012541Y006316D01*
X012874Y005983D01*
X012819Y005928D01*
X012486Y006261D01*
G37*
G36*
X012625Y006401D02*
X012680Y006456D01*
X013013Y006123D01*
X012958Y006068D01*
X012625Y006401D01*
G37*
G36*
X012764Y006540D02*
X012819Y006595D01*
X013152Y006262D01*
X013097Y006207D01*
X012764Y006540D01*
G37*
G36*
X012903Y006679D02*
X012958Y006734D01*
X013291Y006401D01*
X013236Y006346D01*
X012903Y006679D01*
G37*
G36*
X013042Y006818D02*
X013097Y006873D01*
X013430Y006540D01*
X013375Y006485D01*
X013042Y006818D01*
G37*
G36*
X013182Y006957D02*
X013237Y007012D01*
X013570Y006679D01*
X013515Y006624D01*
X013182Y006957D01*
G37*
G36*
X013321Y007096D02*
X013376Y007151D01*
X013709Y006818D01*
X013654Y006763D01*
X013321Y007096D01*
G37*
G36*
X009757Y009546D02*
X009812Y009601D01*
X010145Y009268D01*
X010090Y009213D01*
X009757Y009546D01*
G37*
G36*
X009618Y009407D02*
X009673Y009462D01*
X010006Y009129D01*
X009951Y009074D01*
X009618Y009407D01*
G37*
G36*
X009479Y009268D02*
X009534Y009323D01*
X009867Y008990D01*
X009812Y008935D01*
X009479Y009268D01*
G37*
G36*
X009340Y009129D02*
X009395Y009184D01*
X009728Y008851D01*
X009673Y008796D01*
X009340Y009129D01*
G37*
G36*
X009201Y008990D02*
X009256Y009045D01*
X009589Y008712D01*
X009534Y008657D01*
X009201Y008990D01*
G37*
G36*
X009061Y008850D02*
X009116Y008905D01*
X009449Y008572D01*
X009394Y008517D01*
X009061Y008850D01*
G37*
G36*
X008922Y008711D02*
X008977Y008766D01*
X009310Y008433D01*
X009255Y008378D01*
X008922Y008711D01*
G37*
G36*
X008783Y008572D02*
X008838Y008627D01*
X009171Y008294D01*
X009116Y008239D01*
X008783Y008572D01*
G37*
G36*
X008644Y008433D02*
X008699Y008488D01*
X009032Y008155D01*
X008977Y008100D01*
X008644Y008433D01*
G37*
G36*
X008505Y008294D02*
X008560Y008349D01*
X008893Y008016D01*
X008838Y007961D01*
X008505Y008294D01*
G37*
G36*
X008365Y008154D02*
X008420Y008209D01*
X008753Y007876D01*
X008698Y007821D01*
X008365Y008154D01*
G37*
G36*
X008226Y008015D02*
X008281Y008070D01*
X008614Y007737D01*
X008559Y007682D01*
X008226Y008015D01*
G37*
G36*
X009897Y009685D02*
X009952Y009740D01*
X010285Y009407D01*
X010230Y009352D01*
X009897Y009685D01*
G37*
G36*
X010036Y009825D02*
X010091Y009880D01*
X010424Y009547D01*
X010369Y009492D01*
X010036Y009825D01*
G37*
G36*
X010175Y009964D02*
X010230Y010019D01*
X010563Y009686D01*
X010508Y009631D01*
X010175Y009964D01*
G37*
G36*
X010314Y010103D02*
X010369Y010158D01*
X010702Y009825D01*
X010647Y009770D01*
X010314Y010103D01*
G37*
D16*
X029456Y013395D02*
X029456Y013895D01*
X029706Y014145D01*
X031206Y014145D01*
X031456Y013895D01*
X031456Y013395D01*
X031206Y013145D01*
X029706Y013145D01*
X029456Y013395D01*
X029706Y014145D02*
X029456Y014395D01*
X029456Y014895D01*
X029706Y015145D01*
X031206Y015145D01*
X031456Y014895D01*
X031456Y014395D01*
X031206Y014145D01*
X031206Y015145D02*
X031456Y015395D01*
X031456Y015895D01*
X031206Y016145D01*
X029706Y016145D01*
X029456Y016395D01*
X029456Y016895D01*
X029706Y017145D01*
X031206Y017145D01*
X031456Y016895D01*
X031456Y016395D01*
X031206Y016145D01*
X031206Y017145D02*
X031456Y017395D01*
X031456Y017895D01*
X031206Y018145D01*
X029706Y018145D01*
X029456Y017895D01*
X029456Y017395D01*
X029706Y017145D01*
X029706Y016145D02*
X029456Y015895D01*
X029456Y015395D01*
X029706Y015145D01*
X029706Y018145D02*
X029456Y018395D01*
X029456Y018895D01*
X029706Y019145D01*
X031206Y019145D01*
X031456Y018895D01*
X031456Y018395D01*
X031206Y018145D01*
X031206Y019145D02*
X031456Y019395D01*
X031456Y019895D01*
X031206Y020145D01*
X029706Y020145D01*
X029456Y019895D01*
X029456Y019395D01*
X029706Y019145D01*
X029706Y020145D02*
X029456Y020395D01*
X029456Y020895D01*
X029706Y021145D01*
X031206Y021145D01*
X031456Y020895D01*
X031456Y020395D01*
X031206Y020145D01*
X031206Y021145D02*
X031456Y021395D01*
X031456Y021895D01*
X031206Y022145D01*
X029706Y022145D01*
X029456Y021895D01*
X029456Y021395D01*
X029706Y021145D01*
X029706Y022145D02*
X029456Y022395D01*
X029456Y022895D01*
X029706Y023145D01*
X031206Y023145D01*
X031456Y022895D01*
X031456Y022395D01*
X031206Y022145D01*
M02*
