G75*
%MOIN*%
%OFA0B0*%
%FSLAX24Y24*%
%IPPOS*%
%LPD*%
%AMOC8*
5,1,8,0,0,1.08239X$1,22.5*
%
%ADD10C,0.0050*%
%ADD11C,0.0000*%
%ADD12C,0.0600*%
%ADD13C,0.0039*%
%ADD14C,0.0120*%
%ADD15C,0.0307*%
%ADD16C,0.0189*%
%ADD17C,0.0354*%
%ADD18C,0.0157*%
%ADD19C,0.0394*%
D10*
X005787Y006405D02*
X005787Y019043D01*
X006417Y019043D01*
X006442Y019048D01*
X006466Y019056D01*
X006488Y019067D01*
X006509Y019082D01*
X006528Y019099D01*
X006544Y019119D01*
X006556Y019141D01*
X006566Y019164D01*
X006572Y019189D01*
X006575Y019214D01*
X006574Y019240D01*
X006574Y019239D02*
X006575Y019265D01*
X006572Y019290D01*
X006566Y019315D01*
X006556Y019338D01*
X006544Y019360D01*
X006528Y019380D01*
X006509Y019397D01*
X006488Y019412D01*
X006466Y019423D01*
X006442Y019431D01*
X006417Y019436D01*
X006417Y019437D02*
X005787Y019437D01*
X005787Y023728D01*
X005789Y023805D01*
X005795Y023882D01*
X005804Y023959D01*
X005817Y024035D01*
X005834Y024111D01*
X005855Y024185D01*
X005879Y024259D01*
X005907Y024331D01*
X005938Y024401D01*
X005973Y024470D01*
X006011Y024538D01*
X006052Y024603D01*
X006097Y024666D01*
X006145Y024727D01*
X006195Y024786D01*
X006248Y024842D01*
X006304Y024895D01*
X006363Y024945D01*
X006424Y024993D01*
X006487Y025038D01*
X006552Y025079D01*
X006620Y025117D01*
X006689Y025152D01*
X006759Y025183D01*
X006831Y025211D01*
X006905Y025235D01*
X006979Y025256D01*
X007055Y025273D01*
X007131Y025286D01*
X007208Y025295D01*
X007285Y025301D01*
X007362Y025303D01*
X011693Y025303D01*
X011693Y024909D01*
X012086Y024909D01*
X012086Y025303D01*
X037283Y025303D01*
X037283Y024712D01*
X037677Y024712D01*
X037677Y025303D01*
X042008Y025303D01*
X042085Y025301D01*
X042162Y025295D01*
X042239Y025286D01*
X042315Y025273D01*
X042391Y025256D01*
X042465Y025235D01*
X042539Y025211D01*
X042611Y025183D01*
X042681Y025152D01*
X042750Y025117D01*
X042818Y025079D01*
X042883Y025038D01*
X042946Y024993D01*
X043007Y024945D01*
X043066Y024895D01*
X043122Y024842D01*
X043175Y024786D01*
X043225Y024727D01*
X043273Y024666D01*
X043318Y024603D01*
X043359Y024538D01*
X043397Y024470D01*
X043432Y024401D01*
X043463Y024331D01*
X043491Y024259D01*
X043515Y024185D01*
X043536Y024111D01*
X043553Y024035D01*
X043566Y023959D01*
X043575Y023882D01*
X043581Y023805D01*
X043583Y023728D01*
X043582Y023728D02*
X043582Y019437D01*
X042952Y019437D01*
X042952Y019436D02*
X042927Y019431D01*
X042903Y019423D01*
X042881Y019412D01*
X042860Y019397D01*
X042841Y019380D01*
X042825Y019360D01*
X042813Y019338D01*
X042803Y019315D01*
X042797Y019290D01*
X042794Y019265D01*
X042795Y019239D01*
X042795Y019240D02*
X042794Y019214D01*
X042797Y019189D01*
X042803Y019164D01*
X042813Y019141D01*
X042825Y019119D01*
X042841Y019099D01*
X042860Y019082D01*
X042881Y019067D01*
X042903Y019056D01*
X042927Y019048D01*
X042952Y019043D01*
X043582Y019043D01*
X043582Y006799D01*
X043583Y006799D02*
X043581Y006722D01*
X043575Y006645D01*
X043566Y006568D01*
X043553Y006492D01*
X043536Y006416D01*
X043515Y006342D01*
X043491Y006268D01*
X043463Y006196D01*
X043432Y006126D01*
X043397Y006057D01*
X043359Y005989D01*
X043318Y005924D01*
X043273Y005861D01*
X043225Y005800D01*
X043175Y005741D01*
X043122Y005685D01*
X043066Y005632D01*
X043007Y005582D01*
X042946Y005534D01*
X042883Y005489D01*
X042818Y005448D01*
X042750Y005410D01*
X042681Y005375D01*
X042611Y005344D01*
X042539Y005316D01*
X042465Y005292D01*
X042391Y005271D01*
X042315Y005254D01*
X042239Y005241D01*
X042162Y005232D01*
X042085Y005226D01*
X042008Y005224D01*
X006968Y005224D01*
X006902Y005226D01*
X006836Y005231D01*
X006770Y005241D01*
X006705Y005254D01*
X006641Y005270D01*
X006578Y005290D01*
X006516Y005314D01*
X006456Y005341D01*
X006397Y005371D01*
X006340Y005405D01*
X006285Y005442D01*
X006232Y005482D01*
X006181Y005524D01*
X006133Y005570D01*
X006087Y005618D01*
X006045Y005669D01*
X006005Y005722D01*
X005968Y005777D01*
X005934Y005834D01*
X005904Y005893D01*
X005877Y005953D01*
X005853Y006015D01*
X005833Y006078D01*
X005817Y006142D01*
X005804Y006207D01*
X005794Y006273D01*
X005789Y006339D01*
X005787Y006405D01*
X011693Y012507D02*
X011693Y024515D01*
X012086Y024515D01*
X012086Y012704D01*
X018189Y012704D01*
X018189Y012311D01*
X011889Y012311D01*
X011889Y012310D02*
X011863Y012312D01*
X011838Y012317D01*
X011814Y012325D01*
X011791Y012336D01*
X011769Y012351D01*
X011750Y012368D01*
X011733Y012387D01*
X011718Y012409D01*
X011707Y012432D01*
X011699Y012456D01*
X011694Y012481D01*
X011692Y012507D01*
X018582Y012311D02*
X018582Y012704D01*
X024488Y012704D01*
X024488Y012311D01*
X018582Y012311D01*
X024882Y012311D02*
X024882Y012704D01*
X030787Y012704D01*
X030787Y012311D01*
X024882Y012311D01*
X031181Y012311D02*
X031181Y012704D01*
X037283Y012704D01*
X037283Y024319D01*
X037677Y024319D01*
X037677Y012507D01*
X037675Y012481D01*
X037670Y012456D01*
X037662Y012432D01*
X037651Y012409D01*
X037636Y012387D01*
X037619Y012368D01*
X037600Y012351D01*
X037579Y012336D01*
X037555Y012325D01*
X037531Y012317D01*
X037506Y012312D01*
X037480Y012310D01*
X037480Y012311D02*
X031181Y012311D01*
D11*
X032336Y006481D02*
X032338Y006507D01*
X032344Y006533D01*
X032353Y006557D01*
X032366Y006580D01*
X032383Y006600D01*
X032402Y006618D01*
X032424Y006633D01*
X032447Y006644D01*
X032472Y006652D01*
X032498Y006656D01*
X032524Y006656D01*
X032550Y006652D01*
X032575Y006644D01*
X032599Y006633D01*
X032620Y006618D01*
X032639Y006600D01*
X032656Y006580D01*
X032669Y006557D01*
X032678Y006533D01*
X032684Y006507D01*
X032686Y006481D01*
X032684Y006455D01*
X032678Y006429D01*
X032669Y006405D01*
X032656Y006382D01*
X032639Y006362D01*
X032620Y006344D01*
X032598Y006329D01*
X032575Y006318D01*
X032550Y006310D01*
X032524Y006306D01*
X032498Y006306D01*
X032472Y006310D01*
X032447Y006318D01*
X032423Y006329D01*
X032402Y006344D01*
X032383Y006362D01*
X032366Y006382D01*
X032353Y006405D01*
X032344Y006429D01*
X032338Y006455D01*
X032336Y006481D01*
X035486Y006481D02*
X035488Y006507D01*
X035494Y006533D01*
X035503Y006557D01*
X035516Y006580D01*
X035533Y006600D01*
X035552Y006618D01*
X035574Y006633D01*
X035597Y006644D01*
X035622Y006652D01*
X035648Y006656D01*
X035674Y006656D01*
X035700Y006652D01*
X035725Y006644D01*
X035749Y006633D01*
X035770Y006618D01*
X035789Y006600D01*
X035806Y006580D01*
X035819Y006557D01*
X035828Y006533D01*
X035834Y006507D01*
X035836Y006481D01*
X035834Y006455D01*
X035828Y006429D01*
X035819Y006405D01*
X035806Y006382D01*
X035789Y006362D01*
X035770Y006344D01*
X035748Y006329D01*
X035725Y006318D01*
X035700Y006310D01*
X035674Y006306D01*
X035648Y006306D01*
X035622Y006310D01*
X035597Y006318D01*
X035573Y006329D01*
X035552Y006344D01*
X035533Y006362D01*
X035516Y006382D01*
X035503Y006405D01*
X035494Y006429D01*
X035488Y006455D01*
X035486Y006481D01*
X038070Y007881D02*
X038072Y007920D01*
X038078Y007959D01*
X038088Y007997D01*
X038101Y008034D01*
X038118Y008069D01*
X038138Y008103D01*
X038162Y008134D01*
X038189Y008163D01*
X038218Y008189D01*
X038250Y008212D01*
X038284Y008232D01*
X038320Y008248D01*
X038357Y008260D01*
X038396Y008269D01*
X038435Y008274D01*
X038474Y008275D01*
X038513Y008272D01*
X038552Y008265D01*
X038589Y008254D01*
X038626Y008240D01*
X038661Y008222D01*
X038694Y008201D01*
X038725Y008176D01*
X038753Y008149D01*
X038778Y008119D01*
X038800Y008086D01*
X038819Y008052D01*
X038834Y008016D01*
X038846Y007978D01*
X038854Y007940D01*
X038858Y007901D01*
X038858Y007861D01*
X038854Y007822D01*
X038846Y007784D01*
X038834Y007746D01*
X038819Y007710D01*
X038800Y007676D01*
X038778Y007643D01*
X038753Y007613D01*
X038725Y007586D01*
X038694Y007561D01*
X038661Y007540D01*
X038626Y007522D01*
X038589Y007508D01*
X038552Y007497D01*
X038513Y007490D01*
X038474Y007487D01*
X038435Y007488D01*
X038396Y007493D01*
X038357Y007502D01*
X038320Y007514D01*
X038284Y007530D01*
X038250Y007550D01*
X038218Y007573D01*
X038189Y007599D01*
X038162Y007628D01*
X038138Y007659D01*
X038118Y007693D01*
X038101Y007728D01*
X038088Y007765D01*
X038078Y007803D01*
X038072Y007842D01*
X038070Y007881D01*
X041299Y006763D02*
X041301Y006822D01*
X041307Y006881D01*
X041317Y006939D01*
X041330Y006997D01*
X041348Y007054D01*
X041369Y007109D01*
X041394Y007163D01*
X041423Y007215D01*
X041455Y007264D01*
X041490Y007312D01*
X041528Y007357D01*
X041569Y007400D01*
X041613Y007440D01*
X041659Y007476D01*
X041708Y007510D01*
X041759Y007540D01*
X041812Y007567D01*
X041867Y007590D01*
X041922Y007609D01*
X041980Y007625D01*
X042038Y007637D01*
X042096Y007645D01*
X042155Y007649D01*
X042215Y007649D01*
X042274Y007645D01*
X042332Y007637D01*
X042390Y007625D01*
X042448Y007609D01*
X042503Y007590D01*
X042558Y007567D01*
X042611Y007540D01*
X042662Y007510D01*
X042711Y007476D01*
X042757Y007440D01*
X042801Y007400D01*
X042842Y007357D01*
X042880Y007312D01*
X042915Y007264D01*
X042947Y007215D01*
X042976Y007163D01*
X043001Y007109D01*
X043022Y007054D01*
X043040Y006997D01*
X043053Y006939D01*
X043063Y006881D01*
X043069Y006822D01*
X043071Y006763D01*
X043069Y006704D01*
X043063Y006645D01*
X043053Y006587D01*
X043040Y006529D01*
X043022Y006472D01*
X043001Y006417D01*
X042976Y006363D01*
X042947Y006311D01*
X042915Y006262D01*
X042880Y006214D01*
X042842Y006169D01*
X042801Y006126D01*
X042757Y006086D01*
X042711Y006050D01*
X042662Y006016D01*
X042611Y005986D01*
X042558Y005959D01*
X042503Y005936D01*
X042448Y005917D01*
X042390Y005901D01*
X042332Y005889D01*
X042274Y005881D01*
X042215Y005877D01*
X042155Y005877D01*
X042096Y005881D01*
X042038Y005889D01*
X041980Y005901D01*
X041922Y005917D01*
X041867Y005936D01*
X041812Y005959D01*
X041759Y005986D01*
X041708Y006016D01*
X041659Y006050D01*
X041613Y006086D01*
X041569Y006126D01*
X041528Y006169D01*
X041490Y006214D01*
X041455Y006262D01*
X041423Y006311D01*
X041394Y006363D01*
X041369Y006417D01*
X041348Y006472D01*
X041330Y006529D01*
X041317Y006587D01*
X041307Y006645D01*
X041301Y006704D01*
X041299Y006763D01*
X038070Y022645D02*
X038072Y022684D01*
X038078Y022723D01*
X038088Y022761D01*
X038101Y022798D01*
X038118Y022833D01*
X038138Y022867D01*
X038162Y022898D01*
X038189Y022927D01*
X038218Y022953D01*
X038250Y022976D01*
X038284Y022996D01*
X038320Y023012D01*
X038357Y023024D01*
X038396Y023033D01*
X038435Y023038D01*
X038474Y023039D01*
X038513Y023036D01*
X038552Y023029D01*
X038589Y023018D01*
X038626Y023004D01*
X038661Y022986D01*
X038694Y022965D01*
X038725Y022940D01*
X038753Y022913D01*
X038778Y022883D01*
X038800Y022850D01*
X038819Y022816D01*
X038834Y022780D01*
X038846Y022742D01*
X038854Y022704D01*
X038858Y022665D01*
X038858Y022625D01*
X038854Y022586D01*
X038846Y022548D01*
X038834Y022510D01*
X038819Y022474D01*
X038800Y022440D01*
X038778Y022407D01*
X038753Y022377D01*
X038725Y022350D01*
X038694Y022325D01*
X038661Y022304D01*
X038626Y022286D01*
X038589Y022272D01*
X038552Y022261D01*
X038513Y022254D01*
X038474Y022251D01*
X038435Y022252D01*
X038396Y022257D01*
X038357Y022266D01*
X038320Y022278D01*
X038284Y022294D01*
X038250Y022314D01*
X038218Y022337D01*
X038189Y022363D01*
X038162Y022392D01*
X038138Y022423D01*
X038118Y022457D01*
X038101Y022492D01*
X038088Y022529D01*
X038078Y022567D01*
X038072Y022606D01*
X038070Y022645D01*
X041299Y023763D02*
X041301Y023822D01*
X041307Y023881D01*
X041317Y023939D01*
X041330Y023997D01*
X041348Y024054D01*
X041369Y024109D01*
X041394Y024163D01*
X041423Y024215D01*
X041455Y024264D01*
X041490Y024312D01*
X041528Y024357D01*
X041569Y024400D01*
X041613Y024440D01*
X041659Y024476D01*
X041708Y024510D01*
X041759Y024540D01*
X041812Y024567D01*
X041867Y024590D01*
X041922Y024609D01*
X041980Y024625D01*
X042038Y024637D01*
X042096Y024645D01*
X042155Y024649D01*
X042215Y024649D01*
X042274Y024645D01*
X042332Y024637D01*
X042390Y024625D01*
X042448Y024609D01*
X042503Y024590D01*
X042558Y024567D01*
X042611Y024540D01*
X042662Y024510D01*
X042711Y024476D01*
X042757Y024440D01*
X042801Y024400D01*
X042842Y024357D01*
X042880Y024312D01*
X042915Y024264D01*
X042947Y024215D01*
X042976Y024163D01*
X043001Y024109D01*
X043022Y024054D01*
X043040Y023997D01*
X043053Y023939D01*
X043063Y023881D01*
X043069Y023822D01*
X043071Y023763D01*
X043069Y023704D01*
X043063Y023645D01*
X043053Y023587D01*
X043040Y023529D01*
X043022Y023472D01*
X043001Y023417D01*
X042976Y023363D01*
X042947Y023311D01*
X042915Y023262D01*
X042880Y023214D01*
X042842Y023169D01*
X042801Y023126D01*
X042757Y023086D01*
X042711Y023050D01*
X042662Y023016D01*
X042611Y022986D01*
X042558Y022959D01*
X042503Y022936D01*
X042448Y022917D01*
X042390Y022901D01*
X042332Y022889D01*
X042274Y022881D01*
X042215Y022877D01*
X042155Y022877D01*
X042096Y022881D01*
X042038Y022889D01*
X041980Y022901D01*
X041922Y022917D01*
X041867Y022936D01*
X041812Y022959D01*
X041759Y022986D01*
X041708Y023016D01*
X041659Y023050D01*
X041613Y023086D01*
X041569Y023126D01*
X041528Y023169D01*
X041490Y023214D01*
X041455Y023262D01*
X041423Y023311D01*
X041394Y023363D01*
X041369Y023417D01*
X041348Y023472D01*
X041330Y023529D01*
X041317Y023587D01*
X041307Y023645D01*
X041301Y023704D01*
X041299Y023763D01*
X010511Y022645D02*
X010513Y022684D01*
X010519Y022723D01*
X010529Y022761D01*
X010542Y022798D01*
X010559Y022833D01*
X010579Y022867D01*
X010603Y022898D01*
X010630Y022927D01*
X010659Y022953D01*
X010691Y022976D01*
X010725Y022996D01*
X010761Y023012D01*
X010798Y023024D01*
X010837Y023033D01*
X010876Y023038D01*
X010915Y023039D01*
X010954Y023036D01*
X010993Y023029D01*
X011030Y023018D01*
X011067Y023004D01*
X011102Y022986D01*
X011135Y022965D01*
X011166Y022940D01*
X011194Y022913D01*
X011219Y022883D01*
X011241Y022850D01*
X011260Y022816D01*
X011275Y022780D01*
X011287Y022742D01*
X011295Y022704D01*
X011299Y022665D01*
X011299Y022625D01*
X011295Y022586D01*
X011287Y022548D01*
X011275Y022510D01*
X011260Y022474D01*
X011241Y022440D01*
X011219Y022407D01*
X011194Y022377D01*
X011166Y022350D01*
X011135Y022325D01*
X011102Y022304D01*
X011067Y022286D01*
X011030Y022272D01*
X010993Y022261D01*
X010954Y022254D01*
X010915Y022251D01*
X010876Y022252D01*
X010837Y022257D01*
X010798Y022266D01*
X010761Y022278D01*
X010725Y022294D01*
X010691Y022314D01*
X010659Y022337D01*
X010630Y022363D01*
X010603Y022392D01*
X010579Y022423D01*
X010559Y022457D01*
X010542Y022492D01*
X010529Y022529D01*
X010519Y022567D01*
X010513Y022606D01*
X010511Y022645D01*
X006299Y023763D02*
X006301Y023822D01*
X006307Y023881D01*
X006317Y023939D01*
X006330Y023997D01*
X006348Y024054D01*
X006369Y024109D01*
X006394Y024163D01*
X006423Y024215D01*
X006455Y024264D01*
X006490Y024312D01*
X006528Y024357D01*
X006569Y024400D01*
X006613Y024440D01*
X006659Y024476D01*
X006708Y024510D01*
X006759Y024540D01*
X006812Y024567D01*
X006867Y024590D01*
X006922Y024609D01*
X006980Y024625D01*
X007038Y024637D01*
X007096Y024645D01*
X007155Y024649D01*
X007215Y024649D01*
X007274Y024645D01*
X007332Y024637D01*
X007390Y024625D01*
X007448Y024609D01*
X007503Y024590D01*
X007558Y024567D01*
X007611Y024540D01*
X007662Y024510D01*
X007711Y024476D01*
X007757Y024440D01*
X007801Y024400D01*
X007842Y024357D01*
X007880Y024312D01*
X007915Y024264D01*
X007947Y024215D01*
X007976Y024163D01*
X008001Y024109D01*
X008022Y024054D01*
X008040Y023997D01*
X008053Y023939D01*
X008063Y023881D01*
X008069Y023822D01*
X008071Y023763D01*
X008069Y023704D01*
X008063Y023645D01*
X008053Y023587D01*
X008040Y023529D01*
X008022Y023472D01*
X008001Y023417D01*
X007976Y023363D01*
X007947Y023311D01*
X007915Y023262D01*
X007880Y023214D01*
X007842Y023169D01*
X007801Y023126D01*
X007757Y023086D01*
X007711Y023050D01*
X007662Y023016D01*
X007611Y022986D01*
X007558Y022959D01*
X007503Y022936D01*
X007448Y022917D01*
X007390Y022901D01*
X007332Y022889D01*
X007274Y022881D01*
X007215Y022877D01*
X007155Y022877D01*
X007096Y022881D01*
X007038Y022889D01*
X006980Y022901D01*
X006922Y022917D01*
X006867Y022936D01*
X006812Y022959D01*
X006759Y022986D01*
X006708Y023016D01*
X006659Y023050D01*
X006613Y023086D01*
X006569Y023126D01*
X006528Y023169D01*
X006490Y023214D01*
X006455Y023262D01*
X006423Y023311D01*
X006394Y023363D01*
X006369Y023417D01*
X006348Y023472D01*
X006330Y023529D01*
X006317Y023587D01*
X006307Y023645D01*
X006301Y023704D01*
X006299Y023763D01*
X010511Y007881D02*
X010513Y007920D01*
X010519Y007959D01*
X010529Y007997D01*
X010542Y008034D01*
X010559Y008069D01*
X010579Y008103D01*
X010603Y008134D01*
X010630Y008163D01*
X010659Y008189D01*
X010691Y008212D01*
X010725Y008232D01*
X010761Y008248D01*
X010798Y008260D01*
X010837Y008269D01*
X010876Y008274D01*
X010915Y008275D01*
X010954Y008272D01*
X010993Y008265D01*
X011030Y008254D01*
X011067Y008240D01*
X011102Y008222D01*
X011135Y008201D01*
X011166Y008176D01*
X011194Y008149D01*
X011219Y008119D01*
X011241Y008086D01*
X011260Y008052D01*
X011275Y008016D01*
X011287Y007978D01*
X011295Y007940D01*
X011299Y007901D01*
X011299Y007861D01*
X011295Y007822D01*
X011287Y007784D01*
X011275Y007746D01*
X011260Y007710D01*
X011241Y007676D01*
X011219Y007643D01*
X011194Y007613D01*
X011166Y007586D01*
X011135Y007561D01*
X011102Y007540D01*
X011067Y007522D01*
X011030Y007508D01*
X010993Y007497D01*
X010954Y007490D01*
X010915Y007487D01*
X010876Y007488D01*
X010837Y007493D01*
X010798Y007502D01*
X010761Y007514D01*
X010725Y007530D01*
X010691Y007550D01*
X010659Y007573D01*
X010630Y007599D01*
X010603Y007628D01*
X010579Y007659D01*
X010559Y007693D01*
X010542Y007728D01*
X010529Y007765D01*
X010519Y007803D01*
X010513Y007842D01*
X010511Y007881D01*
X006299Y006763D02*
X006301Y006822D01*
X006307Y006881D01*
X006317Y006939D01*
X006330Y006997D01*
X006348Y007054D01*
X006369Y007109D01*
X006394Y007163D01*
X006423Y007215D01*
X006455Y007264D01*
X006490Y007312D01*
X006528Y007357D01*
X006569Y007400D01*
X006613Y007440D01*
X006659Y007476D01*
X006708Y007510D01*
X006759Y007540D01*
X006812Y007567D01*
X006867Y007590D01*
X006922Y007609D01*
X006980Y007625D01*
X007038Y007637D01*
X007096Y007645D01*
X007155Y007649D01*
X007215Y007649D01*
X007274Y007645D01*
X007332Y007637D01*
X007390Y007625D01*
X007448Y007609D01*
X007503Y007590D01*
X007558Y007567D01*
X007611Y007540D01*
X007662Y007510D01*
X007711Y007476D01*
X007757Y007440D01*
X007801Y007400D01*
X007842Y007357D01*
X007880Y007312D01*
X007915Y007264D01*
X007947Y007215D01*
X007976Y007163D01*
X008001Y007109D01*
X008022Y007054D01*
X008040Y006997D01*
X008053Y006939D01*
X008063Y006881D01*
X008069Y006822D01*
X008071Y006763D01*
X008069Y006704D01*
X008063Y006645D01*
X008053Y006587D01*
X008040Y006529D01*
X008022Y006472D01*
X008001Y006417D01*
X007976Y006363D01*
X007947Y006311D01*
X007915Y006262D01*
X007880Y006214D01*
X007842Y006169D01*
X007801Y006126D01*
X007757Y006086D01*
X007711Y006050D01*
X007662Y006016D01*
X007611Y005986D01*
X007558Y005959D01*
X007503Y005936D01*
X007448Y005917D01*
X007390Y005901D01*
X007332Y005889D01*
X007274Y005881D01*
X007215Y005877D01*
X007155Y005877D01*
X007096Y005881D01*
X007038Y005889D01*
X006980Y005901D01*
X006922Y005917D01*
X006867Y005936D01*
X006812Y005959D01*
X006759Y005986D01*
X006708Y006016D01*
X006659Y006050D01*
X006613Y006086D01*
X006569Y006126D01*
X006528Y006169D01*
X006490Y006214D01*
X006455Y006262D01*
X006423Y006311D01*
X006394Y006363D01*
X006369Y006417D01*
X006348Y006472D01*
X006330Y006529D01*
X006317Y006587D01*
X006307Y006645D01*
X006301Y006704D01*
X006299Y006763D01*
D12*
X012787Y014224D03*
X013787Y014224D03*
X014787Y014224D03*
X015787Y014224D03*
X010141Y016830D03*
X009141Y016830D03*
X009141Y017830D03*
X010141Y017830D03*
X008141Y017830D03*
X007141Y017830D03*
X007141Y016830D03*
X008141Y016830D03*
X009905Y024023D03*
X010905Y024023D03*
D13*
X012519Y023925D02*
X014015Y023925D01*
X014015Y024712D01*
X012519Y024712D01*
X012519Y023925D01*
X012401Y022744D02*
X012401Y021563D01*
X012637Y021563D01*
X012637Y022744D01*
X012401Y022744D01*
X012519Y020381D02*
X012519Y019594D01*
X014015Y019594D01*
X014015Y020381D01*
X012519Y020381D01*
X016456Y020381D02*
X016456Y019594D01*
X017952Y019594D01*
X017952Y020381D01*
X016456Y020381D01*
X017834Y021563D02*
X018071Y021563D01*
X018071Y022744D01*
X017834Y022744D01*
X017834Y021563D01*
X017952Y023925D02*
X016456Y023925D01*
X016456Y024712D01*
X017952Y024712D01*
X017952Y023925D01*
D14*
X006062Y005943D02*
X006249Y005686D01*
X006506Y005499D01*
X006809Y005400D01*
X006968Y005388D01*
X007487Y005388D01*
X007444Y005431D01*
X007444Y005608D01*
X007569Y005733D01*
X007746Y005733D01*
X007871Y005608D01*
X007871Y005431D01*
X007828Y005388D01*
X008395Y005388D01*
X008182Y005601D01*
X008159Y005601D01*
X008034Y005726D01*
X008034Y005903D01*
X008159Y006028D01*
X008336Y006028D01*
X008428Y005936D01*
X008428Y006100D01*
X008553Y006225D01*
X008730Y006225D01*
X008855Y006100D01*
X008855Y005923D01*
X008730Y005798D01*
X008553Y005798D01*
X008461Y005890D01*
X008461Y005881D01*
X008723Y005619D01*
X012275Y005619D01*
X012266Y005628D01*
X012266Y005805D01*
X012392Y005930D01*
X012568Y005930D01*
X012628Y005870D01*
X012687Y005930D01*
X012864Y005930D01*
X012989Y005805D01*
X012989Y005628D01*
X012980Y005619D01*
X013457Y005619D01*
X013448Y005628D01*
X013448Y005805D01*
X013573Y005930D01*
X013750Y005930D01*
X013875Y005805D01*
X013875Y005628D01*
X013866Y005619D01*
X029205Y005619D01*
X029196Y005628D01*
X029196Y005791D01*
X029104Y005699D01*
X028927Y005699D01*
X028802Y005825D01*
X028802Y005988D01*
X028710Y005896D01*
X028533Y005896D01*
X028408Y006021D01*
X028408Y006198D01*
X028533Y006323D01*
X028710Y006323D01*
X028835Y006198D01*
X028835Y006035D01*
X028927Y006127D01*
X029104Y006127D01*
X029229Y006001D01*
X029229Y005838D01*
X029321Y005930D01*
X029498Y005930D01*
X029623Y005805D01*
X029623Y005628D01*
X029614Y005619D01*
X037004Y005619D01*
X037971Y006585D01*
X037971Y006661D01*
X038016Y006770D01*
X038100Y006853D01*
X038208Y006898D01*
X038326Y006898D01*
X038435Y006853D01*
X038519Y006770D01*
X038564Y006661D01*
X038564Y006543D01*
X038519Y006434D01*
X038435Y006351D01*
X038326Y006306D01*
X038251Y006306D01*
X037333Y005388D01*
X040656Y005388D01*
X040613Y005431D01*
X040613Y005503D01*
X040541Y005503D01*
X040416Y005628D01*
X040416Y005699D01*
X040344Y005699D01*
X040219Y005825D01*
X040219Y005896D01*
X040049Y005896D01*
X039924Y006021D01*
X039924Y006198D01*
X040049Y006323D01*
X040226Y006323D01*
X040351Y006198D01*
X040351Y006127D01*
X040521Y006127D01*
X040646Y006001D01*
X040646Y005930D01*
X040718Y005930D01*
X040843Y005805D01*
X040843Y005733D01*
X040915Y005733D01*
X041040Y005608D01*
X041040Y005431D01*
X040997Y005388D01*
X042008Y005388D01*
X042192Y005400D01*
X042548Y005495D01*
X042867Y005679D01*
X043127Y005940D01*
X043311Y006259D01*
X043407Y006615D01*
X043419Y006799D01*
X043419Y018879D01*
X043010Y018879D01*
X043002Y018873D01*
X042943Y018879D01*
X042885Y018879D01*
X042877Y018887D01*
X042843Y018890D01*
X042843Y018890D01*
X042696Y018999D01*
X042696Y018999D01*
X042622Y019167D01*
X042622Y019167D01*
X042630Y019240D01*
X042622Y019313D01*
X042622Y019313D01*
X042696Y019481D01*
X042696Y019481D01*
X042696Y019481D01*
X042843Y019589D01*
X042843Y019589D01*
X042877Y019593D01*
X042885Y019600D01*
X042943Y019600D01*
X043002Y019607D01*
X043010Y019600D01*
X043419Y019600D01*
X043419Y023728D01*
X043407Y023912D01*
X043311Y024268D01*
X043127Y024587D01*
X042867Y024847D01*
X042548Y025032D01*
X042192Y025127D01*
X042008Y025139D01*
X037841Y025139D01*
X037841Y024644D01*
X037745Y024548D01*
X037677Y024548D01*
X037677Y024482D01*
X037745Y024482D01*
X037841Y024386D01*
X037841Y012411D01*
X037744Y012244D01*
X037744Y012244D01*
X037744Y012244D01*
X037577Y012147D01*
X031450Y012147D01*
X031493Y012104D01*
X031493Y011927D01*
X031368Y011802D01*
X031191Y011802D01*
X031066Y011927D01*
X031066Y012104D01*
X031111Y012149D01*
X031017Y012243D01*
X031017Y012311D01*
X030951Y012311D01*
X030951Y012243D01*
X030855Y012147D01*
X025150Y012147D01*
X025194Y012104D01*
X025194Y011927D01*
X025068Y011802D01*
X024892Y011802D01*
X024800Y011894D01*
X024800Y011828D01*
X024790Y011819D01*
X024898Y011710D01*
X024898Y011533D01*
X024773Y011408D01*
X024596Y011408D01*
X024471Y011533D01*
X024471Y011710D01*
X024481Y011720D01*
X024373Y011828D01*
X024373Y012005D01*
X024498Y012130D01*
X024675Y012130D01*
X024766Y012039D01*
X024766Y012104D01*
X024812Y012149D01*
X024718Y012243D01*
X024718Y012311D01*
X024652Y012311D01*
X024652Y012243D01*
X024556Y012147D01*
X022001Y012147D01*
X022044Y012104D01*
X022044Y011927D01*
X021919Y011802D01*
X021742Y011802D01*
X021617Y011927D01*
X021617Y012104D01*
X021660Y012147D01*
X018556Y012147D01*
X018599Y012104D01*
X018599Y011927D01*
X018474Y011802D01*
X018297Y011802D01*
X018172Y011927D01*
X018172Y012104D01*
X018215Y012147D01*
X016489Y012147D01*
X016532Y012104D01*
X016532Y011927D01*
X016407Y011802D01*
X016230Y011802D01*
X016105Y011927D01*
X016105Y012104D01*
X016148Y012147D01*
X012552Y012147D01*
X012595Y012104D01*
X012595Y011927D01*
X012470Y011802D01*
X012293Y011802D01*
X012168Y011927D01*
X012168Y012104D01*
X012211Y012147D01*
X011906Y012147D01*
X011906Y012025D01*
X011781Y011900D01*
X011604Y011900D01*
X011479Y012025D01*
X011479Y012202D01*
X011587Y012310D01*
X011529Y012411D01*
X011529Y024583D01*
X011625Y024679D01*
X011693Y024679D01*
X011693Y024745D01*
X011625Y024745D01*
X011529Y024841D01*
X011529Y025139D01*
X007362Y025139D01*
X007178Y025127D01*
X006822Y025032D01*
X006503Y024847D01*
X006242Y024587D01*
X006058Y024268D01*
X005963Y023912D01*
X005951Y023728D01*
X005951Y019600D01*
X006360Y019600D01*
X006362Y019603D01*
X006263Y019702D01*
X006263Y019879D01*
X006388Y020004D01*
X006565Y020004D01*
X006690Y019879D01*
X006690Y019702D01*
X006565Y019577D01*
X006542Y019577D01*
X006674Y019481D01*
X006674Y019481D01*
X006747Y019313D01*
X006747Y019313D01*
X006739Y019240D01*
X006747Y019167D01*
X006747Y019167D01*
X006674Y018999D01*
X006674Y018999D01*
X006674Y018999D01*
X006526Y018890D01*
X006526Y018890D01*
X006492Y018887D01*
X006485Y018879D01*
X006426Y018879D01*
X006394Y018876D01*
X006394Y018823D01*
X006466Y018823D01*
X006591Y018698D01*
X006591Y018521D01*
X006466Y018396D01*
X006289Y018396D01*
X006164Y018521D01*
X006164Y018593D01*
X006092Y018593D01*
X005967Y018718D01*
X005967Y018879D01*
X005951Y018879D01*
X005951Y015040D01*
X005994Y015083D01*
X006164Y015083D01*
X006164Y015155D01*
X006256Y015247D01*
X006092Y015247D01*
X005967Y015372D01*
X005967Y015549D01*
X006092Y015674D01*
X006269Y015674D01*
X006394Y015549D01*
X006394Y015385D01*
X006486Y015477D01*
X006663Y015477D01*
X006771Y015369D01*
X006880Y015477D01*
X006951Y015477D01*
X006951Y015549D01*
X007077Y015674D01*
X007253Y015674D01*
X007379Y015549D01*
X007379Y015372D01*
X007253Y015247D01*
X007182Y015247D01*
X007182Y015175D01*
X007057Y015050D01*
X006985Y015050D01*
X006985Y014978D01*
X006860Y014853D01*
X006788Y014853D01*
X006788Y014781D01*
X006663Y014656D01*
X006486Y014656D01*
X006361Y014781D01*
X006361Y014853D01*
X006296Y014853D01*
X006296Y014781D01*
X006171Y014656D01*
X005994Y014656D01*
X005951Y014699D01*
X005951Y014142D01*
X006000Y014162D01*
X006362Y014162D01*
X006478Y014114D01*
X006567Y014025D01*
X006615Y013909D01*
X006615Y013783D01*
X006567Y013667D01*
X006478Y013578D01*
X006362Y013530D01*
X006000Y013530D01*
X005951Y013550D01*
X005951Y011386D01*
X005951Y011386D01*
X006000Y011406D01*
X006362Y011406D01*
X006478Y011358D01*
X006567Y011269D01*
X006615Y011153D01*
X006615Y011027D01*
X006567Y010911D01*
X006478Y010822D01*
X006362Y010774D01*
X006296Y010774D01*
X006296Y010647D01*
X006171Y010522D01*
X005994Y010522D01*
X005951Y010565D01*
X005951Y006405D01*
X005963Y006246D01*
X006062Y005943D01*
X006068Y005935D02*
X006570Y005935D01*
X006556Y005944D02*
X006789Y005809D01*
X007050Y005739D01*
X007320Y005739D01*
X007580Y005809D01*
X007814Y005944D01*
X008005Y006134D01*
X008139Y006368D01*
X008209Y006628D01*
X008209Y006898D01*
X008139Y007159D01*
X008005Y007392D01*
X007814Y007583D01*
X007580Y007718D01*
X007320Y007788D01*
X007050Y007788D01*
X006789Y007718D01*
X006556Y007583D01*
X006365Y007392D01*
X006230Y007159D01*
X006160Y006898D01*
X006160Y006628D01*
X006230Y006368D01*
X006365Y006134D01*
X006556Y005944D01*
X006446Y006054D02*
X006026Y006054D01*
X005987Y006172D02*
X006343Y006172D01*
X006275Y006291D02*
X005960Y006291D01*
X005951Y006409D02*
X006219Y006409D01*
X006187Y006528D02*
X005951Y006528D01*
X005951Y006646D02*
X006160Y006646D01*
X006160Y006765D02*
X005951Y006765D01*
X005951Y006883D02*
X006160Y006883D01*
X006188Y007002D02*
X005951Y007002D01*
X005951Y007120D02*
X006220Y007120D01*
X006276Y007239D02*
X005951Y007239D01*
X005951Y007357D02*
X006344Y007357D01*
X006448Y007476D02*
X005951Y007476D01*
X005951Y007594D02*
X006574Y007594D01*
X006780Y007713D02*
X005951Y007713D01*
X005951Y007831D02*
X010373Y007831D01*
X010373Y007776D02*
X010454Y007580D01*
X010604Y007430D01*
X010799Y007349D01*
X011011Y007349D01*
X011207Y007430D01*
X011357Y007580D01*
X011438Y007776D01*
X011438Y007987D01*
X011357Y008183D01*
X011207Y008333D01*
X011011Y008414D01*
X010799Y008414D01*
X010604Y008333D01*
X010454Y008183D01*
X010373Y007987D01*
X010373Y007776D01*
X010399Y007713D02*
X007590Y007713D01*
X007795Y007594D02*
X009922Y007594D01*
X009904Y007576D02*
X009904Y007399D01*
X010029Y007274D01*
X010206Y007274D01*
X010331Y007399D01*
X010331Y007576D01*
X010206Y007701D01*
X010029Y007701D01*
X009904Y007576D01*
X009904Y007476D02*
X007922Y007476D01*
X008025Y007357D02*
X009947Y007357D01*
X010289Y007357D02*
X010780Y007357D01*
X011030Y007357D02*
X014333Y007357D01*
X014333Y007301D02*
X014458Y007176D01*
X014635Y007176D01*
X014727Y007268D01*
X014727Y007104D01*
X014819Y007012D01*
X014754Y007012D01*
X014695Y006953D01*
X014635Y007012D01*
X014458Y007012D01*
X014333Y006887D01*
X014333Y006710D01*
X014458Y006585D01*
X014635Y006585D01*
X014695Y006644D01*
X014754Y006585D01*
X014931Y006585D01*
X015056Y006710D01*
X015056Y006887D01*
X014964Y006979D01*
X015029Y006979D01*
X015088Y007038D01*
X015147Y006979D01*
X015324Y006979D01*
X015449Y007104D01*
X015449Y007281D01*
X015341Y007389D01*
X015449Y007498D01*
X015449Y007675D01*
X015324Y007800D01*
X015147Y007800D01*
X015022Y007675D01*
X015022Y007498D01*
X015131Y007389D01*
X015088Y007347D01*
X015029Y007406D01*
X014852Y007406D01*
X014760Y007314D01*
X014760Y007478D01*
X014635Y007603D01*
X014458Y007603D01*
X014333Y007478D01*
X014333Y007301D01*
X014396Y007239D02*
X008093Y007239D01*
X008150Y007120D02*
X012204Y007120D01*
X012168Y007084D02*
X012168Y006907D01*
X012293Y006782D01*
X012463Y006782D01*
X012463Y006612D01*
X012588Y006487D01*
X012765Y006487D01*
X012890Y006612D01*
X012890Y006789D01*
X012765Y006914D01*
X012595Y006914D01*
X012595Y007084D01*
X012470Y007209D01*
X012293Y007209D01*
X012168Y007084D01*
X012168Y007002D02*
X010611Y007002D01*
X010627Y006986D02*
X010502Y007111D01*
X010325Y007111D01*
X010200Y006986D01*
X010200Y006809D01*
X010325Y006684D01*
X010396Y006684D01*
X010396Y006612D01*
X010521Y006487D01*
X010698Y006487D01*
X010823Y006612D01*
X010823Y006789D01*
X010698Y006914D01*
X010627Y006914D01*
X010627Y006986D01*
X010729Y006883D02*
X012192Y006883D01*
X012463Y006765D02*
X010823Y006765D01*
X010823Y006646D02*
X012463Y006646D01*
X012548Y006528D02*
X010739Y006528D01*
X010481Y006528D02*
X008182Y006528D01*
X008209Y006646D02*
X010396Y006646D01*
X010244Y006765D02*
X008209Y006765D01*
X008209Y006883D02*
X010200Y006883D01*
X010215Y007002D02*
X008182Y007002D01*
X008150Y006409D02*
X014150Y006409D01*
X014163Y006422D02*
X014038Y006297D01*
X014038Y006120D01*
X014163Y005995D01*
X014235Y005995D01*
X014235Y005923D01*
X014360Y005798D01*
X014537Y005798D01*
X014662Y005923D01*
X014662Y006100D01*
X014537Y006225D01*
X014465Y006225D01*
X014465Y006297D01*
X014340Y006422D01*
X014163Y006422D01*
X014038Y006291D02*
X008095Y006291D01*
X008026Y006172D02*
X008500Y006172D01*
X008428Y006054D02*
X007924Y006054D01*
X007799Y005935D02*
X008066Y005935D01*
X008034Y005817D02*
X007594Y005817D01*
X007534Y005698D02*
X006240Y005698D01*
X006154Y005817D02*
X006776Y005817D01*
X006622Y005461D02*
X007444Y005461D01*
X007444Y005580D02*
X006395Y005580D01*
X007780Y005698D02*
X008062Y005698D01*
X008203Y005580D02*
X007871Y005580D01*
X007871Y005461D02*
X008322Y005461D01*
X008644Y005698D02*
X012266Y005698D01*
X012278Y005817D02*
X008748Y005817D01*
X008855Y005935D02*
X014235Y005935D01*
X014341Y005817D02*
X013863Y005817D01*
X013875Y005698D02*
X029196Y005698D01*
X029229Y005935D02*
X037321Y005935D01*
X037439Y006054D02*
X029177Y006054D01*
X028854Y006054D02*
X028835Y006054D01*
X028835Y006172D02*
X030226Y006172D01*
X030180Y006218D02*
X030305Y006093D01*
X030482Y006093D01*
X030607Y006218D01*
X030607Y006395D01*
X030482Y006520D01*
X030305Y006520D01*
X030180Y006395D01*
X030180Y006218D01*
X030180Y006291D02*
X028743Y006291D01*
X028500Y006291D02*
X027359Y006291D01*
X027359Y006218D02*
X027359Y006395D01*
X027234Y006520D01*
X027057Y006520D01*
X026932Y006395D01*
X026932Y006218D01*
X027057Y006093D01*
X027234Y006093D01*
X027359Y006218D01*
X027313Y006172D02*
X028408Y006172D01*
X028408Y006054D02*
X025292Y006054D01*
X025292Y006100D02*
X025167Y006225D01*
X025095Y006225D01*
X025095Y006297D01*
X024970Y006422D01*
X024793Y006422D01*
X024668Y006297D01*
X024668Y006120D01*
X024793Y005995D01*
X024865Y005995D01*
X024865Y005923D01*
X024990Y005798D01*
X025167Y005798D01*
X025292Y005923D01*
X025292Y006100D01*
X025220Y006172D02*
X026978Y006172D01*
X026932Y006291D02*
X025856Y006291D01*
X025883Y006317D02*
X025757Y006192D01*
X025581Y006192D01*
X025455Y006317D01*
X025455Y006494D01*
X025581Y006619D01*
X025757Y006619D01*
X025883Y006494D01*
X025883Y006317D01*
X025883Y006409D02*
X026946Y006409D01*
X027345Y006409D02*
X029891Y006409D01*
X029911Y006388D02*
X030088Y006388D01*
X030213Y006514D01*
X030213Y006677D01*
X030305Y006585D01*
X030482Y006585D01*
X030607Y006710D01*
X030607Y006887D01*
X030482Y007012D01*
X030305Y007012D01*
X030180Y006887D01*
X030180Y006724D01*
X030088Y006816D01*
X029911Y006816D01*
X029786Y006690D01*
X029786Y006514D01*
X029911Y006388D01*
X029786Y006528D02*
X025849Y006528D01*
X025777Y006782D02*
X025954Y006782D01*
X026079Y006907D01*
X026079Y007084D01*
X025954Y007209D01*
X025777Y007209D01*
X025652Y007084D01*
X025652Y006907D01*
X025777Y006782D01*
X025676Y006883D02*
X022906Y006883D01*
X022930Y006907D02*
X022805Y006782D01*
X022628Y006782D01*
X022503Y006907D01*
X022503Y007084D01*
X022628Y007209D01*
X022805Y007209D01*
X022930Y007084D01*
X022930Y006907D01*
X022930Y007002D02*
X025652Y007002D01*
X025688Y007120D02*
X022894Y007120D01*
X022539Y007120D02*
X022303Y007120D01*
X022339Y007084D02*
X022214Y007209D01*
X022037Y007209D01*
X021912Y007084D01*
X021912Y006907D01*
X022037Y006782D01*
X022214Y006782D01*
X022339Y006907D01*
X022339Y007084D01*
X022339Y007002D02*
X022503Y007002D01*
X022527Y006883D02*
X022315Y006883D01*
X021936Y006883D02*
X021724Y006883D01*
X021749Y006907D02*
X021624Y006782D01*
X021447Y006782D01*
X021322Y006907D01*
X021322Y007084D01*
X021447Y007209D01*
X021624Y007209D01*
X021749Y007084D01*
X021749Y006907D01*
X021749Y007002D02*
X021912Y007002D01*
X021948Y007120D02*
X021713Y007120D01*
X021357Y007120D02*
X015449Y007120D01*
X015449Y007239D02*
X036049Y007239D01*
X035987Y007301D02*
X036112Y007176D01*
X036289Y007176D01*
X036414Y007301D01*
X036414Y007478D01*
X036289Y007603D01*
X036119Y007603D01*
X036119Y007675D01*
X035994Y007800D01*
X035922Y007800D01*
X035922Y007872D01*
X035797Y007997D01*
X035620Y007997D01*
X035495Y007872D01*
X035495Y007695D01*
X035620Y007570D01*
X035692Y007570D01*
X035692Y007498D01*
X035817Y007373D01*
X035987Y007373D01*
X035987Y007301D01*
X035987Y007357D02*
X015373Y007357D01*
X015427Y007476D02*
X035714Y007476D01*
X035595Y007594D02*
X029227Y007594D01*
X029202Y007570D02*
X029327Y007695D01*
X029327Y007872D01*
X029202Y007997D01*
X029025Y007997D01*
X028900Y007872D01*
X028900Y007695D01*
X029025Y007570D01*
X029202Y007570D01*
X029327Y007713D02*
X035495Y007713D01*
X035495Y007831D02*
X034287Y007831D01*
X034347Y007891D02*
X034222Y007766D01*
X034045Y007766D01*
X033920Y007891D01*
X033920Y008068D01*
X032949Y008068D01*
X032969Y008088D02*
X032844Y007963D01*
X032667Y007963D01*
X032542Y008088D01*
X032542Y008265D01*
X032667Y008390D01*
X032844Y008390D01*
X032969Y008265D01*
X032969Y008088D01*
X032969Y008187D02*
X034038Y008187D01*
X034045Y008193D02*
X033920Y008068D01*
X033920Y007950D02*
X029249Y007950D01*
X029327Y007831D02*
X033980Y007831D01*
X034045Y008193D02*
X034222Y008193D01*
X034347Y008068D01*
X034707Y008068D01*
X034707Y007990D02*
X034707Y008167D01*
X034832Y008292D01*
X035009Y008292D01*
X035134Y008167D01*
X035134Y007990D01*
X035009Y007865D01*
X034832Y007865D01*
X034707Y007990D01*
X034748Y007950D02*
X034347Y007950D01*
X034347Y007891D02*
X034347Y008068D01*
X034229Y008187D02*
X034727Y008187D01*
X035115Y008187D02*
X036400Y008187D01*
X036407Y008193D02*
X036282Y008068D01*
X035134Y008068D01*
X035094Y007950D02*
X035573Y007950D01*
X035844Y007950D02*
X036282Y007950D01*
X036282Y007891D02*
X036407Y007766D01*
X036584Y007766D01*
X036709Y007891D01*
X036709Y008068D01*
X037965Y008068D01*
X037932Y007987D02*
X038013Y008183D01*
X038163Y008333D01*
X038221Y008357D01*
X038179Y008357D01*
X038054Y008482D01*
X038054Y008659D01*
X038179Y008784D01*
X038356Y008784D01*
X038481Y008659D01*
X038481Y008482D01*
X038413Y008414D01*
X038570Y008414D01*
X038766Y008333D01*
X038916Y008183D01*
X038997Y007987D01*
X038997Y007776D01*
X038916Y007580D01*
X038766Y007430D01*
X038570Y007349D01*
X038358Y007349D01*
X038163Y007430D01*
X038013Y007580D01*
X037932Y007776D01*
X037932Y007987D01*
X037932Y007950D02*
X036709Y007950D01*
X036709Y008068D02*
X036584Y008193D01*
X036407Y008193D01*
X036282Y008068D02*
X036282Y007891D01*
X036343Y007831D02*
X035922Y007831D01*
X036081Y007713D02*
X037958Y007713D01*
X037932Y007831D02*
X036649Y007831D01*
X036591Y008187D02*
X038016Y008187D01*
X038135Y008305D02*
X035548Y008305D01*
X035502Y008259D02*
X035627Y008384D01*
X035627Y008560D01*
X035502Y008686D01*
X035325Y008686D01*
X035200Y008560D01*
X035200Y008384D01*
X035325Y008259D01*
X035502Y008259D01*
X035627Y008424D02*
X038112Y008424D01*
X038054Y008542D02*
X035627Y008542D01*
X035527Y008661D02*
X038055Y008661D01*
X038174Y008779D02*
X034030Y008779D01*
X034052Y008757D02*
X033927Y008882D01*
X033750Y008882D01*
X033641Y008774D01*
X033550Y008866D01*
X033560Y008876D01*
X033560Y009053D01*
X033435Y009178D01*
X033363Y009178D01*
X033363Y009348D01*
X033238Y009473D01*
X033061Y009473D01*
X032936Y009348D01*
X032936Y009171D01*
X033061Y009046D01*
X033133Y009046D01*
X033133Y008889D01*
X033041Y008981D01*
X032864Y008981D01*
X032739Y008856D01*
X032739Y008679D01*
X032864Y008554D01*
X033041Y008554D01*
X033166Y008679D01*
X033166Y008842D01*
X033241Y008767D01*
X033231Y008757D01*
X033231Y008580D01*
X033356Y008455D01*
X033533Y008455D01*
X033641Y008564D01*
X033750Y008455D01*
X033927Y008455D01*
X034052Y008580D01*
X034052Y008757D01*
X034052Y008661D02*
X035300Y008661D01*
X035200Y008542D02*
X034013Y008542D01*
X033663Y008542D02*
X033620Y008542D01*
X033636Y008779D02*
X033646Y008779D01*
X033560Y008898D02*
X034193Y008898D01*
X034242Y008849D02*
X034419Y008849D01*
X034544Y008974D01*
X034544Y009151D01*
X034419Y009276D01*
X034242Y009276D01*
X034117Y009151D01*
X034117Y008974D01*
X034242Y008849D01*
X034117Y009016D02*
X033560Y009016D01*
X033478Y009135D02*
X034117Y009135D01*
X034219Y009253D02*
X033363Y009253D01*
X033339Y009372D02*
X033719Y009372D01*
X033750Y009341D02*
X033927Y009341D01*
X034052Y009466D01*
X034052Y009643D01*
X033927Y009768D01*
X033750Y009768D01*
X033625Y009643D01*
X033625Y009466D01*
X033750Y009341D01*
X033625Y009490D02*
X032729Y009490D01*
X032772Y009446D02*
X032647Y009571D01*
X032470Y009571D01*
X032345Y009446D01*
X032345Y009283D01*
X032253Y009375D01*
X032077Y009375D01*
X031951Y009249D01*
X031951Y009073D01*
X032077Y008947D01*
X032253Y008947D01*
X032379Y009073D01*
X032379Y009236D01*
X032470Y009144D01*
X032647Y009144D01*
X032772Y009269D01*
X032772Y009446D01*
X032772Y009372D02*
X032959Y009372D01*
X032936Y009253D02*
X032756Y009253D01*
X032972Y009135D02*
X032379Y009135D01*
X032322Y009016D02*
X033133Y009016D01*
X033124Y008898D02*
X033133Y008898D01*
X033166Y008779D02*
X033229Y008779D01*
X033231Y008661D02*
X033148Y008661D01*
X033269Y008542D02*
X032674Y008542D01*
X032674Y008482D02*
X032674Y008659D01*
X032549Y008784D01*
X032372Y008784D01*
X032247Y008659D01*
X032247Y008482D01*
X032372Y008357D01*
X032549Y008357D01*
X032674Y008482D01*
X032615Y008424D02*
X035200Y008424D01*
X035278Y008305D02*
X032929Y008305D01*
X032582Y008305D02*
X031059Y008305D01*
X031099Y008265D02*
X030974Y008390D01*
X030797Y008390D01*
X030672Y008265D01*
X030672Y008088D01*
X030797Y007963D01*
X030974Y007963D01*
X031099Y008088D01*
X031099Y008265D01*
X031099Y008187D02*
X032542Y008187D01*
X032562Y008068D02*
X031079Y008068D01*
X031092Y008357D02*
X031269Y008357D01*
X031394Y008482D01*
X031394Y008659D01*
X031269Y008784D01*
X031092Y008784D01*
X030967Y008659D01*
X030967Y008482D01*
X031092Y008357D01*
X031026Y008424D02*
X030352Y008424D01*
X030410Y008482D02*
X030285Y008357D01*
X030108Y008357D01*
X029983Y008482D01*
X029983Y008659D01*
X030108Y008784D01*
X030285Y008784D01*
X030410Y008659D01*
X030410Y008482D01*
X030410Y008542D02*
X030967Y008542D01*
X030969Y008661D02*
X030408Y008661D01*
X030290Y008779D02*
X031087Y008779D01*
X031274Y008779D02*
X032367Y008779D01*
X032248Y008661D02*
X031393Y008661D01*
X031394Y008542D02*
X032247Y008542D01*
X032305Y008424D02*
X031336Y008424D01*
X030712Y008305D02*
X020371Y008305D01*
X020371Y008285D02*
X020246Y008160D01*
X020069Y008160D01*
X019944Y008285D01*
X019944Y008462D01*
X020069Y008587D01*
X020246Y008587D01*
X020371Y008462D01*
X020371Y008285D01*
X020371Y008424D02*
X029254Y008424D01*
X029196Y008482D02*
X029321Y008357D01*
X029498Y008357D01*
X029623Y008482D01*
X029623Y008659D01*
X029498Y008784D01*
X029321Y008784D01*
X029196Y008659D01*
X029196Y008482D01*
X029196Y008542D02*
X020291Y008542D01*
X020024Y008542D02*
X019700Y008542D01*
X019655Y008587D02*
X019583Y008587D01*
X019583Y008659D01*
X019458Y008784D01*
X019281Y008784D01*
X019156Y008659D01*
X019156Y008482D01*
X019281Y008357D01*
X019353Y008357D01*
X019353Y008285D01*
X019478Y008160D01*
X019655Y008160D01*
X019780Y008285D01*
X019780Y008462D01*
X019655Y008587D01*
X019582Y008661D02*
X026852Y008661D01*
X026833Y008679D02*
X026958Y008554D01*
X027135Y008554D01*
X027260Y008679D01*
X027260Y008856D01*
X027135Y008981D01*
X026958Y008981D01*
X026867Y008889D01*
X026867Y009053D01*
X026742Y009178D01*
X026565Y009178D01*
X026440Y009053D01*
X026440Y008876D01*
X026565Y008751D01*
X026742Y008751D01*
X026833Y008842D01*
X026833Y008679D01*
X026833Y008779D02*
X026770Y008779D01*
X026867Y008898D02*
X026875Y008898D01*
X026867Y009016D02*
X032008Y009016D01*
X031951Y009135D02*
X026785Y009135D01*
X026522Y009135D02*
X026079Y009135D01*
X026079Y009073D02*
X026079Y009249D01*
X025954Y009375D01*
X025777Y009375D01*
X025686Y009283D01*
X025686Y009446D01*
X025561Y009571D01*
X025384Y009571D01*
X025259Y009446D01*
X025259Y009269D01*
X025384Y009144D01*
X025561Y009144D01*
X025652Y009236D01*
X025652Y009073D01*
X025777Y008947D01*
X025954Y008947D01*
X026079Y009073D01*
X026023Y009016D02*
X026440Y009016D01*
X026440Y008898D02*
X018501Y008898D01*
X018501Y008876D02*
X018501Y008947D01*
X018572Y008947D01*
X018697Y009073D01*
X018697Y009249D01*
X018572Y009375D01*
X018395Y009375D01*
X018270Y009249D01*
X018270Y009178D01*
X018199Y009178D01*
X018074Y009053D01*
X018074Y008876D01*
X018199Y008751D01*
X018264Y008751D01*
X018172Y008659D01*
X018172Y008482D01*
X018297Y008357D01*
X018474Y008357D01*
X018599Y008482D01*
X018599Y008659D01*
X018474Y008784D01*
X018409Y008784D01*
X018501Y008876D01*
X018479Y008779D02*
X019276Y008779D01*
X019158Y008661D02*
X018597Y008661D01*
X018599Y008542D02*
X018744Y008542D01*
X018789Y008587D02*
X018664Y008462D01*
X018664Y008285D01*
X018789Y008160D01*
X018966Y008160D01*
X019091Y008285D01*
X019091Y008462D01*
X018966Y008587D01*
X018789Y008587D01*
X018664Y008424D02*
X018541Y008424D01*
X018664Y008305D02*
X016040Y008305D01*
X016040Y008285D02*
X016040Y008357D01*
X016112Y008357D01*
X016237Y008482D01*
X016237Y008659D01*
X016112Y008784D01*
X015935Y008784D01*
X015810Y008659D01*
X015810Y008587D01*
X015738Y008587D01*
X015613Y008462D01*
X015613Y008299D01*
X015521Y008390D01*
X015449Y008390D01*
X015449Y008462D01*
X015358Y008554D01*
X015423Y008554D01*
X015548Y008679D01*
X015548Y008856D01*
X015423Y008981D01*
X015246Y008981D01*
X015121Y008856D01*
X015121Y008679D01*
X015212Y008587D01*
X015147Y008587D01*
X015022Y008462D01*
X015022Y008285D01*
X015147Y008160D01*
X015219Y008160D01*
X015219Y008088D01*
X015344Y007963D01*
X015521Y007963D01*
X015646Y008088D01*
X015646Y008252D01*
X015738Y008160D01*
X015915Y008160D01*
X016040Y008285D01*
X015941Y008187D02*
X018763Y008187D01*
X018888Y007997D02*
X018763Y007872D01*
X018763Y007695D01*
X018888Y007570D01*
X019065Y007570D01*
X019190Y007695D01*
X019190Y007872D01*
X019065Y007997D01*
X018888Y007997D01*
X018841Y007950D02*
X018521Y007950D01*
X018474Y007997D02*
X018297Y007997D01*
X018172Y007872D01*
X018172Y007695D01*
X018297Y007570D01*
X018474Y007570D01*
X018599Y007695D01*
X018599Y007872D01*
X018474Y007997D01*
X018599Y007831D02*
X018763Y007831D01*
X018763Y007713D02*
X018599Y007713D01*
X018498Y007594D02*
X018863Y007594D01*
X019089Y007594D02*
X025162Y007594D01*
X025187Y007570D02*
X025364Y007570D01*
X025489Y007695D01*
X025489Y007872D01*
X025364Y007997D01*
X025187Y007997D01*
X025062Y007872D01*
X025062Y007695D01*
X025187Y007570D01*
X025062Y007713D02*
X019190Y007713D01*
X019190Y007831D02*
X025062Y007831D01*
X025140Y007950D02*
X019112Y007950D01*
X018993Y008187D02*
X019452Y008187D01*
X019353Y008305D02*
X019091Y008305D01*
X019091Y008424D02*
X019215Y008424D01*
X019156Y008542D02*
X019011Y008542D01*
X019463Y008779D02*
X026536Y008779D01*
X026076Y009253D02*
X031955Y009253D01*
X032074Y009372D02*
X028839Y009372D01*
X028809Y009341D02*
X028934Y009466D01*
X028934Y009643D01*
X028809Y009768D01*
X028632Y009768D01*
X028507Y009643D01*
X028507Y009466D01*
X028632Y009341D01*
X028809Y009341D01*
X028934Y009490D02*
X032389Y009490D01*
X032345Y009372D02*
X032257Y009372D01*
X032273Y009735D02*
X032450Y009735D01*
X032575Y009860D01*
X032575Y010037D01*
X032484Y010129D01*
X032647Y010129D01*
X032756Y010237D01*
X032864Y010129D01*
X033027Y010129D01*
X032936Y010037D01*
X032936Y009860D01*
X033061Y009735D01*
X033238Y009735D01*
X033363Y009860D01*
X033363Y010037D01*
X033271Y010129D01*
X033435Y010129D01*
X033560Y010254D01*
X033560Y010431D01*
X033435Y010556D01*
X033258Y010556D01*
X033149Y010447D01*
X033041Y010556D01*
X032864Y010556D01*
X032756Y010447D01*
X032647Y010556D01*
X032470Y010556D01*
X032362Y010447D01*
X032253Y010556D01*
X032077Y010556D01*
X031951Y010431D01*
X031951Y010254D01*
X032077Y010129D01*
X032240Y010129D01*
X032148Y010037D01*
X032148Y009860D01*
X032273Y009735D01*
X032163Y009846D02*
X031085Y009846D01*
X031099Y009860D02*
X030974Y009735D01*
X030797Y009735D01*
X030672Y009860D01*
X030672Y010037D01*
X030797Y010162D01*
X030974Y010162D01*
X031099Y010037D01*
X031099Y009860D01*
X031099Y009964D02*
X032148Y009964D01*
X032194Y010083D02*
X031053Y010083D01*
X030718Y010083D02*
X029774Y010083D01*
X029820Y010037D02*
X029820Y009965D01*
X029990Y009965D01*
X030115Y009840D01*
X030115Y009663D01*
X029990Y009538D01*
X029813Y009538D01*
X029688Y009663D01*
X029688Y009735D01*
X029518Y009735D01*
X029392Y009860D01*
X029392Y010037D01*
X029518Y010162D01*
X029694Y010162D01*
X029820Y010037D01*
X029991Y009964D02*
X030672Y009964D01*
X030686Y009846D02*
X030109Y009846D01*
X030115Y009727D02*
X033709Y009727D01*
X033625Y009609D02*
X030060Y009609D01*
X029742Y009609D02*
X028934Y009609D01*
X028850Y009727D02*
X029688Y009727D01*
X029407Y009846D02*
X027443Y009846D01*
X027457Y009860D02*
X027457Y010037D01*
X027349Y010145D01*
X027457Y010254D01*
X027457Y010431D01*
X027332Y010556D01*
X027155Y010556D01*
X027030Y010431D01*
X027030Y010254D01*
X027139Y010145D01*
X027030Y010037D01*
X027030Y009860D01*
X027155Y009735D01*
X027332Y009735D01*
X027457Y009860D01*
X027457Y009964D02*
X028796Y009964D01*
X028829Y009932D02*
X029005Y009932D01*
X029131Y010057D01*
X029131Y010234D01*
X029005Y010359D01*
X028829Y010359D01*
X028703Y010234D01*
X028703Y010057D01*
X028829Y009932D01*
X028703Y010083D02*
X027412Y010083D01*
X027405Y010201D02*
X028703Y010201D01*
X028789Y010320D02*
X028507Y010320D01*
X028540Y010352D02*
X028415Y010227D01*
X028238Y010227D01*
X028113Y010352D01*
X028113Y010529D01*
X028172Y010588D01*
X028113Y010647D01*
X028113Y010818D01*
X027943Y010818D01*
X027818Y010943D01*
X027818Y011120D01*
X027831Y011133D01*
X027746Y011133D01*
X027621Y011258D01*
X027621Y011303D01*
X027529Y011211D01*
X027352Y011211D01*
X027227Y011336D01*
X027227Y011513D01*
X027352Y011638D01*
X027529Y011638D01*
X027654Y011513D01*
X027654Y011468D01*
X027746Y011560D01*
X027923Y011560D01*
X028048Y011435D01*
X028048Y011258D01*
X028035Y011245D01*
X028120Y011245D01*
X028245Y011120D01*
X028245Y010949D01*
X028415Y010949D01*
X028540Y010824D01*
X028540Y010647D01*
X028481Y010588D01*
X028540Y010529D01*
X028540Y010352D01*
X028540Y010438D02*
X029503Y010438D01*
X029491Y010451D02*
X029616Y010325D01*
X029793Y010325D01*
X029918Y010451D01*
X029918Y010627D01*
X029793Y010753D01*
X029616Y010753D01*
X029491Y010627D01*
X029491Y010451D01*
X029491Y010557D02*
X028512Y010557D01*
X028540Y010675D02*
X029538Y010675D01*
X029870Y010675D02*
X043419Y010675D01*
X043419Y010557D02*
X030579Y010557D01*
X030607Y010529D02*
X030482Y010654D01*
X030305Y010654D01*
X030180Y010529D01*
X030180Y010352D01*
X030305Y010227D01*
X030482Y010227D01*
X030607Y010352D01*
X030607Y010529D01*
X030607Y010438D02*
X031959Y010438D01*
X031951Y010320D02*
X030574Y010320D01*
X030212Y010320D02*
X029045Y010320D01*
X029131Y010201D02*
X032004Y010201D01*
X032530Y010083D02*
X032981Y010083D01*
X032936Y009964D02*
X032575Y009964D01*
X032561Y009846D02*
X032950Y009846D01*
X032792Y010201D02*
X032720Y010201D01*
X033317Y010083D02*
X034162Y010083D01*
X034117Y010037D02*
X034117Y009860D01*
X034242Y009735D01*
X034419Y009735D01*
X034544Y009860D01*
X034544Y010037D01*
X034419Y010162D01*
X034255Y010162D01*
X034347Y010254D01*
X034347Y010431D01*
X034222Y010556D01*
X034045Y010556D01*
X033986Y010496D01*
X033927Y010556D01*
X033750Y010556D01*
X033625Y010431D01*
X033625Y010254D01*
X033750Y010129D01*
X033927Y010129D01*
X033986Y010188D01*
X034045Y010129D01*
X034209Y010129D01*
X034117Y010037D01*
X034117Y009964D02*
X033363Y009964D01*
X033348Y009846D02*
X034131Y009846D01*
X033968Y009727D02*
X036282Y009727D01*
X036282Y009663D02*
X036407Y009538D01*
X036584Y009538D01*
X036709Y009663D01*
X036709Y009840D01*
X036584Y009965D01*
X036407Y009965D01*
X036282Y009840D01*
X036282Y009663D01*
X036337Y009609D02*
X034052Y009609D01*
X034052Y009490D02*
X043419Y009490D01*
X043419Y009372D02*
X036587Y009372D01*
X036584Y009375D02*
X036407Y009375D01*
X036282Y009249D01*
X036282Y009073D01*
X036407Y008947D01*
X036584Y008947D01*
X036709Y009073D01*
X036709Y009249D01*
X036584Y009375D01*
X036706Y009253D02*
X043419Y009253D01*
X043419Y009135D02*
X036709Y009135D01*
X036653Y009016D02*
X043419Y009016D01*
X043419Y008898D02*
X034467Y008898D01*
X034544Y009016D02*
X036339Y009016D01*
X036282Y009135D02*
X034544Y009135D01*
X034442Y009253D02*
X036286Y009253D01*
X036404Y009372D02*
X033957Y009372D01*
X034529Y009846D02*
X034820Y009846D01*
X034806Y009860D02*
X034931Y009735D01*
X035108Y009735D01*
X035233Y009860D01*
X035233Y010037D01*
X035108Y010162D01*
X034931Y010162D01*
X034806Y010037D01*
X034806Y009860D01*
X034806Y009964D02*
X034544Y009964D01*
X034498Y010083D02*
X034851Y010083D01*
X035187Y010083D02*
X035495Y010083D01*
X035495Y010057D02*
X035620Y009932D01*
X035797Y009932D01*
X035922Y010057D01*
X035922Y010234D01*
X035797Y010359D01*
X035620Y010359D01*
X035495Y010234D01*
X035495Y010057D01*
X035588Y009964D02*
X035233Y009964D01*
X035218Y009846D02*
X036288Y009846D01*
X036406Y009964D02*
X035829Y009964D01*
X035922Y010083D02*
X043419Y010083D01*
X043419Y010201D02*
X035922Y010201D01*
X035836Y010320D02*
X043419Y010320D01*
X043419Y010438D02*
X034340Y010438D01*
X034347Y010320D02*
X035581Y010320D01*
X035495Y010201D02*
X034294Y010201D01*
X033677Y010201D02*
X033507Y010201D01*
X033560Y010320D02*
X033625Y010320D01*
X033632Y010438D02*
X033552Y010438D01*
X033238Y011113D02*
X033363Y011238D01*
X033363Y011415D01*
X033238Y011540D01*
X033061Y011540D01*
X032936Y011415D01*
X032936Y011238D01*
X033061Y011113D01*
X033238Y011113D01*
X033274Y011149D02*
X043419Y011149D01*
X043419Y011031D02*
X030498Y011031D01*
X030482Y011014D02*
X030607Y011139D01*
X030607Y011316D01*
X030482Y011441D01*
X030305Y011441D01*
X030180Y011316D01*
X030180Y011139D01*
X030305Y011014D01*
X030482Y011014D01*
X030607Y011149D02*
X032434Y011149D01*
X032470Y011113D02*
X032647Y011113D01*
X032772Y011238D01*
X032772Y011415D01*
X032647Y011540D01*
X032470Y011540D01*
X032379Y011448D01*
X032379Y011513D01*
X032253Y011638D01*
X032077Y011638D01*
X031951Y011513D01*
X031951Y011336D01*
X032077Y011211D01*
X032253Y011211D01*
X032345Y011303D01*
X032345Y011238D01*
X032470Y011113D01*
X032345Y011268D02*
X032310Y011268D01*
X032379Y011505D02*
X032435Y011505D01*
X032269Y011623D02*
X034421Y011623D01*
X034439Y011605D02*
X034616Y011605D01*
X034741Y011730D01*
X034741Y011907D01*
X034616Y012032D01*
X034439Y012032D01*
X034314Y011907D01*
X034314Y011730D01*
X034439Y011605D01*
X034314Y011742D02*
X033965Y011742D01*
X033927Y011703D02*
X034052Y011828D01*
X034052Y012005D01*
X033927Y012130D01*
X033750Y012130D01*
X033625Y012005D01*
X033625Y011828D01*
X033750Y011703D01*
X033927Y011703D01*
X034052Y011860D02*
X034314Y011860D01*
X034385Y011979D02*
X034052Y011979D01*
X033960Y012097D02*
X043419Y012097D01*
X043419Y011979D02*
X037031Y011979D01*
X036978Y012032D02*
X036801Y012032D01*
X036676Y011907D01*
X036676Y011730D01*
X036801Y011605D01*
X036978Y011605D01*
X037103Y011730D01*
X037103Y011907D01*
X036978Y012032D01*
X037103Y011860D02*
X043419Y011860D01*
X043419Y011742D02*
X037103Y011742D01*
X036996Y011623D02*
X043419Y011623D01*
X043419Y011505D02*
X036709Y011505D01*
X036709Y011513D02*
X036584Y011638D01*
X036407Y011638D01*
X036282Y011513D01*
X036282Y011336D01*
X036407Y011211D01*
X036584Y011211D01*
X036709Y011336D01*
X036709Y011513D01*
X036709Y011386D02*
X043419Y011386D01*
X043419Y011268D02*
X036640Y011268D01*
X036351Y011268D02*
X033363Y011268D01*
X033363Y011386D02*
X036282Y011386D01*
X036282Y011505D02*
X033273Y011505D01*
X033025Y011505D02*
X032683Y011505D01*
X032772Y011386D02*
X032936Y011386D01*
X032936Y011268D02*
X032772Y011268D01*
X032683Y011149D02*
X033025Y011149D01*
X033041Y011703D02*
X033166Y011828D01*
X033166Y012005D01*
X033041Y012130D01*
X032864Y012130D01*
X032739Y012005D01*
X032739Y011828D01*
X032864Y011703D01*
X033041Y011703D01*
X033079Y011742D02*
X033712Y011742D01*
X033625Y011860D02*
X033166Y011860D01*
X033166Y011979D02*
X033625Y011979D01*
X033716Y012097D02*
X033074Y012097D01*
X032831Y012097D02*
X031493Y012097D01*
X031493Y011979D02*
X032739Y011979D01*
X032739Y011860D02*
X031426Y011860D01*
X031133Y011860D02*
X030063Y011860D01*
X030115Y011809D02*
X029990Y011934D01*
X029813Y011934D01*
X029688Y011809D01*
X029688Y011632D01*
X029813Y011507D01*
X029990Y011507D01*
X030115Y011632D01*
X030115Y011809D01*
X030115Y011742D02*
X032826Y011742D01*
X032061Y011623D02*
X030106Y011623D01*
X030249Y011386D02*
X029820Y011386D01*
X029820Y011415D02*
X029694Y011540D01*
X029518Y011540D01*
X029392Y011415D01*
X029392Y011238D01*
X029518Y011113D01*
X029694Y011113D01*
X029820Y011238D01*
X029820Y011415D01*
X029730Y011505D02*
X031951Y011505D01*
X031951Y011386D02*
X030537Y011386D01*
X030607Y011268D02*
X032020Y011268D01*
X031066Y011979D02*
X029327Y011979D01*
X029327Y012005D02*
X029202Y012130D01*
X029025Y012130D01*
X028900Y012005D01*
X028900Y011934D01*
X028829Y011934D01*
X028703Y011809D01*
X028703Y011645D01*
X028612Y011737D01*
X028435Y011737D01*
X028310Y011612D01*
X028310Y011435D01*
X028435Y011310D01*
X028507Y011310D01*
X028507Y011258D01*
X028632Y011133D01*
X028809Y011133D01*
X028934Y011258D01*
X028934Y011435D01*
X028862Y011507D01*
X029005Y011507D01*
X029131Y011632D01*
X029131Y011703D01*
X029202Y011703D01*
X029327Y011828D01*
X029327Y012005D01*
X029236Y012097D02*
X031066Y012097D01*
X031044Y012216D02*
X030924Y012216D01*
X030180Y011268D02*
X029820Y011268D01*
X029731Y011149D02*
X030180Y011149D01*
X030289Y011031D02*
X028245Y011031D01*
X028215Y011149D02*
X028615Y011149D01*
X028507Y011268D02*
X028048Y011268D01*
X028048Y011386D02*
X028358Y011386D01*
X028310Y011505D02*
X027978Y011505D01*
X027691Y011505D02*
X027654Y011505D01*
X027544Y011623D02*
X028321Y011623D01*
X028703Y011742D02*
X026780Y011742D01*
X026742Y011703D02*
X026867Y011828D01*
X026867Y012005D01*
X026742Y012130D01*
X026565Y012130D01*
X026440Y012005D01*
X026440Y011828D01*
X026565Y011703D01*
X026742Y011703D01*
X026762Y011638D02*
X026637Y011513D01*
X026637Y011448D01*
X026545Y011540D01*
X026368Y011540D01*
X026260Y011432D01*
X026151Y011540D01*
X025974Y011540D01*
X025849Y011415D01*
X025849Y011350D01*
X025757Y011441D01*
X025581Y011441D01*
X025455Y011316D01*
X025455Y011139D01*
X025581Y011014D01*
X025757Y011014D01*
X025883Y011139D01*
X025883Y011205D01*
X025974Y011113D01*
X026151Y011113D01*
X026260Y011221D01*
X026368Y011113D01*
X026545Y011113D01*
X026670Y011238D01*
X026670Y011303D01*
X026762Y011211D01*
X026939Y011211D01*
X027064Y011336D01*
X027064Y011513D01*
X026939Y011638D01*
X026762Y011638D01*
X026746Y011623D02*
X024898Y011623D01*
X024870Y011505D02*
X025939Y011505D01*
X025849Y011386D02*
X025813Y011386D01*
X025883Y011149D02*
X025938Y011149D01*
X025774Y011031D02*
X027818Y011031D01*
X027848Y010912D02*
X025261Y010912D01*
X025292Y010943D02*
X025167Y010818D01*
X024990Y010818D01*
X024865Y010943D01*
X024865Y011120D01*
X024990Y011245D01*
X025167Y011245D01*
X025292Y011120D01*
X025292Y010943D01*
X025292Y011031D02*
X025564Y011031D01*
X025455Y011149D02*
X025262Y011149D01*
X025455Y011268D02*
X022142Y011268D01*
X022142Y011238D02*
X022017Y011113D01*
X021840Y011113D01*
X021715Y011238D01*
X021715Y011415D01*
X021840Y011540D01*
X022017Y011540D01*
X022142Y011415D01*
X022142Y011238D01*
X022053Y011149D02*
X024894Y011149D01*
X024865Y011031D02*
X022724Y011031D01*
X022733Y011021D02*
X022608Y011146D01*
X022431Y011146D01*
X022306Y011021D01*
X022306Y010844D01*
X022431Y010719D01*
X022608Y010719D01*
X022733Y010844D01*
X022733Y011021D01*
X022733Y010912D02*
X024895Y010912D01*
X024500Y011505D02*
X023323Y011505D01*
X023323Y011435D02*
X023198Y011310D01*
X023021Y011310D01*
X022896Y011435D01*
X022896Y011612D01*
X023021Y011737D01*
X023198Y011737D01*
X023323Y011612D01*
X023323Y011435D01*
X023275Y011386D02*
X025525Y011386D01*
X025127Y011860D02*
X026440Y011860D01*
X026440Y011979D02*
X025194Y011979D01*
X025194Y012097D02*
X026531Y012097D01*
X026775Y012097D02*
X028992Y012097D01*
X028900Y011979D02*
X026867Y011979D01*
X026867Y011860D02*
X028755Y011860D01*
X028864Y011505D02*
X029482Y011505D01*
X029392Y011386D02*
X028934Y011386D01*
X028934Y011268D02*
X029392Y011268D01*
X029481Y011149D02*
X028825Y011149D01*
X028452Y010912D02*
X043419Y010912D01*
X043419Y010794D02*
X028540Y010794D01*
X028113Y010794D02*
X022682Y010794D01*
X022357Y010794D02*
X021206Y010794D01*
X021257Y010844D02*
X021257Y011021D01*
X021131Y011146D01*
X020955Y011146D01*
X020829Y011021D01*
X020829Y010844D01*
X020921Y010753D01*
X020856Y010753D01*
X020731Y010627D01*
X020731Y010451D01*
X020856Y010325D01*
X021033Y010325D01*
X021125Y010417D01*
X021125Y010254D01*
X021250Y010129D01*
X021427Y010129D01*
X021552Y010254D01*
X021552Y010431D01*
X021427Y010556D01*
X021250Y010556D01*
X021158Y010464D01*
X021158Y010627D01*
X021066Y010719D01*
X021131Y010719D01*
X021257Y010844D01*
X021257Y010912D02*
X022306Y010912D01*
X022315Y011031D02*
X021247Y011031D01*
X021348Y011310D02*
X021223Y011435D01*
X021223Y011507D01*
X021151Y011507D01*
X021026Y011632D01*
X021026Y011809D01*
X021151Y011934D01*
X021328Y011934D01*
X021453Y011809D01*
X021453Y011737D01*
X021525Y011737D01*
X021650Y011612D01*
X021650Y011435D01*
X021525Y011310D01*
X021348Y011310D01*
X021272Y011386D02*
X015942Y011386D01*
X015942Y011415D02*
X015833Y011523D01*
X015942Y011632D01*
X015942Y011809D01*
X015816Y011934D01*
X015640Y011934D01*
X015514Y011809D01*
X015514Y011632D01*
X015623Y011523D01*
X015514Y011415D01*
X015514Y011238D01*
X015640Y011113D01*
X015816Y011113D01*
X015942Y011238D01*
X015942Y011415D01*
X015852Y011505D02*
X021223Y011505D01*
X021035Y011623D02*
X020657Y011623D01*
X020666Y011632D02*
X020541Y011507D01*
X020364Y011507D01*
X020239Y011632D01*
X020239Y011809D01*
X020364Y011934D01*
X020541Y011934D01*
X020666Y011809D01*
X020666Y011632D01*
X020666Y011742D02*
X021026Y011742D01*
X021078Y011860D02*
X020614Y011860D01*
X020290Y011860D02*
X018532Y011860D01*
X018599Y011979D02*
X021617Y011979D01*
X021617Y012097D02*
X018599Y012097D01*
X018172Y012097D02*
X016532Y012097D01*
X016532Y011979D02*
X017751Y011979D01*
X017805Y012032D02*
X017680Y011907D01*
X017680Y011730D01*
X017805Y011605D01*
X017982Y011605D01*
X018107Y011730D01*
X018107Y011907D01*
X017982Y012032D01*
X017805Y012032D01*
X017680Y011860D02*
X017268Y011860D01*
X017320Y011809D02*
X017194Y011934D01*
X017018Y011934D01*
X016892Y011809D01*
X016892Y011632D01*
X017018Y011507D01*
X017194Y011507D01*
X017320Y011632D01*
X017320Y011809D01*
X017320Y011742D02*
X017680Y011742D01*
X017787Y011623D02*
X017311Y011623D01*
X016901Y011623D02*
X015933Y011623D01*
X015942Y011742D02*
X016892Y011742D01*
X016944Y011860D02*
X016465Y011860D01*
X016172Y011860D02*
X015890Y011860D01*
X016105Y011979D02*
X015154Y011979D01*
X015154Y012005D02*
X015029Y012130D01*
X014852Y012130D01*
X014727Y012005D01*
X014727Y011828D01*
X014835Y011720D01*
X014727Y011612D01*
X014727Y011540D01*
X014655Y011540D01*
X014530Y011415D01*
X014530Y011238D01*
X014655Y011113D01*
X014832Y011113D01*
X014957Y011238D01*
X014957Y011310D01*
X015029Y011310D01*
X015154Y011435D01*
X015154Y011612D01*
X015046Y011720D01*
X015154Y011828D01*
X015154Y012005D01*
X015063Y012097D02*
X016105Y012097D01*
X015566Y011860D02*
X015154Y011860D01*
X015067Y011742D02*
X015514Y011742D01*
X015523Y011623D02*
X015143Y011623D01*
X015154Y011505D02*
X015604Y011505D01*
X015514Y011386D02*
X015105Y011386D01*
X014957Y011268D02*
X015514Y011268D01*
X015603Y011149D02*
X014868Y011149D01*
X014662Y011021D02*
X014537Y011146D01*
X014360Y011146D01*
X014235Y011021D01*
X014235Y010844D01*
X014360Y010719D01*
X014537Y010719D01*
X014662Y010844D01*
X014662Y011021D01*
X014653Y011031D02*
X017986Y011031D01*
X017975Y011041D02*
X018100Y010916D01*
X018277Y010916D01*
X018336Y010975D01*
X018395Y010916D01*
X018572Y010916D01*
X018632Y010975D01*
X018691Y010916D01*
X018868Y010916D01*
X018959Y011008D01*
X018959Y010844D01*
X019084Y010719D01*
X019261Y010719D01*
X019321Y010778D01*
X019380Y010719D01*
X019557Y010719D01*
X019682Y010844D01*
X019682Y011021D01*
X019557Y011146D01*
X019380Y011146D01*
X019321Y011087D01*
X019261Y011146D01*
X019084Y011146D01*
X018993Y011055D01*
X018993Y011218D01*
X018868Y011343D01*
X018691Y011343D01*
X018632Y011284D01*
X018572Y011343D01*
X018395Y011343D01*
X018336Y011284D01*
X018277Y011343D01*
X018100Y011343D01*
X017975Y011218D01*
X017975Y011041D01*
X017975Y011149D02*
X015853Y011149D01*
X015942Y011268D02*
X018025Y011268D01*
X018000Y011623D02*
X020247Y011623D01*
X020239Y011742D02*
X018107Y011742D01*
X018107Y011860D02*
X018239Y011860D01*
X018172Y011979D02*
X018035Y011979D01*
X018943Y011268D02*
X021715Y011268D01*
X021715Y011386D02*
X021601Y011386D01*
X021650Y011505D02*
X021805Y011505D01*
X021639Y011623D02*
X022908Y011623D01*
X022896Y011505D02*
X022053Y011505D01*
X022142Y011386D02*
X022945Y011386D01*
X023312Y011623D02*
X024471Y011623D01*
X024460Y011742D02*
X021453Y011742D01*
X021402Y011860D02*
X021684Y011860D01*
X021977Y011860D02*
X024373Y011860D01*
X024373Y011979D02*
X022044Y011979D01*
X022044Y012097D02*
X024464Y012097D01*
X024624Y012216D02*
X024745Y012216D01*
X024766Y012097D02*
X024708Y012097D01*
X024800Y011860D02*
X024833Y011860D01*
X024867Y011742D02*
X026527Y011742D01*
X026580Y011505D02*
X026637Y011505D01*
X026670Y011268D02*
X026705Y011268D01*
X026581Y011149D02*
X027729Y011149D01*
X027621Y011268D02*
X027585Y011268D01*
X027296Y011268D02*
X026995Y011268D01*
X027064Y011386D02*
X027227Y011386D01*
X027227Y011505D02*
X027064Y011505D01*
X026954Y011623D02*
X027337Y011623D01*
X026333Y011505D02*
X026187Y011505D01*
X026187Y011149D02*
X026332Y011149D01*
X027038Y010438D02*
X021544Y010438D01*
X021552Y010320D02*
X027030Y010320D01*
X027083Y010201D02*
X021499Y010201D01*
X021177Y010201D02*
X005951Y010201D01*
X005951Y010083D02*
X024320Y010083D01*
X024274Y010037D02*
X024274Y009860D01*
X024399Y009735D01*
X024471Y009735D01*
X024471Y009663D01*
X024596Y009538D01*
X024773Y009538D01*
X024898Y009663D01*
X024898Y009840D01*
X024773Y009965D01*
X024701Y009965D01*
X024701Y010037D01*
X024576Y010162D01*
X024399Y010162D01*
X024274Y010037D01*
X024274Y009964D02*
X023692Y009964D01*
X023690Y009965D02*
X023514Y009965D01*
X023405Y009857D01*
X023297Y009965D01*
X023120Y009965D01*
X022995Y009840D01*
X022995Y009663D01*
X023120Y009538D01*
X023297Y009538D01*
X023405Y009646D01*
X023514Y009538D01*
X023690Y009538D01*
X023816Y009663D01*
X023816Y009840D01*
X023690Y009965D01*
X023810Y009846D02*
X024289Y009846D01*
X024471Y009727D02*
X023816Y009727D01*
X023761Y009609D02*
X024526Y009609D01*
X024844Y009609D02*
X028507Y009609D01*
X028507Y009490D02*
X025642Y009490D01*
X025686Y009372D02*
X025774Y009372D01*
X025957Y009372D02*
X028601Y009372D01*
X028590Y009727D02*
X024898Y009727D01*
X024893Y009846D02*
X025864Y009846D01*
X025849Y009860D02*
X025974Y009735D01*
X026151Y009735D01*
X026276Y009860D01*
X026276Y010037D01*
X026151Y010162D01*
X025974Y010162D01*
X025849Y010037D01*
X025849Y009860D01*
X025849Y009964D02*
X024774Y009964D01*
X024656Y010083D02*
X025895Y010083D01*
X026231Y010083D02*
X027076Y010083D01*
X027030Y009964D02*
X026276Y009964D01*
X026262Y009846D02*
X027045Y009846D01*
X027457Y010320D02*
X028145Y010320D01*
X028113Y010438D02*
X027450Y010438D01*
X028140Y010557D02*
X021158Y010557D01*
X021110Y010675D02*
X028113Y010675D01*
X029038Y009964D02*
X029392Y009964D01*
X029438Y010083D02*
X029131Y010083D01*
X029905Y010438D02*
X030180Y010438D01*
X030207Y010557D02*
X029918Y010557D01*
X029696Y011623D02*
X029122Y011623D01*
X029240Y011742D02*
X029688Y011742D01*
X029739Y011860D02*
X029327Y011860D01*
X029316Y008779D02*
X027260Y008779D01*
X027242Y008661D02*
X029197Y008661D01*
X029503Y008779D02*
X030103Y008779D01*
X029985Y008661D02*
X029621Y008661D01*
X029623Y008542D02*
X029983Y008542D01*
X030041Y008424D02*
X029564Y008424D01*
X028978Y007950D02*
X028737Y007950D01*
X028737Y007891D02*
X028612Y007766D01*
X028435Y007766D01*
X028310Y007891D01*
X028310Y008068D01*
X015626Y008068D01*
X015646Y008187D02*
X015712Y008187D01*
X015613Y008305D02*
X015606Y008305D01*
X015613Y008424D02*
X015449Y008424D01*
X015369Y008542D02*
X015693Y008542D01*
X015811Y008661D02*
X015530Y008661D01*
X015548Y008779D02*
X015930Y008779D01*
X016117Y008779D02*
X018170Y008779D01*
X018174Y008661D02*
X016235Y008661D01*
X016237Y008542D02*
X018172Y008542D01*
X018230Y008424D02*
X016178Y008424D01*
X016525Y007997D02*
X016400Y007872D01*
X016400Y007695D01*
X016525Y007570D01*
X016702Y007570D01*
X016827Y007695D01*
X016827Y007872D01*
X016702Y007997D01*
X016525Y007997D01*
X016478Y007950D02*
X013678Y007950D01*
X013678Y007970D02*
X013619Y008029D01*
X013678Y008088D01*
X013678Y008265D01*
X013569Y008374D01*
X013678Y008482D01*
X013678Y008554D01*
X013750Y008554D01*
X013875Y008679D01*
X013875Y008856D01*
X013750Y008981D01*
X013573Y008981D01*
X013448Y008856D01*
X013448Y008784D01*
X013376Y008784D01*
X013251Y008659D01*
X013251Y008482D01*
X013359Y008374D01*
X013251Y008265D01*
X013251Y008088D01*
X013310Y008029D01*
X013251Y007970D01*
X013251Y007793D01*
X013376Y007668D01*
X013553Y007668D01*
X013678Y007793D01*
X013678Y007970D01*
X013657Y008068D02*
X015239Y008068D01*
X015121Y008187D02*
X013678Y008187D01*
X013638Y008305D02*
X013920Y008305D01*
X013966Y008259D02*
X014143Y008259D01*
X014268Y008384D01*
X014268Y008560D01*
X014143Y008686D01*
X013966Y008686D01*
X013841Y008560D01*
X013841Y008384D01*
X013966Y008259D01*
X013841Y008424D02*
X013619Y008424D01*
X013678Y008542D02*
X013841Y008542D01*
X013856Y008661D02*
X013941Y008661D01*
X013875Y008779D02*
X015121Y008779D01*
X015139Y008661D02*
X014168Y008661D01*
X014268Y008542D02*
X015102Y008542D01*
X015022Y008424D02*
X014268Y008424D01*
X014190Y008305D02*
X015022Y008305D01*
X015060Y007713D02*
X013597Y007713D01*
X013678Y007831D02*
X016400Y007831D01*
X016400Y007713D02*
X015412Y007713D01*
X015449Y007594D02*
X016501Y007594D01*
X016727Y007594D02*
X017091Y007594D01*
X017116Y007570D02*
X017293Y007570D01*
X017418Y007695D01*
X017418Y007872D01*
X017293Y007997D01*
X017116Y007997D01*
X016991Y007872D01*
X016991Y007695D01*
X017116Y007570D01*
X016991Y007713D02*
X016827Y007713D01*
X016827Y007831D02*
X016991Y007831D01*
X017069Y007950D02*
X016749Y007950D01*
X017340Y007950D02*
X018250Y007950D01*
X018172Y007831D02*
X017418Y007831D01*
X017418Y007713D02*
X018172Y007713D01*
X018273Y007594D02*
X017317Y007594D01*
X016998Y006816D02*
X016821Y006816D01*
X016761Y006756D01*
X016702Y006816D01*
X016525Y006816D01*
X016400Y006690D01*
X016400Y006514D01*
X016525Y006388D01*
X016702Y006388D01*
X016761Y006448D01*
X016821Y006388D01*
X016998Y006388D01*
X017123Y006514D01*
X017123Y006690D01*
X016998Y006816D01*
X017049Y006765D02*
X017852Y006765D01*
X017903Y006816D02*
X017778Y006690D01*
X017778Y006514D01*
X017903Y006388D01*
X018080Y006388D01*
X018205Y006514D01*
X018205Y006690D01*
X018080Y006816D01*
X017903Y006816D01*
X017778Y006646D02*
X017123Y006646D01*
X017123Y006528D02*
X017778Y006528D01*
X017883Y006409D02*
X017018Y006409D01*
X016800Y006409D02*
X016723Y006409D01*
X016505Y006409D02*
X016237Y006409D01*
X016237Y006494D02*
X016112Y006619D01*
X015935Y006619D01*
X015810Y006494D01*
X015810Y006317D01*
X015935Y006192D01*
X016112Y006192D01*
X016237Y006317D01*
X016237Y006494D01*
X016203Y006528D02*
X016400Y006528D01*
X016400Y006646D02*
X014991Y006646D01*
X015056Y006765D02*
X016474Y006765D01*
X016753Y006765D02*
X016770Y006765D01*
X016211Y006291D02*
X024668Y006291D01*
X024668Y006172D02*
X015377Y006172D01*
X015324Y006225D02*
X015253Y006225D01*
X015253Y006297D01*
X015127Y006422D01*
X014951Y006422D01*
X014825Y006297D01*
X014825Y006120D01*
X014951Y005995D01*
X015022Y005995D01*
X015022Y005923D01*
X015147Y005798D01*
X015324Y005798D01*
X015449Y005923D01*
X015449Y006100D01*
X015324Y006225D01*
X015253Y006291D02*
X015836Y006291D01*
X015810Y006409D02*
X015140Y006409D01*
X014938Y006409D02*
X014353Y006409D01*
X014465Y006291D02*
X014825Y006291D01*
X014825Y006172D02*
X014590Y006172D01*
X014662Y006054D02*
X014892Y006054D01*
X015022Y005935D02*
X014662Y005935D01*
X014556Y005817D02*
X015129Y005817D01*
X015343Y005817D02*
X024971Y005817D01*
X024865Y005935D02*
X015449Y005935D01*
X015449Y006054D02*
X024734Y006054D01*
X024780Y006409D02*
X018101Y006409D01*
X018205Y006528D02*
X025489Y006528D01*
X025455Y006409D02*
X024983Y006409D01*
X025095Y006291D02*
X025482Y006291D01*
X025292Y005935D02*
X028495Y005935D01*
X028749Y005935D02*
X028802Y005935D01*
X028810Y005817D02*
X025186Y005817D01*
X026055Y006883D02*
X030180Y006883D01*
X030180Y006765D02*
X030139Y006765D01*
X030213Y006646D02*
X030244Y006646D01*
X030213Y006528D02*
X032197Y006528D01*
X032197Y006544D02*
X032197Y006419D01*
X032245Y006303D01*
X032333Y006215D01*
X032449Y006167D01*
X032573Y006167D01*
X032689Y006215D01*
X032777Y006303D01*
X032825Y006419D01*
X032825Y006544D01*
X032777Y006659D01*
X032689Y006747D01*
X032573Y006795D01*
X032449Y006795D01*
X032333Y006747D01*
X032245Y006659D01*
X032197Y006544D01*
X032240Y006646D02*
X030543Y006646D01*
X030607Y006765D02*
X032375Y006765D01*
X032647Y006765D02*
X034314Y006765D01*
X034314Y006789D02*
X034314Y006612D01*
X034439Y006487D01*
X034616Y006487D01*
X034741Y006612D01*
X034741Y006789D01*
X034616Y006914D01*
X034439Y006914D01*
X034314Y006789D01*
X034222Y006782D02*
X034347Y006907D01*
X034347Y007084D01*
X034222Y007209D01*
X034045Y007209D01*
X033920Y007084D01*
X033920Y006907D01*
X034045Y006782D01*
X034222Y006782D01*
X034323Y006883D02*
X034408Y006883D01*
X034347Y007002D02*
X036778Y007002D01*
X036801Y006979D02*
X036978Y006979D01*
X037103Y007104D01*
X037103Y007281D01*
X036978Y007406D01*
X036801Y007406D01*
X036676Y007281D01*
X036676Y007104D01*
X036801Y006979D01*
X036676Y007120D02*
X034311Y007120D01*
X033956Y007120D02*
X033819Y007120D01*
X033855Y007084D02*
X033730Y007209D01*
X033553Y007209D01*
X033428Y007084D01*
X033428Y006907D01*
X033553Y006782D01*
X033730Y006782D01*
X033855Y006907D01*
X033855Y007084D01*
X033855Y007002D02*
X033920Y007002D01*
X033944Y006883D02*
X033831Y006883D01*
X033947Y006619D02*
X033822Y006494D01*
X033822Y006317D01*
X033947Y006192D01*
X034124Y006192D01*
X034249Y006317D01*
X034249Y006494D01*
X034124Y006619D01*
X033947Y006619D01*
X033856Y006528D02*
X032825Y006528D01*
X032821Y006409D02*
X033822Y006409D01*
X033848Y006291D02*
X032764Y006291D01*
X032585Y006172D02*
X035587Y006172D01*
X035598Y006167D02*
X035723Y006167D01*
X035838Y006215D01*
X035927Y006303D01*
X035974Y006419D01*
X035974Y006544D01*
X035927Y006659D01*
X035838Y006747D01*
X035723Y006795D01*
X035598Y006795D01*
X035483Y006747D01*
X035395Y006659D01*
X035347Y006544D01*
X035347Y006419D01*
X035395Y006303D01*
X035483Y006215D01*
X035598Y006167D01*
X035734Y006172D02*
X037558Y006172D01*
X037676Y006291D02*
X035914Y006291D01*
X035970Y006409D02*
X036387Y006409D01*
X036407Y006388D02*
X036584Y006388D01*
X036709Y006514D01*
X036709Y006690D01*
X036584Y006816D01*
X036407Y006816D01*
X036282Y006690D01*
X036282Y006514D01*
X036407Y006388D01*
X036282Y006528D02*
X035974Y006528D01*
X035932Y006646D02*
X036282Y006646D01*
X036356Y006765D02*
X035796Y006765D01*
X035525Y006765D02*
X034741Y006765D01*
X034741Y006646D02*
X035389Y006646D01*
X035347Y006528D02*
X034656Y006528D01*
X034398Y006528D02*
X034215Y006528D01*
X034249Y006409D02*
X035351Y006409D01*
X035408Y006291D02*
X034223Y006291D01*
X034314Y006646D02*
X032782Y006646D01*
X032437Y006172D02*
X030561Y006172D01*
X030607Y006291D02*
X032258Y006291D01*
X032201Y006409D02*
X030593Y006409D01*
X030194Y006409D02*
X030109Y006409D01*
X029786Y006646D02*
X018205Y006646D01*
X018131Y006765D02*
X029860Y006765D01*
X030294Y007002D02*
X026079Y007002D01*
X026043Y007120D02*
X033464Y007120D01*
X033428Y007002D02*
X030493Y007002D01*
X030607Y006883D02*
X033452Y006883D01*
X034647Y006883D02*
X038172Y006883D01*
X038363Y006883D02*
X041160Y006883D01*
X041160Y006898D02*
X041160Y006628D01*
X041230Y006368D01*
X041365Y006134D01*
X041556Y005944D01*
X041789Y005809D01*
X042050Y005739D01*
X042320Y005739D01*
X042580Y005809D01*
X042814Y005944D01*
X043005Y006134D01*
X043139Y006368D01*
X043209Y006628D01*
X043209Y006898D01*
X043139Y007159D01*
X043005Y007392D01*
X042814Y007583D01*
X042580Y007718D01*
X042320Y007788D01*
X042050Y007788D01*
X041789Y007718D01*
X041556Y007583D01*
X041365Y007392D01*
X041230Y007159D01*
X041160Y006898D01*
X041188Y007002D02*
X037000Y007002D01*
X037103Y007120D02*
X041220Y007120D01*
X041276Y007239D02*
X037103Y007239D01*
X037027Y007357D02*
X038339Y007357D01*
X038589Y007357D02*
X041344Y007357D01*
X041448Y007476D02*
X038811Y007476D01*
X038921Y007594D02*
X039532Y007594D01*
X039557Y007570D02*
X039734Y007570D01*
X039859Y007695D01*
X039859Y007872D01*
X039734Y007997D01*
X039557Y007997D01*
X039432Y007872D01*
X039432Y007695D01*
X039557Y007570D01*
X039432Y007713D02*
X038971Y007713D01*
X038997Y007831D02*
X039432Y007831D01*
X039510Y007950D02*
X038997Y007950D01*
X038963Y008068D02*
X041421Y008068D01*
X041400Y008088D02*
X041525Y007963D01*
X041702Y007963D01*
X041827Y008088D01*
X041827Y008265D01*
X041702Y008390D01*
X041525Y008390D01*
X041400Y008265D01*
X041400Y008088D01*
X041400Y008187D02*
X038912Y008187D01*
X038794Y008305D02*
X041440Y008305D01*
X041788Y008305D02*
X043419Y008305D01*
X043419Y008187D02*
X043087Y008187D01*
X043107Y008167D02*
X042982Y008292D01*
X042805Y008292D01*
X042680Y008167D01*
X042680Y007990D01*
X042805Y007865D01*
X042982Y007865D01*
X043107Y007990D01*
X043107Y008167D01*
X043107Y008068D02*
X043419Y008068D01*
X043419Y007950D02*
X043067Y007950D01*
X042720Y007950D02*
X039781Y007950D01*
X039859Y007831D02*
X043419Y007831D01*
X043419Y007713D02*
X042590Y007713D01*
X042795Y007594D02*
X043419Y007594D01*
X043419Y007476D02*
X042922Y007476D01*
X043025Y007357D02*
X043419Y007357D01*
X043419Y007239D02*
X043093Y007239D01*
X043150Y007120D02*
X043419Y007120D01*
X043419Y007002D02*
X043182Y007002D01*
X043209Y006883D02*
X043419Y006883D01*
X043416Y006765D02*
X043209Y006765D01*
X043209Y006646D02*
X043409Y006646D01*
X043383Y006528D02*
X043182Y006528D01*
X043150Y006409D02*
X043351Y006409D01*
X043320Y006291D02*
X043095Y006291D01*
X043026Y006172D02*
X043261Y006172D01*
X043193Y006054D02*
X042924Y006054D01*
X042799Y005935D02*
X043122Y005935D01*
X043004Y005817D02*
X042594Y005817D01*
X042694Y005580D02*
X041040Y005580D01*
X041040Y005461D02*
X042420Y005461D01*
X042885Y005698D02*
X040950Y005698D01*
X040831Y005817D02*
X041776Y005817D01*
X041570Y005935D02*
X040646Y005935D01*
X040594Y006054D02*
X041446Y006054D01*
X041343Y006172D02*
X040351Y006172D01*
X040259Y006291D02*
X041275Y006291D01*
X041219Y006409D02*
X039459Y006409D01*
X039465Y006415D02*
X039340Y006290D01*
X039163Y006290D01*
X039038Y006415D01*
X039038Y006592D01*
X039163Y006717D01*
X039340Y006717D01*
X039465Y006592D01*
X039465Y006415D01*
X039465Y006528D02*
X041187Y006528D01*
X041160Y006646D02*
X039411Y006646D01*
X039092Y006646D02*
X038564Y006646D01*
X038557Y006528D02*
X039038Y006528D01*
X039044Y006409D02*
X038493Y006409D01*
X038236Y006291D02*
X039163Y006291D01*
X039341Y006291D02*
X040016Y006291D01*
X039924Y006172D02*
X038117Y006172D01*
X037999Y006054D02*
X039924Y006054D01*
X040010Y005935D02*
X037880Y005935D01*
X037762Y005817D02*
X040227Y005817D01*
X040416Y005698D02*
X037643Y005698D01*
X037525Y005580D02*
X040464Y005580D01*
X040613Y005461D02*
X037406Y005461D01*
X037084Y005698D02*
X029623Y005698D01*
X029611Y005817D02*
X037202Y005817D01*
X037795Y006409D02*
X036605Y006409D01*
X036709Y006528D02*
X037913Y006528D01*
X037971Y006646D02*
X036709Y006646D01*
X036635Y006765D02*
X038014Y006765D01*
X038117Y007476D02*
X036414Y007476D01*
X036414Y007357D02*
X036752Y007357D01*
X036676Y007239D02*
X036352Y007239D01*
X036298Y007594D02*
X038007Y007594D01*
X038422Y008424D02*
X043419Y008424D01*
X043419Y008542D02*
X038481Y008542D01*
X038479Y008661D02*
X043419Y008661D01*
X043419Y008779D02*
X038361Y008779D01*
X039758Y007594D02*
X041574Y007594D01*
X041780Y007713D02*
X039859Y007713D01*
X041160Y006765D02*
X038521Y006765D01*
X036655Y009609D02*
X043419Y009609D01*
X043419Y009727D02*
X036709Y009727D01*
X036704Y009846D02*
X043419Y009846D01*
X043419Y009964D02*
X036585Y009964D01*
X036190Y011507D02*
X036316Y011632D01*
X036316Y011809D01*
X036190Y011934D01*
X036014Y011934D01*
X035888Y011809D01*
X035888Y011632D01*
X036014Y011507D01*
X036190Y011507D01*
X036307Y011623D02*
X036392Y011623D01*
X036316Y011742D02*
X036676Y011742D01*
X036676Y011860D02*
X036264Y011860D01*
X035940Y011860D02*
X035528Y011860D01*
X035528Y011907D02*
X035403Y012032D01*
X035226Y012032D01*
X035101Y011907D01*
X035101Y011730D01*
X035226Y011605D01*
X035403Y011605D01*
X035528Y011730D01*
X035528Y011907D01*
X035457Y011979D02*
X036747Y011979D01*
X036783Y011623D02*
X036600Y011623D01*
X035897Y011623D02*
X035421Y011623D01*
X035528Y011742D02*
X035888Y011742D01*
X035208Y011623D02*
X034634Y011623D01*
X034741Y011742D02*
X035101Y011742D01*
X035101Y011860D02*
X034741Y011860D01*
X034669Y011979D02*
X035173Y011979D01*
X037695Y012216D02*
X042588Y012216D01*
X042581Y012222D02*
X042706Y012097D01*
X042883Y012097D01*
X043008Y012222D01*
X043008Y012399D01*
X042883Y012524D01*
X042706Y012524D01*
X042581Y012399D01*
X042581Y012222D01*
X042581Y012334D02*
X037796Y012334D01*
X037841Y012453D02*
X042635Y012453D01*
X042955Y012453D02*
X043419Y012453D01*
X043419Y012571D02*
X037841Y012571D01*
X037841Y012690D02*
X043419Y012690D01*
X043419Y012808D02*
X037841Y012808D01*
X037841Y012927D02*
X041286Y012927D01*
X041329Y012884D02*
X041505Y012884D01*
X041631Y013010D01*
X041631Y013186D01*
X041505Y013312D01*
X041329Y013312D01*
X041203Y013186D01*
X041203Y013010D01*
X041329Y012884D01*
X041203Y013045D02*
X037841Y013045D01*
X037841Y013164D02*
X041203Y013164D01*
X041299Y013282D02*
X037841Y013282D01*
X037841Y013401D02*
X043419Y013401D01*
X043419Y013519D02*
X037841Y013519D01*
X037841Y013638D02*
X043419Y013638D01*
X043419Y013756D02*
X037841Y013756D01*
X037841Y013875D02*
X038173Y013875D01*
X038152Y013895D02*
X038277Y013770D01*
X038454Y013770D01*
X038579Y013895D01*
X038579Y014072D01*
X038454Y014197D01*
X038277Y014197D01*
X038152Y014072D01*
X038152Y013895D01*
X038152Y013993D02*
X037841Y013993D01*
X037841Y014112D02*
X038191Y014112D01*
X038540Y014112D02*
X043419Y014112D01*
X043419Y014230D02*
X037841Y014230D01*
X037841Y014349D02*
X043419Y014349D01*
X043419Y014467D02*
X037841Y014467D01*
X037841Y014586D02*
X043419Y014586D01*
X043419Y014704D02*
X037841Y014704D01*
X037841Y014823D02*
X043419Y014823D01*
X043419Y014941D02*
X037841Y014941D01*
X037841Y015060D02*
X043419Y015060D01*
X043419Y015178D02*
X037841Y015178D01*
X037841Y015297D02*
X043419Y015297D01*
X043419Y015415D02*
X037841Y015415D01*
X037841Y015534D02*
X043419Y015534D01*
X043419Y015652D02*
X037841Y015652D01*
X037841Y015771D02*
X043419Y015771D01*
X043419Y015889D02*
X037841Y015889D01*
X037841Y016008D02*
X043419Y016008D01*
X043419Y016126D02*
X037841Y016126D01*
X037841Y016245D02*
X043419Y016245D01*
X043419Y016363D02*
X037841Y016363D01*
X037841Y016482D02*
X043419Y016482D01*
X043419Y016600D02*
X041186Y016600D01*
X041237Y016651D02*
X041112Y016526D01*
X040935Y016526D01*
X040810Y016651D01*
X040810Y016828D01*
X040935Y016953D01*
X041112Y016953D01*
X041237Y016828D01*
X041237Y016651D01*
X041237Y016719D02*
X043419Y016719D01*
X043419Y016837D02*
X041228Y016837D01*
X040819Y016837D02*
X039170Y016837D01*
X039170Y016750D02*
X039045Y016625D01*
X038868Y016625D01*
X038743Y016750D01*
X038743Y016927D01*
X038868Y017052D01*
X039045Y017052D01*
X039170Y016927D01*
X039170Y016750D01*
X039139Y016719D02*
X040810Y016719D01*
X040861Y016600D02*
X037841Y016600D01*
X037841Y016719D02*
X038774Y016719D01*
X038743Y016837D02*
X037841Y016837D01*
X037841Y016956D02*
X038772Y016956D01*
X039141Y016956D02*
X043419Y016956D01*
X043419Y017074D02*
X037841Y017074D01*
X037841Y017193D02*
X043419Y017193D01*
X043419Y017311D02*
X042192Y017311D01*
X042221Y017340D02*
X042096Y017215D01*
X041919Y017215D01*
X041794Y017340D01*
X041794Y017517D01*
X041919Y017642D01*
X042096Y017642D01*
X042221Y017517D01*
X042221Y017340D01*
X042221Y017430D02*
X043419Y017430D01*
X043419Y017548D02*
X042190Y017548D01*
X041825Y017548D02*
X037841Y017548D01*
X037841Y017430D02*
X041794Y017430D01*
X041823Y017311D02*
X037841Y017311D01*
X037841Y017667D02*
X043419Y017667D01*
X043419Y017785D02*
X037841Y017785D01*
X037841Y017904D02*
X043419Y017904D01*
X043419Y018022D02*
X037841Y018022D01*
X037841Y018141D02*
X043419Y018141D01*
X043419Y018259D02*
X037841Y018259D01*
X037841Y018378D02*
X043419Y018378D01*
X043419Y018496D02*
X037841Y018496D01*
X037841Y018615D02*
X043419Y018615D01*
X043419Y018733D02*
X037841Y018733D01*
X037841Y018852D02*
X043419Y018852D01*
X042735Y018970D02*
X037841Y018970D01*
X037841Y019089D02*
X038668Y019089D01*
X038644Y019112D02*
X038769Y018987D01*
X038946Y018987D01*
X039071Y019112D01*
X039071Y019289D01*
X038946Y019414D01*
X038769Y019414D01*
X038644Y019289D01*
X038644Y019112D01*
X038644Y019207D02*
X037841Y019207D01*
X037841Y019326D02*
X038681Y019326D01*
X039035Y019326D02*
X041831Y019326D01*
X041794Y019289D02*
X041794Y019112D01*
X041919Y018987D01*
X042096Y018987D01*
X042221Y019112D01*
X042221Y019289D01*
X042096Y019414D01*
X041919Y019414D01*
X041794Y019289D01*
X041794Y019207D02*
X039071Y019207D01*
X039048Y019089D02*
X041817Y019089D01*
X042198Y019089D02*
X042656Y019089D01*
X042627Y019207D02*
X042221Y019207D01*
X042184Y019326D02*
X042628Y019326D01*
X042680Y019444D02*
X041372Y019444D01*
X041434Y019506D02*
X041309Y019381D01*
X041132Y019381D01*
X041007Y019506D01*
X041007Y019683D01*
X041132Y019808D01*
X041309Y019808D01*
X041434Y019683D01*
X041434Y019506D01*
X041434Y019563D02*
X042807Y019563D01*
X043419Y019681D02*
X041434Y019681D01*
X041317Y019800D02*
X043419Y019800D01*
X043419Y019918D02*
X037841Y019918D01*
X037841Y019800D02*
X041124Y019800D01*
X041007Y019681D02*
X037841Y019681D01*
X037841Y019563D02*
X041007Y019563D01*
X041068Y019444D02*
X037841Y019444D01*
X037841Y020037D02*
X043419Y020037D01*
X043419Y020155D02*
X037841Y020155D01*
X037841Y020274D02*
X043419Y020274D01*
X043419Y020392D02*
X037841Y020392D01*
X037841Y020511D02*
X043419Y020511D01*
X043419Y020629D02*
X037841Y020629D01*
X037841Y020748D02*
X043419Y020748D01*
X043419Y020866D02*
X037841Y020866D01*
X037841Y020985D02*
X038937Y020985D01*
X038966Y020955D02*
X038841Y021080D01*
X038841Y021257D01*
X038966Y021382D01*
X039143Y021382D01*
X039268Y021257D01*
X039268Y021080D01*
X039143Y020955D01*
X038966Y020955D01*
X038841Y021103D02*
X037841Y021103D01*
X037841Y021222D02*
X038841Y021222D01*
X038924Y021340D02*
X037841Y021340D01*
X037841Y021459D02*
X043419Y021459D01*
X043419Y021577D02*
X037841Y021577D01*
X037841Y021696D02*
X043419Y021696D01*
X043419Y021814D02*
X037841Y021814D01*
X037841Y021933D02*
X043419Y021933D01*
X043419Y022051D02*
X037841Y022051D01*
X037841Y022170D02*
X038221Y022170D01*
X038163Y022194D02*
X038358Y022113D01*
X038570Y022113D01*
X038766Y022194D01*
X038916Y022344D01*
X038997Y022539D01*
X038997Y022751D01*
X038916Y022947D01*
X038766Y023097D01*
X038570Y023178D01*
X038358Y023178D01*
X038163Y023097D01*
X038013Y022947D01*
X037932Y022751D01*
X037932Y022539D01*
X038013Y022344D01*
X038163Y022194D01*
X038068Y022288D02*
X037841Y022288D01*
X037841Y022407D02*
X037987Y022407D01*
X037938Y022525D02*
X037841Y022525D01*
X037841Y022644D02*
X037932Y022644D01*
X037936Y022762D02*
X037841Y022762D01*
X037841Y022881D02*
X037985Y022881D01*
X038065Y022999D02*
X037841Y022999D01*
X037841Y023118D02*
X038213Y023118D01*
X037841Y023236D02*
X041306Y023236D01*
X041365Y023134D02*
X041556Y022944D01*
X041789Y022809D01*
X042050Y022739D01*
X042320Y022739D01*
X042580Y022809D01*
X042814Y022944D01*
X043005Y023134D01*
X043139Y023368D01*
X043209Y023628D01*
X043209Y023898D01*
X043139Y024159D01*
X043005Y024392D01*
X042814Y024583D01*
X042580Y024718D01*
X042320Y024788D01*
X042050Y024788D01*
X041789Y024718D01*
X041556Y024583D01*
X041365Y024392D01*
X041230Y024159D01*
X041160Y023898D01*
X041160Y023628D01*
X041230Y023368D01*
X041365Y023134D01*
X041382Y023118D02*
X038715Y023118D01*
X038863Y022999D02*
X041500Y022999D01*
X041665Y022881D02*
X038943Y022881D01*
X038992Y022762D02*
X041963Y022762D01*
X042406Y022762D02*
X043419Y022762D01*
X043419Y022644D02*
X041032Y022644D01*
X041013Y022662D02*
X040836Y022662D01*
X040711Y022537D01*
X040711Y022360D01*
X040836Y022235D01*
X041013Y022235D01*
X041138Y022360D01*
X041138Y022537D01*
X041013Y022662D01*
X041138Y022525D02*
X043419Y022525D01*
X043419Y022407D02*
X041138Y022407D01*
X041066Y022288D02*
X043419Y022288D01*
X043419Y022170D02*
X038707Y022170D01*
X038860Y022288D02*
X040783Y022288D01*
X040711Y022407D02*
X038942Y022407D01*
X038991Y022525D02*
X040711Y022525D01*
X040818Y022644D02*
X038997Y022644D01*
X039186Y021340D02*
X043419Y021340D01*
X043419Y021222D02*
X039268Y021222D01*
X039268Y021103D02*
X043419Y021103D01*
X043419Y020985D02*
X039172Y020985D01*
X037841Y023355D02*
X041238Y023355D01*
X041202Y023473D02*
X037841Y023473D01*
X037841Y023592D02*
X041170Y023592D01*
X041160Y023710D02*
X037841Y023710D01*
X037841Y023829D02*
X041160Y023829D01*
X041173Y023947D02*
X037841Y023947D01*
X037841Y024066D02*
X041205Y024066D01*
X041245Y024184D02*
X037841Y024184D01*
X037841Y024303D02*
X041313Y024303D01*
X041393Y024421D02*
X037806Y024421D01*
X037677Y024540D02*
X041512Y024540D01*
X041685Y024658D02*
X037841Y024658D01*
X037841Y024777D02*
X042007Y024777D01*
X042362Y024777D02*
X042937Y024777D01*
X043056Y024658D02*
X042684Y024658D01*
X042857Y024540D02*
X043154Y024540D01*
X043223Y024421D02*
X042976Y024421D01*
X043056Y024303D02*
X043291Y024303D01*
X043334Y024184D02*
X043125Y024184D01*
X043164Y024066D02*
X043365Y024066D01*
X043397Y023947D02*
X043196Y023947D01*
X043209Y023829D02*
X043412Y023829D01*
X043419Y023710D02*
X043209Y023710D01*
X043199Y023592D02*
X043419Y023592D01*
X043419Y023473D02*
X043168Y023473D01*
X043132Y023355D02*
X043419Y023355D01*
X043419Y023236D02*
X043063Y023236D01*
X042988Y023118D02*
X043419Y023118D01*
X043419Y022999D02*
X042869Y022999D01*
X042705Y022881D02*
X043419Y022881D01*
X042784Y024895D02*
X037841Y024895D01*
X037841Y025014D02*
X042579Y025014D01*
X042114Y025132D02*
X037841Y025132D01*
X038579Y013993D02*
X043419Y013993D01*
X043419Y013875D02*
X038558Y013875D01*
X041535Y013282D02*
X043419Y013282D01*
X043419Y013164D02*
X041631Y013164D01*
X041631Y013045D02*
X043419Y013045D01*
X043419Y012927D02*
X041547Y012927D01*
X043008Y012334D02*
X043419Y012334D01*
X043419Y012216D02*
X043002Y012216D01*
X042700Y008187D02*
X041827Y008187D01*
X041807Y008068D02*
X042680Y008068D01*
X032781Y008898D02*
X027219Y008898D01*
X028310Y008068D02*
X028435Y008193D01*
X028612Y008193D01*
X028737Y008068D01*
X030692Y008068D01*
X030672Y008187D02*
X028619Y008187D01*
X028737Y008068D02*
X028737Y007891D01*
X028676Y007831D02*
X028900Y007831D01*
X028900Y007713D02*
X026079Y007713D01*
X026079Y007695D02*
X025954Y007570D01*
X025777Y007570D01*
X025652Y007695D01*
X025652Y007872D01*
X025777Y007997D01*
X025954Y007997D01*
X026079Y007872D01*
X026079Y007695D01*
X026079Y007831D02*
X028370Y007831D01*
X028310Y007950D02*
X026001Y007950D01*
X025730Y007950D02*
X025411Y007950D01*
X025489Y007831D02*
X025652Y007831D01*
X025652Y007713D02*
X025489Y007713D01*
X025388Y007594D02*
X025753Y007594D01*
X025979Y007594D02*
X029001Y007594D01*
X028428Y008187D02*
X020272Y008187D01*
X020042Y008187D02*
X019681Y008187D01*
X019780Y008305D02*
X019944Y008305D01*
X019944Y008424D02*
X019780Y008424D01*
X018641Y009016D02*
X025709Y009016D01*
X025652Y009135D02*
X018697Y009135D01*
X018694Y009253D02*
X025275Y009253D01*
X025259Y009372D02*
X018575Y009372D01*
X018392Y009372D02*
X016142Y009372D01*
X016112Y009341D02*
X016237Y009466D01*
X016237Y009643D01*
X016112Y009768D01*
X015935Y009768D01*
X015810Y009643D01*
X015810Y009578D01*
X015718Y009670D01*
X015646Y009670D01*
X015646Y009742D01*
X015521Y009867D01*
X015344Y009867D01*
X015219Y009742D01*
X015219Y009565D01*
X015344Y009440D01*
X015416Y009440D01*
X015416Y009368D01*
X015541Y009243D01*
X015718Y009243D01*
X015843Y009368D01*
X015843Y009433D01*
X015935Y009341D01*
X016112Y009341D01*
X016237Y009490D02*
X025302Y009490D01*
X023512Y009964D02*
X023298Y009964D01*
X023119Y009964D02*
X022806Y009964D01*
X022805Y009965D02*
X022628Y009965D01*
X022503Y009840D01*
X022503Y009663D01*
X022628Y009538D01*
X022805Y009538D01*
X022930Y009663D01*
X022930Y009840D01*
X022805Y009965D01*
X022924Y009846D02*
X023000Y009846D01*
X022995Y009727D02*
X022930Y009727D01*
X022875Y009609D02*
X023049Y009609D01*
X023367Y009609D02*
X023443Y009609D01*
X022557Y009609D02*
X018052Y009609D01*
X018107Y009663D02*
X018107Y009840D01*
X017982Y009965D01*
X017805Y009965D01*
X017746Y009906D01*
X017687Y009965D01*
X017510Y009965D01*
X017385Y009840D01*
X017385Y009663D01*
X017510Y009538D01*
X017687Y009538D01*
X017746Y009597D01*
X017805Y009538D01*
X017982Y009538D01*
X018107Y009663D01*
X018107Y009727D02*
X022503Y009727D01*
X022508Y009846D02*
X018101Y009846D01*
X017983Y009964D02*
X022627Y009964D01*
X021804Y011149D02*
X018993Y011149D01*
X018959Y010912D02*
X016346Y010912D01*
X016309Y010949D02*
X016132Y010949D01*
X016007Y010824D01*
X016007Y010647D01*
X016132Y010522D01*
X016309Y010522D01*
X016434Y010647D01*
X016434Y010824D01*
X016309Y010949D01*
X016434Y010794D02*
X019010Y010794D01*
X019550Y010627D02*
X019550Y010451D01*
X019675Y010325D01*
X019852Y010325D01*
X019977Y010451D01*
X019977Y010627D01*
X019852Y010753D01*
X019675Y010753D01*
X019550Y010627D01*
X019598Y010675D02*
X016434Y010675D01*
X016343Y010557D02*
X019550Y010557D01*
X019562Y010438D02*
X015437Y010438D01*
X015449Y010451D02*
X015449Y010522D01*
X015620Y010522D01*
X015745Y010647D01*
X015745Y010824D01*
X015620Y010949D01*
X015443Y010949D01*
X015318Y010824D01*
X015318Y010753D01*
X015147Y010753D01*
X015022Y010627D01*
X015022Y010451D01*
X015147Y010325D01*
X015324Y010325D01*
X015449Y010451D01*
X015654Y010557D02*
X016097Y010557D01*
X016007Y010675D02*
X015745Y010675D01*
X015745Y010794D02*
X016007Y010794D01*
X016094Y010912D02*
X015657Y010912D01*
X015405Y010912D02*
X014662Y010912D01*
X014611Y010794D02*
X015318Y010794D01*
X015070Y010675D02*
X013087Y010675D01*
X013087Y010647D02*
X012962Y010522D01*
X012890Y010522D01*
X012890Y010352D01*
X012765Y010227D01*
X012588Y010227D01*
X012463Y010352D01*
X012463Y010529D01*
X012588Y010654D01*
X012660Y010654D01*
X012660Y010811D01*
X012568Y010719D01*
X012392Y010719D01*
X012283Y010828D01*
X012175Y010719D01*
X012103Y010719D01*
X012103Y010647D01*
X011978Y010522D01*
X011801Y010522D01*
X011676Y010647D01*
X011676Y010824D01*
X011801Y010949D01*
X011873Y010949D01*
X011873Y011021D01*
X011998Y011146D01*
X012070Y011146D01*
X012070Y011218D01*
X012195Y011343D01*
X012372Y011343D01*
X012497Y011218D01*
X012497Y011146D01*
X012568Y011146D01*
X012694Y011021D01*
X012694Y010858D01*
X012785Y010949D01*
X012962Y010949D01*
X013087Y010824D01*
X013087Y010647D01*
X012996Y010557D02*
X015022Y010557D01*
X015035Y010438D02*
X012890Y010438D01*
X012858Y010320D02*
X021125Y010320D01*
X020744Y010438D02*
X020555Y010438D01*
X020568Y010451D02*
X020442Y010325D01*
X020266Y010325D01*
X020140Y010451D01*
X020140Y010627D01*
X020266Y010753D01*
X020442Y010753D01*
X020568Y010627D01*
X020568Y010451D01*
X020568Y010557D02*
X020731Y010557D01*
X020779Y010675D02*
X020520Y010675D01*
X020188Y010675D02*
X019929Y010675D01*
X019977Y010557D02*
X020140Y010557D01*
X020153Y010438D02*
X019964Y010438D01*
X019631Y010794D02*
X020880Y010794D01*
X020829Y010912D02*
X019682Y010912D01*
X019672Y011031D02*
X020839Y011031D01*
X018274Y009253D02*
X015728Y009253D01*
X015843Y009372D02*
X015904Y009372D01*
X015810Y009609D02*
X015779Y009609D01*
X015894Y009727D02*
X015646Y009727D01*
X015542Y009846D02*
X016603Y009846D01*
X016597Y009840D02*
X016597Y009663D01*
X016722Y009538D01*
X016899Y009538D01*
X017024Y009663D01*
X017024Y009840D01*
X016899Y009965D01*
X016722Y009965D01*
X016597Y009840D01*
X016597Y009727D02*
X016153Y009727D01*
X016237Y009609D02*
X016652Y009609D01*
X016970Y009609D02*
X017439Y009609D01*
X017385Y009727D02*
X017024Y009727D01*
X017019Y009846D02*
X017390Y009846D01*
X017509Y009964D02*
X016900Y009964D01*
X016721Y009964D02*
X014538Y009964D01*
X014537Y009965D02*
X014360Y009965D01*
X014235Y009840D01*
X014235Y009663D01*
X014294Y009604D01*
X014235Y009545D01*
X014235Y009480D01*
X014143Y009571D01*
X013966Y009571D01*
X013841Y009446D01*
X013841Y009269D01*
X013966Y009144D01*
X014143Y009144D01*
X014268Y009269D01*
X014268Y009334D01*
X014360Y009243D01*
X014537Y009243D01*
X014662Y009368D01*
X014662Y009545D01*
X014603Y009604D01*
X014662Y009663D01*
X014662Y009840D01*
X014537Y009965D01*
X014657Y009846D02*
X015323Y009846D01*
X015219Y009727D02*
X014662Y009727D01*
X014607Y009609D02*
X015219Y009609D01*
X015294Y009490D02*
X014662Y009490D01*
X014662Y009372D02*
X015416Y009372D01*
X015531Y009253D02*
X014547Y009253D01*
X014350Y009253D02*
X014252Y009253D01*
X014235Y009490D02*
X014225Y009490D01*
X014290Y009609D02*
X013776Y009609D01*
X013776Y009565D02*
X013651Y009440D01*
X013474Y009440D01*
X013349Y009565D01*
X013349Y009742D01*
X013474Y009867D01*
X013651Y009867D01*
X013776Y009742D01*
X013776Y009565D01*
X013702Y009490D02*
X013885Y009490D01*
X013841Y009372D02*
X011906Y009372D01*
X011906Y009446D02*
X011906Y009269D01*
X011781Y009144D01*
X011604Y009144D01*
X011479Y009269D01*
X011479Y009341D01*
X011407Y009341D01*
X011282Y009466D01*
X011282Y009643D01*
X011407Y009768D01*
X011584Y009768D01*
X011709Y009643D01*
X011709Y009571D01*
X011781Y009571D01*
X011906Y009446D01*
X011862Y009490D02*
X013424Y009490D01*
X013349Y009609D02*
X011709Y009609D01*
X011625Y009727D02*
X013349Y009727D01*
X013453Y009846D02*
X010922Y009846D01*
X010922Y009762D02*
X010922Y009938D01*
X010797Y010064D01*
X010620Y010064D01*
X010495Y009938D01*
X010495Y009762D01*
X010620Y009636D01*
X010797Y009636D01*
X010922Y009762D01*
X010887Y009727D02*
X011366Y009727D01*
X011282Y009609D02*
X009096Y009609D01*
X009150Y009663D02*
X009025Y009538D01*
X008848Y009538D01*
X008723Y009663D01*
X008723Y009840D01*
X008848Y009965D01*
X009025Y009965D01*
X009150Y009840D01*
X009150Y009663D01*
X009150Y009727D02*
X010529Y009727D01*
X010495Y009846D02*
X009145Y009846D01*
X009026Y009964D02*
X010520Y009964D01*
X010896Y009964D02*
X014359Y009964D01*
X014240Y009846D02*
X013672Y009846D01*
X013776Y009727D02*
X014235Y009727D01*
X013858Y009253D02*
X011890Y009253D01*
X011611Y009053D02*
X011611Y008876D01*
X011486Y008751D01*
X011309Y008751D01*
X011184Y008876D01*
X011184Y009039D01*
X011092Y008947D01*
X010915Y008947D01*
X010790Y009073D01*
X010790Y009249D01*
X010915Y009375D01*
X011092Y009375D01*
X011217Y009249D01*
X011217Y009086D01*
X011309Y009178D01*
X011486Y009178D01*
X011611Y009053D01*
X011611Y009016D02*
X018074Y009016D01*
X018074Y008898D02*
X015506Y008898D01*
X015163Y008898D02*
X013833Y008898D01*
X013489Y008898D02*
X011611Y008898D01*
X011514Y008779D02*
X013371Y008779D01*
X013252Y008661D02*
X009427Y008661D01*
X009419Y008652D02*
X009544Y008777D01*
X009544Y008954D01*
X009419Y009079D01*
X009242Y009079D01*
X009117Y008954D01*
X009117Y008777D01*
X009242Y008652D01*
X009419Y008652D01*
X009544Y008779D02*
X011280Y008779D01*
X011184Y008898D02*
X009959Y008898D01*
X009911Y008849D02*
X010036Y008974D01*
X010036Y009151D01*
X009911Y009276D01*
X009734Y009276D01*
X009609Y009151D01*
X009609Y008974D01*
X009734Y008849D01*
X009911Y008849D01*
X010036Y009016D02*
X010847Y009016D01*
X010790Y009135D02*
X010036Y009135D01*
X009934Y009253D02*
X010794Y009253D01*
X010912Y009372D02*
X005951Y009372D01*
X005951Y009490D02*
X006042Y009490D01*
X006092Y009440D02*
X006269Y009440D01*
X006394Y009565D01*
X006394Y009742D01*
X006269Y009867D01*
X006092Y009867D01*
X005967Y009742D01*
X005967Y009565D01*
X006092Y009440D01*
X005967Y009609D02*
X005951Y009609D01*
X005951Y009727D02*
X005967Y009727D01*
X005951Y009846D02*
X006071Y009846D01*
X005951Y009964D02*
X007469Y009964D01*
X007470Y009965D02*
X007345Y009840D01*
X007345Y009663D01*
X007470Y009538D01*
X007647Y009538D01*
X007772Y009663D01*
X007772Y009840D01*
X007647Y009965D01*
X007470Y009965D01*
X007351Y009846D02*
X006290Y009846D01*
X006394Y009727D02*
X007345Y009727D01*
X007400Y009609D02*
X006394Y009609D01*
X006320Y009490D02*
X011282Y009490D01*
X011377Y009372D02*
X011095Y009372D01*
X011214Y009253D02*
X011495Y009253D01*
X011529Y009135D02*
X018155Y009135D01*
X017804Y009964D02*
X017688Y009964D01*
X015022Y007594D02*
X014644Y007594D01*
X014760Y007476D02*
X015045Y007476D01*
X015078Y007357D02*
X015098Y007357D01*
X014803Y007357D02*
X014760Y007357D01*
X014727Y007239D02*
X014698Y007239D01*
X014727Y007120D02*
X012559Y007120D01*
X012595Y007002D02*
X013463Y007002D01*
X013448Y006986D02*
X013448Y006809D01*
X013573Y006684D01*
X013750Y006684D01*
X013875Y006809D01*
X013875Y006986D01*
X013750Y007111D01*
X013573Y007111D01*
X013448Y006986D01*
X013448Y006883D02*
X012796Y006883D01*
X012890Y006765D02*
X013492Y006765D01*
X013830Y006765D02*
X014333Y006765D01*
X014333Y006883D02*
X013875Y006883D01*
X013859Y007002D02*
X014448Y007002D01*
X014646Y007002D02*
X014743Y007002D01*
X015052Y007002D02*
X015125Y007002D01*
X015056Y006883D02*
X021346Y006883D01*
X021322Y007002D02*
X015347Y007002D01*
X015844Y006528D02*
X012806Y006528D01*
X012890Y006646D02*
X014398Y006646D01*
X014038Y006172D02*
X008783Y006172D01*
X008855Y006054D02*
X014104Y006054D01*
X013459Y005817D02*
X012977Y005817D01*
X012989Y005698D02*
X013448Y005698D01*
X012765Y007373D02*
X012588Y007373D01*
X012480Y007481D01*
X012470Y007471D01*
X012293Y007471D01*
X012185Y007580D01*
X012076Y007471D01*
X011899Y007471D01*
X011774Y007596D01*
X011774Y007773D01*
X011883Y007881D01*
X011774Y007990D01*
X011774Y008167D01*
X011834Y008226D01*
X011774Y008285D01*
X011774Y008462D01*
X011899Y008587D01*
X012076Y008587D01*
X012201Y008462D01*
X012201Y008285D01*
X012142Y008226D01*
X012201Y008167D01*
X012201Y008095D01*
X012273Y008095D01*
X012398Y007970D01*
X012398Y007898D01*
X012470Y007898D01*
X012578Y007790D01*
X012588Y007800D01*
X012765Y007800D01*
X012890Y007675D01*
X012890Y007498D01*
X012765Y007373D01*
X012868Y007476D02*
X014333Y007476D01*
X014450Y007594D02*
X012890Y007594D01*
X012853Y007713D02*
X013331Y007713D01*
X013251Y007831D02*
X012537Y007831D01*
X012398Y007950D02*
X013251Y007950D01*
X013271Y008068D02*
X012300Y008068D01*
X012182Y008187D02*
X013251Y008187D01*
X013290Y008305D02*
X012201Y008305D01*
X012201Y008424D02*
X013309Y008424D01*
X013251Y008542D02*
X012121Y008542D01*
X011854Y008542D02*
X005951Y008542D01*
X005951Y008424D02*
X008291Y008424D01*
X008231Y008364D02*
X008231Y008187D01*
X008356Y008062D01*
X008533Y008062D01*
X008658Y008187D01*
X008658Y008364D01*
X008533Y008489D01*
X008356Y008489D01*
X008231Y008364D01*
X008231Y008305D02*
X005951Y008305D01*
X005951Y008187D02*
X006774Y008187D01*
X006755Y008167D02*
X006755Y007990D01*
X006880Y007865D01*
X007057Y007865D01*
X007182Y007990D01*
X007182Y008167D01*
X007057Y008292D01*
X006880Y008292D01*
X006755Y008167D01*
X006755Y008068D02*
X005951Y008068D01*
X005951Y007950D02*
X006795Y007950D01*
X007141Y007950D02*
X009354Y007950D01*
X009314Y007990D02*
X009439Y007865D01*
X009616Y007865D01*
X009741Y007990D01*
X009741Y008167D01*
X009616Y008292D01*
X009439Y008292D01*
X009314Y008167D01*
X009314Y007990D01*
X009314Y008068D02*
X008539Y008068D01*
X008658Y008187D02*
X009333Y008187D01*
X009721Y008187D02*
X010457Y008187D01*
X010406Y008068D02*
X009741Y008068D01*
X009700Y007950D02*
X010373Y007950D01*
X010314Y007594D02*
X010448Y007594D01*
X010558Y007476D02*
X010331Y007476D01*
X010576Y008305D02*
X008658Y008305D01*
X008598Y008424D02*
X011774Y008424D01*
X011774Y008305D02*
X011235Y008305D01*
X011353Y008187D02*
X011794Y008187D01*
X011774Y008068D02*
X011404Y008068D01*
X011438Y007950D02*
X011815Y007950D01*
X011832Y007831D02*
X011438Y007831D01*
X011411Y007713D02*
X011774Y007713D01*
X011776Y007594D02*
X011362Y007594D01*
X011252Y007476D02*
X011895Y007476D01*
X012081Y007476D02*
X012289Y007476D01*
X012474Y007476D02*
X012486Y007476D01*
X011184Y009016D02*
X011161Y009016D01*
X011217Y009135D02*
X011266Y009135D01*
X011767Y010557D02*
X009256Y010557D01*
X009222Y010522D02*
X009347Y010647D01*
X009347Y010824D01*
X009222Y010949D01*
X009045Y010949D01*
X008920Y010824D01*
X008920Y010647D01*
X009045Y010522D01*
X009222Y010522D01*
X009347Y010675D02*
X011676Y010675D01*
X011676Y010794D02*
X009347Y010794D01*
X009259Y010912D02*
X011764Y010912D01*
X011882Y011031D02*
X011108Y011031D01*
X011119Y011041D02*
X010994Y010916D01*
X010817Y010916D01*
X010692Y011041D01*
X010692Y011218D01*
X010817Y011343D01*
X010994Y011343D01*
X011119Y011218D01*
X011119Y011041D01*
X011119Y011149D02*
X012070Y011149D01*
X012119Y011268D02*
X011069Y011268D01*
X010741Y011268D02*
X008953Y011268D01*
X008953Y011238D02*
X008828Y011113D01*
X008651Y011113D01*
X008526Y011238D01*
X008526Y011415D01*
X008651Y011540D01*
X008828Y011540D01*
X008953Y011415D01*
X008953Y011238D01*
X008864Y011149D02*
X010692Y011149D01*
X010702Y011031D02*
X006615Y011031D01*
X006615Y011149D02*
X007053Y011149D01*
X007065Y011137D02*
X007181Y011089D01*
X007307Y011089D01*
X007423Y011137D01*
X007512Y011226D01*
X007560Y011342D01*
X007560Y011530D01*
X007601Y011489D01*
X007701Y011447D01*
X007810Y011447D01*
X007910Y011489D01*
X007987Y011566D01*
X008028Y011666D01*
X008028Y011774D01*
X007987Y011874D01*
X007910Y011951D01*
X007810Y011993D01*
X007701Y011993D01*
X007601Y011951D01*
X007524Y011874D01*
X007483Y011774D01*
X007483Y011770D01*
X007423Y011830D01*
X007307Y011879D01*
X007181Y011879D01*
X007065Y011830D01*
X006976Y011742D01*
X006928Y011625D01*
X006928Y011342D01*
X006976Y011226D01*
X007065Y011137D01*
X006959Y011268D02*
X006567Y011268D01*
X006410Y011386D02*
X006928Y011386D01*
X006928Y011505D02*
X005951Y011505D01*
X005951Y011623D02*
X006928Y011623D01*
X006976Y011742D02*
X005951Y011742D01*
X005951Y011860D02*
X007136Y011860D01*
X007351Y011860D02*
X007518Y011860D01*
X007667Y011979D02*
X005951Y011979D01*
X005951Y012097D02*
X011479Y012097D01*
X011492Y012216D02*
X005951Y012216D01*
X005951Y012334D02*
X011573Y012334D01*
X011529Y012453D02*
X005951Y012453D01*
X005951Y012571D02*
X011529Y012571D01*
X011529Y012690D02*
X005951Y012690D01*
X005951Y012808D02*
X011529Y012808D01*
X011529Y012927D02*
X005951Y012927D01*
X005951Y013045D02*
X009180Y013045D01*
X009242Y012983D02*
X009419Y012983D01*
X009544Y013108D01*
X009544Y013285D01*
X009419Y013410D01*
X009242Y013410D01*
X009117Y013285D01*
X009117Y013108D01*
X009242Y012983D01*
X009117Y013164D02*
X007480Y013164D01*
X007512Y013195D02*
X007560Y013311D01*
X007560Y013594D01*
X007512Y013710D01*
X007451Y013771D01*
X007477Y013797D01*
X007477Y013974D01*
X007352Y014099D01*
X007175Y014099D01*
X007050Y013974D01*
X007050Y013797D01*
X007056Y013790D01*
X006976Y013710D01*
X006928Y013594D01*
X006928Y013311D01*
X006976Y013195D01*
X007065Y013106D01*
X007181Y013058D01*
X007307Y013058D01*
X007423Y013106D01*
X007512Y013195D01*
X007548Y013282D02*
X009117Y013282D01*
X009232Y013401D02*
X007560Y013401D01*
X007560Y013519D02*
X011529Y013519D01*
X011529Y013401D02*
X009428Y013401D01*
X009544Y013282D02*
X011529Y013282D01*
X011529Y013164D02*
X009544Y013164D01*
X009481Y013045D02*
X011529Y013045D01*
X011529Y013638D02*
X007542Y013638D01*
X007466Y013756D02*
X009551Y013756D01*
X009511Y013797D02*
X009636Y013672D01*
X009813Y013672D01*
X009938Y013797D01*
X009938Y013974D01*
X009813Y014099D01*
X009636Y014099D01*
X009511Y013974D01*
X009511Y013797D01*
X009511Y013875D02*
X007477Y013875D01*
X007458Y013993D02*
X009530Y013993D01*
X009918Y013993D02*
X011529Y013993D01*
X011529Y013875D02*
X009938Y013875D01*
X009897Y013756D02*
X011529Y013756D01*
X011529Y014112D02*
X006480Y014112D01*
X006580Y013993D02*
X007069Y013993D01*
X007050Y013875D02*
X006615Y013875D01*
X006604Y013756D02*
X007022Y013756D01*
X006946Y013638D02*
X006537Y013638D01*
X006928Y013519D02*
X005951Y013519D01*
X005951Y013401D02*
X006928Y013401D01*
X006940Y013282D02*
X005951Y013282D01*
X005951Y013164D02*
X007007Y013164D01*
X005951Y014230D02*
X011529Y014230D01*
X011529Y014349D02*
X005951Y014349D01*
X005951Y014467D02*
X007167Y014467D01*
X007175Y014459D02*
X007352Y014459D01*
X007477Y014584D01*
X007477Y014761D01*
X007352Y014886D01*
X007175Y014886D01*
X007050Y014761D01*
X007050Y014584D01*
X007175Y014459D01*
X007050Y014586D02*
X005951Y014586D01*
X006219Y014704D02*
X006438Y014704D01*
X006361Y014823D02*
X006296Y014823D01*
X006187Y015178D02*
X005951Y015178D01*
X005951Y015060D02*
X005970Y015060D01*
X005951Y015297D02*
X006042Y015297D01*
X005967Y015415D02*
X005951Y015415D01*
X005951Y015534D02*
X005967Y015534D01*
X005951Y015652D02*
X006071Y015652D01*
X005951Y015771D02*
X007542Y015771D01*
X007542Y015765D02*
X007667Y015640D01*
X007844Y015640D01*
X007969Y015765D01*
X007969Y015942D01*
X007910Y016002D01*
X007969Y016061D01*
X007969Y016238D01*
X007844Y016363D01*
X007667Y016363D01*
X007542Y016238D01*
X007542Y016061D01*
X007601Y016002D01*
X007542Y015942D01*
X007542Y015765D01*
X007542Y015889D02*
X005951Y015889D01*
X005951Y016008D02*
X007595Y016008D01*
X007542Y016126D02*
X005951Y016126D01*
X005951Y016245D02*
X007549Y016245D01*
X007379Y016475D02*
X007497Y016593D01*
X007560Y016747D01*
X007560Y016914D01*
X007497Y017068D01*
X007379Y017186D01*
X007225Y017249D01*
X007058Y017249D01*
X006904Y017186D01*
X006786Y017068D01*
X006722Y016914D01*
X006722Y016747D01*
X006786Y016593D01*
X006904Y016475D01*
X007058Y016411D01*
X007225Y016411D01*
X007379Y016475D01*
X007385Y016482D02*
X007898Y016482D01*
X007904Y016475D02*
X008058Y016411D01*
X008225Y016411D01*
X008379Y016475D01*
X008497Y016593D01*
X008560Y016747D01*
X008560Y016914D01*
X008497Y017068D01*
X008379Y017186D01*
X008225Y017249D01*
X008058Y017249D01*
X007904Y017186D01*
X007786Y017068D01*
X007722Y016914D01*
X007722Y016747D01*
X007786Y016593D01*
X007904Y016475D01*
X007783Y016600D02*
X007500Y016600D01*
X007549Y016719D02*
X007734Y016719D01*
X007722Y016837D02*
X007560Y016837D01*
X007543Y016956D02*
X007740Y016956D01*
X007792Y017074D02*
X007490Y017074D01*
X007569Y017117D02*
X007746Y017117D01*
X007871Y017242D01*
X007871Y017419D01*
X007746Y017544D01*
X007569Y017544D01*
X007444Y017419D01*
X007444Y017242D01*
X007569Y017117D01*
X007493Y017193D02*
X007362Y017193D01*
X007444Y017311D02*
X005951Y017311D01*
X005951Y017193D02*
X006921Y017193D01*
X006792Y017074D02*
X005951Y017074D01*
X005951Y016956D02*
X006740Y016956D01*
X006722Y016837D02*
X005951Y016837D01*
X005951Y016719D02*
X006734Y016719D01*
X006783Y016600D02*
X005951Y016600D01*
X005951Y016482D02*
X006898Y016482D01*
X007055Y015652D02*
X006291Y015652D01*
X006394Y015534D02*
X006951Y015534D01*
X006818Y015415D02*
X006725Y015415D01*
X006424Y015415D02*
X006394Y015415D01*
X006788Y014823D02*
X007111Y014823D01*
X007050Y014704D02*
X006711Y014704D01*
X006948Y014941D02*
X010630Y014941D01*
X010593Y014978D02*
X010718Y014853D01*
X010895Y014853D01*
X011020Y014978D01*
X011020Y015155D01*
X010895Y015280D01*
X010718Y015280D01*
X010593Y015155D01*
X010593Y014978D01*
X010593Y015060D02*
X007066Y015060D01*
X007182Y015178D02*
X010616Y015178D01*
X010997Y015178D02*
X011529Y015178D01*
X011529Y015060D02*
X011020Y015060D01*
X010983Y014941D02*
X011529Y014941D01*
X011529Y014823D02*
X007416Y014823D01*
X007477Y014704D02*
X011529Y014704D01*
X011529Y014586D02*
X007477Y014586D01*
X007360Y014467D02*
X011529Y014467D01*
X011529Y015297D02*
X007303Y015297D01*
X007379Y015415D02*
X011529Y015415D01*
X011529Y015534D02*
X007379Y015534D01*
X007275Y015652D02*
X007655Y015652D01*
X007856Y015652D02*
X008837Y015652D01*
X008848Y015640D02*
X008723Y015765D01*
X008723Y015942D01*
X008848Y016067D01*
X009018Y016067D01*
X009018Y016238D01*
X009144Y016363D01*
X009320Y016363D01*
X009445Y016238D01*
X009445Y016061D01*
X009320Y015936D01*
X009150Y015936D01*
X009150Y015765D01*
X009025Y015640D01*
X008848Y015640D01*
X008723Y015771D02*
X007969Y015771D01*
X007969Y015889D02*
X008723Y015889D01*
X008788Y016008D02*
X007916Y016008D01*
X007969Y016126D02*
X009018Y016126D01*
X009025Y016245D02*
X007962Y016245D01*
X008385Y016482D02*
X008898Y016482D01*
X008904Y016475D02*
X009058Y016411D01*
X009225Y016411D01*
X009379Y016475D01*
X009497Y016593D01*
X009560Y016747D01*
X009560Y016914D01*
X009497Y017068D01*
X009379Y017186D01*
X009225Y017249D01*
X009058Y017249D01*
X008904Y017186D01*
X008786Y017068D01*
X008722Y016914D01*
X008722Y016747D01*
X008786Y016593D01*
X008904Y016475D01*
X008783Y016600D02*
X008500Y016600D01*
X008549Y016719D02*
X008734Y016719D01*
X008722Y016837D02*
X008560Y016837D01*
X008543Y016956D02*
X008740Y016956D01*
X008792Y017074D02*
X008490Y017074D01*
X008362Y017193D02*
X008921Y017193D01*
X009014Y017430D02*
X008269Y017430D01*
X008225Y017411D02*
X008379Y017475D01*
X008497Y017593D01*
X008560Y017747D01*
X008560Y017914D01*
X008497Y018068D01*
X008379Y018186D01*
X008225Y018249D01*
X008058Y018249D01*
X007904Y018186D01*
X007786Y018068D01*
X007722Y017914D01*
X007722Y017747D01*
X007786Y017593D01*
X007904Y017475D01*
X008058Y017411D01*
X008225Y017411D01*
X008014Y017430D02*
X007860Y017430D01*
X007871Y017311D02*
X011529Y017311D01*
X011529Y017193D02*
X010951Y017193D01*
X010895Y017249D02*
X010718Y017249D01*
X010593Y017123D01*
X010593Y016947D01*
X010718Y016821D01*
X010895Y016821D01*
X011020Y016947D01*
X011020Y017123D01*
X010895Y017249D01*
X010797Y017314D02*
X010922Y017439D01*
X010922Y017616D01*
X010797Y017741D01*
X010620Y017741D01*
X010495Y017616D01*
X010495Y017439D01*
X010620Y017314D01*
X010797Y017314D01*
X010913Y017430D02*
X011529Y017430D01*
X011529Y017548D02*
X010922Y017548D01*
X010871Y017667D02*
X011529Y017667D01*
X011529Y017785D02*
X010540Y017785D01*
X010541Y017790D02*
X010181Y017790D01*
X010181Y017431D01*
X010258Y017446D01*
X010331Y017476D01*
X010396Y017520D01*
X010452Y017576D01*
X010495Y017641D01*
X010525Y017714D01*
X010541Y017790D01*
X010541Y017870D02*
X010525Y017947D01*
X010495Y018019D01*
X010452Y018085D01*
X010396Y018141D01*
X011529Y018141D01*
X011529Y018259D02*
X011349Y018259D01*
X011289Y018199D02*
X011414Y018325D01*
X011414Y018501D01*
X011289Y018627D01*
X011217Y018627D01*
X011217Y018698D01*
X011092Y018823D01*
X011020Y018823D01*
X011020Y018994D01*
X010895Y019119D01*
X010718Y019119D01*
X010593Y018994D01*
X010593Y018817D01*
X010718Y018692D01*
X010790Y018692D01*
X010790Y018521D01*
X010915Y018396D01*
X010987Y018396D01*
X010987Y018325D01*
X011112Y018199D01*
X011289Y018199D01*
X011414Y018378D02*
X011529Y018378D01*
X011529Y018496D02*
X011414Y018496D01*
X011301Y018615D02*
X011529Y018615D01*
X011529Y018733D02*
X011182Y018733D01*
X011020Y018852D02*
X011529Y018852D01*
X011529Y018970D02*
X011020Y018970D01*
X010925Y019089D02*
X011529Y019089D01*
X011529Y019207D02*
X010919Y019207D01*
X010895Y019184D02*
X011020Y019309D01*
X011020Y019486D01*
X010895Y019611D01*
X010718Y019611D01*
X010593Y019486D01*
X010593Y019309D01*
X010718Y019184D01*
X010895Y019184D01*
X011020Y019326D02*
X011529Y019326D01*
X011529Y019444D02*
X011020Y019444D01*
X010943Y019563D02*
X011529Y019563D01*
X011529Y019681D02*
X008735Y019681D01*
X008730Y019676D02*
X008855Y019801D01*
X008855Y019978D01*
X008730Y020103D01*
X008553Y020103D01*
X008428Y019978D01*
X008428Y019801D01*
X008553Y019676D01*
X008730Y019676D01*
X008854Y019800D02*
X010004Y019800D01*
X010029Y019774D02*
X010206Y019774D01*
X010265Y019833D01*
X010325Y019774D01*
X010502Y019774D01*
X010561Y019833D01*
X010620Y019774D01*
X010797Y019774D01*
X010922Y019899D01*
X010922Y020076D01*
X010797Y020201D01*
X010620Y020201D01*
X010561Y020142D01*
X010502Y020201D01*
X010325Y020201D01*
X010265Y020142D01*
X010206Y020201D01*
X010029Y020201D01*
X009904Y020076D01*
X009904Y019899D01*
X010029Y019774D01*
X009904Y019918D02*
X008855Y019918D01*
X008796Y020037D02*
X009904Y020037D01*
X009983Y020155D02*
X007772Y020155D01*
X007772Y020096D02*
X007772Y020273D01*
X007647Y020398D01*
X007470Y020398D01*
X007345Y020273D01*
X007345Y020096D01*
X007470Y019971D01*
X007647Y019971D01*
X007772Y020096D01*
X007713Y020037D02*
X008487Y020037D01*
X008428Y019918D02*
X007182Y019918D01*
X007182Y019899D02*
X007057Y019774D01*
X006880Y019774D01*
X006755Y019899D01*
X006755Y020076D01*
X006880Y020201D01*
X007057Y020201D01*
X007182Y020076D01*
X007182Y019899D01*
X007182Y020037D02*
X007405Y020037D01*
X007345Y020155D02*
X007103Y020155D01*
X006833Y020155D02*
X005951Y020155D01*
X005951Y020037D02*
X006755Y020037D01*
X006755Y019918D02*
X006651Y019918D01*
X006690Y019800D02*
X006854Y019800D01*
X006668Y019681D02*
X008548Y019681D01*
X008429Y019800D02*
X007082Y019800D01*
X006690Y019444D02*
X007599Y019444D01*
X007542Y019387D02*
X007542Y019210D01*
X007667Y019085D01*
X007837Y019085D01*
X007837Y018915D01*
X007962Y018790D01*
X008139Y018790D01*
X008264Y018915D01*
X008264Y019092D01*
X008139Y019217D01*
X007969Y019217D01*
X007969Y019387D01*
X007844Y019512D01*
X007667Y019512D01*
X007542Y019387D01*
X007542Y019326D02*
X006742Y019326D01*
X006743Y019207D02*
X007545Y019207D01*
X007664Y019089D02*
X006713Y019089D01*
X006635Y018970D02*
X007837Y018970D01*
X007901Y018852D02*
X006394Y018852D01*
X006556Y018733D02*
X008463Y018733D01*
X008428Y018698D02*
X008428Y018521D01*
X008553Y018396D01*
X008730Y018396D01*
X008855Y018521D01*
X008855Y018698D01*
X008730Y018823D01*
X008553Y018823D01*
X008428Y018698D01*
X008428Y018615D02*
X006591Y018615D01*
X006566Y018496D02*
X008453Y018496D01*
X008424Y018141D02*
X008859Y018141D01*
X008904Y018186D02*
X008786Y018068D01*
X008722Y017914D01*
X008722Y017747D01*
X008786Y017593D01*
X008904Y017475D01*
X009058Y017411D01*
X009225Y017411D01*
X009379Y017475D01*
X009497Y017593D01*
X009560Y017747D01*
X009560Y017914D01*
X009497Y018068D01*
X009379Y018186D01*
X009225Y018249D01*
X009058Y018249D01*
X008904Y018186D01*
X008767Y018022D02*
X008516Y018022D01*
X008560Y017904D02*
X008722Y017904D01*
X008722Y017785D02*
X008560Y017785D01*
X008527Y017667D02*
X008756Y017667D01*
X008831Y017548D02*
X008452Y017548D01*
X007831Y017548D02*
X007452Y017548D01*
X007497Y017593D02*
X007560Y017747D01*
X007560Y017914D01*
X007497Y018068D01*
X007379Y018186D01*
X007225Y018249D01*
X007058Y018249D01*
X006904Y018186D01*
X006786Y018068D01*
X006722Y017914D01*
X006722Y017747D01*
X006786Y017593D01*
X006904Y017475D01*
X007058Y017411D01*
X007225Y017411D01*
X007379Y017475D01*
X007497Y017593D01*
X007527Y017667D02*
X007756Y017667D01*
X007722Y017785D02*
X007560Y017785D01*
X007560Y017904D02*
X007722Y017904D01*
X007767Y018022D02*
X007516Y018022D01*
X007424Y018141D02*
X007859Y018141D01*
X008201Y018852D02*
X009511Y018852D01*
X009511Y018823D02*
X009340Y018823D01*
X009215Y018698D01*
X009215Y018521D01*
X009340Y018396D01*
X009517Y018396D01*
X009642Y018521D01*
X009642Y018593D01*
X009813Y018593D01*
X009921Y018702D01*
X009931Y018692D01*
X010108Y018692D01*
X010233Y018817D01*
X010233Y018888D01*
X010305Y018888D01*
X010430Y019014D01*
X010430Y019190D01*
X010305Y019316D01*
X010128Y019316D01*
X010003Y019190D01*
X010003Y019119D01*
X009931Y019119D01*
X009823Y019010D01*
X009813Y019020D01*
X009636Y019020D01*
X009511Y018895D01*
X009511Y018823D01*
X009585Y018970D02*
X009107Y018970D01*
X009150Y019014D02*
X009025Y018888D01*
X008848Y018888D01*
X008723Y019014D01*
X008723Y019190D01*
X008848Y019316D01*
X009025Y019316D01*
X009150Y019190D01*
X009150Y019014D01*
X009150Y019089D02*
X009901Y019089D01*
X010019Y019207D02*
X009134Y019207D01*
X008740Y019207D02*
X008149Y019207D01*
X008264Y019089D02*
X008723Y019089D01*
X008767Y018970D02*
X008264Y018970D01*
X007969Y019326D02*
X010593Y019326D01*
X010593Y019444D02*
X007912Y019444D01*
X007772Y020274D02*
X009628Y020274D01*
X009636Y020266D02*
X009813Y020266D01*
X009938Y020391D01*
X009938Y020568D01*
X009813Y020693D01*
X009636Y020693D01*
X009511Y020568D01*
X009511Y020391D01*
X009636Y020266D01*
X009511Y020392D02*
X007653Y020392D01*
X007464Y020392D02*
X006789Y020392D01*
X006761Y020365D02*
X006886Y020490D01*
X006886Y020667D01*
X006761Y020792D01*
X006584Y020792D01*
X006459Y020667D01*
X006459Y020490D01*
X006584Y020365D01*
X006761Y020365D01*
X006886Y020511D02*
X009511Y020511D01*
X009571Y020629D02*
X006886Y020629D01*
X006806Y020748D02*
X008662Y020748D01*
X008625Y020785D02*
X008750Y020660D01*
X008927Y020660D01*
X009052Y020785D01*
X009052Y020962D01*
X008927Y021087D01*
X008750Y021087D01*
X008625Y020962D01*
X008625Y020785D01*
X008625Y020866D02*
X005951Y020866D01*
X005951Y020748D02*
X006540Y020748D01*
X006459Y020629D02*
X005951Y020629D01*
X005951Y020511D02*
X006459Y020511D01*
X006557Y020392D02*
X005951Y020392D01*
X005951Y020274D02*
X007346Y020274D01*
X006562Y019563D02*
X010670Y019563D01*
X010595Y019800D02*
X010527Y019800D01*
X010299Y019800D02*
X010232Y019800D01*
X010253Y020155D02*
X010278Y020155D01*
X010548Y020155D02*
X010574Y020155D01*
X010843Y020155D02*
X011529Y020155D01*
X011529Y020037D02*
X010922Y020037D01*
X010922Y019918D02*
X011529Y019918D01*
X011529Y019800D02*
X010822Y019800D01*
X010695Y019207D02*
X010413Y019207D01*
X010430Y019089D02*
X010688Y019089D01*
X010593Y018970D02*
X010386Y018970D01*
X010233Y018852D02*
X010593Y018852D01*
X010677Y018733D02*
X010149Y018733D01*
X009834Y018615D02*
X010790Y018615D01*
X010815Y018496D02*
X009617Y018496D01*
X009241Y018496D02*
X008830Y018496D01*
X008855Y018615D02*
X009215Y018615D01*
X009250Y018733D02*
X008820Y018733D01*
X009424Y018141D02*
X009887Y018141D01*
X009831Y018085D01*
X009787Y018019D01*
X009757Y017947D01*
X009742Y017870D01*
X010101Y017870D01*
X010101Y017790D01*
X009742Y017790D01*
X009757Y017714D01*
X009787Y017641D01*
X009831Y017576D01*
X009887Y017520D01*
X009952Y017476D01*
X010025Y017446D01*
X010101Y017431D01*
X010101Y017790D01*
X010181Y017790D01*
X010181Y017870D01*
X010101Y017870D01*
X010101Y018230D01*
X010025Y018214D01*
X009952Y018184D01*
X009887Y018141D01*
X009789Y018022D02*
X009516Y018022D01*
X009560Y017904D02*
X009749Y017904D01*
X009743Y017785D02*
X009560Y017785D01*
X009527Y017667D02*
X009777Y017667D01*
X009859Y017548D02*
X009452Y017548D01*
X009269Y017430D02*
X010504Y017430D01*
X010495Y017548D02*
X010424Y017548D01*
X010506Y017667D02*
X010546Y017667D01*
X010541Y017870D02*
X010181Y017870D01*
X010181Y018230D01*
X010258Y018214D01*
X010331Y018184D01*
X010396Y018141D01*
X010494Y018022D02*
X011529Y018022D01*
X011529Y017904D02*
X010534Y017904D01*
X010181Y017904D02*
X010101Y017904D01*
X010101Y018022D02*
X010181Y018022D01*
X010181Y018141D02*
X010101Y018141D01*
X010101Y017785D02*
X010181Y017785D01*
X010181Y017667D02*
X010101Y017667D01*
X010101Y017548D02*
X010181Y017548D01*
X010225Y017249D02*
X010058Y017249D01*
X009904Y017186D01*
X009786Y017068D01*
X009722Y016914D01*
X009722Y016747D01*
X009786Y016593D01*
X009904Y016475D01*
X010058Y016411D01*
X010225Y016411D01*
X010379Y016475D01*
X010497Y016593D01*
X010560Y016747D01*
X010560Y016914D01*
X010497Y017068D01*
X010379Y017186D01*
X010225Y017249D01*
X010362Y017193D02*
X010662Y017193D01*
X010593Y017074D02*
X010490Y017074D01*
X010543Y016956D02*
X010593Y016956D01*
X010560Y016837D02*
X010703Y016837D01*
X010549Y016719D02*
X010976Y016719D01*
X011014Y016756D02*
X010888Y016631D01*
X010888Y016454D01*
X011014Y016329D01*
X011190Y016329D01*
X011316Y016454D01*
X011316Y016631D01*
X011190Y016756D01*
X011014Y016756D01*
X010911Y016837D02*
X011529Y016837D01*
X011529Y016719D02*
X011228Y016719D01*
X011316Y016600D02*
X011529Y016600D01*
X011529Y016482D02*
X011316Y016482D01*
X011224Y016363D02*
X011529Y016363D01*
X011529Y016245D02*
X009439Y016245D01*
X009445Y016126D02*
X011529Y016126D01*
X011529Y016008D02*
X009392Y016008D01*
X009150Y015889D02*
X011529Y015889D01*
X011529Y015771D02*
X009150Y015771D01*
X009037Y015652D02*
X011529Y015652D01*
X010980Y016363D02*
X005951Y016363D01*
X005951Y017430D02*
X007014Y017430D01*
X006831Y017548D02*
X005951Y017548D01*
X005951Y017667D02*
X006756Y017667D01*
X006722Y017785D02*
X005951Y017785D01*
X005951Y017904D02*
X006722Y017904D01*
X006767Y018022D02*
X005951Y018022D01*
X005951Y018141D02*
X006859Y018141D01*
X006189Y018496D02*
X005951Y018496D01*
X005951Y018378D02*
X010987Y018378D01*
X011052Y018259D02*
X005951Y018259D01*
X005951Y018615D02*
X006071Y018615D01*
X005967Y018733D02*
X005951Y018733D01*
X005951Y018852D02*
X005967Y018852D01*
X005951Y019681D02*
X006284Y019681D01*
X006263Y019800D02*
X005951Y019800D01*
X005951Y019918D02*
X006301Y019918D01*
X005951Y020985D02*
X008647Y020985D01*
X009029Y020985D02*
X009707Y020985D01*
X009707Y021060D02*
X009707Y020884D01*
X009832Y020759D01*
X010009Y020759D01*
X010134Y020884D01*
X010134Y021060D01*
X010009Y021186D01*
X009832Y021186D01*
X009707Y021060D01*
X009750Y021103D02*
X005951Y021103D01*
X005951Y021222D02*
X011529Y021222D01*
X011529Y021340D02*
X010886Y021340D01*
X010922Y021376D02*
X010797Y021251D01*
X010620Y021251D01*
X010495Y021376D01*
X010495Y021553D01*
X010620Y021678D01*
X010797Y021678D01*
X010922Y021553D01*
X010922Y021376D01*
X010922Y021459D02*
X011529Y021459D01*
X011529Y021577D02*
X011320Y021577D01*
X011289Y021546D02*
X011414Y021671D01*
X011414Y021848D01*
X011289Y021973D01*
X011112Y021973D01*
X010987Y021848D01*
X010987Y021671D01*
X011112Y021546D01*
X011289Y021546D01*
X011414Y021696D02*
X011529Y021696D01*
X011529Y021814D02*
X011414Y021814D01*
X011329Y021933D02*
X011529Y021933D01*
X011529Y022051D02*
X005951Y022051D01*
X005951Y021933D02*
X011072Y021933D01*
X010987Y021814D02*
X005951Y021814D01*
X005951Y021696D02*
X010987Y021696D01*
X010897Y021577D02*
X011081Y021577D01*
X011011Y022113D02*
X010799Y022113D01*
X010604Y022194D01*
X010454Y022344D01*
X010373Y022539D01*
X010373Y022751D01*
X010454Y022947D01*
X010604Y023097D01*
X010799Y023178D01*
X011011Y023178D01*
X011207Y023097D01*
X011357Y022947D01*
X011438Y022751D01*
X011438Y022539D01*
X011357Y022344D01*
X011207Y022194D01*
X011011Y022113D01*
X011148Y022170D02*
X011529Y022170D01*
X011529Y022288D02*
X011301Y022288D01*
X011383Y022407D02*
X011529Y022407D01*
X011529Y022525D02*
X011432Y022525D01*
X011438Y022644D02*
X011529Y022644D01*
X011529Y022762D02*
X011433Y022762D01*
X011384Y022881D02*
X011529Y022881D01*
X011529Y022999D02*
X011304Y022999D01*
X011387Y023121D02*
X011210Y023121D01*
X011085Y023246D01*
X011085Y023423D01*
X011210Y023548D01*
X011387Y023548D01*
X011512Y023423D01*
X011512Y023246D01*
X011387Y023121D01*
X011529Y023118D02*
X011156Y023118D01*
X011095Y023236D02*
X008063Y023236D01*
X008005Y023134D02*
X008139Y023368D01*
X008209Y023628D01*
X008209Y023898D01*
X008139Y024159D01*
X008005Y024392D01*
X007814Y024583D01*
X007580Y024718D01*
X007320Y024788D01*
X007050Y024788D01*
X006789Y024718D01*
X006556Y024583D01*
X006365Y024392D01*
X006230Y024159D01*
X006160Y023898D01*
X006160Y023628D01*
X006230Y023368D01*
X006365Y023134D01*
X006556Y022944D01*
X006789Y022809D01*
X007050Y022739D01*
X007320Y022739D01*
X007580Y022809D01*
X007814Y022944D01*
X008005Y023134D01*
X007988Y023118D02*
X010654Y023118D01*
X010506Y022999D02*
X007869Y022999D01*
X007705Y022881D02*
X010426Y022881D01*
X010377Y022762D02*
X007406Y022762D01*
X006963Y022762D02*
X005951Y022762D01*
X005951Y022644D02*
X008141Y022644D01*
X008133Y022635D02*
X008133Y022458D01*
X008258Y022333D01*
X008435Y022333D01*
X008560Y022458D01*
X008560Y022635D01*
X008435Y022760D01*
X008258Y022760D01*
X008133Y022635D01*
X008133Y022525D02*
X005951Y022525D01*
X005951Y022407D02*
X008184Y022407D01*
X008508Y022407D02*
X010428Y022407D01*
X010379Y022525D02*
X008560Y022525D01*
X008551Y022644D02*
X010373Y022644D01*
X010509Y022288D02*
X005951Y022288D01*
X005951Y022170D02*
X010662Y022170D01*
X010519Y021577D02*
X005951Y021577D01*
X005951Y021459D02*
X010495Y021459D01*
X010530Y021340D02*
X005951Y021340D01*
X005951Y022881D02*
X006665Y022881D01*
X006500Y022999D02*
X005951Y022999D01*
X005951Y023118D02*
X006382Y023118D01*
X006306Y023236D02*
X005951Y023236D01*
X005951Y023355D02*
X006238Y023355D01*
X006202Y023473D02*
X005951Y023473D01*
X005951Y023592D02*
X006170Y023592D01*
X006160Y023710D02*
X005951Y023710D01*
X005957Y023829D02*
X006160Y023829D01*
X006173Y023947D02*
X005972Y023947D01*
X006004Y024066D02*
X006205Y024066D01*
X006245Y024184D02*
X006036Y024184D01*
X006078Y024303D02*
X006313Y024303D01*
X006393Y024421D02*
X006147Y024421D01*
X006215Y024540D02*
X006512Y024540D01*
X006685Y024658D02*
X006314Y024658D01*
X006432Y024777D02*
X007007Y024777D01*
X006791Y025014D02*
X010216Y025014D01*
X010200Y024998D02*
X010200Y024821D01*
X010325Y024696D01*
X010502Y024696D01*
X010627Y024821D01*
X010627Y024998D01*
X010502Y025123D01*
X010325Y025123D01*
X010200Y024998D01*
X010200Y024895D02*
X006585Y024895D01*
X007256Y025132D02*
X011529Y025132D01*
X011529Y025014D02*
X010611Y025014D01*
X010627Y024895D02*
X011529Y024895D01*
X011594Y024777D02*
X010583Y024777D01*
X010244Y024777D02*
X007362Y024777D01*
X007684Y024658D02*
X011604Y024658D01*
X011529Y024540D02*
X009214Y024540D01*
X009249Y024505D02*
X009124Y024630D01*
X008947Y024630D01*
X008822Y024505D01*
X008822Y024328D01*
X008947Y024203D01*
X009124Y024203D01*
X009249Y024328D01*
X009249Y024505D01*
X009249Y024421D02*
X009771Y024421D01*
X009822Y024442D02*
X009668Y024378D01*
X009550Y024261D01*
X009486Y024107D01*
X009486Y023940D01*
X009550Y023786D01*
X009668Y023668D01*
X009822Y023604D01*
X009989Y023604D01*
X010143Y023668D01*
X010260Y023786D01*
X010324Y023940D01*
X010324Y024107D01*
X010260Y024261D01*
X010143Y024378D01*
X009989Y024442D01*
X009822Y024442D01*
X010040Y024421D02*
X010771Y024421D01*
X010822Y024442D02*
X010668Y024378D01*
X010550Y024261D01*
X010486Y024107D01*
X010486Y023940D01*
X010550Y023786D01*
X010668Y023668D01*
X010822Y023604D01*
X010989Y023604D01*
X011143Y023668D01*
X011260Y023786D01*
X011324Y023940D01*
X011324Y024107D01*
X011260Y024261D01*
X011143Y024378D01*
X010989Y024442D01*
X010822Y024442D01*
X011040Y024421D02*
X011529Y024421D01*
X011529Y024303D02*
X011218Y024303D01*
X011292Y024184D02*
X011529Y024184D01*
X011529Y024066D02*
X011324Y024066D01*
X011324Y023947D02*
X011529Y023947D01*
X011529Y023829D02*
X011278Y023829D01*
X011185Y023710D02*
X011529Y023710D01*
X011529Y023592D02*
X008199Y023592D01*
X008209Y023710D02*
X009626Y023710D01*
X009532Y023829D02*
X008209Y023829D01*
X008196Y023947D02*
X009486Y023947D01*
X009486Y024066D02*
X008164Y024066D01*
X008125Y024184D02*
X009518Y024184D01*
X009592Y024303D02*
X009223Y024303D01*
X008847Y024303D02*
X008056Y024303D01*
X007976Y024421D02*
X008822Y024421D01*
X008856Y024540D02*
X007857Y024540D01*
X008168Y023473D02*
X011136Y023473D01*
X011085Y023355D02*
X008132Y023355D01*
X010185Y023710D02*
X010626Y023710D01*
X010532Y023829D02*
X010278Y023829D01*
X010324Y023947D02*
X010486Y023947D01*
X010486Y024066D02*
X010324Y024066D01*
X010292Y024184D02*
X010518Y024184D01*
X010592Y024303D02*
X010218Y024303D01*
X011462Y023473D02*
X011529Y023473D01*
X011529Y023355D02*
X011512Y023355D01*
X011503Y023236D02*
X011529Y023236D01*
X011529Y021103D02*
X010092Y021103D01*
X010134Y020985D02*
X011529Y020985D01*
X011529Y020866D02*
X010117Y020866D01*
X009877Y020629D02*
X011529Y020629D01*
X011529Y020511D02*
X009938Y020511D01*
X009938Y020392D02*
X011529Y020392D01*
X011529Y020274D02*
X009820Y020274D01*
X009725Y020866D02*
X009052Y020866D01*
X009014Y020748D02*
X011529Y020748D01*
X011529Y017074D02*
X011020Y017074D01*
X011020Y016956D02*
X011529Y016956D01*
X010888Y016600D02*
X010500Y016600D01*
X010385Y016482D02*
X010888Y016482D01*
X009898Y016482D02*
X009385Y016482D01*
X009500Y016600D02*
X009783Y016600D01*
X009734Y016719D02*
X009549Y016719D01*
X009560Y016837D02*
X009722Y016837D01*
X009740Y016956D02*
X009543Y016956D01*
X009490Y017074D02*
X009792Y017074D01*
X009921Y017193D02*
X009362Y017193D01*
X007921Y017193D02*
X007821Y017193D01*
X007454Y017430D02*
X007269Y017430D01*
X011906Y012097D02*
X012168Y012097D01*
X012168Y011979D02*
X011859Y011979D01*
X011526Y011979D02*
X007844Y011979D01*
X007993Y011860D02*
X009365Y011860D01*
X009314Y011809D02*
X009314Y011632D01*
X009439Y011507D01*
X009616Y011507D01*
X009741Y011632D01*
X009741Y011809D01*
X009616Y011934D01*
X009439Y011934D01*
X009314Y011809D01*
X009314Y011742D02*
X008028Y011742D01*
X008010Y011623D02*
X009322Y011623D01*
X009732Y011623D02*
X013161Y011623D01*
X013152Y011632D02*
X013261Y011523D01*
X013152Y011415D01*
X013152Y011238D01*
X013277Y011113D01*
X013448Y011113D01*
X013448Y011041D01*
X013573Y010916D01*
X013750Y010916D01*
X013875Y011041D01*
X013875Y011113D01*
X014045Y011113D01*
X014170Y011238D01*
X014170Y011310D01*
X014242Y011310D01*
X014367Y011435D01*
X014367Y011612D01*
X014258Y011720D01*
X014367Y011828D01*
X014367Y012005D01*
X014242Y012130D01*
X014065Y012130D01*
X013940Y012005D01*
X013940Y011828D01*
X014048Y011720D01*
X013940Y011612D01*
X013940Y011540D01*
X013868Y011540D01*
X013743Y011415D01*
X013743Y011343D01*
X013579Y011343D01*
X013579Y011415D01*
X013471Y011523D01*
X013579Y011632D01*
X013579Y011809D01*
X013454Y011934D01*
X013277Y011934D01*
X013152Y011809D01*
X013152Y011632D01*
X013152Y011742D02*
X009741Y011742D01*
X009689Y011860D02*
X012235Y011860D01*
X012528Y011860D02*
X013204Y011860D01*
X013528Y011860D02*
X013940Y011860D01*
X013940Y011979D02*
X012595Y011979D01*
X012595Y012097D02*
X014031Y012097D01*
X014275Y012097D02*
X014819Y012097D01*
X014727Y011979D02*
X014367Y011979D01*
X014367Y011860D02*
X014727Y011860D01*
X014814Y011742D02*
X014280Y011742D01*
X014355Y011623D02*
X014738Y011623D01*
X014620Y011505D02*
X014367Y011505D01*
X014318Y011386D02*
X014530Y011386D01*
X014530Y011268D02*
X014170Y011268D01*
X014081Y011149D02*
X014619Y011149D01*
X014244Y011031D02*
X013864Y011031D01*
X013743Y011386D02*
X013579Y011386D01*
X013490Y011505D02*
X013833Y011505D01*
X013951Y011623D02*
X013571Y011623D01*
X013579Y011742D02*
X014027Y011742D01*
X013242Y011505D02*
X008864Y011505D01*
X008953Y011386D02*
X013152Y011386D01*
X013152Y011268D02*
X012447Y011268D01*
X012497Y011149D02*
X013241Y011149D01*
X013458Y011031D02*
X012684Y011031D01*
X012694Y010912D02*
X012748Y010912D01*
X012660Y010794D02*
X012643Y010794D01*
X012660Y010675D02*
X012103Y010675D01*
X012012Y010557D02*
X012491Y010557D01*
X012463Y010438D02*
X008744Y010438D01*
X008730Y010424D02*
X008855Y010549D01*
X008855Y010726D01*
X008730Y010851D01*
X008553Y010851D01*
X008428Y010726D01*
X008428Y010549D01*
X008553Y010424D01*
X008730Y010424D01*
X008855Y010557D02*
X009011Y010557D01*
X008920Y010675D02*
X008855Y010675D01*
X008920Y010794D02*
X008787Y010794D01*
X009008Y010912D02*
X006567Y010912D01*
X006408Y010794D02*
X008496Y010794D01*
X008428Y010675D02*
X006296Y010675D01*
X006205Y010557D02*
X008428Y010557D01*
X008539Y010438D02*
X005951Y010438D01*
X005951Y010320D02*
X012496Y010320D01*
X012317Y010794D02*
X012249Y010794D01*
X012999Y010912D02*
X014235Y010912D01*
X014286Y010794D02*
X013087Y010794D01*
X009711Y009253D02*
X005951Y009253D01*
X005951Y009135D02*
X009609Y009135D01*
X009609Y009016D02*
X009482Y009016D01*
X009544Y008898D02*
X009686Y008898D01*
X009234Y008661D02*
X005951Y008661D01*
X005951Y008779D02*
X009117Y008779D01*
X009117Y008898D02*
X005951Y008898D01*
X005951Y009016D02*
X009179Y009016D01*
X008778Y009609D02*
X007718Y009609D01*
X007772Y009727D02*
X008723Y009727D01*
X008729Y009846D02*
X007767Y009846D01*
X007648Y009964D02*
X008847Y009964D01*
X008615Y011149D02*
X007434Y011149D01*
X007529Y011268D02*
X008526Y011268D01*
X008526Y011386D02*
X007560Y011386D01*
X007560Y011505D02*
X007586Y011505D01*
X007926Y011505D02*
X008616Y011505D01*
X005960Y010557D02*
X005951Y010557D01*
X007162Y008187D02*
X008231Y008187D01*
X008350Y008068D02*
X007182Y008068D01*
X008525Y005817D02*
X008534Y005817D01*
X032554Y008779D02*
X032739Y008779D01*
X032757Y008661D02*
X032672Y008661D01*
D15*
X010413Y012803D03*
X007756Y011720D03*
D16*
X008346Y012507D03*
X009330Y013196D03*
X009724Y013885D03*
X008937Y014673D03*
X008937Y015854D03*
X009232Y016149D03*
X007756Y016149D03*
X007756Y015854D03*
X007165Y015460D03*
X006968Y015263D03*
X006771Y015067D03*
X006574Y015263D03*
X006378Y015067D03*
X006574Y014870D03*
X006082Y014870D03*
X006181Y015460D03*
X007263Y014673D03*
X007263Y013885D03*
X009527Y011720D03*
X008740Y011326D03*
X009134Y010736D03*
X008641Y010637D03*
X008937Y009752D03*
X009527Y010145D03*
X009823Y009063D03*
X009330Y008866D03*
X009527Y008078D03*
X010118Y007488D03*
X010413Y006897D03*
X010610Y006700D03*
X011988Y007685D03*
X012185Y007881D03*
X012382Y007685D03*
X012677Y007586D03*
X012382Y006996D03*
X012382Y006700D03*
X012677Y006700D03*
X012775Y005716D03*
X012480Y005716D03*
X013661Y005716D03*
X014252Y006208D03*
X014448Y006011D03*
X015039Y006208D03*
X015236Y006011D03*
X016023Y006405D03*
X016614Y006602D03*
X016909Y006602D03*
X016811Y006208D03*
X017992Y006602D03*
X018385Y007783D03*
X018976Y007783D03*
X018878Y008374D03*
X019370Y008570D03*
X019567Y008374D03*
X020157Y008374D03*
X021535Y006996D03*
X022126Y006996D03*
X022716Y006996D03*
X024882Y006208D03*
X025078Y006011D03*
X025669Y006405D03*
X025866Y006996D03*
X025866Y007783D03*
X025275Y007783D03*
X025866Y009161D03*
X025472Y009358D03*
X026063Y009948D03*
X026653Y008964D03*
X027047Y008767D03*
X027244Y009948D03*
X027244Y010342D03*
X026948Y011031D03*
X026850Y011425D03*
X026456Y011326D03*
X026063Y011326D03*
X025669Y011228D03*
X025078Y011031D03*
X024685Y011622D03*
X024586Y011917D03*
X024980Y012015D03*
X025177Y011819D03*
X024193Y011326D03*
X023110Y011523D03*
X022519Y010933D03*
X021929Y011326D03*
X021437Y011523D03*
X021240Y011720D03*
X020452Y011720D03*
X021043Y010933D03*
X020945Y010539D03*
X021338Y010342D03*
X020354Y010539D03*
X019763Y010539D03*
X019468Y010933D03*
X019173Y010933D03*
X018779Y011130D03*
X018484Y011130D03*
X018189Y011130D03*
X017893Y011819D03*
X018385Y012015D03*
X018878Y011819D03*
X017106Y011720D03*
X016319Y012015D03*
X015728Y011720D03*
X015728Y011326D03*
X015531Y010736D03*
X015236Y010539D03*
X014448Y010933D03*
X014744Y011326D03*
X014941Y011523D03*
X014941Y011917D03*
X014153Y011917D03*
X014153Y011523D03*
X013956Y011326D03*
X013661Y011130D03*
X013366Y011326D03*
X013366Y011720D03*
X012578Y011819D03*
X012382Y012015D03*
X011693Y012114D03*
X012283Y011130D03*
X012086Y010933D03*
X011889Y010736D03*
X012480Y010933D03*
X012874Y010736D03*
X012677Y010441D03*
X013563Y009653D03*
X013858Y009752D03*
X014055Y009358D03*
X014448Y009456D03*
X014448Y009752D03*
X013661Y008767D03*
X013464Y008570D03*
X013464Y008177D03*
X013464Y007881D03*
X014055Y008472D03*
X015236Y008374D03*
X015433Y008177D03*
X015826Y008374D03*
X016023Y008570D03*
X015334Y008767D03*
X015630Y009456D03*
X015433Y009653D03*
X016023Y009555D03*
X016417Y009752D03*
X016811Y009752D03*
X017303Y009752D03*
X017598Y009752D03*
X017893Y009752D03*
X018484Y009161D03*
X018287Y008964D03*
X018385Y008570D03*
X017204Y007783D03*
X016909Y007783D03*
X016614Y007783D03*
X015236Y007586D03*
X015236Y007193D03*
X014941Y007193D03*
X014842Y006799D03*
X014547Y006799D03*
X014547Y007389D03*
X013661Y006897D03*
X011988Y008078D03*
X011988Y008374D03*
X011397Y008964D03*
X011004Y009161D03*
X011496Y009555D03*
X011693Y009358D03*
X010708Y009850D03*
X010905Y011130D03*
X008445Y008275D03*
X007559Y007980D03*
X006968Y008078D03*
X006181Y007881D03*
X006279Y009161D03*
X006181Y009653D03*
X006082Y010736D03*
X007559Y009752D03*
X008641Y006405D03*
X008641Y006011D03*
X008248Y005815D03*
X007657Y005519D03*
X016220Y010736D03*
X010807Y015067D03*
X011102Y016543D03*
X010807Y017035D03*
X010708Y017527D03*
X011200Y018413D03*
X011004Y018610D03*
X010807Y018905D03*
X011102Y019200D03*
X010807Y019397D03*
X010708Y019988D03*
X010413Y019988D03*
X010118Y019988D03*
X009724Y020480D03*
X009921Y020972D03*
X009232Y020874D03*
X008838Y020874D03*
X008149Y021366D03*
X007559Y020185D03*
X006968Y019988D03*
X006476Y019791D03*
X006673Y020578D03*
X006476Y021366D03*
X007657Y019594D03*
X007756Y019299D03*
X008051Y019004D03*
X008641Y018610D03*
X008937Y019102D03*
X009429Y018610D03*
X009724Y018807D03*
X010019Y018905D03*
X010216Y019102D03*
X008641Y019889D03*
X010708Y021464D03*
X011200Y021759D03*
X011102Y020972D03*
X009921Y022842D03*
X008838Y023236D03*
X008346Y022547D03*
X009035Y024417D03*
X010413Y024909D03*
X011299Y023334D03*
X006378Y018610D03*
X006181Y018807D03*
X007657Y017330D03*
X021830Y012015D03*
X022716Y009752D03*
X023208Y009752D03*
X023602Y009752D03*
X024488Y009948D03*
X024685Y009752D03*
X026653Y011917D03*
X027441Y011425D03*
X027834Y011346D03*
X027637Y011031D03*
X028031Y011031D03*
X028326Y010736D03*
X028326Y010441D03*
X028917Y010145D03*
X028720Y009555D03*
X029606Y009948D03*
X029901Y009752D03*
X029704Y010539D03*
X030393Y010441D03*
X030885Y009948D03*
X032165Y010342D03*
X032559Y010342D03*
X032952Y010342D03*
X033346Y010342D03*
X033149Y009948D03*
X033838Y009555D03*
X034330Y009948D03*
X034134Y010342D03*
X033838Y010342D03*
X033641Y011326D03*
X033149Y011326D03*
X032952Y011917D03*
X032559Y011326D03*
X032165Y011425D03*
X031476Y011819D03*
X031279Y012015D03*
X030393Y011228D03*
X029901Y011720D03*
X029606Y011326D03*
X029114Y011917D03*
X028917Y011720D03*
X028720Y011346D03*
X028523Y011523D03*
X029409Y008570D03*
X030197Y008570D03*
X030590Y008570D03*
X030885Y008177D03*
X031181Y008570D03*
X032165Y009161D03*
X032559Y009358D03*
X032952Y008767D03*
X033346Y008964D03*
X033445Y008669D03*
X033838Y008669D03*
X034330Y009063D03*
X035019Y009948D03*
X035708Y010145D03*
X036496Y009752D03*
X036496Y009161D03*
X035413Y008472D03*
X034921Y008078D03*
X035708Y007783D03*
X035905Y007586D03*
X036200Y007389D03*
X036496Y007980D03*
X036889Y007193D03*
X036496Y006602D03*
X034527Y006700D03*
X034134Y006996D03*
X033641Y006996D03*
X034035Y006405D03*
X034134Y007980D03*
X032756Y008177D03*
X032460Y008570D03*
X033149Y009259D03*
X032362Y009948D03*
X033838Y011917D03*
X034527Y011819D03*
X035315Y011819D03*
X036102Y011720D03*
X036496Y011425D03*
X036889Y011819D03*
X038366Y013984D03*
X038956Y016838D03*
X041023Y016740D03*
X042008Y017429D03*
X042008Y019200D03*
X041220Y019594D03*
X039055Y021169D03*
X040925Y022448D03*
X038858Y019200D03*
X041417Y013098D03*
X042795Y012311D03*
X042893Y008078D03*
X041614Y008177D03*
X039645Y007783D03*
X039252Y006504D03*
X040137Y006110D03*
X040433Y005913D03*
X040630Y005716D03*
X040826Y005519D03*
X038267Y008570D03*
X030393Y006799D03*
X030000Y006602D03*
X030393Y006307D03*
X029409Y005716D03*
X029015Y005913D03*
X028622Y006110D03*
X028326Y006996D03*
X028523Y007980D03*
X029114Y007783D03*
X027145Y006307D03*
D17*
X026260Y013885D03*
X025472Y014673D03*
X026653Y015067D03*
X027047Y015854D03*
X027441Y014673D03*
X028228Y014673D03*
X029409Y014673D03*
X030197Y015854D03*
X031771Y014673D03*
X032559Y013885D03*
X032952Y015067D03*
X033346Y015854D03*
X033740Y014673D03*
X034527Y014673D03*
X035708Y014673D03*
X036496Y015854D03*
X034134Y017035D03*
X034921Y018216D03*
X033346Y018216D03*
X032952Y020185D03*
X032165Y020972D03*
X034527Y020578D03*
X035315Y020578D03*
X035315Y023334D03*
X032952Y023334D03*
X029015Y023334D03*
X026653Y023334D03*
X025866Y020972D03*
X026653Y020185D03*
X028228Y020578D03*
X029015Y020578D03*
X028622Y018216D03*
X027834Y017035D03*
X027047Y018216D03*
X023897Y015854D03*
X023110Y014673D03*
X021929Y014673D03*
X021141Y014673D03*
X020354Y015067D03*
X020748Y015854D03*
X021535Y017035D03*
X020748Y018216D03*
X022323Y018216D03*
X020354Y020185D03*
X019567Y020972D03*
X021929Y020578D03*
X022716Y020578D03*
X022716Y023334D03*
X020354Y023334D03*
X015630Y024417D03*
X015039Y024909D03*
X014941Y024023D03*
X015236Y021169D03*
X012677Y018807D03*
X015236Y016641D03*
X015236Y015279D03*
X013267Y015854D03*
X012382Y013590D03*
X017598Y014082D03*
X019173Y014673D03*
X019960Y013885D03*
X017598Y015854D03*
X017598Y018216D03*
X038267Y006602D03*
D18*
X037086Y005421D01*
X008641Y005421D01*
X008248Y005815D01*
D19*
X006299Y011090D02*
X006063Y011090D01*
X007244Y011405D02*
X007244Y011563D01*
X007244Y013374D02*
X007244Y013531D01*
X006299Y013846D02*
X006063Y013846D01*
M02*
