%
M48
M72
T01C0.0079
T02C0.0197
T03C0.0236
T04C0.0350
T05C0.0400
T06C0.0787
T07C0.1772
%
T01
X6181Y18807
X6378Y18610
X7657Y19594
X7756Y19299
X8051Y19004
X8641Y18610
X8937Y19102
X9429Y18610
X9724Y18807
X10019Y18905
X10216Y19102
X10807Y18905
X11004Y18610
X11200Y18413
X11102Y19200
X10807Y19397
X10708Y19988
X10413Y19988
X10118Y19988
X9724Y20480
X9921Y20972
X9232Y20874
X8838Y20874
X8149Y21366
X7559Y20185
X6968Y19988
X6476Y19791
X6673Y20578
X6476Y21366
X8346Y22547
X8838Y23236
X9921Y22842
X11299Y23334
X40925Y22448
X39055Y21169
X41220Y19594
X42008Y19200
X42008Y17429
X41023Y16740
X38956Y16838
X38858Y19200
X38366Y13984
X36889Y11819
X36496Y11425
X36102Y11720
X35315Y11819
X34527Y11819
X33838Y11917
X33641Y11326
X33149Y11326
X32952Y11917
X32559Y11326
X32165Y11425
X31476Y11819
X31279Y12015
X29901Y11720
X29606Y11326
X29114Y11917
X28917Y11720
X28720Y11346
X28523Y11523
X28031Y11031
X27834Y11346
X27637Y11031
X27441Y11425
X26850Y11425
X26456Y11326
X26063Y11326
X25669Y11228
X25078Y11031
X24685Y11622
X24586Y11917
X24980Y12015
X25177Y11819
X24193Y11326
X23110Y11523
X22519Y10933
X21929Y11326
X21437Y11523
X21240Y11720
X20452Y11720
X21043Y10933
X20945Y10539
X21338Y10342
X20354Y10539
X19763Y10539
X19468Y10933
X19173Y10933
X18779Y11130
X18484Y11130
X18189Y11130
X17893Y11819
X18385Y12015
X18878Y11819
X17106Y11720
X16319Y12015
X15728Y11720
X15728Y11326
X15531Y10736
X15236Y10539
X14448Y10933
X14744Y11326
X14941Y11523
X14941Y11917
X14153Y11917
X14153Y11523
X13956Y11326
X13661Y11130
X13366Y11326
X13366Y11720
X12578Y11819
X12382Y12015
X11693Y12114
X12283Y11130
X12086Y10933
X11889Y10736
X12480Y10933
X12874Y10736
X12677Y10441
X13563Y9653
X13858Y9752
X14055Y9358
X14448Y9456
X14448Y9752
X13661Y8767
X13464Y8570
X13464Y8177
X13464Y7881
X14055Y8472
X15236Y8374
X15433Y8177
X15826Y8374
X16023Y8570
X15334Y8767
X15630Y9456
X15433Y9653
X16023Y9555
X16417Y9752
X16811Y9752
X17303Y9752
X17598Y9752
X17893Y9752
X18484Y9161
X18287Y8964
X18385Y8570
X18878Y8374
X19370Y8570
X19567Y8374
X20157Y8374
X18976Y7783
X18385Y7783
X17204Y7783
X16909Y7783
X16614Y7783
X16614Y6602
X16909Y6602
X16811Y6208
X16023Y6405
X15236Y6011
X15039Y6208
X14448Y6011
X14252Y6208
X13661Y5716
X12775Y5716
X12480Y5716
X12382Y6700
X12677Y6700
X12382Y6996
X12677Y7586
X12382Y7685
X12185Y7881
X11988Y7685
X11988Y8078
X11988Y8374
X11397Y8964
X11004Y9161
X11496Y9555
X11693Y9358
X10708Y9850
X9823Y9063
X9330Y8866
X9527Y8078
X10118Y7488
X10413Y6897
X10610Y6700
X8641Y6405
X8641Y6011
X8248Y5815
X7657Y5519
X40826Y5519
X40630Y5716
X40433Y5913
X40137Y6110
X39252Y6504
X39645Y7783
X38267Y8570
X36889Y7193
X36496Y7980
X36200Y7389
X35905Y7586
X35708Y7783
X35413Y8472
X34921Y8078
X34134Y7980
X33838Y8669
X33445Y8669
X33346Y8964
X33149Y9259
X32952Y8767
X32460Y8570
X32756Y8177
X32165Y9161
X32559Y9358
X32362Y9948
X32559Y10342
X32952Y10342
X33346Y10342
X33149Y9948
X33838Y9555
X34330Y9948
X34134Y10342
X33838Y10342
X35019Y9948
X35708Y10145
X36496Y9752
X36496Y9161
X34330Y9063
X32165Y10342
X30885Y9948
X30393Y10441
X29704Y10539
X29606Y9948
X29901Y9752
X30197Y8570
X30590Y8570
X30885Y8177
X31181Y8570
X29409Y8570
X29114Y7783
X28523Y7980
X28326Y6996
X28622Y6110
X29015Y5913
X29409Y5716
X30000Y6602
X30393Y6799
X30393Y6307
X33641Y6996
X34134Y6996
X34527Y6700
X34035Y6405
X36496Y6602
X41614Y8177
X42893Y8078
X42795Y12311
X41417Y13098
X30393Y11228
X28917Y10145
X28720Y9555
X28326Y10441
X28326Y10736
X27244Y10342
X27244Y9948
X26948Y11031
X26653Y11917
X26063Y9948
X25866Y9161
X25472Y9358
X24685Y9752
X24488Y9948
X23602Y9752
X23208Y9752
X22716Y9752
X21830Y12015
X25275Y7783
X25866Y7783
X25866Y6996
X25669Y6405
X25078Y6011
X24882Y6208
X22716Y6996
X22126Y6996
X21535Y6996
X17992Y6602
X15236Y7193
X14941Y7193
X14842Y6799
X14547Y6799
X14547Y7389
X15236Y7586
X13661Y6897
X16220Y10736
X10905Y11130
X9527Y11720
X8740Y11326
X9134Y10736
X8641Y10637
X8937Y9752
X9527Y10145
X8445Y8275
X7559Y7980
X6968Y8078
X6181Y7881
X6279Y9161
X6181Y9653
X6082Y10736
X7559Y9752
X8346Y12507
X9330Y13196
X9724Y13885
X8937Y14673
X8937Y15854
X9232Y16149
X7756Y16149
X7756Y15854
X7165Y15460
X6968Y15263
X6771Y15067
X6574Y15263
X6378Y15067
X6574Y14870
X6082Y14870
X6181Y15460
X7263Y14673
X7263Y13885
X7657Y17330
X8641Y19889
X10708Y21464
X11200Y21759
X11102Y20972
X10708Y17527
X10807Y17035
X11102Y16543
X10807Y15067
X10413Y24909
X9035Y24417
X26653Y8964
X27047Y8767
X27145Y6307
T02
X10413Y12803
X7756Y11720
T03
X35315Y23334
X32952Y23334
X32165Y20972
X32952Y20185
X34527Y20578
X35315Y20578
X34921Y18216
X34134Y17035
X33346Y18216
X33346Y15854
X32952Y15067
X33740Y14673
X34527Y14673
X35708Y14673
X36496Y15854
X32559Y13885
X31771Y14673
X30197Y15854
X29409Y14673
X28228Y14673
X27441Y14673
X26653Y15067
X27047Y15854
X27834Y17035
X27047Y18216
X28622Y18216
X26653Y20185
X25866Y20972
X28228Y20578
X29015Y20578
X29015Y23334
X26653Y23334
X22716Y23334
X20354Y23334
X15630Y24417
X15039Y24909
X14941Y24023
X12382Y13590
X13267Y15854
X15236Y15279
X15236Y16641
X17598Y15854
X17598Y14082
X26260Y13885
X25472Y14673
X23897Y15854
X23110Y14673
X21929Y14673
X21141Y14673
X20354Y15067
X20748Y15854
X21535Y17035
X20748Y18216
X22323Y18216
X20354Y20185
X19567Y20972
X17598Y18216
X15236Y21169
X12677Y18807
X19173Y14673
X19960Y13885
X21929Y20578
X22716Y20578
X38267Y6602
T04
X32511Y6481
X35661Y6481
T05
X7141Y17830
X7141Y16830
X8141Y16830
X8141Y17830
X9141Y17830
X9141Y16830
X10141Y16830
X10141Y17830
X12787Y14224
X13787Y14224
X14787Y14224
X15787Y14224
X10905Y24023
X9905Y24023
T06
X38464Y22645
X38464Y7881
X10905Y22645
X10905Y7881
T07
X7185Y23763
X42185Y23763
X42185Y6763
X7185Y6763
M30
