G75*
%MOIN*%
%OFA0B0*%
%FSLAX24Y24*%
%IPPOS*%
%LPD*%
%AMOC8*
5,1,8,0,0,1.08239X$1,22.5*
%
%ADD10C,0.0050*%
%ADD11C,0.0000*%
%ADD12C,0.0295*%
%ADD13C,0.0039*%
D10*
X005787Y006405D02*
X005787Y019043D01*
X006417Y019043D01*
X006442Y019048D01*
X006466Y019056D01*
X006488Y019067D01*
X006509Y019082D01*
X006528Y019099D01*
X006544Y019119D01*
X006556Y019141D01*
X006566Y019164D01*
X006572Y019189D01*
X006575Y019214D01*
X006574Y019240D01*
X006574Y019239D02*
X006575Y019265D01*
X006572Y019290D01*
X006566Y019315D01*
X006556Y019338D01*
X006544Y019360D01*
X006528Y019380D01*
X006509Y019397D01*
X006488Y019412D01*
X006466Y019423D01*
X006442Y019431D01*
X006417Y019436D01*
X006417Y019437D02*
X005787Y019437D01*
X005787Y023728D01*
X005789Y023805D01*
X005795Y023882D01*
X005804Y023959D01*
X005817Y024035D01*
X005834Y024111D01*
X005855Y024185D01*
X005879Y024259D01*
X005907Y024331D01*
X005938Y024401D01*
X005973Y024470D01*
X006011Y024538D01*
X006052Y024603D01*
X006097Y024666D01*
X006145Y024727D01*
X006195Y024786D01*
X006248Y024842D01*
X006304Y024895D01*
X006363Y024945D01*
X006424Y024993D01*
X006487Y025038D01*
X006552Y025079D01*
X006620Y025117D01*
X006689Y025152D01*
X006759Y025183D01*
X006831Y025211D01*
X006905Y025235D01*
X006979Y025256D01*
X007055Y025273D01*
X007131Y025286D01*
X007208Y025295D01*
X007285Y025301D01*
X007362Y025303D01*
X011693Y025303D01*
X011693Y024909D01*
X012086Y024909D01*
X012086Y025303D01*
X037283Y025303D01*
X037283Y024712D01*
X037677Y024712D01*
X037677Y025303D01*
X042008Y025303D01*
X042085Y025301D01*
X042162Y025295D01*
X042239Y025286D01*
X042315Y025273D01*
X042391Y025256D01*
X042465Y025235D01*
X042539Y025211D01*
X042611Y025183D01*
X042681Y025152D01*
X042750Y025117D01*
X042818Y025079D01*
X042883Y025038D01*
X042946Y024993D01*
X043007Y024945D01*
X043066Y024895D01*
X043122Y024842D01*
X043175Y024786D01*
X043225Y024727D01*
X043273Y024666D01*
X043318Y024603D01*
X043359Y024538D01*
X043397Y024470D01*
X043432Y024401D01*
X043463Y024331D01*
X043491Y024259D01*
X043515Y024185D01*
X043536Y024111D01*
X043553Y024035D01*
X043566Y023959D01*
X043575Y023882D01*
X043581Y023805D01*
X043583Y023728D01*
X043582Y023728D02*
X043582Y019437D01*
X042952Y019437D01*
X042952Y019436D02*
X042927Y019431D01*
X042903Y019423D01*
X042881Y019412D01*
X042860Y019397D01*
X042841Y019380D01*
X042825Y019360D01*
X042813Y019338D01*
X042803Y019315D01*
X042797Y019290D01*
X042794Y019265D01*
X042795Y019239D01*
X042795Y019240D02*
X042794Y019214D01*
X042797Y019189D01*
X042803Y019164D01*
X042813Y019141D01*
X042825Y019119D01*
X042841Y019099D01*
X042860Y019082D01*
X042881Y019067D01*
X042903Y019056D01*
X042927Y019048D01*
X042952Y019043D01*
X043582Y019043D01*
X043582Y006799D01*
X043583Y006799D02*
X043581Y006722D01*
X043575Y006645D01*
X043566Y006568D01*
X043553Y006492D01*
X043536Y006416D01*
X043515Y006342D01*
X043491Y006268D01*
X043463Y006196D01*
X043432Y006126D01*
X043397Y006057D01*
X043359Y005989D01*
X043318Y005924D01*
X043273Y005861D01*
X043225Y005800D01*
X043175Y005741D01*
X043122Y005685D01*
X043066Y005632D01*
X043007Y005582D01*
X042946Y005534D01*
X042883Y005489D01*
X042818Y005448D01*
X042750Y005410D01*
X042681Y005375D01*
X042611Y005344D01*
X042539Y005316D01*
X042465Y005292D01*
X042391Y005271D01*
X042315Y005254D01*
X042239Y005241D01*
X042162Y005232D01*
X042085Y005226D01*
X042008Y005224D01*
X006968Y005224D01*
X006902Y005226D01*
X006836Y005231D01*
X006770Y005241D01*
X006705Y005254D01*
X006641Y005270D01*
X006578Y005290D01*
X006516Y005314D01*
X006456Y005341D01*
X006397Y005371D01*
X006340Y005405D01*
X006285Y005442D01*
X006232Y005482D01*
X006181Y005524D01*
X006133Y005570D01*
X006087Y005618D01*
X006045Y005669D01*
X006005Y005722D01*
X005968Y005777D01*
X005934Y005834D01*
X005904Y005893D01*
X005877Y005953D01*
X005853Y006015D01*
X005833Y006078D01*
X005817Y006142D01*
X005804Y006207D01*
X005794Y006273D01*
X005789Y006339D01*
X005787Y006405D01*
X005660Y010463D02*
X004685Y010463D01*
X004685Y014463D01*
X005660Y014463D01*
X005660Y010463D01*
X006057Y010987D02*
X006313Y010987D01*
X006330Y010988D01*
X006347Y010993D01*
X006362Y011000D01*
X006376Y011010D01*
X006388Y011022D01*
X006398Y011036D01*
X006405Y011051D01*
X006410Y011068D01*
X006411Y011085D01*
X006410Y011102D01*
X006405Y011119D01*
X006398Y011134D01*
X006388Y011148D01*
X006376Y011160D01*
X006362Y011170D01*
X006347Y011177D01*
X006330Y011182D01*
X006313Y011183D01*
X006313Y011184D02*
X006057Y011184D01*
X005959Y011085D02*
X005960Y011068D01*
X005965Y011051D01*
X005972Y011036D01*
X005982Y011022D01*
X005994Y011010D01*
X006008Y011000D01*
X006023Y010993D01*
X006040Y010988D01*
X006057Y010987D01*
X005959Y011085D02*
X005960Y011102D01*
X005965Y011119D01*
X005972Y011134D01*
X005982Y011148D01*
X005994Y011160D01*
X006008Y011170D01*
X006023Y011177D01*
X006040Y011182D01*
X006057Y011183D01*
X007139Y011420D02*
X007139Y011538D01*
X007248Y011646D02*
X007267Y011644D01*
X007285Y011639D01*
X007302Y011632D01*
X007317Y011621D01*
X007331Y011607D01*
X007342Y011592D01*
X007349Y011575D01*
X007354Y011557D01*
X007356Y011538D01*
X007356Y011420D01*
X007248Y011312D02*
X007229Y011314D01*
X007211Y011319D01*
X007194Y011326D01*
X007179Y011337D01*
X007165Y011351D01*
X007154Y011366D01*
X007147Y011383D01*
X007142Y011401D01*
X007140Y011420D01*
X007248Y011312D02*
X007267Y011314D01*
X007285Y011319D01*
X007302Y011326D01*
X007317Y011337D01*
X007331Y011351D01*
X007342Y011366D01*
X007349Y011383D01*
X007354Y011401D01*
X007356Y011420D01*
X007140Y011538D02*
X007142Y011557D01*
X007147Y011575D01*
X007154Y011592D01*
X007165Y011607D01*
X007179Y011621D01*
X007194Y011632D01*
X007211Y011639D01*
X007229Y011644D01*
X007248Y011646D01*
X007258Y013280D02*
X007248Y013280D01*
X007248Y013281D02*
X007229Y013283D01*
X007211Y013288D01*
X007194Y013295D01*
X007179Y013306D01*
X007165Y013320D01*
X007154Y013335D01*
X007147Y013352D01*
X007142Y013370D01*
X007140Y013389D01*
X007139Y013389D02*
X007139Y013507D01*
X007140Y013507D02*
X007142Y013526D01*
X007147Y013544D01*
X007154Y013561D01*
X007165Y013576D01*
X007179Y013590D01*
X007194Y013601D01*
X007211Y013608D01*
X007229Y013613D01*
X007248Y013615D01*
X007258Y013615D01*
X007277Y013613D01*
X007295Y013608D01*
X007312Y013601D01*
X007327Y013590D01*
X007341Y013576D01*
X007352Y013561D01*
X007359Y013544D01*
X007364Y013526D01*
X007366Y013507D01*
X007366Y013389D01*
X007364Y013370D01*
X007359Y013352D01*
X007352Y013335D01*
X007341Y013320D01*
X007327Y013306D01*
X007312Y013295D01*
X007295Y013288D01*
X007277Y013283D01*
X007258Y013281D01*
X006313Y013743D02*
X006057Y013743D01*
X005959Y013841D02*
X005960Y013858D01*
X005965Y013875D01*
X005972Y013890D01*
X005982Y013904D01*
X005994Y013916D01*
X006008Y013926D01*
X006023Y013933D01*
X006040Y013938D01*
X006057Y013939D01*
X006057Y013940D02*
X006313Y013940D01*
X006411Y013841D02*
X006410Y013824D01*
X006405Y013807D01*
X006398Y013792D01*
X006388Y013778D01*
X006376Y013766D01*
X006362Y013756D01*
X006347Y013749D01*
X006330Y013744D01*
X006313Y013743D01*
X006411Y013841D02*
X006410Y013858D01*
X006405Y013875D01*
X006398Y013890D01*
X006388Y013904D01*
X006376Y013916D01*
X006362Y013926D01*
X006347Y013933D01*
X006330Y013938D01*
X006313Y013939D01*
X006057Y013743D02*
X006040Y013744D01*
X006023Y013749D01*
X006008Y013756D01*
X005994Y013766D01*
X005982Y013778D01*
X005972Y013792D01*
X005965Y013807D01*
X005960Y013824D01*
X005959Y013841D01*
X009468Y014263D02*
X009468Y016263D01*
X010556Y016263D01*
X010556Y014263D01*
X009468Y014263D01*
X011693Y012507D02*
X011693Y024515D01*
X012086Y024515D01*
X012086Y012704D01*
X018189Y012704D01*
X018189Y012311D01*
X011889Y012311D01*
X011889Y012310D02*
X011863Y012312D01*
X011838Y012317D01*
X011814Y012325D01*
X011791Y012336D01*
X011769Y012351D01*
X011750Y012368D01*
X011733Y012387D01*
X011718Y012409D01*
X011707Y012432D01*
X011699Y012456D01*
X011694Y012481D01*
X011692Y012507D01*
X018582Y012311D02*
X018582Y012704D01*
X024488Y012704D01*
X024488Y012311D01*
X018582Y012311D01*
X024882Y012311D02*
X024882Y012704D01*
X030787Y012704D01*
X030787Y012311D01*
X024882Y012311D01*
X031181Y012311D02*
X031181Y012704D01*
X037283Y012704D01*
X037283Y024319D01*
X037677Y024319D01*
X037677Y012507D01*
X037675Y012481D01*
X037670Y012456D01*
X037662Y012432D01*
X037651Y012409D01*
X037636Y012387D01*
X037619Y012368D01*
X037600Y012351D01*
X037579Y012336D01*
X037555Y012325D01*
X037531Y012317D01*
X037506Y012312D01*
X037480Y012310D01*
X037480Y012311D02*
X031181Y012311D01*
X038814Y014263D02*
X038814Y016263D01*
X039901Y016263D01*
X039901Y014263D01*
X038814Y014263D01*
D11*
X038070Y007881D02*
X038072Y007920D01*
X038078Y007959D01*
X038088Y007997D01*
X038101Y008034D01*
X038118Y008069D01*
X038138Y008103D01*
X038162Y008134D01*
X038189Y008163D01*
X038218Y008189D01*
X038250Y008212D01*
X038284Y008232D01*
X038320Y008248D01*
X038357Y008260D01*
X038396Y008269D01*
X038435Y008274D01*
X038474Y008275D01*
X038513Y008272D01*
X038552Y008265D01*
X038589Y008254D01*
X038626Y008240D01*
X038661Y008222D01*
X038694Y008201D01*
X038725Y008176D01*
X038753Y008149D01*
X038778Y008119D01*
X038800Y008086D01*
X038819Y008052D01*
X038834Y008016D01*
X038846Y007978D01*
X038854Y007940D01*
X038858Y007901D01*
X038858Y007861D01*
X038854Y007822D01*
X038846Y007784D01*
X038834Y007746D01*
X038819Y007710D01*
X038800Y007676D01*
X038778Y007643D01*
X038753Y007613D01*
X038725Y007586D01*
X038694Y007561D01*
X038661Y007540D01*
X038626Y007522D01*
X038589Y007508D01*
X038552Y007497D01*
X038513Y007490D01*
X038474Y007487D01*
X038435Y007488D01*
X038396Y007493D01*
X038357Y007502D01*
X038320Y007514D01*
X038284Y007530D01*
X038250Y007550D01*
X038218Y007573D01*
X038189Y007599D01*
X038162Y007628D01*
X038138Y007659D01*
X038118Y007693D01*
X038101Y007728D01*
X038088Y007765D01*
X038078Y007803D01*
X038072Y007842D01*
X038070Y007881D01*
X035486Y006481D02*
X035488Y006507D01*
X035494Y006533D01*
X035503Y006557D01*
X035516Y006580D01*
X035533Y006600D01*
X035552Y006618D01*
X035574Y006633D01*
X035597Y006644D01*
X035622Y006652D01*
X035648Y006656D01*
X035674Y006656D01*
X035700Y006652D01*
X035725Y006644D01*
X035749Y006633D01*
X035770Y006618D01*
X035789Y006600D01*
X035806Y006580D01*
X035819Y006557D01*
X035828Y006533D01*
X035834Y006507D01*
X035836Y006481D01*
X035834Y006455D01*
X035828Y006429D01*
X035819Y006405D01*
X035806Y006382D01*
X035789Y006362D01*
X035770Y006344D01*
X035748Y006329D01*
X035725Y006318D01*
X035700Y006310D01*
X035674Y006306D01*
X035648Y006306D01*
X035622Y006310D01*
X035597Y006318D01*
X035573Y006329D01*
X035552Y006344D01*
X035533Y006362D01*
X035516Y006382D01*
X035503Y006405D01*
X035494Y006429D01*
X035488Y006455D01*
X035486Y006481D01*
X032336Y006481D02*
X032338Y006507D01*
X032344Y006533D01*
X032353Y006557D01*
X032366Y006580D01*
X032383Y006600D01*
X032402Y006618D01*
X032424Y006633D01*
X032447Y006644D01*
X032472Y006652D01*
X032498Y006656D01*
X032524Y006656D01*
X032550Y006652D01*
X032575Y006644D01*
X032599Y006633D01*
X032620Y006618D01*
X032639Y006600D01*
X032656Y006580D01*
X032669Y006557D01*
X032678Y006533D01*
X032684Y006507D01*
X032686Y006481D01*
X032684Y006455D01*
X032678Y006429D01*
X032669Y006405D01*
X032656Y006382D01*
X032639Y006362D01*
X032620Y006344D01*
X032598Y006329D01*
X032575Y006318D01*
X032550Y006310D01*
X032524Y006306D01*
X032498Y006306D01*
X032472Y006310D01*
X032447Y006318D01*
X032423Y006329D01*
X032402Y006344D01*
X032383Y006362D01*
X032366Y006382D01*
X032353Y006405D01*
X032344Y006429D01*
X032338Y006455D01*
X032336Y006481D01*
X041299Y006763D02*
X041301Y006822D01*
X041307Y006881D01*
X041317Y006939D01*
X041330Y006997D01*
X041348Y007054D01*
X041369Y007109D01*
X041394Y007163D01*
X041423Y007215D01*
X041455Y007264D01*
X041490Y007312D01*
X041528Y007357D01*
X041569Y007400D01*
X041613Y007440D01*
X041659Y007476D01*
X041708Y007510D01*
X041759Y007540D01*
X041812Y007567D01*
X041867Y007590D01*
X041922Y007609D01*
X041980Y007625D01*
X042038Y007637D01*
X042096Y007645D01*
X042155Y007649D01*
X042215Y007649D01*
X042274Y007645D01*
X042332Y007637D01*
X042390Y007625D01*
X042448Y007609D01*
X042503Y007590D01*
X042558Y007567D01*
X042611Y007540D01*
X042662Y007510D01*
X042711Y007476D01*
X042757Y007440D01*
X042801Y007400D01*
X042842Y007357D01*
X042880Y007312D01*
X042915Y007264D01*
X042947Y007215D01*
X042976Y007163D01*
X043001Y007109D01*
X043022Y007054D01*
X043040Y006997D01*
X043053Y006939D01*
X043063Y006881D01*
X043069Y006822D01*
X043071Y006763D01*
X043069Y006704D01*
X043063Y006645D01*
X043053Y006587D01*
X043040Y006529D01*
X043022Y006472D01*
X043001Y006417D01*
X042976Y006363D01*
X042947Y006311D01*
X042915Y006262D01*
X042880Y006214D01*
X042842Y006169D01*
X042801Y006126D01*
X042757Y006086D01*
X042711Y006050D01*
X042662Y006016D01*
X042611Y005986D01*
X042558Y005959D01*
X042503Y005936D01*
X042448Y005917D01*
X042390Y005901D01*
X042332Y005889D01*
X042274Y005881D01*
X042215Y005877D01*
X042155Y005877D01*
X042096Y005881D01*
X042038Y005889D01*
X041980Y005901D01*
X041922Y005917D01*
X041867Y005936D01*
X041812Y005959D01*
X041759Y005986D01*
X041708Y006016D01*
X041659Y006050D01*
X041613Y006086D01*
X041569Y006126D01*
X041528Y006169D01*
X041490Y006214D01*
X041455Y006262D01*
X041423Y006311D01*
X041394Y006363D01*
X041369Y006417D01*
X041348Y006472D01*
X041330Y006529D01*
X041317Y006587D01*
X041307Y006645D01*
X041301Y006704D01*
X041299Y006763D01*
X038070Y022645D02*
X038072Y022684D01*
X038078Y022723D01*
X038088Y022761D01*
X038101Y022798D01*
X038118Y022833D01*
X038138Y022867D01*
X038162Y022898D01*
X038189Y022927D01*
X038218Y022953D01*
X038250Y022976D01*
X038284Y022996D01*
X038320Y023012D01*
X038357Y023024D01*
X038396Y023033D01*
X038435Y023038D01*
X038474Y023039D01*
X038513Y023036D01*
X038552Y023029D01*
X038589Y023018D01*
X038626Y023004D01*
X038661Y022986D01*
X038694Y022965D01*
X038725Y022940D01*
X038753Y022913D01*
X038778Y022883D01*
X038800Y022850D01*
X038819Y022816D01*
X038834Y022780D01*
X038846Y022742D01*
X038854Y022704D01*
X038858Y022665D01*
X038858Y022625D01*
X038854Y022586D01*
X038846Y022548D01*
X038834Y022510D01*
X038819Y022474D01*
X038800Y022440D01*
X038778Y022407D01*
X038753Y022377D01*
X038725Y022350D01*
X038694Y022325D01*
X038661Y022304D01*
X038626Y022286D01*
X038589Y022272D01*
X038552Y022261D01*
X038513Y022254D01*
X038474Y022251D01*
X038435Y022252D01*
X038396Y022257D01*
X038357Y022266D01*
X038320Y022278D01*
X038284Y022294D01*
X038250Y022314D01*
X038218Y022337D01*
X038189Y022363D01*
X038162Y022392D01*
X038138Y022423D01*
X038118Y022457D01*
X038101Y022492D01*
X038088Y022529D01*
X038078Y022567D01*
X038072Y022606D01*
X038070Y022645D01*
X041299Y023763D02*
X041301Y023822D01*
X041307Y023881D01*
X041317Y023939D01*
X041330Y023997D01*
X041348Y024054D01*
X041369Y024109D01*
X041394Y024163D01*
X041423Y024215D01*
X041455Y024264D01*
X041490Y024312D01*
X041528Y024357D01*
X041569Y024400D01*
X041613Y024440D01*
X041659Y024476D01*
X041708Y024510D01*
X041759Y024540D01*
X041812Y024567D01*
X041867Y024590D01*
X041922Y024609D01*
X041980Y024625D01*
X042038Y024637D01*
X042096Y024645D01*
X042155Y024649D01*
X042215Y024649D01*
X042274Y024645D01*
X042332Y024637D01*
X042390Y024625D01*
X042448Y024609D01*
X042503Y024590D01*
X042558Y024567D01*
X042611Y024540D01*
X042662Y024510D01*
X042711Y024476D01*
X042757Y024440D01*
X042801Y024400D01*
X042842Y024357D01*
X042880Y024312D01*
X042915Y024264D01*
X042947Y024215D01*
X042976Y024163D01*
X043001Y024109D01*
X043022Y024054D01*
X043040Y023997D01*
X043053Y023939D01*
X043063Y023881D01*
X043069Y023822D01*
X043071Y023763D01*
X043069Y023704D01*
X043063Y023645D01*
X043053Y023587D01*
X043040Y023529D01*
X043022Y023472D01*
X043001Y023417D01*
X042976Y023363D01*
X042947Y023311D01*
X042915Y023262D01*
X042880Y023214D01*
X042842Y023169D01*
X042801Y023126D01*
X042757Y023086D01*
X042711Y023050D01*
X042662Y023016D01*
X042611Y022986D01*
X042558Y022959D01*
X042503Y022936D01*
X042448Y022917D01*
X042390Y022901D01*
X042332Y022889D01*
X042274Y022881D01*
X042215Y022877D01*
X042155Y022877D01*
X042096Y022881D01*
X042038Y022889D01*
X041980Y022901D01*
X041922Y022917D01*
X041867Y022936D01*
X041812Y022959D01*
X041759Y022986D01*
X041708Y023016D01*
X041659Y023050D01*
X041613Y023086D01*
X041569Y023126D01*
X041528Y023169D01*
X041490Y023214D01*
X041455Y023262D01*
X041423Y023311D01*
X041394Y023363D01*
X041369Y023417D01*
X041348Y023472D01*
X041330Y023529D01*
X041317Y023587D01*
X041307Y023645D01*
X041301Y023704D01*
X041299Y023763D01*
X010511Y022645D02*
X010513Y022684D01*
X010519Y022723D01*
X010529Y022761D01*
X010542Y022798D01*
X010559Y022833D01*
X010579Y022867D01*
X010603Y022898D01*
X010630Y022927D01*
X010659Y022953D01*
X010691Y022976D01*
X010725Y022996D01*
X010761Y023012D01*
X010798Y023024D01*
X010837Y023033D01*
X010876Y023038D01*
X010915Y023039D01*
X010954Y023036D01*
X010993Y023029D01*
X011030Y023018D01*
X011067Y023004D01*
X011102Y022986D01*
X011135Y022965D01*
X011166Y022940D01*
X011194Y022913D01*
X011219Y022883D01*
X011241Y022850D01*
X011260Y022816D01*
X011275Y022780D01*
X011287Y022742D01*
X011295Y022704D01*
X011299Y022665D01*
X011299Y022625D01*
X011295Y022586D01*
X011287Y022548D01*
X011275Y022510D01*
X011260Y022474D01*
X011241Y022440D01*
X011219Y022407D01*
X011194Y022377D01*
X011166Y022350D01*
X011135Y022325D01*
X011102Y022304D01*
X011067Y022286D01*
X011030Y022272D01*
X010993Y022261D01*
X010954Y022254D01*
X010915Y022251D01*
X010876Y022252D01*
X010837Y022257D01*
X010798Y022266D01*
X010761Y022278D01*
X010725Y022294D01*
X010691Y022314D01*
X010659Y022337D01*
X010630Y022363D01*
X010603Y022392D01*
X010579Y022423D01*
X010559Y022457D01*
X010542Y022492D01*
X010529Y022529D01*
X010519Y022567D01*
X010513Y022606D01*
X010511Y022645D01*
X006299Y023763D02*
X006301Y023822D01*
X006307Y023881D01*
X006317Y023939D01*
X006330Y023997D01*
X006348Y024054D01*
X006369Y024109D01*
X006394Y024163D01*
X006423Y024215D01*
X006455Y024264D01*
X006490Y024312D01*
X006528Y024357D01*
X006569Y024400D01*
X006613Y024440D01*
X006659Y024476D01*
X006708Y024510D01*
X006759Y024540D01*
X006812Y024567D01*
X006867Y024590D01*
X006922Y024609D01*
X006980Y024625D01*
X007038Y024637D01*
X007096Y024645D01*
X007155Y024649D01*
X007215Y024649D01*
X007274Y024645D01*
X007332Y024637D01*
X007390Y024625D01*
X007448Y024609D01*
X007503Y024590D01*
X007558Y024567D01*
X007611Y024540D01*
X007662Y024510D01*
X007711Y024476D01*
X007757Y024440D01*
X007801Y024400D01*
X007842Y024357D01*
X007880Y024312D01*
X007915Y024264D01*
X007947Y024215D01*
X007976Y024163D01*
X008001Y024109D01*
X008022Y024054D01*
X008040Y023997D01*
X008053Y023939D01*
X008063Y023881D01*
X008069Y023822D01*
X008071Y023763D01*
X008069Y023704D01*
X008063Y023645D01*
X008053Y023587D01*
X008040Y023529D01*
X008022Y023472D01*
X008001Y023417D01*
X007976Y023363D01*
X007947Y023311D01*
X007915Y023262D01*
X007880Y023214D01*
X007842Y023169D01*
X007801Y023126D01*
X007757Y023086D01*
X007711Y023050D01*
X007662Y023016D01*
X007611Y022986D01*
X007558Y022959D01*
X007503Y022936D01*
X007448Y022917D01*
X007390Y022901D01*
X007332Y022889D01*
X007274Y022881D01*
X007215Y022877D01*
X007155Y022877D01*
X007096Y022881D01*
X007038Y022889D01*
X006980Y022901D01*
X006922Y022917D01*
X006867Y022936D01*
X006812Y022959D01*
X006759Y022986D01*
X006708Y023016D01*
X006659Y023050D01*
X006613Y023086D01*
X006569Y023126D01*
X006528Y023169D01*
X006490Y023214D01*
X006455Y023262D01*
X006423Y023311D01*
X006394Y023363D01*
X006369Y023417D01*
X006348Y023472D01*
X006330Y023529D01*
X006317Y023587D01*
X006307Y023645D01*
X006301Y023704D01*
X006299Y023763D01*
X010511Y007881D02*
X010513Y007920D01*
X010519Y007959D01*
X010529Y007997D01*
X010542Y008034D01*
X010559Y008069D01*
X010579Y008103D01*
X010603Y008134D01*
X010630Y008163D01*
X010659Y008189D01*
X010691Y008212D01*
X010725Y008232D01*
X010761Y008248D01*
X010798Y008260D01*
X010837Y008269D01*
X010876Y008274D01*
X010915Y008275D01*
X010954Y008272D01*
X010993Y008265D01*
X011030Y008254D01*
X011067Y008240D01*
X011102Y008222D01*
X011135Y008201D01*
X011166Y008176D01*
X011194Y008149D01*
X011219Y008119D01*
X011241Y008086D01*
X011260Y008052D01*
X011275Y008016D01*
X011287Y007978D01*
X011295Y007940D01*
X011299Y007901D01*
X011299Y007861D01*
X011295Y007822D01*
X011287Y007784D01*
X011275Y007746D01*
X011260Y007710D01*
X011241Y007676D01*
X011219Y007643D01*
X011194Y007613D01*
X011166Y007586D01*
X011135Y007561D01*
X011102Y007540D01*
X011067Y007522D01*
X011030Y007508D01*
X010993Y007497D01*
X010954Y007490D01*
X010915Y007487D01*
X010876Y007488D01*
X010837Y007493D01*
X010798Y007502D01*
X010761Y007514D01*
X010725Y007530D01*
X010691Y007550D01*
X010659Y007573D01*
X010630Y007599D01*
X010603Y007628D01*
X010579Y007659D01*
X010559Y007693D01*
X010542Y007728D01*
X010529Y007765D01*
X010519Y007803D01*
X010513Y007842D01*
X010511Y007881D01*
X006299Y006763D02*
X006301Y006822D01*
X006307Y006881D01*
X006317Y006939D01*
X006330Y006997D01*
X006348Y007054D01*
X006369Y007109D01*
X006394Y007163D01*
X006423Y007215D01*
X006455Y007264D01*
X006490Y007312D01*
X006528Y007357D01*
X006569Y007400D01*
X006613Y007440D01*
X006659Y007476D01*
X006708Y007510D01*
X006759Y007540D01*
X006812Y007567D01*
X006867Y007590D01*
X006922Y007609D01*
X006980Y007625D01*
X007038Y007637D01*
X007096Y007645D01*
X007155Y007649D01*
X007215Y007649D01*
X007274Y007645D01*
X007332Y007637D01*
X007390Y007625D01*
X007448Y007609D01*
X007503Y007590D01*
X007558Y007567D01*
X007611Y007540D01*
X007662Y007510D01*
X007711Y007476D01*
X007757Y007440D01*
X007801Y007400D01*
X007842Y007357D01*
X007880Y007312D01*
X007915Y007264D01*
X007947Y007215D01*
X007976Y007163D01*
X008001Y007109D01*
X008022Y007054D01*
X008040Y006997D01*
X008053Y006939D01*
X008063Y006881D01*
X008069Y006822D01*
X008071Y006763D01*
X008069Y006704D01*
X008063Y006645D01*
X008053Y006587D01*
X008040Y006529D01*
X008022Y006472D01*
X008001Y006417D01*
X007976Y006363D01*
X007947Y006311D01*
X007915Y006262D01*
X007880Y006214D01*
X007842Y006169D01*
X007801Y006126D01*
X007757Y006086D01*
X007711Y006050D01*
X007662Y006016D01*
X007611Y005986D01*
X007558Y005959D01*
X007503Y005936D01*
X007448Y005917D01*
X007390Y005901D01*
X007332Y005889D01*
X007274Y005881D01*
X007215Y005877D01*
X007155Y005877D01*
X007096Y005881D01*
X007038Y005889D01*
X006980Y005901D01*
X006922Y005917D01*
X006867Y005936D01*
X006812Y005959D01*
X006759Y005986D01*
X006708Y006016D01*
X006659Y006050D01*
X006613Y006086D01*
X006569Y006126D01*
X006528Y006169D01*
X006490Y006214D01*
X006455Y006262D01*
X006423Y006311D01*
X006394Y006363D01*
X006369Y006417D01*
X006348Y006472D01*
X006330Y006529D01*
X006317Y006587D01*
X006307Y006645D01*
X006301Y006704D01*
X006299Y006763D01*
D12*
X013267Y012212D02*
X013267Y012350D01*
X013267Y012212D02*
X013267Y012803D01*
X013267Y012665D01*
X017204Y012665D02*
X017204Y012803D01*
X017204Y012212D01*
X017204Y012350D01*
X018385Y013098D02*
X018385Y024122D01*
X018385Y024811D02*
X018385Y025401D01*
X024685Y025401D02*
X024685Y024811D01*
X024685Y024122D02*
X024685Y013098D01*
X025866Y012803D02*
X025866Y012212D01*
X025866Y012350D01*
X025866Y012665D02*
X025866Y012803D01*
X023504Y012803D02*
X023504Y012212D01*
X023504Y012350D01*
X023504Y012665D02*
X023504Y012803D01*
X019567Y012803D02*
X019567Y012212D01*
X019567Y012350D01*
X019567Y012665D02*
X019567Y012803D01*
X029803Y012803D02*
X029803Y012212D01*
X029803Y012350D01*
X029803Y012665D02*
X029803Y012803D01*
X030984Y013098D02*
X030984Y024122D01*
X030984Y024811D02*
X030984Y025401D01*
X032165Y012803D02*
X032165Y012665D01*
X032165Y012803D02*
X032165Y012212D01*
X032165Y012350D01*
X036102Y012350D02*
X036102Y012212D01*
X036102Y012803D01*
X036102Y012665D01*
D13*
X017952Y019594D02*
X017952Y020381D01*
X016456Y020381D01*
X016456Y019594D01*
X017952Y019594D01*
X017834Y021563D02*
X018071Y021563D01*
X018071Y022744D01*
X017834Y022744D01*
X017834Y021563D01*
X017952Y023925D02*
X016456Y023925D01*
X016456Y024712D01*
X017952Y024712D01*
X017952Y023925D01*
X014015Y023925D02*
X012519Y023925D01*
X012519Y024712D01*
X014015Y024712D01*
X014015Y023925D01*
X012637Y022744D02*
X012401Y022744D01*
X012401Y021563D01*
X012637Y021563D01*
X012637Y022744D01*
X012519Y020381D02*
X012519Y019594D01*
X014015Y019594D01*
X014015Y020381D01*
X012519Y020381D01*
M02*
