G75*
%MOIN*%
%OFA0B0*%
%FSLAX24Y24*%
%IPPOS*%
%LPD*%
%AMOC8*
5,1,8,0,0,1.08239X$1,22.5*
%
%ADD10C,0.0030*%
%ADD11C,0.0020*%
%ADD12C,0.0040*%
%ADD13C,0.0080*%
%ADD14R,0.0180X0.0300*%
%ADD15C,0.0050*%
%ADD16C,0.0100*%
%ADD17R,0.0472X0.0079*%
%ADD18R,0.0079X0.0472*%
%ADD19C,0.0060*%
%ADD20C,0.0039*%
D10*
X006050Y007729D02*
X005999Y007780D01*
X006050Y007729D02*
X006151Y007729D01*
X006202Y007780D01*
X006202Y007831D01*
X006151Y007882D01*
X006050Y007882D01*
X005999Y007932D01*
X005999Y007983D01*
X006050Y008034D01*
X006151Y008034D01*
X006202Y007983D01*
X006307Y008034D02*
X006307Y007729D01*
X006409Y007831D01*
X006510Y007729D01*
X006510Y008034D01*
X006615Y007678D02*
X006818Y007678D01*
X006923Y007729D02*
X006923Y008034D01*
X007076Y008034D01*
X007127Y007983D01*
X007127Y007882D01*
X007076Y007831D01*
X006923Y007831D01*
X007231Y007729D02*
X007333Y007831D01*
X007435Y007729D01*
X007435Y008034D01*
X007540Y008034D02*
X007692Y008034D01*
X007743Y007983D01*
X007743Y007882D01*
X007692Y007831D01*
X007540Y007831D01*
X007641Y007831D02*
X007743Y007729D01*
X007540Y007729D02*
X007540Y008034D01*
X007231Y008034D02*
X007231Y007729D01*
X012649Y014688D02*
X012587Y014750D01*
X012587Y014873D01*
X012649Y014935D01*
X012710Y014935D01*
X012772Y014873D01*
X012834Y014935D01*
X012895Y014935D01*
X012957Y014873D01*
X012957Y014750D01*
X012895Y014688D01*
X012772Y014811D02*
X012772Y014873D01*
X012895Y015056D02*
X012895Y015118D01*
X012957Y015118D01*
X012957Y015056D01*
X012895Y015056D01*
X012895Y015240D02*
X012957Y015302D01*
X012957Y015425D01*
X012895Y015487D01*
X012834Y015487D01*
X012772Y015425D01*
X012772Y015364D01*
X012772Y015425D02*
X012710Y015487D01*
X012649Y015487D01*
X012587Y015425D01*
X012587Y015302D01*
X012649Y015240D01*
X012587Y015609D02*
X012834Y015609D01*
X012957Y015732D01*
X012834Y015855D01*
X012587Y015855D01*
X013571Y015610D02*
X013571Y015424D01*
X013941Y015424D01*
X013941Y015610D01*
X013880Y015671D01*
X013633Y015671D01*
X013571Y015610D01*
X013571Y015303D02*
X013941Y015303D01*
X013571Y015056D01*
X013941Y015056D01*
X013880Y014935D02*
X013756Y014935D01*
X013756Y014811D01*
X013633Y014688D02*
X013571Y014750D01*
X013571Y014873D01*
X013633Y014935D01*
X013880Y014935D02*
X013941Y014873D01*
X013941Y014750D01*
X013880Y014688D01*
X013633Y014688D01*
X014654Y014750D02*
X014715Y014688D01*
X014777Y014688D01*
X014839Y014750D01*
X014839Y014873D01*
X014901Y014935D01*
X014962Y014935D01*
X015024Y014873D01*
X015024Y014750D01*
X014962Y014688D01*
X014654Y014750D02*
X014654Y014873D01*
X014715Y014935D01*
X014654Y015056D02*
X014654Y015241D01*
X014715Y015303D01*
X014962Y015303D01*
X015024Y015241D01*
X015024Y015056D01*
X014654Y015056D01*
X014777Y015424D02*
X014654Y015548D01*
X014777Y015671D01*
X015024Y015671D01*
X014839Y015671D02*
X014839Y015424D01*
X014777Y015424D02*
X015024Y015424D01*
X015540Y015424D02*
X015910Y015424D01*
X015910Y015671D01*
X015848Y015303D02*
X015910Y015241D01*
X015910Y015118D01*
X015848Y015056D01*
X015601Y015056D01*
X015540Y015118D01*
X015540Y015241D01*
X015601Y015303D01*
X015601Y014935D02*
X015540Y014873D01*
X015540Y014750D01*
X015601Y014688D01*
X015663Y014688D01*
X015725Y014750D01*
X015725Y014873D01*
X015786Y014935D01*
X015848Y014935D01*
X015910Y014873D01*
X015910Y014750D01*
X015848Y014688D01*
X016819Y016459D02*
X016943Y016583D01*
X016819Y016706D01*
X017189Y016706D01*
X017128Y016828D02*
X017189Y016890D01*
X017189Y017013D01*
X017128Y017075D01*
X017189Y017196D02*
X016819Y017196D01*
X016819Y017381D01*
X016881Y017443D01*
X017004Y017443D01*
X017066Y017381D01*
X017066Y017196D01*
X016881Y017075D02*
X016819Y017013D01*
X016819Y016890D01*
X016881Y016828D01*
X017128Y016828D01*
X017189Y016459D02*
X016819Y016459D01*
X016881Y017564D02*
X016819Y017626D01*
X016819Y017750D01*
X016881Y017811D01*
X016943Y017811D01*
X017004Y017750D01*
X017066Y017811D01*
X017128Y017811D01*
X017189Y017750D01*
X017189Y017626D01*
X017128Y017564D01*
X017004Y017688D02*
X017004Y017750D01*
X017004Y017933D02*
X017004Y018180D01*
X016881Y018301D02*
X016819Y018363D01*
X016819Y018486D01*
X016881Y018548D01*
X016943Y018548D01*
X017189Y018301D01*
X017189Y018548D01*
X017004Y018669D02*
X017004Y018916D01*
X016819Y018855D02*
X017004Y018669D01*
X017189Y018855D02*
X016819Y018855D01*
X016819Y018118D02*
X017004Y017933D01*
X017189Y018118D02*
X016819Y018118D01*
X020369Y018008D02*
X020616Y018008D01*
X020737Y018008D02*
X020984Y017637D01*
X020737Y017637D02*
X020984Y018008D01*
X020492Y018008D02*
X020492Y017637D01*
X020554Y016827D02*
X020369Y016827D01*
X020369Y016456D01*
X020554Y016456D01*
X020616Y016518D01*
X020616Y016765D01*
X020554Y016827D01*
X020737Y016765D02*
X020799Y016827D01*
X020922Y016827D01*
X020984Y016765D01*
X020737Y016518D01*
X020799Y016456D01*
X020922Y016456D01*
X020984Y016518D01*
X020984Y016765D01*
X020737Y016765D02*
X020737Y016518D01*
X021995Y016456D02*
X022180Y016456D01*
X022241Y016518D01*
X022241Y016765D01*
X022180Y016827D01*
X021995Y016827D01*
X021995Y016456D01*
X022363Y016456D02*
X022610Y016456D01*
X022486Y016456D02*
X022486Y016827D01*
X022363Y016703D01*
X022363Y017637D02*
X022610Y018008D01*
X022363Y018008D02*
X022610Y017637D01*
X022241Y017637D02*
X022118Y017761D01*
X022180Y017761D02*
X021995Y017761D01*
X021995Y017637D02*
X021995Y018008D01*
X022180Y018008D01*
X022241Y017946D01*
X022241Y017823D01*
X022180Y017761D01*
X022180Y018819D02*
X022241Y018880D01*
X022180Y018819D02*
X022056Y018819D01*
X021995Y018880D01*
X021995Y019127D01*
X022056Y019189D01*
X022180Y019189D01*
X022241Y019127D01*
X022363Y019189D02*
X022363Y018819D01*
X022610Y018819D01*
X021873Y018880D02*
X021811Y018819D01*
X021688Y018819D01*
X021626Y018880D01*
X021688Y019004D02*
X021811Y019004D01*
X021873Y018942D01*
X021873Y018880D01*
X021688Y019004D02*
X021626Y019065D01*
X021626Y019127D01*
X021688Y019189D01*
X021811Y019189D01*
X021873Y019127D01*
X021353Y019065D02*
X021353Y018819D01*
X021353Y019004D02*
X021106Y019004D01*
X021106Y019065D02*
X021229Y019189D01*
X021353Y019065D01*
X021106Y019065D02*
X021106Y018819D01*
X020984Y018880D02*
X020984Y019127D01*
X020922Y019189D01*
X020737Y019189D01*
X020737Y018819D01*
X020922Y018819D01*
X020984Y018880D01*
X020616Y018880D02*
X020554Y018819D01*
X020431Y018819D01*
X020369Y018880D01*
X020431Y019004D02*
X020369Y019065D01*
X020369Y019127D01*
X020431Y019189D01*
X020554Y019189D01*
X020616Y019127D01*
X020554Y019004D02*
X020616Y018942D01*
X020616Y018880D01*
X020554Y019004D02*
X020431Y019004D01*
X026668Y019065D02*
X026730Y019004D01*
X026853Y019004D01*
X026915Y018942D01*
X026915Y018880D01*
X026853Y018819D01*
X026730Y018819D01*
X026668Y018880D01*
X026668Y019065D02*
X026668Y019127D01*
X026730Y019189D01*
X026853Y019189D01*
X026915Y019127D01*
X027037Y019189D02*
X027222Y019189D01*
X027283Y019127D01*
X027283Y018880D01*
X027222Y018819D01*
X027037Y018819D01*
X027037Y019189D01*
X027405Y019065D02*
X027528Y019189D01*
X027652Y019065D01*
X027652Y018819D01*
X027652Y019004D02*
X027405Y019004D01*
X027405Y019065D02*
X027405Y018819D01*
X027925Y018880D02*
X027987Y018819D01*
X028111Y018819D01*
X028172Y018880D01*
X028172Y018942D01*
X028111Y019004D01*
X027987Y019004D01*
X027925Y019065D01*
X027925Y019127D01*
X027987Y019189D01*
X028111Y019189D01*
X028172Y019127D01*
X028294Y019127D02*
X028294Y018880D01*
X028356Y018819D01*
X028479Y018819D01*
X028541Y018880D01*
X028662Y018819D02*
X028909Y018819D01*
X028662Y018819D02*
X028662Y019189D01*
X028541Y019127D02*
X028479Y019189D01*
X028356Y019189D01*
X028294Y019127D01*
X028294Y018008D02*
X028479Y018008D01*
X028541Y017946D01*
X028541Y017823D01*
X028479Y017761D01*
X028294Y017761D01*
X028417Y017761D02*
X028541Y017637D01*
X028662Y017637D02*
X028909Y018008D01*
X028662Y018008D02*
X028909Y017637D01*
X028294Y017637D02*
X028294Y018008D01*
X027283Y018008D02*
X027037Y017637D01*
X026792Y017637D02*
X026792Y018008D01*
X026915Y018008D02*
X026668Y018008D01*
X027037Y018008D02*
X027283Y017637D01*
X027222Y016827D02*
X027098Y016827D01*
X027037Y016765D01*
X027037Y016518D01*
X027283Y016765D01*
X027283Y016518D01*
X027222Y016456D01*
X027098Y016456D01*
X027037Y016518D01*
X026915Y016518D02*
X026915Y016765D01*
X026853Y016827D01*
X026668Y016827D01*
X026668Y016456D01*
X026853Y016456D01*
X026915Y016518D01*
X027222Y016827D02*
X027283Y016765D01*
X028294Y016827D02*
X028294Y016456D01*
X028479Y016456D01*
X028541Y016518D01*
X028541Y016765D01*
X028479Y016827D01*
X028294Y016827D01*
X028662Y016703D02*
X028786Y016827D01*
X028786Y016456D01*
X028909Y016456D02*
X028662Y016456D01*
X032967Y016456D02*
X033153Y016456D01*
X033214Y016518D01*
X033214Y016765D01*
X033153Y016827D01*
X032967Y016827D01*
X032967Y016456D01*
X033336Y016518D02*
X033336Y016765D01*
X033397Y016827D01*
X033521Y016827D01*
X033583Y016765D01*
X033336Y016518D01*
X033397Y016456D01*
X033521Y016456D01*
X033583Y016518D01*
X033583Y016765D01*
X033583Y017637D02*
X033336Y018008D01*
X033214Y018008D02*
X032967Y018008D01*
X033091Y018008D02*
X033091Y017637D01*
X033336Y017637D02*
X033583Y018008D01*
X033521Y018819D02*
X033336Y018819D01*
X033336Y019189D01*
X033521Y019189D01*
X033583Y019127D01*
X033583Y018880D01*
X033521Y018819D01*
X033704Y018819D02*
X033704Y019065D01*
X033827Y019189D01*
X033951Y019065D01*
X033951Y018819D01*
X033951Y019004D02*
X033704Y019004D01*
X033214Y018942D02*
X033214Y018880D01*
X033153Y018819D01*
X033029Y018819D01*
X032967Y018880D01*
X033029Y019004D02*
X033153Y019004D01*
X033214Y018942D01*
X033214Y019127D02*
X033153Y019189D01*
X033029Y019189D01*
X032967Y019127D01*
X032967Y019065D01*
X033029Y019004D01*
X034225Y019065D02*
X034286Y019004D01*
X034410Y019004D01*
X034472Y018942D01*
X034472Y018880D01*
X034410Y018819D01*
X034286Y018819D01*
X034225Y018880D01*
X034225Y019065D02*
X034225Y019127D01*
X034286Y019189D01*
X034410Y019189D01*
X034472Y019127D01*
X034593Y019127D02*
X034593Y018880D01*
X034655Y018819D01*
X034778Y018819D01*
X034840Y018880D01*
X034961Y018819D02*
X035208Y018819D01*
X034961Y018819D02*
X034961Y019189D01*
X034840Y019127D02*
X034778Y019189D01*
X034655Y019189D01*
X034593Y019127D01*
X034593Y018008D02*
X034778Y018008D01*
X034840Y017946D01*
X034840Y017823D01*
X034778Y017761D01*
X034593Y017761D01*
X034716Y017761D02*
X034840Y017637D01*
X034961Y017637D02*
X035208Y018008D01*
X034961Y018008D02*
X035208Y017637D01*
X034593Y017637D02*
X034593Y018008D01*
X034593Y016827D02*
X034778Y016827D01*
X034840Y016765D01*
X034840Y016518D01*
X034778Y016456D01*
X034593Y016456D01*
X034593Y016827D01*
X034961Y016703D02*
X035085Y016827D01*
X035085Y016456D01*
X035208Y016456D02*
X034961Y016456D01*
D11*
X035231Y012144D02*
X035388Y011987D01*
X035428Y012026D01*
X035428Y012105D01*
X035388Y012144D01*
X035231Y012144D01*
X035192Y012105D01*
X035192Y012026D01*
X035231Y011987D01*
X035388Y011987D01*
X035388Y011908D02*
X035231Y011908D01*
X035192Y011869D01*
X035192Y011790D01*
X035231Y011751D01*
X035388Y011751D01*
X035428Y011790D01*
X035428Y011869D01*
X035388Y011908D01*
X035428Y011673D02*
X035428Y011594D01*
X035428Y011633D02*
X035192Y011633D01*
X035192Y011594D02*
X035192Y011673D01*
X035231Y011516D02*
X035310Y011516D01*
X035349Y011476D01*
X035349Y011358D01*
X035428Y011358D02*
X035192Y011358D01*
X035192Y011476D01*
X035231Y011516D01*
X035044Y011476D02*
X034808Y011476D01*
X034926Y011358D01*
X034926Y011516D01*
X034808Y011280D02*
X035044Y011280D01*
X035192Y011241D02*
X035192Y011162D01*
X035231Y011123D01*
X035388Y011123D01*
X035428Y011162D01*
X035428Y011241D01*
X035388Y011280D01*
X035310Y011280D01*
X035310Y011201D01*
X035231Y011280D02*
X035192Y011241D01*
X035044Y011123D02*
X034808Y011123D01*
X034886Y011201D01*
X034808Y011280D01*
X034547Y011555D02*
X034507Y011515D01*
X034547Y011555D02*
X034547Y011633D01*
X034507Y011673D01*
X034468Y011673D01*
X034429Y011633D01*
X034429Y011555D01*
X034389Y011515D01*
X034350Y011515D01*
X034311Y011555D01*
X034311Y011633D01*
X034350Y011673D01*
X034350Y011751D02*
X034507Y011751D01*
X034547Y011790D01*
X034547Y011869D01*
X034507Y011908D01*
X034468Y011987D02*
X034311Y012144D01*
X034311Y011987D02*
X034547Y011987D01*
X034429Y012026D02*
X034547Y012144D01*
X034350Y011908D02*
X034311Y011869D01*
X034311Y011790D01*
X034350Y011751D01*
X033940Y011722D02*
X033763Y011722D01*
X033852Y011634D01*
X033852Y011752D01*
X033759Y011829D02*
X033759Y011908D01*
X033720Y011947D01*
X033563Y011947D01*
X033523Y011908D01*
X033523Y011829D01*
X033563Y011790D01*
X033720Y011790D01*
X033759Y011829D01*
X033720Y011711D02*
X033759Y011672D01*
X033759Y011593D01*
X033720Y011554D01*
X033763Y011512D02*
X033940Y011512D01*
X033940Y011453D02*
X033940Y011571D01*
X033822Y011453D02*
X033763Y011512D01*
X033759Y011476D02*
X033759Y011397D01*
X033793Y011389D02*
X033763Y011360D01*
X033763Y011301D01*
X033793Y011271D01*
X033911Y011271D01*
X033940Y011301D01*
X033940Y011360D01*
X033911Y011389D01*
X033759Y011436D02*
X033523Y011436D01*
X033523Y011397D02*
X033523Y011476D01*
X033563Y011554D02*
X033602Y011554D01*
X033641Y011593D01*
X033641Y011672D01*
X033681Y011711D01*
X033720Y011711D01*
X033563Y011711D02*
X033523Y011672D01*
X033523Y011593D01*
X033563Y011554D01*
X033523Y011319D02*
X033759Y011319D01*
X033759Y011161D02*
X033523Y011161D01*
X033602Y011240D01*
X033523Y011319D01*
X032972Y011319D02*
X032736Y011319D01*
X032815Y011240D01*
X032736Y011161D01*
X032972Y011161D01*
X032933Y011397D02*
X032972Y011436D01*
X032972Y011515D01*
X032933Y011554D01*
X032775Y011554D01*
X032736Y011515D01*
X032736Y011436D01*
X032775Y011397D01*
X032933Y011397D01*
X032933Y011633D02*
X032972Y011672D01*
X032972Y011751D01*
X032933Y011790D01*
X032893Y011790D01*
X032854Y011751D01*
X032854Y011672D01*
X032815Y011633D01*
X032775Y011633D01*
X032736Y011672D01*
X032736Y011751D01*
X032775Y011790D01*
X032736Y011868D02*
X032736Y011947D01*
X032736Y011908D02*
X032972Y011908D01*
X032972Y011947D02*
X032972Y011868D01*
X032381Y011849D02*
X032381Y011691D01*
X032381Y011613D02*
X032381Y011534D01*
X032381Y011574D02*
X032145Y011574D01*
X032145Y011613D02*
X032145Y011534D01*
X032185Y011456D02*
X032145Y011417D01*
X032145Y011299D01*
X032381Y011299D01*
X032303Y011299D02*
X032303Y011417D01*
X032263Y011456D01*
X032185Y011456D01*
X032185Y011220D02*
X032145Y011181D01*
X032145Y011102D01*
X032185Y011063D01*
X032224Y011063D01*
X032263Y011102D01*
X032263Y011181D01*
X032303Y011220D01*
X032342Y011220D01*
X032381Y011181D01*
X032381Y011102D01*
X032342Y011063D01*
X031889Y011043D02*
X031889Y010964D01*
X031850Y010925D01*
X031771Y011003D02*
X031771Y011043D01*
X031811Y011082D01*
X031850Y011082D01*
X031889Y011043D01*
X031771Y011043D02*
X031732Y011082D01*
X031693Y011082D01*
X031653Y011043D01*
X031653Y010964D01*
X031693Y010925D01*
X031653Y011160D02*
X031811Y011160D01*
X031889Y011239D01*
X031811Y011318D01*
X031653Y011318D01*
X031693Y011396D02*
X031653Y011435D01*
X031653Y011514D01*
X031693Y011553D01*
X031732Y011553D01*
X031771Y011514D01*
X031811Y011553D01*
X031850Y011553D01*
X031889Y011514D01*
X031889Y011435D01*
X031850Y011396D01*
X031771Y011475D02*
X031771Y011514D01*
X032145Y011770D02*
X032381Y011770D01*
X032224Y011691D02*
X032145Y011770D01*
X029719Y011553D02*
X029719Y011396D01*
X029719Y011475D02*
X029483Y011475D01*
X029562Y011396D01*
X029522Y011318D02*
X029483Y011278D01*
X029483Y011200D01*
X029522Y011160D01*
X029680Y011160D01*
X029719Y011200D01*
X029719Y011278D01*
X029680Y011318D01*
X029522Y011318D01*
X029335Y011357D02*
X029335Y011278D01*
X029296Y011239D01*
X029296Y011161D02*
X029138Y011161D01*
X029099Y011121D01*
X029099Y011003D01*
X029335Y011003D01*
X029335Y011121D01*
X029296Y011161D01*
X029217Y011318D02*
X029217Y011357D01*
X029256Y011396D01*
X029296Y011396D01*
X029335Y011357D01*
X029217Y011357D02*
X029178Y011396D01*
X029138Y011396D01*
X029099Y011357D01*
X029099Y011278D01*
X029138Y011239D01*
X028932Y011278D02*
X028892Y011239D01*
X028932Y011278D02*
X028932Y011357D01*
X028892Y011396D01*
X028853Y011396D01*
X028814Y011357D01*
X028814Y011278D01*
X028774Y011239D01*
X028735Y011239D01*
X028695Y011278D01*
X028695Y011357D01*
X028735Y011396D01*
X028548Y011396D02*
X028548Y011553D01*
X028548Y011475D02*
X028312Y011475D01*
X028390Y011396D01*
X028312Y011318D02*
X028312Y011239D01*
X028312Y011278D02*
X028548Y011278D01*
X028548Y011239D02*
X028548Y011318D01*
X028430Y011161D02*
X028469Y011121D01*
X028469Y011003D01*
X028469Y010925D02*
X028508Y010925D01*
X028548Y010886D01*
X028548Y010807D01*
X028508Y010768D01*
X028430Y010807D02*
X028430Y010886D01*
X028469Y010925D01*
X028548Y011003D02*
X028312Y011003D01*
X028312Y011121D01*
X028351Y011161D01*
X028430Y011161D01*
X028351Y010925D02*
X028312Y010886D01*
X028312Y010807D01*
X028351Y010768D01*
X028390Y010768D01*
X028430Y010807D01*
X028695Y010768D02*
X028932Y010925D01*
X028695Y010925D01*
X028735Y011003D02*
X028774Y011003D01*
X028814Y011043D01*
X028814Y011121D01*
X028853Y011161D01*
X028892Y011161D01*
X028932Y011121D01*
X028932Y011043D01*
X028892Y011003D01*
X028735Y011003D02*
X028695Y011043D01*
X028695Y011121D01*
X028735Y011161D01*
X028695Y010768D02*
X028932Y010768D01*
X029099Y010807D02*
X029138Y010768D01*
X029296Y010768D01*
X029335Y010807D01*
X029335Y010886D01*
X029296Y010925D01*
X029138Y010925D01*
X029099Y010886D01*
X029099Y010807D01*
X029099Y010689D02*
X029335Y010689D01*
X029483Y010650D02*
X029483Y010571D01*
X029522Y010532D01*
X029680Y010532D01*
X029719Y010571D01*
X029719Y010650D01*
X029680Y010689D01*
X029601Y010689D01*
X029601Y010611D01*
X029522Y010689D02*
X029483Y010650D01*
X029483Y010768D02*
X029483Y010886D01*
X029522Y010925D01*
X029601Y010925D01*
X029640Y010886D01*
X029640Y010768D01*
X029719Y010768D02*
X029483Y010768D01*
X029483Y011003D02*
X029483Y011082D01*
X029483Y011043D02*
X029719Y011043D01*
X029719Y011082D02*
X029719Y011003D01*
X029335Y010532D02*
X029099Y010532D01*
X029178Y010611D01*
X029099Y010689D01*
X028719Y010431D02*
X028601Y010431D01*
X028601Y010342D01*
X028660Y010372D01*
X028689Y010372D01*
X028719Y010342D01*
X028719Y010283D01*
X028689Y010254D01*
X028630Y010254D01*
X028601Y010283D01*
X028537Y010254D02*
X028419Y010254D01*
X028478Y010254D02*
X028478Y010431D01*
X028419Y010372D01*
X028356Y010401D02*
X028327Y010431D01*
X028268Y010431D01*
X028238Y010401D01*
X028238Y010283D01*
X028268Y010254D01*
X028327Y010254D01*
X028356Y010283D01*
X028105Y010768D02*
X028144Y010807D01*
X028144Y010886D01*
X028105Y010925D01*
X028065Y010925D01*
X028026Y010886D01*
X028026Y010807D01*
X027987Y010768D01*
X027947Y010768D01*
X027908Y010807D01*
X027908Y010886D01*
X027947Y010925D01*
X027947Y011003D02*
X028105Y011003D01*
X028144Y011043D01*
X028144Y011121D01*
X028105Y011161D01*
X028144Y011239D02*
X027908Y011239D01*
X027947Y011161D02*
X027908Y011121D01*
X027908Y011043D01*
X027947Y011003D01*
X027760Y011003D02*
X027524Y011003D01*
X027524Y011121D01*
X027564Y011161D01*
X027642Y011161D01*
X027682Y011121D01*
X027682Y011003D01*
X027682Y010925D02*
X027721Y010925D01*
X027760Y010886D01*
X027760Y010807D01*
X027721Y010768D01*
X027642Y010807D02*
X027642Y010886D01*
X027682Y010925D01*
X027564Y010925D02*
X027524Y010886D01*
X027524Y010807D01*
X027564Y010768D01*
X027603Y010768D01*
X027642Y010807D01*
X027263Y010768D02*
X027027Y010768D01*
X027106Y010846D01*
X027027Y010925D01*
X027263Y010925D01*
X027263Y011003D02*
X027263Y011082D01*
X027263Y011043D02*
X027027Y011043D01*
X027027Y011082D02*
X027027Y011003D01*
X027067Y011160D02*
X027106Y011160D01*
X027145Y011200D01*
X027145Y011278D01*
X027185Y011318D01*
X027224Y011318D01*
X027263Y011278D01*
X027263Y011200D01*
X027224Y011160D01*
X027067Y011160D02*
X027027Y011200D01*
X027027Y011278D01*
X027067Y011318D01*
X027067Y011396D02*
X027224Y011396D01*
X027263Y011435D01*
X027263Y011514D01*
X027224Y011553D01*
X027067Y011553D01*
X027027Y011514D01*
X027027Y011435D01*
X027067Y011396D01*
X026673Y011417D02*
X026437Y011417D01*
X026515Y011338D01*
X026437Y011260D01*
X026673Y011260D01*
X026633Y011495D02*
X026673Y011535D01*
X026673Y011613D01*
X026633Y011653D01*
X026476Y011653D01*
X026437Y011613D01*
X026437Y011535D01*
X026476Y011495D01*
X026633Y011495D01*
X026633Y011731D02*
X026673Y011770D01*
X026673Y011849D01*
X026633Y011888D01*
X026594Y011888D01*
X026555Y011849D01*
X026555Y011770D01*
X026515Y011731D01*
X026476Y011731D01*
X026437Y011770D01*
X026437Y011849D01*
X026476Y011888D01*
X026437Y011967D02*
X026437Y012045D01*
X026437Y012006D02*
X026673Y012006D01*
X026673Y011967D02*
X026673Y012045D01*
X026082Y012046D02*
X026082Y011888D01*
X026082Y011810D02*
X026082Y011731D01*
X026082Y011770D02*
X025846Y011770D01*
X025846Y011731D02*
X025846Y011810D01*
X025925Y011888D02*
X025846Y011967D01*
X026082Y011967D01*
X025964Y011653D02*
X026003Y011613D01*
X026003Y011495D01*
X026003Y011417D02*
X026043Y011417D01*
X026082Y011378D01*
X026082Y011299D01*
X026043Y011260D01*
X025964Y011299D02*
X025964Y011378D01*
X026003Y011417D01*
X026082Y011495D02*
X025846Y011495D01*
X025846Y011613D01*
X025885Y011653D01*
X025964Y011653D01*
X025885Y011417D02*
X025846Y011378D01*
X025846Y011299D01*
X025885Y011260D01*
X025925Y011260D01*
X025964Y011299D01*
X025783Y011120D02*
X025724Y011120D01*
X025695Y011090D01*
X025695Y011061D01*
X025724Y011031D01*
X025813Y011031D01*
X025813Y010972D02*
X025813Y011090D01*
X025783Y011120D01*
X025813Y010972D02*
X025783Y010943D01*
X025724Y010943D01*
X025695Y010972D01*
X025631Y010943D02*
X025513Y010943D01*
X025572Y010943D02*
X025572Y011120D01*
X025513Y011061D01*
X025450Y011090D02*
X025450Y011031D01*
X025421Y011002D01*
X025332Y011002D01*
X025391Y011002D02*
X025450Y010943D01*
X025332Y010943D02*
X025332Y011120D01*
X025421Y011120D01*
X025450Y011090D01*
X025295Y011259D02*
X025255Y011220D01*
X025295Y011259D02*
X025295Y011338D01*
X025255Y011377D01*
X025216Y011377D01*
X025177Y011338D01*
X025177Y011299D01*
X025177Y011338D02*
X025137Y011377D01*
X025098Y011377D01*
X025059Y011338D01*
X025059Y011259D01*
X025098Y011220D01*
X025059Y011456D02*
X025216Y011456D01*
X025295Y011534D01*
X025216Y011613D01*
X025059Y011613D01*
X025098Y011691D02*
X025059Y011731D01*
X025059Y011809D01*
X025098Y011849D01*
X025137Y011849D01*
X025177Y011809D01*
X025216Y011849D01*
X025255Y011849D01*
X025295Y011809D01*
X025295Y011731D01*
X025255Y011691D01*
X025177Y011770D02*
X025177Y011809D01*
X024850Y011120D02*
X024880Y011090D01*
X024762Y010972D01*
X024791Y010943D01*
X024850Y010943D01*
X024880Y010972D01*
X024880Y011090D01*
X024850Y011120D02*
X024791Y011120D01*
X024762Y011090D01*
X024762Y010972D01*
X024699Y010943D02*
X024581Y010943D01*
X024640Y010943D02*
X024640Y011120D01*
X024581Y011061D01*
X024517Y011090D02*
X024488Y011120D01*
X024429Y011120D01*
X024399Y011090D01*
X024399Y010972D01*
X024429Y010943D01*
X024488Y010943D01*
X024517Y010972D01*
X023518Y011162D02*
X023518Y011241D01*
X023479Y011280D01*
X023400Y011280D01*
X023400Y011201D01*
X023321Y011123D02*
X023479Y011123D01*
X023518Y011162D01*
X023518Y011358D02*
X023282Y011358D01*
X023282Y011476D01*
X023321Y011516D01*
X023400Y011516D01*
X023440Y011476D01*
X023440Y011358D01*
X023321Y011280D02*
X023282Y011241D01*
X023282Y011162D01*
X023321Y011123D01*
X023134Y011123D02*
X022898Y011123D01*
X022977Y011201D01*
X022898Y011280D01*
X023134Y011280D01*
X023134Y011358D02*
X022977Y011516D01*
X022938Y011516D01*
X022898Y011476D01*
X022898Y011398D01*
X022938Y011358D01*
X023134Y011358D02*
X023134Y011516D01*
X023282Y011594D02*
X023282Y011673D01*
X023282Y011633D02*
X023518Y011633D01*
X023518Y011594D02*
X023518Y011673D01*
X023479Y011751D02*
X023518Y011790D01*
X023518Y011869D01*
X023479Y011908D01*
X023321Y011908D01*
X023282Y011869D01*
X023282Y011790D01*
X023321Y011751D01*
X023479Y011751D01*
X023518Y011987D02*
X023518Y012144D01*
X023518Y012065D02*
X023282Y012065D01*
X023361Y011987D01*
X022731Y012006D02*
X022731Y011927D01*
X022691Y011888D01*
X022534Y012046D01*
X022691Y012046D01*
X022731Y012006D01*
X022691Y011888D02*
X022534Y011888D01*
X022495Y011927D01*
X022495Y012006D01*
X022534Y012046D01*
X022534Y011810D02*
X022495Y011771D01*
X022495Y011692D01*
X022534Y011653D01*
X022691Y011653D01*
X022731Y011692D01*
X022731Y011771D01*
X022691Y011810D01*
X022534Y011810D01*
X022495Y011574D02*
X022495Y011495D01*
X022495Y011535D02*
X022731Y011535D01*
X022731Y011574D02*
X022731Y011495D01*
X022652Y011378D02*
X022652Y011260D01*
X022731Y011260D02*
X022495Y011260D01*
X022495Y011378D01*
X022534Y011417D01*
X022613Y011417D01*
X022652Y011378D01*
X022691Y011182D02*
X022613Y011182D01*
X022613Y011103D01*
X022643Y011021D02*
X022643Y010933D01*
X022702Y010962D01*
X022732Y010962D01*
X022761Y010933D01*
X022761Y010874D01*
X022732Y010844D01*
X022673Y010844D01*
X022643Y010874D01*
X022580Y010874D02*
X022551Y010844D01*
X022492Y010844D01*
X022462Y010874D01*
X022399Y010874D02*
X022369Y010844D01*
X022310Y010844D01*
X022281Y010874D01*
X022281Y010992D01*
X022310Y011021D01*
X022369Y011021D01*
X022399Y010992D01*
X022347Y011024D02*
X022111Y011024D01*
X022190Y011103D01*
X022111Y011182D01*
X022347Y011182D01*
X022347Y011260D02*
X022190Y011417D01*
X022150Y011417D01*
X022111Y011378D01*
X022111Y011299D01*
X022150Y011260D01*
X022347Y011260D02*
X022347Y011417D01*
X022534Y011182D02*
X022495Y011142D01*
X022495Y011064D01*
X022534Y011024D01*
X022691Y011024D01*
X022731Y011064D01*
X022731Y011142D01*
X022691Y011182D01*
X022643Y011021D02*
X022761Y011021D01*
X022580Y010992D02*
X022580Y010962D01*
X022551Y010933D01*
X022580Y010903D01*
X022580Y010874D01*
X022551Y010933D02*
X022521Y010933D01*
X022462Y010992D02*
X022492Y011021D01*
X022551Y011021D01*
X022580Y010992D01*
X021845Y011023D02*
X021806Y011062D01*
X021845Y011023D02*
X021845Y010944D01*
X021806Y010905D01*
X021648Y010905D01*
X021609Y010944D01*
X021609Y011023D01*
X021648Y011062D01*
X021609Y011141D02*
X021845Y011141D01*
X021766Y011141D02*
X021609Y011298D01*
X021461Y011298D02*
X021304Y011455D01*
X021264Y011455D01*
X021225Y011416D01*
X021225Y011337D01*
X021264Y011298D01*
X021225Y011219D02*
X021225Y011141D01*
X021225Y011180D02*
X021461Y011180D01*
X021461Y011141D02*
X021461Y011219D01*
X021461Y011298D02*
X021461Y011455D01*
X021727Y011180D02*
X021845Y011298D01*
X021806Y010827D02*
X021845Y010787D01*
X021845Y010709D01*
X021806Y010669D01*
X021727Y010709D02*
X021727Y010787D01*
X021766Y010827D01*
X021806Y010827D01*
X021727Y010709D02*
X021688Y010669D01*
X021648Y010669D01*
X021609Y010709D01*
X021609Y010787D01*
X021648Y010827D01*
X021461Y010787D02*
X021461Y010709D01*
X021422Y010669D01*
X021343Y010709D02*
X021343Y010787D01*
X021382Y010827D01*
X021422Y010827D01*
X021461Y010787D01*
X021461Y010905D02*
X021225Y010905D01*
X021225Y011023D01*
X021264Y011062D01*
X021343Y011062D01*
X021382Y011023D01*
X021382Y010905D01*
X021264Y010827D02*
X021225Y010787D01*
X021225Y010709D01*
X021264Y010669D01*
X021304Y010669D01*
X021343Y010709D01*
X021370Y010529D02*
X021399Y010500D01*
X021399Y010470D01*
X021370Y010441D01*
X021399Y010411D01*
X021399Y010382D01*
X021370Y010352D01*
X021311Y010352D01*
X021281Y010382D01*
X021218Y010382D02*
X021188Y010352D01*
X021129Y010352D01*
X021100Y010382D01*
X021100Y010500D01*
X021129Y010529D01*
X021188Y010529D01*
X021218Y010500D01*
X021281Y010500D02*
X021311Y010529D01*
X021370Y010529D01*
X021370Y010441D02*
X021340Y010441D01*
X021462Y010441D02*
X021551Y010441D01*
X021580Y010411D01*
X021580Y010382D01*
X021551Y010352D01*
X021492Y010352D01*
X021462Y010382D01*
X021462Y010441D01*
X021521Y010500D01*
X021580Y010529D01*
X021058Y010669D02*
X020821Y010669D01*
X020900Y010748D01*
X020821Y010827D01*
X021058Y010827D01*
X021058Y010905D02*
X021058Y010984D01*
X021058Y010944D02*
X020821Y010944D01*
X020821Y010905D02*
X020821Y010984D01*
X020861Y011062D02*
X020821Y011101D01*
X020821Y011180D01*
X020861Y011219D01*
X020861Y011298D02*
X021018Y011298D01*
X021058Y011337D01*
X021058Y011416D01*
X021018Y011455D01*
X020861Y011455D01*
X020821Y011416D01*
X020821Y011337D01*
X020861Y011298D01*
X020979Y011219D02*
X021018Y011219D01*
X021058Y011180D01*
X021058Y011101D01*
X021018Y011062D01*
X020940Y011101D02*
X020940Y011180D01*
X020979Y011219D01*
X020940Y011101D02*
X020900Y011062D01*
X020861Y011062D01*
X020674Y011141D02*
X020674Y011219D01*
X020674Y011180D02*
X020438Y011180D01*
X020438Y011141D02*
X020438Y011219D01*
X020477Y011298D02*
X020438Y011337D01*
X020438Y011416D01*
X020477Y011455D01*
X020516Y011455D01*
X020674Y011298D01*
X020674Y011455D01*
X020270Y011455D02*
X020270Y011376D01*
X020270Y011415D02*
X020034Y011415D01*
X020034Y011376D02*
X020034Y011455D01*
X019886Y011455D02*
X019886Y011298D01*
X019729Y011455D01*
X019690Y011455D01*
X019650Y011416D01*
X019650Y011337D01*
X019690Y011298D01*
X019650Y011219D02*
X019650Y011141D01*
X019650Y011180D02*
X019886Y011180D01*
X019886Y011141D02*
X019886Y011219D01*
X020034Y011180D02*
X020073Y011141D01*
X020113Y011141D01*
X020152Y011180D01*
X020152Y011259D01*
X020191Y011298D01*
X020231Y011298D01*
X020270Y011259D01*
X020270Y011180D01*
X020231Y011141D01*
X020231Y011062D02*
X020073Y011062D01*
X020034Y011023D01*
X020034Y010944D01*
X020073Y010905D01*
X020231Y010905D01*
X020270Y010944D01*
X020270Y011023D01*
X020231Y011062D01*
X020438Y011023D02*
X020477Y011062D01*
X020556Y011062D01*
X020595Y011023D01*
X020595Y010905D01*
X020595Y010827D02*
X020634Y010827D01*
X020674Y010787D01*
X020674Y010709D01*
X020634Y010669D01*
X020556Y010709D02*
X020556Y010787D01*
X020595Y010827D01*
X020674Y010905D02*
X020438Y010905D01*
X020438Y011023D01*
X020477Y010827D02*
X020438Y010787D01*
X020438Y010709D01*
X020477Y010669D01*
X020516Y010669D01*
X020556Y010709D01*
X020270Y010669D02*
X020034Y010669D01*
X020113Y010748D01*
X020034Y010827D01*
X020270Y010827D01*
X019886Y010787D02*
X019886Y010709D01*
X019847Y010669D01*
X019768Y010709D02*
X019768Y010787D01*
X019808Y010827D01*
X019847Y010827D01*
X019886Y010787D01*
X019886Y010905D02*
X019650Y010905D01*
X019650Y011023D01*
X019690Y011062D01*
X019768Y011062D01*
X019808Y011023D01*
X019808Y010905D01*
X019690Y010827D02*
X019650Y010787D01*
X019650Y010709D01*
X019690Y010669D01*
X019729Y010669D01*
X019768Y010709D01*
X019551Y010332D02*
X019581Y010303D01*
X019581Y010273D01*
X019551Y010244D01*
X019492Y010244D01*
X019463Y010273D01*
X019463Y010303D01*
X019492Y010332D01*
X019551Y010332D01*
X019551Y010244D02*
X019581Y010214D01*
X019581Y010185D01*
X019551Y010155D01*
X019492Y010155D01*
X019463Y010185D01*
X019463Y010214D01*
X019492Y010244D01*
X019399Y010303D02*
X019370Y010332D01*
X019311Y010332D01*
X019281Y010303D01*
X019281Y010185D01*
X019311Y010155D01*
X019370Y010155D01*
X019399Y010185D01*
X019252Y010826D02*
X019291Y010866D01*
X019291Y010944D01*
X019252Y010984D01*
X019212Y010984D01*
X019173Y010944D01*
X019173Y010905D01*
X019173Y010944D02*
X019133Y010984D01*
X019094Y010984D01*
X019055Y010944D01*
X019055Y010866D01*
X019094Y010826D01*
X019055Y011062D02*
X019212Y011062D01*
X019291Y011141D01*
X019212Y011219D01*
X019055Y011219D01*
X019094Y011298D02*
X019055Y011337D01*
X019055Y011416D01*
X019094Y011455D01*
X019133Y011455D01*
X019173Y011416D01*
X019212Y011455D01*
X019252Y011455D01*
X019291Y011416D01*
X019291Y011337D01*
X019252Y011298D01*
X019173Y011376D02*
X019173Y011416D01*
X020034Y011259D02*
X020034Y011180D01*
X020034Y011259D02*
X020073Y011298D01*
X017785Y011226D02*
X017785Y011108D01*
X017785Y011167D02*
X017608Y011167D01*
X017667Y011108D01*
X017667Y011045D02*
X017637Y011045D01*
X017608Y011016D01*
X017608Y010957D01*
X017637Y010927D01*
X017637Y010864D02*
X017608Y010834D01*
X017608Y010775D01*
X017637Y010746D01*
X017755Y010746D01*
X017785Y010775D01*
X017785Y010834D01*
X017755Y010864D01*
X017785Y010927D02*
X017667Y011045D01*
X017785Y011045D02*
X017785Y010927D01*
X017391Y010927D02*
X017391Y011045D01*
X017391Y010986D02*
X017214Y010986D01*
X017273Y010927D01*
X017244Y010864D02*
X017214Y010834D01*
X017214Y010775D01*
X017244Y010746D01*
X017362Y010746D01*
X017391Y010775D01*
X017391Y010834D01*
X017362Y010864D01*
X017362Y011108D02*
X017391Y011138D01*
X017391Y011197D01*
X017362Y011226D01*
X017332Y011226D01*
X017303Y011197D01*
X017303Y011167D01*
X017303Y011197D02*
X017273Y011226D01*
X017244Y011226D01*
X017214Y011197D01*
X017214Y011138D01*
X017244Y011108D01*
X017121Y011082D02*
X017121Y011003D01*
X017121Y011043D02*
X016884Y011043D01*
X016884Y011082D02*
X016884Y011003D01*
X016924Y010925D02*
X017003Y010925D01*
X017042Y010886D01*
X017042Y010768D01*
X017121Y010768D02*
X016884Y010768D01*
X016884Y010886D01*
X016924Y010925D01*
X016737Y010886D02*
X016697Y010925D01*
X016540Y010925D01*
X016501Y010886D01*
X016501Y010807D01*
X016540Y010768D01*
X016697Y010768D01*
X016737Y010807D01*
X016737Y010886D01*
X016737Y011003D02*
X016737Y011121D01*
X016697Y011161D01*
X016540Y011161D01*
X016501Y011121D01*
X016501Y011003D01*
X016737Y011003D01*
X016737Y011239D02*
X016737Y011396D01*
X016737Y011318D02*
X016501Y011318D01*
X016579Y011239D01*
X016333Y011278D02*
X016294Y011239D01*
X016333Y011278D02*
X016333Y011357D01*
X016294Y011396D01*
X016254Y011396D01*
X016215Y011357D01*
X016215Y011278D01*
X016176Y011239D01*
X016136Y011239D01*
X016097Y011278D01*
X016097Y011357D01*
X016136Y011396D01*
X015949Y011396D02*
X015792Y011553D01*
X015753Y011553D01*
X015713Y011514D01*
X015713Y011435D01*
X015753Y011396D01*
X015713Y011318D02*
X015713Y011239D01*
X015713Y011278D02*
X015949Y011278D01*
X015949Y011239D02*
X015949Y011318D01*
X015949Y011396D02*
X015949Y011553D01*
X015831Y011161D02*
X015871Y011121D01*
X015871Y011003D01*
X015871Y010925D02*
X015910Y010925D01*
X015949Y010886D01*
X015949Y010807D01*
X015910Y010768D01*
X015831Y010807D02*
X015831Y010886D01*
X015871Y010925D01*
X015949Y011003D02*
X015713Y011003D01*
X015713Y011121D01*
X015753Y011161D01*
X015831Y011161D01*
X015753Y010925D02*
X015713Y010886D01*
X015713Y010807D01*
X015753Y010768D01*
X015792Y010768D01*
X015831Y010807D01*
X016097Y010768D02*
X016333Y010925D01*
X016097Y010925D01*
X016136Y011003D02*
X016176Y011003D01*
X016215Y011043D01*
X016215Y011121D01*
X016254Y011161D01*
X016294Y011161D01*
X016333Y011121D01*
X016333Y011043D01*
X016294Y011003D01*
X016136Y011003D02*
X016097Y011043D01*
X016097Y011121D01*
X016136Y011161D01*
X016097Y010768D02*
X016333Y010768D01*
X016501Y010689D02*
X016737Y010689D01*
X016884Y010650D02*
X016884Y010571D01*
X016924Y010532D01*
X017081Y010532D01*
X017121Y010571D01*
X017121Y010650D01*
X017081Y010689D01*
X017003Y010689D01*
X017003Y010611D01*
X016924Y010689D02*
X016884Y010650D01*
X016737Y010532D02*
X016501Y010532D01*
X016579Y010611D01*
X016501Y010689D01*
X016924Y011160D02*
X017081Y011160D01*
X017121Y011200D01*
X017121Y011278D01*
X017081Y011318D01*
X016924Y011318D01*
X016884Y011278D01*
X016884Y011200D01*
X016924Y011160D01*
X016963Y011396D02*
X016884Y011475D01*
X017121Y011475D01*
X017121Y011553D02*
X017121Y011396D01*
X015546Y011396D02*
X015428Y011278D01*
X015467Y011239D02*
X015310Y011396D01*
X015162Y011396D02*
X015005Y011553D01*
X014965Y011553D01*
X014926Y011514D01*
X014926Y011435D01*
X014965Y011396D01*
X014926Y011318D02*
X014926Y011239D01*
X014926Y011278D02*
X015162Y011278D01*
X015162Y011239D02*
X015162Y011318D01*
X015162Y011396D02*
X015162Y011553D01*
X015310Y011239D02*
X015546Y011239D01*
X015506Y011161D02*
X015546Y011121D01*
X015546Y011043D01*
X015506Y011003D01*
X015349Y011003D01*
X015310Y011043D01*
X015310Y011121D01*
X015349Y011161D01*
X015349Y010925D02*
X015310Y010886D01*
X015310Y010807D01*
X015349Y010768D01*
X015388Y010768D01*
X015428Y010807D01*
X015428Y010886D01*
X015467Y010925D01*
X015506Y010925D01*
X015546Y010886D01*
X015546Y010807D01*
X015506Y010768D01*
X015162Y010807D02*
X015123Y010768D01*
X015162Y010807D02*
X015162Y010886D01*
X015123Y010925D01*
X015083Y010925D01*
X015044Y010886D01*
X015044Y010807D01*
X015005Y010768D01*
X014965Y010768D01*
X014926Y010807D01*
X014926Y010886D01*
X014965Y010925D01*
X014926Y011003D02*
X015162Y011003D01*
X015083Y011003D02*
X015083Y011121D01*
X015044Y011161D01*
X014965Y011161D01*
X014926Y011121D01*
X014926Y011003D01*
X014758Y011003D02*
X014758Y011082D01*
X014758Y011043D02*
X014522Y011043D01*
X014522Y011082D02*
X014522Y011003D01*
X014522Y010925D02*
X014758Y010925D01*
X014758Y010768D02*
X014522Y010768D01*
X014601Y010846D01*
X014522Y010925D01*
X014375Y010886D02*
X014375Y010807D01*
X014335Y010768D01*
X014256Y010807D02*
X014256Y010886D01*
X014296Y010925D01*
X014335Y010925D01*
X014375Y010886D01*
X014375Y011003D02*
X014138Y011003D01*
X014138Y011121D01*
X014178Y011161D01*
X014256Y011161D01*
X014296Y011121D01*
X014296Y011003D01*
X014178Y010925D02*
X014138Y010886D01*
X014138Y010807D01*
X014178Y010768D01*
X014217Y010768D01*
X014256Y010807D01*
X013971Y010768D02*
X013735Y010768D01*
X013814Y010846D01*
X013735Y010925D01*
X013971Y010925D01*
X013932Y011003D02*
X013971Y011043D01*
X013971Y011121D01*
X013932Y011161D01*
X013774Y011161D01*
X013735Y011121D01*
X013735Y011043D01*
X013774Y011003D01*
X013932Y011003D01*
X013932Y011239D02*
X013971Y011278D01*
X013971Y011357D01*
X013932Y011396D01*
X013892Y011396D01*
X013853Y011357D01*
X013853Y011278D01*
X013814Y011239D01*
X013774Y011239D01*
X013735Y011278D01*
X013735Y011357D01*
X013774Y011396D01*
X013735Y011475D02*
X013735Y011553D01*
X013735Y011514D02*
X013971Y011514D01*
X013971Y011475D02*
X013971Y011553D01*
X014138Y011514D02*
X014138Y011435D01*
X014178Y011396D01*
X014138Y011318D02*
X014138Y011239D01*
X014138Y011278D02*
X014375Y011278D01*
X014375Y011239D02*
X014375Y011318D01*
X014375Y011396D02*
X014217Y011553D01*
X014178Y011553D01*
X014138Y011514D01*
X014375Y011553D02*
X014375Y011396D01*
X014522Y011435D02*
X014562Y011396D01*
X014719Y011396D01*
X014758Y011435D01*
X014758Y011514D01*
X014719Y011553D01*
X014562Y011553D01*
X014522Y011514D01*
X014522Y011435D01*
X014562Y011318D02*
X014522Y011278D01*
X014522Y011200D01*
X014562Y011160D01*
X014601Y011160D01*
X014640Y011200D01*
X014640Y011278D01*
X014680Y011318D01*
X014719Y011318D01*
X014758Y011278D01*
X014758Y011200D01*
X014719Y011160D01*
X013587Y011239D02*
X013587Y011318D01*
X013587Y011278D02*
X013351Y011278D01*
X013351Y011239D02*
X013351Y011318D01*
X013390Y011396D02*
X013351Y011435D01*
X013351Y011514D01*
X013390Y011553D01*
X013430Y011553D01*
X013587Y011396D01*
X013587Y011553D01*
X013469Y011161D02*
X013508Y011121D01*
X013508Y011003D01*
X013508Y010925D02*
X013548Y010925D01*
X013587Y010886D01*
X013587Y010807D01*
X013548Y010768D01*
X013469Y010807D02*
X013469Y010886D01*
X013508Y010925D01*
X013587Y011003D02*
X013351Y011003D01*
X013351Y011121D01*
X013390Y011161D01*
X013469Y011161D01*
X013390Y010925D02*
X013351Y010886D01*
X013351Y010807D01*
X013390Y010768D01*
X013430Y010768D01*
X013469Y010807D01*
X012992Y010964D02*
X012952Y010925D01*
X012992Y010964D02*
X012992Y011043D01*
X012952Y011082D01*
X012913Y011082D01*
X012874Y011043D01*
X012874Y011003D01*
X012874Y011043D02*
X012834Y011082D01*
X012795Y011082D01*
X012756Y011043D01*
X012756Y010964D01*
X012795Y010925D01*
X012756Y011160D02*
X012913Y011160D01*
X012992Y011239D01*
X012913Y011318D01*
X012756Y011318D01*
X012795Y011396D02*
X012756Y011435D01*
X012756Y011514D01*
X012795Y011553D01*
X012834Y011553D01*
X012874Y011514D01*
X012913Y011553D01*
X012952Y011553D01*
X012992Y011514D01*
X012992Y011435D01*
X012952Y011396D01*
X012874Y011475D02*
X012874Y011514D01*
X012889Y010529D02*
X012830Y010529D01*
X012801Y010500D01*
X012889Y010529D02*
X012919Y010500D01*
X012919Y010470D01*
X012801Y010352D01*
X012919Y010352D01*
X012738Y010352D02*
X012620Y010352D01*
X012679Y010352D02*
X012679Y010529D01*
X012620Y010470D01*
X012556Y010500D02*
X012527Y010529D01*
X012468Y010529D01*
X012438Y010500D01*
X012438Y010382D01*
X012468Y010352D01*
X012527Y010352D01*
X012556Y010382D01*
X012527Y010135D02*
X012468Y010135D01*
X012438Y010106D01*
X012438Y009988D01*
X012468Y009958D01*
X012527Y009958D01*
X012556Y009988D01*
X012620Y009958D02*
X012738Y009958D01*
X012679Y009958D02*
X012679Y010135D01*
X012620Y010076D01*
X012556Y010106D02*
X012527Y010135D01*
X012801Y010076D02*
X012860Y010135D01*
X012860Y009958D01*
X012801Y009958D02*
X012919Y009958D01*
X011608Y010844D02*
X011490Y010844D01*
X011608Y010962D01*
X011608Y010992D01*
X011579Y011021D01*
X011520Y011021D01*
X011490Y010992D01*
X011427Y010992D02*
X011397Y011021D01*
X011309Y011021D01*
X011309Y010844D01*
X011397Y010844D01*
X011427Y010874D01*
X011427Y010992D01*
X010919Y011041D02*
X010801Y011041D01*
X010860Y011041D02*
X010860Y011218D01*
X010801Y011159D01*
X010738Y011189D02*
X010708Y011218D01*
X010649Y011218D01*
X010620Y011189D01*
X010620Y011071D01*
X010649Y011041D01*
X010708Y011041D01*
X010738Y011071D01*
X009813Y010947D02*
X009813Y010829D01*
X009695Y010947D01*
X009665Y010947D01*
X009636Y010917D01*
X009636Y010858D01*
X009665Y010829D01*
X009665Y010765D02*
X009636Y010736D01*
X009636Y010677D01*
X009665Y010647D01*
X009783Y010647D01*
X009813Y010677D01*
X009813Y010736D01*
X009783Y010765D01*
X009246Y010696D02*
X009246Y010667D01*
X009216Y010637D01*
X009246Y010608D01*
X009246Y010578D01*
X009216Y010549D01*
X009157Y010549D01*
X009128Y010578D01*
X009065Y010578D02*
X009065Y010696D01*
X009035Y010726D01*
X008947Y010726D01*
X008947Y010549D01*
X009035Y010549D01*
X009065Y010578D01*
X009128Y010696D02*
X009157Y010726D01*
X009216Y010726D01*
X009246Y010696D01*
X009216Y010637D02*
X009187Y010637D01*
X008927Y009947D02*
X008927Y009829D01*
X008927Y009888D02*
X008750Y009888D01*
X008809Y009829D01*
X008809Y009766D02*
X008779Y009766D01*
X008750Y009736D01*
X008750Y009677D01*
X008779Y009648D01*
X008779Y009584D02*
X008838Y009584D01*
X008868Y009555D01*
X008868Y009466D01*
X008927Y009466D02*
X008750Y009466D01*
X008750Y009555D01*
X008779Y009584D01*
X008868Y009525D02*
X008927Y009584D01*
X008927Y009648D02*
X008809Y009766D01*
X008927Y009766D02*
X008927Y009648D01*
X007870Y010844D02*
X007870Y011021D01*
X007781Y010933D01*
X007899Y010933D01*
X007718Y010992D02*
X007688Y011021D01*
X007600Y011021D01*
X007600Y010844D01*
X007688Y010844D01*
X007718Y010874D01*
X007718Y010992D01*
X007797Y012025D02*
X007915Y012025D01*
X007978Y012025D02*
X008096Y012025D01*
X008037Y012025D02*
X008037Y012202D01*
X007978Y012143D01*
X007915Y012173D02*
X007797Y012055D01*
X007797Y012025D01*
X007797Y012202D02*
X007915Y012202D01*
X007915Y012173D01*
X007911Y012419D02*
X007911Y012596D01*
X007999Y012596D01*
X008029Y012567D01*
X008029Y012508D01*
X007999Y012478D01*
X007911Y012478D01*
X007970Y012478D02*
X008029Y012419D01*
X008092Y012419D02*
X008210Y012537D01*
X008210Y012567D01*
X008181Y012596D01*
X008122Y012596D01*
X008092Y012567D01*
X008092Y012419D02*
X008210Y012419D01*
X008273Y012449D02*
X008303Y012419D01*
X008362Y012419D01*
X008391Y012449D01*
X008391Y012478D01*
X008362Y012508D01*
X008332Y012508D01*
X008362Y012508D02*
X008391Y012537D01*
X008391Y012567D01*
X008362Y012596D01*
X008303Y012596D01*
X008273Y012567D01*
X008067Y012911D02*
X008096Y012941D01*
X008096Y013059D01*
X008067Y013088D01*
X008008Y013088D01*
X007978Y013059D01*
X007978Y013029D01*
X008008Y013000D01*
X008096Y013000D01*
X008067Y012911D02*
X008008Y012911D01*
X007978Y012941D01*
X007915Y012911D02*
X007856Y012970D01*
X007885Y012970D02*
X007797Y012970D01*
X007797Y012911D02*
X007797Y013088D01*
X007885Y013088D01*
X007915Y013059D01*
X007915Y013000D01*
X007885Y012970D01*
X007856Y013403D02*
X007856Y013580D01*
X007797Y013521D01*
X007734Y013492D02*
X007704Y013462D01*
X007616Y013462D01*
X007675Y013462D02*
X007734Y013403D01*
X007797Y013403D02*
X007915Y013403D01*
X007978Y013433D02*
X008008Y013403D01*
X008067Y013403D01*
X008096Y013433D01*
X008096Y013551D01*
X007978Y013433D01*
X007978Y013551D01*
X008008Y013580D01*
X008067Y013580D01*
X008096Y013551D01*
X007734Y013551D02*
X007734Y013492D01*
X007734Y013551D02*
X007704Y013580D01*
X007616Y013580D01*
X007616Y013403D01*
X007667Y013895D02*
X007785Y013895D01*
X007848Y013895D02*
X007966Y014013D01*
X007966Y014043D01*
X007937Y014072D01*
X007878Y014072D01*
X007848Y014043D01*
X007785Y014043D02*
X007667Y013925D01*
X007667Y013895D01*
X007667Y014072D02*
X007785Y014072D01*
X007785Y014043D01*
X007848Y013895D02*
X007966Y013895D01*
X008651Y014417D02*
X008681Y014388D01*
X008740Y014388D01*
X008769Y014417D01*
X008769Y014447D01*
X008740Y014476D01*
X008681Y014476D01*
X008651Y014506D01*
X008651Y014535D01*
X008681Y014565D01*
X008740Y014565D01*
X008769Y014535D01*
X008833Y014565D02*
X008833Y014476D01*
X008892Y014506D01*
X008921Y014506D01*
X008951Y014476D01*
X008951Y014417D01*
X008921Y014388D01*
X008862Y014388D01*
X008833Y014417D01*
X008833Y014565D02*
X008951Y014565D01*
X008947Y014683D02*
X008947Y014860D01*
X009035Y014860D01*
X009065Y014830D01*
X009065Y014771D01*
X009035Y014742D01*
X008947Y014742D01*
X009006Y014742D02*
X009065Y014683D01*
X009128Y014683D02*
X009246Y014683D01*
X009187Y014683D02*
X009187Y014860D01*
X009128Y014801D01*
X009309Y014771D02*
X009398Y014771D01*
X009427Y014742D01*
X009427Y014712D01*
X009398Y014683D01*
X009339Y014683D01*
X009309Y014712D01*
X009309Y014771D01*
X009368Y014830D01*
X009427Y014860D01*
X009398Y015667D02*
X009339Y015667D01*
X009309Y015697D01*
X009427Y015815D01*
X009427Y015697D01*
X009398Y015667D01*
X009309Y015697D02*
X009309Y015815D01*
X009339Y015844D01*
X009398Y015844D01*
X009427Y015815D01*
X009246Y015815D02*
X009246Y015785D01*
X009216Y015756D01*
X009246Y015726D01*
X009246Y015697D01*
X009216Y015667D01*
X009157Y015667D01*
X009128Y015697D01*
X009065Y015697D02*
X009035Y015667D01*
X008976Y015667D01*
X008947Y015697D01*
X008947Y015815D01*
X008976Y015844D01*
X009035Y015844D01*
X009065Y015815D01*
X009128Y015815D02*
X009157Y015844D01*
X009216Y015844D01*
X009246Y015815D01*
X009216Y015756D02*
X009187Y015756D01*
X011013Y016206D02*
X011013Y016294D01*
X011043Y016324D01*
X011102Y016324D01*
X011131Y016294D01*
X011131Y016206D01*
X011131Y016265D02*
X011190Y016324D01*
X011190Y016387D02*
X011072Y016505D01*
X011043Y016505D01*
X011013Y016476D01*
X011013Y016417D01*
X011043Y016387D01*
X011190Y016387D02*
X011190Y016505D01*
X011102Y016569D02*
X011102Y016687D01*
X011190Y016657D02*
X011013Y016657D01*
X011102Y016569D01*
X011190Y016206D02*
X011013Y016206D01*
X012588Y017271D02*
X012618Y017242D01*
X012736Y017242D01*
X012765Y017271D01*
X012765Y017330D01*
X012736Y017360D01*
X012765Y017423D02*
X012647Y017541D01*
X012618Y017541D01*
X012588Y017512D01*
X012588Y017453D01*
X012618Y017423D01*
X012618Y017360D02*
X012588Y017330D01*
X012588Y017271D01*
X012765Y017423D02*
X012765Y017541D01*
X012677Y017604D02*
X012677Y017722D01*
X012765Y017693D02*
X012588Y017693D01*
X012677Y017604D01*
X013179Y017634D02*
X013179Y017693D01*
X013208Y017722D01*
X013238Y017722D01*
X013267Y017693D01*
X013297Y017722D01*
X013326Y017722D01*
X013356Y017693D01*
X013356Y017634D01*
X013326Y017604D01*
X013356Y017541D02*
X013356Y017423D01*
X013238Y017541D01*
X013208Y017541D01*
X013179Y017512D01*
X013179Y017453D01*
X013208Y017423D01*
X013208Y017360D02*
X013179Y017330D01*
X013179Y017271D01*
X013208Y017242D01*
X013326Y017242D01*
X013356Y017271D01*
X013356Y017330D01*
X013326Y017360D01*
X013208Y017604D02*
X013179Y017634D01*
X013267Y017663D02*
X013267Y017693D01*
X011289Y018354D02*
X011259Y018325D01*
X011141Y018325D01*
X011112Y018354D01*
X011112Y018413D01*
X011141Y018443D01*
X011141Y018506D02*
X011112Y018535D01*
X011112Y018594D01*
X011141Y018624D01*
X011171Y018624D01*
X011200Y018594D01*
X011230Y018624D01*
X011259Y018624D01*
X011289Y018594D01*
X011289Y018535D01*
X011259Y018506D01*
X011259Y018443D02*
X011289Y018413D01*
X011289Y018354D01*
X011200Y018565D02*
X011200Y018594D01*
X011200Y018687D02*
X011200Y018805D01*
X011112Y018776D02*
X011200Y018687D01*
X011289Y018776D02*
X011112Y018776D01*
X010994Y018765D02*
X010817Y018765D01*
X010817Y018854D01*
X010846Y018883D01*
X010905Y018883D01*
X010935Y018854D01*
X010935Y018765D01*
X010935Y018824D02*
X010994Y018883D01*
X010994Y018946D02*
X010994Y019064D01*
X010994Y019005D02*
X010817Y019005D01*
X010876Y018946D01*
X010817Y019128D02*
X010817Y019246D01*
X010846Y019246D01*
X010964Y019128D01*
X010994Y019128D01*
X010767Y019734D02*
X010797Y019763D01*
X010797Y019822D01*
X010767Y019852D01*
X010767Y019915D02*
X010797Y019944D01*
X010797Y020003D01*
X010767Y020033D01*
X010738Y020033D01*
X010708Y020003D01*
X010708Y019974D01*
X010708Y020003D02*
X010679Y020033D01*
X010649Y020033D01*
X010620Y020003D01*
X010620Y019944D01*
X010649Y019915D01*
X010649Y019852D02*
X010620Y019822D01*
X010620Y019763D01*
X010649Y019734D01*
X010767Y019734D01*
X010206Y019734D02*
X010206Y019852D01*
X010206Y019793D02*
X010029Y019793D01*
X010088Y019734D01*
X010059Y019670D02*
X010118Y019670D01*
X010147Y019641D01*
X010147Y019552D01*
X010206Y019552D02*
X010029Y019552D01*
X010029Y019641D01*
X010059Y019670D01*
X010147Y019611D02*
X010206Y019670D01*
X010177Y019915D02*
X010147Y019915D01*
X010118Y019944D01*
X010118Y020003D01*
X010147Y020033D01*
X010177Y020033D01*
X010206Y020003D01*
X010206Y019944D01*
X010177Y019915D01*
X010118Y019944D02*
X010088Y019915D01*
X010059Y019915D01*
X010029Y019944D01*
X010029Y020003D01*
X010059Y020033D01*
X010088Y020033D01*
X010118Y020003D01*
X009320Y019905D02*
X009143Y019905D01*
X009232Y019817D01*
X009232Y019935D01*
X009232Y019753D02*
X009261Y019724D01*
X009261Y019635D01*
X009261Y019694D02*
X009320Y019753D01*
X009232Y019753D02*
X009173Y019753D01*
X009143Y019724D01*
X009143Y019635D01*
X009320Y019635D01*
X008927Y019635D02*
X008809Y019753D01*
X008779Y019753D01*
X008750Y019724D01*
X008750Y019665D01*
X008779Y019635D01*
X008779Y019572D02*
X008838Y019572D01*
X008868Y019543D01*
X008868Y019454D01*
X008927Y019454D02*
X008750Y019454D01*
X008750Y019543D01*
X008779Y019572D01*
X008868Y019513D02*
X008927Y019572D01*
X008927Y019635D02*
X008927Y019753D01*
X008897Y019817D02*
X008779Y019935D01*
X008897Y019935D01*
X008927Y019905D01*
X008927Y019846D01*
X008897Y019817D01*
X008779Y019817D01*
X008750Y019846D01*
X008750Y019905D01*
X008779Y019935D01*
X007990Y019683D02*
X007990Y019506D01*
X007931Y019506D02*
X008049Y019506D01*
X007931Y019624D02*
X007990Y019683D01*
X007868Y019653D02*
X007838Y019683D01*
X007779Y019683D01*
X007750Y019653D01*
X007687Y019653D02*
X007657Y019683D01*
X007598Y019683D01*
X007569Y019653D01*
X007569Y019535D01*
X007598Y019506D01*
X007657Y019506D01*
X007687Y019535D01*
X007750Y019535D02*
X007779Y019506D01*
X007838Y019506D01*
X007868Y019535D01*
X007868Y019565D01*
X007838Y019594D01*
X007809Y019594D01*
X007838Y019594D02*
X007868Y019624D01*
X007868Y019653D01*
X007809Y019191D02*
X007809Y019014D01*
X007750Y019014D02*
X007868Y019014D01*
X007931Y019043D02*
X007961Y019014D01*
X008020Y019014D01*
X008049Y019043D01*
X008049Y019102D01*
X008020Y019132D01*
X007990Y019132D01*
X007931Y019102D01*
X007931Y019191D01*
X008049Y019191D01*
X007809Y019191D02*
X007750Y019132D01*
X007687Y019161D02*
X007687Y019102D01*
X007657Y019073D01*
X007569Y019073D01*
X007628Y019073D02*
X007687Y019014D01*
X007569Y019014D02*
X007569Y019191D01*
X007657Y019191D01*
X007687Y019161D01*
X010128Y021769D02*
X010128Y021858D01*
X010157Y021887D01*
X010216Y021887D01*
X010246Y021858D01*
X010246Y021769D01*
X010305Y021769D02*
X010128Y021769D01*
X010246Y021828D02*
X010305Y021887D01*
X010305Y021951D02*
X010187Y022069D01*
X010157Y022069D01*
X010128Y022039D01*
X010128Y021980D01*
X010157Y021951D01*
X010305Y021951D02*
X010305Y022069D01*
X010009Y022754D02*
X009832Y022754D01*
X009832Y022842D01*
X009862Y022872D01*
X009921Y022872D01*
X009950Y022842D01*
X009950Y022754D01*
X009950Y022813D02*
X010009Y022872D01*
X009980Y022935D02*
X010009Y022964D01*
X010009Y023023D01*
X009980Y023053D01*
X009950Y023053D01*
X009921Y023023D01*
X009921Y022935D01*
X009980Y022935D01*
X009921Y022935D02*
X009862Y022994D01*
X009832Y023053D01*
X008883Y023177D02*
X008854Y023147D01*
X008795Y023147D01*
X008765Y023177D01*
X008765Y023236D02*
X008824Y023265D01*
X008854Y023265D01*
X008883Y023236D01*
X008883Y023177D01*
X008765Y023236D02*
X008765Y023324D01*
X008883Y023324D01*
X008702Y023295D02*
X008702Y023236D01*
X008673Y023206D01*
X008584Y023206D01*
X008584Y023147D02*
X008584Y023324D01*
X008673Y023324D01*
X008702Y023295D01*
X008643Y023206D02*
X008702Y023147D01*
X011013Y021335D02*
X011043Y021364D01*
X011072Y021364D01*
X011102Y021335D01*
X011102Y021276D01*
X011072Y021246D01*
X011043Y021246D01*
X011013Y021276D01*
X011013Y021335D01*
X011102Y021335D02*
X011131Y021364D01*
X011161Y021364D01*
X011190Y021335D01*
X011190Y021276D01*
X011161Y021246D01*
X011131Y021246D01*
X011102Y021276D01*
X011190Y021183D02*
X011190Y021065D01*
X011190Y021124D02*
X011013Y021124D01*
X011072Y021065D01*
X011043Y021002D02*
X011013Y020972D01*
X011013Y020913D01*
X011043Y020884D01*
X011161Y020884D01*
X011190Y020913D01*
X011190Y020972D01*
X011161Y021002D01*
X014852Y019880D02*
X014911Y019880D01*
X014882Y019880D02*
X014882Y019703D01*
X014911Y019703D02*
X014852Y019703D01*
X014973Y019732D02*
X015003Y019703D01*
X015062Y019703D01*
X015091Y019732D01*
X015154Y019703D02*
X015272Y019703D01*
X015213Y019703D02*
X015213Y019880D01*
X015154Y019821D01*
X015091Y019850D02*
X015062Y019880D01*
X015003Y019880D01*
X014973Y019850D01*
X014973Y019732D01*
X015571Y020785D02*
X015689Y020785D01*
X015718Y020815D01*
X015718Y020874D01*
X015689Y020903D01*
X015718Y020966D02*
X015600Y021084D01*
X015571Y021084D01*
X015541Y021055D01*
X015541Y020996D01*
X015571Y020966D01*
X015571Y020903D02*
X015541Y020874D01*
X015541Y020815D01*
X015571Y020785D01*
X015718Y020966D02*
X015718Y021084D01*
X015718Y021148D02*
X015600Y021266D01*
X015571Y021266D01*
X015541Y021236D01*
X015541Y021177D01*
X015571Y021148D01*
X015718Y021148D02*
X015718Y021266D01*
X015388Y023807D02*
X015388Y024043D01*
X015417Y024013D02*
X015358Y024013D01*
X015329Y023984D01*
X015329Y023954D01*
X015358Y023925D01*
X015417Y023925D01*
X015447Y023895D01*
X015447Y023866D01*
X015417Y023836D01*
X015358Y023836D01*
X015329Y023866D01*
X015265Y023866D02*
X015265Y024013D01*
X015147Y024013D02*
X015147Y023866D01*
X015177Y023836D01*
X015236Y023836D01*
X015265Y023866D01*
X015417Y024013D02*
X015447Y023984D01*
X015510Y023925D02*
X015628Y023925D01*
X015598Y024013D02*
X015510Y023925D01*
X015598Y024013D02*
X015598Y023836D01*
X021250Y023767D02*
X021279Y023738D01*
X021309Y023738D01*
X021338Y023767D01*
X021338Y023915D01*
X021309Y023915D02*
X021368Y023915D01*
X021431Y023826D02*
X021549Y023826D01*
X021520Y023738D02*
X021520Y023915D01*
X021431Y023826D01*
X027549Y023767D02*
X027579Y023738D01*
X027608Y023738D01*
X027638Y023767D01*
X027638Y023915D01*
X027667Y023915D02*
X027608Y023915D01*
X027730Y023915D02*
X027730Y023826D01*
X027789Y023856D01*
X027819Y023856D01*
X027848Y023826D01*
X027848Y023767D01*
X027819Y023738D01*
X027760Y023738D01*
X027730Y023767D01*
X027730Y023915D02*
X027848Y023915D01*
X033651Y023767D02*
X033681Y023738D01*
X033710Y023738D01*
X033740Y023767D01*
X033740Y023915D01*
X033769Y023915D02*
X033710Y023915D01*
X033833Y023885D02*
X033862Y023915D01*
X033921Y023915D01*
X033951Y023885D01*
X033951Y023856D01*
X033921Y023826D01*
X033951Y023797D01*
X033951Y023767D01*
X033921Y023738D01*
X033862Y023738D01*
X033833Y023767D01*
X033892Y023826D02*
X033921Y023826D01*
X034014Y023767D02*
X034132Y023885D01*
X034132Y023767D01*
X034102Y023738D01*
X034043Y023738D01*
X034014Y023767D01*
X034014Y023885D01*
X034043Y023915D01*
X034102Y023915D01*
X034132Y023885D01*
X040277Y020244D02*
X040277Y020214D01*
X040307Y020185D01*
X040366Y020185D01*
X040395Y020155D01*
X040395Y020126D01*
X040366Y020096D01*
X040307Y020096D01*
X040277Y020126D01*
X040277Y020244D02*
X040307Y020273D01*
X040366Y020273D01*
X040395Y020244D01*
X040458Y020244D02*
X040488Y020273D01*
X040547Y020273D01*
X040576Y020244D01*
X040576Y020214D01*
X040547Y020185D01*
X040576Y020155D01*
X040576Y020126D01*
X040547Y020096D01*
X040488Y020096D01*
X040458Y020126D01*
X040517Y020185D02*
X040547Y020185D01*
X041063Y019683D02*
X041033Y019653D01*
X041033Y019535D01*
X041063Y019506D01*
X041122Y019506D01*
X041151Y019535D01*
X041215Y019506D02*
X041333Y019624D01*
X041333Y019653D01*
X041303Y019683D01*
X041244Y019683D01*
X041215Y019653D01*
X041151Y019653D02*
X041122Y019683D01*
X041063Y019683D01*
X041215Y019506D02*
X041333Y019506D01*
X041396Y019535D02*
X041425Y019506D01*
X041484Y019506D01*
X041514Y019535D01*
X041514Y019594D01*
X041484Y019624D01*
X041455Y019624D01*
X041396Y019594D01*
X041396Y019683D01*
X041514Y019683D01*
X040645Y014565D02*
X040586Y014565D01*
X040557Y014535D01*
X040494Y014535D02*
X040464Y014565D01*
X040405Y014565D01*
X040376Y014535D01*
X040376Y014506D01*
X040405Y014476D01*
X040464Y014476D01*
X040494Y014447D01*
X040494Y014417D01*
X040464Y014388D01*
X040405Y014388D01*
X040376Y014417D01*
X040557Y014388D02*
X040675Y014506D01*
X040675Y014535D01*
X040645Y014565D01*
X040675Y014388D02*
X040557Y014388D01*
X041260Y013187D02*
X041230Y013157D01*
X041230Y013039D01*
X041260Y013010D01*
X041319Y013010D01*
X041348Y013039D01*
X041411Y013010D02*
X041529Y013128D01*
X041529Y013157D01*
X041500Y013187D01*
X041441Y013187D01*
X041411Y013157D01*
X041348Y013157D02*
X041319Y013187D01*
X041260Y013187D01*
X041411Y013010D02*
X041529Y013010D01*
X041593Y013039D02*
X041593Y013069D01*
X041622Y013098D01*
X041681Y013098D01*
X041711Y013069D01*
X041711Y013039D01*
X041681Y013010D01*
X041622Y013010D01*
X041593Y013039D01*
X041622Y013098D02*
X041593Y013128D01*
X041593Y013157D01*
X041622Y013187D01*
X041681Y013187D01*
X041711Y013157D01*
X041711Y013128D01*
X041681Y013098D01*
X038955Y009545D02*
X038896Y009515D01*
X038837Y009456D01*
X038925Y009456D01*
X038955Y009427D01*
X038955Y009397D01*
X038925Y009368D01*
X038866Y009368D01*
X038837Y009397D01*
X038837Y009456D01*
X038773Y009486D02*
X038773Y009515D01*
X038744Y009545D01*
X038685Y009545D01*
X038655Y009515D01*
X038592Y009515D02*
X038592Y009456D01*
X038563Y009427D01*
X038474Y009427D01*
X038474Y009368D02*
X038474Y009545D01*
X038563Y009545D01*
X038592Y009515D01*
X038533Y009427D02*
X038592Y009368D01*
X038655Y009368D02*
X038773Y009486D01*
X038773Y009368D02*
X038655Y009368D01*
X038685Y009151D02*
X038655Y009122D01*
X038685Y009151D02*
X038744Y009151D01*
X038773Y009122D01*
X038773Y009092D01*
X038655Y008974D01*
X038773Y008974D01*
X038837Y009004D02*
X038866Y008974D01*
X038925Y008974D01*
X038955Y009004D01*
X038955Y009063D01*
X038925Y009092D01*
X038896Y009092D01*
X038837Y009063D01*
X038837Y009151D01*
X038955Y009151D01*
X038592Y009122D02*
X038592Y009063D01*
X038563Y009033D01*
X038474Y009033D01*
X038474Y008974D02*
X038474Y009151D01*
X038563Y009151D01*
X038592Y009122D01*
X038533Y009033D02*
X038592Y008974D01*
X040376Y008826D02*
X040376Y008797D01*
X040405Y008767D01*
X040464Y008767D01*
X040494Y008738D01*
X040494Y008708D01*
X040464Y008679D01*
X040405Y008679D01*
X040376Y008708D01*
X040376Y008826D02*
X040405Y008856D01*
X040464Y008856D01*
X040494Y008826D01*
X040557Y008797D02*
X040616Y008856D01*
X040616Y008679D01*
X040557Y008679D02*
X040675Y008679D01*
X041427Y008236D02*
X041427Y008118D01*
X041456Y008088D01*
X041515Y008088D01*
X041545Y008118D01*
X041608Y008088D02*
X041726Y008206D01*
X041726Y008236D01*
X041697Y008265D01*
X041638Y008265D01*
X041608Y008236D01*
X041545Y008236D02*
X041515Y008265D01*
X041456Y008265D01*
X041427Y008236D01*
X041608Y008088D02*
X041726Y008088D01*
X041790Y008118D02*
X041819Y008088D01*
X041878Y008088D01*
X041908Y008118D01*
X041908Y008236D01*
X041878Y008265D01*
X041819Y008265D01*
X041790Y008236D01*
X041790Y008206D01*
X041819Y008177D01*
X041908Y008177D01*
X036215Y011162D02*
X036215Y011241D01*
X036176Y011280D01*
X036097Y011280D01*
X036097Y011201D01*
X036018Y011123D02*
X036176Y011123D01*
X036215Y011162D01*
X036215Y011358D02*
X035979Y011358D01*
X035979Y011476D01*
X036018Y011516D01*
X036097Y011516D01*
X036136Y011476D01*
X036136Y011358D01*
X036018Y011280D02*
X035979Y011241D01*
X035979Y011162D01*
X036018Y011123D01*
X035831Y011123D02*
X035595Y011123D01*
X035674Y011201D01*
X035595Y011280D01*
X035831Y011280D01*
X035713Y011358D02*
X035713Y011516D01*
X035595Y011476D02*
X035713Y011358D01*
X035831Y011476D02*
X035595Y011476D01*
X035979Y011594D02*
X035979Y011673D01*
X035979Y011633D02*
X036215Y011633D01*
X036215Y011594D02*
X036215Y011673D01*
X036176Y011751D02*
X036215Y011790D01*
X036215Y011869D01*
X036176Y011908D01*
X036018Y011908D01*
X035979Y011869D01*
X035979Y011790D01*
X036018Y011751D01*
X036176Y011751D01*
X036215Y011987D02*
X036215Y012144D01*
X036215Y012065D02*
X035979Y012065D01*
X036058Y011987D01*
X030679Y006814D02*
X030679Y006755D01*
X030649Y006726D01*
X030679Y006663D02*
X030679Y006545D01*
X030679Y006604D02*
X030502Y006604D01*
X030561Y006545D01*
X030590Y006481D02*
X030620Y006452D01*
X030620Y006363D01*
X030679Y006363D02*
X030502Y006363D01*
X030502Y006452D01*
X030531Y006481D01*
X030590Y006481D01*
X030620Y006422D02*
X030679Y006481D01*
X030531Y006726D02*
X030502Y006755D01*
X030502Y006814D01*
X030531Y006844D01*
X030561Y006844D01*
X030590Y006814D01*
X030620Y006844D01*
X030649Y006844D01*
X030679Y006814D01*
X030590Y006814D02*
X030590Y006785D01*
X030285Y006726D02*
X030255Y006726D01*
X030137Y006844D01*
X030108Y006844D01*
X030108Y006726D01*
X030137Y006663D02*
X030196Y006663D01*
X030226Y006633D01*
X030226Y006545D01*
X030226Y006604D02*
X030285Y006663D01*
X030285Y006545D02*
X030108Y006545D01*
X030108Y006633D01*
X030137Y006663D01*
X029891Y006663D02*
X029891Y006545D01*
X029891Y006604D02*
X029714Y006604D01*
X029773Y006545D01*
X029744Y006481D02*
X029803Y006481D01*
X029832Y006452D01*
X029832Y006363D01*
X029891Y006363D02*
X029714Y006363D01*
X029714Y006452D01*
X029744Y006481D01*
X029832Y006422D02*
X029891Y006481D01*
X029803Y006726D02*
X029803Y006844D01*
X029891Y006814D02*
X029714Y006814D01*
X029803Y006726D01*
X029498Y006726D02*
X029380Y006844D01*
X029350Y006844D01*
X029321Y006814D01*
X029321Y006755D01*
X029350Y006726D01*
X029321Y006604D02*
X029498Y006604D01*
X029498Y006545D02*
X029498Y006663D01*
X029498Y006726D02*
X029498Y006844D01*
X029321Y006604D02*
X029380Y006545D01*
X029409Y006481D02*
X029439Y006452D01*
X029439Y006363D01*
X029498Y006363D02*
X029321Y006363D01*
X029321Y006452D01*
X029350Y006481D01*
X029409Y006481D01*
X029439Y006422D02*
X029498Y006481D01*
X029104Y006481D02*
X029045Y006422D01*
X029045Y006452D02*
X029045Y006363D01*
X029104Y006363D02*
X028927Y006363D01*
X028927Y006452D01*
X028956Y006481D01*
X029015Y006481D01*
X029045Y006452D01*
X029104Y006545D02*
X029104Y006663D01*
X029104Y006604D02*
X028927Y006604D01*
X028986Y006545D01*
X028986Y006726D02*
X028927Y006785D01*
X029104Y006785D01*
X029104Y006726D02*
X029104Y006844D01*
X028710Y006814D02*
X028710Y006755D01*
X028681Y006726D01*
X028651Y006726D01*
X028622Y006755D01*
X028622Y006814D01*
X028651Y006844D01*
X028681Y006844D01*
X028710Y006814D01*
X028622Y006814D02*
X028592Y006844D01*
X028563Y006844D01*
X028533Y006814D01*
X028533Y006755D01*
X028563Y006726D01*
X028592Y006726D01*
X028622Y006755D01*
X028622Y006663D02*
X028651Y006633D01*
X028651Y006545D01*
X028651Y006604D02*
X028710Y006663D01*
X028622Y006663D02*
X028563Y006663D01*
X028533Y006633D01*
X028533Y006545D01*
X028710Y006545D01*
X028065Y011239D02*
X027908Y011396D01*
X027760Y011396D02*
X027603Y011553D01*
X027564Y011553D01*
X027524Y011514D01*
X027524Y011435D01*
X027564Y011396D01*
X027524Y011318D02*
X027524Y011239D01*
X027524Y011278D02*
X027760Y011278D01*
X027760Y011239D02*
X027760Y011318D01*
X027760Y011396D02*
X027760Y011553D01*
X028026Y011278D02*
X028144Y011396D01*
X021730Y007645D02*
X021730Y007527D01*
X021701Y007498D01*
X021642Y007498D01*
X021612Y007527D01*
X021642Y007586D02*
X021730Y007586D01*
X021730Y007645D02*
X021701Y007675D01*
X021642Y007675D01*
X021612Y007645D01*
X021612Y007616D01*
X021642Y007586D01*
X021549Y007498D02*
X021431Y007498D01*
X021490Y007498D02*
X021490Y007675D01*
X021431Y007616D01*
X021368Y007645D02*
X021338Y007675D01*
X021279Y007675D01*
X021250Y007645D01*
X021250Y007527D01*
X021279Y007498D01*
X021338Y007498D01*
X021368Y007527D01*
X021338Y007281D02*
X021279Y007281D01*
X021250Y007252D01*
X021250Y007134D01*
X021279Y007104D01*
X021338Y007104D01*
X021368Y007134D01*
X021431Y007104D02*
X021549Y007222D01*
X021549Y007252D01*
X021520Y007281D01*
X021461Y007281D01*
X021431Y007252D01*
X021368Y007252D02*
X021338Y007281D01*
X021431Y007104D02*
X021549Y007104D01*
X021612Y007134D02*
X021730Y007252D01*
X021730Y007134D01*
X021701Y007104D01*
X021642Y007104D01*
X021612Y007134D01*
X021612Y007252D01*
X021642Y007281D01*
X021701Y007281D01*
X021730Y007252D01*
X020368Y006297D02*
X020309Y006267D01*
X020250Y006208D01*
X020338Y006208D01*
X020368Y006179D01*
X020368Y006149D01*
X020338Y006120D01*
X020279Y006120D01*
X020250Y006149D01*
X020250Y006208D01*
X020187Y006149D02*
X020157Y006120D01*
X020098Y006120D01*
X020069Y006149D01*
X020069Y006267D01*
X020098Y006297D01*
X020157Y006297D01*
X020187Y006267D01*
X020157Y005903D02*
X020098Y005903D01*
X020069Y005874D01*
X020069Y005756D01*
X020098Y005726D01*
X020157Y005726D01*
X020187Y005756D01*
X020250Y005756D02*
X020279Y005726D01*
X020338Y005726D01*
X020368Y005756D01*
X020368Y005874D01*
X020338Y005903D01*
X020279Y005903D01*
X020250Y005874D01*
X020250Y005844D01*
X020279Y005815D01*
X020368Y005815D01*
X020187Y005874D02*
X020157Y005903D01*
X018727Y007179D02*
X018639Y007179D01*
X018580Y007238D01*
X018550Y007238D01*
X018580Y007301D02*
X018550Y007330D01*
X018550Y007389D01*
X018580Y007419D01*
X018609Y007419D01*
X018639Y007389D01*
X018668Y007419D01*
X018698Y007419D01*
X018727Y007389D01*
X018727Y007330D01*
X018698Y007301D01*
X018639Y007360D02*
X018639Y007389D01*
X018639Y007179D02*
X018580Y007120D01*
X018550Y007120D01*
X018179Y006581D02*
X018149Y006581D01*
X018031Y006699D01*
X018002Y006699D01*
X018002Y006581D01*
X018002Y006459D02*
X018179Y006459D01*
X018179Y006400D02*
X018179Y006518D01*
X018061Y006400D02*
X018002Y006459D01*
X018031Y006336D02*
X018002Y006307D01*
X018002Y006248D01*
X018031Y006218D01*
X018149Y006218D01*
X018179Y006248D01*
X018179Y006307D01*
X018149Y006336D01*
X017348Y005706D02*
X017348Y005677D01*
X017230Y005559D01*
X017230Y005529D01*
X017167Y005559D02*
X017137Y005529D01*
X017078Y005529D01*
X017049Y005559D01*
X017049Y005677D01*
X017078Y005706D01*
X017137Y005706D01*
X017167Y005677D01*
X017230Y005706D02*
X017348Y005706D01*
X012820Y005578D02*
X012820Y005549D01*
X012791Y005519D01*
X012820Y005490D01*
X012820Y005460D01*
X012791Y005431D01*
X012732Y005431D01*
X012702Y005460D01*
X012639Y005431D02*
X012580Y005490D01*
X012610Y005490D02*
X012521Y005490D01*
X012521Y005431D02*
X012521Y005608D01*
X012610Y005608D01*
X012639Y005578D01*
X012639Y005519D01*
X012610Y005490D01*
X012702Y005578D02*
X012732Y005608D01*
X012791Y005608D01*
X012820Y005578D01*
X012791Y005519D02*
X012761Y005519D01*
X012637Y006612D02*
X012667Y006641D01*
X012667Y006700D01*
X012637Y006730D01*
X012637Y006793D02*
X012667Y006823D01*
X012667Y006882D01*
X012637Y006911D01*
X012578Y006911D01*
X012549Y006882D01*
X012549Y006852D01*
X012578Y006793D01*
X012490Y006793D01*
X012490Y006911D01*
X012519Y006730D02*
X012490Y006700D01*
X012490Y006641D01*
X012519Y006612D01*
X012637Y006612D01*
X012273Y006602D02*
X012244Y006632D01*
X012273Y006602D02*
X012273Y006543D01*
X012244Y006514D01*
X012126Y006514D01*
X012096Y006543D01*
X012096Y006602D01*
X012126Y006632D01*
X012155Y006695D02*
X012096Y006754D01*
X012273Y006754D01*
X012273Y006695D02*
X012273Y006813D01*
X012244Y006876D02*
X012273Y006906D01*
X012273Y006965D01*
X012244Y006994D01*
X012214Y006994D01*
X012185Y006965D01*
X012185Y006876D01*
X012244Y006876D01*
X012185Y006876D02*
X012126Y006935D01*
X012096Y006994D01*
X011675Y007330D02*
X011646Y007301D01*
X011587Y007301D01*
X011557Y007330D01*
X011675Y007448D01*
X011675Y007330D01*
X011557Y007330D02*
X011557Y007448D01*
X011587Y007478D01*
X011646Y007478D01*
X011675Y007448D01*
X011494Y007301D02*
X011376Y007301D01*
X011435Y007301D02*
X011435Y007478D01*
X011376Y007419D01*
X011313Y007448D02*
X011283Y007478D01*
X011224Y007478D01*
X011195Y007448D01*
X011195Y007419D01*
X011224Y007389D01*
X011283Y007389D01*
X011313Y007360D01*
X011313Y007330D01*
X011283Y007301D01*
X011224Y007301D01*
X011195Y007330D01*
X011132Y007330D02*
X011132Y007478D01*
X011014Y007478D02*
X011014Y007330D01*
X011043Y007301D01*
X011102Y007301D01*
X011132Y007330D01*
X011254Y007271D02*
X011254Y007507D01*
X010624Y008285D02*
X010506Y008285D01*
X010624Y008403D01*
X010624Y008433D01*
X010594Y008462D01*
X010535Y008462D01*
X010506Y008433D01*
X010443Y008462D02*
X010443Y008315D01*
X010413Y008285D01*
X010354Y008285D01*
X010325Y008315D01*
X010325Y008462D01*
X009526Y007941D02*
X009496Y007970D01*
X009437Y007970D01*
X009408Y007941D01*
X009344Y007941D02*
X009315Y007970D01*
X009256Y007970D01*
X009226Y007941D01*
X009163Y007941D02*
X009163Y007882D01*
X009134Y007852D01*
X009045Y007852D01*
X009045Y007793D02*
X009045Y007970D01*
X009134Y007970D01*
X009163Y007941D01*
X009104Y007852D02*
X009163Y007793D01*
X009226Y007793D02*
X009344Y007911D01*
X009344Y007941D01*
X009344Y007793D02*
X009226Y007793D01*
X009408Y007793D02*
X009526Y007911D01*
X009526Y007941D01*
X009526Y007793D02*
X009408Y007793D01*
X008391Y007576D02*
X008391Y007547D01*
X008273Y007429D01*
X008273Y007399D01*
X008210Y007429D02*
X008181Y007399D01*
X008122Y007399D01*
X008092Y007429D01*
X008029Y007429D02*
X007999Y007399D01*
X007940Y007399D01*
X007911Y007429D01*
X007911Y007547D01*
X007940Y007576D01*
X007999Y007576D01*
X008029Y007547D01*
X008092Y007547D02*
X008122Y007576D01*
X008181Y007576D01*
X008210Y007547D01*
X008210Y007517D01*
X008181Y007488D01*
X008210Y007458D01*
X008210Y007429D01*
X008181Y007488D02*
X008151Y007488D01*
X008273Y007576D02*
X008391Y007576D01*
X007505Y008187D02*
X007387Y008187D01*
X007446Y008187D02*
X007446Y008364D01*
X007387Y008305D01*
X007324Y008334D02*
X007324Y008275D01*
X007295Y008246D01*
X007206Y008246D01*
X007163Y008285D02*
X007045Y008285D01*
X007163Y008403D01*
X007163Y008433D01*
X007134Y008462D01*
X007075Y008462D01*
X007045Y008433D01*
X006982Y008433D02*
X006982Y008403D01*
X006953Y008374D01*
X006982Y008344D01*
X006982Y008315D01*
X006953Y008285D01*
X006894Y008285D01*
X006864Y008315D01*
X006801Y008315D02*
X006771Y008285D01*
X006712Y008285D01*
X006683Y008315D01*
X006683Y008433D01*
X006712Y008462D01*
X006771Y008462D01*
X006801Y008433D01*
X006864Y008433D02*
X006894Y008462D01*
X006953Y008462D01*
X006982Y008433D01*
X006953Y008374D02*
X006923Y008374D01*
X007206Y008364D02*
X007295Y008364D01*
X007324Y008334D01*
X007265Y008246D02*
X007324Y008187D01*
X007206Y008187D02*
X007206Y008364D01*
X006461Y010549D02*
X006490Y010578D01*
X006490Y010608D01*
X006461Y010637D01*
X006372Y010637D01*
X006372Y010578D01*
X006402Y010549D01*
X006461Y010549D01*
X006372Y010637D02*
X006431Y010696D01*
X006490Y010726D01*
X006309Y010696D02*
X006279Y010726D01*
X006220Y010726D01*
X006191Y010696D01*
X006191Y010667D01*
X006220Y010637D01*
X006279Y010637D01*
X006309Y010608D01*
X006309Y010578D01*
X006279Y010549D01*
X006220Y010549D01*
X006191Y010578D01*
X009734Y013433D02*
X009763Y013403D01*
X009881Y013403D01*
X009911Y013433D01*
X009911Y013492D01*
X009881Y013521D01*
X009911Y013585D02*
X009793Y013703D01*
X009763Y013703D01*
X009734Y013673D01*
X009734Y013614D01*
X009763Y013585D01*
X009763Y013521D02*
X009734Y013492D01*
X009734Y013433D01*
X009911Y013585D02*
X009911Y013703D01*
X009881Y013766D02*
X009911Y013795D01*
X009911Y013854D01*
X009881Y013884D01*
X009852Y013884D01*
X009822Y013854D01*
X009822Y013766D01*
X009881Y013766D01*
X009822Y013766D02*
X009763Y013825D01*
X009734Y013884D01*
X010620Y013886D02*
X010620Y013827D01*
X010649Y013797D01*
X010767Y013797D01*
X010797Y013827D01*
X010797Y013886D01*
X010767Y013915D01*
X010797Y013978D02*
X010679Y014096D01*
X010649Y014096D01*
X010620Y014067D01*
X010620Y014008D01*
X010649Y013978D01*
X010649Y013915D02*
X010620Y013886D01*
X010797Y013978D02*
X010797Y014096D01*
X010797Y014160D02*
X010767Y014160D01*
X010649Y014278D01*
X010620Y014278D01*
X010620Y014160D01*
X010915Y014165D02*
X011004Y014077D01*
X011004Y014195D01*
X011092Y014165D02*
X010915Y014165D01*
X010945Y014013D02*
X010915Y013984D01*
X010915Y013925D01*
X010945Y013895D01*
X011063Y013895D01*
X011092Y013925D01*
X011092Y013984D01*
X011063Y014013D01*
X011014Y012694D02*
X011014Y012547D01*
X011043Y012517D01*
X011102Y012517D01*
X011132Y012547D01*
X011132Y012694D01*
X011195Y012606D02*
X011313Y012606D01*
X011283Y012694D02*
X011195Y012606D01*
X011283Y012694D02*
X011283Y012517D01*
X011299Y008954D02*
X011240Y008954D01*
X011210Y008925D01*
X011210Y008807D01*
X011240Y008777D01*
X011299Y008777D01*
X011328Y008807D01*
X011392Y008807D02*
X011421Y008777D01*
X011480Y008777D01*
X011510Y008807D01*
X011510Y008836D01*
X011480Y008866D01*
X011451Y008866D01*
X011480Y008866D02*
X011510Y008895D01*
X011510Y008925D01*
X011480Y008954D01*
X011421Y008954D01*
X011392Y008925D01*
X011328Y008925D02*
X011299Y008954D01*
X011573Y008925D02*
X011602Y008954D01*
X011661Y008954D01*
X011691Y008925D01*
X011691Y008895D01*
X011661Y008866D01*
X011691Y008836D01*
X011691Y008807D01*
X011661Y008777D01*
X011602Y008777D01*
X011573Y008807D01*
X011632Y008866D02*
X011661Y008866D01*
D12*
X006334Y016268D02*
X006411Y016344D01*
X006411Y016498D01*
X006334Y016575D01*
X006257Y016575D01*
X006181Y016498D01*
X006181Y016344D01*
X006104Y016268D01*
X006027Y016268D01*
X005950Y016344D01*
X005950Y016498D01*
X006027Y016575D01*
X005950Y016728D02*
X006411Y016728D01*
X006257Y016881D01*
X006411Y017035D01*
X005950Y017035D01*
X006488Y017188D02*
X006488Y017495D01*
X006411Y017649D02*
X006411Y017956D01*
X006181Y017802D02*
X006181Y017649D01*
X006411Y017649D02*
X005950Y017649D01*
X005950Y017956D01*
X006474Y022218D02*
X006398Y022295D01*
X006474Y022218D02*
X006628Y022218D01*
X006705Y022295D01*
X006705Y022372D01*
X006628Y022449D01*
X006474Y022449D01*
X006398Y022525D01*
X006398Y022602D01*
X006474Y022679D01*
X006628Y022679D01*
X006705Y022602D01*
X006858Y022679D02*
X006858Y022218D01*
X007011Y022372D01*
X007165Y022218D01*
X007165Y022679D01*
X007318Y022142D02*
X007625Y022142D01*
X007779Y022218D02*
X007779Y022679D01*
X008009Y022679D01*
X008086Y022602D01*
X008086Y022295D01*
X008009Y022218D01*
X007779Y022218D01*
X041142Y016893D02*
X041142Y016817D01*
X041218Y016740D01*
X041372Y016740D01*
X041449Y016663D01*
X041449Y016586D01*
X041372Y016510D01*
X041218Y016510D01*
X041142Y016586D01*
X041142Y016893D02*
X041218Y016970D01*
X041372Y016970D01*
X041449Y016893D01*
X041602Y016970D02*
X041602Y016510D01*
X041756Y016663D01*
X041909Y016510D01*
X041909Y016970D01*
X042063Y016433D02*
X042369Y016433D01*
X042523Y016510D02*
X042753Y016510D01*
X042830Y016586D01*
X042830Y016663D01*
X042753Y016740D01*
X042523Y016740D01*
X042753Y016740D02*
X042830Y016817D01*
X042830Y016893D01*
X042753Y016970D01*
X042523Y016970D01*
X042523Y016510D01*
X042600Y011261D02*
X042523Y011185D01*
X042523Y010878D01*
X042600Y010801D01*
X042753Y010801D01*
X042830Y010878D01*
X042830Y011185D02*
X042753Y011261D01*
X042600Y011261D01*
X042369Y010724D02*
X042063Y010724D01*
X041909Y010801D02*
X041909Y011261D01*
X041602Y011261D02*
X041602Y010801D01*
X041756Y010955D01*
X041909Y010801D01*
X041449Y010878D02*
X041372Y010801D01*
X041218Y010801D01*
X041142Y010878D01*
X041218Y011031D02*
X041142Y011108D01*
X041142Y011185D01*
X041218Y011261D01*
X041372Y011261D01*
X041449Y011185D01*
X041372Y011031D02*
X041449Y010955D01*
X041449Y010878D01*
X041372Y011031D02*
X041218Y011031D01*
X042161Y022142D02*
X042468Y022142D01*
X042621Y022218D02*
X042621Y022525D01*
X042775Y022679D01*
X042928Y022525D01*
X042928Y022218D01*
X042928Y022449D02*
X042621Y022449D01*
X042007Y022679D02*
X042007Y022218D01*
X041854Y022372D01*
X041701Y022218D01*
X041701Y022679D01*
X041547Y022602D02*
X041470Y022679D01*
X041317Y022679D01*
X041240Y022602D01*
X041240Y022525D01*
X041317Y022449D01*
X041470Y022449D01*
X041547Y022372D01*
X041547Y022295D01*
X041470Y022218D01*
X041317Y022218D01*
X041240Y022295D01*
D13*
X041478Y021963D02*
X042691Y021963D01*
X043085Y021452D02*
X043085Y020475D01*
X042691Y019963D02*
X041478Y019963D01*
X041085Y020475D02*
X041085Y021463D01*
X041585Y020963D02*
X041587Y021007D01*
X041593Y021051D01*
X041603Y021094D01*
X041616Y021136D01*
X041633Y021177D01*
X041654Y021216D01*
X041678Y021253D01*
X041705Y021288D01*
X041735Y021320D01*
X041768Y021350D01*
X041804Y021376D01*
X041841Y021400D01*
X041881Y021419D01*
X041922Y021436D01*
X041965Y021448D01*
X042008Y021457D01*
X042052Y021462D01*
X042096Y021463D01*
X042140Y021460D01*
X042184Y021453D01*
X042227Y021442D01*
X042269Y021428D01*
X042309Y021410D01*
X042348Y021388D01*
X042384Y021364D01*
X042418Y021336D01*
X042450Y021305D01*
X042479Y021271D01*
X042505Y021235D01*
X042527Y021197D01*
X042546Y021157D01*
X042561Y021115D01*
X042573Y021073D01*
X042581Y021029D01*
X042585Y020985D01*
X042585Y020941D01*
X042581Y020897D01*
X042573Y020853D01*
X042561Y020811D01*
X042546Y020769D01*
X042527Y020729D01*
X042505Y020691D01*
X042479Y020655D01*
X042450Y020621D01*
X042418Y020590D01*
X042384Y020562D01*
X042348Y020538D01*
X042309Y020516D01*
X042269Y020498D01*
X042227Y020484D01*
X042184Y020473D01*
X042140Y020466D01*
X042096Y020463D01*
X042052Y020464D01*
X042008Y020469D01*
X041965Y020478D01*
X041922Y020490D01*
X041881Y020507D01*
X041841Y020526D01*
X041804Y020550D01*
X041768Y020576D01*
X041735Y020606D01*
X041705Y020638D01*
X041678Y020673D01*
X041654Y020710D01*
X041633Y020749D01*
X041616Y020790D01*
X041603Y020832D01*
X041593Y020875D01*
X041587Y020919D01*
X041585Y020963D01*
X041478Y016263D02*
X042691Y016263D01*
X043085Y015752D02*
X043085Y014775D01*
X042691Y014263D02*
X041478Y014263D01*
X041085Y014775D02*
X041085Y015763D01*
X041585Y015263D02*
X041587Y015307D01*
X041593Y015351D01*
X041603Y015394D01*
X041616Y015436D01*
X041633Y015477D01*
X041654Y015516D01*
X041678Y015553D01*
X041705Y015588D01*
X041735Y015620D01*
X041768Y015650D01*
X041804Y015676D01*
X041841Y015700D01*
X041881Y015719D01*
X041922Y015736D01*
X041965Y015748D01*
X042008Y015757D01*
X042052Y015762D01*
X042096Y015763D01*
X042140Y015760D01*
X042184Y015753D01*
X042227Y015742D01*
X042269Y015728D01*
X042309Y015710D01*
X042348Y015688D01*
X042384Y015664D01*
X042418Y015636D01*
X042450Y015605D01*
X042479Y015571D01*
X042505Y015535D01*
X042527Y015497D01*
X042546Y015457D01*
X042561Y015415D01*
X042573Y015373D01*
X042581Y015329D01*
X042585Y015285D01*
X042585Y015241D01*
X042581Y015197D01*
X042573Y015153D01*
X042561Y015111D01*
X042546Y015069D01*
X042527Y015029D01*
X042505Y014991D01*
X042479Y014955D01*
X042450Y014921D01*
X042418Y014890D01*
X042384Y014862D01*
X042348Y014838D01*
X042309Y014816D01*
X042269Y014798D01*
X042227Y014784D01*
X042184Y014773D01*
X042140Y014766D01*
X042096Y014763D01*
X042052Y014764D01*
X042008Y014769D01*
X041965Y014778D01*
X041922Y014790D01*
X041881Y014807D01*
X041841Y014826D01*
X041804Y014850D01*
X041768Y014876D01*
X041735Y014906D01*
X041705Y014938D01*
X041678Y014973D01*
X041654Y015010D01*
X041633Y015049D01*
X041616Y015090D01*
X041603Y015132D01*
X041593Y015175D01*
X041587Y015219D01*
X041585Y015263D01*
X041478Y010563D02*
X042691Y010563D01*
X043085Y010052D02*
X043085Y009075D01*
X042691Y008563D02*
X041478Y008563D01*
X041085Y009075D02*
X041085Y010063D01*
X041585Y009563D02*
X041587Y009607D01*
X041593Y009651D01*
X041603Y009694D01*
X041616Y009736D01*
X041633Y009777D01*
X041654Y009816D01*
X041678Y009853D01*
X041705Y009888D01*
X041735Y009920D01*
X041768Y009950D01*
X041804Y009976D01*
X041841Y010000D01*
X041881Y010019D01*
X041922Y010036D01*
X041965Y010048D01*
X042008Y010057D01*
X042052Y010062D01*
X042096Y010063D01*
X042140Y010060D01*
X042184Y010053D01*
X042227Y010042D01*
X042269Y010028D01*
X042309Y010010D01*
X042348Y009988D01*
X042384Y009964D01*
X042418Y009936D01*
X042450Y009905D01*
X042479Y009871D01*
X042505Y009835D01*
X042527Y009797D01*
X042546Y009757D01*
X042561Y009715D01*
X042573Y009673D01*
X042581Y009629D01*
X042585Y009585D01*
X042585Y009541D01*
X042581Y009497D01*
X042573Y009453D01*
X042561Y009411D01*
X042546Y009369D01*
X042527Y009329D01*
X042505Y009291D01*
X042479Y009255D01*
X042450Y009221D01*
X042418Y009190D01*
X042384Y009162D01*
X042348Y009138D01*
X042309Y009116D01*
X042269Y009098D01*
X042227Y009084D01*
X042184Y009073D01*
X042140Y009066D01*
X042096Y009063D01*
X042052Y009064D01*
X042008Y009069D01*
X041965Y009078D01*
X041922Y009090D01*
X041881Y009107D01*
X041841Y009126D01*
X041804Y009150D01*
X041768Y009176D01*
X041735Y009206D01*
X041705Y009238D01*
X041678Y009273D01*
X041654Y009310D01*
X041633Y009349D01*
X041616Y009390D01*
X041603Y009432D01*
X041593Y009475D01*
X041587Y009519D01*
X041585Y009563D01*
X027756Y010039D02*
X027086Y010039D01*
X027756Y008964D02*
X027756Y008307D01*
X027637Y008307D01*
X021732Y008307D01*
X021732Y008189D01*
X021614Y008189D01*
X021614Y007834D01*
X027756Y007834D01*
X027756Y008189D01*
X027637Y008189D01*
X027637Y008307D01*
X022598Y008189D02*
X022519Y008031D01*
X022441Y008189D01*
X022598Y008189D01*
X022568Y008129D02*
X022471Y008129D01*
X022510Y008050D02*
X022529Y008050D01*
X021732Y008307D02*
X021614Y008307D01*
X021614Y008964D01*
X021614Y010039D02*
X022283Y010039D01*
X019173Y006504D02*
X019173Y006110D01*
X018582Y006110D02*
X018582Y006504D01*
X017224Y006149D02*
X017224Y009614D01*
X017067Y009771D01*
X013602Y009771D01*
X013445Y009614D01*
X013445Y006149D01*
X013602Y005992D01*
X017067Y005992D01*
X017224Y006149D01*
X011309Y009633D02*
X011309Y010342D01*
X010698Y010342D01*
X010698Y009633D01*
X010236Y009840D02*
X009921Y009840D01*
X009921Y010450D01*
X009212Y010450D01*
X009252Y011021D02*
X008937Y011021D01*
X008937Y011631D01*
X008228Y011631D01*
X008937Y011631D02*
X009252Y011631D01*
X009853Y011945D02*
X009853Y012283D01*
X010307Y012433D02*
X010519Y012433D01*
X010973Y012283D02*
X010973Y011945D01*
X010698Y010657D02*
X010698Y010342D01*
X010236Y010450D02*
X009921Y010450D01*
X009921Y009840D02*
X009212Y009840D01*
X009618Y009283D02*
X009830Y009283D01*
X010284Y009133D02*
X010284Y008795D01*
X009164Y008795D02*
X009164Y009133D01*
X008285Y009075D02*
X008285Y010052D01*
X007891Y010563D02*
X006678Y010563D01*
X006285Y010063D02*
X006285Y009075D01*
X006678Y008563D02*
X007891Y008563D01*
X006785Y009563D02*
X006787Y009607D01*
X006793Y009651D01*
X006803Y009694D01*
X006816Y009736D01*
X006833Y009777D01*
X006854Y009816D01*
X006878Y009853D01*
X006905Y009888D01*
X006935Y009920D01*
X006968Y009950D01*
X007004Y009976D01*
X007041Y010000D01*
X007081Y010019D01*
X007122Y010036D01*
X007165Y010048D01*
X007208Y010057D01*
X007252Y010062D01*
X007296Y010063D01*
X007340Y010060D01*
X007384Y010053D01*
X007427Y010042D01*
X007469Y010028D01*
X007509Y010010D01*
X007548Y009988D01*
X007584Y009964D01*
X007618Y009936D01*
X007650Y009905D01*
X007679Y009871D01*
X007705Y009835D01*
X007727Y009797D01*
X007746Y009757D01*
X007761Y009715D01*
X007773Y009673D01*
X007781Y009629D01*
X007785Y009585D01*
X007785Y009541D01*
X007781Y009497D01*
X007773Y009453D01*
X007761Y009411D01*
X007746Y009369D01*
X007727Y009329D01*
X007705Y009291D01*
X007679Y009255D01*
X007650Y009221D01*
X007618Y009190D01*
X007584Y009162D01*
X007548Y009138D01*
X007509Y009116D01*
X007469Y009098D01*
X007427Y009084D01*
X007384Y009073D01*
X007340Y009066D01*
X007296Y009063D01*
X007252Y009064D01*
X007208Y009069D01*
X007165Y009078D01*
X007122Y009090D01*
X007081Y009107D01*
X007041Y009126D01*
X007004Y009150D01*
X006968Y009176D01*
X006935Y009206D01*
X006905Y009238D01*
X006878Y009273D01*
X006854Y009310D01*
X006833Y009349D01*
X006816Y009390D01*
X006803Y009432D01*
X006793Y009475D01*
X006787Y009519D01*
X006785Y009563D01*
X008228Y011021D02*
X008937Y011021D01*
X011309Y010657D02*
X011309Y010342D01*
X009493Y007293D02*
X009495Y007308D01*
X009501Y007321D01*
X009510Y007333D01*
X009521Y007342D01*
X009535Y007348D01*
X009550Y007350D01*
X009565Y007348D01*
X009578Y007342D01*
X009590Y007333D01*
X009599Y007322D01*
X009605Y007308D01*
X009607Y007293D01*
X009605Y007278D01*
X009599Y007265D01*
X009590Y007253D01*
X009579Y007244D01*
X009565Y007238D01*
X009550Y007236D01*
X009535Y007238D01*
X009522Y007244D01*
X009510Y007253D01*
X009501Y007264D01*
X009495Y007278D01*
X009493Y007293D01*
X007891Y014263D02*
X006678Y014263D01*
X006285Y014775D02*
X006285Y015752D01*
X006678Y016263D02*
X007891Y016263D01*
X008285Y015752D02*
X008285Y014763D01*
X006785Y015263D02*
X006787Y015307D01*
X006793Y015351D01*
X006803Y015394D01*
X006816Y015436D01*
X006833Y015477D01*
X006854Y015516D01*
X006878Y015553D01*
X006905Y015588D01*
X006935Y015620D01*
X006968Y015650D01*
X007004Y015676D01*
X007041Y015700D01*
X007081Y015719D01*
X007122Y015736D01*
X007165Y015748D01*
X007208Y015757D01*
X007252Y015762D01*
X007296Y015763D01*
X007340Y015760D01*
X007384Y015753D01*
X007427Y015742D01*
X007469Y015728D01*
X007509Y015710D01*
X007548Y015688D01*
X007584Y015664D01*
X007618Y015636D01*
X007650Y015605D01*
X007679Y015571D01*
X007705Y015535D01*
X007727Y015497D01*
X007746Y015457D01*
X007761Y015415D01*
X007773Y015373D01*
X007781Y015329D01*
X007785Y015285D01*
X007785Y015241D01*
X007781Y015197D01*
X007773Y015153D01*
X007761Y015111D01*
X007746Y015069D01*
X007727Y015029D01*
X007705Y014991D01*
X007679Y014955D01*
X007650Y014921D01*
X007618Y014890D01*
X007584Y014862D01*
X007548Y014838D01*
X007509Y014816D01*
X007469Y014798D01*
X007427Y014784D01*
X007384Y014773D01*
X007340Y014766D01*
X007296Y014763D01*
X007252Y014764D01*
X007208Y014769D01*
X007165Y014778D01*
X007122Y014790D01*
X007081Y014807D01*
X007041Y014826D01*
X007004Y014850D01*
X006968Y014876D01*
X006935Y014906D01*
X006905Y014938D01*
X006878Y014973D01*
X006854Y015010D01*
X006833Y015049D01*
X006816Y015090D01*
X006803Y015132D01*
X006793Y015175D01*
X006787Y015219D01*
X006785Y015263D01*
X006678Y019963D02*
X007891Y019963D01*
X008285Y020475D02*
X008285Y021452D01*
X007891Y021963D02*
X006678Y021963D01*
X006285Y021463D02*
X006285Y020475D01*
X006785Y020963D02*
X006787Y021007D01*
X006793Y021051D01*
X006803Y021094D01*
X006816Y021136D01*
X006833Y021177D01*
X006854Y021216D01*
X006878Y021253D01*
X006905Y021288D01*
X006935Y021320D01*
X006968Y021350D01*
X007004Y021376D01*
X007041Y021400D01*
X007081Y021419D01*
X007122Y021436D01*
X007165Y021448D01*
X007208Y021457D01*
X007252Y021462D01*
X007296Y021463D01*
X007340Y021460D01*
X007384Y021453D01*
X007427Y021442D01*
X007469Y021428D01*
X007509Y021410D01*
X007548Y021388D01*
X007584Y021364D01*
X007618Y021336D01*
X007650Y021305D01*
X007679Y021271D01*
X007705Y021235D01*
X007727Y021197D01*
X007746Y021157D01*
X007761Y021115D01*
X007773Y021073D01*
X007781Y021029D01*
X007785Y020985D01*
X007785Y020941D01*
X007781Y020897D01*
X007773Y020853D01*
X007761Y020811D01*
X007746Y020769D01*
X007727Y020729D01*
X007705Y020691D01*
X007679Y020655D01*
X007650Y020621D01*
X007618Y020590D01*
X007584Y020562D01*
X007548Y020538D01*
X007509Y020516D01*
X007469Y020498D01*
X007427Y020484D01*
X007384Y020473D01*
X007340Y020466D01*
X007296Y020463D01*
X007252Y020464D01*
X007208Y020469D01*
X007165Y020478D01*
X007122Y020490D01*
X007081Y020507D01*
X007041Y020526D01*
X007004Y020550D01*
X006968Y020576D01*
X006935Y020606D01*
X006905Y020638D01*
X006878Y020673D01*
X006854Y020710D01*
X006833Y020749D01*
X006816Y020790D01*
X006803Y020832D01*
X006793Y020875D01*
X006787Y020919D01*
X006785Y020963D01*
X014789Y019086D02*
X014791Y019101D01*
X014797Y019114D01*
X014806Y019126D01*
X014817Y019135D01*
X014831Y019141D01*
X014846Y019143D01*
X014861Y019141D01*
X014874Y019135D01*
X014886Y019126D01*
X014895Y019115D01*
X014901Y019101D01*
X014903Y019086D01*
X014901Y019071D01*
X014895Y019058D01*
X014886Y019046D01*
X014875Y019037D01*
X014861Y019031D01*
X014846Y019029D01*
X014831Y019031D01*
X014818Y019037D01*
X014806Y019046D01*
X014797Y019057D01*
X014791Y019071D01*
X014789Y019086D01*
D14*
X008543Y013984D03*
X008740Y012015D03*
D15*
X009468Y005854D02*
X009468Y024673D01*
X039901Y024673D01*
X039901Y005854D01*
X009468Y005854D01*
X019370Y006759D02*
X020354Y006759D01*
X020354Y008019D01*
X019370Y008019D01*
X019370Y006759D01*
X031485Y005272D02*
X031485Y010772D01*
X036835Y010772D01*
X036835Y010322D01*
X037385Y010322D01*
X037385Y004872D01*
X036388Y004872D01*
X036331Y004873D01*
X036273Y004878D01*
X036216Y004885D01*
X036160Y004896D01*
X036104Y004909D01*
X036049Y004925D01*
X035994Y004944D01*
X034215Y005272D02*
X031485Y005272D01*
X034215Y005272D02*
X034355Y005270D01*
X034495Y005264D01*
X034634Y005254D01*
X034774Y005241D01*
X034913Y005223D01*
X035051Y005202D01*
X035189Y005176D01*
X035326Y005147D01*
X035462Y005114D01*
X035597Y005077D01*
X035731Y005037D01*
X035863Y004992D01*
X035995Y004944D01*
D16*
X036102Y021759D02*
X036535Y021759D01*
X036535Y022350D01*
X036535Y023911D01*
X035472Y024988D02*
X035472Y025381D01*
X036535Y025381D01*
X035472Y024988D02*
X032795Y024988D01*
X032795Y025381D01*
X031732Y025381D01*
X031732Y023911D02*
X031732Y022350D01*
X031732Y021759D01*
X032165Y021759D01*
X032165Y022350D01*
X036102Y022350D01*
X036102Y021759D01*
X036102Y022350D02*
X036535Y022350D01*
X032165Y022350D02*
X031732Y022350D01*
X030236Y022350D02*
X030236Y023911D01*
X029173Y024988D02*
X029173Y025381D01*
X030236Y025381D01*
X029173Y024988D02*
X026496Y024988D01*
X026496Y025381D01*
X025433Y025381D01*
X025433Y023911D02*
X025433Y022350D01*
X025433Y021759D01*
X025866Y021759D01*
X025866Y022350D01*
X029803Y022350D01*
X029803Y021759D01*
X030236Y021759D01*
X030236Y022350D01*
X029803Y022350D01*
X025866Y022350D02*
X025433Y022350D01*
X023937Y022350D02*
X023937Y023911D01*
X022874Y024988D02*
X022874Y025381D01*
X023937Y025381D01*
X022874Y024988D02*
X020197Y024988D01*
X020197Y025381D01*
X019134Y025381D01*
X019134Y023911D02*
X019134Y022350D01*
X019134Y021759D01*
X019567Y021759D01*
X019567Y022350D01*
X023504Y022350D01*
X023504Y021759D01*
X023937Y021759D01*
X023937Y022350D01*
X023504Y022350D01*
X019567Y022350D02*
X019134Y022350D01*
X016798Y006307D02*
X016800Y006327D01*
X016805Y006347D01*
X016815Y006365D01*
X016827Y006382D01*
X016842Y006396D01*
X016860Y006406D01*
X016879Y006414D01*
X016899Y006418D01*
X016919Y006418D01*
X016939Y006414D01*
X016958Y006406D01*
X016976Y006396D01*
X016991Y006382D01*
X017003Y006365D01*
X017013Y006347D01*
X017018Y006327D01*
X017020Y006307D01*
X017018Y006287D01*
X017013Y006267D01*
X017003Y006249D01*
X016991Y006232D01*
X016976Y006218D01*
X016958Y006208D01*
X016939Y006200D01*
X016919Y006196D01*
X016899Y006196D01*
X016879Y006200D01*
X016860Y006208D01*
X016842Y006218D01*
X016827Y006232D01*
X016815Y006249D01*
X016805Y006267D01*
X016800Y006287D01*
X016798Y006307D01*
D17*
X017460Y006405D03*
X017460Y006602D03*
X017460Y006799D03*
X017460Y006996D03*
X017460Y007193D03*
X017460Y007389D03*
X017460Y007586D03*
X017460Y007783D03*
X017460Y007980D03*
X017460Y008177D03*
X017460Y008374D03*
X017460Y008570D03*
X017460Y008767D03*
X017460Y008964D03*
X017460Y009161D03*
X017460Y009358D03*
X013208Y009358D03*
X013208Y009161D03*
X013208Y008964D03*
X013208Y008767D03*
X013208Y008570D03*
X013208Y008374D03*
X013208Y008177D03*
X013208Y007980D03*
X013208Y007783D03*
X013208Y007586D03*
X013208Y007389D03*
X013208Y007193D03*
X013208Y006996D03*
X013208Y006799D03*
X013208Y006602D03*
X013208Y006405D03*
D18*
X013858Y005756D03*
X014055Y005756D03*
X014252Y005756D03*
X014448Y005756D03*
X014645Y005756D03*
X014842Y005756D03*
X015039Y005756D03*
X015236Y005756D03*
X015433Y005756D03*
X015630Y005756D03*
X015826Y005756D03*
X016023Y005756D03*
X016220Y005756D03*
X016417Y005756D03*
X016614Y005756D03*
X016811Y005756D03*
X016811Y010007D03*
X016614Y010007D03*
X016417Y010007D03*
X016220Y010007D03*
X016023Y010007D03*
X015826Y010007D03*
X015630Y010007D03*
X015433Y010007D03*
X015236Y010007D03*
X015039Y010007D03*
X014842Y010007D03*
X014645Y010007D03*
X014448Y010007D03*
X014252Y010007D03*
X014055Y010007D03*
X013858Y010007D03*
D19*
X014689Y008205D02*
X014689Y007671D01*
X014796Y007564D01*
X015010Y007564D01*
X015116Y007671D01*
X015116Y008205D01*
X015334Y007991D02*
X015547Y008205D01*
X015547Y007564D01*
X015334Y007564D02*
X015761Y007564D01*
X011024Y007138D02*
X009605Y007138D01*
X009605Y005278D02*
X011024Y005278D01*
X014526Y015946D02*
X015946Y015946D01*
X015946Y019306D02*
X014526Y019306D01*
X014676Y022622D02*
X014713Y022622D01*
X014676Y022622D02*
X014676Y023259D01*
X014713Y023259D01*
X015030Y023259D02*
X015441Y023259D01*
X015759Y023259D02*
X015796Y023259D01*
X015796Y022622D01*
X015759Y022622D01*
X015441Y022622D02*
X015404Y022622D01*
X015067Y022622D02*
X015030Y022622D01*
X010641Y018080D02*
X010641Y016580D01*
X010391Y016330D01*
X009891Y016330D01*
X009641Y016580D01*
X009391Y016330D01*
X008891Y016330D01*
X008641Y016580D01*
X008391Y016330D01*
X007891Y016330D01*
X007641Y016580D01*
X007391Y016330D01*
X006891Y016330D01*
X006641Y016580D01*
X006641Y018080D01*
X006891Y018330D01*
X007391Y018330D01*
X007641Y018080D01*
X007891Y018330D01*
X008391Y018330D01*
X008641Y018080D01*
X008891Y018330D01*
X009391Y018330D01*
X009641Y018080D01*
X009891Y018330D01*
X010391Y018330D01*
X010641Y018080D01*
D20*
X012165Y019594D02*
X012165Y024712D01*
X012283Y024712D01*
X014252Y024712D02*
X014645Y024712D01*
X014645Y019594D01*
X014252Y019594D01*
X015826Y019594D02*
X015826Y024712D01*
X016220Y024712D01*
X018189Y024712D02*
X018307Y024712D01*
X018307Y019594D01*
X018189Y019594D01*
X016220Y019594D02*
X015826Y019594D01*
X012283Y019594D02*
X012165Y019594D01*
M02*
