G75*
%MOIN*%
%OFA0B0*%
%FSLAX24Y24*%
%IPPOS*%
%LPD*%
%AMOC8*
5,1,8,0,0,1.08239X$1,22.5*
%
%ADD10C,0.0050*%
%ADD11C,0.0000*%
%ADD12C,0.0016*%
%ADD13C,0.0013*%
%ADD14C,0.0014*%
%ADD15C,0.0018*%
%ADD16C,0.0016*%
%ADD17C,0.0015*%
%ADD18C,0.0039*%
%ADD19R,0.0157X0.1496*%
%ADD20C,0.0016*%
%ADD21C,0.0394*%
D10*
X005787Y006405D02*
X005787Y019043D01*
X006417Y019043D01*
X006442Y019048D01*
X006466Y019056D01*
X006488Y019067D01*
X006509Y019082D01*
X006528Y019099D01*
X006544Y019119D01*
X006556Y019141D01*
X006566Y019164D01*
X006572Y019189D01*
X006575Y019214D01*
X006574Y019240D01*
X006574Y019239D02*
X006575Y019265D01*
X006572Y019290D01*
X006566Y019315D01*
X006556Y019338D01*
X006544Y019360D01*
X006528Y019380D01*
X006509Y019397D01*
X006488Y019412D01*
X006466Y019423D01*
X006442Y019431D01*
X006417Y019436D01*
X006417Y019437D02*
X005787Y019437D01*
X005787Y023728D01*
X005789Y023805D01*
X005795Y023882D01*
X005804Y023959D01*
X005817Y024035D01*
X005834Y024111D01*
X005855Y024185D01*
X005879Y024259D01*
X005907Y024331D01*
X005938Y024401D01*
X005973Y024470D01*
X006011Y024538D01*
X006052Y024603D01*
X006097Y024666D01*
X006145Y024727D01*
X006195Y024786D01*
X006248Y024842D01*
X006304Y024895D01*
X006363Y024945D01*
X006424Y024993D01*
X006487Y025038D01*
X006552Y025079D01*
X006620Y025117D01*
X006689Y025152D01*
X006759Y025183D01*
X006831Y025211D01*
X006905Y025235D01*
X006979Y025256D01*
X007055Y025273D01*
X007131Y025286D01*
X007208Y025295D01*
X007285Y025301D01*
X007362Y025303D01*
X011693Y025303D01*
X011693Y024909D01*
X012086Y024909D01*
X012086Y025303D01*
X037283Y025303D01*
X037283Y024712D01*
X037677Y024712D01*
X037677Y025303D01*
X042008Y025303D01*
X042085Y025301D01*
X042162Y025295D01*
X042239Y025286D01*
X042315Y025273D01*
X042391Y025256D01*
X042465Y025235D01*
X042539Y025211D01*
X042611Y025183D01*
X042681Y025152D01*
X042750Y025117D01*
X042818Y025079D01*
X042883Y025038D01*
X042946Y024993D01*
X043007Y024945D01*
X043066Y024895D01*
X043122Y024842D01*
X043175Y024786D01*
X043225Y024727D01*
X043273Y024666D01*
X043318Y024603D01*
X043359Y024538D01*
X043397Y024470D01*
X043432Y024401D01*
X043463Y024331D01*
X043491Y024259D01*
X043515Y024185D01*
X043536Y024111D01*
X043553Y024035D01*
X043566Y023959D01*
X043575Y023882D01*
X043581Y023805D01*
X043583Y023728D01*
X043582Y023728D02*
X043582Y019437D01*
X042952Y019437D01*
X042952Y019436D02*
X042927Y019431D01*
X042903Y019423D01*
X042881Y019412D01*
X042860Y019397D01*
X042841Y019380D01*
X042825Y019360D01*
X042813Y019338D01*
X042803Y019315D01*
X042797Y019290D01*
X042794Y019265D01*
X042795Y019239D01*
X042795Y019240D02*
X042794Y019214D01*
X042797Y019189D01*
X042803Y019164D01*
X042813Y019141D01*
X042825Y019119D01*
X042841Y019099D01*
X042860Y019082D01*
X042881Y019067D01*
X042903Y019056D01*
X042927Y019048D01*
X042952Y019043D01*
X043582Y019043D01*
X043582Y006799D01*
X043583Y006799D02*
X043581Y006722D01*
X043575Y006645D01*
X043566Y006568D01*
X043553Y006492D01*
X043536Y006416D01*
X043515Y006342D01*
X043491Y006268D01*
X043463Y006196D01*
X043432Y006126D01*
X043397Y006057D01*
X043359Y005989D01*
X043318Y005924D01*
X043273Y005861D01*
X043225Y005800D01*
X043175Y005741D01*
X043122Y005685D01*
X043066Y005632D01*
X043007Y005582D01*
X042946Y005534D01*
X042883Y005489D01*
X042818Y005448D01*
X042750Y005410D01*
X042681Y005375D01*
X042611Y005344D01*
X042539Y005316D01*
X042465Y005292D01*
X042391Y005271D01*
X042315Y005254D01*
X042239Y005241D01*
X042162Y005232D01*
X042085Y005226D01*
X042008Y005224D01*
X006968Y005224D01*
X006902Y005226D01*
X006836Y005231D01*
X006770Y005241D01*
X006705Y005254D01*
X006641Y005270D01*
X006578Y005290D01*
X006516Y005314D01*
X006456Y005341D01*
X006397Y005371D01*
X006340Y005405D01*
X006285Y005442D01*
X006232Y005482D01*
X006181Y005524D01*
X006133Y005570D01*
X006087Y005618D01*
X006045Y005669D01*
X006005Y005722D01*
X005968Y005777D01*
X005934Y005834D01*
X005904Y005893D01*
X005877Y005953D01*
X005853Y006015D01*
X005833Y006078D01*
X005817Y006142D01*
X005804Y006207D01*
X005794Y006273D01*
X005789Y006339D01*
X005787Y006405D01*
X011693Y012507D02*
X011693Y024515D01*
X012086Y024515D01*
X012086Y012704D01*
X018189Y012704D01*
X018189Y012311D01*
X011889Y012311D01*
X011889Y012310D02*
X011863Y012312D01*
X011838Y012317D01*
X011814Y012325D01*
X011791Y012336D01*
X011769Y012351D01*
X011750Y012368D01*
X011733Y012387D01*
X011718Y012409D01*
X011707Y012432D01*
X011699Y012456D01*
X011694Y012481D01*
X011692Y012507D01*
X018582Y012311D02*
X018582Y012704D01*
X024488Y012704D01*
X024488Y012311D01*
X018582Y012311D01*
X024882Y012311D02*
X024882Y012704D01*
X030787Y012704D01*
X030787Y012311D01*
X024882Y012311D01*
X031181Y012311D02*
X031181Y012704D01*
X037283Y012704D01*
X037283Y024319D01*
X037677Y024319D01*
X037677Y012507D01*
X037675Y012481D01*
X037670Y012456D01*
X037662Y012432D01*
X037651Y012409D01*
X037636Y012387D01*
X037619Y012368D01*
X037600Y012351D01*
X037579Y012336D01*
X037555Y012325D01*
X037531Y012317D01*
X037506Y012312D01*
X037480Y012310D01*
X037480Y012311D02*
X031181Y012311D01*
D11*
X032336Y006481D02*
X032338Y006507D01*
X032344Y006533D01*
X032353Y006557D01*
X032366Y006580D01*
X032383Y006600D01*
X032402Y006618D01*
X032424Y006633D01*
X032447Y006644D01*
X032472Y006652D01*
X032498Y006656D01*
X032524Y006656D01*
X032550Y006652D01*
X032575Y006644D01*
X032599Y006633D01*
X032620Y006618D01*
X032639Y006600D01*
X032656Y006580D01*
X032669Y006557D01*
X032678Y006533D01*
X032684Y006507D01*
X032686Y006481D01*
X032684Y006455D01*
X032678Y006429D01*
X032669Y006405D01*
X032656Y006382D01*
X032639Y006362D01*
X032620Y006344D01*
X032598Y006329D01*
X032575Y006318D01*
X032550Y006310D01*
X032524Y006306D01*
X032498Y006306D01*
X032472Y006310D01*
X032447Y006318D01*
X032423Y006329D01*
X032402Y006344D01*
X032383Y006362D01*
X032366Y006382D01*
X032353Y006405D01*
X032344Y006429D01*
X032338Y006455D01*
X032336Y006481D01*
X035486Y006481D02*
X035488Y006507D01*
X035494Y006533D01*
X035503Y006557D01*
X035516Y006580D01*
X035533Y006600D01*
X035552Y006618D01*
X035574Y006633D01*
X035597Y006644D01*
X035622Y006652D01*
X035648Y006656D01*
X035674Y006656D01*
X035700Y006652D01*
X035725Y006644D01*
X035749Y006633D01*
X035770Y006618D01*
X035789Y006600D01*
X035806Y006580D01*
X035819Y006557D01*
X035828Y006533D01*
X035834Y006507D01*
X035836Y006481D01*
X035834Y006455D01*
X035828Y006429D01*
X035819Y006405D01*
X035806Y006382D01*
X035789Y006362D01*
X035770Y006344D01*
X035748Y006329D01*
X035725Y006318D01*
X035700Y006310D01*
X035674Y006306D01*
X035648Y006306D01*
X035622Y006310D01*
X035597Y006318D01*
X035573Y006329D01*
X035552Y006344D01*
X035533Y006362D01*
X035516Y006382D01*
X035503Y006405D01*
X035494Y006429D01*
X035488Y006455D01*
X035486Y006481D01*
X038070Y007881D02*
X038072Y007920D01*
X038078Y007959D01*
X038088Y007997D01*
X038101Y008034D01*
X038118Y008069D01*
X038138Y008103D01*
X038162Y008134D01*
X038189Y008163D01*
X038218Y008189D01*
X038250Y008212D01*
X038284Y008232D01*
X038320Y008248D01*
X038357Y008260D01*
X038396Y008269D01*
X038435Y008274D01*
X038474Y008275D01*
X038513Y008272D01*
X038552Y008265D01*
X038589Y008254D01*
X038626Y008240D01*
X038661Y008222D01*
X038694Y008201D01*
X038725Y008176D01*
X038753Y008149D01*
X038778Y008119D01*
X038800Y008086D01*
X038819Y008052D01*
X038834Y008016D01*
X038846Y007978D01*
X038854Y007940D01*
X038858Y007901D01*
X038858Y007861D01*
X038854Y007822D01*
X038846Y007784D01*
X038834Y007746D01*
X038819Y007710D01*
X038800Y007676D01*
X038778Y007643D01*
X038753Y007613D01*
X038725Y007586D01*
X038694Y007561D01*
X038661Y007540D01*
X038626Y007522D01*
X038589Y007508D01*
X038552Y007497D01*
X038513Y007490D01*
X038474Y007487D01*
X038435Y007488D01*
X038396Y007493D01*
X038357Y007502D01*
X038320Y007514D01*
X038284Y007530D01*
X038250Y007550D01*
X038218Y007573D01*
X038189Y007599D01*
X038162Y007628D01*
X038138Y007659D01*
X038118Y007693D01*
X038101Y007728D01*
X038088Y007765D01*
X038078Y007803D01*
X038072Y007842D01*
X038070Y007881D01*
X041299Y006763D02*
X041301Y006822D01*
X041307Y006881D01*
X041317Y006939D01*
X041330Y006997D01*
X041348Y007054D01*
X041369Y007109D01*
X041394Y007163D01*
X041423Y007215D01*
X041455Y007264D01*
X041490Y007312D01*
X041528Y007357D01*
X041569Y007400D01*
X041613Y007440D01*
X041659Y007476D01*
X041708Y007510D01*
X041759Y007540D01*
X041812Y007567D01*
X041867Y007590D01*
X041922Y007609D01*
X041980Y007625D01*
X042038Y007637D01*
X042096Y007645D01*
X042155Y007649D01*
X042215Y007649D01*
X042274Y007645D01*
X042332Y007637D01*
X042390Y007625D01*
X042448Y007609D01*
X042503Y007590D01*
X042558Y007567D01*
X042611Y007540D01*
X042662Y007510D01*
X042711Y007476D01*
X042757Y007440D01*
X042801Y007400D01*
X042842Y007357D01*
X042880Y007312D01*
X042915Y007264D01*
X042947Y007215D01*
X042976Y007163D01*
X043001Y007109D01*
X043022Y007054D01*
X043040Y006997D01*
X043053Y006939D01*
X043063Y006881D01*
X043069Y006822D01*
X043071Y006763D01*
X043069Y006704D01*
X043063Y006645D01*
X043053Y006587D01*
X043040Y006529D01*
X043022Y006472D01*
X043001Y006417D01*
X042976Y006363D01*
X042947Y006311D01*
X042915Y006262D01*
X042880Y006214D01*
X042842Y006169D01*
X042801Y006126D01*
X042757Y006086D01*
X042711Y006050D01*
X042662Y006016D01*
X042611Y005986D01*
X042558Y005959D01*
X042503Y005936D01*
X042448Y005917D01*
X042390Y005901D01*
X042332Y005889D01*
X042274Y005881D01*
X042215Y005877D01*
X042155Y005877D01*
X042096Y005881D01*
X042038Y005889D01*
X041980Y005901D01*
X041922Y005917D01*
X041867Y005936D01*
X041812Y005959D01*
X041759Y005986D01*
X041708Y006016D01*
X041659Y006050D01*
X041613Y006086D01*
X041569Y006126D01*
X041528Y006169D01*
X041490Y006214D01*
X041455Y006262D01*
X041423Y006311D01*
X041394Y006363D01*
X041369Y006417D01*
X041348Y006472D01*
X041330Y006529D01*
X041317Y006587D01*
X041307Y006645D01*
X041301Y006704D01*
X041299Y006763D01*
X038070Y022645D02*
X038072Y022684D01*
X038078Y022723D01*
X038088Y022761D01*
X038101Y022798D01*
X038118Y022833D01*
X038138Y022867D01*
X038162Y022898D01*
X038189Y022927D01*
X038218Y022953D01*
X038250Y022976D01*
X038284Y022996D01*
X038320Y023012D01*
X038357Y023024D01*
X038396Y023033D01*
X038435Y023038D01*
X038474Y023039D01*
X038513Y023036D01*
X038552Y023029D01*
X038589Y023018D01*
X038626Y023004D01*
X038661Y022986D01*
X038694Y022965D01*
X038725Y022940D01*
X038753Y022913D01*
X038778Y022883D01*
X038800Y022850D01*
X038819Y022816D01*
X038834Y022780D01*
X038846Y022742D01*
X038854Y022704D01*
X038858Y022665D01*
X038858Y022625D01*
X038854Y022586D01*
X038846Y022548D01*
X038834Y022510D01*
X038819Y022474D01*
X038800Y022440D01*
X038778Y022407D01*
X038753Y022377D01*
X038725Y022350D01*
X038694Y022325D01*
X038661Y022304D01*
X038626Y022286D01*
X038589Y022272D01*
X038552Y022261D01*
X038513Y022254D01*
X038474Y022251D01*
X038435Y022252D01*
X038396Y022257D01*
X038357Y022266D01*
X038320Y022278D01*
X038284Y022294D01*
X038250Y022314D01*
X038218Y022337D01*
X038189Y022363D01*
X038162Y022392D01*
X038138Y022423D01*
X038118Y022457D01*
X038101Y022492D01*
X038088Y022529D01*
X038078Y022567D01*
X038072Y022606D01*
X038070Y022645D01*
X041299Y023763D02*
X041301Y023822D01*
X041307Y023881D01*
X041317Y023939D01*
X041330Y023997D01*
X041348Y024054D01*
X041369Y024109D01*
X041394Y024163D01*
X041423Y024215D01*
X041455Y024264D01*
X041490Y024312D01*
X041528Y024357D01*
X041569Y024400D01*
X041613Y024440D01*
X041659Y024476D01*
X041708Y024510D01*
X041759Y024540D01*
X041812Y024567D01*
X041867Y024590D01*
X041922Y024609D01*
X041980Y024625D01*
X042038Y024637D01*
X042096Y024645D01*
X042155Y024649D01*
X042215Y024649D01*
X042274Y024645D01*
X042332Y024637D01*
X042390Y024625D01*
X042448Y024609D01*
X042503Y024590D01*
X042558Y024567D01*
X042611Y024540D01*
X042662Y024510D01*
X042711Y024476D01*
X042757Y024440D01*
X042801Y024400D01*
X042842Y024357D01*
X042880Y024312D01*
X042915Y024264D01*
X042947Y024215D01*
X042976Y024163D01*
X043001Y024109D01*
X043022Y024054D01*
X043040Y023997D01*
X043053Y023939D01*
X043063Y023881D01*
X043069Y023822D01*
X043071Y023763D01*
X043069Y023704D01*
X043063Y023645D01*
X043053Y023587D01*
X043040Y023529D01*
X043022Y023472D01*
X043001Y023417D01*
X042976Y023363D01*
X042947Y023311D01*
X042915Y023262D01*
X042880Y023214D01*
X042842Y023169D01*
X042801Y023126D01*
X042757Y023086D01*
X042711Y023050D01*
X042662Y023016D01*
X042611Y022986D01*
X042558Y022959D01*
X042503Y022936D01*
X042448Y022917D01*
X042390Y022901D01*
X042332Y022889D01*
X042274Y022881D01*
X042215Y022877D01*
X042155Y022877D01*
X042096Y022881D01*
X042038Y022889D01*
X041980Y022901D01*
X041922Y022917D01*
X041867Y022936D01*
X041812Y022959D01*
X041759Y022986D01*
X041708Y023016D01*
X041659Y023050D01*
X041613Y023086D01*
X041569Y023126D01*
X041528Y023169D01*
X041490Y023214D01*
X041455Y023262D01*
X041423Y023311D01*
X041394Y023363D01*
X041369Y023417D01*
X041348Y023472D01*
X041330Y023529D01*
X041317Y023587D01*
X041307Y023645D01*
X041301Y023704D01*
X041299Y023763D01*
X010511Y022645D02*
X010513Y022684D01*
X010519Y022723D01*
X010529Y022761D01*
X010542Y022798D01*
X010559Y022833D01*
X010579Y022867D01*
X010603Y022898D01*
X010630Y022927D01*
X010659Y022953D01*
X010691Y022976D01*
X010725Y022996D01*
X010761Y023012D01*
X010798Y023024D01*
X010837Y023033D01*
X010876Y023038D01*
X010915Y023039D01*
X010954Y023036D01*
X010993Y023029D01*
X011030Y023018D01*
X011067Y023004D01*
X011102Y022986D01*
X011135Y022965D01*
X011166Y022940D01*
X011194Y022913D01*
X011219Y022883D01*
X011241Y022850D01*
X011260Y022816D01*
X011275Y022780D01*
X011287Y022742D01*
X011295Y022704D01*
X011299Y022665D01*
X011299Y022625D01*
X011295Y022586D01*
X011287Y022548D01*
X011275Y022510D01*
X011260Y022474D01*
X011241Y022440D01*
X011219Y022407D01*
X011194Y022377D01*
X011166Y022350D01*
X011135Y022325D01*
X011102Y022304D01*
X011067Y022286D01*
X011030Y022272D01*
X010993Y022261D01*
X010954Y022254D01*
X010915Y022251D01*
X010876Y022252D01*
X010837Y022257D01*
X010798Y022266D01*
X010761Y022278D01*
X010725Y022294D01*
X010691Y022314D01*
X010659Y022337D01*
X010630Y022363D01*
X010603Y022392D01*
X010579Y022423D01*
X010559Y022457D01*
X010542Y022492D01*
X010529Y022529D01*
X010519Y022567D01*
X010513Y022606D01*
X010511Y022645D01*
X006299Y023763D02*
X006301Y023822D01*
X006307Y023881D01*
X006317Y023939D01*
X006330Y023997D01*
X006348Y024054D01*
X006369Y024109D01*
X006394Y024163D01*
X006423Y024215D01*
X006455Y024264D01*
X006490Y024312D01*
X006528Y024357D01*
X006569Y024400D01*
X006613Y024440D01*
X006659Y024476D01*
X006708Y024510D01*
X006759Y024540D01*
X006812Y024567D01*
X006867Y024590D01*
X006922Y024609D01*
X006980Y024625D01*
X007038Y024637D01*
X007096Y024645D01*
X007155Y024649D01*
X007215Y024649D01*
X007274Y024645D01*
X007332Y024637D01*
X007390Y024625D01*
X007448Y024609D01*
X007503Y024590D01*
X007558Y024567D01*
X007611Y024540D01*
X007662Y024510D01*
X007711Y024476D01*
X007757Y024440D01*
X007801Y024400D01*
X007842Y024357D01*
X007880Y024312D01*
X007915Y024264D01*
X007947Y024215D01*
X007976Y024163D01*
X008001Y024109D01*
X008022Y024054D01*
X008040Y023997D01*
X008053Y023939D01*
X008063Y023881D01*
X008069Y023822D01*
X008071Y023763D01*
X008069Y023704D01*
X008063Y023645D01*
X008053Y023587D01*
X008040Y023529D01*
X008022Y023472D01*
X008001Y023417D01*
X007976Y023363D01*
X007947Y023311D01*
X007915Y023262D01*
X007880Y023214D01*
X007842Y023169D01*
X007801Y023126D01*
X007757Y023086D01*
X007711Y023050D01*
X007662Y023016D01*
X007611Y022986D01*
X007558Y022959D01*
X007503Y022936D01*
X007448Y022917D01*
X007390Y022901D01*
X007332Y022889D01*
X007274Y022881D01*
X007215Y022877D01*
X007155Y022877D01*
X007096Y022881D01*
X007038Y022889D01*
X006980Y022901D01*
X006922Y022917D01*
X006867Y022936D01*
X006812Y022959D01*
X006759Y022986D01*
X006708Y023016D01*
X006659Y023050D01*
X006613Y023086D01*
X006569Y023126D01*
X006528Y023169D01*
X006490Y023214D01*
X006455Y023262D01*
X006423Y023311D01*
X006394Y023363D01*
X006369Y023417D01*
X006348Y023472D01*
X006330Y023529D01*
X006317Y023587D01*
X006307Y023645D01*
X006301Y023704D01*
X006299Y023763D01*
X010511Y007881D02*
X010513Y007920D01*
X010519Y007959D01*
X010529Y007997D01*
X010542Y008034D01*
X010559Y008069D01*
X010579Y008103D01*
X010603Y008134D01*
X010630Y008163D01*
X010659Y008189D01*
X010691Y008212D01*
X010725Y008232D01*
X010761Y008248D01*
X010798Y008260D01*
X010837Y008269D01*
X010876Y008274D01*
X010915Y008275D01*
X010954Y008272D01*
X010993Y008265D01*
X011030Y008254D01*
X011067Y008240D01*
X011102Y008222D01*
X011135Y008201D01*
X011166Y008176D01*
X011194Y008149D01*
X011219Y008119D01*
X011241Y008086D01*
X011260Y008052D01*
X011275Y008016D01*
X011287Y007978D01*
X011295Y007940D01*
X011299Y007901D01*
X011299Y007861D01*
X011295Y007822D01*
X011287Y007784D01*
X011275Y007746D01*
X011260Y007710D01*
X011241Y007676D01*
X011219Y007643D01*
X011194Y007613D01*
X011166Y007586D01*
X011135Y007561D01*
X011102Y007540D01*
X011067Y007522D01*
X011030Y007508D01*
X010993Y007497D01*
X010954Y007490D01*
X010915Y007487D01*
X010876Y007488D01*
X010837Y007493D01*
X010798Y007502D01*
X010761Y007514D01*
X010725Y007530D01*
X010691Y007550D01*
X010659Y007573D01*
X010630Y007599D01*
X010603Y007628D01*
X010579Y007659D01*
X010559Y007693D01*
X010542Y007728D01*
X010529Y007765D01*
X010519Y007803D01*
X010513Y007842D01*
X010511Y007881D01*
X006299Y006763D02*
X006301Y006822D01*
X006307Y006881D01*
X006317Y006939D01*
X006330Y006997D01*
X006348Y007054D01*
X006369Y007109D01*
X006394Y007163D01*
X006423Y007215D01*
X006455Y007264D01*
X006490Y007312D01*
X006528Y007357D01*
X006569Y007400D01*
X006613Y007440D01*
X006659Y007476D01*
X006708Y007510D01*
X006759Y007540D01*
X006812Y007567D01*
X006867Y007590D01*
X006922Y007609D01*
X006980Y007625D01*
X007038Y007637D01*
X007096Y007645D01*
X007155Y007649D01*
X007215Y007649D01*
X007274Y007645D01*
X007332Y007637D01*
X007390Y007625D01*
X007448Y007609D01*
X007503Y007590D01*
X007558Y007567D01*
X007611Y007540D01*
X007662Y007510D01*
X007711Y007476D01*
X007757Y007440D01*
X007801Y007400D01*
X007842Y007357D01*
X007880Y007312D01*
X007915Y007264D01*
X007947Y007215D01*
X007976Y007163D01*
X008001Y007109D01*
X008022Y007054D01*
X008040Y006997D01*
X008053Y006939D01*
X008063Y006881D01*
X008069Y006822D01*
X008071Y006763D01*
X008069Y006704D01*
X008063Y006645D01*
X008053Y006587D01*
X008040Y006529D01*
X008022Y006472D01*
X008001Y006417D01*
X007976Y006363D01*
X007947Y006311D01*
X007915Y006262D01*
X007880Y006214D01*
X007842Y006169D01*
X007801Y006126D01*
X007757Y006086D01*
X007711Y006050D01*
X007662Y006016D01*
X007611Y005986D01*
X007558Y005959D01*
X007503Y005936D01*
X007448Y005917D01*
X007390Y005901D01*
X007332Y005889D01*
X007274Y005881D01*
X007215Y005877D01*
X007155Y005877D01*
X007096Y005881D01*
X007038Y005889D01*
X006980Y005901D01*
X006922Y005917D01*
X006867Y005936D01*
X006812Y005959D01*
X006759Y005986D01*
X006708Y006016D01*
X006659Y006050D01*
X006613Y006086D01*
X006569Y006126D01*
X006528Y006169D01*
X006490Y006214D01*
X006455Y006262D01*
X006423Y006311D01*
X006394Y006363D01*
X006369Y006417D01*
X006348Y006472D01*
X006330Y006529D01*
X006317Y006587D01*
X006307Y006645D01*
X006301Y006704D01*
X006299Y006763D01*
D12*
X041402Y010948D02*
X041402Y012492D01*
X041402Y010948D02*
X039858Y010948D01*
X039858Y012492D01*
X041402Y012492D01*
X041402Y010963D02*
X039858Y010963D01*
X039858Y010978D02*
X041402Y010978D01*
X041402Y010993D02*
X039858Y010993D01*
X039858Y011008D02*
X041402Y011008D01*
X041402Y011023D02*
X039858Y011023D01*
X039858Y011038D02*
X041402Y011038D01*
X041402Y011053D02*
X039858Y011053D01*
X039858Y011068D02*
X041402Y011068D01*
X041402Y011083D02*
X039858Y011083D01*
X039858Y011098D02*
X041402Y011098D01*
X041402Y011113D02*
X039858Y011113D01*
X039858Y011128D02*
X041402Y011128D01*
X041402Y011143D02*
X039858Y011143D01*
X039858Y011158D02*
X041402Y011158D01*
X041402Y011173D02*
X039858Y011173D01*
X039858Y011188D02*
X041402Y011188D01*
X041402Y011203D02*
X039858Y011203D01*
X039858Y011218D02*
X041402Y011218D01*
X041402Y011233D02*
X039858Y011233D01*
X039858Y011248D02*
X041402Y011248D01*
X041402Y011263D02*
X039858Y011263D01*
X039858Y011278D02*
X041402Y011278D01*
X041402Y011293D02*
X039858Y011293D01*
X039858Y011308D02*
X041402Y011308D01*
X041402Y011323D02*
X039858Y011323D01*
X039858Y011338D02*
X041402Y011338D01*
X041402Y011353D02*
X039858Y011353D01*
X039858Y011368D02*
X041402Y011368D01*
X041402Y011383D02*
X039858Y011383D01*
X039858Y011398D02*
X041402Y011398D01*
X041402Y011413D02*
X039858Y011413D01*
X039858Y011428D02*
X041402Y011428D01*
X041402Y011443D02*
X039858Y011443D01*
X039858Y011458D02*
X041402Y011458D01*
X041402Y011473D02*
X039858Y011473D01*
X039858Y011488D02*
X041402Y011488D01*
X041402Y011503D02*
X039858Y011503D01*
X039858Y011518D02*
X041402Y011518D01*
X041402Y011533D02*
X039858Y011533D01*
X039858Y011548D02*
X041402Y011548D01*
X041402Y011563D02*
X039858Y011563D01*
X039858Y011578D02*
X041402Y011578D01*
X041402Y011593D02*
X039858Y011593D01*
X039858Y011608D02*
X041402Y011608D01*
X041402Y011623D02*
X039858Y011623D01*
X039858Y011638D02*
X041402Y011638D01*
X041402Y011653D02*
X039858Y011653D01*
X039858Y011668D02*
X041402Y011668D01*
X041402Y011683D02*
X039858Y011683D01*
X039858Y011698D02*
X041402Y011698D01*
X041402Y011713D02*
X039858Y011713D01*
X039858Y011728D02*
X041402Y011728D01*
X041402Y011743D02*
X039858Y011743D01*
X039858Y011758D02*
X041402Y011758D01*
X041402Y011773D02*
X039858Y011773D01*
X039858Y011788D02*
X041402Y011788D01*
X041402Y011803D02*
X039858Y011803D01*
X039858Y011818D02*
X041402Y011818D01*
X041402Y011833D02*
X039858Y011833D01*
X039858Y011848D02*
X041402Y011848D01*
X041402Y011863D02*
X039858Y011863D01*
X039858Y011878D02*
X041402Y011878D01*
X041402Y011893D02*
X039858Y011893D01*
X039858Y011908D02*
X041402Y011908D01*
X041402Y011923D02*
X039858Y011923D01*
X039858Y011938D02*
X041402Y011938D01*
X041402Y011953D02*
X039858Y011953D01*
X039858Y011968D02*
X041402Y011968D01*
X041402Y011983D02*
X039858Y011983D01*
X039858Y011998D02*
X041402Y011998D01*
X041402Y012013D02*
X039858Y012013D01*
X039858Y012028D02*
X041402Y012028D01*
X041402Y012043D02*
X039858Y012043D01*
X039858Y012058D02*
X041402Y012058D01*
X041402Y012073D02*
X039858Y012073D01*
X039858Y012088D02*
X041402Y012088D01*
X041402Y012103D02*
X039858Y012103D01*
X039858Y012118D02*
X041402Y012118D01*
X041402Y012133D02*
X039858Y012133D01*
X039858Y012148D02*
X041402Y012148D01*
X041402Y012163D02*
X039858Y012163D01*
X039858Y012178D02*
X041402Y012178D01*
X041402Y012193D02*
X039858Y012193D01*
X039858Y012208D02*
X041402Y012208D01*
X041402Y012223D02*
X039858Y012223D01*
X039858Y012238D02*
X041402Y012238D01*
X041402Y012253D02*
X039858Y012253D01*
X039858Y012268D02*
X041402Y012268D01*
X041402Y012283D02*
X039858Y012283D01*
X039858Y012298D02*
X041402Y012298D01*
X041402Y012313D02*
X039858Y012313D01*
X039858Y012328D02*
X041402Y012328D01*
X041402Y012343D02*
X039858Y012343D01*
X039858Y012358D02*
X041402Y012358D01*
X041402Y012373D02*
X039858Y012373D01*
X039858Y012388D02*
X041402Y012388D01*
X041402Y012403D02*
X039858Y012403D01*
X039858Y012418D02*
X041402Y012418D01*
X041402Y012433D02*
X039858Y012433D01*
X039858Y012448D02*
X041402Y012448D01*
X041402Y012463D02*
X039858Y012463D01*
X039858Y012478D02*
X041402Y012478D01*
D13*
X041249Y014201D02*
X041249Y015439D01*
X041249Y014201D02*
X040011Y014201D01*
X040011Y015439D01*
X041249Y015439D01*
X041249Y014213D02*
X040011Y014213D01*
X040011Y014225D02*
X041249Y014225D01*
X041249Y014237D02*
X040011Y014237D01*
X040011Y014249D02*
X041249Y014249D01*
X041249Y014261D02*
X040011Y014261D01*
X040011Y014273D02*
X041249Y014273D01*
X041249Y014285D02*
X040011Y014285D01*
X040011Y014297D02*
X041249Y014297D01*
X041249Y014309D02*
X040011Y014309D01*
X040011Y014321D02*
X041249Y014321D01*
X041249Y014333D02*
X040011Y014333D01*
X040011Y014345D02*
X041249Y014345D01*
X041249Y014357D02*
X040011Y014357D01*
X040011Y014369D02*
X041249Y014369D01*
X041249Y014381D02*
X040011Y014381D01*
X040011Y014393D02*
X041249Y014393D01*
X041249Y014405D02*
X040011Y014405D01*
X040011Y014417D02*
X041249Y014417D01*
X041249Y014429D02*
X040011Y014429D01*
X040011Y014441D02*
X041249Y014441D01*
X041249Y014453D02*
X040011Y014453D01*
X040011Y014465D02*
X041249Y014465D01*
X041249Y014477D02*
X040011Y014477D01*
X040011Y014489D02*
X041249Y014489D01*
X041249Y014501D02*
X040011Y014501D01*
X040011Y014513D02*
X041249Y014513D01*
X041249Y014525D02*
X040011Y014525D01*
X040011Y014537D02*
X041249Y014537D01*
X041249Y014549D02*
X040011Y014549D01*
X040011Y014561D02*
X041249Y014561D01*
X041249Y014573D02*
X040011Y014573D01*
X040011Y014585D02*
X041249Y014585D01*
X041249Y014597D02*
X040011Y014597D01*
X040011Y014609D02*
X041249Y014609D01*
X041249Y014621D02*
X040011Y014621D01*
X040011Y014633D02*
X041249Y014633D01*
X041249Y014645D02*
X040011Y014645D01*
X040011Y014657D02*
X041249Y014657D01*
X041249Y014669D02*
X040011Y014669D01*
X040011Y014681D02*
X041249Y014681D01*
X041249Y014693D02*
X040011Y014693D01*
X040011Y014705D02*
X041249Y014705D01*
X041249Y014717D02*
X040011Y014717D01*
X040011Y014729D02*
X041249Y014729D01*
X041249Y014741D02*
X040011Y014741D01*
X040011Y014753D02*
X041249Y014753D01*
X041249Y014765D02*
X040011Y014765D01*
X040011Y014777D02*
X041249Y014777D01*
X041249Y014789D02*
X040011Y014789D01*
X040011Y014801D02*
X041249Y014801D01*
X041249Y014813D02*
X040011Y014813D01*
X040011Y014825D02*
X041249Y014825D01*
X041249Y014837D02*
X040011Y014837D01*
X040011Y014849D02*
X041249Y014849D01*
X041249Y014861D02*
X040011Y014861D01*
X040011Y014873D02*
X041249Y014873D01*
X041249Y014885D02*
X040011Y014885D01*
X040011Y014897D02*
X041249Y014897D01*
X041249Y014909D02*
X040011Y014909D01*
X040011Y014921D02*
X041249Y014921D01*
X041249Y014933D02*
X040011Y014933D01*
X040011Y014945D02*
X041249Y014945D01*
X041249Y014957D02*
X040011Y014957D01*
X040011Y014969D02*
X041249Y014969D01*
X041249Y014981D02*
X040011Y014981D01*
X040011Y014993D02*
X041249Y014993D01*
X041249Y015005D02*
X040011Y015005D01*
X040011Y015017D02*
X041249Y015017D01*
X041249Y015029D02*
X040011Y015029D01*
X040011Y015041D02*
X041249Y015041D01*
X041249Y015053D02*
X040011Y015053D01*
X040011Y015065D02*
X041249Y015065D01*
X041249Y015077D02*
X040011Y015077D01*
X040011Y015089D02*
X041249Y015089D01*
X041249Y015101D02*
X040011Y015101D01*
X040011Y015113D02*
X041249Y015113D01*
X041249Y015125D02*
X040011Y015125D01*
X040011Y015137D02*
X041249Y015137D01*
X041249Y015149D02*
X040011Y015149D01*
X040011Y015161D02*
X041249Y015161D01*
X041249Y015173D02*
X040011Y015173D01*
X040011Y015185D02*
X041249Y015185D01*
X041249Y015197D02*
X040011Y015197D01*
X040011Y015209D02*
X041249Y015209D01*
X041249Y015221D02*
X040011Y015221D01*
X040011Y015233D02*
X041249Y015233D01*
X041249Y015245D02*
X040011Y015245D01*
X040011Y015257D02*
X041249Y015257D01*
X041249Y015269D02*
X040011Y015269D01*
X040011Y015281D02*
X041249Y015281D01*
X041249Y015293D02*
X040011Y015293D01*
X040011Y015305D02*
X041249Y015305D01*
X041249Y015317D02*
X040011Y015317D01*
X040011Y015329D02*
X041249Y015329D01*
X041249Y015341D02*
X040011Y015341D01*
X040011Y015353D02*
X041249Y015353D01*
X041249Y015365D02*
X040011Y015365D01*
X040011Y015377D02*
X041249Y015377D01*
X041249Y015389D02*
X040011Y015389D01*
X040011Y015401D02*
X041249Y015401D01*
X041249Y015413D02*
X040011Y015413D01*
X040011Y015425D02*
X041249Y015425D01*
X041249Y015437D02*
X040011Y015437D01*
X041249Y009239D02*
X041249Y008001D01*
X040011Y008001D01*
X040011Y009239D01*
X041249Y009239D01*
X041249Y008013D02*
X040011Y008013D01*
X040011Y008025D02*
X041249Y008025D01*
X041249Y008037D02*
X040011Y008037D01*
X040011Y008049D02*
X041249Y008049D01*
X041249Y008061D02*
X040011Y008061D01*
X040011Y008073D02*
X041249Y008073D01*
X041249Y008085D02*
X040011Y008085D01*
X040011Y008097D02*
X041249Y008097D01*
X041249Y008109D02*
X040011Y008109D01*
X040011Y008121D02*
X041249Y008121D01*
X041249Y008133D02*
X040011Y008133D01*
X040011Y008145D02*
X041249Y008145D01*
X041249Y008157D02*
X040011Y008157D01*
X040011Y008169D02*
X041249Y008169D01*
X041249Y008181D02*
X040011Y008181D01*
X040011Y008193D02*
X041249Y008193D01*
X041249Y008205D02*
X040011Y008205D01*
X040011Y008217D02*
X041249Y008217D01*
X041249Y008229D02*
X040011Y008229D01*
X040011Y008241D02*
X041249Y008241D01*
X041249Y008253D02*
X040011Y008253D01*
X040011Y008265D02*
X041249Y008265D01*
X041249Y008277D02*
X040011Y008277D01*
X040011Y008289D02*
X041249Y008289D01*
X041249Y008301D02*
X040011Y008301D01*
X040011Y008313D02*
X041249Y008313D01*
X041249Y008325D02*
X040011Y008325D01*
X040011Y008337D02*
X041249Y008337D01*
X041249Y008349D02*
X040011Y008349D01*
X040011Y008361D02*
X041249Y008361D01*
X041249Y008373D02*
X040011Y008373D01*
X040011Y008385D02*
X041249Y008385D01*
X041249Y008397D02*
X040011Y008397D01*
X040011Y008409D02*
X041249Y008409D01*
X041249Y008421D02*
X040011Y008421D01*
X040011Y008433D02*
X041249Y008433D01*
X041249Y008445D02*
X040011Y008445D01*
X040011Y008457D02*
X041249Y008457D01*
X041249Y008469D02*
X040011Y008469D01*
X040011Y008481D02*
X041249Y008481D01*
X041249Y008493D02*
X040011Y008493D01*
X040011Y008505D02*
X041249Y008505D01*
X041249Y008517D02*
X040011Y008517D01*
X040011Y008529D02*
X041249Y008529D01*
X041249Y008541D02*
X040011Y008541D01*
X040011Y008553D02*
X041249Y008553D01*
X041249Y008565D02*
X040011Y008565D01*
X040011Y008577D02*
X041249Y008577D01*
X041249Y008589D02*
X040011Y008589D01*
X040011Y008601D02*
X041249Y008601D01*
X041249Y008613D02*
X040011Y008613D01*
X040011Y008625D02*
X041249Y008625D01*
X041249Y008637D02*
X040011Y008637D01*
X040011Y008649D02*
X041249Y008649D01*
X041249Y008661D02*
X040011Y008661D01*
X040011Y008673D02*
X041249Y008673D01*
X041249Y008685D02*
X040011Y008685D01*
X040011Y008697D02*
X041249Y008697D01*
X041249Y008709D02*
X040011Y008709D01*
X040011Y008721D02*
X041249Y008721D01*
X041249Y008733D02*
X040011Y008733D01*
X040011Y008745D02*
X041249Y008745D01*
X041249Y008757D02*
X040011Y008757D01*
X040011Y008769D02*
X041249Y008769D01*
X041249Y008781D02*
X040011Y008781D01*
X040011Y008793D02*
X041249Y008793D01*
X041249Y008805D02*
X040011Y008805D01*
X040011Y008817D02*
X041249Y008817D01*
X041249Y008829D02*
X040011Y008829D01*
X040011Y008841D02*
X041249Y008841D01*
X041249Y008853D02*
X040011Y008853D01*
X040011Y008865D02*
X041249Y008865D01*
X041249Y008877D02*
X040011Y008877D01*
X040011Y008889D02*
X041249Y008889D01*
X041249Y008901D02*
X040011Y008901D01*
X040011Y008913D02*
X041249Y008913D01*
X041249Y008925D02*
X040011Y008925D01*
X040011Y008937D02*
X041249Y008937D01*
X041249Y008949D02*
X040011Y008949D01*
X040011Y008961D02*
X041249Y008961D01*
X041249Y008973D02*
X040011Y008973D01*
X040011Y008985D02*
X041249Y008985D01*
X041249Y008997D02*
X040011Y008997D01*
X040011Y009009D02*
X041249Y009009D01*
X041249Y009021D02*
X040011Y009021D01*
X040011Y009033D02*
X041249Y009033D01*
X041249Y009045D02*
X040011Y009045D01*
X040011Y009057D02*
X041249Y009057D01*
X041249Y009069D02*
X040011Y009069D01*
X040011Y009081D02*
X041249Y009081D01*
X041249Y009093D02*
X040011Y009093D01*
X040011Y009105D02*
X041249Y009105D01*
X041249Y009117D02*
X040011Y009117D01*
X040011Y009129D02*
X041249Y009129D01*
X041249Y009141D02*
X040011Y009141D01*
X040011Y009153D02*
X041249Y009153D01*
X041249Y009165D02*
X040011Y009165D01*
X040011Y009177D02*
X041249Y009177D01*
X041249Y009189D02*
X040011Y009189D01*
X040011Y009201D02*
X041249Y009201D01*
X041249Y009213D02*
X040011Y009213D01*
X040011Y009225D02*
X041249Y009225D01*
X041249Y009237D02*
X040011Y009237D01*
D14*
X037693Y009503D02*
X037693Y010079D01*
X037693Y009503D02*
X037235Y009503D01*
X037235Y010079D01*
X037693Y010079D01*
X037693Y009516D02*
X037235Y009516D01*
X037235Y009529D02*
X037693Y009529D01*
X037693Y009542D02*
X037235Y009542D01*
X037235Y009555D02*
X037693Y009555D01*
X037693Y009568D02*
X037235Y009568D01*
X037235Y009581D02*
X037693Y009581D01*
X037693Y009594D02*
X037235Y009594D01*
X037235Y009607D02*
X037693Y009607D01*
X037693Y009620D02*
X037235Y009620D01*
X037235Y009633D02*
X037693Y009633D01*
X037693Y009646D02*
X037235Y009646D01*
X037235Y009659D02*
X037693Y009659D01*
X037693Y009672D02*
X037235Y009672D01*
X037235Y009685D02*
X037693Y009685D01*
X037693Y009698D02*
X037235Y009698D01*
X037235Y009711D02*
X037693Y009711D01*
X037693Y009724D02*
X037235Y009724D01*
X037235Y009737D02*
X037693Y009737D01*
X037693Y009750D02*
X037235Y009750D01*
X037235Y009763D02*
X037693Y009763D01*
X037693Y009776D02*
X037235Y009776D01*
X037235Y009789D02*
X037693Y009789D01*
X037693Y009802D02*
X037235Y009802D01*
X037235Y009815D02*
X037693Y009815D01*
X037693Y009828D02*
X037235Y009828D01*
X037235Y009841D02*
X037693Y009841D01*
X037693Y009854D02*
X037235Y009854D01*
X037235Y009867D02*
X037693Y009867D01*
X037693Y009880D02*
X037235Y009880D01*
X037235Y009893D02*
X037693Y009893D01*
X037693Y009906D02*
X037235Y009906D01*
X037235Y009919D02*
X037693Y009919D01*
X037693Y009932D02*
X037235Y009932D01*
X037235Y009945D02*
X037693Y009945D01*
X037693Y009958D02*
X037235Y009958D01*
X037235Y009971D02*
X037693Y009971D01*
X037693Y009984D02*
X037235Y009984D01*
X037235Y009997D02*
X037693Y009997D01*
X037693Y010010D02*
X037235Y010010D01*
X037235Y010023D02*
X037693Y010023D01*
X037693Y010036D02*
X037235Y010036D01*
X037235Y010049D02*
X037693Y010049D01*
X037693Y010062D02*
X037235Y010062D01*
X037235Y010075D02*
X037693Y010075D01*
X037693Y010723D02*
X037693Y011299D01*
X037693Y010723D02*
X037235Y010723D01*
X037235Y011299D01*
X037693Y011299D01*
X037693Y010736D02*
X037235Y010736D01*
X037235Y010749D02*
X037693Y010749D01*
X037693Y010762D02*
X037235Y010762D01*
X037235Y010775D02*
X037693Y010775D01*
X037693Y010788D02*
X037235Y010788D01*
X037235Y010801D02*
X037693Y010801D01*
X037693Y010814D02*
X037235Y010814D01*
X037235Y010827D02*
X037693Y010827D01*
X037693Y010840D02*
X037235Y010840D01*
X037235Y010853D02*
X037693Y010853D01*
X037693Y010866D02*
X037235Y010866D01*
X037235Y010879D02*
X037693Y010879D01*
X037693Y010892D02*
X037235Y010892D01*
X037235Y010905D02*
X037693Y010905D01*
X037693Y010918D02*
X037235Y010918D01*
X037235Y010931D02*
X037693Y010931D01*
X037693Y010944D02*
X037235Y010944D01*
X037235Y010957D02*
X037693Y010957D01*
X037693Y010970D02*
X037235Y010970D01*
X037235Y010983D02*
X037693Y010983D01*
X037693Y010996D02*
X037235Y010996D01*
X037235Y011009D02*
X037693Y011009D01*
X037693Y011022D02*
X037235Y011022D01*
X037235Y011035D02*
X037693Y011035D01*
X037693Y011048D02*
X037235Y011048D01*
X037235Y011061D02*
X037693Y011061D01*
X037693Y011074D02*
X037235Y011074D01*
X037235Y011087D02*
X037693Y011087D01*
X037693Y011100D02*
X037235Y011100D01*
X037235Y011113D02*
X037693Y011113D01*
X037693Y011126D02*
X037235Y011126D01*
X037235Y011139D02*
X037693Y011139D01*
X037693Y011152D02*
X037235Y011152D01*
X037235Y011165D02*
X037693Y011165D01*
X037693Y011178D02*
X037235Y011178D01*
X037235Y011191D02*
X037693Y011191D01*
X037693Y011204D02*
X037235Y011204D01*
X037235Y011217D02*
X037693Y011217D01*
X037693Y011230D02*
X037235Y011230D01*
X037235Y011243D02*
X037693Y011243D01*
X037693Y011256D02*
X037235Y011256D01*
X037235Y011269D02*
X037693Y011269D01*
X037693Y011282D02*
X037235Y011282D01*
X037235Y011295D02*
X037693Y011295D01*
X037693Y008858D02*
X037693Y008282D01*
X037235Y008282D01*
X037235Y008858D01*
X037693Y008858D01*
X037693Y008295D02*
X037235Y008295D01*
X037235Y008308D02*
X037693Y008308D01*
X037693Y008321D02*
X037235Y008321D01*
X037235Y008334D02*
X037693Y008334D01*
X037693Y008347D02*
X037235Y008347D01*
X037235Y008360D02*
X037693Y008360D01*
X037693Y008373D02*
X037235Y008373D01*
X037235Y008386D02*
X037693Y008386D01*
X037693Y008399D02*
X037235Y008399D01*
X037235Y008412D02*
X037693Y008412D01*
X037693Y008425D02*
X037235Y008425D01*
X037235Y008438D02*
X037693Y008438D01*
X037693Y008451D02*
X037235Y008451D01*
X037235Y008464D02*
X037693Y008464D01*
X037693Y008477D02*
X037235Y008477D01*
X037235Y008490D02*
X037693Y008490D01*
X037693Y008503D02*
X037235Y008503D01*
X037235Y008516D02*
X037693Y008516D01*
X037693Y008529D02*
X037235Y008529D01*
X037235Y008542D02*
X037693Y008542D01*
X037693Y008555D02*
X037235Y008555D01*
X037235Y008568D02*
X037693Y008568D01*
X037693Y008581D02*
X037235Y008581D01*
X037235Y008594D02*
X037693Y008594D01*
X037693Y008607D02*
X037235Y008607D01*
X037235Y008620D02*
X037693Y008620D01*
X037693Y008633D02*
X037235Y008633D01*
X037235Y008646D02*
X037693Y008646D01*
X037693Y008659D02*
X037235Y008659D01*
X037235Y008672D02*
X037693Y008672D01*
X037693Y008685D02*
X037235Y008685D01*
X037235Y008698D02*
X037693Y008698D01*
X037693Y008711D02*
X037235Y008711D01*
X037235Y008724D02*
X037693Y008724D01*
X037693Y008737D02*
X037235Y008737D01*
X037235Y008750D02*
X037693Y008750D01*
X037693Y008763D02*
X037235Y008763D01*
X037235Y008776D02*
X037693Y008776D01*
X037693Y008789D02*
X037235Y008789D01*
X037235Y008802D02*
X037693Y008802D01*
X037693Y008815D02*
X037235Y008815D01*
X037235Y008828D02*
X037693Y008828D01*
X037693Y008841D02*
X037235Y008841D01*
X037235Y008854D02*
X037693Y008854D01*
D15*
X035349Y008895D02*
X035349Y009467D01*
X035349Y008895D02*
X034777Y008895D01*
X034777Y009467D01*
X035349Y009467D01*
X035349Y008912D02*
X034777Y008912D01*
X034777Y008929D02*
X035349Y008929D01*
X035349Y008946D02*
X034777Y008946D01*
X034777Y008963D02*
X035349Y008963D01*
X035349Y008980D02*
X034777Y008980D01*
X034777Y008997D02*
X035349Y008997D01*
X035349Y009014D02*
X034777Y009014D01*
X034777Y009031D02*
X035349Y009031D01*
X035349Y009048D02*
X034777Y009048D01*
X034777Y009065D02*
X035349Y009065D01*
X035349Y009082D02*
X034777Y009082D01*
X034777Y009099D02*
X035349Y009099D01*
X035349Y009116D02*
X034777Y009116D01*
X034777Y009133D02*
X035349Y009133D01*
X035349Y009150D02*
X034777Y009150D01*
X034777Y009167D02*
X035349Y009167D01*
X035349Y009184D02*
X034777Y009184D01*
X034777Y009201D02*
X035349Y009201D01*
X035349Y009218D02*
X034777Y009218D01*
X034777Y009235D02*
X035349Y009235D01*
X035349Y009252D02*
X034777Y009252D01*
X034777Y009269D02*
X035349Y009269D01*
X035349Y009286D02*
X034777Y009286D01*
X034777Y009303D02*
X035349Y009303D01*
X035349Y009320D02*
X034777Y009320D01*
X034777Y009337D02*
X035349Y009337D01*
X035349Y009354D02*
X034777Y009354D01*
X034777Y009371D02*
X035349Y009371D01*
X035349Y009388D02*
X034777Y009388D01*
X034777Y009405D02*
X035349Y009405D01*
X035349Y009422D02*
X034777Y009422D01*
X034777Y009439D02*
X035349Y009439D01*
X035349Y009456D02*
X034777Y009456D01*
X035349Y010115D02*
X035349Y010687D01*
X035349Y010115D02*
X034777Y010115D01*
X034777Y010687D01*
X035349Y010687D01*
X035349Y010132D02*
X034777Y010132D01*
X034777Y010149D02*
X035349Y010149D01*
X035349Y010166D02*
X034777Y010166D01*
X034777Y010183D02*
X035349Y010183D01*
X035349Y010200D02*
X034777Y010200D01*
X034777Y010217D02*
X035349Y010217D01*
X035349Y010234D02*
X034777Y010234D01*
X034777Y010251D02*
X035349Y010251D01*
X035349Y010268D02*
X034777Y010268D01*
X034777Y010285D02*
X035349Y010285D01*
X035349Y010302D02*
X034777Y010302D01*
X034777Y010319D02*
X035349Y010319D01*
X035349Y010336D02*
X034777Y010336D01*
X034777Y010353D02*
X035349Y010353D01*
X035349Y010370D02*
X034777Y010370D01*
X034777Y010387D02*
X035349Y010387D01*
X035349Y010404D02*
X034777Y010404D01*
X034777Y010421D02*
X035349Y010421D01*
X035349Y010438D02*
X034777Y010438D01*
X034777Y010455D02*
X035349Y010455D01*
X035349Y010472D02*
X034777Y010472D01*
X034777Y010489D02*
X035349Y010489D01*
X035349Y010506D02*
X034777Y010506D01*
X034777Y010523D02*
X035349Y010523D01*
X035349Y010540D02*
X034777Y010540D01*
X034777Y010557D02*
X035349Y010557D01*
X035349Y010574D02*
X034777Y010574D01*
X034777Y010591D02*
X035349Y010591D01*
X035349Y010608D02*
X034777Y010608D01*
X034777Y010625D02*
X035349Y010625D01*
X035349Y010642D02*
X034777Y010642D01*
X034777Y010659D02*
X035349Y010659D01*
X035349Y010676D02*
X034777Y010676D01*
D16*
X010521Y019288D02*
X010337Y019288D01*
X010337Y019772D01*
X010521Y019772D01*
X010521Y019288D01*
X010521Y019303D02*
X010337Y019303D01*
X010337Y019318D02*
X010521Y019318D01*
X010521Y019333D02*
X010337Y019333D01*
X010337Y019348D02*
X010521Y019348D01*
X010521Y019363D02*
X010337Y019363D01*
X010337Y019378D02*
X010521Y019378D01*
X010521Y019393D02*
X010337Y019393D01*
X010337Y019408D02*
X010521Y019408D01*
X010521Y019423D02*
X010337Y019423D01*
X010337Y019438D02*
X010521Y019438D01*
X010521Y019453D02*
X010337Y019453D01*
X010337Y019468D02*
X010521Y019468D01*
X010521Y019483D02*
X010337Y019483D01*
X010337Y019498D02*
X010521Y019498D01*
X010521Y019513D02*
X010337Y019513D01*
X010337Y019528D02*
X010521Y019528D01*
X010521Y019543D02*
X010337Y019543D01*
X010337Y019558D02*
X010521Y019558D01*
X010521Y019573D02*
X010337Y019573D01*
X010337Y019588D02*
X010521Y019588D01*
X010521Y019603D02*
X010337Y019603D01*
X010337Y019618D02*
X010521Y019618D01*
X010521Y019633D02*
X010337Y019633D01*
X010337Y019648D02*
X010521Y019648D01*
X010521Y019663D02*
X010337Y019663D01*
X010337Y019678D02*
X010521Y019678D01*
X010521Y019693D02*
X010337Y019693D01*
X010337Y019708D02*
X010521Y019708D01*
X010521Y019723D02*
X010337Y019723D01*
X010337Y019738D02*
X010521Y019738D01*
X010521Y019753D02*
X010337Y019753D01*
X010337Y019768D02*
X010521Y019768D01*
X010021Y019288D02*
X009837Y019288D01*
X009837Y019772D01*
X010021Y019772D01*
X010021Y019288D01*
X010021Y019303D02*
X009837Y019303D01*
X009837Y019318D02*
X010021Y019318D01*
X010021Y019333D02*
X009837Y019333D01*
X009837Y019348D02*
X010021Y019348D01*
X010021Y019363D02*
X009837Y019363D01*
X009837Y019378D02*
X010021Y019378D01*
X010021Y019393D02*
X009837Y019393D01*
X009837Y019408D02*
X010021Y019408D01*
X010021Y019423D02*
X009837Y019423D01*
X009837Y019438D02*
X010021Y019438D01*
X010021Y019453D02*
X009837Y019453D01*
X009837Y019468D02*
X010021Y019468D01*
X010021Y019483D02*
X009837Y019483D01*
X009837Y019498D02*
X010021Y019498D01*
X010021Y019513D02*
X009837Y019513D01*
X009837Y019528D02*
X010021Y019528D01*
X010021Y019543D02*
X009837Y019543D01*
X009837Y019558D02*
X010021Y019558D01*
X010021Y019573D02*
X009837Y019573D01*
X009837Y019588D02*
X010021Y019588D01*
X010021Y019603D02*
X009837Y019603D01*
X009837Y019618D02*
X010021Y019618D01*
X010021Y019633D02*
X009837Y019633D01*
X009837Y019648D02*
X010021Y019648D01*
X010021Y019663D02*
X009837Y019663D01*
X009837Y019678D02*
X010021Y019678D01*
X010021Y019693D02*
X009837Y019693D01*
X009837Y019708D02*
X010021Y019708D01*
X010021Y019723D02*
X009837Y019723D01*
X009837Y019738D02*
X010021Y019738D01*
X010021Y019753D02*
X009837Y019753D01*
X009837Y019768D02*
X010021Y019768D01*
X009521Y019288D02*
X009337Y019288D01*
X009337Y019772D01*
X009521Y019772D01*
X009521Y019288D01*
X009521Y019303D02*
X009337Y019303D01*
X009337Y019318D02*
X009521Y019318D01*
X009521Y019333D02*
X009337Y019333D01*
X009337Y019348D02*
X009521Y019348D01*
X009521Y019363D02*
X009337Y019363D01*
X009337Y019378D02*
X009521Y019378D01*
X009521Y019393D02*
X009337Y019393D01*
X009337Y019408D02*
X009521Y019408D01*
X009521Y019423D02*
X009337Y019423D01*
X009337Y019438D02*
X009521Y019438D01*
X009521Y019453D02*
X009337Y019453D01*
X009337Y019468D02*
X009521Y019468D01*
X009521Y019483D02*
X009337Y019483D01*
X009337Y019498D02*
X009521Y019498D01*
X009521Y019513D02*
X009337Y019513D01*
X009337Y019528D02*
X009521Y019528D01*
X009521Y019543D02*
X009337Y019543D01*
X009337Y019558D02*
X009521Y019558D01*
X009521Y019573D02*
X009337Y019573D01*
X009337Y019588D02*
X009521Y019588D01*
X009521Y019603D02*
X009337Y019603D01*
X009337Y019618D02*
X009521Y019618D01*
X009521Y019633D02*
X009337Y019633D01*
X009337Y019648D02*
X009521Y019648D01*
X009521Y019663D02*
X009337Y019663D01*
X009337Y019678D02*
X009521Y019678D01*
X009521Y019693D02*
X009337Y019693D01*
X009337Y019708D02*
X009521Y019708D01*
X009521Y019723D02*
X009337Y019723D01*
X009337Y019738D02*
X009521Y019738D01*
X009521Y019753D02*
X009337Y019753D01*
X009337Y019768D02*
X009521Y019768D01*
X009021Y019288D02*
X008837Y019288D01*
X008837Y019772D01*
X009021Y019772D01*
X009021Y019288D01*
X009021Y019303D02*
X008837Y019303D01*
X008837Y019318D02*
X009021Y019318D01*
X009021Y019333D02*
X008837Y019333D01*
X008837Y019348D02*
X009021Y019348D01*
X009021Y019363D02*
X008837Y019363D01*
X008837Y019378D02*
X009021Y019378D01*
X009021Y019393D02*
X008837Y019393D01*
X008837Y019408D02*
X009021Y019408D01*
X009021Y019423D02*
X008837Y019423D01*
X008837Y019438D02*
X009021Y019438D01*
X009021Y019453D02*
X008837Y019453D01*
X008837Y019468D02*
X009021Y019468D01*
X009021Y019483D02*
X008837Y019483D01*
X008837Y019498D02*
X009021Y019498D01*
X009021Y019513D02*
X008837Y019513D01*
X008837Y019528D02*
X009021Y019528D01*
X009021Y019543D02*
X008837Y019543D01*
X008837Y019558D02*
X009021Y019558D01*
X009021Y019573D02*
X008837Y019573D01*
X008837Y019588D02*
X009021Y019588D01*
X009021Y019603D02*
X008837Y019603D01*
X008837Y019618D02*
X009021Y019618D01*
X009021Y019633D02*
X008837Y019633D01*
X008837Y019648D02*
X009021Y019648D01*
X009021Y019663D02*
X008837Y019663D01*
X008837Y019678D02*
X009021Y019678D01*
X009021Y019693D02*
X008837Y019693D01*
X008837Y019708D02*
X009021Y019708D01*
X009021Y019723D02*
X008837Y019723D01*
X008837Y019738D02*
X009021Y019738D01*
X009021Y019753D02*
X008837Y019753D01*
X008837Y019768D02*
X009021Y019768D01*
X008521Y019288D02*
X008337Y019288D01*
X008337Y019772D01*
X008521Y019772D01*
X008521Y019288D01*
X008521Y019303D02*
X008337Y019303D01*
X008337Y019318D02*
X008521Y019318D01*
X008521Y019333D02*
X008337Y019333D01*
X008337Y019348D02*
X008521Y019348D01*
X008521Y019363D02*
X008337Y019363D01*
X008337Y019378D02*
X008521Y019378D01*
X008521Y019393D02*
X008337Y019393D01*
X008337Y019408D02*
X008521Y019408D01*
X008521Y019423D02*
X008337Y019423D01*
X008337Y019438D02*
X008521Y019438D01*
X008521Y019453D02*
X008337Y019453D01*
X008337Y019468D02*
X008521Y019468D01*
X008521Y019483D02*
X008337Y019483D01*
X008337Y019498D02*
X008521Y019498D01*
X008521Y019513D02*
X008337Y019513D01*
X008337Y019528D02*
X008521Y019528D01*
X008521Y019543D02*
X008337Y019543D01*
X008337Y019558D02*
X008521Y019558D01*
X008521Y019573D02*
X008337Y019573D01*
X008337Y019588D02*
X008521Y019588D01*
X008521Y019603D02*
X008337Y019603D01*
X008337Y019618D02*
X008521Y019618D01*
X008521Y019633D02*
X008337Y019633D01*
X008337Y019648D02*
X008521Y019648D01*
X008521Y019663D02*
X008337Y019663D01*
X008337Y019678D02*
X008521Y019678D01*
X008521Y019693D02*
X008337Y019693D01*
X008337Y019708D02*
X008521Y019708D01*
X008521Y019723D02*
X008337Y019723D01*
X008337Y019738D02*
X008521Y019738D01*
X008521Y019753D02*
X008337Y019753D01*
X008337Y019768D02*
X008521Y019768D01*
X008521Y021188D02*
X008337Y021188D01*
X008337Y021672D01*
X008521Y021672D01*
X008521Y021188D01*
X008521Y021203D02*
X008337Y021203D01*
X008337Y021218D02*
X008521Y021218D01*
X008521Y021233D02*
X008337Y021233D01*
X008337Y021248D02*
X008521Y021248D01*
X008521Y021263D02*
X008337Y021263D01*
X008337Y021278D02*
X008521Y021278D01*
X008521Y021293D02*
X008337Y021293D01*
X008337Y021308D02*
X008521Y021308D01*
X008521Y021323D02*
X008337Y021323D01*
X008337Y021338D02*
X008521Y021338D01*
X008521Y021353D02*
X008337Y021353D01*
X008337Y021368D02*
X008521Y021368D01*
X008521Y021383D02*
X008337Y021383D01*
X008337Y021398D02*
X008521Y021398D01*
X008521Y021413D02*
X008337Y021413D01*
X008337Y021428D02*
X008521Y021428D01*
X008521Y021443D02*
X008337Y021443D01*
X008337Y021458D02*
X008521Y021458D01*
X008521Y021473D02*
X008337Y021473D01*
X008337Y021488D02*
X008521Y021488D01*
X008521Y021503D02*
X008337Y021503D01*
X008337Y021518D02*
X008521Y021518D01*
X008521Y021533D02*
X008337Y021533D01*
X008337Y021548D02*
X008521Y021548D01*
X008521Y021563D02*
X008337Y021563D01*
X008337Y021578D02*
X008521Y021578D01*
X008521Y021593D02*
X008337Y021593D01*
X008337Y021608D02*
X008521Y021608D01*
X008521Y021623D02*
X008337Y021623D01*
X008337Y021638D02*
X008521Y021638D01*
X008521Y021653D02*
X008337Y021653D01*
X008337Y021668D02*
X008521Y021668D01*
X008837Y021188D02*
X009021Y021188D01*
X008837Y021188D02*
X008837Y021672D01*
X009021Y021672D01*
X009021Y021188D01*
X009021Y021203D02*
X008837Y021203D01*
X008837Y021218D02*
X009021Y021218D01*
X009021Y021233D02*
X008837Y021233D01*
X008837Y021248D02*
X009021Y021248D01*
X009021Y021263D02*
X008837Y021263D01*
X008837Y021278D02*
X009021Y021278D01*
X009021Y021293D02*
X008837Y021293D01*
X008837Y021308D02*
X009021Y021308D01*
X009021Y021323D02*
X008837Y021323D01*
X008837Y021338D02*
X009021Y021338D01*
X009021Y021353D02*
X008837Y021353D01*
X008837Y021368D02*
X009021Y021368D01*
X009021Y021383D02*
X008837Y021383D01*
X008837Y021398D02*
X009021Y021398D01*
X009021Y021413D02*
X008837Y021413D01*
X008837Y021428D02*
X009021Y021428D01*
X009021Y021443D02*
X008837Y021443D01*
X008837Y021458D02*
X009021Y021458D01*
X009021Y021473D02*
X008837Y021473D01*
X008837Y021488D02*
X009021Y021488D01*
X009021Y021503D02*
X008837Y021503D01*
X008837Y021518D02*
X009021Y021518D01*
X009021Y021533D02*
X008837Y021533D01*
X008837Y021548D02*
X009021Y021548D01*
X009021Y021563D02*
X008837Y021563D01*
X008837Y021578D02*
X009021Y021578D01*
X009021Y021593D02*
X008837Y021593D01*
X008837Y021608D02*
X009021Y021608D01*
X009021Y021623D02*
X008837Y021623D01*
X008837Y021638D02*
X009021Y021638D01*
X009021Y021653D02*
X008837Y021653D01*
X008837Y021668D02*
X009021Y021668D01*
X009337Y021188D02*
X009521Y021188D01*
X009337Y021188D02*
X009337Y021672D01*
X009521Y021672D01*
X009521Y021188D01*
X009521Y021203D02*
X009337Y021203D01*
X009337Y021218D02*
X009521Y021218D01*
X009521Y021233D02*
X009337Y021233D01*
X009337Y021248D02*
X009521Y021248D01*
X009521Y021263D02*
X009337Y021263D01*
X009337Y021278D02*
X009521Y021278D01*
X009521Y021293D02*
X009337Y021293D01*
X009337Y021308D02*
X009521Y021308D01*
X009521Y021323D02*
X009337Y021323D01*
X009337Y021338D02*
X009521Y021338D01*
X009521Y021353D02*
X009337Y021353D01*
X009337Y021368D02*
X009521Y021368D01*
X009521Y021383D02*
X009337Y021383D01*
X009337Y021398D02*
X009521Y021398D01*
X009521Y021413D02*
X009337Y021413D01*
X009337Y021428D02*
X009521Y021428D01*
X009521Y021443D02*
X009337Y021443D01*
X009337Y021458D02*
X009521Y021458D01*
X009521Y021473D02*
X009337Y021473D01*
X009337Y021488D02*
X009521Y021488D01*
X009521Y021503D02*
X009337Y021503D01*
X009337Y021518D02*
X009521Y021518D01*
X009521Y021533D02*
X009337Y021533D01*
X009337Y021548D02*
X009521Y021548D01*
X009521Y021563D02*
X009337Y021563D01*
X009337Y021578D02*
X009521Y021578D01*
X009521Y021593D02*
X009337Y021593D01*
X009337Y021608D02*
X009521Y021608D01*
X009521Y021623D02*
X009337Y021623D01*
X009337Y021638D02*
X009521Y021638D01*
X009521Y021653D02*
X009337Y021653D01*
X009337Y021668D02*
X009521Y021668D01*
X009837Y021188D02*
X010021Y021188D01*
X009837Y021188D02*
X009837Y021672D01*
X010021Y021672D01*
X010021Y021188D01*
X010021Y021203D02*
X009837Y021203D01*
X009837Y021218D02*
X010021Y021218D01*
X010021Y021233D02*
X009837Y021233D01*
X009837Y021248D02*
X010021Y021248D01*
X010021Y021263D02*
X009837Y021263D01*
X009837Y021278D02*
X010021Y021278D01*
X010021Y021293D02*
X009837Y021293D01*
X009837Y021308D02*
X010021Y021308D01*
X010021Y021323D02*
X009837Y021323D01*
X009837Y021338D02*
X010021Y021338D01*
X010021Y021353D02*
X009837Y021353D01*
X009837Y021368D02*
X010021Y021368D01*
X010021Y021383D02*
X009837Y021383D01*
X009837Y021398D02*
X010021Y021398D01*
X010021Y021413D02*
X009837Y021413D01*
X009837Y021428D02*
X010021Y021428D01*
X010021Y021443D02*
X009837Y021443D01*
X009837Y021458D02*
X010021Y021458D01*
X010021Y021473D02*
X009837Y021473D01*
X009837Y021488D02*
X010021Y021488D01*
X010021Y021503D02*
X009837Y021503D01*
X009837Y021518D02*
X010021Y021518D01*
X010021Y021533D02*
X009837Y021533D01*
X009837Y021548D02*
X010021Y021548D01*
X010021Y021563D02*
X009837Y021563D01*
X009837Y021578D02*
X010021Y021578D01*
X010021Y021593D02*
X009837Y021593D01*
X009837Y021608D02*
X010021Y021608D01*
X010021Y021623D02*
X009837Y021623D01*
X009837Y021638D02*
X010021Y021638D01*
X010021Y021653D02*
X009837Y021653D01*
X009837Y021668D02*
X010021Y021668D01*
X010337Y021188D02*
X010521Y021188D01*
X010337Y021188D02*
X010337Y021672D01*
X010521Y021672D01*
X010521Y021188D01*
X010521Y021203D02*
X010337Y021203D01*
X010337Y021218D02*
X010521Y021218D01*
X010521Y021233D02*
X010337Y021233D01*
X010337Y021248D02*
X010521Y021248D01*
X010521Y021263D02*
X010337Y021263D01*
X010337Y021278D02*
X010521Y021278D01*
X010521Y021293D02*
X010337Y021293D01*
X010337Y021308D02*
X010521Y021308D01*
X010521Y021323D02*
X010337Y021323D01*
X010337Y021338D02*
X010521Y021338D01*
X010521Y021353D02*
X010337Y021353D01*
X010337Y021368D02*
X010521Y021368D01*
X010521Y021383D02*
X010337Y021383D01*
X010337Y021398D02*
X010521Y021398D01*
X010521Y021413D02*
X010337Y021413D01*
X010337Y021428D02*
X010521Y021428D01*
X010521Y021443D02*
X010337Y021443D01*
X010337Y021458D02*
X010521Y021458D01*
X010521Y021473D02*
X010337Y021473D01*
X010337Y021488D02*
X010521Y021488D01*
X010521Y021503D02*
X010337Y021503D01*
X010337Y021518D02*
X010521Y021518D01*
X010521Y021533D02*
X010337Y021533D01*
X010337Y021548D02*
X010521Y021548D01*
X010521Y021563D02*
X010337Y021563D01*
X010337Y021578D02*
X010521Y021578D01*
X010521Y021593D02*
X010337Y021593D01*
X010337Y021608D02*
X010521Y021608D01*
X010521Y021623D02*
X010337Y021623D01*
X010337Y021638D02*
X010521Y021638D01*
X010521Y021653D02*
X010337Y021653D01*
X010337Y021668D02*
X010521Y021668D01*
D17*
X012756Y013341D02*
X012756Y012855D01*
X012756Y013341D02*
X012992Y013341D01*
X012992Y012855D01*
X012756Y012855D01*
X012756Y012869D02*
X012992Y012869D01*
X012992Y012883D02*
X012756Y012883D01*
X012756Y012897D02*
X012992Y012897D01*
X012992Y012911D02*
X012756Y012911D01*
X012756Y012925D02*
X012992Y012925D01*
X012992Y012939D02*
X012756Y012939D01*
X012756Y012953D02*
X012992Y012953D01*
X012992Y012967D02*
X012756Y012967D01*
X012756Y012981D02*
X012992Y012981D01*
X012992Y012995D02*
X012756Y012995D01*
X012756Y013009D02*
X012992Y013009D01*
X012992Y013023D02*
X012756Y013023D01*
X012756Y013037D02*
X012992Y013037D01*
X012992Y013051D02*
X012756Y013051D01*
X012756Y013065D02*
X012992Y013065D01*
X012992Y013079D02*
X012756Y013079D01*
X012756Y013093D02*
X012992Y013093D01*
X012992Y013107D02*
X012756Y013107D01*
X012756Y013121D02*
X012992Y013121D01*
X012992Y013135D02*
X012756Y013135D01*
X012756Y013149D02*
X012992Y013149D01*
X012992Y013163D02*
X012756Y013163D01*
X012756Y013177D02*
X012992Y013177D01*
X012992Y013191D02*
X012756Y013191D01*
X012756Y013205D02*
X012992Y013205D01*
X012992Y013219D02*
X012756Y013219D01*
X012756Y013233D02*
X012992Y013233D01*
X012992Y013247D02*
X012756Y013247D01*
X012756Y013261D02*
X012992Y013261D01*
X012992Y013275D02*
X012756Y013275D01*
X012756Y013289D02*
X012992Y013289D01*
X012992Y013303D02*
X012756Y013303D01*
X012756Y013317D02*
X012992Y013317D01*
X012992Y013331D02*
X012756Y013331D01*
X013543Y013341D02*
X013543Y012855D01*
X013543Y013341D02*
X013779Y013341D01*
X013779Y012855D01*
X013543Y012855D01*
X013543Y012869D02*
X013779Y012869D01*
X013779Y012883D02*
X013543Y012883D01*
X013543Y012897D02*
X013779Y012897D01*
X013779Y012911D02*
X013543Y012911D01*
X013543Y012925D02*
X013779Y012925D01*
X013779Y012939D02*
X013543Y012939D01*
X013543Y012953D02*
X013779Y012953D01*
X013779Y012967D02*
X013543Y012967D01*
X013543Y012981D02*
X013779Y012981D01*
X013779Y012995D02*
X013543Y012995D01*
X013543Y013009D02*
X013779Y013009D01*
X013779Y013023D02*
X013543Y013023D01*
X013543Y013037D02*
X013779Y013037D01*
X013779Y013051D02*
X013543Y013051D01*
X013543Y013065D02*
X013779Y013065D01*
X013779Y013079D02*
X013543Y013079D01*
X013543Y013093D02*
X013779Y013093D01*
X013779Y013107D02*
X013543Y013107D01*
X013543Y013121D02*
X013779Y013121D01*
X013779Y013135D02*
X013543Y013135D01*
X013543Y013149D02*
X013779Y013149D01*
X013779Y013163D02*
X013543Y013163D01*
X013543Y013177D02*
X013779Y013177D01*
X013779Y013191D02*
X013543Y013191D01*
X013543Y013205D02*
X013779Y013205D01*
X013779Y013219D02*
X013543Y013219D01*
X013543Y013233D02*
X013779Y013233D01*
X013779Y013247D02*
X013543Y013247D01*
X013543Y013261D02*
X013779Y013261D01*
X013779Y013275D02*
X013543Y013275D01*
X013543Y013289D02*
X013779Y013289D01*
X013779Y013303D02*
X013543Y013303D01*
X013543Y013317D02*
X013779Y013317D01*
X013779Y013331D02*
X013543Y013331D01*
X014330Y013341D02*
X014330Y012855D01*
X014330Y013341D02*
X014566Y013341D01*
X014566Y012855D01*
X014330Y012855D01*
X014330Y012869D02*
X014566Y012869D01*
X014566Y012883D02*
X014330Y012883D01*
X014330Y012897D02*
X014566Y012897D01*
X014566Y012911D02*
X014330Y012911D01*
X014330Y012925D02*
X014566Y012925D01*
X014566Y012939D02*
X014330Y012939D01*
X014330Y012953D02*
X014566Y012953D01*
X014566Y012967D02*
X014330Y012967D01*
X014330Y012981D02*
X014566Y012981D01*
X014566Y012995D02*
X014330Y012995D01*
X014330Y013009D02*
X014566Y013009D01*
X014566Y013023D02*
X014330Y013023D01*
X014330Y013037D02*
X014566Y013037D01*
X014566Y013051D02*
X014330Y013051D01*
X014330Y013065D02*
X014566Y013065D01*
X014566Y013079D02*
X014330Y013079D01*
X014330Y013093D02*
X014566Y013093D01*
X014566Y013107D02*
X014330Y013107D01*
X014330Y013121D02*
X014566Y013121D01*
X014566Y013135D02*
X014330Y013135D01*
X014330Y013149D02*
X014566Y013149D01*
X014566Y013163D02*
X014330Y013163D01*
X014330Y013177D02*
X014566Y013177D01*
X014566Y013191D02*
X014330Y013191D01*
X014330Y013205D02*
X014566Y013205D01*
X014566Y013219D02*
X014330Y013219D01*
X014330Y013233D02*
X014566Y013233D01*
X014566Y013247D02*
X014330Y013247D01*
X014330Y013261D02*
X014566Y013261D01*
X014566Y013275D02*
X014330Y013275D01*
X014330Y013289D02*
X014566Y013289D01*
X014566Y013303D02*
X014330Y013303D01*
X014330Y013317D02*
X014566Y013317D01*
X014566Y013331D02*
X014330Y013331D01*
X015118Y013341D02*
X015118Y012855D01*
X015118Y013341D02*
X015354Y013341D01*
X015354Y012855D01*
X015118Y012855D01*
X015118Y012869D02*
X015354Y012869D01*
X015354Y012883D02*
X015118Y012883D01*
X015118Y012897D02*
X015354Y012897D01*
X015354Y012911D02*
X015118Y012911D01*
X015118Y012925D02*
X015354Y012925D01*
X015354Y012939D02*
X015118Y012939D01*
X015118Y012953D02*
X015354Y012953D01*
X015354Y012967D02*
X015118Y012967D01*
X015118Y012981D02*
X015354Y012981D01*
X015354Y012995D02*
X015118Y012995D01*
X015118Y013009D02*
X015354Y013009D01*
X015354Y013023D02*
X015118Y013023D01*
X015118Y013037D02*
X015354Y013037D01*
X015354Y013051D02*
X015118Y013051D01*
X015118Y013065D02*
X015354Y013065D01*
X015354Y013079D02*
X015118Y013079D01*
X015118Y013093D02*
X015354Y013093D01*
X015354Y013107D02*
X015118Y013107D01*
X015118Y013121D02*
X015354Y013121D01*
X015354Y013135D02*
X015118Y013135D01*
X015118Y013149D02*
X015354Y013149D01*
X015354Y013163D02*
X015118Y013163D01*
X015118Y013177D02*
X015354Y013177D01*
X015354Y013191D02*
X015118Y013191D01*
X015118Y013205D02*
X015354Y013205D01*
X015354Y013219D02*
X015118Y013219D01*
X015118Y013233D02*
X015354Y013233D01*
X015354Y013247D02*
X015118Y013247D01*
X015118Y013261D02*
X015354Y013261D01*
X015354Y013275D02*
X015118Y013275D01*
X015118Y013289D02*
X015354Y013289D01*
X015354Y013303D02*
X015118Y013303D01*
X015118Y013317D02*
X015354Y013317D01*
X015354Y013331D02*
X015118Y013331D01*
X015905Y013341D02*
X015905Y012855D01*
X015905Y013341D02*
X016141Y013341D01*
X016141Y012855D01*
X015905Y012855D01*
X015905Y012869D02*
X016141Y012869D01*
X016141Y012883D02*
X015905Y012883D01*
X015905Y012897D02*
X016141Y012897D01*
X016141Y012911D02*
X015905Y012911D01*
X015905Y012925D02*
X016141Y012925D01*
X016141Y012939D02*
X015905Y012939D01*
X015905Y012953D02*
X016141Y012953D01*
X016141Y012967D02*
X015905Y012967D01*
X015905Y012981D02*
X016141Y012981D01*
X016141Y012995D02*
X015905Y012995D01*
X015905Y013009D02*
X016141Y013009D01*
X016141Y013023D02*
X015905Y013023D01*
X015905Y013037D02*
X016141Y013037D01*
X016141Y013051D02*
X015905Y013051D01*
X015905Y013065D02*
X016141Y013065D01*
X016141Y013079D02*
X015905Y013079D01*
X015905Y013093D02*
X016141Y013093D01*
X016141Y013107D02*
X015905Y013107D01*
X015905Y013121D02*
X016141Y013121D01*
X016141Y013135D02*
X015905Y013135D01*
X015905Y013149D02*
X016141Y013149D01*
X016141Y013163D02*
X015905Y013163D01*
X015905Y013177D02*
X016141Y013177D01*
X016141Y013191D02*
X015905Y013191D01*
X015905Y013205D02*
X016141Y013205D01*
X016141Y013219D02*
X015905Y013219D01*
X015905Y013233D02*
X016141Y013233D01*
X016141Y013247D02*
X015905Y013247D01*
X015905Y013261D02*
X016141Y013261D01*
X016141Y013275D02*
X015905Y013275D01*
X015905Y013289D02*
X016141Y013289D01*
X016141Y013303D02*
X015905Y013303D01*
X015905Y013317D02*
X016141Y013317D01*
X016141Y013331D02*
X015905Y013331D01*
X016693Y013341D02*
X016693Y012855D01*
X016693Y013341D02*
X016929Y013341D01*
X016929Y012855D01*
X016693Y012855D01*
X016693Y012869D02*
X016929Y012869D01*
X016929Y012883D02*
X016693Y012883D01*
X016693Y012897D02*
X016929Y012897D01*
X016929Y012911D02*
X016693Y012911D01*
X016693Y012925D02*
X016929Y012925D01*
X016929Y012939D02*
X016693Y012939D01*
X016693Y012953D02*
X016929Y012953D01*
X016929Y012967D02*
X016693Y012967D01*
X016693Y012981D02*
X016929Y012981D01*
X016929Y012995D02*
X016693Y012995D01*
X016693Y013009D02*
X016929Y013009D01*
X016929Y013023D02*
X016693Y013023D01*
X016693Y013037D02*
X016929Y013037D01*
X016929Y013051D02*
X016693Y013051D01*
X016693Y013065D02*
X016929Y013065D01*
X016929Y013079D02*
X016693Y013079D01*
X016693Y013093D02*
X016929Y013093D01*
X016929Y013107D02*
X016693Y013107D01*
X016693Y013121D02*
X016929Y013121D01*
X016929Y013135D02*
X016693Y013135D01*
X016693Y013149D02*
X016929Y013149D01*
X016929Y013163D02*
X016693Y013163D01*
X016693Y013177D02*
X016929Y013177D01*
X016929Y013191D02*
X016693Y013191D01*
X016693Y013205D02*
X016929Y013205D01*
X016929Y013219D02*
X016693Y013219D01*
X016693Y013233D02*
X016929Y013233D01*
X016929Y013247D02*
X016693Y013247D01*
X016693Y013261D02*
X016929Y013261D01*
X016929Y013275D02*
X016693Y013275D01*
X016693Y013289D02*
X016929Y013289D01*
X016929Y013303D02*
X016693Y013303D01*
X016693Y013317D02*
X016929Y013317D01*
X016929Y013331D02*
X016693Y013331D01*
X017480Y013341D02*
X017480Y012855D01*
X017480Y013341D02*
X017716Y013341D01*
X017716Y012855D01*
X017480Y012855D01*
X017480Y012869D02*
X017716Y012869D01*
X017716Y012883D02*
X017480Y012883D01*
X017480Y012897D02*
X017716Y012897D01*
X017716Y012911D02*
X017480Y012911D01*
X017480Y012925D02*
X017716Y012925D01*
X017716Y012939D02*
X017480Y012939D01*
X017480Y012953D02*
X017716Y012953D01*
X017716Y012967D02*
X017480Y012967D01*
X017480Y012981D02*
X017716Y012981D01*
X017716Y012995D02*
X017480Y012995D01*
X017480Y013009D02*
X017716Y013009D01*
X017716Y013023D02*
X017480Y013023D01*
X017480Y013037D02*
X017716Y013037D01*
X017716Y013051D02*
X017480Y013051D01*
X017480Y013065D02*
X017716Y013065D01*
X017716Y013079D02*
X017480Y013079D01*
X017480Y013093D02*
X017716Y013093D01*
X017716Y013107D02*
X017480Y013107D01*
X017480Y013121D02*
X017716Y013121D01*
X017716Y013135D02*
X017480Y013135D01*
X017480Y013149D02*
X017716Y013149D01*
X017716Y013163D02*
X017480Y013163D01*
X017480Y013177D02*
X017716Y013177D01*
X017716Y013191D02*
X017480Y013191D01*
X017480Y013205D02*
X017716Y013205D01*
X017716Y013219D02*
X017480Y013219D01*
X017480Y013233D02*
X017716Y013233D01*
X017716Y013247D02*
X017480Y013247D01*
X017480Y013261D02*
X017716Y013261D01*
X017716Y013275D02*
X017480Y013275D01*
X017480Y013289D02*
X017716Y013289D01*
X017716Y013303D02*
X017480Y013303D01*
X017480Y013317D02*
X017716Y013317D01*
X017716Y013331D02*
X017480Y013331D01*
X017716Y012160D02*
X017716Y011674D01*
X017480Y011674D01*
X017480Y012160D01*
X017716Y012160D01*
X017716Y011688D02*
X017480Y011688D01*
X017480Y011702D02*
X017716Y011702D01*
X017716Y011716D02*
X017480Y011716D01*
X017480Y011730D02*
X017716Y011730D01*
X017716Y011744D02*
X017480Y011744D01*
X017480Y011758D02*
X017716Y011758D01*
X017716Y011772D02*
X017480Y011772D01*
X017480Y011786D02*
X017716Y011786D01*
X017716Y011800D02*
X017480Y011800D01*
X017480Y011814D02*
X017716Y011814D01*
X017716Y011828D02*
X017480Y011828D01*
X017480Y011842D02*
X017716Y011842D01*
X017716Y011856D02*
X017480Y011856D01*
X017480Y011870D02*
X017716Y011870D01*
X017716Y011884D02*
X017480Y011884D01*
X017480Y011898D02*
X017716Y011898D01*
X017716Y011912D02*
X017480Y011912D01*
X017480Y011926D02*
X017716Y011926D01*
X017716Y011940D02*
X017480Y011940D01*
X017480Y011954D02*
X017716Y011954D01*
X017716Y011968D02*
X017480Y011968D01*
X017480Y011982D02*
X017716Y011982D01*
X017716Y011996D02*
X017480Y011996D01*
X017480Y012010D02*
X017716Y012010D01*
X017716Y012024D02*
X017480Y012024D01*
X017480Y012038D02*
X017716Y012038D01*
X017716Y012052D02*
X017480Y012052D01*
X017480Y012066D02*
X017716Y012066D01*
X017716Y012080D02*
X017480Y012080D01*
X017480Y012094D02*
X017716Y012094D01*
X017716Y012108D02*
X017480Y012108D01*
X017480Y012122D02*
X017716Y012122D01*
X017716Y012136D02*
X017480Y012136D01*
X017480Y012150D02*
X017716Y012150D01*
X016929Y012160D02*
X016929Y011674D01*
X016693Y011674D01*
X016693Y012160D01*
X016929Y012160D01*
X016929Y011688D02*
X016693Y011688D01*
X016693Y011702D02*
X016929Y011702D01*
X016929Y011716D02*
X016693Y011716D01*
X016693Y011730D02*
X016929Y011730D01*
X016929Y011744D02*
X016693Y011744D01*
X016693Y011758D02*
X016929Y011758D01*
X016929Y011772D02*
X016693Y011772D01*
X016693Y011786D02*
X016929Y011786D01*
X016929Y011800D02*
X016693Y011800D01*
X016693Y011814D02*
X016929Y011814D01*
X016929Y011828D02*
X016693Y011828D01*
X016693Y011842D02*
X016929Y011842D01*
X016929Y011856D02*
X016693Y011856D01*
X016693Y011870D02*
X016929Y011870D01*
X016929Y011884D02*
X016693Y011884D01*
X016693Y011898D02*
X016929Y011898D01*
X016929Y011912D02*
X016693Y011912D01*
X016693Y011926D02*
X016929Y011926D01*
X016929Y011940D02*
X016693Y011940D01*
X016693Y011954D02*
X016929Y011954D01*
X016929Y011968D02*
X016693Y011968D01*
X016693Y011982D02*
X016929Y011982D01*
X016929Y011996D02*
X016693Y011996D01*
X016693Y012010D02*
X016929Y012010D01*
X016929Y012024D02*
X016693Y012024D01*
X016693Y012038D02*
X016929Y012038D01*
X016929Y012052D02*
X016693Y012052D01*
X016693Y012066D02*
X016929Y012066D01*
X016929Y012080D02*
X016693Y012080D01*
X016693Y012094D02*
X016929Y012094D01*
X016929Y012108D02*
X016693Y012108D01*
X016693Y012122D02*
X016929Y012122D01*
X016929Y012136D02*
X016693Y012136D01*
X016693Y012150D02*
X016929Y012150D01*
X016141Y012160D02*
X016141Y011674D01*
X015905Y011674D01*
X015905Y012160D01*
X016141Y012160D01*
X016141Y011688D02*
X015905Y011688D01*
X015905Y011702D02*
X016141Y011702D01*
X016141Y011716D02*
X015905Y011716D01*
X015905Y011730D02*
X016141Y011730D01*
X016141Y011744D02*
X015905Y011744D01*
X015905Y011758D02*
X016141Y011758D01*
X016141Y011772D02*
X015905Y011772D01*
X015905Y011786D02*
X016141Y011786D01*
X016141Y011800D02*
X015905Y011800D01*
X015905Y011814D02*
X016141Y011814D01*
X016141Y011828D02*
X015905Y011828D01*
X015905Y011842D02*
X016141Y011842D01*
X016141Y011856D02*
X015905Y011856D01*
X015905Y011870D02*
X016141Y011870D01*
X016141Y011884D02*
X015905Y011884D01*
X015905Y011898D02*
X016141Y011898D01*
X016141Y011912D02*
X015905Y011912D01*
X015905Y011926D02*
X016141Y011926D01*
X016141Y011940D02*
X015905Y011940D01*
X015905Y011954D02*
X016141Y011954D01*
X016141Y011968D02*
X015905Y011968D01*
X015905Y011982D02*
X016141Y011982D01*
X016141Y011996D02*
X015905Y011996D01*
X015905Y012010D02*
X016141Y012010D01*
X016141Y012024D02*
X015905Y012024D01*
X015905Y012038D02*
X016141Y012038D01*
X016141Y012052D02*
X015905Y012052D01*
X015905Y012066D02*
X016141Y012066D01*
X016141Y012080D02*
X015905Y012080D01*
X015905Y012094D02*
X016141Y012094D01*
X016141Y012108D02*
X015905Y012108D01*
X015905Y012122D02*
X016141Y012122D01*
X016141Y012136D02*
X015905Y012136D01*
X015905Y012150D02*
X016141Y012150D01*
X015354Y012160D02*
X015354Y011674D01*
X015118Y011674D01*
X015118Y012160D01*
X015354Y012160D01*
X015354Y011688D02*
X015118Y011688D01*
X015118Y011702D02*
X015354Y011702D01*
X015354Y011716D02*
X015118Y011716D01*
X015118Y011730D02*
X015354Y011730D01*
X015354Y011744D02*
X015118Y011744D01*
X015118Y011758D02*
X015354Y011758D01*
X015354Y011772D02*
X015118Y011772D01*
X015118Y011786D02*
X015354Y011786D01*
X015354Y011800D02*
X015118Y011800D01*
X015118Y011814D02*
X015354Y011814D01*
X015354Y011828D02*
X015118Y011828D01*
X015118Y011842D02*
X015354Y011842D01*
X015354Y011856D02*
X015118Y011856D01*
X015118Y011870D02*
X015354Y011870D01*
X015354Y011884D02*
X015118Y011884D01*
X015118Y011898D02*
X015354Y011898D01*
X015354Y011912D02*
X015118Y011912D01*
X015118Y011926D02*
X015354Y011926D01*
X015354Y011940D02*
X015118Y011940D01*
X015118Y011954D02*
X015354Y011954D01*
X015354Y011968D02*
X015118Y011968D01*
X015118Y011982D02*
X015354Y011982D01*
X015354Y011996D02*
X015118Y011996D01*
X015118Y012010D02*
X015354Y012010D01*
X015354Y012024D02*
X015118Y012024D01*
X015118Y012038D02*
X015354Y012038D01*
X015354Y012052D02*
X015118Y012052D01*
X015118Y012066D02*
X015354Y012066D01*
X015354Y012080D02*
X015118Y012080D01*
X015118Y012094D02*
X015354Y012094D01*
X015354Y012108D02*
X015118Y012108D01*
X015118Y012122D02*
X015354Y012122D01*
X015354Y012136D02*
X015118Y012136D01*
X015118Y012150D02*
X015354Y012150D01*
X014566Y012160D02*
X014566Y011674D01*
X014330Y011674D01*
X014330Y012160D01*
X014566Y012160D01*
X014566Y011688D02*
X014330Y011688D01*
X014330Y011702D02*
X014566Y011702D01*
X014566Y011716D02*
X014330Y011716D01*
X014330Y011730D02*
X014566Y011730D01*
X014566Y011744D02*
X014330Y011744D01*
X014330Y011758D02*
X014566Y011758D01*
X014566Y011772D02*
X014330Y011772D01*
X014330Y011786D02*
X014566Y011786D01*
X014566Y011800D02*
X014330Y011800D01*
X014330Y011814D02*
X014566Y011814D01*
X014566Y011828D02*
X014330Y011828D01*
X014330Y011842D02*
X014566Y011842D01*
X014566Y011856D02*
X014330Y011856D01*
X014330Y011870D02*
X014566Y011870D01*
X014566Y011884D02*
X014330Y011884D01*
X014330Y011898D02*
X014566Y011898D01*
X014566Y011912D02*
X014330Y011912D01*
X014330Y011926D02*
X014566Y011926D01*
X014566Y011940D02*
X014330Y011940D01*
X014330Y011954D02*
X014566Y011954D01*
X014566Y011968D02*
X014330Y011968D01*
X014330Y011982D02*
X014566Y011982D01*
X014566Y011996D02*
X014330Y011996D01*
X014330Y012010D02*
X014566Y012010D01*
X014566Y012024D02*
X014330Y012024D01*
X014330Y012038D02*
X014566Y012038D01*
X014566Y012052D02*
X014330Y012052D01*
X014330Y012066D02*
X014566Y012066D01*
X014566Y012080D02*
X014330Y012080D01*
X014330Y012094D02*
X014566Y012094D01*
X014566Y012108D02*
X014330Y012108D01*
X014330Y012122D02*
X014566Y012122D01*
X014566Y012136D02*
X014330Y012136D01*
X014330Y012150D02*
X014566Y012150D01*
X013779Y012160D02*
X013779Y011674D01*
X013543Y011674D01*
X013543Y012160D01*
X013779Y012160D01*
X013779Y011688D02*
X013543Y011688D01*
X013543Y011702D02*
X013779Y011702D01*
X013779Y011716D02*
X013543Y011716D01*
X013543Y011730D02*
X013779Y011730D01*
X013779Y011744D02*
X013543Y011744D01*
X013543Y011758D02*
X013779Y011758D01*
X013779Y011772D02*
X013543Y011772D01*
X013543Y011786D02*
X013779Y011786D01*
X013779Y011800D02*
X013543Y011800D01*
X013543Y011814D02*
X013779Y011814D01*
X013779Y011828D02*
X013543Y011828D01*
X013543Y011842D02*
X013779Y011842D01*
X013779Y011856D02*
X013543Y011856D01*
X013543Y011870D02*
X013779Y011870D01*
X013779Y011884D02*
X013543Y011884D01*
X013543Y011898D02*
X013779Y011898D01*
X013779Y011912D02*
X013543Y011912D01*
X013543Y011926D02*
X013779Y011926D01*
X013779Y011940D02*
X013543Y011940D01*
X013543Y011954D02*
X013779Y011954D01*
X013779Y011968D02*
X013543Y011968D01*
X013543Y011982D02*
X013779Y011982D01*
X013779Y011996D02*
X013543Y011996D01*
X013543Y012010D02*
X013779Y012010D01*
X013779Y012024D02*
X013543Y012024D01*
X013543Y012038D02*
X013779Y012038D01*
X013779Y012052D02*
X013543Y012052D01*
X013543Y012066D02*
X013779Y012066D01*
X013779Y012080D02*
X013543Y012080D01*
X013543Y012094D02*
X013779Y012094D01*
X013779Y012108D02*
X013543Y012108D01*
X013543Y012122D02*
X013779Y012122D01*
X013779Y012136D02*
X013543Y012136D01*
X013543Y012150D02*
X013779Y012150D01*
X012992Y012160D02*
X012992Y011674D01*
X012756Y011674D01*
X012756Y012160D01*
X012992Y012160D01*
X012992Y011688D02*
X012756Y011688D01*
X012756Y011702D02*
X012992Y011702D01*
X012992Y011716D02*
X012756Y011716D01*
X012756Y011730D02*
X012992Y011730D01*
X012992Y011744D02*
X012756Y011744D01*
X012756Y011758D02*
X012992Y011758D01*
X012992Y011772D02*
X012756Y011772D01*
X012756Y011786D02*
X012992Y011786D01*
X012992Y011800D02*
X012756Y011800D01*
X012756Y011814D02*
X012992Y011814D01*
X012992Y011828D02*
X012756Y011828D01*
X012756Y011842D02*
X012992Y011842D01*
X012992Y011856D02*
X012756Y011856D01*
X012756Y011870D02*
X012992Y011870D01*
X012992Y011884D02*
X012756Y011884D01*
X012756Y011898D02*
X012992Y011898D01*
X012992Y011912D02*
X012756Y011912D01*
X012756Y011926D02*
X012992Y011926D01*
X012992Y011940D02*
X012756Y011940D01*
X012756Y011954D02*
X012992Y011954D01*
X012992Y011968D02*
X012756Y011968D01*
X012756Y011982D02*
X012992Y011982D01*
X012992Y011996D02*
X012756Y011996D01*
X012756Y012010D02*
X012992Y012010D01*
X012992Y012024D02*
X012756Y012024D01*
X012756Y012038D02*
X012992Y012038D01*
X012992Y012052D02*
X012756Y012052D01*
X012756Y012066D02*
X012992Y012066D01*
X012992Y012080D02*
X012756Y012080D01*
X012756Y012094D02*
X012992Y012094D01*
X012992Y012108D02*
X012756Y012108D01*
X012756Y012122D02*
X012992Y012122D01*
X012992Y012136D02*
X012756Y012136D01*
X012756Y012150D02*
X012992Y012150D01*
X019291Y012160D02*
X019291Y011674D01*
X019055Y011674D01*
X019055Y012160D01*
X019291Y012160D01*
X019291Y011688D02*
X019055Y011688D01*
X019055Y011702D02*
X019291Y011702D01*
X019291Y011716D02*
X019055Y011716D01*
X019055Y011730D02*
X019291Y011730D01*
X019291Y011744D02*
X019055Y011744D01*
X019055Y011758D02*
X019291Y011758D01*
X019291Y011772D02*
X019055Y011772D01*
X019055Y011786D02*
X019291Y011786D01*
X019291Y011800D02*
X019055Y011800D01*
X019055Y011814D02*
X019291Y011814D01*
X019291Y011828D02*
X019055Y011828D01*
X019055Y011842D02*
X019291Y011842D01*
X019291Y011856D02*
X019055Y011856D01*
X019055Y011870D02*
X019291Y011870D01*
X019291Y011884D02*
X019055Y011884D01*
X019055Y011898D02*
X019291Y011898D01*
X019291Y011912D02*
X019055Y011912D01*
X019055Y011926D02*
X019291Y011926D01*
X019291Y011940D02*
X019055Y011940D01*
X019055Y011954D02*
X019291Y011954D01*
X019291Y011968D02*
X019055Y011968D01*
X019055Y011982D02*
X019291Y011982D01*
X019291Y011996D02*
X019055Y011996D01*
X019055Y012010D02*
X019291Y012010D01*
X019291Y012024D02*
X019055Y012024D01*
X019055Y012038D02*
X019291Y012038D01*
X019291Y012052D02*
X019055Y012052D01*
X019055Y012066D02*
X019291Y012066D01*
X019291Y012080D02*
X019055Y012080D01*
X019055Y012094D02*
X019291Y012094D01*
X019291Y012108D02*
X019055Y012108D01*
X019055Y012122D02*
X019291Y012122D01*
X019291Y012136D02*
X019055Y012136D01*
X019055Y012150D02*
X019291Y012150D01*
X020078Y012160D02*
X020078Y011674D01*
X019842Y011674D01*
X019842Y012160D01*
X020078Y012160D01*
X020078Y011688D02*
X019842Y011688D01*
X019842Y011702D02*
X020078Y011702D01*
X020078Y011716D02*
X019842Y011716D01*
X019842Y011730D02*
X020078Y011730D01*
X020078Y011744D02*
X019842Y011744D01*
X019842Y011758D02*
X020078Y011758D01*
X020078Y011772D02*
X019842Y011772D01*
X019842Y011786D02*
X020078Y011786D01*
X020078Y011800D02*
X019842Y011800D01*
X019842Y011814D02*
X020078Y011814D01*
X020078Y011828D02*
X019842Y011828D01*
X019842Y011842D02*
X020078Y011842D01*
X020078Y011856D02*
X019842Y011856D01*
X019842Y011870D02*
X020078Y011870D01*
X020078Y011884D02*
X019842Y011884D01*
X019842Y011898D02*
X020078Y011898D01*
X020078Y011912D02*
X019842Y011912D01*
X019842Y011926D02*
X020078Y011926D01*
X020078Y011940D02*
X019842Y011940D01*
X019842Y011954D02*
X020078Y011954D01*
X020078Y011968D02*
X019842Y011968D01*
X019842Y011982D02*
X020078Y011982D01*
X020078Y011996D02*
X019842Y011996D01*
X019842Y012010D02*
X020078Y012010D01*
X020078Y012024D02*
X019842Y012024D01*
X019842Y012038D02*
X020078Y012038D01*
X020078Y012052D02*
X019842Y012052D01*
X019842Y012066D02*
X020078Y012066D01*
X020078Y012080D02*
X019842Y012080D01*
X019842Y012094D02*
X020078Y012094D01*
X020078Y012108D02*
X019842Y012108D01*
X019842Y012122D02*
X020078Y012122D01*
X020078Y012136D02*
X019842Y012136D01*
X019842Y012150D02*
X020078Y012150D01*
X020866Y012160D02*
X020866Y011674D01*
X020630Y011674D01*
X020630Y012160D01*
X020866Y012160D01*
X020866Y011688D02*
X020630Y011688D01*
X020630Y011702D02*
X020866Y011702D01*
X020866Y011716D02*
X020630Y011716D01*
X020630Y011730D02*
X020866Y011730D01*
X020866Y011744D02*
X020630Y011744D01*
X020630Y011758D02*
X020866Y011758D01*
X020866Y011772D02*
X020630Y011772D01*
X020630Y011786D02*
X020866Y011786D01*
X020866Y011800D02*
X020630Y011800D01*
X020630Y011814D02*
X020866Y011814D01*
X020866Y011828D02*
X020630Y011828D01*
X020630Y011842D02*
X020866Y011842D01*
X020866Y011856D02*
X020630Y011856D01*
X020630Y011870D02*
X020866Y011870D01*
X020866Y011884D02*
X020630Y011884D01*
X020630Y011898D02*
X020866Y011898D01*
X020866Y011912D02*
X020630Y011912D01*
X020630Y011926D02*
X020866Y011926D01*
X020866Y011940D02*
X020630Y011940D01*
X020630Y011954D02*
X020866Y011954D01*
X020866Y011968D02*
X020630Y011968D01*
X020630Y011982D02*
X020866Y011982D01*
X020866Y011996D02*
X020630Y011996D01*
X020630Y012010D02*
X020866Y012010D01*
X020866Y012024D02*
X020630Y012024D01*
X020630Y012038D02*
X020866Y012038D01*
X020866Y012052D02*
X020630Y012052D01*
X020630Y012066D02*
X020866Y012066D01*
X020866Y012080D02*
X020630Y012080D01*
X020630Y012094D02*
X020866Y012094D01*
X020866Y012108D02*
X020630Y012108D01*
X020630Y012122D02*
X020866Y012122D01*
X020866Y012136D02*
X020630Y012136D01*
X020630Y012150D02*
X020866Y012150D01*
X021653Y012160D02*
X021653Y011674D01*
X021417Y011674D01*
X021417Y012160D01*
X021653Y012160D01*
X021653Y011688D02*
X021417Y011688D01*
X021417Y011702D02*
X021653Y011702D01*
X021653Y011716D02*
X021417Y011716D01*
X021417Y011730D02*
X021653Y011730D01*
X021653Y011744D02*
X021417Y011744D01*
X021417Y011758D02*
X021653Y011758D01*
X021653Y011772D02*
X021417Y011772D01*
X021417Y011786D02*
X021653Y011786D01*
X021653Y011800D02*
X021417Y011800D01*
X021417Y011814D02*
X021653Y011814D01*
X021653Y011828D02*
X021417Y011828D01*
X021417Y011842D02*
X021653Y011842D01*
X021653Y011856D02*
X021417Y011856D01*
X021417Y011870D02*
X021653Y011870D01*
X021653Y011884D02*
X021417Y011884D01*
X021417Y011898D02*
X021653Y011898D01*
X021653Y011912D02*
X021417Y011912D01*
X021417Y011926D02*
X021653Y011926D01*
X021653Y011940D02*
X021417Y011940D01*
X021417Y011954D02*
X021653Y011954D01*
X021653Y011968D02*
X021417Y011968D01*
X021417Y011982D02*
X021653Y011982D01*
X021653Y011996D02*
X021417Y011996D01*
X021417Y012010D02*
X021653Y012010D01*
X021653Y012024D02*
X021417Y012024D01*
X021417Y012038D02*
X021653Y012038D01*
X021653Y012052D02*
X021417Y012052D01*
X021417Y012066D02*
X021653Y012066D01*
X021653Y012080D02*
X021417Y012080D01*
X021417Y012094D02*
X021653Y012094D01*
X021653Y012108D02*
X021417Y012108D01*
X021417Y012122D02*
X021653Y012122D01*
X021653Y012136D02*
X021417Y012136D01*
X021417Y012150D02*
X021653Y012150D01*
X022441Y012160D02*
X022441Y011674D01*
X022205Y011674D01*
X022205Y012160D01*
X022441Y012160D01*
X022441Y011688D02*
X022205Y011688D01*
X022205Y011702D02*
X022441Y011702D01*
X022441Y011716D02*
X022205Y011716D01*
X022205Y011730D02*
X022441Y011730D01*
X022441Y011744D02*
X022205Y011744D01*
X022205Y011758D02*
X022441Y011758D01*
X022441Y011772D02*
X022205Y011772D01*
X022205Y011786D02*
X022441Y011786D01*
X022441Y011800D02*
X022205Y011800D01*
X022205Y011814D02*
X022441Y011814D01*
X022441Y011828D02*
X022205Y011828D01*
X022205Y011842D02*
X022441Y011842D01*
X022441Y011856D02*
X022205Y011856D01*
X022205Y011870D02*
X022441Y011870D01*
X022441Y011884D02*
X022205Y011884D01*
X022205Y011898D02*
X022441Y011898D01*
X022441Y011912D02*
X022205Y011912D01*
X022205Y011926D02*
X022441Y011926D01*
X022441Y011940D02*
X022205Y011940D01*
X022205Y011954D02*
X022441Y011954D01*
X022441Y011968D02*
X022205Y011968D01*
X022205Y011982D02*
X022441Y011982D01*
X022441Y011996D02*
X022205Y011996D01*
X022205Y012010D02*
X022441Y012010D01*
X022441Y012024D02*
X022205Y012024D01*
X022205Y012038D02*
X022441Y012038D01*
X022441Y012052D02*
X022205Y012052D01*
X022205Y012066D02*
X022441Y012066D01*
X022441Y012080D02*
X022205Y012080D01*
X022205Y012094D02*
X022441Y012094D01*
X022441Y012108D02*
X022205Y012108D01*
X022205Y012122D02*
X022441Y012122D01*
X022441Y012136D02*
X022205Y012136D01*
X022205Y012150D02*
X022441Y012150D01*
X023228Y012160D02*
X023228Y011674D01*
X022992Y011674D01*
X022992Y012160D01*
X023228Y012160D01*
X023228Y011688D02*
X022992Y011688D01*
X022992Y011702D02*
X023228Y011702D01*
X023228Y011716D02*
X022992Y011716D01*
X022992Y011730D02*
X023228Y011730D01*
X023228Y011744D02*
X022992Y011744D01*
X022992Y011758D02*
X023228Y011758D01*
X023228Y011772D02*
X022992Y011772D01*
X022992Y011786D02*
X023228Y011786D01*
X023228Y011800D02*
X022992Y011800D01*
X022992Y011814D02*
X023228Y011814D01*
X023228Y011828D02*
X022992Y011828D01*
X022992Y011842D02*
X023228Y011842D01*
X023228Y011856D02*
X022992Y011856D01*
X022992Y011870D02*
X023228Y011870D01*
X023228Y011884D02*
X022992Y011884D01*
X022992Y011898D02*
X023228Y011898D01*
X023228Y011912D02*
X022992Y011912D01*
X022992Y011926D02*
X023228Y011926D01*
X023228Y011940D02*
X022992Y011940D01*
X022992Y011954D02*
X023228Y011954D01*
X023228Y011968D02*
X022992Y011968D01*
X022992Y011982D02*
X023228Y011982D01*
X023228Y011996D02*
X022992Y011996D01*
X022992Y012010D02*
X023228Y012010D01*
X023228Y012024D02*
X022992Y012024D01*
X022992Y012038D02*
X023228Y012038D01*
X023228Y012052D02*
X022992Y012052D01*
X022992Y012066D02*
X023228Y012066D01*
X023228Y012080D02*
X022992Y012080D01*
X022992Y012094D02*
X023228Y012094D01*
X023228Y012108D02*
X022992Y012108D01*
X022992Y012122D02*
X023228Y012122D01*
X023228Y012136D02*
X022992Y012136D01*
X022992Y012150D02*
X023228Y012150D01*
X024015Y012160D02*
X024015Y011674D01*
X023779Y011674D01*
X023779Y012160D01*
X024015Y012160D01*
X024015Y011688D02*
X023779Y011688D01*
X023779Y011702D02*
X024015Y011702D01*
X024015Y011716D02*
X023779Y011716D01*
X023779Y011730D02*
X024015Y011730D01*
X024015Y011744D02*
X023779Y011744D01*
X023779Y011758D02*
X024015Y011758D01*
X024015Y011772D02*
X023779Y011772D01*
X023779Y011786D02*
X024015Y011786D01*
X024015Y011800D02*
X023779Y011800D01*
X023779Y011814D02*
X024015Y011814D01*
X024015Y011828D02*
X023779Y011828D01*
X023779Y011842D02*
X024015Y011842D01*
X024015Y011856D02*
X023779Y011856D01*
X023779Y011870D02*
X024015Y011870D01*
X024015Y011884D02*
X023779Y011884D01*
X023779Y011898D02*
X024015Y011898D01*
X024015Y011912D02*
X023779Y011912D01*
X023779Y011926D02*
X024015Y011926D01*
X024015Y011940D02*
X023779Y011940D01*
X023779Y011954D02*
X024015Y011954D01*
X024015Y011968D02*
X023779Y011968D01*
X023779Y011982D02*
X024015Y011982D01*
X024015Y011996D02*
X023779Y011996D01*
X023779Y012010D02*
X024015Y012010D01*
X024015Y012024D02*
X023779Y012024D01*
X023779Y012038D02*
X024015Y012038D01*
X024015Y012052D02*
X023779Y012052D01*
X023779Y012066D02*
X024015Y012066D01*
X024015Y012080D02*
X023779Y012080D01*
X023779Y012094D02*
X024015Y012094D01*
X024015Y012108D02*
X023779Y012108D01*
X023779Y012122D02*
X024015Y012122D01*
X024015Y012136D02*
X023779Y012136D01*
X023779Y012150D02*
X024015Y012150D01*
X023779Y012855D02*
X023779Y013341D01*
X024015Y013341D01*
X024015Y012855D01*
X023779Y012855D01*
X023779Y012869D02*
X024015Y012869D01*
X024015Y012883D02*
X023779Y012883D01*
X023779Y012897D02*
X024015Y012897D01*
X024015Y012911D02*
X023779Y012911D01*
X023779Y012925D02*
X024015Y012925D01*
X024015Y012939D02*
X023779Y012939D01*
X023779Y012953D02*
X024015Y012953D01*
X024015Y012967D02*
X023779Y012967D01*
X023779Y012981D02*
X024015Y012981D01*
X024015Y012995D02*
X023779Y012995D01*
X023779Y013009D02*
X024015Y013009D01*
X024015Y013023D02*
X023779Y013023D01*
X023779Y013037D02*
X024015Y013037D01*
X024015Y013051D02*
X023779Y013051D01*
X023779Y013065D02*
X024015Y013065D01*
X024015Y013079D02*
X023779Y013079D01*
X023779Y013093D02*
X024015Y013093D01*
X024015Y013107D02*
X023779Y013107D01*
X023779Y013121D02*
X024015Y013121D01*
X024015Y013135D02*
X023779Y013135D01*
X023779Y013149D02*
X024015Y013149D01*
X024015Y013163D02*
X023779Y013163D01*
X023779Y013177D02*
X024015Y013177D01*
X024015Y013191D02*
X023779Y013191D01*
X023779Y013205D02*
X024015Y013205D01*
X024015Y013219D02*
X023779Y013219D01*
X023779Y013233D02*
X024015Y013233D01*
X024015Y013247D02*
X023779Y013247D01*
X023779Y013261D02*
X024015Y013261D01*
X024015Y013275D02*
X023779Y013275D01*
X023779Y013289D02*
X024015Y013289D01*
X024015Y013303D02*
X023779Y013303D01*
X023779Y013317D02*
X024015Y013317D01*
X024015Y013331D02*
X023779Y013331D01*
X022992Y013341D02*
X022992Y012855D01*
X022992Y013341D02*
X023228Y013341D01*
X023228Y012855D01*
X022992Y012855D01*
X022992Y012869D02*
X023228Y012869D01*
X023228Y012883D02*
X022992Y012883D01*
X022992Y012897D02*
X023228Y012897D01*
X023228Y012911D02*
X022992Y012911D01*
X022992Y012925D02*
X023228Y012925D01*
X023228Y012939D02*
X022992Y012939D01*
X022992Y012953D02*
X023228Y012953D01*
X023228Y012967D02*
X022992Y012967D01*
X022992Y012981D02*
X023228Y012981D01*
X023228Y012995D02*
X022992Y012995D01*
X022992Y013009D02*
X023228Y013009D01*
X023228Y013023D02*
X022992Y013023D01*
X022992Y013037D02*
X023228Y013037D01*
X023228Y013051D02*
X022992Y013051D01*
X022992Y013065D02*
X023228Y013065D01*
X023228Y013079D02*
X022992Y013079D01*
X022992Y013093D02*
X023228Y013093D01*
X023228Y013107D02*
X022992Y013107D01*
X022992Y013121D02*
X023228Y013121D01*
X023228Y013135D02*
X022992Y013135D01*
X022992Y013149D02*
X023228Y013149D01*
X023228Y013163D02*
X022992Y013163D01*
X022992Y013177D02*
X023228Y013177D01*
X023228Y013191D02*
X022992Y013191D01*
X022992Y013205D02*
X023228Y013205D01*
X023228Y013219D02*
X022992Y013219D01*
X022992Y013233D02*
X023228Y013233D01*
X023228Y013247D02*
X022992Y013247D01*
X022992Y013261D02*
X023228Y013261D01*
X023228Y013275D02*
X022992Y013275D01*
X022992Y013289D02*
X023228Y013289D01*
X023228Y013303D02*
X022992Y013303D01*
X022992Y013317D02*
X023228Y013317D01*
X023228Y013331D02*
X022992Y013331D01*
X022205Y013341D02*
X022205Y012855D01*
X022205Y013341D02*
X022441Y013341D01*
X022441Y012855D01*
X022205Y012855D01*
X022205Y012869D02*
X022441Y012869D01*
X022441Y012883D02*
X022205Y012883D01*
X022205Y012897D02*
X022441Y012897D01*
X022441Y012911D02*
X022205Y012911D01*
X022205Y012925D02*
X022441Y012925D01*
X022441Y012939D02*
X022205Y012939D01*
X022205Y012953D02*
X022441Y012953D01*
X022441Y012967D02*
X022205Y012967D01*
X022205Y012981D02*
X022441Y012981D01*
X022441Y012995D02*
X022205Y012995D01*
X022205Y013009D02*
X022441Y013009D01*
X022441Y013023D02*
X022205Y013023D01*
X022205Y013037D02*
X022441Y013037D01*
X022441Y013051D02*
X022205Y013051D01*
X022205Y013065D02*
X022441Y013065D01*
X022441Y013079D02*
X022205Y013079D01*
X022205Y013093D02*
X022441Y013093D01*
X022441Y013107D02*
X022205Y013107D01*
X022205Y013121D02*
X022441Y013121D01*
X022441Y013135D02*
X022205Y013135D01*
X022205Y013149D02*
X022441Y013149D01*
X022441Y013163D02*
X022205Y013163D01*
X022205Y013177D02*
X022441Y013177D01*
X022441Y013191D02*
X022205Y013191D01*
X022205Y013205D02*
X022441Y013205D01*
X022441Y013219D02*
X022205Y013219D01*
X022205Y013233D02*
X022441Y013233D01*
X022441Y013247D02*
X022205Y013247D01*
X022205Y013261D02*
X022441Y013261D01*
X022441Y013275D02*
X022205Y013275D01*
X022205Y013289D02*
X022441Y013289D01*
X022441Y013303D02*
X022205Y013303D01*
X022205Y013317D02*
X022441Y013317D01*
X022441Y013331D02*
X022205Y013331D01*
X021417Y013341D02*
X021417Y012855D01*
X021417Y013341D02*
X021653Y013341D01*
X021653Y012855D01*
X021417Y012855D01*
X021417Y012869D02*
X021653Y012869D01*
X021653Y012883D02*
X021417Y012883D01*
X021417Y012897D02*
X021653Y012897D01*
X021653Y012911D02*
X021417Y012911D01*
X021417Y012925D02*
X021653Y012925D01*
X021653Y012939D02*
X021417Y012939D01*
X021417Y012953D02*
X021653Y012953D01*
X021653Y012967D02*
X021417Y012967D01*
X021417Y012981D02*
X021653Y012981D01*
X021653Y012995D02*
X021417Y012995D01*
X021417Y013009D02*
X021653Y013009D01*
X021653Y013023D02*
X021417Y013023D01*
X021417Y013037D02*
X021653Y013037D01*
X021653Y013051D02*
X021417Y013051D01*
X021417Y013065D02*
X021653Y013065D01*
X021653Y013079D02*
X021417Y013079D01*
X021417Y013093D02*
X021653Y013093D01*
X021653Y013107D02*
X021417Y013107D01*
X021417Y013121D02*
X021653Y013121D01*
X021653Y013135D02*
X021417Y013135D01*
X021417Y013149D02*
X021653Y013149D01*
X021653Y013163D02*
X021417Y013163D01*
X021417Y013177D02*
X021653Y013177D01*
X021653Y013191D02*
X021417Y013191D01*
X021417Y013205D02*
X021653Y013205D01*
X021653Y013219D02*
X021417Y013219D01*
X021417Y013233D02*
X021653Y013233D01*
X021653Y013247D02*
X021417Y013247D01*
X021417Y013261D02*
X021653Y013261D01*
X021653Y013275D02*
X021417Y013275D01*
X021417Y013289D02*
X021653Y013289D01*
X021653Y013303D02*
X021417Y013303D01*
X021417Y013317D02*
X021653Y013317D01*
X021653Y013331D02*
X021417Y013331D01*
X020630Y013341D02*
X020630Y012855D01*
X020630Y013341D02*
X020866Y013341D01*
X020866Y012855D01*
X020630Y012855D01*
X020630Y012869D02*
X020866Y012869D01*
X020866Y012883D02*
X020630Y012883D01*
X020630Y012897D02*
X020866Y012897D01*
X020866Y012911D02*
X020630Y012911D01*
X020630Y012925D02*
X020866Y012925D01*
X020866Y012939D02*
X020630Y012939D01*
X020630Y012953D02*
X020866Y012953D01*
X020866Y012967D02*
X020630Y012967D01*
X020630Y012981D02*
X020866Y012981D01*
X020866Y012995D02*
X020630Y012995D01*
X020630Y013009D02*
X020866Y013009D01*
X020866Y013023D02*
X020630Y013023D01*
X020630Y013037D02*
X020866Y013037D01*
X020866Y013051D02*
X020630Y013051D01*
X020630Y013065D02*
X020866Y013065D01*
X020866Y013079D02*
X020630Y013079D01*
X020630Y013093D02*
X020866Y013093D01*
X020866Y013107D02*
X020630Y013107D01*
X020630Y013121D02*
X020866Y013121D01*
X020866Y013135D02*
X020630Y013135D01*
X020630Y013149D02*
X020866Y013149D01*
X020866Y013163D02*
X020630Y013163D01*
X020630Y013177D02*
X020866Y013177D01*
X020866Y013191D02*
X020630Y013191D01*
X020630Y013205D02*
X020866Y013205D01*
X020866Y013219D02*
X020630Y013219D01*
X020630Y013233D02*
X020866Y013233D01*
X020866Y013247D02*
X020630Y013247D01*
X020630Y013261D02*
X020866Y013261D01*
X020866Y013275D02*
X020630Y013275D01*
X020630Y013289D02*
X020866Y013289D01*
X020866Y013303D02*
X020630Y013303D01*
X020630Y013317D02*
X020866Y013317D01*
X020866Y013331D02*
X020630Y013331D01*
X019842Y013341D02*
X019842Y012855D01*
X019842Y013341D02*
X020078Y013341D01*
X020078Y012855D01*
X019842Y012855D01*
X019842Y012869D02*
X020078Y012869D01*
X020078Y012883D02*
X019842Y012883D01*
X019842Y012897D02*
X020078Y012897D01*
X020078Y012911D02*
X019842Y012911D01*
X019842Y012925D02*
X020078Y012925D01*
X020078Y012939D02*
X019842Y012939D01*
X019842Y012953D02*
X020078Y012953D01*
X020078Y012967D02*
X019842Y012967D01*
X019842Y012981D02*
X020078Y012981D01*
X020078Y012995D02*
X019842Y012995D01*
X019842Y013009D02*
X020078Y013009D01*
X020078Y013023D02*
X019842Y013023D01*
X019842Y013037D02*
X020078Y013037D01*
X020078Y013051D02*
X019842Y013051D01*
X019842Y013065D02*
X020078Y013065D01*
X020078Y013079D02*
X019842Y013079D01*
X019842Y013093D02*
X020078Y013093D01*
X020078Y013107D02*
X019842Y013107D01*
X019842Y013121D02*
X020078Y013121D01*
X020078Y013135D02*
X019842Y013135D01*
X019842Y013149D02*
X020078Y013149D01*
X020078Y013163D02*
X019842Y013163D01*
X019842Y013177D02*
X020078Y013177D01*
X020078Y013191D02*
X019842Y013191D01*
X019842Y013205D02*
X020078Y013205D01*
X020078Y013219D02*
X019842Y013219D01*
X019842Y013233D02*
X020078Y013233D01*
X020078Y013247D02*
X019842Y013247D01*
X019842Y013261D02*
X020078Y013261D01*
X020078Y013275D02*
X019842Y013275D01*
X019842Y013289D02*
X020078Y013289D01*
X020078Y013303D02*
X019842Y013303D01*
X019842Y013317D02*
X020078Y013317D01*
X020078Y013331D02*
X019842Y013331D01*
X019055Y013341D02*
X019055Y012855D01*
X019055Y013341D02*
X019291Y013341D01*
X019291Y012855D01*
X019055Y012855D01*
X019055Y012869D02*
X019291Y012869D01*
X019291Y012883D02*
X019055Y012883D01*
X019055Y012897D02*
X019291Y012897D01*
X019291Y012911D02*
X019055Y012911D01*
X019055Y012925D02*
X019291Y012925D01*
X019291Y012939D02*
X019055Y012939D01*
X019055Y012953D02*
X019291Y012953D01*
X019291Y012967D02*
X019055Y012967D01*
X019055Y012981D02*
X019291Y012981D01*
X019291Y012995D02*
X019055Y012995D01*
X019055Y013009D02*
X019291Y013009D01*
X019291Y013023D02*
X019055Y013023D01*
X019055Y013037D02*
X019291Y013037D01*
X019291Y013051D02*
X019055Y013051D01*
X019055Y013065D02*
X019291Y013065D01*
X019291Y013079D02*
X019055Y013079D01*
X019055Y013093D02*
X019291Y013093D01*
X019291Y013107D02*
X019055Y013107D01*
X019055Y013121D02*
X019291Y013121D01*
X019291Y013135D02*
X019055Y013135D01*
X019055Y013149D02*
X019291Y013149D01*
X019291Y013163D02*
X019055Y013163D01*
X019055Y013177D02*
X019291Y013177D01*
X019291Y013191D02*
X019055Y013191D01*
X019055Y013205D02*
X019291Y013205D01*
X019291Y013219D02*
X019055Y013219D01*
X019055Y013233D02*
X019291Y013233D01*
X019291Y013247D02*
X019055Y013247D01*
X019055Y013261D02*
X019291Y013261D01*
X019291Y013275D02*
X019055Y013275D01*
X019055Y013289D02*
X019291Y013289D01*
X019291Y013303D02*
X019055Y013303D01*
X019055Y013317D02*
X019291Y013317D01*
X019291Y013331D02*
X019055Y013331D01*
X025354Y013341D02*
X025354Y012855D01*
X025354Y013341D02*
X025590Y013341D01*
X025590Y012855D01*
X025354Y012855D01*
X025354Y012869D02*
X025590Y012869D01*
X025590Y012883D02*
X025354Y012883D01*
X025354Y012897D02*
X025590Y012897D01*
X025590Y012911D02*
X025354Y012911D01*
X025354Y012925D02*
X025590Y012925D01*
X025590Y012939D02*
X025354Y012939D01*
X025354Y012953D02*
X025590Y012953D01*
X025590Y012967D02*
X025354Y012967D01*
X025354Y012981D02*
X025590Y012981D01*
X025590Y012995D02*
X025354Y012995D01*
X025354Y013009D02*
X025590Y013009D01*
X025590Y013023D02*
X025354Y013023D01*
X025354Y013037D02*
X025590Y013037D01*
X025590Y013051D02*
X025354Y013051D01*
X025354Y013065D02*
X025590Y013065D01*
X025590Y013079D02*
X025354Y013079D01*
X025354Y013093D02*
X025590Y013093D01*
X025590Y013107D02*
X025354Y013107D01*
X025354Y013121D02*
X025590Y013121D01*
X025590Y013135D02*
X025354Y013135D01*
X025354Y013149D02*
X025590Y013149D01*
X025590Y013163D02*
X025354Y013163D01*
X025354Y013177D02*
X025590Y013177D01*
X025590Y013191D02*
X025354Y013191D01*
X025354Y013205D02*
X025590Y013205D01*
X025590Y013219D02*
X025354Y013219D01*
X025354Y013233D02*
X025590Y013233D01*
X025590Y013247D02*
X025354Y013247D01*
X025354Y013261D02*
X025590Y013261D01*
X025590Y013275D02*
X025354Y013275D01*
X025354Y013289D02*
X025590Y013289D01*
X025590Y013303D02*
X025354Y013303D01*
X025354Y013317D02*
X025590Y013317D01*
X025590Y013331D02*
X025354Y013331D01*
X026142Y013341D02*
X026142Y012855D01*
X026142Y013341D02*
X026378Y013341D01*
X026378Y012855D01*
X026142Y012855D01*
X026142Y012869D02*
X026378Y012869D01*
X026378Y012883D02*
X026142Y012883D01*
X026142Y012897D02*
X026378Y012897D01*
X026378Y012911D02*
X026142Y012911D01*
X026142Y012925D02*
X026378Y012925D01*
X026378Y012939D02*
X026142Y012939D01*
X026142Y012953D02*
X026378Y012953D01*
X026378Y012967D02*
X026142Y012967D01*
X026142Y012981D02*
X026378Y012981D01*
X026378Y012995D02*
X026142Y012995D01*
X026142Y013009D02*
X026378Y013009D01*
X026378Y013023D02*
X026142Y013023D01*
X026142Y013037D02*
X026378Y013037D01*
X026378Y013051D02*
X026142Y013051D01*
X026142Y013065D02*
X026378Y013065D01*
X026378Y013079D02*
X026142Y013079D01*
X026142Y013093D02*
X026378Y013093D01*
X026378Y013107D02*
X026142Y013107D01*
X026142Y013121D02*
X026378Y013121D01*
X026378Y013135D02*
X026142Y013135D01*
X026142Y013149D02*
X026378Y013149D01*
X026378Y013163D02*
X026142Y013163D01*
X026142Y013177D02*
X026378Y013177D01*
X026378Y013191D02*
X026142Y013191D01*
X026142Y013205D02*
X026378Y013205D01*
X026378Y013219D02*
X026142Y013219D01*
X026142Y013233D02*
X026378Y013233D01*
X026378Y013247D02*
X026142Y013247D01*
X026142Y013261D02*
X026378Y013261D01*
X026378Y013275D02*
X026142Y013275D01*
X026142Y013289D02*
X026378Y013289D01*
X026378Y013303D02*
X026142Y013303D01*
X026142Y013317D02*
X026378Y013317D01*
X026378Y013331D02*
X026142Y013331D01*
X026929Y013341D02*
X026929Y012855D01*
X026929Y013341D02*
X027165Y013341D01*
X027165Y012855D01*
X026929Y012855D01*
X026929Y012869D02*
X027165Y012869D01*
X027165Y012883D02*
X026929Y012883D01*
X026929Y012897D02*
X027165Y012897D01*
X027165Y012911D02*
X026929Y012911D01*
X026929Y012925D02*
X027165Y012925D01*
X027165Y012939D02*
X026929Y012939D01*
X026929Y012953D02*
X027165Y012953D01*
X027165Y012967D02*
X026929Y012967D01*
X026929Y012981D02*
X027165Y012981D01*
X027165Y012995D02*
X026929Y012995D01*
X026929Y013009D02*
X027165Y013009D01*
X027165Y013023D02*
X026929Y013023D01*
X026929Y013037D02*
X027165Y013037D01*
X027165Y013051D02*
X026929Y013051D01*
X026929Y013065D02*
X027165Y013065D01*
X027165Y013079D02*
X026929Y013079D01*
X026929Y013093D02*
X027165Y013093D01*
X027165Y013107D02*
X026929Y013107D01*
X026929Y013121D02*
X027165Y013121D01*
X027165Y013135D02*
X026929Y013135D01*
X026929Y013149D02*
X027165Y013149D01*
X027165Y013163D02*
X026929Y013163D01*
X026929Y013177D02*
X027165Y013177D01*
X027165Y013191D02*
X026929Y013191D01*
X026929Y013205D02*
X027165Y013205D01*
X027165Y013219D02*
X026929Y013219D01*
X026929Y013233D02*
X027165Y013233D01*
X027165Y013247D02*
X026929Y013247D01*
X026929Y013261D02*
X027165Y013261D01*
X027165Y013275D02*
X026929Y013275D01*
X026929Y013289D02*
X027165Y013289D01*
X027165Y013303D02*
X026929Y013303D01*
X026929Y013317D02*
X027165Y013317D01*
X027165Y013331D02*
X026929Y013331D01*
X027716Y013341D02*
X027716Y012855D01*
X027716Y013341D02*
X027952Y013341D01*
X027952Y012855D01*
X027716Y012855D01*
X027716Y012869D02*
X027952Y012869D01*
X027952Y012883D02*
X027716Y012883D01*
X027716Y012897D02*
X027952Y012897D01*
X027952Y012911D02*
X027716Y012911D01*
X027716Y012925D02*
X027952Y012925D01*
X027952Y012939D02*
X027716Y012939D01*
X027716Y012953D02*
X027952Y012953D01*
X027952Y012967D02*
X027716Y012967D01*
X027716Y012981D02*
X027952Y012981D01*
X027952Y012995D02*
X027716Y012995D01*
X027716Y013009D02*
X027952Y013009D01*
X027952Y013023D02*
X027716Y013023D01*
X027716Y013037D02*
X027952Y013037D01*
X027952Y013051D02*
X027716Y013051D01*
X027716Y013065D02*
X027952Y013065D01*
X027952Y013079D02*
X027716Y013079D01*
X027716Y013093D02*
X027952Y013093D01*
X027952Y013107D02*
X027716Y013107D01*
X027716Y013121D02*
X027952Y013121D01*
X027952Y013135D02*
X027716Y013135D01*
X027716Y013149D02*
X027952Y013149D01*
X027952Y013163D02*
X027716Y013163D01*
X027716Y013177D02*
X027952Y013177D01*
X027952Y013191D02*
X027716Y013191D01*
X027716Y013205D02*
X027952Y013205D01*
X027952Y013219D02*
X027716Y013219D01*
X027716Y013233D02*
X027952Y013233D01*
X027952Y013247D02*
X027716Y013247D01*
X027716Y013261D02*
X027952Y013261D01*
X027952Y013275D02*
X027716Y013275D01*
X027716Y013289D02*
X027952Y013289D01*
X027952Y013303D02*
X027716Y013303D01*
X027716Y013317D02*
X027952Y013317D01*
X027952Y013331D02*
X027716Y013331D01*
X028504Y013341D02*
X028504Y012855D01*
X028504Y013341D02*
X028740Y013341D01*
X028740Y012855D01*
X028504Y012855D01*
X028504Y012869D02*
X028740Y012869D01*
X028740Y012883D02*
X028504Y012883D01*
X028504Y012897D02*
X028740Y012897D01*
X028740Y012911D02*
X028504Y012911D01*
X028504Y012925D02*
X028740Y012925D01*
X028740Y012939D02*
X028504Y012939D01*
X028504Y012953D02*
X028740Y012953D01*
X028740Y012967D02*
X028504Y012967D01*
X028504Y012981D02*
X028740Y012981D01*
X028740Y012995D02*
X028504Y012995D01*
X028504Y013009D02*
X028740Y013009D01*
X028740Y013023D02*
X028504Y013023D01*
X028504Y013037D02*
X028740Y013037D01*
X028740Y013051D02*
X028504Y013051D01*
X028504Y013065D02*
X028740Y013065D01*
X028740Y013079D02*
X028504Y013079D01*
X028504Y013093D02*
X028740Y013093D01*
X028740Y013107D02*
X028504Y013107D01*
X028504Y013121D02*
X028740Y013121D01*
X028740Y013135D02*
X028504Y013135D01*
X028504Y013149D02*
X028740Y013149D01*
X028740Y013163D02*
X028504Y013163D01*
X028504Y013177D02*
X028740Y013177D01*
X028740Y013191D02*
X028504Y013191D01*
X028504Y013205D02*
X028740Y013205D01*
X028740Y013219D02*
X028504Y013219D01*
X028504Y013233D02*
X028740Y013233D01*
X028740Y013247D02*
X028504Y013247D01*
X028504Y013261D02*
X028740Y013261D01*
X028740Y013275D02*
X028504Y013275D01*
X028504Y013289D02*
X028740Y013289D01*
X028740Y013303D02*
X028504Y013303D01*
X028504Y013317D02*
X028740Y013317D01*
X028740Y013331D02*
X028504Y013331D01*
X029291Y013341D02*
X029291Y012855D01*
X029291Y013341D02*
X029527Y013341D01*
X029527Y012855D01*
X029291Y012855D01*
X029291Y012869D02*
X029527Y012869D01*
X029527Y012883D02*
X029291Y012883D01*
X029291Y012897D02*
X029527Y012897D01*
X029527Y012911D02*
X029291Y012911D01*
X029291Y012925D02*
X029527Y012925D01*
X029527Y012939D02*
X029291Y012939D01*
X029291Y012953D02*
X029527Y012953D01*
X029527Y012967D02*
X029291Y012967D01*
X029291Y012981D02*
X029527Y012981D01*
X029527Y012995D02*
X029291Y012995D01*
X029291Y013009D02*
X029527Y013009D01*
X029527Y013023D02*
X029291Y013023D01*
X029291Y013037D02*
X029527Y013037D01*
X029527Y013051D02*
X029291Y013051D01*
X029291Y013065D02*
X029527Y013065D01*
X029527Y013079D02*
X029291Y013079D01*
X029291Y013093D02*
X029527Y013093D01*
X029527Y013107D02*
X029291Y013107D01*
X029291Y013121D02*
X029527Y013121D01*
X029527Y013135D02*
X029291Y013135D01*
X029291Y013149D02*
X029527Y013149D01*
X029527Y013163D02*
X029291Y013163D01*
X029291Y013177D02*
X029527Y013177D01*
X029527Y013191D02*
X029291Y013191D01*
X029291Y013205D02*
X029527Y013205D01*
X029527Y013219D02*
X029291Y013219D01*
X029291Y013233D02*
X029527Y013233D01*
X029527Y013247D02*
X029291Y013247D01*
X029291Y013261D02*
X029527Y013261D01*
X029527Y013275D02*
X029291Y013275D01*
X029291Y013289D02*
X029527Y013289D01*
X029527Y013303D02*
X029291Y013303D01*
X029291Y013317D02*
X029527Y013317D01*
X029527Y013331D02*
X029291Y013331D01*
X030079Y013341D02*
X030079Y012855D01*
X030079Y013341D02*
X030315Y013341D01*
X030315Y012855D01*
X030079Y012855D01*
X030079Y012869D02*
X030315Y012869D01*
X030315Y012883D02*
X030079Y012883D01*
X030079Y012897D02*
X030315Y012897D01*
X030315Y012911D02*
X030079Y012911D01*
X030079Y012925D02*
X030315Y012925D01*
X030315Y012939D02*
X030079Y012939D01*
X030079Y012953D02*
X030315Y012953D01*
X030315Y012967D02*
X030079Y012967D01*
X030079Y012981D02*
X030315Y012981D01*
X030315Y012995D02*
X030079Y012995D01*
X030079Y013009D02*
X030315Y013009D01*
X030315Y013023D02*
X030079Y013023D01*
X030079Y013037D02*
X030315Y013037D01*
X030315Y013051D02*
X030079Y013051D01*
X030079Y013065D02*
X030315Y013065D01*
X030315Y013079D02*
X030079Y013079D01*
X030079Y013093D02*
X030315Y013093D01*
X030315Y013107D02*
X030079Y013107D01*
X030079Y013121D02*
X030315Y013121D01*
X030315Y013135D02*
X030079Y013135D01*
X030079Y013149D02*
X030315Y013149D01*
X030315Y013163D02*
X030079Y013163D01*
X030079Y013177D02*
X030315Y013177D01*
X030315Y013191D02*
X030079Y013191D01*
X030079Y013205D02*
X030315Y013205D01*
X030315Y013219D02*
X030079Y013219D01*
X030079Y013233D02*
X030315Y013233D01*
X030315Y013247D02*
X030079Y013247D01*
X030079Y013261D02*
X030315Y013261D01*
X030315Y013275D02*
X030079Y013275D01*
X030079Y013289D02*
X030315Y013289D01*
X030315Y013303D02*
X030079Y013303D01*
X030079Y013317D02*
X030315Y013317D01*
X030315Y013331D02*
X030079Y013331D01*
X030315Y012160D02*
X030315Y011674D01*
X030079Y011674D01*
X030079Y012160D01*
X030315Y012160D01*
X030315Y011688D02*
X030079Y011688D01*
X030079Y011702D02*
X030315Y011702D01*
X030315Y011716D02*
X030079Y011716D01*
X030079Y011730D02*
X030315Y011730D01*
X030315Y011744D02*
X030079Y011744D01*
X030079Y011758D02*
X030315Y011758D01*
X030315Y011772D02*
X030079Y011772D01*
X030079Y011786D02*
X030315Y011786D01*
X030315Y011800D02*
X030079Y011800D01*
X030079Y011814D02*
X030315Y011814D01*
X030315Y011828D02*
X030079Y011828D01*
X030079Y011842D02*
X030315Y011842D01*
X030315Y011856D02*
X030079Y011856D01*
X030079Y011870D02*
X030315Y011870D01*
X030315Y011884D02*
X030079Y011884D01*
X030079Y011898D02*
X030315Y011898D01*
X030315Y011912D02*
X030079Y011912D01*
X030079Y011926D02*
X030315Y011926D01*
X030315Y011940D02*
X030079Y011940D01*
X030079Y011954D02*
X030315Y011954D01*
X030315Y011968D02*
X030079Y011968D01*
X030079Y011982D02*
X030315Y011982D01*
X030315Y011996D02*
X030079Y011996D01*
X030079Y012010D02*
X030315Y012010D01*
X030315Y012024D02*
X030079Y012024D01*
X030079Y012038D02*
X030315Y012038D01*
X030315Y012052D02*
X030079Y012052D01*
X030079Y012066D02*
X030315Y012066D01*
X030315Y012080D02*
X030079Y012080D01*
X030079Y012094D02*
X030315Y012094D01*
X030315Y012108D02*
X030079Y012108D01*
X030079Y012122D02*
X030315Y012122D01*
X030315Y012136D02*
X030079Y012136D01*
X030079Y012150D02*
X030315Y012150D01*
X029527Y012160D02*
X029527Y011674D01*
X029291Y011674D01*
X029291Y012160D01*
X029527Y012160D01*
X029527Y011688D02*
X029291Y011688D01*
X029291Y011702D02*
X029527Y011702D01*
X029527Y011716D02*
X029291Y011716D01*
X029291Y011730D02*
X029527Y011730D01*
X029527Y011744D02*
X029291Y011744D01*
X029291Y011758D02*
X029527Y011758D01*
X029527Y011772D02*
X029291Y011772D01*
X029291Y011786D02*
X029527Y011786D01*
X029527Y011800D02*
X029291Y011800D01*
X029291Y011814D02*
X029527Y011814D01*
X029527Y011828D02*
X029291Y011828D01*
X029291Y011842D02*
X029527Y011842D01*
X029527Y011856D02*
X029291Y011856D01*
X029291Y011870D02*
X029527Y011870D01*
X029527Y011884D02*
X029291Y011884D01*
X029291Y011898D02*
X029527Y011898D01*
X029527Y011912D02*
X029291Y011912D01*
X029291Y011926D02*
X029527Y011926D01*
X029527Y011940D02*
X029291Y011940D01*
X029291Y011954D02*
X029527Y011954D01*
X029527Y011968D02*
X029291Y011968D01*
X029291Y011982D02*
X029527Y011982D01*
X029527Y011996D02*
X029291Y011996D01*
X029291Y012010D02*
X029527Y012010D01*
X029527Y012024D02*
X029291Y012024D01*
X029291Y012038D02*
X029527Y012038D01*
X029527Y012052D02*
X029291Y012052D01*
X029291Y012066D02*
X029527Y012066D01*
X029527Y012080D02*
X029291Y012080D01*
X029291Y012094D02*
X029527Y012094D01*
X029527Y012108D02*
X029291Y012108D01*
X029291Y012122D02*
X029527Y012122D01*
X029527Y012136D02*
X029291Y012136D01*
X029291Y012150D02*
X029527Y012150D01*
X028740Y012160D02*
X028740Y011674D01*
X028504Y011674D01*
X028504Y012160D01*
X028740Y012160D01*
X028740Y011688D02*
X028504Y011688D01*
X028504Y011702D02*
X028740Y011702D01*
X028740Y011716D02*
X028504Y011716D01*
X028504Y011730D02*
X028740Y011730D01*
X028740Y011744D02*
X028504Y011744D01*
X028504Y011758D02*
X028740Y011758D01*
X028740Y011772D02*
X028504Y011772D01*
X028504Y011786D02*
X028740Y011786D01*
X028740Y011800D02*
X028504Y011800D01*
X028504Y011814D02*
X028740Y011814D01*
X028740Y011828D02*
X028504Y011828D01*
X028504Y011842D02*
X028740Y011842D01*
X028740Y011856D02*
X028504Y011856D01*
X028504Y011870D02*
X028740Y011870D01*
X028740Y011884D02*
X028504Y011884D01*
X028504Y011898D02*
X028740Y011898D01*
X028740Y011912D02*
X028504Y011912D01*
X028504Y011926D02*
X028740Y011926D01*
X028740Y011940D02*
X028504Y011940D01*
X028504Y011954D02*
X028740Y011954D01*
X028740Y011968D02*
X028504Y011968D01*
X028504Y011982D02*
X028740Y011982D01*
X028740Y011996D02*
X028504Y011996D01*
X028504Y012010D02*
X028740Y012010D01*
X028740Y012024D02*
X028504Y012024D01*
X028504Y012038D02*
X028740Y012038D01*
X028740Y012052D02*
X028504Y012052D01*
X028504Y012066D02*
X028740Y012066D01*
X028740Y012080D02*
X028504Y012080D01*
X028504Y012094D02*
X028740Y012094D01*
X028740Y012108D02*
X028504Y012108D01*
X028504Y012122D02*
X028740Y012122D01*
X028740Y012136D02*
X028504Y012136D01*
X028504Y012150D02*
X028740Y012150D01*
X027952Y012160D02*
X027952Y011674D01*
X027716Y011674D01*
X027716Y012160D01*
X027952Y012160D01*
X027952Y011688D02*
X027716Y011688D01*
X027716Y011702D02*
X027952Y011702D01*
X027952Y011716D02*
X027716Y011716D01*
X027716Y011730D02*
X027952Y011730D01*
X027952Y011744D02*
X027716Y011744D01*
X027716Y011758D02*
X027952Y011758D01*
X027952Y011772D02*
X027716Y011772D01*
X027716Y011786D02*
X027952Y011786D01*
X027952Y011800D02*
X027716Y011800D01*
X027716Y011814D02*
X027952Y011814D01*
X027952Y011828D02*
X027716Y011828D01*
X027716Y011842D02*
X027952Y011842D01*
X027952Y011856D02*
X027716Y011856D01*
X027716Y011870D02*
X027952Y011870D01*
X027952Y011884D02*
X027716Y011884D01*
X027716Y011898D02*
X027952Y011898D01*
X027952Y011912D02*
X027716Y011912D01*
X027716Y011926D02*
X027952Y011926D01*
X027952Y011940D02*
X027716Y011940D01*
X027716Y011954D02*
X027952Y011954D01*
X027952Y011968D02*
X027716Y011968D01*
X027716Y011982D02*
X027952Y011982D01*
X027952Y011996D02*
X027716Y011996D01*
X027716Y012010D02*
X027952Y012010D01*
X027952Y012024D02*
X027716Y012024D01*
X027716Y012038D02*
X027952Y012038D01*
X027952Y012052D02*
X027716Y012052D01*
X027716Y012066D02*
X027952Y012066D01*
X027952Y012080D02*
X027716Y012080D01*
X027716Y012094D02*
X027952Y012094D01*
X027952Y012108D02*
X027716Y012108D01*
X027716Y012122D02*
X027952Y012122D01*
X027952Y012136D02*
X027716Y012136D01*
X027716Y012150D02*
X027952Y012150D01*
X027165Y012160D02*
X027165Y011674D01*
X026929Y011674D01*
X026929Y012160D01*
X027165Y012160D01*
X027165Y011688D02*
X026929Y011688D01*
X026929Y011702D02*
X027165Y011702D01*
X027165Y011716D02*
X026929Y011716D01*
X026929Y011730D02*
X027165Y011730D01*
X027165Y011744D02*
X026929Y011744D01*
X026929Y011758D02*
X027165Y011758D01*
X027165Y011772D02*
X026929Y011772D01*
X026929Y011786D02*
X027165Y011786D01*
X027165Y011800D02*
X026929Y011800D01*
X026929Y011814D02*
X027165Y011814D01*
X027165Y011828D02*
X026929Y011828D01*
X026929Y011842D02*
X027165Y011842D01*
X027165Y011856D02*
X026929Y011856D01*
X026929Y011870D02*
X027165Y011870D01*
X027165Y011884D02*
X026929Y011884D01*
X026929Y011898D02*
X027165Y011898D01*
X027165Y011912D02*
X026929Y011912D01*
X026929Y011926D02*
X027165Y011926D01*
X027165Y011940D02*
X026929Y011940D01*
X026929Y011954D02*
X027165Y011954D01*
X027165Y011968D02*
X026929Y011968D01*
X026929Y011982D02*
X027165Y011982D01*
X027165Y011996D02*
X026929Y011996D01*
X026929Y012010D02*
X027165Y012010D01*
X027165Y012024D02*
X026929Y012024D01*
X026929Y012038D02*
X027165Y012038D01*
X027165Y012052D02*
X026929Y012052D01*
X026929Y012066D02*
X027165Y012066D01*
X027165Y012080D02*
X026929Y012080D01*
X026929Y012094D02*
X027165Y012094D01*
X027165Y012108D02*
X026929Y012108D01*
X026929Y012122D02*
X027165Y012122D01*
X027165Y012136D02*
X026929Y012136D01*
X026929Y012150D02*
X027165Y012150D01*
X026378Y012160D02*
X026378Y011674D01*
X026142Y011674D01*
X026142Y012160D01*
X026378Y012160D01*
X026378Y011688D02*
X026142Y011688D01*
X026142Y011702D02*
X026378Y011702D01*
X026378Y011716D02*
X026142Y011716D01*
X026142Y011730D02*
X026378Y011730D01*
X026378Y011744D02*
X026142Y011744D01*
X026142Y011758D02*
X026378Y011758D01*
X026378Y011772D02*
X026142Y011772D01*
X026142Y011786D02*
X026378Y011786D01*
X026378Y011800D02*
X026142Y011800D01*
X026142Y011814D02*
X026378Y011814D01*
X026378Y011828D02*
X026142Y011828D01*
X026142Y011842D02*
X026378Y011842D01*
X026378Y011856D02*
X026142Y011856D01*
X026142Y011870D02*
X026378Y011870D01*
X026378Y011884D02*
X026142Y011884D01*
X026142Y011898D02*
X026378Y011898D01*
X026378Y011912D02*
X026142Y011912D01*
X026142Y011926D02*
X026378Y011926D01*
X026378Y011940D02*
X026142Y011940D01*
X026142Y011954D02*
X026378Y011954D01*
X026378Y011968D02*
X026142Y011968D01*
X026142Y011982D02*
X026378Y011982D01*
X026378Y011996D02*
X026142Y011996D01*
X026142Y012010D02*
X026378Y012010D01*
X026378Y012024D02*
X026142Y012024D01*
X026142Y012038D02*
X026378Y012038D01*
X026378Y012052D02*
X026142Y012052D01*
X026142Y012066D02*
X026378Y012066D01*
X026378Y012080D02*
X026142Y012080D01*
X026142Y012094D02*
X026378Y012094D01*
X026378Y012108D02*
X026142Y012108D01*
X026142Y012122D02*
X026378Y012122D01*
X026378Y012136D02*
X026142Y012136D01*
X026142Y012150D02*
X026378Y012150D01*
X025590Y012160D02*
X025590Y011674D01*
X025354Y011674D01*
X025354Y012160D01*
X025590Y012160D01*
X025590Y011688D02*
X025354Y011688D01*
X025354Y011702D02*
X025590Y011702D01*
X025590Y011716D02*
X025354Y011716D01*
X025354Y011730D02*
X025590Y011730D01*
X025590Y011744D02*
X025354Y011744D01*
X025354Y011758D02*
X025590Y011758D01*
X025590Y011772D02*
X025354Y011772D01*
X025354Y011786D02*
X025590Y011786D01*
X025590Y011800D02*
X025354Y011800D01*
X025354Y011814D02*
X025590Y011814D01*
X025590Y011828D02*
X025354Y011828D01*
X025354Y011842D02*
X025590Y011842D01*
X025590Y011856D02*
X025354Y011856D01*
X025354Y011870D02*
X025590Y011870D01*
X025590Y011884D02*
X025354Y011884D01*
X025354Y011898D02*
X025590Y011898D01*
X025590Y011912D02*
X025354Y011912D01*
X025354Y011926D02*
X025590Y011926D01*
X025590Y011940D02*
X025354Y011940D01*
X025354Y011954D02*
X025590Y011954D01*
X025590Y011968D02*
X025354Y011968D01*
X025354Y011982D02*
X025590Y011982D01*
X025590Y011996D02*
X025354Y011996D01*
X025354Y012010D02*
X025590Y012010D01*
X025590Y012024D02*
X025354Y012024D01*
X025354Y012038D02*
X025590Y012038D01*
X025590Y012052D02*
X025354Y012052D01*
X025354Y012066D02*
X025590Y012066D01*
X025590Y012080D02*
X025354Y012080D01*
X025354Y012094D02*
X025590Y012094D01*
X025590Y012108D02*
X025354Y012108D01*
X025354Y012122D02*
X025590Y012122D01*
X025590Y012136D02*
X025354Y012136D01*
X025354Y012150D02*
X025590Y012150D01*
X031889Y012160D02*
X031889Y011674D01*
X031653Y011674D01*
X031653Y012160D01*
X031889Y012160D01*
X031889Y011688D02*
X031653Y011688D01*
X031653Y011702D02*
X031889Y011702D01*
X031889Y011716D02*
X031653Y011716D01*
X031653Y011730D02*
X031889Y011730D01*
X031889Y011744D02*
X031653Y011744D01*
X031653Y011758D02*
X031889Y011758D01*
X031889Y011772D02*
X031653Y011772D01*
X031653Y011786D02*
X031889Y011786D01*
X031889Y011800D02*
X031653Y011800D01*
X031653Y011814D02*
X031889Y011814D01*
X031889Y011828D02*
X031653Y011828D01*
X031653Y011842D02*
X031889Y011842D01*
X031889Y011856D02*
X031653Y011856D01*
X031653Y011870D02*
X031889Y011870D01*
X031889Y011884D02*
X031653Y011884D01*
X031653Y011898D02*
X031889Y011898D01*
X031889Y011912D02*
X031653Y011912D01*
X031653Y011926D02*
X031889Y011926D01*
X031889Y011940D02*
X031653Y011940D01*
X031653Y011954D02*
X031889Y011954D01*
X031889Y011968D02*
X031653Y011968D01*
X031653Y011982D02*
X031889Y011982D01*
X031889Y011996D02*
X031653Y011996D01*
X031653Y012010D02*
X031889Y012010D01*
X031889Y012024D02*
X031653Y012024D01*
X031653Y012038D02*
X031889Y012038D01*
X031889Y012052D02*
X031653Y012052D01*
X031653Y012066D02*
X031889Y012066D01*
X031889Y012080D02*
X031653Y012080D01*
X031653Y012094D02*
X031889Y012094D01*
X031889Y012108D02*
X031653Y012108D01*
X031653Y012122D02*
X031889Y012122D01*
X031889Y012136D02*
X031653Y012136D01*
X031653Y012150D02*
X031889Y012150D01*
X032677Y012160D02*
X032677Y011674D01*
X032441Y011674D01*
X032441Y012160D01*
X032677Y012160D01*
X032677Y011688D02*
X032441Y011688D01*
X032441Y011702D02*
X032677Y011702D01*
X032677Y011716D02*
X032441Y011716D01*
X032441Y011730D02*
X032677Y011730D01*
X032677Y011744D02*
X032441Y011744D01*
X032441Y011758D02*
X032677Y011758D01*
X032677Y011772D02*
X032441Y011772D01*
X032441Y011786D02*
X032677Y011786D01*
X032677Y011800D02*
X032441Y011800D01*
X032441Y011814D02*
X032677Y011814D01*
X032677Y011828D02*
X032441Y011828D01*
X032441Y011842D02*
X032677Y011842D01*
X032677Y011856D02*
X032441Y011856D01*
X032441Y011870D02*
X032677Y011870D01*
X032677Y011884D02*
X032441Y011884D01*
X032441Y011898D02*
X032677Y011898D01*
X032677Y011912D02*
X032441Y011912D01*
X032441Y011926D02*
X032677Y011926D01*
X032677Y011940D02*
X032441Y011940D01*
X032441Y011954D02*
X032677Y011954D01*
X032677Y011968D02*
X032441Y011968D01*
X032441Y011982D02*
X032677Y011982D01*
X032677Y011996D02*
X032441Y011996D01*
X032441Y012010D02*
X032677Y012010D01*
X032677Y012024D02*
X032441Y012024D01*
X032441Y012038D02*
X032677Y012038D01*
X032677Y012052D02*
X032441Y012052D01*
X032441Y012066D02*
X032677Y012066D01*
X032677Y012080D02*
X032441Y012080D01*
X032441Y012094D02*
X032677Y012094D01*
X032677Y012108D02*
X032441Y012108D01*
X032441Y012122D02*
X032677Y012122D01*
X032677Y012136D02*
X032441Y012136D01*
X032441Y012150D02*
X032677Y012150D01*
X033464Y012160D02*
X033464Y011674D01*
X033228Y011674D01*
X033228Y012160D01*
X033464Y012160D01*
X033464Y011688D02*
X033228Y011688D01*
X033228Y011702D02*
X033464Y011702D01*
X033464Y011716D02*
X033228Y011716D01*
X033228Y011730D02*
X033464Y011730D01*
X033464Y011744D02*
X033228Y011744D01*
X033228Y011758D02*
X033464Y011758D01*
X033464Y011772D02*
X033228Y011772D01*
X033228Y011786D02*
X033464Y011786D01*
X033464Y011800D02*
X033228Y011800D01*
X033228Y011814D02*
X033464Y011814D01*
X033464Y011828D02*
X033228Y011828D01*
X033228Y011842D02*
X033464Y011842D01*
X033464Y011856D02*
X033228Y011856D01*
X033228Y011870D02*
X033464Y011870D01*
X033464Y011884D02*
X033228Y011884D01*
X033228Y011898D02*
X033464Y011898D01*
X033464Y011912D02*
X033228Y011912D01*
X033228Y011926D02*
X033464Y011926D01*
X033464Y011940D02*
X033228Y011940D01*
X033228Y011954D02*
X033464Y011954D01*
X033464Y011968D02*
X033228Y011968D01*
X033228Y011982D02*
X033464Y011982D01*
X033464Y011996D02*
X033228Y011996D01*
X033228Y012010D02*
X033464Y012010D01*
X033464Y012024D02*
X033228Y012024D01*
X033228Y012038D02*
X033464Y012038D01*
X033464Y012052D02*
X033228Y012052D01*
X033228Y012066D02*
X033464Y012066D01*
X033464Y012080D02*
X033228Y012080D01*
X033228Y012094D02*
X033464Y012094D01*
X033464Y012108D02*
X033228Y012108D01*
X033228Y012122D02*
X033464Y012122D01*
X033464Y012136D02*
X033228Y012136D01*
X033228Y012150D02*
X033464Y012150D01*
X034252Y012160D02*
X034252Y011674D01*
X034016Y011674D01*
X034016Y012160D01*
X034252Y012160D01*
X034252Y011688D02*
X034016Y011688D01*
X034016Y011702D02*
X034252Y011702D01*
X034252Y011716D02*
X034016Y011716D01*
X034016Y011730D02*
X034252Y011730D01*
X034252Y011744D02*
X034016Y011744D01*
X034016Y011758D02*
X034252Y011758D01*
X034252Y011772D02*
X034016Y011772D01*
X034016Y011786D02*
X034252Y011786D01*
X034252Y011800D02*
X034016Y011800D01*
X034016Y011814D02*
X034252Y011814D01*
X034252Y011828D02*
X034016Y011828D01*
X034016Y011842D02*
X034252Y011842D01*
X034252Y011856D02*
X034016Y011856D01*
X034016Y011870D02*
X034252Y011870D01*
X034252Y011884D02*
X034016Y011884D01*
X034016Y011898D02*
X034252Y011898D01*
X034252Y011912D02*
X034016Y011912D01*
X034016Y011926D02*
X034252Y011926D01*
X034252Y011940D02*
X034016Y011940D01*
X034016Y011954D02*
X034252Y011954D01*
X034252Y011968D02*
X034016Y011968D01*
X034016Y011982D02*
X034252Y011982D01*
X034252Y011996D02*
X034016Y011996D01*
X034016Y012010D02*
X034252Y012010D01*
X034252Y012024D02*
X034016Y012024D01*
X034016Y012038D02*
X034252Y012038D01*
X034252Y012052D02*
X034016Y012052D01*
X034016Y012066D02*
X034252Y012066D01*
X034252Y012080D02*
X034016Y012080D01*
X034016Y012094D02*
X034252Y012094D01*
X034252Y012108D02*
X034016Y012108D01*
X034016Y012122D02*
X034252Y012122D01*
X034252Y012136D02*
X034016Y012136D01*
X034016Y012150D02*
X034252Y012150D01*
X035039Y012160D02*
X035039Y011674D01*
X034803Y011674D01*
X034803Y012160D01*
X035039Y012160D01*
X035039Y011688D02*
X034803Y011688D01*
X034803Y011702D02*
X035039Y011702D01*
X035039Y011716D02*
X034803Y011716D01*
X034803Y011730D02*
X035039Y011730D01*
X035039Y011744D02*
X034803Y011744D01*
X034803Y011758D02*
X035039Y011758D01*
X035039Y011772D02*
X034803Y011772D01*
X034803Y011786D02*
X035039Y011786D01*
X035039Y011800D02*
X034803Y011800D01*
X034803Y011814D02*
X035039Y011814D01*
X035039Y011828D02*
X034803Y011828D01*
X034803Y011842D02*
X035039Y011842D01*
X035039Y011856D02*
X034803Y011856D01*
X034803Y011870D02*
X035039Y011870D01*
X035039Y011884D02*
X034803Y011884D01*
X034803Y011898D02*
X035039Y011898D01*
X035039Y011912D02*
X034803Y011912D01*
X034803Y011926D02*
X035039Y011926D01*
X035039Y011940D02*
X034803Y011940D01*
X034803Y011954D02*
X035039Y011954D01*
X035039Y011968D02*
X034803Y011968D01*
X034803Y011982D02*
X035039Y011982D01*
X035039Y011996D02*
X034803Y011996D01*
X034803Y012010D02*
X035039Y012010D01*
X035039Y012024D02*
X034803Y012024D01*
X034803Y012038D02*
X035039Y012038D01*
X035039Y012052D02*
X034803Y012052D01*
X034803Y012066D02*
X035039Y012066D01*
X035039Y012080D02*
X034803Y012080D01*
X034803Y012094D02*
X035039Y012094D01*
X035039Y012108D02*
X034803Y012108D01*
X034803Y012122D02*
X035039Y012122D01*
X035039Y012136D02*
X034803Y012136D01*
X034803Y012150D02*
X035039Y012150D01*
X035826Y012160D02*
X035826Y011674D01*
X035590Y011674D01*
X035590Y012160D01*
X035826Y012160D01*
X035826Y011688D02*
X035590Y011688D01*
X035590Y011702D02*
X035826Y011702D01*
X035826Y011716D02*
X035590Y011716D01*
X035590Y011730D02*
X035826Y011730D01*
X035826Y011744D02*
X035590Y011744D01*
X035590Y011758D02*
X035826Y011758D01*
X035826Y011772D02*
X035590Y011772D01*
X035590Y011786D02*
X035826Y011786D01*
X035826Y011800D02*
X035590Y011800D01*
X035590Y011814D02*
X035826Y011814D01*
X035826Y011828D02*
X035590Y011828D01*
X035590Y011842D02*
X035826Y011842D01*
X035826Y011856D02*
X035590Y011856D01*
X035590Y011870D02*
X035826Y011870D01*
X035826Y011884D02*
X035590Y011884D01*
X035590Y011898D02*
X035826Y011898D01*
X035826Y011912D02*
X035590Y011912D01*
X035590Y011926D02*
X035826Y011926D01*
X035826Y011940D02*
X035590Y011940D01*
X035590Y011954D02*
X035826Y011954D01*
X035826Y011968D02*
X035590Y011968D01*
X035590Y011982D02*
X035826Y011982D01*
X035826Y011996D02*
X035590Y011996D01*
X035590Y012010D02*
X035826Y012010D01*
X035826Y012024D02*
X035590Y012024D01*
X035590Y012038D02*
X035826Y012038D01*
X035826Y012052D02*
X035590Y012052D01*
X035590Y012066D02*
X035826Y012066D01*
X035826Y012080D02*
X035590Y012080D01*
X035590Y012094D02*
X035826Y012094D01*
X035826Y012108D02*
X035590Y012108D01*
X035590Y012122D02*
X035826Y012122D01*
X035826Y012136D02*
X035590Y012136D01*
X035590Y012150D02*
X035826Y012150D01*
X036614Y012160D02*
X036614Y011674D01*
X036378Y011674D01*
X036378Y012160D01*
X036614Y012160D01*
X036614Y011688D02*
X036378Y011688D01*
X036378Y011702D02*
X036614Y011702D01*
X036614Y011716D02*
X036378Y011716D01*
X036378Y011730D02*
X036614Y011730D01*
X036614Y011744D02*
X036378Y011744D01*
X036378Y011758D02*
X036614Y011758D01*
X036614Y011772D02*
X036378Y011772D01*
X036378Y011786D02*
X036614Y011786D01*
X036614Y011800D02*
X036378Y011800D01*
X036378Y011814D02*
X036614Y011814D01*
X036614Y011828D02*
X036378Y011828D01*
X036378Y011842D02*
X036614Y011842D01*
X036614Y011856D02*
X036378Y011856D01*
X036378Y011870D02*
X036614Y011870D01*
X036614Y011884D02*
X036378Y011884D01*
X036378Y011898D02*
X036614Y011898D01*
X036614Y011912D02*
X036378Y011912D01*
X036378Y011926D02*
X036614Y011926D01*
X036614Y011940D02*
X036378Y011940D01*
X036378Y011954D02*
X036614Y011954D01*
X036614Y011968D02*
X036378Y011968D01*
X036378Y011982D02*
X036614Y011982D01*
X036614Y011996D02*
X036378Y011996D01*
X036378Y012010D02*
X036614Y012010D01*
X036614Y012024D02*
X036378Y012024D01*
X036378Y012038D02*
X036614Y012038D01*
X036614Y012052D02*
X036378Y012052D01*
X036378Y012066D02*
X036614Y012066D01*
X036614Y012080D02*
X036378Y012080D01*
X036378Y012094D02*
X036614Y012094D01*
X036614Y012108D02*
X036378Y012108D01*
X036378Y012122D02*
X036614Y012122D01*
X036614Y012136D02*
X036378Y012136D01*
X036378Y012150D02*
X036614Y012150D01*
X036378Y012855D02*
X036378Y013341D01*
X036614Y013341D01*
X036614Y012855D01*
X036378Y012855D01*
X036378Y012869D02*
X036614Y012869D01*
X036614Y012883D02*
X036378Y012883D01*
X036378Y012897D02*
X036614Y012897D01*
X036614Y012911D02*
X036378Y012911D01*
X036378Y012925D02*
X036614Y012925D01*
X036614Y012939D02*
X036378Y012939D01*
X036378Y012953D02*
X036614Y012953D01*
X036614Y012967D02*
X036378Y012967D01*
X036378Y012981D02*
X036614Y012981D01*
X036614Y012995D02*
X036378Y012995D01*
X036378Y013009D02*
X036614Y013009D01*
X036614Y013023D02*
X036378Y013023D01*
X036378Y013037D02*
X036614Y013037D01*
X036614Y013051D02*
X036378Y013051D01*
X036378Y013065D02*
X036614Y013065D01*
X036614Y013079D02*
X036378Y013079D01*
X036378Y013093D02*
X036614Y013093D01*
X036614Y013107D02*
X036378Y013107D01*
X036378Y013121D02*
X036614Y013121D01*
X036614Y013135D02*
X036378Y013135D01*
X036378Y013149D02*
X036614Y013149D01*
X036614Y013163D02*
X036378Y013163D01*
X036378Y013177D02*
X036614Y013177D01*
X036614Y013191D02*
X036378Y013191D01*
X036378Y013205D02*
X036614Y013205D01*
X036614Y013219D02*
X036378Y013219D01*
X036378Y013233D02*
X036614Y013233D01*
X036614Y013247D02*
X036378Y013247D01*
X036378Y013261D02*
X036614Y013261D01*
X036614Y013275D02*
X036378Y013275D01*
X036378Y013289D02*
X036614Y013289D01*
X036614Y013303D02*
X036378Y013303D01*
X036378Y013317D02*
X036614Y013317D01*
X036614Y013331D02*
X036378Y013331D01*
X035590Y013341D02*
X035590Y012855D01*
X035590Y013341D02*
X035826Y013341D01*
X035826Y012855D01*
X035590Y012855D01*
X035590Y012869D02*
X035826Y012869D01*
X035826Y012883D02*
X035590Y012883D01*
X035590Y012897D02*
X035826Y012897D01*
X035826Y012911D02*
X035590Y012911D01*
X035590Y012925D02*
X035826Y012925D01*
X035826Y012939D02*
X035590Y012939D01*
X035590Y012953D02*
X035826Y012953D01*
X035826Y012967D02*
X035590Y012967D01*
X035590Y012981D02*
X035826Y012981D01*
X035826Y012995D02*
X035590Y012995D01*
X035590Y013009D02*
X035826Y013009D01*
X035826Y013023D02*
X035590Y013023D01*
X035590Y013037D02*
X035826Y013037D01*
X035826Y013051D02*
X035590Y013051D01*
X035590Y013065D02*
X035826Y013065D01*
X035826Y013079D02*
X035590Y013079D01*
X035590Y013093D02*
X035826Y013093D01*
X035826Y013107D02*
X035590Y013107D01*
X035590Y013121D02*
X035826Y013121D01*
X035826Y013135D02*
X035590Y013135D01*
X035590Y013149D02*
X035826Y013149D01*
X035826Y013163D02*
X035590Y013163D01*
X035590Y013177D02*
X035826Y013177D01*
X035826Y013191D02*
X035590Y013191D01*
X035590Y013205D02*
X035826Y013205D01*
X035826Y013219D02*
X035590Y013219D01*
X035590Y013233D02*
X035826Y013233D01*
X035826Y013247D02*
X035590Y013247D01*
X035590Y013261D02*
X035826Y013261D01*
X035826Y013275D02*
X035590Y013275D01*
X035590Y013289D02*
X035826Y013289D01*
X035826Y013303D02*
X035590Y013303D01*
X035590Y013317D02*
X035826Y013317D01*
X035826Y013331D02*
X035590Y013331D01*
X034803Y013341D02*
X034803Y012855D01*
X034803Y013341D02*
X035039Y013341D01*
X035039Y012855D01*
X034803Y012855D01*
X034803Y012869D02*
X035039Y012869D01*
X035039Y012883D02*
X034803Y012883D01*
X034803Y012897D02*
X035039Y012897D01*
X035039Y012911D02*
X034803Y012911D01*
X034803Y012925D02*
X035039Y012925D01*
X035039Y012939D02*
X034803Y012939D01*
X034803Y012953D02*
X035039Y012953D01*
X035039Y012967D02*
X034803Y012967D01*
X034803Y012981D02*
X035039Y012981D01*
X035039Y012995D02*
X034803Y012995D01*
X034803Y013009D02*
X035039Y013009D01*
X035039Y013023D02*
X034803Y013023D01*
X034803Y013037D02*
X035039Y013037D01*
X035039Y013051D02*
X034803Y013051D01*
X034803Y013065D02*
X035039Y013065D01*
X035039Y013079D02*
X034803Y013079D01*
X034803Y013093D02*
X035039Y013093D01*
X035039Y013107D02*
X034803Y013107D01*
X034803Y013121D02*
X035039Y013121D01*
X035039Y013135D02*
X034803Y013135D01*
X034803Y013149D02*
X035039Y013149D01*
X035039Y013163D02*
X034803Y013163D01*
X034803Y013177D02*
X035039Y013177D01*
X035039Y013191D02*
X034803Y013191D01*
X034803Y013205D02*
X035039Y013205D01*
X035039Y013219D02*
X034803Y013219D01*
X034803Y013233D02*
X035039Y013233D01*
X035039Y013247D02*
X034803Y013247D01*
X034803Y013261D02*
X035039Y013261D01*
X035039Y013275D02*
X034803Y013275D01*
X034803Y013289D02*
X035039Y013289D01*
X035039Y013303D02*
X034803Y013303D01*
X034803Y013317D02*
X035039Y013317D01*
X035039Y013331D02*
X034803Y013331D01*
X034016Y013341D02*
X034016Y012855D01*
X034016Y013341D02*
X034252Y013341D01*
X034252Y012855D01*
X034016Y012855D01*
X034016Y012869D02*
X034252Y012869D01*
X034252Y012883D02*
X034016Y012883D01*
X034016Y012897D02*
X034252Y012897D01*
X034252Y012911D02*
X034016Y012911D01*
X034016Y012925D02*
X034252Y012925D01*
X034252Y012939D02*
X034016Y012939D01*
X034016Y012953D02*
X034252Y012953D01*
X034252Y012967D02*
X034016Y012967D01*
X034016Y012981D02*
X034252Y012981D01*
X034252Y012995D02*
X034016Y012995D01*
X034016Y013009D02*
X034252Y013009D01*
X034252Y013023D02*
X034016Y013023D01*
X034016Y013037D02*
X034252Y013037D01*
X034252Y013051D02*
X034016Y013051D01*
X034016Y013065D02*
X034252Y013065D01*
X034252Y013079D02*
X034016Y013079D01*
X034016Y013093D02*
X034252Y013093D01*
X034252Y013107D02*
X034016Y013107D01*
X034016Y013121D02*
X034252Y013121D01*
X034252Y013135D02*
X034016Y013135D01*
X034016Y013149D02*
X034252Y013149D01*
X034252Y013163D02*
X034016Y013163D01*
X034016Y013177D02*
X034252Y013177D01*
X034252Y013191D02*
X034016Y013191D01*
X034016Y013205D02*
X034252Y013205D01*
X034252Y013219D02*
X034016Y013219D01*
X034016Y013233D02*
X034252Y013233D01*
X034252Y013247D02*
X034016Y013247D01*
X034016Y013261D02*
X034252Y013261D01*
X034252Y013275D02*
X034016Y013275D01*
X034016Y013289D02*
X034252Y013289D01*
X034252Y013303D02*
X034016Y013303D01*
X034016Y013317D02*
X034252Y013317D01*
X034252Y013331D02*
X034016Y013331D01*
X033228Y013341D02*
X033228Y012855D01*
X033228Y013341D02*
X033464Y013341D01*
X033464Y012855D01*
X033228Y012855D01*
X033228Y012869D02*
X033464Y012869D01*
X033464Y012883D02*
X033228Y012883D01*
X033228Y012897D02*
X033464Y012897D01*
X033464Y012911D02*
X033228Y012911D01*
X033228Y012925D02*
X033464Y012925D01*
X033464Y012939D02*
X033228Y012939D01*
X033228Y012953D02*
X033464Y012953D01*
X033464Y012967D02*
X033228Y012967D01*
X033228Y012981D02*
X033464Y012981D01*
X033464Y012995D02*
X033228Y012995D01*
X033228Y013009D02*
X033464Y013009D01*
X033464Y013023D02*
X033228Y013023D01*
X033228Y013037D02*
X033464Y013037D01*
X033464Y013051D02*
X033228Y013051D01*
X033228Y013065D02*
X033464Y013065D01*
X033464Y013079D02*
X033228Y013079D01*
X033228Y013093D02*
X033464Y013093D01*
X033464Y013107D02*
X033228Y013107D01*
X033228Y013121D02*
X033464Y013121D01*
X033464Y013135D02*
X033228Y013135D01*
X033228Y013149D02*
X033464Y013149D01*
X033464Y013163D02*
X033228Y013163D01*
X033228Y013177D02*
X033464Y013177D01*
X033464Y013191D02*
X033228Y013191D01*
X033228Y013205D02*
X033464Y013205D01*
X033464Y013219D02*
X033228Y013219D01*
X033228Y013233D02*
X033464Y013233D01*
X033464Y013247D02*
X033228Y013247D01*
X033228Y013261D02*
X033464Y013261D01*
X033464Y013275D02*
X033228Y013275D01*
X033228Y013289D02*
X033464Y013289D01*
X033464Y013303D02*
X033228Y013303D01*
X033228Y013317D02*
X033464Y013317D01*
X033464Y013331D02*
X033228Y013331D01*
X032441Y013341D02*
X032441Y012855D01*
X032441Y013341D02*
X032677Y013341D01*
X032677Y012855D01*
X032441Y012855D01*
X032441Y012869D02*
X032677Y012869D01*
X032677Y012883D02*
X032441Y012883D01*
X032441Y012897D02*
X032677Y012897D01*
X032677Y012911D02*
X032441Y012911D01*
X032441Y012925D02*
X032677Y012925D01*
X032677Y012939D02*
X032441Y012939D01*
X032441Y012953D02*
X032677Y012953D01*
X032677Y012967D02*
X032441Y012967D01*
X032441Y012981D02*
X032677Y012981D01*
X032677Y012995D02*
X032441Y012995D01*
X032441Y013009D02*
X032677Y013009D01*
X032677Y013023D02*
X032441Y013023D01*
X032441Y013037D02*
X032677Y013037D01*
X032677Y013051D02*
X032441Y013051D01*
X032441Y013065D02*
X032677Y013065D01*
X032677Y013079D02*
X032441Y013079D01*
X032441Y013093D02*
X032677Y013093D01*
X032677Y013107D02*
X032441Y013107D01*
X032441Y013121D02*
X032677Y013121D01*
X032677Y013135D02*
X032441Y013135D01*
X032441Y013149D02*
X032677Y013149D01*
X032677Y013163D02*
X032441Y013163D01*
X032441Y013177D02*
X032677Y013177D01*
X032677Y013191D02*
X032441Y013191D01*
X032441Y013205D02*
X032677Y013205D01*
X032677Y013219D02*
X032441Y013219D01*
X032441Y013233D02*
X032677Y013233D01*
X032677Y013247D02*
X032441Y013247D01*
X032441Y013261D02*
X032677Y013261D01*
X032677Y013275D02*
X032441Y013275D01*
X032441Y013289D02*
X032677Y013289D01*
X032677Y013303D02*
X032441Y013303D01*
X032441Y013317D02*
X032677Y013317D01*
X032677Y013331D02*
X032441Y013331D01*
X031653Y013341D02*
X031653Y012855D01*
X031653Y013341D02*
X031889Y013341D01*
X031889Y012855D01*
X031653Y012855D01*
X031653Y012869D02*
X031889Y012869D01*
X031889Y012883D02*
X031653Y012883D01*
X031653Y012897D02*
X031889Y012897D01*
X031889Y012911D02*
X031653Y012911D01*
X031653Y012925D02*
X031889Y012925D01*
X031889Y012939D02*
X031653Y012939D01*
X031653Y012953D02*
X031889Y012953D01*
X031889Y012967D02*
X031653Y012967D01*
X031653Y012981D02*
X031889Y012981D01*
X031889Y012995D02*
X031653Y012995D01*
X031653Y013009D02*
X031889Y013009D01*
X031889Y013023D02*
X031653Y013023D01*
X031653Y013037D02*
X031889Y013037D01*
X031889Y013051D02*
X031653Y013051D01*
X031653Y013065D02*
X031889Y013065D01*
X031889Y013079D02*
X031653Y013079D01*
X031653Y013093D02*
X031889Y013093D01*
X031889Y013107D02*
X031653Y013107D01*
X031653Y013121D02*
X031889Y013121D01*
X031889Y013135D02*
X031653Y013135D01*
X031653Y013149D02*
X031889Y013149D01*
X031889Y013163D02*
X031653Y013163D01*
X031653Y013177D02*
X031889Y013177D01*
X031889Y013191D02*
X031653Y013191D01*
X031653Y013205D02*
X031889Y013205D01*
X031889Y013219D02*
X031653Y013219D01*
X031653Y013233D02*
X031889Y013233D01*
X031889Y013247D02*
X031653Y013247D01*
X031653Y013261D02*
X031889Y013261D01*
X031889Y013275D02*
X031653Y013275D01*
X031653Y013289D02*
X031889Y013289D01*
X031889Y013303D02*
X031653Y013303D01*
X031653Y013317D02*
X031889Y013317D01*
X031889Y013331D02*
X031653Y013331D01*
D18*
X017952Y019594D02*
X017952Y020381D01*
X016456Y020381D01*
X016456Y019594D01*
X017952Y019594D01*
X017834Y021563D02*
X018071Y021563D01*
X018071Y022744D01*
X017834Y022744D01*
X017834Y021563D01*
X017952Y023925D02*
X016456Y023925D01*
X016456Y024712D01*
X017952Y024712D01*
X017952Y023925D01*
X014015Y023925D02*
X012519Y023925D01*
X012519Y024712D01*
X014015Y024712D01*
X014015Y023925D01*
X012637Y022744D02*
X012401Y022744D01*
X012401Y021563D01*
X012637Y021563D01*
X012637Y022744D01*
X012519Y020381D02*
X012519Y019594D01*
X014015Y019594D01*
X014015Y020381D01*
X012519Y020381D01*
D19*
X012716Y022153D03*
X017756Y022153D03*
D20*
X007255Y021787D02*
X006957Y021787D01*
X006957Y022165D01*
X007255Y022165D01*
X007255Y021787D01*
X007255Y021802D02*
X006957Y021802D01*
X006957Y021817D02*
X007255Y021817D01*
X007255Y021832D02*
X006957Y021832D01*
X006957Y021847D02*
X007255Y021847D01*
X007255Y021862D02*
X006957Y021862D01*
X006957Y021877D02*
X007255Y021877D01*
X007255Y021892D02*
X006957Y021892D01*
X006957Y021907D02*
X007255Y021907D01*
X007255Y021922D02*
X006957Y021922D01*
X006957Y021937D02*
X007255Y021937D01*
X007255Y021952D02*
X006957Y021952D01*
X006957Y021967D02*
X007255Y021967D01*
X007255Y021982D02*
X006957Y021982D01*
X006957Y021997D02*
X007255Y021997D01*
X007255Y022012D02*
X006957Y022012D01*
X006957Y022027D02*
X007255Y022027D01*
X007255Y022042D02*
X006957Y022042D01*
X006957Y022057D02*
X007255Y022057D01*
X007255Y022072D02*
X006957Y022072D01*
X006957Y022087D02*
X007255Y022087D01*
X007255Y022102D02*
X006957Y022102D01*
X006957Y022117D02*
X007255Y022117D01*
X007255Y022132D02*
X006957Y022132D01*
X006957Y022147D02*
X007255Y022147D01*
X007255Y022162D02*
X006957Y022162D01*
X006389Y021787D02*
X006091Y021787D01*
X006091Y022165D01*
X006389Y022165D01*
X006389Y021787D01*
X006389Y021802D02*
X006091Y021802D01*
X006091Y021817D02*
X006389Y021817D01*
X006389Y021832D02*
X006091Y021832D01*
X006091Y021847D02*
X006389Y021847D01*
X006389Y021862D02*
X006091Y021862D01*
X006091Y021877D02*
X006389Y021877D01*
X006389Y021892D02*
X006091Y021892D01*
X006091Y021907D02*
X006389Y021907D01*
X006389Y021922D02*
X006091Y021922D01*
X006091Y021937D02*
X006389Y021937D01*
X006389Y021952D02*
X006091Y021952D01*
X006091Y021967D02*
X006389Y021967D01*
X006389Y021982D02*
X006091Y021982D01*
X006091Y021997D02*
X006389Y021997D01*
X006389Y022012D02*
X006091Y022012D01*
X006091Y022027D02*
X006389Y022027D01*
X006389Y022042D02*
X006091Y022042D01*
X006091Y022057D02*
X006389Y022057D01*
X006389Y022072D02*
X006091Y022072D01*
X006091Y022087D02*
X006389Y022087D01*
X006389Y022102D02*
X006091Y022102D01*
X006091Y022117D02*
X006389Y022117D01*
X006389Y022132D02*
X006091Y022132D01*
X006091Y022147D02*
X006389Y022147D01*
X006389Y022162D02*
X006091Y022162D01*
X006091Y020370D02*
X006389Y020370D01*
X006091Y020370D02*
X006091Y020748D01*
X006389Y020748D01*
X006389Y020370D01*
X006389Y020385D02*
X006091Y020385D01*
X006091Y020400D02*
X006389Y020400D01*
X006389Y020415D02*
X006091Y020415D01*
X006091Y020430D02*
X006389Y020430D01*
X006389Y020445D02*
X006091Y020445D01*
X006091Y020460D02*
X006389Y020460D01*
X006389Y020475D02*
X006091Y020475D01*
X006091Y020490D02*
X006389Y020490D01*
X006389Y020505D02*
X006091Y020505D01*
X006091Y020520D02*
X006389Y020520D01*
X006389Y020535D02*
X006091Y020535D01*
X006091Y020550D02*
X006389Y020550D01*
X006389Y020565D02*
X006091Y020565D01*
X006091Y020580D02*
X006389Y020580D01*
X006389Y020595D02*
X006091Y020595D01*
X006091Y020610D02*
X006389Y020610D01*
X006389Y020625D02*
X006091Y020625D01*
X006091Y020640D02*
X006389Y020640D01*
X006389Y020655D02*
X006091Y020655D01*
X006091Y020670D02*
X006389Y020670D01*
X006389Y020685D02*
X006091Y020685D01*
X006091Y020700D02*
X006389Y020700D01*
X006389Y020715D02*
X006091Y020715D01*
X006091Y020730D02*
X006389Y020730D01*
X006389Y020745D02*
X006091Y020745D01*
X006957Y020370D02*
X007255Y020370D01*
X006957Y020370D02*
X006957Y020748D01*
X007255Y020748D01*
X007255Y020370D01*
X007255Y020385D02*
X006957Y020385D01*
X006957Y020400D02*
X007255Y020400D01*
X007255Y020415D02*
X006957Y020415D01*
X006957Y020430D02*
X007255Y020430D01*
X007255Y020445D02*
X006957Y020445D01*
X006957Y020460D02*
X007255Y020460D01*
X007255Y020475D02*
X006957Y020475D01*
X006957Y020490D02*
X007255Y020490D01*
X007255Y020505D02*
X006957Y020505D01*
X006957Y020520D02*
X007255Y020520D01*
X007255Y020535D02*
X006957Y020535D01*
X006957Y020550D02*
X007255Y020550D01*
X007255Y020565D02*
X006957Y020565D01*
X006957Y020580D02*
X007255Y020580D01*
X007255Y020595D02*
X006957Y020595D01*
X006957Y020610D02*
X007255Y020610D01*
X007255Y020625D02*
X006957Y020625D01*
X006957Y020640D02*
X007255Y020640D01*
X007255Y020655D02*
X006957Y020655D01*
X006957Y020670D02*
X007255Y020670D01*
X007255Y020685D02*
X006957Y020685D01*
X006957Y020700D02*
X007255Y020700D01*
X007255Y020715D02*
X006957Y020715D01*
X006957Y020730D02*
X007255Y020730D01*
X007255Y020745D02*
X006957Y020745D01*
D21*
X033248Y008374D03*
M02*
