G75*
%MOIN*%
%OFA0B0*%
%FSLAX24Y24*%
%IPPOS*%
%LPD*%
%AMOC8*
5,1,8,0,0,1.08239X$1,22.5*
%
%ADD10C,0.0050*%
%ADD11C,0.0000*%
%ADD12C,0.1811*%
%ADD13R,0.0256X0.0512*%
%ADD14R,0.0315X0.0394*%
%ADD15R,0.0331X0.0404*%
%ADD16R,0.0409X0.0439*%
%ADD17R,0.0639X0.0339*%
%ADD18C,0.0827*%
%ADD19R,0.0404X0.0331*%
%ADD20R,0.0591X0.0591*%
%ADD21R,0.0571X0.0197*%
%ADD22C,0.0310*%
%ADD23R,0.0650X0.0687*%
%ADD24R,0.0650X0.0630*%
%ADD25R,0.0339X0.0639*%
%ADD26R,0.0439X0.0639*%
%ADD27R,0.0639X0.0839*%
%ADD28R,0.0639X0.0639*%
%ADD29C,0.0389*%
%ADD30R,0.0236X0.0630*%
%ADD31R,0.0945X0.1575*%
%ADD32R,0.0512X0.0157*%
%ADD33R,0.0157X0.0512*%
%ADD34R,0.0394X0.0315*%
%ADD35C,0.0130*%
%ADD36R,0.0413X0.0394*%
%ADD37C,0.0779*%
%ADD38R,0.0433X0.0748*%
%ADD39R,0.0394X0.0295*%
%ADD40R,0.0539X0.0239*%
%ADD41OC8,0.0779*%
%ADD42C,0.0400*%
%ADD43R,0.0639X0.1639*%
%ADD44R,0.0789X0.0789*%
D10*
X002625Y004169D02*
X037625Y004169D01*
X037701Y004171D01*
X037777Y004177D01*
X037852Y004186D01*
X037927Y004200D01*
X038001Y004217D01*
X038074Y004238D01*
X038146Y004262D01*
X038217Y004291D01*
X038286Y004322D01*
X038353Y004357D01*
X038418Y004396D01*
X038482Y004438D01*
X038543Y004483D01*
X038602Y004531D01*
X038658Y004582D01*
X038712Y004636D01*
X038763Y004692D01*
X038811Y004751D01*
X038856Y004812D01*
X038898Y004876D01*
X038937Y004941D01*
X038972Y005008D01*
X039003Y005077D01*
X039032Y005148D01*
X039056Y005220D01*
X039077Y005293D01*
X039094Y005367D01*
X039108Y005442D01*
X039117Y005517D01*
X039123Y005593D01*
X039125Y005669D01*
X039125Y017976D01*
X038515Y017976D01*
X038490Y017978D01*
X038465Y017983D01*
X038441Y017992D01*
X038419Y018004D01*
X038399Y018019D01*
X038381Y018037D01*
X038366Y018057D01*
X038354Y018079D01*
X038345Y018103D01*
X038340Y018128D01*
X038338Y018153D01*
X038340Y018178D01*
X038345Y018203D01*
X038354Y018227D01*
X038366Y018249D01*
X038381Y018269D01*
X038399Y018287D01*
X038419Y018302D01*
X038441Y018314D01*
X038465Y018323D01*
X038490Y018328D01*
X038515Y018330D01*
X039125Y018330D01*
X039125Y022669D01*
X039123Y022745D01*
X039117Y022821D01*
X039108Y022896D01*
X039094Y022971D01*
X039077Y023045D01*
X039056Y023118D01*
X039032Y023190D01*
X039003Y023261D01*
X038972Y023330D01*
X038937Y023397D01*
X038898Y023462D01*
X038856Y023526D01*
X038811Y023587D01*
X038763Y023646D01*
X038712Y023702D01*
X038658Y023756D01*
X038602Y023807D01*
X038543Y023855D01*
X038482Y023900D01*
X038418Y023942D01*
X038353Y023981D01*
X038286Y024016D01*
X038217Y024047D01*
X038146Y024076D01*
X038074Y024100D01*
X038001Y024121D01*
X037927Y024138D01*
X037852Y024152D01*
X037777Y024161D01*
X037701Y024167D01*
X037625Y024169D01*
X035869Y024169D01*
X035869Y023854D01*
X035475Y023854D01*
X035475Y024149D01*
X004767Y024149D01*
X004767Y023854D01*
X004373Y023854D01*
X004373Y024169D01*
X002625Y024169D01*
X002549Y024167D01*
X002473Y024161D01*
X002398Y024152D01*
X002323Y024138D01*
X002249Y024121D01*
X002176Y024100D01*
X002104Y024076D01*
X002033Y024047D01*
X001964Y024016D01*
X001897Y023981D01*
X001832Y023942D01*
X001768Y023900D01*
X001707Y023855D01*
X001648Y023807D01*
X001592Y023756D01*
X001538Y023702D01*
X001487Y023646D01*
X001439Y023587D01*
X001394Y023526D01*
X001352Y023462D01*
X001313Y023397D01*
X001278Y023330D01*
X001247Y023261D01*
X001218Y023190D01*
X001194Y023118D01*
X001173Y023045D01*
X001156Y022971D01*
X001142Y022896D01*
X001133Y022821D01*
X001127Y022745D01*
X001125Y022669D01*
X001125Y018330D01*
X001735Y018330D01*
X001760Y018328D01*
X001785Y018323D01*
X001809Y018314D01*
X001831Y018302D01*
X001851Y018287D01*
X001869Y018269D01*
X001884Y018249D01*
X001896Y018227D01*
X001905Y018203D01*
X001910Y018178D01*
X001912Y018153D01*
X001910Y018128D01*
X001905Y018103D01*
X001896Y018079D01*
X001884Y018057D01*
X001869Y018037D01*
X001851Y018019D01*
X001831Y018004D01*
X001809Y017992D01*
X001785Y017983D01*
X001760Y017978D01*
X001735Y017976D01*
X001125Y017976D01*
X001125Y005669D01*
X001127Y005593D01*
X001133Y005517D01*
X001142Y005442D01*
X001156Y005367D01*
X001173Y005293D01*
X001194Y005220D01*
X001218Y005148D01*
X001247Y005077D01*
X001278Y005008D01*
X001313Y004941D01*
X001352Y004876D01*
X001394Y004812D01*
X001439Y004751D01*
X001487Y004692D01*
X001538Y004636D01*
X001592Y004582D01*
X001648Y004531D01*
X001707Y004483D01*
X001768Y004438D01*
X001832Y004396D01*
X001897Y004357D01*
X001964Y004322D01*
X002033Y004291D01*
X002104Y004262D01*
X002176Y004238D01*
X002249Y004217D01*
X002323Y004200D01*
X002398Y004186D01*
X002473Y004177D01*
X002549Y004171D01*
X002625Y004169D01*
X007330Y012169D02*
X032920Y012169D01*
X032946Y012171D01*
X032971Y012176D01*
X032995Y012184D01*
X033019Y012195D01*
X033040Y012210D01*
X033059Y012227D01*
X033076Y012246D01*
X033091Y012268D01*
X033102Y012291D01*
X033110Y012315D01*
X033115Y012340D01*
X033117Y012366D01*
X033117Y013027D01*
X032719Y013027D01*
X032719Y012732D01*
X007523Y012732D01*
X007523Y013027D01*
X007133Y013027D01*
X007133Y012366D01*
X007135Y012340D01*
X007140Y012315D01*
X007148Y012291D01*
X007159Y012268D01*
X007174Y012246D01*
X007191Y012227D01*
X007210Y012210D01*
X007232Y012195D01*
X007255Y012184D01*
X007279Y012176D01*
X007304Y012171D01*
X007330Y012169D01*
X007523Y013421D02*
X007133Y013421D01*
X007133Y022082D01*
X007131Y022108D01*
X007126Y022133D01*
X007118Y022157D01*
X007107Y022181D01*
X007092Y022202D01*
X007075Y022221D01*
X007056Y022238D01*
X007035Y022253D01*
X007011Y022264D01*
X006987Y022272D01*
X006962Y022277D01*
X006936Y022279D01*
X004570Y022279D01*
X004544Y022281D01*
X004519Y022286D01*
X004495Y022294D01*
X004472Y022305D01*
X004450Y022320D01*
X004431Y022337D01*
X004414Y022356D01*
X004399Y022378D01*
X004388Y022401D01*
X004380Y022425D01*
X004375Y022450D01*
X004373Y022476D01*
X004373Y023460D01*
X004767Y023460D01*
X004767Y022771D01*
X007523Y022771D01*
X007523Y013421D01*
X032719Y013421D02*
X033117Y013421D01*
X033117Y022082D01*
X033119Y022108D01*
X033124Y022133D01*
X033132Y022157D01*
X033143Y022181D01*
X033158Y022202D01*
X033175Y022221D01*
X033194Y022238D01*
X033216Y022253D01*
X033239Y022264D01*
X033263Y022272D01*
X033288Y022277D01*
X033314Y022279D01*
X035672Y022279D01*
X035698Y022281D01*
X035723Y022286D01*
X035747Y022294D01*
X035771Y022305D01*
X035792Y022320D01*
X035811Y022337D01*
X035828Y022356D01*
X035843Y022378D01*
X035854Y022401D01*
X035862Y022425D01*
X035867Y022450D01*
X035869Y022476D01*
X035869Y023460D01*
X035475Y023460D01*
X035475Y022673D01*
X032719Y022673D01*
X032719Y013421D01*
D11*
X033511Y006787D02*
X033513Y006826D01*
X033519Y006865D01*
X033529Y006903D01*
X033542Y006940D01*
X033559Y006975D01*
X033579Y007009D01*
X033603Y007040D01*
X033630Y007069D01*
X033659Y007095D01*
X033691Y007118D01*
X033725Y007138D01*
X033761Y007154D01*
X033798Y007166D01*
X033837Y007175D01*
X033876Y007180D01*
X033915Y007181D01*
X033954Y007178D01*
X033993Y007171D01*
X034030Y007160D01*
X034067Y007146D01*
X034102Y007128D01*
X034135Y007107D01*
X034166Y007082D01*
X034194Y007055D01*
X034219Y007025D01*
X034241Y006992D01*
X034260Y006958D01*
X034275Y006922D01*
X034287Y006884D01*
X034295Y006846D01*
X034299Y006807D01*
X034299Y006767D01*
X034295Y006728D01*
X034287Y006690D01*
X034275Y006652D01*
X034260Y006616D01*
X034241Y006582D01*
X034219Y006549D01*
X034194Y006519D01*
X034166Y006492D01*
X034135Y006467D01*
X034102Y006446D01*
X034067Y006428D01*
X034030Y006414D01*
X033993Y006403D01*
X033954Y006396D01*
X033915Y006393D01*
X033876Y006394D01*
X033837Y006399D01*
X033798Y006408D01*
X033761Y006420D01*
X033725Y006436D01*
X033691Y006456D01*
X033659Y006479D01*
X033630Y006505D01*
X033603Y006534D01*
X033579Y006565D01*
X033559Y006599D01*
X033542Y006634D01*
X033529Y006671D01*
X033519Y006709D01*
X033513Y006748D01*
X033511Y006787D01*
X030926Y005387D02*
X030928Y005413D01*
X030934Y005439D01*
X030943Y005463D01*
X030956Y005486D01*
X030973Y005506D01*
X030992Y005524D01*
X031014Y005539D01*
X031037Y005550D01*
X031062Y005558D01*
X031088Y005562D01*
X031114Y005562D01*
X031140Y005558D01*
X031165Y005550D01*
X031189Y005539D01*
X031210Y005524D01*
X031229Y005506D01*
X031246Y005486D01*
X031259Y005463D01*
X031268Y005439D01*
X031274Y005413D01*
X031276Y005387D01*
X031274Y005361D01*
X031268Y005335D01*
X031259Y005311D01*
X031246Y005288D01*
X031229Y005268D01*
X031210Y005250D01*
X031188Y005235D01*
X031165Y005224D01*
X031140Y005216D01*
X031114Y005212D01*
X031088Y005212D01*
X031062Y005216D01*
X031037Y005224D01*
X031013Y005235D01*
X030992Y005250D01*
X030973Y005268D01*
X030956Y005288D01*
X030943Y005311D01*
X030934Y005335D01*
X030928Y005361D01*
X030926Y005387D01*
X027776Y005387D02*
X027778Y005413D01*
X027784Y005439D01*
X027793Y005463D01*
X027806Y005486D01*
X027823Y005506D01*
X027842Y005524D01*
X027864Y005539D01*
X027887Y005550D01*
X027912Y005558D01*
X027938Y005562D01*
X027964Y005562D01*
X027990Y005558D01*
X028015Y005550D01*
X028039Y005539D01*
X028060Y005524D01*
X028079Y005506D01*
X028096Y005486D01*
X028109Y005463D01*
X028118Y005439D01*
X028124Y005413D01*
X028126Y005387D01*
X028124Y005361D01*
X028118Y005335D01*
X028109Y005311D01*
X028096Y005288D01*
X028079Y005268D01*
X028060Y005250D01*
X028038Y005235D01*
X028015Y005224D01*
X027990Y005216D01*
X027964Y005212D01*
X027938Y005212D01*
X027912Y005216D01*
X027887Y005224D01*
X027863Y005235D01*
X027842Y005250D01*
X027823Y005268D01*
X027806Y005288D01*
X027793Y005311D01*
X027784Y005335D01*
X027778Y005361D01*
X027776Y005387D01*
X036739Y005669D02*
X036741Y005728D01*
X036747Y005787D01*
X036757Y005845D01*
X036770Y005903D01*
X036788Y005960D01*
X036809Y006015D01*
X036834Y006069D01*
X036863Y006121D01*
X036895Y006170D01*
X036930Y006218D01*
X036968Y006263D01*
X037009Y006306D01*
X037053Y006346D01*
X037099Y006382D01*
X037148Y006416D01*
X037199Y006446D01*
X037252Y006473D01*
X037307Y006496D01*
X037362Y006515D01*
X037420Y006531D01*
X037478Y006543D01*
X037536Y006551D01*
X037595Y006555D01*
X037655Y006555D01*
X037714Y006551D01*
X037772Y006543D01*
X037830Y006531D01*
X037888Y006515D01*
X037943Y006496D01*
X037998Y006473D01*
X038051Y006446D01*
X038102Y006416D01*
X038151Y006382D01*
X038197Y006346D01*
X038241Y006306D01*
X038282Y006263D01*
X038320Y006218D01*
X038355Y006170D01*
X038387Y006121D01*
X038416Y006069D01*
X038441Y006015D01*
X038462Y005960D01*
X038480Y005903D01*
X038493Y005845D01*
X038503Y005787D01*
X038509Y005728D01*
X038511Y005669D01*
X038509Y005610D01*
X038503Y005551D01*
X038493Y005493D01*
X038480Y005435D01*
X038462Y005378D01*
X038441Y005323D01*
X038416Y005269D01*
X038387Y005217D01*
X038355Y005168D01*
X038320Y005120D01*
X038282Y005075D01*
X038241Y005032D01*
X038197Y004992D01*
X038151Y004956D01*
X038102Y004922D01*
X038051Y004892D01*
X037998Y004865D01*
X037943Y004842D01*
X037888Y004823D01*
X037830Y004807D01*
X037772Y004795D01*
X037714Y004787D01*
X037655Y004783D01*
X037595Y004783D01*
X037536Y004787D01*
X037478Y004795D01*
X037420Y004807D01*
X037362Y004823D01*
X037307Y004842D01*
X037252Y004865D01*
X037199Y004892D01*
X037148Y004922D01*
X037099Y004956D01*
X037053Y004992D01*
X037009Y005032D01*
X036968Y005075D01*
X036930Y005120D01*
X036895Y005168D01*
X036863Y005217D01*
X036834Y005269D01*
X036809Y005323D01*
X036788Y005378D01*
X036770Y005435D01*
X036757Y005493D01*
X036747Y005551D01*
X036741Y005610D01*
X036739Y005669D01*
X033511Y021551D02*
X033513Y021590D01*
X033519Y021629D01*
X033529Y021667D01*
X033542Y021704D01*
X033559Y021739D01*
X033579Y021773D01*
X033603Y021804D01*
X033630Y021833D01*
X033659Y021859D01*
X033691Y021882D01*
X033725Y021902D01*
X033761Y021918D01*
X033798Y021930D01*
X033837Y021939D01*
X033876Y021944D01*
X033915Y021945D01*
X033954Y021942D01*
X033993Y021935D01*
X034030Y021924D01*
X034067Y021910D01*
X034102Y021892D01*
X034135Y021871D01*
X034166Y021846D01*
X034194Y021819D01*
X034219Y021789D01*
X034241Y021756D01*
X034260Y021722D01*
X034275Y021686D01*
X034287Y021648D01*
X034295Y021610D01*
X034299Y021571D01*
X034299Y021531D01*
X034295Y021492D01*
X034287Y021454D01*
X034275Y021416D01*
X034260Y021380D01*
X034241Y021346D01*
X034219Y021313D01*
X034194Y021283D01*
X034166Y021256D01*
X034135Y021231D01*
X034102Y021210D01*
X034067Y021192D01*
X034030Y021178D01*
X033993Y021167D01*
X033954Y021160D01*
X033915Y021157D01*
X033876Y021158D01*
X033837Y021163D01*
X033798Y021172D01*
X033761Y021184D01*
X033725Y021200D01*
X033691Y021220D01*
X033659Y021243D01*
X033630Y021269D01*
X033603Y021298D01*
X033579Y021329D01*
X033559Y021363D01*
X033542Y021398D01*
X033529Y021435D01*
X033519Y021473D01*
X033513Y021512D01*
X033511Y021551D01*
X036739Y022669D02*
X036741Y022728D01*
X036747Y022787D01*
X036757Y022845D01*
X036770Y022903D01*
X036788Y022960D01*
X036809Y023015D01*
X036834Y023069D01*
X036863Y023121D01*
X036895Y023170D01*
X036930Y023218D01*
X036968Y023263D01*
X037009Y023306D01*
X037053Y023346D01*
X037099Y023382D01*
X037148Y023416D01*
X037199Y023446D01*
X037252Y023473D01*
X037307Y023496D01*
X037362Y023515D01*
X037420Y023531D01*
X037478Y023543D01*
X037536Y023551D01*
X037595Y023555D01*
X037655Y023555D01*
X037714Y023551D01*
X037772Y023543D01*
X037830Y023531D01*
X037888Y023515D01*
X037943Y023496D01*
X037998Y023473D01*
X038051Y023446D01*
X038102Y023416D01*
X038151Y023382D01*
X038197Y023346D01*
X038241Y023306D01*
X038282Y023263D01*
X038320Y023218D01*
X038355Y023170D01*
X038387Y023121D01*
X038416Y023069D01*
X038441Y023015D01*
X038462Y022960D01*
X038480Y022903D01*
X038493Y022845D01*
X038503Y022787D01*
X038509Y022728D01*
X038511Y022669D01*
X038509Y022610D01*
X038503Y022551D01*
X038493Y022493D01*
X038480Y022435D01*
X038462Y022378D01*
X038441Y022323D01*
X038416Y022269D01*
X038387Y022217D01*
X038355Y022168D01*
X038320Y022120D01*
X038282Y022075D01*
X038241Y022032D01*
X038197Y021992D01*
X038151Y021956D01*
X038102Y021922D01*
X038051Y021892D01*
X037998Y021865D01*
X037943Y021842D01*
X037888Y021823D01*
X037830Y021807D01*
X037772Y021795D01*
X037714Y021787D01*
X037655Y021783D01*
X037595Y021783D01*
X037536Y021787D01*
X037478Y021795D01*
X037420Y021807D01*
X037362Y021823D01*
X037307Y021842D01*
X037252Y021865D01*
X037199Y021892D01*
X037148Y021922D01*
X037099Y021956D01*
X037053Y021992D01*
X037009Y022032D01*
X036968Y022075D01*
X036930Y022120D01*
X036895Y022168D01*
X036863Y022217D01*
X036834Y022269D01*
X036809Y022323D01*
X036788Y022378D01*
X036770Y022435D01*
X036757Y022493D01*
X036747Y022551D01*
X036741Y022610D01*
X036739Y022669D01*
X005951Y021551D02*
X005953Y021590D01*
X005959Y021629D01*
X005969Y021667D01*
X005982Y021704D01*
X005999Y021739D01*
X006019Y021773D01*
X006043Y021804D01*
X006070Y021833D01*
X006099Y021859D01*
X006131Y021882D01*
X006165Y021902D01*
X006201Y021918D01*
X006238Y021930D01*
X006277Y021939D01*
X006316Y021944D01*
X006355Y021945D01*
X006394Y021942D01*
X006433Y021935D01*
X006470Y021924D01*
X006507Y021910D01*
X006542Y021892D01*
X006575Y021871D01*
X006606Y021846D01*
X006634Y021819D01*
X006659Y021789D01*
X006681Y021756D01*
X006700Y021722D01*
X006715Y021686D01*
X006727Y021648D01*
X006735Y021610D01*
X006739Y021571D01*
X006739Y021531D01*
X006735Y021492D01*
X006727Y021454D01*
X006715Y021416D01*
X006700Y021380D01*
X006681Y021346D01*
X006659Y021313D01*
X006634Y021283D01*
X006606Y021256D01*
X006575Y021231D01*
X006542Y021210D01*
X006507Y021192D01*
X006470Y021178D01*
X006433Y021167D01*
X006394Y021160D01*
X006355Y021157D01*
X006316Y021158D01*
X006277Y021163D01*
X006238Y021172D01*
X006201Y021184D01*
X006165Y021200D01*
X006131Y021220D01*
X006099Y021243D01*
X006070Y021269D01*
X006043Y021298D01*
X006019Y021329D01*
X005999Y021363D01*
X005982Y021398D01*
X005969Y021435D01*
X005959Y021473D01*
X005953Y021512D01*
X005951Y021551D01*
X001739Y022669D02*
X001741Y022728D01*
X001747Y022787D01*
X001757Y022845D01*
X001770Y022903D01*
X001788Y022960D01*
X001809Y023015D01*
X001834Y023069D01*
X001863Y023121D01*
X001895Y023170D01*
X001930Y023218D01*
X001968Y023263D01*
X002009Y023306D01*
X002053Y023346D01*
X002099Y023382D01*
X002148Y023416D01*
X002199Y023446D01*
X002252Y023473D01*
X002307Y023496D01*
X002362Y023515D01*
X002420Y023531D01*
X002478Y023543D01*
X002536Y023551D01*
X002595Y023555D01*
X002655Y023555D01*
X002714Y023551D01*
X002772Y023543D01*
X002830Y023531D01*
X002888Y023515D01*
X002943Y023496D01*
X002998Y023473D01*
X003051Y023446D01*
X003102Y023416D01*
X003151Y023382D01*
X003197Y023346D01*
X003241Y023306D01*
X003282Y023263D01*
X003320Y023218D01*
X003355Y023170D01*
X003387Y023121D01*
X003416Y023069D01*
X003441Y023015D01*
X003462Y022960D01*
X003480Y022903D01*
X003493Y022845D01*
X003503Y022787D01*
X003509Y022728D01*
X003511Y022669D01*
X003509Y022610D01*
X003503Y022551D01*
X003493Y022493D01*
X003480Y022435D01*
X003462Y022378D01*
X003441Y022323D01*
X003416Y022269D01*
X003387Y022217D01*
X003355Y022168D01*
X003320Y022120D01*
X003282Y022075D01*
X003241Y022032D01*
X003197Y021992D01*
X003151Y021956D01*
X003102Y021922D01*
X003051Y021892D01*
X002998Y021865D01*
X002943Y021842D01*
X002888Y021823D01*
X002830Y021807D01*
X002772Y021795D01*
X002714Y021787D01*
X002655Y021783D01*
X002595Y021783D01*
X002536Y021787D01*
X002478Y021795D01*
X002420Y021807D01*
X002362Y021823D01*
X002307Y021842D01*
X002252Y021865D01*
X002199Y021892D01*
X002148Y021922D01*
X002099Y021956D01*
X002053Y021992D01*
X002009Y022032D01*
X001968Y022075D01*
X001930Y022120D01*
X001895Y022168D01*
X001863Y022217D01*
X001834Y022269D01*
X001809Y022323D01*
X001788Y022378D01*
X001770Y022435D01*
X001757Y022493D01*
X001747Y022551D01*
X001741Y022610D01*
X001739Y022669D01*
X005951Y006787D02*
X005953Y006826D01*
X005959Y006865D01*
X005969Y006903D01*
X005982Y006940D01*
X005999Y006975D01*
X006019Y007009D01*
X006043Y007040D01*
X006070Y007069D01*
X006099Y007095D01*
X006131Y007118D01*
X006165Y007138D01*
X006201Y007154D01*
X006238Y007166D01*
X006277Y007175D01*
X006316Y007180D01*
X006355Y007181D01*
X006394Y007178D01*
X006433Y007171D01*
X006470Y007160D01*
X006507Y007146D01*
X006542Y007128D01*
X006575Y007107D01*
X006606Y007082D01*
X006634Y007055D01*
X006659Y007025D01*
X006681Y006992D01*
X006700Y006958D01*
X006715Y006922D01*
X006727Y006884D01*
X006735Y006846D01*
X006739Y006807D01*
X006739Y006767D01*
X006735Y006728D01*
X006727Y006690D01*
X006715Y006652D01*
X006700Y006616D01*
X006681Y006582D01*
X006659Y006549D01*
X006634Y006519D01*
X006606Y006492D01*
X006575Y006467D01*
X006542Y006446D01*
X006507Y006428D01*
X006470Y006414D01*
X006433Y006403D01*
X006394Y006396D01*
X006355Y006393D01*
X006316Y006394D01*
X006277Y006399D01*
X006238Y006408D01*
X006201Y006420D01*
X006165Y006436D01*
X006131Y006456D01*
X006099Y006479D01*
X006070Y006505D01*
X006043Y006534D01*
X006019Y006565D01*
X005999Y006599D01*
X005982Y006634D01*
X005969Y006671D01*
X005959Y006709D01*
X005953Y006748D01*
X005951Y006787D01*
X001739Y005669D02*
X001741Y005728D01*
X001747Y005787D01*
X001757Y005845D01*
X001770Y005903D01*
X001788Y005960D01*
X001809Y006015D01*
X001834Y006069D01*
X001863Y006121D01*
X001895Y006170D01*
X001930Y006218D01*
X001968Y006263D01*
X002009Y006306D01*
X002053Y006346D01*
X002099Y006382D01*
X002148Y006416D01*
X002199Y006446D01*
X002252Y006473D01*
X002307Y006496D01*
X002362Y006515D01*
X002420Y006531D01*
X002478Y006543D01*
X002536Y006551D01*
X002595Y006555D01*
X002655Y006555D01*
X002714Y006551D01*
X002772Y006543D01*
X002830Y006531D01*
X002888Y006515D01*
X002943Y006496D01*
X002998Y006473D01*
X003051Y006446D01*
X003102Y006416D01*
X003151Y006382D01*
X003197Y006346D01*
X003241Y006306D01*
X003282Y006263D01*
X003320Y006218D01*
X003355Y006170D01*
X003387Y006121D01*
X003416Y006069D01*
X003441Y006015D01*
X003462Y005960D01*
X003480Y005903D01*
X003493Y005845D01*
X003503Y005787D01*
X003509Y005728D01*
X003511Y005669D01*
X003509Y005610D01*
X003503Y005551D01*
X003493Y005493D01*
X003480Y005435D01*
X003462Y005378D01*
X003441Y005323D01*
X003416Y005269D01*
X003387Y005217D01*
X003355Y005168D01*
X003320Y005120D01*
X003282Y005075D01*
X003241Y005032D01*
X003197Y004992D01*
X003151Y004956D01*
X003102Y004922D01*
X003051Y004892D01*
X002998Y004865D01*
X002943Y004842D01*
X002888Y004823D01*
X002830Y004807D01*
X002772Y004795D01*
X002714Y004787D01*
X002655Y004783D01*
X002595Y004783D01*
X002536Y004787D01*
X002478Y004795D01*
X002420Y004807D01*
X002362Y004823D01*
X002307Y004842D01*
X002252Y004865D01*
X002199Y004892D01*
X002148Y004922D01*
X002099Y004956D01*
X002053Y004992D01*
X002009Y005032D01*
X001968Y005075D01*
X001930Y005120D01*
X001895Y005168D01*
X001863Y005217D01*
X001834Y005269D01*
X001809Y005323D01*
X001788Y005378D01*
X001770Y005435D01*
X001757Y005493D01*
X001747Y005551D01*
X001741Y005610D01*
X001739Y005669D01*
D12*
X002625Y005669D03*
X002625Y022669D03*
X037625Y022669D03*
X037625Y005669D03*
D13*
X006519Y010251D03*
X005771Y010251D03*
X005771Y011275D03*
X006145Y011275D03*
X006519Y011275D03*
D14*
X004235Y011255D03*
X003723Y011255D03*
X003723Y010665D03*
X004235Y010665D03*
X004137Y007023D03*
X003625Y007023D03*
X005495Y005448D03*
X006007Y005448D03*
X006007Y004661D03*
X005495Y004661D03*
X002956Y015783D03*
X002444Y015783D03*
X002739Y018342D03*
X003251Y018342D03*
X022916Y009287D03*
X023428Y009287D03*
X025771Y008696D03*
X026282Y008696D03*
X026282Y008204D03*
X025771Y008204D03*
X025771Y007712D03*
X026282Y007712D03*
X026282Y007220D03*
X025771Y007220D03*
X025771Y006433D03*
X025771Y005940D03*
X026282Y005940D03*
X026282Y006433D03*
X030987Y010468D03*
X031499Y010468D03*
X031971Y010468D03*
X032483Y010468D03*
X037269Y009919D03*
X037781Y009919D03*
X037781Y012669D03*
X037269Y012669D03*
X037269Y018419D03*
X037781Y018419D03*
D15*
X035377Y017791D03*
X035377Y017318D03*
X033901Y020370D03*
X033901Y020842D03*
X025731Y009720D03*
X025731Y009248D03*
X016184Y007161D03*
X016184Y006688D03*
X014216Y006688D03*
X014216Y007161D03*
X007719Y007673D03*
X007227Y007673D03*
X007227Y008145D03*
X007719Y008145D03*
X006046Y009149D03*
X005554Y009149D03*
X005554Y009622D03*
X006046Y009622D03*
X005062Y009622D03*
X005062Y009149D03*
X005849Y012003D03*
X005849Y012476D03*
X006342Y012476D03*
X006342Y012003D03*
D16*
X004314Y011846D03*
X003645Y011846D03*
X003546Y010074D03*
X004216Y010074D03*
D17*
X003725Y009219D03*
X001725Y009219D03*
X001725Y007719D03*
X003725Y007719D03*
X003725Y013419D03*
X001725Y013419D03*
X001725Y014919D03*
X003725Y014919D03*
X003725Y019119D03*
X003725Y020619D03*
X001725Y020619D03*
X001725Y019119D03*
X036525Y019119D03*
X036525Y020619D03*
X038525Y020619D03*
X038525Y019119D03*
X038525Y014919D03*
X038525Y013419D03*
X036525Y013419D03*
X036525Y014919D03*
X036525Y009219D03*
X036525Y007719D03*
X038525Y007719D03*
X038525Y009219D03*
D18*
X033905Y006787D03*
X033905Y021551D03*
X006345Y021551D03*
X006345Y006787D03*
D19*
X007582Y006039D03*
X008054Y006039D03*
X010731Y004562D03*
X011204Y004562D03*
X014176Y007712D03*
X014649Y007712D03*
X016834Y009188D03*
X016834Y009681D03*
X017306Y009681D03*
X017306Y009188D03*
X019294Y009976D03*
X019767Y009976D03*
X022936Y009779D03*
X023408Y009779D03*
X013566Y009779D03*
X013094Y009779D03*
X013094Y010271D03*
X013566Y010271D03*
X010219Y010665D03*
X009747Y010665D03*
D20*
X005219Y012633D03*
X003723Y012633D03*
D21*
X002688Y011881D03*
X002688Y011625D03*
X002688Y011369D03*
X002688Y011113D03*
X002688Y010857D03*
D22*
X002637Y010495D02*
X002637Y010275D01*
X002637Y010495D02*
X002739Y010495D01*
X002739Y010275D01*
X002637Y010275D01*
X002637Y012243D02*
X002637Y012463D01*
X002739Y012463D01*
X002739Y012243D01*
X002637Y012243D01*
D23*
X001625Y012598D03*
X001625Y010139D03*
D24*
X001625Y010975D03*
X001625Y011762D03*
D25*
X027361Y009678D03*
X027794Y009678D03*
X028227Y009678D03*
X028660Y009678D03*
X029093Y009678D03*
X029526Y009678D03*
X029959Y009678D03*
X030392Y009678D03*
X030825Y009678D03*
D26*
X026713Y009442D03*
D27*
X026849Y005594D03*
X032912Y005594D03*
D28*
X032590Y009524D03*
D29*
X031101Y005387D03*
X027951Y005387D03*
D30*
X022290Y009198D03*
X021897Y009198D03*
X021503Y009198D03*
X021109Y009198D03*
X020716Y009198D03*
X020322Y009198D03*
X019928Y009198D03*
X019534Y009198D03*
X019141Y009198D03*
X018747Y009198D03*
X018353Y009198D03*
X017960Y009198D03*
D31*
X016897Y007979D03*
X023353Y007979D03*
D32*
G36*
X013362Y007835D02*
X013723Y008196D01*
X013834Y008085D01*
X013473Y007724D01*
X013362Y007835D01*
G37*
G36*
X013223Y007974D02*
X013584Y008335D01*
X013695Y008224D01*
X013334Y007863D01*
X013223Y007974D01*
G37*
G36*
X013084Y008113D02*
X013445Y008474D01*
X013556Y008363D01*
X013195Y008002D01*
X013084Y008113D01*
G37*
G36*
X012945Y008252D02*
X013306Y008613D01*
X013417Y008502D01*
X013056Y008141D01*
X012945Y008252D01*
G37*
G36*
X012806Y008391D02*
X013167Y008752D01*
X013278Y008641D01*
X012917Y008280D01*
X012806Y008391D01*
G37*
G36*
X012666Y008531D02*
X013027Y008892D01*
X013138Y008781D01*
X012777Y008420D01*
X012666Y008531D01*
G37*
G36*
X012527Y008670D02*
X012888Y009031D01*
X012999Y008920D01*
X012638Y008559D01*
X012527Y008670D01*
G37*
G36*
X012388Y008809D02*
X012749Y009170D01*
X012860Y009059D01*
X012499Y008698D01*
X012388Y008809D01*
G37*
G36*
X012249Y008948D02*
X012610Y009309D01*
X012721Y009198D01*
X012360Y008837D01*
X012249Y008948D01*
G37*
G36*
X012110Y009087D02*
X012471Y009448D01*
X012582Y009337D01*
X012221Y008976D01*
X012110Y009087D01*
G37*
G36*
X011970Y009227D02*
X012331Y009588D01*
X012442Y009477D01*
X012081Y009116D01*
X011970Y009227D01*
G37*
G36*
X011831Y009366D02*
X012192Y009727D01*
X012303Y009616D01*
X011942Y009255D01*
X011831Y009366D01*
G37*
G36*
X011692Y009505D02*
X012053Y009866D01*
X012164Y009755D01*
X011803Y009394D01*
X011692Y009505D01*
G37*
G36*
X011553Y009644D02*
X011914Y010005D01*
X012025Y009894D01*
X011664Y009533D01*
X011553Y009644D01*
G37*
G36*
X011414Y009783D02*
X011775Y010144D01*
X011886Y010033D01*
X011525Y009672D01*
X011414Y009783D01*
G37*
G36*
X011274Y009923D02*
X011635Y010284D01*
X011746Y010173D01*
X011385Y009812D01*
X011274Y009923D01*
G37*
G36*
X008101Y006749D02*
X008462Y007110D01*
X008573Y006999D01*
X008212Y006638D01*
X008101Y006749D01*
G37*
G36*
X008240Y006610D02*
X008601Y006971D01*
X008712Y006860D01*
X008351Y006499D01*
X008240Y006610D01*
G37*
G36*
X008379Y006471D02*
X008740Y006832D01*
X008851Y006721D01*
X008490Y006360D01*
X008379Y006471D01*
G37*
G36*
X008518Y006331D02*
X008879Y006692D01*
X008990Y006581D01*
X008629Y006220D01*
X008518Y006331D01*
G37*
G36*
X008658Y006192D02*
X009019Y006553D01*
X009130Y006442D01*
X008769Y006081D01*
X008658Y006192D01*
G37*
G36*
X008797Y006053D02*
X009158Y006414D01*
X009269Y006303D01*
X008908Y005942D01*
X008797Y006053D01*
G37*
G36*
X008936Y005914D02*
X009297Y006275D01*
X009408Y006164D01*
X009047Y005803D01*
X008936Y005914D01*
G37*
G36*
X009075Y005775D02*
X009436Y006136D01*
X009547Y006025D01*
X009186Y005664D01*
X009075Y005775D01*
G37*
G36*
X009214Y005635D02*
X009575Y005996D01*
X009686Y005885D01*
X009325Y005524D01*
X009214Y005635D01*
G37*
G36*
X009353Y005496D02*
X009714Y005857D01*
X009825Y005746D01*
X009464Y005385D01*
X009353Y005496D01*
G37*
G36*
X009493Y005357D02*
X009854Y005718D01*
X009965Y005607D01*
X009604Y005246D01*
X009493Y005357D01*
G37*
G36*
X009632Y005218D02*
X009993Y005579D01*
X010104Y005468D01*
X009743Y005107D01*
X009632Y005218D01*
G37*
G36*
X009771Y005079D02*
X010132Y005440D01*
X010243Y005329D01*
X009882Y004968D01*
X009771Y005079D01*
G37*
G36*
X009910Y004939D02*
X010271Y005300D01*
X010382Y005189D01*
X010021Y004828D01*
X009910Y004939D01*
G37*
G36*
X010049Y004800D02*
X010410Y005161D01*
X010521Y005050D01*
X010160Y004689D01*
X010049Y004800D01*
G37*
G36*
X010189Y004661D02*
X010550Y005022D01*
X010661Y004911D01*
X010300Y004550D01*
X010189Y004661D01*
G37*
D33*
G36*
X011274Y004911D02*
X011385Y005022D01*
X011746Y004661D01*
X011635Y004550D01*
X011274Y004911D01*
G37*
G36*
X011414Y005050D02*
X011525Y005161D01*
X011886Y004800D01*
X011775Y004689D01*
X011414Y005050D01*
G37*
G36*
X011553Y005189D02*
X011664Y005300D01*
X012025Y004939D01*
X011914Y004828D01*
X011553Y005189D01*
G37*
G36*
X011692Y005329D02*
X011803Y005440D01*
X012164Y005079D01*
X012053Y004968D01*
X011692Y005329D01*
G37*
G36*
X011831Y005468D02*
X011942Y005579D01*
X012303Y005218D01*
X012192Y005107D01*
X011831Y005468D01*
G37*
G36*
X011970Y005607D02*
X012081Y005718D01*
X012442Y005357D01*
X012331Y005246D01*
X011970Y005607D01*
G37*
G36*
X012110Y005746D02*
X012221Y005857D01*
X012582Y005496D01*
X012471Y005385D01*
X012110Y005746D01*
G37*
G36*
X012249Y005885D02*
X012360Y005996D01*
X012721Y005635D01*
X012610Y005524D01*
X012249Y005885D01*
G37*
G36*
X012388Y006025D02*
X012499Y006136D01*
X012860Y005775D01*
X012749Y005664D01*
X012388Y006025D01*
G37*
G36*
X012527Y006164D02*
X012638Y006275D01*
X012999Y005914D01*
X012888Y005803D01*
X012527Y006164D01*
G37*
G36*
X012666Y006303D02*
X012777Y006414D01*
X013138Y006053D01*
X013027Y005942D01*
X012666Y006303D01*
G37*
G36*
X012806Y006442D02*
X012917Y006553D01*
X013278Y006192D01*
X013167Y006081D01*
X012806Y006442D01*
G37*
G36*
X012945Y006581D02*
X013056Y006692D01*
X013417Y006331D01*
X013306Y006220D01*
X012945Y006581D01*
G37*
G36*
X013084Y006721D02*
X013195Y006832D01*
X013556Y006471D01*
X013445Y006360D01*
X013084Y006721D01*
G37*
G36*
X013223Y006860D02*
X013334Y006971D01*
X013695Y006610D01*
X013584Y006499D01*
X013223Y006860D01*
G37*
G36*
X013362Y006999D02*
X013473Y007110D01*
X013834Y006749D01*
X013723Y006638D01*
X013362Y006999D01*
G37*
G36*
X009771Y009755D02*
X009882Y009866D01*
X010243Y009505D01*
X010132Y009394D01*
X009771Y009755D01*
G37*
G36*
X009632Y009616D02*
X009743Y009727D01*
X010104Y009366D01*
X009993Y009255D01*
X009632Y009616D01*
G37*
G36*
X009493Y009477D02*
X009604Y009588D01*
X009965Y009227D01*
X009854Y009116D01*
X009493Y009477D01*
G37*
G36*
X009353Y009337D02*
X009464Y009448D01*
X009825Y009087D01*
X009714Y008976D01*
X009353Y009337D01*
G37*
G36*
X009214Y009198D02*
X009325Y009309D01*
X009686Y008948D01*
X009575Y008837D01*
X009214Y009198D01*
G37*
G36*
X009075Y009059D02*
X009186Y009170D01*
X009547Y008809D01*
X009436Y008698D01*
X009075Y009059D01*
G37*
G36*
X008936Y008920D02*
X009047Y009031D01*
X009408Y008670D01*
X009297Y008559D01*
X008936Y008920D01*
G37*
G36*
X008797Y008781D02*
X008908Y008892D01*
X009269Y008531D01*
X009158Y008420D01*
X008797Y008781D01*
G37*
G36*
X008658Y008641D02*
X008769Y008752D01*
X009130Y008391D01*
X009019Y008280D01*
X008658Y008641D01*
G37*
G36*
X008518Y008502D02*
X008629Y008613D01*
X008990Y008252D01*
X008879Y008141D01*
X008518Y008502D01*
G37*
G36*
X008379Y008363D02*
X008490Y008474D01*
X008851Y008113D01*
X008740Y008002D01*
X008379Y008363D01*
G37*
G36*
X008240Y008224D02*
X008351Y008335D01*
X008712Y007974D01*
X008601Y007863D01*
X008240Y008224D01*
G37*
G36*
X008101Y008085D02*
X008212Y008196D01*
X008573Y007835D01*
X008462Y007724D01*
X008101Y008085D01*
G37*
G36*
X009910Y009894D02*
X010021Y010005D01*
X010382Y009644D01*
X010271Y009533D01*
X009910Y009894D01*
G37*
G36*
X010049Y010033D02*
X010160Y010144D01*
X010521Y009783D01*
X010410Y009672D01*
X010049Y010033D01*
G37*
G36*
X010189Y010173D02*
X010300Y010284D01*
X010661Y009923D01*
X010550Y009812D01*
X010189Y010173D01*
G37*
D34*
X033408Y018578D03*
X033901Y018578D03*
X034393Y018578D03*
X034885Y018578D03*
X034885Y019090D03*
X034393Y019090D03*
X033901Y019090D03*
X033408Y019090D03*
X035377Y019090D03*
X035869Y019090D03*
X035869Y018578D03*
X035377Y018578D03*
X035475Y006196D03*
X035475Y005685D03*
D35*
X004764Y005599D02*
X004764Y005297D01*
X004764Y005599D02*
X005066Y005599D01*
X005066Y005297D01*
X004764Y005297D01*
X004764Y005426D02*
X005066Y005426D01*
X005066Y005555D02*
X004764Y005555D01*
X004074Y005599D02*
X004074Y005297D01*
X004074Y005599D02*
X004376Y005599D01*
X004376Y005297D01*
X004074Y005297D01*
X004074Y005426D02*
X004376Y005426D01*
X004376Y005555D02*
X004074Y005555D01*
X004074Y004812D02*
X004074Y004510D01*
X004074Y004812D02*
X004376Y004812D01*
X004376Y004510D01*
X004074Y004510D01*
X004074Y004639D02*
X004376Y004639D01*
X004376Y004768D02*
X004074Y004768D01*
X004764Y004812D02*
X004764Y004510D01*
X004764Y004812D02*
X005066Y004812D01*
X005066Y004510D01*
X004764Y004510D01*
X004764Y004639D02*
X005066Y004639D01*
X005066Y004768D02*
X004764Y004768D01*
D36*
X005062Y010143D03*
X005062Y011383D03*
D37*
X008125Y011419D03*
X009125Y011419D03*
X010125Y011419D03*
X011125Y011419D03*
X012125Y011419D03*
X013125Y011419D03*
X014125Y011419D03*
X015125Y011419D03*
X016125Y011419D03*
X017125Y011419D03*
X018125Y011419D03*
X019125Y011419D03*
X020125Y011419D03*
X021125Y011419D03*
X022125Y011419D03*
X023125Y011419D03*
X012625Y021169D03*
X011625Y021169D03*
X010625Y021169D03*
D38*
X014708Y006925D03*
X015692Y006925D03*
D39*
X015121Y008864D03*
X014294Y008864D03*
X014294Y009513D03*
X015121Y009513D03*
D40*
X026455Y017145D03*
X026455Y017645D03*
X026455Y018145D03*
X026455Y018645D03*
X026455Y019145D03*
X028355Y019145D03*
X028355Y018645D03*
X028355Y018145D03*
X028355Y017645D03*
X028355Y017145D03*
D41*
X029956Y016645D03*
X030956Y016645D03*
X030956Y015645D03*
X029956Y015645D03*
X029956Y014645D03*
X030956Y014645D03*
X030956Y013645D03*
X029956Y013645D03*
X029956Y017645D03*
X030956Y017645D03*
X030956Y018645D03*
X029956Y018645D03*
X029956Y019645D03*
X030956Y019645D03*
X030956Y020645D03*
X029956Y020645D03*
X029956Y021645D03*
X030956Y021645D03*
X030956Y022645D03*
X029956Y022645D03*
D42*
X035771Y004759D03*
X035869Y004759D03*
D43*
X012625Y023169D03*
X011625Y023169D03*
X010625Y023169D03*
D44*
X010125Y012169D03*
X009125Y012169D03*
X008125Y012169D03*
X011125Y012169D03*
X012125Y012169D03*
X013125Y012169D03*
X014125Y012169D03*
X015125Y012169D03*
X016125Y012169D03*
X017125Y012169D03*
X018125Y012169D03*
X019125Y012169D03*
X020125Y012169D03*
X021125Y012169D03*
X022125Y012169D03*
X023125Y012169D03*
M02*
